<?xml version="1.0" encoding="UTF-8" standalone="no"?>
<!-- Generator: Adobe Illustrator 19.0.0, SVG Export Plug-In . SVG Version: 6.00 Build 0)  -->

<svg
   xmlns:osb="http://www.openswatchbook.org/uri/2009/osb"
   xmlns:dc="http://purl.org/dc/elements/1.1/"
   xmlns:cc="http://creativecommons.org/ns#"
   xmlns:rdf="http://www.w3.org/1999/02/22-rdf-syntax-ns#"
   xmlns:svg="http://www.w3.org/2000/svg"
   xmlns="http://www.w3.org/2000/svg"
   xmlns:xlink="http://www.w3.org/1999/xlink"
   xmlns:sodipodi="http://sodipodi.sourceforge.net/DTD/sodipodi-0.dtd"
   xmlns:inkscape="http://www.inkscape.org/namespaces/inkscape"
   version="1.1"
   id="Capa_1"
   x="0px"
   y="0px"
   viewBox="0 0 511.999 511.999"
   style="enable-background:new 0 0 511.999 511.999;"
   xml:space="preserve"
   sodipodi:docname="11.svg"
   inkscape:version="0.92.4 (5da689c313, 2019-01-14)"><metadata
   id="metadata95"><rdf:RDF><cc:Work
       rdf:about=""><dc:format>image/svg+xml</dc:format><dc:type
         rdf:resource="http://purl.org/dc/dcmitype/StillImage" /><dc:title /></cc:Work></rdf:RDF></metadata><defs
   id="defs93"><linearGradient
     id="linearGradient2457"
     osb:paint="solid"><stop
       style="stop-color:#000000;stop-opacity:1;"
       offset="0"
       id="stop2455" /></linearGradient><linearGradient
     inkscape:collect="always"
     xlink:href="#linearGradient2457"
     id="linearGradient2459-6-2"
     x1="1442.3572"
     y1="-339.5119"
     x2="1514.9286"
     y2="-339.5119"
     gradientUnits="userSpaceOnUse"
     gradientTransform="matrix(6.4669274,0,0,9.6773016,-9356.1743,3517.6929)" /></defs><sodipodi:namedview
   pagecolor="#ffffff"
   bordercolor="#666666"
   borderopacity="1"
   objecttolerance="10"
   gridtolerance="10"
   guidetolerance="10"
   inkscape:pageopacity="0"
   inkscape:pageshadow="2"
   inkscape:window-width="1920"
   inkscape:window-height="986"
   id="namedview91"
   showgrid="false"
   inkscape:zoom="1.3037307"
   inkscape:cx="126.97062"
   inkscape:cy="256.72861"
   inkscape:window-x="-11"
   inkscape:window-y="-11"
   inkscape:window-maximized="1"
   inkscape:current-layer="g1046" />























<g
   id="g60">
</g>
<g
   id="g62">
</g>
<g
   id="g64">
</g>
<g
   id="g66">
</g>
<g
   id="g68">
</g>
<g
   id="g70">
</g>
<g
   id="g72">
</g>
<g
   id="g74">
</g>
<g
   id="g76">
</g>
<g
   id="g78">
</g>
<g
   id="g80">
</g>
<g
   id="g82">
</g>
<g
   id="g84">
</g>
<g
   id="g86">
</g>
<g
   id="g88">
</g>
<g
   id="g1046"
   transform="matrix(0.55886315,0,0,0.55886315,157.54779,132.77619)"><rect
   y="-104.38158"
   x="-28.555799"
   height="673.03345"
   width="469.31418"
   id="rect2447-0-9"
   style="display:inline;fill:none;fill-opacity:1;stroke:url(#linearGradient2459-6-2);stroke-width:25.31489563;stroke-miterlimit:4;stroke-dasharray:none;stroke-opacity:1" /><text
   id="text2485-9"
   y="522.54254"
   x="104.18588"
   style="font-style:normal;font-weight:normal;font-size:76.99105835px;line-height:1.25;font-family:sans-serif;letter-spacing:0px;word-spacing:0px;display:inline;fill:#000000;fill-opacity:1;stroke:none;stroke-width:1.9247762"
   xml:space="preserve"><tspan
     style="stroke-width:1.9247762"
     y="522.54254"
     x="104.18588"
     id="tspan2483-7"
     sodipodi:role="line">PAUL</tspan></text>


<g
   transform="matrix(0.89932054,0,0,0.89932054,-24.124768,-21.832545)"
   id="g895"><path
     inkscape:connector-curvature="0"
     id="path2-6"
     d="M 344.659,22.789 C 320.205,13.222 289.462,7.5 256,7.5 c -33.462,0 -64.205,5.722 -88.659,15.289 -9.328,3.649 -15.55,12.513 -15.55,22.529 V 87.661 H 360.21 V 45.318 c 0,-10.015 -6.223,-18.88 -15.551,-22.529 z"
     style="fill:#6e5a64" /><ellipse
     id="ellipse4"
     ry="72.139999"
     rx="144.28999"
     cy="127.74"
     cx="256"
     style="fill:#64505a" /><path
     inkscape:connector-curvature="0"
     id="path6"
     d="m 413.862,374.103 -84.486,-24.849 c -10.235,-3.01 -17.263,-12.403 -17.263,-23.071 V 288.064 H 199.887 v 38.119 c 0,10.668 -7.028,20.061 -17.263,23.071 l -84.486,24.849 c -20.469,6.02 -34.526,24.806 -34.526,46.142 V 504.5 h 384.774 v -84.254 c 10e-4,-21.336 -14.055,-40.122 -34.524,-46.143 z"
     style="fill:#e3aa75" /><path
     inkscape:connector-curvature="0"
     id="path8"
     d="m 199.887,313.969 c 16.841,8.996 35.939,14.176 56.113,14.176 20.174,0 39.272,-5.18 56.113,-14.176 V 288.064 H 199.887 Z"
     style="fill:#d29b6e" /><path
     inkscape:connector-curvature="0"
     id="path10"
     d="M 372.234,167.823 H 360.21 c -8.854,0 -16.032,-7.178 -16.032,-16.032 v -32.065 c 0,-17.709 -39.478,-32.065 -88.177,-32.065 -48.699,0 -88.177,14.356 -88.177,32.065 v 32.065 c 0,8.854 -7.179,16.032 -16.032,16.032 h -12.024 c -11.068,0 -20.04,8.972 -20.04,20.04 0,11.068 8.972,20.04 20.04,20.04 h 12.429 c 4.106,53.795 48.958,96.194 103.805,96.194 54.847,0 99.699,-42.398 103.805,-96.194 h 12.429 c 11.068,0 20.04,-8.973 20.04,-20.04 -0.002,-11.068 -8.974,-20.04 -20.042,-20.04 z"
     style="fill:#f5b97d" /><path
     inkscape:connector-curvature="0"
     id="path12-8"
     d="m 256,87.661 c -46.721,0 -84.853,13.223 -87.882,29.934 -0.192,0.562 -0.296,1.253 -0.296,2.13 v 32.065 c 0,8.854 -7.178,16.032 -16.032,16.032 h -10.88 c -10.483,0 -20.036,7.542 -21.081,17.973 -1.202,11.996 8.186,22.108 19.936,22.108 h 12.43 c 4.106,53.795 48.957,96.194 103.805,96.194 5.483,0 10.83,-0.534 16.083,-1.351 -49.946,-7.708 -88.228,-50.754 -88.228,-102.859 v -38.501 c 0,-24.153 17.878,-44.525 41.819,-47.724 9.452,-1.263 19.665,-1.953 30.326,-1.953 48.699,0 88.177,14.356 88.177,32.065 v -24.048 c 0,-17.709 -39.478,-32.065 -88.177,-32.065 z"
     style="fill:#e3aa75" /><path
     inkscape:connector-curvature="0"
     id="path14"
     d="m 413.862,374.103 -29.825,-8.772 C 368.985,383.183 315.65,443.237 256,472.435 196.35,443.236 143.015,383.183 127.963,365.331 l -29.825,8.772 c -20.469,6.02 -34.526,24.806 -34.526,46.143 V 504.5 h 384.774 v -84.254 c 10e-4,-21.336 -14.055,-40.122 -34.524,-46.143 z"
     style="fill:#6e5a64" /><g
     id="g20"><circle
       id="circle16"
       r="12.02"
       cy="219.92999"
       cx="139.77"
       style="fill:#ffd164" /><circle
       id="circle18"
       r="12.02"
       cy="219.92999"
       cx="372.23001"
       style="fill:#ffd164" /></g><path
     inkscape:connector-curvature="0"
     id="path22-9"
     d="M 215.919,296.081 256,280.048 l 40.081,16.032 -23.076,23.076 c -9.391,9.391 -24.618,9.391 -34.01,0 z"
     style="fill:#64505a" /><path
     inkscape:connector-curvature="0"
     id="path24-2"
     d="m 207.903,168.338 c -4.143,0 -7.5,3.358 -7.5,7.5 v 8.016 c 0,4.142 3.357,7.5 7.5,7.5 4.143,0 7.5,-3.358 7.5,-7.5 v -8.016 c 0,-4.142 -3.357,-7.5 -7.5,-7.5 z" /><path
     inkscape:connector-curvature="0"
     id="path26-5"
     d="m 304.097,168.338 c -4.143,0 -7.5,3.358 -7.5,7.5 v 8.016 c 0,4.142 3.357,7.5 7.5,7.5 4.143,0 7.5,-3.358 7.5,-7.5 v -8.016 c 0,-4.142 -3.358,-7.5 -7.5,-7.5 z" /><path
     inkscape:connector-curvature="0"
     id="path28"
     d="m 256,247.467 c 11.896,0 22.856,-3.804 29.315,-10.177 2.949,-2.909 2.981,-7.658 0.072,-10.606 -2.908,-2.95 -7.658,-2.981 -10.605,-0.072 -2.738,2.701 -9.301,5.855 -18.782,5.855 -9.481,0 -16.044,-3.154 -18.782,-5.855 -2.948,-2.909 -7.698,-2.876 -10.605,0.072 -2.909,2.949 -2.877,7.697 0.072,10.606 6.459,6.373 17.419,10.177 29.315,10.177 z" /><path
     inkscape:connector-curvature="0"
     id="path30"
     d="m 415.979,366.908 -84.486,-24.849 c -6.994,-2.057 -11.879,-8.585 -11.879,-15.876 v -34.435 c 19.671,-13.594 34.341,-33.054 42.03,-55.442 3.054,1.982 6.687,3.146 10.591,3.146 10.766,0 19.524,-8.759 19.524,-19.524 0,-3.828 -1.124,-7.391 -3.035,-10.408 6.003,-4.501 10.146,-11.216 10.91,-18.844 0.777,-7.771 -1.765,-15.53 -6.976,-21.288 -1.016,-1.123 -2.12,-2.15 -3.292,-3.08 12.087,-11.645 18.425,-24.816 18.425,-38.565 0,-21.246 -15.096,-40.298 -40.081,-54.439 V 45.319 c 0,-13.1 -7.975,-24.685 -20.317,-29.514 C 320.966,5.465 289.362,0 256,0 222.638,0 191.034,5.465 164.607,15.805 152.264,20.634 144.29,32.219 144.29,45.319 v 27.984 c -24.985,14.142 -40.081,33.194 -40.081,54.439 0,13.837 6.416,27.082 18.649,38.779 -5.777,4.497 -9.746,11.076 -10.492,18.526 -0.778,7.771 1.764,15.531 6.975,21.289 1.154,1.275 2.422,2.423 3.774,3.448 -1.811,2.961 -2.874,6.426 -2.874,10.144 0,10.766 8.759,19.524 19.524,19.524 3.902,0 7.533,-1.163 10.586,-3.143 10.025,29.198 31.918,53.411 61.314,66.125 l 22.026,22.026 c 6.151,6.151 14.229,9.226 22.309,9.226 8.078,0 16.158,-3.076 22.309,-9.226 l 22.025,-22.025 c 1.445,-0.625 2.871,-1.277 4.279,-1.957 v 25.705 c 0,13.898 9.313,26.345 22.646,30.267 l 44.309,13.032 C 354.477,388.795 307.698,438.286 256,464.09 204.354,438.311 157.54,388.8 140.434,369.481 L 184.74,356.45 c 13.334,-3.922 22.646,-16.368 22.646,-30.267 v -6.053 c 0,-4.142 -3.357,-7.5 -7.5,-7.5 -4.143,0 -7.5,3.358 -7.5,7.5 v 6.053 c 0,7.291 -4.885,13.819 -11.879,15.876 L 96.021,366.908 C 72.523,373.82 56.112,395.753 56.112,420.246 V 504.5 c 0,4.142 3.357,7.5 7.5,7.5 4.143,0 7.5,-3.358 7.5,-7.5 v -84.254 c 0,-17.885 11.983,-33.9 29.142,-38.947 l 24.33,-7.156 c 12.516,14.752 66.39,75.538 128.183,105.061 1.022,0.489 2.128,0.733 3.233,0.733 1.105,0 2.211,-0.244 3.233,-0.733 61.793,-29.523 115.667,-90.309 128.183,-105.061 l 24.33,7.156 c 17.158,5.047 29.142,21.063 29.142,38.947 V 504.5 c 0,4.142 3.357,7.5 7.5,7.5 4.143,0 7.5,-3.358 7.5,-7.5 v -84.254 c 0,-24.494 -16.411,-46.427 -39.909,-53.338 z M 372.234,224.452 c -2.495,0 -4.524,-2.03 -4.524,-4.524 0,-2.494 2.029,-4.524 4.524,-4.524 2.495,0 4.524,2.029 4.524,4.524 0,2.495 -2.029,4.524 -4.524,4.524 z M 159.29,45.319 c 0,-6.88 4.232,-12.982 10.782,-15.545 C 194.775,20.109 224.488,15 256,15 c 31.512,0 61.225,5.109 85.928,14.774 6.55,2.563 10.782,8.665 10.782,15.545 V 65.908 C 326.623,54.731 293.061,48.097 256,48.097 c -37.061,0 -70.623,6.635 -96.71,17.811 z m -19.524,179.133 c -2.495,0 -4.524,-2.03 -4.524,-4.524 0,-2.494 2.029,-4.524 4.524,-4.524 2.495,0 4.524,2.029 4.524,4.524 0,2.495 -2.029,4.524 -4.524,4.524 z m 127.935,89.402 c -6.451,6.452 -16.951,6.452 -23.402,0 L 229.265,298.821 256,288.126 282.735,298.82 Z M 295.979,287.963 263.5,274.971 v -2.939 c 0,-4.142 -3.357,-7.5 -7.5,-7.5 -4.143,0 -7.5,3.358 -7.5,7.5 v 2.939 l -32.481,12.993 c -34.562,-15.687 -56.729,-49.922 -56.729,-88.078 0,-4.142 -3.357,-7.5 -7.5,-7.5 -4.143,0 -7.5,3.358 -7.5,7.5 v 0.516 h -4.524 c -3.537,0 -6.928,-1.505 -9.303,-4.131 -2.407,-2.66 -3.533,-6.115 -3.171,-9.729 0.63,-6.292 6.611,-11.22 13.617,-11.22 h 10.881 c 12.976,0 23.532,-10.557 23.532,-23.532 v -32.063 c 0,-3.704 5.471,-10.018 20.89,-15.625 15.854,-5.765 37.087,-8.94 59.788,-8.94 13.465,0 26.851,1.165 38.71,3.37 4.075,0.762 7.988,-1.93 8.745,-6.003 0.757,-4.072 -1.931,-7.987 -6.003,-8.744 C 284.52,81.381 270.574,80.162 256,80.162 c -24.405,0 -47.459,3.496 -64.914,9.843 -25.427,9.246 -30.764,21.266 -30.764,29.722 v 32.063 c 0,4.705 -3.827,8.532 -8.532,8.532 h -13.233 c -9.243,-7.327 -19.348,-18.546 -19.348,-32.58 0,-35.042 62.643,-64.646 136.791,-64.646 74.148,0 136.791,29.604 136.791,64.646 0,14.055 -10.146,25.285 -19.348,32.58 H 360.21 c -4.705,0 -8.532,-3.828 -8.532,-8.532 v -32.063 c 0,-6.721 -3.487,-16.533 -20.099,-25.108 -3.68,-1.898 -8.203,-0.457 -10.104,3.224 -1.9,3.681 -0.457,8.205 3.224,10.105 7.501,3.872 11.979,8.276 11.979,11.779 v 32.063 c 0,12.976 10.557,23.532 23.532,23.532 h 12.024 c 3.536,0 6.927,1.505 9.302,4.13 2.407,2.66 3.533,6.115 3.172,9.729 -0.63,6.292 -6.61,11.221 -13.616,11.221 h -3.386 v -0.438 c 0,-4.141 -3.356,-7.499 -7.497,-7.5 -10e-4,0 -0.002,0 -0.003,0 -4.14,0 -7.497,3.354 -7.5,7.495 -0.028,38.115 -22.197,72.33 -56.727,88.004 z" /><path
     inkscape:connector-curvature="0"
     id="path32"
     d="m 223.419,151.79 c 0,-4.142 -3.357,-7.5 -7.5,-7.5 h -16.032 c -4.143,0 -7.5,3.358 -7.5,7.5 0,4.142 3.357,7.5 7.5,7.5 h 16.032 c 4.143,0 7.5,-3.358 7.5,-7.5 z" /><path
     inkscape:connector-curvature="0"
     id="path34"
     d="m 296.081,159.29 h 16.032 c 4.143,0 7.5,-3.358 7.5,-7.5 0,-4.142 -3.357,-7.5 -7.5,-7.5 h -16.032 c -4.143,0 -7.5,3.358 -7.5,7.5 0,4.142 3.357,7.5 7.5,7.5 z" /></g></g></svg>