<?xml version="1.0" encoding="UTF-8" standalone="no"?>
<!-- Generator: Adobe Illustrator 19.0.0, SVG Export Plug-In . SVG Version: 6.00 Build 0)  -->

<svg
   xmlns:osb="http://www.openswatchbook.org/uri/2009/osb"
   xmlns:dc="http://purl.org/dc/elements/1.1/"
   xmlns:cc="http://creativecommons.org/ns#"
   xmlns:rdf="http://www.w3.org/1999/02/22-rdf-syntax-ns#"
   xmlns:svg="http://www.w3.org/2000/svg"
   xmlns="http://www.w3.org/2000/svg"
   xmlns:xlink="http://www.w3.org/1999/xlink"
   xmlns:sodipodi="http://sodipodi.sourceforge.net/DTD/sodipodi-0.dtd"
   xmlns:inkscape="http://www.inkscape.org/namespaces/inkscape"
   version="1.1"
   id="Capa_1"
   x="0px"
   y="0px"
   viewBox="0 0 511.999 511.999"
   style="enable-background:new 0 0 511.999 511.999;"
   xml:space="preserve"
   sodipodi:docname="12.svg"
   inkscape:version="0.92.4 (5da689c313, 2019-01-14)"><metadata
   id="metadata95"><rdf:RDF><cc:Work
       rdf:about=""><dc:format>image/svg+xml</dc:format><dc:type
         rdf:resource="http://purl.org/dc/dcmitype/StillImage" /><dc:title /></cc:Work></rdf:RDF></metadata><defs
   id="defs93"><linearGradient
     id="linearGradient2457"
     osb:paint="solid"><stop
       style="stop-color:#000000;stop-opacity:1;"
       offset="0"
       id="stop2455" /></linearGradient><linearGradient
     inkscape:collect="always"
     xlink:href="#linearGradient2457"
     id="linearGradient2459-6-2"
     x1="1442.3572"
     y1="-339.5119"
     x2="1514.9286"
     y2="-339.5119"
     gradientUnits="userSpaceOnUse"
     gradientTransform="matrix(6.4669274,0,0,9.6773016,-9356.1743,3517.6929)" /></defs><sodipodi:namedview
   pagecolor="#ffffff"
   bordercolor="#666666"
   borderopacity="1"
   objecttolerance="10"
   gridtolerance="10"
   guidetolerance="10"
   inkscape:pageopacity="0"
   inkscape:pageshadow="2"
   inkscape:window-width="1920"
   inkscape:window-height="986"
   id="namedview91"
   showgrid="false"
   inkscape:zoom="1.3037307"
   inkscape:cx="-87.797664"
   inkscape:cy="256.72861"
   inkscape:window-x="-11"
   inkscape:window-y="-11"
   inkscape:window-maximized="1"
   inkscape:current-layer="g1046" />























<g
   id="g60">
</g>
<g
   id="g62">
</g>
<g
   id="g64">
</g>
<g
   id="g66">
</g>
<g
   id="g68">
</g>
<g
   id="g70">
</g>
<g
   id="g72">
</g>
<g
   id="g74">
</g>
<g
   id="g76">
</g>
<g
   id="g78">
</g>
<g
   id="g80">
</g>
<g
   id="g82">
</g>
<g
   id="g84">
</g>
<g
   id="g86">
</g>
<g
   id="g88">
</g>
<g
   id="g1046"
   transform="matrix(0.55886315,0,0,0.55886315,157.54779,132.77619)"><rect
   y="-104.38158"
   x="-28.555799"
   height="673.03345"
   width="469.31418"
   id="rect2447-0-9"
   style="display:inline;fill:none;fill-opacity:1;stroke:url(#linearGradient2459-6-2);stroke-width:25.31489563;stroke-miterlimit:4;stroke-dasharray:none;stroke-opacity:1" /><text
   id="text2485-9"
   y="522.54254"
   x="36.179619"
   style="font-style:normal;font-weight:normal;font-size:76.99105835px;line-height:1.25;font-family:sans-serif;letter-spacing:0px;word-spacing:0px;display:inline;fill:#000000;fill-opacity:1;stroke:none;stroke-width:1.9247762"
   xml:space="preserve"><tspan
     style="stroke-width:1.9247762"
     y="522.54254"
     x="36.179619"
     id="tspan2483-7"
     sodipodi:role="line">AMANDA</tspan></text>


<g
   transform="matrix(0.94436251,0,0,0.94436251,-35.655985,-42.003082)"
   id="g916"><path
     inkscape:connector-curvature="0"
     id="path2"
     d="m 256.001,7.5 c -57.553,0 -104.21,17.945 -104.21,40.081 v 40.081 h 208.42 V 47.581 C 360.211,25.445 313.554,7.5 256.001,7.5 Z"
     style="fill:#ffe17d" /><ellipse
     id="ellipse4-6"
     ry="104.21"
     rx="168.34"
     cy="159.81"
     cx="256.00101"
     style="fill:#ffd164" /><path
     inkscape:connector-curvature="0"
     id="path6-0"
     d="m 403.904,349.76 c -4.746,-12.614 -11.628,-35.433 -11.628,-61.695 0,-36.072 0,-128.258 0,-128.258 0,-39.845 -61.012,-72.145 -136.274,-72.145 -75.262,0 -136.274,32.3 -136.274,72.145 0,0 0,92.186 0,128.258 0,26.262 -6.882,49.081 -11.628,61.695 -2.542,6.754 -0.358,14.289 5.426,18.605 9.317,6.953 25.35,17.286 48.491,26.68 60.08,24.389 127.892,24.389 187.972,0 23.141,-9.394 39.174,-19.727 48.491,-26.68 5.781,-4.316 7.965,-11.851 5.424,-18.605 z"
     style="fill:#b67f5f" /><path
     inkscape:connector-curvature="0"
     id="path8-8"
     d="m 408.283,413.013 -82.792,-29.221 c -12.82,-4.525 -21.393,-16.642 -21.393,-30.237 v -49.459 h -96.194 v 49.459 c 0,13.595 -8.573,25.712 -21.393,30.236 l -82.793,29.221 c -19.23,6.787 -32.089,24.962 -32.089,45.354 V 504.5 h 368.742 v -46.132 c 0.001,-20.392 -12.858,-38.568 -32.088,-45.355 z"
     style="fill:#f7d291" /><path
     inkscape:connector-curvature="0"
     id="path10-4"
     d="m 207.904,341.939 c 13.042,5.808 27.268,9.411 42.305,10.118 1.94,0.091 3.872,0.137 5.792,0.137 17.103,0 33.353,-3.645 48.097,-10.11 v -37.987 h -96.194 z"
     style="fill:#f0c382" /><path
     inkscape:connector-curvature="0"
     id="path12"
     d="m 328.146,159.806 h -12.712 c -2.126,0 -4.165,-0.845 -5.668,-2.348 l -37.733,-37.733 v 40.081 h -88.177 c -17.709,0 -32.065,14.356 -32.065,32.065 v 31.012 c 0,55.714 43.354,102.427 99.002,105.136 59.92,2.916 109.417,-44.803 109.417,-104.083 v -32.065 c 0.001,-17.709 -14.355,-32.065 -32.064,-32.065 z"
     style="fill:#ffe1a0" /><path
     inkscape:connector-curvature="0"
     id="path14-8"
     d="m 328.146,167.823 v -8.016 h -16.032 l -40.081,-40.081 v 40.081 h -88.177 c -17.709,0 -32.065,14.356 -32.065,32.065 v 28.852 c 0,47.061 29.921,90.101 75.102,103.267 15.682,4.57 30.874,5.097 45.157,2.888 -50.6,-7.969 -88.195,-53.501 -88.195,-105.886 v -5.072 c 0,-17.709 14.356,-32.065 32.065,-32.065 h 96.194 c 8.854,-0.001 16.032,-7.179 16.032,-16.033 z"
     style="fill:#f7d291" /><path
     inkscape:connector-curvature="0"
     id="path16"
     d="m 408.283,413.013 -46.24,-16.32 c -15.156,44.045 -56.852,75.742 -106.042,75.742 -49.19,0 -90.886,-31.697 -106.042,-75.742 l -46.24,16.32 C 84.489,419.8 71.63,437.975 71.63,458.367 V 504.5 h 368.742 v -46.132 c 0,-20.392 -12.859,-38.568 -32.089,-45.355 z"
     style="fill:#c9c6ca" /><path
     inkscape:connector-curvature="0"
     id="path18"
     d="m 256.001,111.71 c 75.262,0 136.274,32.3 136.274,72.145 0,-11.528 0,-24.048 0,-24.048 0,-39.845 -61.012,-72.145 -136.274,-72.145 -75.262,0 -136.274,32.3 -136.274,72.145 0,0 0,12.521 0,24.048 0,-39.845 61.012,-72.145 136.274,-72.145 z"
     style="fill:#a06e50" /><path
     inkscape:connector-curvature="0"
     id="path20"
     d="m 127.302,404.69 c 18.456,53.389 69.035,91.794 128.699,91.794 59.664,0 110.242,-38.405 128.699,-91.794 l -22.658,-7.997 c -15.155,44.045 -56.851,75.742 -106.041,75.742 -49.19,0 -90.886,-31.697 -106.041,-75.742 z"
     style="fill:#b7b2b8" /><path
     inkscape:connector-curvature="0"
     id="path22"
     d="m 207.904,200.403 c -4.142,0 -7.5,3.358 -7.5,7.5 v 8.016 c 0,4.142 3.358,7.5 7.5,7.5 4.142,0 7.5,-3.358 7.5,-7.5 v -8.016 c 0,-4.142 -3.358,-7.5 -7.5,-7.5 z" /><path
     inkscape:connector-curvature="0"
     id="path24"
     d="m 304.098,200.403 c -4.142,0 -7.5,3.358 -7.5,7.5 v 8.016 c 0,4.142 3.358,7.5 7.5,7.5 4.142,0 7.5,-3.358 7.5,-7.5 v -8.016 c 0,-4.142 -3.358,-7.5 -7.5,-7.5 z" /><path
     inkscape:connector-curvature="0"
     id="path26"
     d="m 256.001,279.532 c 11.897,0 22.857,-3.805 29.316,-10.177 2.948,-2.909 2.98,-7.658 0.071,-10.606 -2.909,-2.948 -7.658,-2.981 -10.606,-0.071 -2.737,2.701 -9.299,5.855 -18.781,5.855 -9.482,0 -16.043,-3.154 -18.781,-5.855 -2.95,-2.91 -7.698,-2.877 -10.606,0.071 -2.909,2.949 -2.877,7.697 0.071,10.606 6.459,6.373 17.419,10.177 29.316,10.177 z" /><path
     inkscape:connector-curvature="0"
     id="path28-5"
     d="m 410.779,405.941 -38.872,-13.719 c 13.707,-6.361 23.931,-12.839 30.725,-17.744 8.597,-6.207 11.987,-17.51 8.243,-27.488 -4.146,-11.046 -11.1,-33.389 -11.1,-58.925 v -63.859 c 20.989,-18.903 32.064,-41.104 32.064,-64.399 0,-30.53 -18.772,-58.964 -52.858,-80.064 -3.629,-2.246 -7.394,-4.375 -11.271,-6.396 V 47.581 C 367.71,16.676 310.155,0 256.001,0 201.847,0 144.292,16.676 144.292,47.581 v 25.766 c -3.877,2.021 -7.643,4.15 -11.271,6.396 -34.086,21.101 -52.858,49.535 -52.858,80.064 0,23.295 11.076,45.496 32.064,64.399 v 63.859 c 0,25.536 -6.954,47.879 -11.1,58.925 -3.744,9.977 -0.354,21.28 8.243,27.488 6.794,4.905 17.018,11.383 30.725,17.744 l -38.872,13.719 C 79.036,413.772 64.13,434.84 64.13,458.368 V 504.5 c 0,4.142 3.358,7.5 7.5,7.5 4.142,0 7.5,-3.358 7.5,-7.5 v -46.132 c 0,-17.18 10.885,-32.564 27.085,-38.282 l 39.248,-13.852 c 18.467,44.323 62.123,73.702 110.538,73.702 24.865,0 48.711,-7.553 68.959,-21.843 18.604,-13.129 32.914,-30.993 41.594,-51.854 l 39.232,13.847 c 16.201,5.718 27.085,21.102 27.085,38.282 V 504.5 c 0,4.142 3.358,7.5 7.5,7.5 4.142,0 7.5,-3.358 7.5,-7.5 v -46.132 c 0.001,-23.528 -14.906,-44.597 -37.092,-52.427 z M 159.292,47.581 C 159.292,33.976 196.083,15 256.001,15 c 59.918,0 96.709,18.976 96.709,32.581 v 18.75 c -28.436,-11.86 -61.816,-18.234 -96.709,-18.234 -34.893,0 -68.273,6.374 -96.709,18.234 V 47.581 Z M 118.15,362.315 c -3.178,-2.294 -4.375,-6.335 -2.979,-10.055 5.5,-14.655 12.056,-37.688 12.056,-64.196 V 159.806 c 0,-35.041 58.972,-64.645 128.774,-64.645 24.813,0 48.95,3.649 69.801,10.552 3.933,1.302 8.175,-0.831 9.478,-4.762 1.302,-3.932 -0.831,-8.175 -4.763,-9.477 -22.353,-7.401 -48.12,-11.313 -74.516,-11.313 -37.602,0 -73.069,7.814 -99.87,22.002 -28.313,14.989 -43.905,35.46 -43.905,57.643 v 42.912 C 101.013,189.36 95.162,174.757 95.162,159.806 c 0,-25.141 16.249,-49.046 45.753,-67.31 30.626,-18.958 71.497,-29.399 115.086,-29.399 43.589,0 84.46,10.441 115.086,29.399 29.504,18.265 45.753,42.169 45.753,67.31 0,14.95 -5.851,29.553 -17.064,42.912 v -42.912 c 0,-20.544 -13.637,-39.921 -38.4,-54.563 -3.567,-2.109 -8.166,-0.927 -10.273,2.638 -2.108,3.566 -0.927,8.165 2.639,10.273 20.013,11.833 31.035,26.625 31.035,41.651 v 128.258 c 0,26.507 6.556,49.541 12.056,64.196 1.396,3.72 0.199,7.761 -2.979,10.055 -8.44,6.093 -22.678,14.844 -43.019,22.468 l -22.847,-8.063 c -9.803,-3.46 -16.389,-12.769 -16.389,-23.164 v -32.754 c 33.507,-19.306 56.113,-55.496 56.113,-96.866 V 191.87 c 0,-21.816 -17.749,-39.564 -39.564,-39.564 h -12.926 l -37.884,-37.884 c -2.145,-2.146 -5.371,-2.786 -8.173,-1.626 -2.803,1.161 -4.63,3.896 -4.63,6.929 v 32.581 h -40.596 c -4.142,0 -7.5,3.358 -7.5,7.5 0,4.142 3.358,7.5 7.5,7.5 h 48.096 c 4.142,0 7.5,-3.358 7.5,-7.5 v -21.974 l 27.277,27.277 c 1.406,1.406 3.314,2.197 5.303,2.197 h 16.032 c 13.545,0 24.564,11.02 24.564,24.564 v 32.065 c 0,53.326 -43.384,96.71 -96.709,96.71 -53.325,0 -96.709,-43.384 -96.709,-96.71 V 191.87 c 0,-13.545 11.02,-24.564 24.564,-24.564 h 8.02 c 4.142,0 7.5,-3.358 7.5,-7.5 0,-4.142 -3.358,-7.5 -7.5,-7.5 h -8.02 c -21.816,0 -39.564,17.749 -39.564,39.564 v 32.065 c 0,41.37 22.605,77.56 56.113,96.866 v 32.754 c 0,10.395 -6.586,19.704 -16.389,23.164 l -22.847,8.063 c -20.343,-7.622 -34.58,-16.373 -43.02,-22.467 z m 198.162,83.522 c -17.705,12.494 -38.56,19.098 -60.311,19.098 -42.072,0 -80.032,-25.361 -96.367,-63.704 l 29.374,-10.367 c 15.789,-5.572 26.397,-20.565 26.397,-37.309 v -25.548 c 12.589,4.928 26.282,7.638 40.597,7.638 14.315,0 28.007,-2.71 40.597,-7.638 v 25.548 c 0,16.743 10.608,31.737 26.397,37.309 l 29.384,10.371 c -7.625,17.918 -20.016,33.274 -36.068,44.602 z" /><path
     inkscape:connector-curvature="0"
     id="path30-5"
     d="m 192.562,186.46 c 0.767,3.507 3.872,5.899 7.319,5.899 0.531,0 1.07,-0.057 1.61,-0.175 l 16.032,-3.507 c 4.047,-0.885 6.609,-4.883 5.724,-8.929 -0.885,-4.046 -4.883,-6.609 -8.929,-5.724 l -16.032,3.507 c -4.047,0.884 -6.61,4.882 -5.724,8.929 z" /><path
     inkscape:connector-curvature="0"
     id="path32-4"
     d="m 294.479,188.677 16.032,3.507 c 0.54,0.118 1.079,0.175 1.61,0.175 3.448,0 6.552,-2.392 7.319,-5.899 0.885,-4.046 -1.677,-8.044 -5.724,-8.929 l -16.032,-3.507 c -4.046,-0.885 -8.044,1.677 -8.929,5.724 -0.885,4.047 1.677,8.044 5.724,8.929 z" /></g></g></svg>