<?xml version="1.0" encoding="UTF-8" standalone="no"?>
<!-- Generator: Adobe Illustrator 19.0.0, SVG Export Plug-In . SVG Version: 6.00 Build 0)  -->

<svg
   xmlns:osb="http://www.openswatchbook.org/uri/2009/osb"
   xmlns:dc="http://purl.org/dc/elements/1.1/"
   xmlns:cc="http://creativecommons.org/ns#"
   xmlns:rdf="http://www.w3.org/1999/02/22-rdf-syntax-ns#"
   xmlns:svg="http://www.w3.org/2000/svg"
   xmlns="http://www.w3.org/2000/svg"
   xmlns:xlink="http://www.w3.org/1999/xlink"
   xmlns:sodipodi="http://sodipodi.sourceforge.net/DTD/sodipodi-0.dtd"
   xmlns:inkscape="http://www.inkscape.org/namespaces/inkscape"
   version="1.1"
   id="Capa_1"
   x="0px"
   y="0px"
   viewBox="0 0 511.999 511.999"
   style="enable-background:new 0 0 511.999 511.999;"
   xml:space="preserve"
   sodipodi:docname="13.svg"
   inkscape:version="0.92.4 (5da689c313, 2019-01-14)"><metadata
   id="metadata95"><rdf:RDF><cc:Work
       rdf:about=""><dc:format>image/svg+xml</dc:format><dc:type
         rdf:resource="http://purl.org/dc/dcmitype/StillImage" /><dc:title /></cc:Work></rdf:RDF></metadata><defs
   id="defs93"><linearGradient
     id="linearGradient2457"
     osb:paint="solid"><stop
       style="stop-color:#000000;stop-opacity:1;"
       offset="0"
       id="stop2455" /></linearGradient><linearGradient
     inkscape:collect="always"
     xlink:href="#linearGradient2457"
     id="linearGradient2459-6-2"
     x1="1442.3572"
     y1="-339.5119"
     x2="1514.9286"
     y2="-339.5119"
     gradientUnits="userSpaceOnUse"
     gradientTransform="matrix(6.4669274,0,0,9.6773016,-9356.1743,3517.6929)" /></defs><sodipodi:namedview
   pagecolor="#ffffff"
   bordercolor="#666666"
   borderopacity="1"
   objecttolerance="10"
   gridtolerance="10"
   guidetolerance="10"
   inkscape:pageopacity="0"
   inkscape:pageshadow="2"
   inkscape:window-width="1920"
   inkscape:window-height="986"
   id="namedview91"
   showgrid="false"
   inkscape:zoom="1.3037307"
   inkscape:cx="-87.797664"
   inkscape:cy="256.72861"
   inkscape:window-x="-11"
   inkscape:window-y="-11"
   inkscape:window-maximized="1"
   inkscape:current-layer="g1046" />























<g
   id="g60">
</g>
<g
   id="g62">
</g>
<g
   id="g64">
</g>
<g
   id="g66">
</g>
<g
   id="g68">
</g>
<g
   id="g70">
</g>
<g
   id="g72">
</g>
<g
   id="g74">
</g>
<g
   id="g76">
</g>
<g
   id="g78">
</g>
<g
   id="g80">
</g>
<g
   id="g82">
</g>
<g
   id="g84">
</g>
<g
   id="g86">
</g>
<g
   id="g88">
</g>
<g
   id="g1046"
   transform="matrix(0.55886315,0,0,0.55886315,157.54779,132.77619)"><rect
   y="-104.38158"
   x="-28.555799"
   height="673.03345"
   width="469.31418"
   id="rect2447-0-9"
   style="display:inline;fill:none;fill-opacity:1;stroke:url(#linearGradient2459-6-2);stroke-width:25.31489563;stroke-miterlimit:4;stroke-dasharray:none;stroke-opacity:1" /><text
   id="text2485-9"
   y="522.54254"
   x="124.67422"
   style="font-style:normal;font-weight:normal;font-size:76.99105835px;line-height:1.25;font-family:sans-serif;letter-spacing:0px;word-spacing:0px;display:inline;fill:#000000;fill-opacity:1;stroke:none;stroke-width:1.9247762"
   xml:space="preserve"><tspan
     style="stroke-width:1.9247762"
     y="522.54254"
     x="124.67422"
     id="tspan2483-7"
     sodipodi:role="line">ANA</tspan></text>


<g
   transform="matrix(0.94610624,0,0,0.94610624,-36.101908,-37.344281)"
   id="g901"><g
     id="g6"><circle
       id="circle2"
       r="88.18"
       cy="223.94"
       cx="167.82001"
       style="fill:#5a4650" /><circle
       id="circle4"
       r="88.18"
       cy="223.94"
       cx="344.17999"
       style="fill:#5a4650" /></g><path
     inkscape:connector-curvature="0"
     id="path8"
     d="m 256,7.5 v 0 c -75.262,0 -136.274,61.012 -136.274,136.274 v 48.097 H 392.274 V 143.774 C 392.274,68.512 331.262,7.5 256,7.5 Z"
     style="fill:#64505a" /><path
     inkscape:connector-curvature="0"
     id="path10"
     d="M 408.282,396.616 325.49,367.395 c -12.82,-4.525 -21.393,-16.642 -21.393,-30.237 v -65.126 h -96.194 v 65.127 c 0,13.595 -8.573,25.712 -21.393,30.236 l -82.793,29.221 c -19.229,6.787 -32.089,24.962 -32.089,45.354 v 46.497 H 440.37 V 441.97 c 10e-4,-20.391 -12.858,-38.567 -32.088,-45.354 z"
     style="fill:#e3aa75" /><path
     inkscape:connector-curvature="0"
     id="path12-7"
     d="M 408.282,396.616 336.016,371.11 c -1.531,42.924 -36.717,77.277 -80.016,77.277 -43.299,0 -78.484,-34.353 -80.015,-77.277 l -72.267,25.506 c -19.23,6.787 -32.089,24.962 -32.089,45.355 v 46.497 H 440.371 V 441.97 c 0,-20.392 -12.859,-38.567 -32.089,-45.354 z"
     style="fill:#ff8087" /><path
     inkscape:connector-curvature="0"
     id="path14"
     d="m 207.903,326.241 c 14.753,6.391 31.02,9.92 48.097,9.92 17.077,0 33.344,-3.529 48.097,-9.92 v -38.177 h -96.194 z"
     style="fill:#d29b6e" /><path
     inkscape:connector-curvature="0"
     id="path16-5"
     d="m 372.234,175.839 h -8.016 c 0,0 -10.734,-1.293 -14.018,-2.202 -18.212,-5.043 -57.641,-20.789 -87.51,-66.825 -3.147,-4.851 -10.232,-4.851 -13.378,0 -29.869,46.036 -69.298,61.782 -87.51,66.825 -3.284,0.909 -14.018,2.202 -14.018,2.202 h -8.016 c -11.068,0 -20.04,8.972 -20.04,20.04 0,11.068 8.972,20.04 20.04,20.04 h 12.429 c 4.106,53.795 48.958,96.194 103.805,96.194 54.847,0 99.699,-42.398 103.805,-96.194 h 12.429 c 11.068,0 20.04,-8.973 20.04,-20.04 -0.002,-11.068 -8.974,-20.04 -20.042,-20.04 z"
     style="fill:#f5b97d" /><path
     inkscape:connector-curvature="0"
     id="path18-9"
     d="m 255.998,141.807 c 15.758,17.039 40.157,38.628 70.363,50.065 12.463,4.719 25.833,-4.456 25.833,-17.783 v -0.013 c -0.784,-0.151 -1.493,-0.299 -1.994,-0.438 -18.208,-5.042 -57.621,-20.781 -87.487,-66.789 -3.154,-4.859 -10.261,-4.876 -13.414,-0.017 -21.107,32.522 -46.924,49.863 -66.7,59.042 -1.335,0.619 -12.13,4.989 -13.379,5.419 -2.712,0.936 -5.255,1.746 -7.418,2.345 -3.284,0.909 -14.018,2.202 -14.018,2.202 h -6.873 c -10.483,0 -20.035,7.542 -21.08,17.973 -1.201,11.996 8.187,22.108 19.937,22.108 h 12.429 c 4.106,53.795 48.958,96.194 103.805,96.194 5.466,0 10.793,-0.547 16.032,-1.359 -45.768,-7.087 -81.73,-43.847 -87.399,-90.052 -0.163,-1.33 -0.324,-3.266 -0.47,-5.575 -0.8,-12.585 5.877,-24.543 17.067,-30.357 23.031,-11.969 41.827,-28.975 54.766,-42.965 z"
     style="fill:#e3aa75" /><g
     id="g24"><polygon
       id="polygon20"
       points="304.089,328.145 304.097,328.148 304.097,327.887 "
       style="fill:#ffd164" /><polygon
       id="polygon22"
       points="207.903,327.887 207.903,328.148 207.911,328.145 "
       style="fill:#ffd164" /></g><path
     inkscape:connector-curvature="0"
     id="path26-9"
     d="m 219.927,231.952 c 0,17.709 16.15,32.065 36.073,32.065 19.923,0 36.073,-14.356 36.073,-32.065 z"
     style="fill:#ffffff" /><path
     inkscape:connector-curvature="0"
     id="path28"
     d="m 283.395,10.258 c -7.237,13.512 -11.363,28.94 -11.363,45.339 0,53.126 43.067,96.194 96.194,96.194 8.319,0 16.349,-1.167 24.048,-3.153 v -4.864 c 0,-65.878 -46.747,-120.835 -108.879,-133.516 z"
     style="fill:#6e5a64" /><path
     inkscape:connector-curvature="0"
     id="path30"
     d="m 215.403,192.568 v -8.016 c 0,-4.142 -3.357,-7.5 -7.5,-7.5 -4.143,0 -7.5,3.358 -7.5,7.5 v 8.016 c 0,4.142 3.357,7.5 7.5,7.5 4.143,0 7.5,-3.358 7.5,-7.5 z" /><path
     inkscape:connector-curvature="0"
     id="path32"
     d="m 304.097,177.052 c -4.143,0 -7.5,3.358 -7.5,7.5 v 8.016 c 0,4.142 3.357,7.5 7.5,7.5 4.143,0 7.5,-3.358 7.5,-7.5 v -8.016 c 0,-4.142 -3.358,-7.5 -7.5,-7.5 z" /><path
     inkscape:connector-curvature="0"
     id="path34"
     d="m 410.778,389.909 -82.793,-29.221 c -9.803,-3.46 -16.389,-12.769 -16.389,-23.165 v -23.599 c 10.384,3.775 21.298,5.689 32.584,5.689 52.757,0 95.677,-42.92 95.677,-95.677 0,-31.087 -14.912,-59.889 -40.083,-77.865 v -2.296 C 399.774,64.497 335.277,0 256,0 176.723,0 112.226,64.497 112.226,143.774 v 2.298 c -25.169,17.977 -40.08,46.778 -40.08,77.864 0,52.757 42.921,95.677 95.677,95.677 11.285,0 22.198,-1.913 32.581,-5.688 v 23.598 c 0,10.396 -6.586,19.705 -16.389,23.165 l -82.793,29.221 c -22.187,7.83 -37.093,28.899 -37.093,52.427 V 504.5 c 0,4.142 3.357,7.5 7.5,7.5 4.143,0 7.5,-3.358 7.5,-7.5 v -8.532 h 353.742 v 8.532 c 0,4.142 3.357,7.5 7.5,7.5 4.143,0 7.5,-3.358 7.5,-7.5 v -62.165 c 0,-23.527 -14.906,-44.596 -37.093,-52.426 z m 18.117,34.946 H 322.849 c 10.191,-12.001 17.231,-26.779 19.763,-43.098 l 63.174,22.296 c 10.37,3.66 18.556,11.285 23.109,20.802 z m -4.038,-200.919 c 0,44.486 -36.191,80.677 -80.677,80.677 -8.874,0 -17.475,-1.397 -25.69,-4.163 25.611,-17.351 43.664,-45.044 48.128,-77.031 h 5.606 c 15.082,0 27.365,-12.187 27.533,-27.229 0.004,-0.104 0.016,-0.206 0.016,-0.311 V 165.46 c 15.908,15.096 25.084,36.084 25.084,58.476 z M 256,15 c 71.007,0 128.774,57.768 128.774,128.774 v 27.602 c -3.766,-1.937 -8.03,-3.037 -12.549,-3.037 0.002,0 -3.437,0 -3.902,-0.002 -0.035,0 -0.07,-10e-4 -0.105,-10e-4 -7.251,0 -14.683,-1.029 -22.089,-3.059 -3.997,-1.092 -8.121,1.256 -9.216,5.251 -1.095,3.995 1.256,8.121 5.251,9.216 8.697,2.384 17.463,3.592 26.054,3.592 v -0.028 c 0.944,0.031 2.211,0.031 4.008,0.031 6.915,0 12.541,5.625 12.541,12.54 0,6.915 -5.626,12.541 -12.541,12.541 h -4.53 c 10e-4,-0.172 0.007,-0.344 0.007,-0.516 0,-4.142 -3.357,-7.5 -7.5,-7.5 -4.143,0 -7.5,3.358 -7.5,7.5 0,53.326 -43.384,96.709 -96.71,96.709 -53.326,0 -96.71,-43.384 -96.71,-96.709 0,-4.142 -3.357,-7.5 -7.5,-7.5 -4.143,0 -7.5,3.358 -7.5,7.5 0,0.173 0.006,0.344 0.007,0.516 h -4.531 c -6.889,0 -12.494,-5.584 -12.536,-12.463 0,-0.026 0.004,-0.051 0.004,-0.077 v -0.154 c 0.084,-6.843 5.669,-12.386 12.532,-12.386 1.797,0 3.064,0 4.009,-0.031 v 0.028 c 53.637,0 96.062,-46.498 111.813,-66.49 0.051,-0.064 0.169,-0.215 0.413,-0.215 0.244,0 0.362,0.151 0.413,0.215 9.598,12.181 29.663,34.914 56.227,50.302 3.585,2.076 8.173,0.855 10.249,-2.73 2.077,-3.584 0.854,-8.173 -2.729,-10.249 -24.4,-14.135 -43.03,-35.267 -51.963,-46.605 -2.971,-3.77 -7.416,-5.933 -12.196,-5.933 -4.78,0 -9.226,2.163 -12.196,5.932 -43.214,54.851 -84.35,60.772 -100.029,60.772 -0.035,0 -0.069,0 -0.104,10e-4 -0.46,0.002 -3.906,0.003 -3.905,0.002 -4.512,0 -8.77,1.098 -12.532,3.029 V 143.774 C 127.226,72.768 184.993,15 256,15 Z M 87.146,223.936 c 0,-22.39 9.176,-43.377 25.08,-58.472 v 30.108 c -0.001,0.103 -0.008,0.205 -0.008,0.308 0,15.186 12.354,27.541 27.54,27.541 h 5.607 c 4.465,31.989 22.521,59.684 48.135,77.035 -8.212,2.763 -16.808,4.158 -25.677,4.158 -44.486,-10e-4 -80.677,-36.193 -80.677,-80.678 z m 101.861,150.897 c 15.789,-5.573 26.396,-20.566 26.396,-37.309 v -25.545 c 12.587,4.926 26.277,7.635 40.589,7.635 14.317,0 28.013,-2.711 40.604,-7.641 v 25.551 c 0,16.743 10.607,31.736 26.396,37.309 l 5.177,1.827 c -4.198,36.318 -35.169,64.227 -72.171,64.227 -36.902,0 -67.971,-27.949 -72.173,-64.227 z M 79.129,480.968 v -38.632 c 0,-0.832 0.033,-1.658 0.084,-2.48 h 24.481 c 4.143,0 7.5,-3.358 7.5,-7.5 0,-4.142 -3.357,-7.5 -7.5,-7.5 H 83.105 c 4.553,-9.517 12.739,-17.142 23.109,-20.802 l 63.184,-22.3 c 2.538,16.311 9.594,31.096 19.808,43.102 h -53.448 c -4.143,0 -7.5,3.358 -7.5,7.5 0,4.142 3.357,7.5 7.5,7.5 h 69.837 c 14.32,10.106 31.745,16.032 50.405,16.032 18.719,0 36.158,-5.924 50.475,-16.032 h 126.313 c 0.051,0.823 0.084,1.649 0.084,2.48 v 38.632 H 79.129 Z" /><path
     inkscape:connector-curvature="0"
     id="path36"
     d="m 292.072,224.452 h -72.145 c -4.143,0 -7.5,3.358 -7.5,7.5 0,21.816 19.547,39.564 43.572,39.564 24.025,0 43.572,-17.749 43.572,-39.564 10e-4,-4.142 -3.356,-7.5 -7.499,-7.5 z M 256,256.516 c -12.714,0 -23.515,-7.176 -27.211,-17.064 h 54.422 c -3.696,9.888 -14.497,17.064 -27.211,17.064 z" /></g></g></svg>