<?xml version="1.0" encoding="UTF-8" standalone="no"?>
<!-- Generator: Adobe Illustrator 19.0.0, SVG Export Plug-In . SVG Version: 6.00 Build 0)  -->

<svg
   xmlns:osb="http://www.openswatchbook.org/uri/2009/osb"
   xmlns:dc="http://purl.org/dc/elements/1.1/"
   xmlns:cc="http://creativecommons.org/ns#"
   xmlns:rdf="http://www.w3.org/1999/02/22-rdf-syntax-ns#"
   xmlns:svg="http://www.w3.org/2000/svg"
   xmlns="http://www.w3.org/2000/svg"
   xmlns:xlink="http://www.w3.org/1999/xlink"
   xmlns:sodipodi="http://sodipodi.sourceforge.net/DTD/sodipodi-0.dtd"
   xmlns:inkscape="http://www.inkscape.org/namespaces/inkscape"
   version="1.1"
   id="Capa_1"
   x="0px"
   y="0px"
   viewBox="0 0 511.999 511.999"
   style="enable-background:new 0 0 511.999 511.999;"
   xml:space="preserve"
   sodipodi:docname="14.svg"
   inkscape:version="0.92.4 (5da689c313, 2019-01-14)"><metadata
   id="metadata95"><rdf:RDF><cc:Work
       rdf:about=""><dc:format>image/svg+xml</dc:format><dc:type
         rdf:resource="http://purl.org/dc/dcmitype/StillImage" /><dc:title /></cc:Work></rdf:RDF></metadata><defs
   id="defs93"><linearGradient
     id="linearGradient2457"
     osb:paint="solid"><stop
       style="stop-color:#000000;stop-opacity:1;"
       offset="0"
       id="stop2455" /></linearGradient><linearGradient
     inkscape:collect="always"
     xlink:href="#linearGradient2457"
     id="linearGradient2459-6-2"
     x1="1442.3572"
     y1="-339.5119"
     x2="1514.9286"
     y2="-339.5119"
     gradientUnits="userSpaceOnUse"
     gradientTransform="matrix(6.4669274,0,0,9.6773016,-9356.1743,3517.6929)" /></defs><sodipodi:namedview
   pagecolor="#ffffff"
   bordercolor="#666666"
   borderopacity="1"
   objecttolerance="10"
   gridtolerance="10"
   guidetolerance="10"
   inkscape:pageopacity="0"
   inkscape:pageshadow="2"
   inkscape:window-width="1920"
   inkscape:window-height="986"
   id="namedview91"
   showgrid="false"
   inkscape:zoom="1.3037307"
   inkscape:cx="-87.797664"
   inkscape:cy="318.09098"
   inkscape:window-x="-11"
   inkscape:window-y="-11"
   inkscape:window-maximized="1"
   inkscape:current-layer="g1046" />























<g
   id="g60">
</g>
<g
   id="g62">
</g>
<g
   id="g64">
</g>
<g
   id="g66">
</g>
<g
   id="g68">
</g>
<g
   id="g70">
</g>
<g
   id="g72">
</g>
<g
   id="g74">
</g>
<g
   id="g76">
</g>
<g
   id="g78">
</g>
<g
   id="g80">
</g>
<g
   id="g82">
</g>
<g
   id="g84">
</g>
<g
   id="g86">
</g>
<g
   id="g88">
</g>
<g
   id="g1046"
   transform="matrix(0.55886315,0,0,0.55886315,157.54779,132.77619)"><rect
   y="-104.38158"
   x="-28.555799"
   height="673.03345"
   width="469.31418"
   id="rect2447-0-9"
   style="display:inline;fill:none;fill-opacity:1;stroke:url(#linearGradient2459-6-2);stroke-width:25.31489563;stroke-miterlimit:4;stroke-dasharray:none;stroke-opacity:1" /><text
   id="text2485-9"
   y="522.54254"
   x="106.44147"
   style="font-style:normal;font-weight:normal;font-size:76.99105835px;line-height:1.25;font-family:sans-serif;letter-spacing:0px;word-spacing:0px;display:inline;fill:#000000;fill-opacity:1;stroke:none;stroke-width:1.9247762"
   xml:space="preserve"><tspan
     style="stroke-width:1.9247762"
     y="522.54254"
     x="106.44147"
     id="tspan2483-7"
     sodipodi:role="line">ALAN</tspan></text>


<g
   transform="matrix(0.90713576,0,0,0.90713576,-26.126372,-23.358433)"
   id="g913"><path
     inkscape:connector-curvature="0"
     id="path2"
     d="M 413.859,358.071 329.373,333.222 C 319.138,330.212 312.11,320.819 312.11,310.151 V 272.032 H 199.885 v 38.119 c 0,10.668 -7.028,20.061 -17.263,23.071 L 98.136,358.071 C 77.667,364.091 63.61,382.877 63.61,404.213 V 504.5 H 448.384 V 404.214 c 10e-4,-21.337 -14.056,-40.123 -34.525,-46.143 z"
     style="fill:#f7d291" /><path
     inkscape:connector-curvature="0"
     id="path4"
     d="m 413.859,358.071 -84.486,-24.849 c -1.429,-0.42 8.079,3.594 6.786,2.939 l -80.165,24.048 -80.157,-24.048 c -1.293,0.655 8.214,-3.359 6.786,-2.939 l -84.486,24.849 c -20.469,6.02 -34.526,24.806 -34.526,46.142 V 504.5 H 448.385 V 404.214 c 0,-21.337 -14.057,-40.123 -34.526,-46.143 z"
     style="fill:#6e5a64" /><path
     inkscape:connector-curvature="0"
     id="path6"
     d="m 333.408,349.443 -9.558,-9.558 -67.852,20.325 -67.852,-20.325 -9.558,9.558 c -12.027,12.026 -18.783,28.338 -18.783,45.346 V 504.5 H 352.192 V 394.789 c -0.001,-17.008 -6.757,-33.32 -18.784,-45.346 z"
     style="fill:#edebed" /><rect
     id="rect8"
     height="144.28999"
     width="40.080002"
     style="fill:#ffffff"
     y="360.20999"
     x="235.957" /><path
     inkscape:connector-curvature="0"
     id="path10-2"
     d="m 199.885,297.937 c 16.841,8.996 35.939,14.176 56.113,14.176 20.174,0 39.272,-5.18 56.113,-14.176 V 272.032 H 199.885 Z"
     style="fill:#f0c382" /><path
     inkscape:connector-curvature="0"
     id="path12"
     d="m 372.232,151.79 h -4.008 V 71.629 L 223.934,47.581 143.773,71.629 v 80.161 h -4.008 c -11.068,0 -20.04,8.972 -20.04,20.04 0,11.068 8.972,20.04 20.04,20.04 h 12.429 c 4.106,53.795 48.958,96.194 103.805,96.194 54.847,0 99.699,-42.398 103.805,-96.194 h 12.429 c 11.068,0 20.04,-8.973 20.04,-20.04 -0.001,-11.068 -8.973,-20.04 -20.041,-20.04 z"
     style="fill:#ffe1a0" /><path
     inkscape:connector-curvature="0"
     id="path14-8"
     d="m 198.471,106.07 c 9.609,-4.192 19.755,-9.713 29.799,-17.459 27.039,13.368 80.67,35.575 139.953,39.13 V 71.629 L 223.933,47.581 143.772,71.629 v 80.161 h -2.865 c -10.483,0 -20.035,7.542 -21.08,17.973 -1.201,11.996 8.186,22.108 19.936,22.108 h 12.429 c 4.106,53.795 48.958,96.194 103.805,96.194 5.484,0 10.83,-0.534 16.083,-1.351 -49.946,-7.708 -88.228,-50.754 -88.228,-102.859 v -55.683 c 0,-9.642 5.782,-18.247 14.619,-22.102 z"
     style="fill:#f7d291" /><path
     inkscape:connector-curvature="0"
     id="path16"
     d="m 119.724,504.5 -14.123,-63.554 c -1.189,-5.351 0.438,-10.938 4.314,-14.814 l 25.841,-25.841 -11.889,-17.833 c -2.799,-4.198 -3.398,-9.47 -1.805,-14.257 19.114,-57.442 77.823,-72.119 77.823,-72.119 v 15.463 c 0,10.63 -4.223,20.825 -11.739,28.341 l -9.558,9.558 c -12.027,12.027 -18.783,28.338 -18.783,45.346 V 504.5"
     style="fill:#64505a" /><path
     inkscape:connector-curvature="0"
     id="path18"
     d="M 384.256,87.661 C 384.256,43.389 348.367,7.5 304.095,7.5 h -96.194 c -35.417,0 -64.129,28.712 -64.129,64.129 v 24.048 c 0,0 38.076,-0.067 74.707,-28.319 4.752,-3.665 11.157,-4.289 16.551,-1.658 27.638,13.48 81.994,35.906 141.033,37.857 4.491,0.148 8.192,-3.557 8.192,-8.05 v -7.846 z"
     style="fill:#a06e50" /><path
     inkscape:connector-curvature="0"
     id="path20"
     d="M 384.185,86.266 C 383.433,42.645 347.895,7.5 304.095,7.5 h -92.05 c 21.659,24.77 74.205,70.353 172.14,78.766 z"
     style="fill:#b67f5f" /><path
     inkscape:connector-curvature="0"
     id="path22"
     d="m 392.272,504.5 14.123,-63.554 c 1.189,-5.351 -0.438,-10.938 -4.314,-14.814 l -25.841,-25.841 11.889,-17.833 c 2.799,-4.198 3.398,-9.47 1.805,-14.257 -19.114,-57.442 -77.823,-72.119 -77.823,-72.119 v 15.463 c 0,10.63 4.223,20.825 11.739,28.341 l 9.558,9.558 c 12.027,12.027 18.783,28.338 18.783,45.346 V 504.5"
     style="fill:#64505a" /><g
     id="g28"><path
       inkscape:connector-curvature="0"
       id="path24"
       d="m 308.526,386.474 -52.528,-26.264 52.528,-26.264 c 5.33,-2.665 11.601,1.211 11.601,7.17 v 38.188 c 0,5.959 -6.271,9.835 -11.601,7.17 z"
       style="fill:#e6646e" /><path
       inkscape:connector-curvature="0"
       id="path26"
       d="M 203.47,386.474 255.998,360.21 203.47,333.946 c -5.33,-2.665 -11.601,1.211 -11.601,7.17 v 38.188 c 0,5.959 6.271,9.835 11.601,7.17 z"
       style="fill:#e6646e" /></g><path
     inkscape:connector-curvature="0"
     id="path30-1"
     d="m 207.901,152.307 c -4.142,0 -7.5,3.358 -7.5,7.5 v 8.016 c 0,4.142 3.358,7.5 7.5,7.5 4.142,0 7.5,-3.358 7.5,-7.5 v -8.016 c 0,-4.142 -3.358,-7.5 -7.5,-7.5 z" /><path
     inkscape:connector-curvature="0"
     id="path32-8"
     d="m 304.094,152.307 c -4.142,0 -7.5,3.358 -7.5,7.5 v 8.016 c 0,4.142 3.358,7.5 7.5,7.5 4.142,0 7.5,-3.358 7.5,-7.5 v -8.016 c 0,-4.142 -3.357,-7.5 -7.5,-7.5 z" /><path
     inkscape:connector-curvature="0"
     id="path34-2"
     d="m 285.314,221.258 c 2.949,-2.909 2.98,-7.658 0.071,-10.606 -2.91,-2.949 -7.659,-2.98 -10.606,-0.071 -2.737,2.701 -9.298,5.855 -18.781,5.855 -9.483,0 -16.043,-3.154 -18.781,-5.855 -2.95,-2.91 -7.698,-2.877 -10.606,0.071 -2.909,2.948 -2.877,7.697 0.071,10.606 6.459,6.373 17.418,10.177 29.316,10.177 11.898,0 22.857,-3.804 29.316,-10.177 z" /><path
     inkscape:connector-curvature="0"
     id="path36-1"
     d="m 256.078,400.807 h -0.08 c -4.142,0 -7.46,3.358 -7.46,7.5 0,4.142 3.398,7.5 7.54,7.5 4.142,0 7.5,-3.358 7.5,-7.5 0,-4.142 -3.358,-7.5 -7.5,-7.5 z" /><path
     inkscape:connector-curvature="0"
     id="path38"
     d="m 256.078,464.936 h -0.08 c -4.142,0 -7.46,3.358 -7.46,7.5 0,4.142 3.398,7.5 7.54,7.5 4.142,0 7.5,-3.358 7.5,-7.5 0,-4.142 -3.358,-7.5 -7.5,-7.5 z" /><path
     inkscape:connector-curvature="0"
     id="path40"
     d="m 215.917,128.258 h -16.032 c -4.142,0 -7.5,3.358 -7.5,7.5 0,4.142 3.358,7.5 7.5,7.5 h 16.032 c 4.142,0 7.5,-3.358 7.5,-7.5 0,-4.142 -3.358,-7.5 -7.5,-7.5 z" /><path
     inkscape:connector-curvature="0"
     id="path42"
     d="m 296.078,143.258 h 16.032 c 4.142,0 7.5,-3.358 7.5,-7.5 0,-4.142 -3.358,-7.5 -7.5,-7.5 h -16.032 c -4.142,0 -7.5,3.358 -7.5,7.5 0,4.142 3.358,7.5 7.5,7.5 z" /><path
     inkscape:connector-curvature="0"
     id="path44"
     d="m 352.191,416.841 c -4.142,0 -7.5,3.358 -7.5,7.5 V 504.5 c 0,4.142 3.358,7.5 7.5,7.5 4.142,0 7.5,-3.358 7.5,-7.5 v -80.159 c 0,-4.142 -3.358,-7.5 -7.5,-7.5 z" /><path
     inkscape:connector-curvature="0"
     id="path46"
     d="m 415.976,350.876 -30.042,-8.836 c -20.488,-33.077 -53.169,-47.028 -66.323,-51.506 v -14.91 c 25.013,-17.396 42.617,-44.741 47.019,-76.253 h 4.459 c 14.617,0 27.154,-10.861 28.543,-24.727 0.778,-7.771 -1.765,-15.531 -6.975,-21.288 -4.426,-4.891 -10.459,-8.011 -16.933,-8.843 V 111.05 c 2.833,0.094 5.678,0.143 8.533,0.143 4.142,0 7.5,-3.358 7.5,-7.5 V 87.661 C 391.756,39.325 352.431,0 304.094,0 h -96.193 c -39.496,0 -71.629,32.133 -71.629,71.629 v 73.029 c -12.55,2.006 -22.667,11.986 -23.907,24.358 -0.778,7.771 1.764,15.531 6.974,21.289 5.213,5.762 12.658,9.067 20.425,9.067 h 5.598 c 4.399,31.522 22.003,58.87 47.023,76.264 v 14.899 c -13.154,4.478 -45.835,18.429 -66.323,51.506 l -30.042,8.836 c -23.498,6.912 -39.909,28.845 -39.909,53.338 V 504.5 c 0,4.142 3.358,7.5 7.5,7.5 4.142,0 7.5,-3.358 7.5,-7.5 V 404.214 c 0,-17.885 11.983,-33.9 29.142,-38.947 l 16.667,-4.902 c -0.694,1.781 -1.353,3.602 -1.973,5.466 -2.365,7.107 -1.388,14.684 2.681,20.786 l 8.479,12.718 -21.494,21.494 c -5.72,5.719 -8.086,13.848 -6.332,21.745 l 14.123,63.554 c 0.777,3.496 3.876,5.875 7.314,5.875 0.539,0 1.086,-0.058 1.634,-0.18 4.043,-0.898 6.593,-4.905 5.694,-8.948 l -14.123,-63.554 c -0.636,-2.863 0.222,-5.811 2.296,-7.884 l 25.842,-25.841 c 2.528,-2.528 2.92,-6.489 0.937,-9.463 l -11.889,-17.834 c -1.484,-2.226 -1.823,-5.043 -0.929,-7.729 13.087,-39.329 46.752,-57.316 63.207,-63.967 v 4.943 c 0,8.703 -3.389,16.884 -9.542,23.038 l -9.559,9.559 c -13.529,13.529 -20.979,31.517 -20.979,50.649 V 504.5 c 0,4.142 3.358,7.5 7.5,7.5 4.142,0 7.5,-3.358 7.5,-7.5 V 394.789 c 0,-15.126 5.89,-29.347 16.586,-40.043 l 0.479,-0.479 v 25.036 c 0,5.417 2.751,10.351 7.359,13.199 2.508,1.55 5.322,2.332 8.148,2.332 2.366,0 4.74,-0.548 6.948,-1.652 l 49.174,-24.587 49.174,24.587 c 2.208,1.104 4.582,1.652 6.948,1.652 2.826,0 5.641,-0.782 8.148,-2.332 4.608,-2.848 7.359,-7.782 7.359,-13.199 v -25.036 l 0.479,0.479 c 10.696,10.696 16.586,24.917 16.586,40.043 0,4.142 3.358,7.5 7.5,7.5 4.142,0 7.5,-3.358 7.5,-7.5 0,-19.133 -7.451,-37.121 -20.979,-50.649 l -9.559,-9.559 c -6.154,-6.153 -9.542,-14.335 -9.542,-23.038 v -4.976 c 16.433,6.594 50.061,24.493 63.207,64 0.894,2.686 0.555,5.503 -0.929,7.729 l -11.889,17.833 c -1.983,2.975 -1.591,6.936 0.937,9.463 l 25.842,25.841 c 2.074,2.074 2.932,5.021 2.296,7.884 l -14.123,63.554 c -0.898,4.043 1.651,8.05 5.694,8.948 0.548,0.122 1.095,0.18 1.634,0.18 3.438,0 6.538,-2.379 7.314,-5.875 l 14.123,-63.554 c 1.754,-7.896 -0.612,-16.025 -6.332,-21.745 l -21.494,-21.494 8.479,-12.717 c 4.069,-6.103 5.046,-13.68 2.681,-20.787 -0.62,-1.865 -1.28,-3.686 -1.973,-5.466 l 16.667,4.902 c 17.158,5.047 29.142,21.063 29.142,38.947 V 504.5 c 0,4.142 3.358,7.5 7.5,7.5 4.142,0 7.5,-3.358 7.5,-7.5 V 404.214 c -0.006,-24.493 -16.417,-46.426 -39.915,-53.338 z M 159.288,183.855 c 0,-4.142 -3.358,-7.5 -7.5,-7.5 -4.142,0 -7.5,3.358 -7.5,7.5 v 0.516 h -4.524 c -3.537,0 -6.927,-1.506 -9.303,-4.131 -2.407,-2.66 -3.533,-6.115 -3.17,-9.729 0.63,-6.292 6.612,-11.221 13.617,-11.221 h 2.863 0.001 c 1.989,0 3.896,-0.79 5.303,-2.196 1.407,-1.407 2.197,-3.314 2.197,-5.304 v -49.002 c 11.525,-0.986 34.145,-4.485 52.773,-16.903 3.447,-2.297 4.378,-6.954 2.08,-10.4 -2.297,-3.446 -6.955,-4.377 -10.4,-2.08 C 180.601,83.487 161.59,86.69 151.272,87.706 V 71.629 C 151.272,40.404 176.676,15 207.901,15 h 96.193 c 40.066,0 72.662,32.596 72.662,72.661 v 8.413 c -81.97,-2.583 -156.071,-46.366 -156.98,-46.909 -3.554,-2.132 -8.159,-0.979 -10.29,2.572 -2.131,3.552 -0.979,8.159 2.572,10.29 3.049,1.829 69.41,41.127 148.665,48.105 v 41.658 c 0,4.142 3.358,7.5 7.5,7.5 h 4.008 c 3.537,0 6.927,1.505 9.303,4.13 2.407,2.66 3.533,6.115 3.171,9.729 -0.63,6.292 -6.611,11.221 -13.617,11.221 h -3.385 v -0.439 c 0,-4.141 -3.356,-7.499 -7.497,-7.5 0,0 -0.002,0 -0.003,0 -4.14,0 -7.497,3.354 -7.5,7.495 -0.039,53.286 -43.421,96.638 -96.706,96.638 -53.325,0 -96.709,-43.383 -96.709,-96.709 z m 96.71,111.709 c 17.412,0 33.906,-4.012 48.613,-11.153 v 27.132 c 0,5.148 0.826,10.167 2.389,14.919 -0.619,0.218 -1.23,0.476 -1.828,0.775 l -49.174,24.587 -49.174,-24.587 c -0.598,-0.299 -1.209,-0.557 -1.828,-0.775 1.564,-4.752 2.389,-9.771 2.389,-14.92 v -27.125 c 14.705,7.138 31.199,11.147 48.613,11.147 z m -55.882,84.202 c -0.096,0.048 -0.256,0.129 -0.502,-0.023 -0.245,-0.151 -0.245,-0.332 -0.245,-0.439 v -38.188 c 0,-0.108 0,-0.288 0.245,-0.439 0.106,-0.065 0.196,-0.087 0.272,-0.087 0.1,0 0.175,0.038 0.23,0.065 l 39.111,19.556 z m 112.511,-0.462 c 0,0.107 0,0.288 -0.245,0.439 -0.246,0.152 -0.406,0.07 -0.502,0.023 L 272.769,360.21 311.88,340.654 c 0.097,-0.048 0.258,-0.128 0.502,0.022 0.245,0.151 0.245,0.332 0.245,0.439 z" /></g></g></svg>