<?xml version="1.0" encoding="UTF-8" standalone="no"?>
<!-- Generator: Adobe Illustrator 19.0.0, SVG Export Plug-In . SVG Version: 6.00 Build 0)  -->

<svg
   xmlns:osb="http://www.openswatchbook.org/uri/2009/osb"
   xmlns:dc="http://purl.org/dc/elements/1.1/"
   xmlns:cc="http://creativecommons.org/ns#"
   xmlns:rdf="http://www.w3.org/1999/02/22-rdf-syntax-ns#"
   xmlns:svg="http://www.w3.org/2000/svg"
   xmlns="http://www.w3.org/2000/svg"
   xmlns:xlink="http://www.w3.org/1999/xlink"
   xmlns:sodipodi="http://sodipodi.sourceforge.net/DTD/sodipodi-0.dtd"
   xmlns:inkscape="http://www.inkscape.org/namespaces/inkscape"
   version="1.1"
   id="Capa_1"
   x="0px"
   y="0px"
   viewBox="0 0 511.999 511.999"
   style="enable-background:new 0 0 511.999 511.999;"
   xml:space="preserve"
   sodipodi:docname="16.svg"
   inkscape:version="0.92.4 (5da689c313, 2019-01-14)"><metadata
   id="metadata95"><rdf:RDF><cc:Work
       rdf:about=""><dc:format>image/svg+xml</dc:format><dc:type
         rdf:resource="http://purl.org/dc/dcmitype/StillImage" /><dc:title /></cc:Work></rdf:RDF></metadata><defs
   id="defs93"><linearGradient
     id="linearGradient2457"
     osb:paint="solid"><stop
       style="stop-color:#000000;stop-opacity:1;"
       offset="0"
       id="stop2455" /></linearGradient><linearGradient
     inkscape:collect="always"
     xlink:href="#linearGradient2457"
     id="linearGradient2459-6-2"
     x1="1442.3572"
     y1="-339.5119"
     x2="1514.9286"
     y2="-339.5119"
     gradientUnits="userSpaceOnUse"
     gradientTransform="matrix(6.4669274,0,0,9.6773016,-9356.1743,3517.6929)" /></defs><sodipodi:namedview
   pagecolor="#ffffff"
   bordercolor="#666666"
   borderopacity="1"
   objecttolerance="10"
   gridtolerance="10"
   guidetolerance="10"
   inkscape:pageopacity="0"
   inkscape:pageshadow="2"
   inkscape:window-width="1920"
   inkscape:window-height="986"
   id="namedview91"
   showgrid="false"
   inkscape:zoom="1.3037307"
   inkscape:cx="-87.797664"
   inkscape:cy="318.09098"
   inkscape:window-x="-11"
   inkscape:window-y="-11"
   inkscape:window-maximized="1"
   inkscape:current-layer="g1046" />























<g
   id="g60">
</g>
<g
   id="g62">
</g>
<g
   id="g64">
</g>
<g
   id="g66">
</g>
<g
   id="g68">
</g>
<g
   id="g70">
</g>
<g
   id="g72">
</g>
<g
   id="g74">
</g>
<g
   id="g76">
</g>
<g
   id="g78">
</g>
<g
   id="g80">
</g>
<g
   id="g82">
</g>
<g
   id="g84">
</g>
<g
   id="g86">
</g>
<g
   id="g88">
</g>
<g
   id="g1046"
   transform="matrix(0.55886315,0,0,0.55886315,157.54779,132.77619)"><rect
   y="-104.38158"
   x="-28.555799"
   height="673.03345"
   width="469.31418"
   id="rect2447-0-9"
   style="display:inline;fill:none;fill-opacity:1;stroke:url(#linearGradient2459-6-2);stroke-width:25.31489563;stroke-miterlimit:4;stroke-dasharray:none;stroke-opacity:1" /><text
   id="text2485-9"
   y="522.54254"
   x="112.38122"
   style="font-style:normal;font-weight:normal;font-size:76.99105835px;line-height:1.25;font-family:sans-serif;letter-spacing:0px;word-spacing:0px;display:inline;fill:#000000;fill-opacity:1;stroke:none;stroke-width:1.9247762"
   xml:space="preserve"><tspan
     style="stroke-width:1.9247762"
     y="522.54254"
     x="112.38122"
     id="tspan2483-7"
     sodipodi:role="line">LUIS</tspan></text>


<g
   transform="matrix(0.90905041,0,0,0.90905041,-26.615615,-26.335288)"
   id="g895"><path
     inkscape:connector-curvature="0"
     id="path2"
     d="M 413.526,374.103 329.04,349.254 c -10.235,-3.01 -17.263,-12.403 -17.263,-23.071 V 288.064 H 199.551 v 38.119 c 0,10.668 -7.028,20.061 -17.263,23.071 l -84.486,24.849 c -20.469,6.02 -34.526,24.806 -34.526,46.142 V 504.5 H 448.05 v -84.254 c 10e-4,-21.336 -14.055,-40.122 -34.524,-46.143 z"
     style="fill:#e3aa75" /><path
     inkscape:connector-curvature="0"
     id="path4"
     d="m 413.526,374.103 -63.599,-18.706 c -8.913,43.908 -47.725,76.957 -94.262,76.957 -46.537,0 -85.349,-33.049 -94.262,-76.957 l -63.599,18.706 c -20.469,6.02 -34.525,24.806 -34.525,46.142 V 504.5 h 384.774 v -84.254 c -0.002,-21.337 -14.058,-40.122 -34.527,-46.143 z"
     style="fill:#9bdc9b" /><path
     inkscape:connector-curvature="0"
     id="path6"
     d="m 199.551,313.969 c 16.841,8.996 35.939,14.176 56.113,14.176 20.174,0 39.272,-5.18 56.113,-14.176 V 288.064 H 199.551 Z"
     style="fill:#d29b6e" /><path
     inkscape:connector-curvature="0"
     id="path8-8"
     d="M 371.898,167.823 H 359.874 V 79.645 h -208.42 v 88.177 H 139.43 c -11.068,0 -20.04,8.972 -20.04,20.04 0,11.068 8.972,20.04 20.04,20.04 h 12.429 c 4.106,53.795 48.958,96.194 103.805,96.194 54.847,0 99.699,-42.398 103.805,-96.194 h 12.429 c 11.068,0 20.04,-8.973 20.04,-20.04 0,-11.067 -8.972,-20.039 -20.04,-20.039 z"
     style="fill:#f5b97d" /><path
     inkscape:connector-curvature="0"
     id="path10"
     d="m 151.454,79.645 v 88.177 h -10.88 c -10.483,0 -20.036,7.542 -21.081,17.973 -1.202,11.996 8.186,22.108 19.936,22.108 h 12.43 c 4.106,53.795 48.957,96.194 103.805,96.194 5.483,0 10.83,-0.534 16.083,-1.351 -49.946,-7.708 -88.228,-50.754 -88.228,-102.859 v -64.129 c 0,-17.709 14.356,-32.065 32.065,-32.065 h 48.317 c 6.676,4.971 14.865,8.016 23.828,8.016 6.582,0 12.7,-1.738 18.18,-4.55 10.617,7.863 23.702,12.566 37.933,12.566 5.547,0 10.899,-0.778 16.032,-2.102 V 79.645 Z"
     style="fill:#e3aa75" /><path
     inkscape:connector-curvature="0"
     id="path12"
     d="M 374.023,80.948 343.841,7.5 H 198.267 c -37.94,0 -67.586,32.758 -63.811,70.51 l 8.981,89.813 h 8.015 c 8.854,0 16.032,-7.178 16.032,-16.032 v -35.405 c 0,-17.709 14.356,-32.064 32.065,-32.064 H 343.84 l -10e-4,67.469 c 0,8.855 7.178,16.033 16.033,16.033 h 8.017 l 6.671,-86.716 z"
     style="fill:#a06e50" /><path
     inkscape:connector-curvature="0"
     id="path14-1"
     d="m 231.616,7.5 h -33.348 c -37.94,0 -67.586,32.758 -63.811,70.51 l 8.981,89.813 h 8.015 c 8.854,0 16.032,-7.178 16.032,-16.032 l 10e-4,-40.081 V 71.629 C 167.487,36.212 196.198,7.5 231.616,7.5 Z"
     style="fill:#8c5f4b" /><g
     id="g20"><circle
       id="circle16"
       r="48.099998"
       cy="55.599998"
       cx="343.83899"
       style="fill:#a06e50" /><circle
       id="circle18"
       r="24.049999"
       cy="71.629997"
       cx="287.729"
       style="fill:#a06e50" /></g><path
     inkscape:connector-curvature="0"
     id="path22"
     d="m 130.638,364.446 c 12.895,57.207 63.923,99.974 125.026,99.974 61.103,0 112.131,-42.766 125.026,-99.974 l -30.764,-9.048 c -8.913,43.908 -47.725,76.957 -94.262,76.957 -46.537,0 -85.349,-33.049 -94.262,-76.957 z"
     style="fill:#b67f5f" /><path
     inkscape:connector-curvature="0"
     id="path24"
     d="m 207.903,168.339 c -4.142,0 -7.5,3.358 -7.5,7.5 v 8.016 c 0,4.142 3.358,7.5 7.5,7.5 4.142,0 7.5,-3.358 7.5,-7.5 v -8.016 c 0,-4.142 -3.358,-7.5 -7.5,-7.5 z" /><path
     inkscape:connector-curvature="0"
     id="path26"
     d="m 304.096,168.339 c -4.143,0 -7.5,3.358 -7.5,7.5 v 8.016 c 0,4.142 3.357,7.5 7.5,7.5 4.143,0 7.5,-3.358 7.5,-7.5 v -8.016 c 0,-4.142 -3.357,-7.5 -7.5,-7.5 z" /><path
     inkscape:connector-curvature="0"
     id="path28-7"
     d="m 285.316,237.291 c 2.948,-2.909 2.98,-7.658 0.071,-10.606 -2.91,-2.949 -7.656,-2.981 -10.606,-0.071 -2.737,2.701 -9.299,5.855 -18.781,5.855 -9.482,0 -16.043,-3.154 -18.781,-5.855 -2.949,-2.91 -7.698,-2.877 -10.606,0.071 -2.909,2.948 -2.877,7.697 0.071,10.606 6.459,6.373 17.418,10.177 29.316,10.177 11.897,0 22.856,-3.805 29.316,-10.177 z" /><path
     inkscape:connector-curvature="0"
     id="path30-5"
     d="m 415.977,366.908 -84.485,-24.849 c -6.994,-2.057 -11.879,-8.585 -11.879,-15.876 v -34.528 c 25.013,-17.396 42.617,-44.741 47.019,-76.253 h 4.459 c 14.617,0 27.154,-10.861 28.542,-24.727 0.778,-7.771 -1.764,-15.53 -6.974,-21.288 -4.295,-4.746 -10.103,-7.819 -16.359,-8.757 l 4.943,-64.255 c 10.974,-10.162 17.86,-24.679 17.86,-40.78 C 399.103,24.94 374.162,0 343.506,0 H 198.603 C 178.404,0 159.047,8.589 145.494,23.566 131.941,38.542 125.32,58.658 127.33,78.756 l 8.206,82.062 c -12.208,2.271 -21.954,12.101 -23.169,24.23 -0.778,7.771 1.764,15.531 6.974,21.289 5.213,5.762 12.658,9.067 20.425,9.067 h 5.598 c 4.399,31.522 22.003,58.87 47.023,76.264 v 34.517 c 0,7.291 -4.885,13.819 -11.879,15.876 L 96.022,366.91 c -23.498,6.912 -39.909,28.845 -39.909,53.338 V 504.5 c 0,4.142 3.358,7.5 7.5,7.5 4.142,0 7.5,-3.358 7.5,-7.5 v -84.254 c 0,-17.885 11.983,-33.9 29.142,-38.947 l 24.685,-7.26 c 7.742,26.616 23.711,50.587 45.489,68.063 23.964,19.229 54.116,29.818 84.901,29.818 30.781,0 60.929,-10.587 84.891,-29.81 21.883,-17.555 37.902,-41.668 45.605,-68.434 l 25.919,7.623 c 17.158,5.046 29.142,21.062 29.142,38.947 V 504.5 c 0,4.142 3.357,7.5 7.5,7.5 4.143,0 7.5,-3.358 7.5,-7.5 v -84.254 c -10e-4,-24.493 -16.412,-46.427 -39.91,-53.338 z M 361.28,160.323 h -1.071 c -4.705,0 -8.532,-3.828 -8.532,-8.532 v -41.203 c 4.802,-0.711 9.406,-2.037 13.729,-3.897 z m -201.99,39.564 c 0,-4.142 -3.358,-7.5 -7.5,-7.5 -4.142,0 -7.5,3.358 -7.5,7.5 v 0.516 h -4.524 c -3.537,0 -6.927,-1.505 -9.303,-4.131 -2.407,-2.66 -3.533,-6.115 -3.17,-9.73 0.63,-6.292 6.611,-11.22 13.617,-11.22 h 10.88 c 12.976,0 23.532,-10.557 23.532,-23.532 v -35.07 c 0,-13.545 11.02,-24.564 24.564,-24.564 h 31.394 c 4.142,0 7.5,-3.358 7.5,-7.5 0,-4.142 -3.358,-7.5 -7.5,-7.5 h -31.394 c -21.816,0 -39.564,17.749 -39.564,39.564 v 35.071 c 0,4.705 -3.828,8.532 -8.532,8.532 h -1.229 L 142.255,77.264 C 140.666,61.374 145.9,45.471 156.615,33.631 167.33,21.791 182.634,15 198.603,15 h 144.903 c 22.385,0 40.597,18.211 40.597,40.597 0,22.386 -18.212,40.597 -40.597,40.597 -14.574,0 -28.108,-7.88 -35.321,-20.566 -2.047,-3.6 -6.625,-4.859 -10.227,-2.813 -3.601,2.047 -4.86,6.626 -2.813,10.227 0.452,0.795 0.928,1.571 1.415,2.338 -2.697,1.795 -5.882,2.798 -9.167,2.798 -9.125,0 -16.549,-7.423 -16.549,-16.548 0,-4.142 -3.357,-7.5 -7.5,-7.5 -4.143,0 -7.5,3.358 -7.5,7.5 0,17.396 14.152,31.548 31.549,31.548 6.846,0 13.478,-2.255 18.895,-6.302 8.413,7.568 19.016,12.474 30.388,13.888 v 41.027 c 0,12.976 10.557,23.532 23.532,23.532 h 12.023 c 3.537,0 6.928,1.505 9.304,4.131 2.406,2.659 3.532,6.114 3.17,9.729 -0.63,6.292 -6.61,11.221 -13.616,11.221 h -3.385 v -0.439 c 0,-4.141 -3.356,-7.499 -7.497,-7.5 -10e-4,0 -0.002,0 -0.003,0 -4.14,0 -7.497,3.354 -7.5,7.495 -0.039,53.286 -43.421,96.638 -96.706,96.638 -53.324,-0.001 -96.708,-43.385 -96.708,-96.711 z m 171.543,230.522 c -21.618,17.343 -47.728,26.51 -75.504,26.51 -27.781,0 -53.894,-9.169 -75.514,-26.518 -19.394,-15.562 -33.597,-36.908 -40.476,-60.599 l 16.381,-4.818 c 5.803,20.023 17.649,38.073 33.908,51.403 18.458,15.133 41.792,23.467 65.701,23.467 18.23,0 36.162,-4.799 51.857,-13.88 3.585,-2.074 4.811,-6.662 2.736,-10.248 -2.075,-3.585 -6.663,-4.81 -10.248,-2.736 -13.415,7.761 -28.749,11.863 -44.345,11.863 -39.54,0 -74.404,-26.608 -85.22,-64.102 l 14.631,-4.303 c 13.334,-3.922 22.646,-16.368 22.646,-30.267 V 300.45 c 14.705,7.137 31.199,11.146 48.613,11.146 17.412,0 33.907,-4.012 48.613,-11.153 v 25.74 c 0,13.899 9.313,26.345 22.646,30.267 l 13.403,3.942 c -3.597,12.674 -10.021,24.474 -18.807,34.431 -2.741,3.105 -2.445,7.845 0.66,10.586 1.427,1.258 3.196,1.876 4.96,1.876 2.077,0 4.144,-0.858 5.626,-2.538 10.239,-11.602 17.734,-25.351 21.95,-40.123 l 16.378,4.817 c -6.839,23.84 -21.097,45.326 -40.595,60.968 z" /><path
     inkscape:connector-curvature="0"
     id="path32-1"
     d="m 215.919,144.291 h -16.032 c -4.142,0 -7.5,3.358 -7.5,7.5 0,4.142 3.358,7.5 7.5,7.5 h 16.032 c 4.142,0 7.5,-3.358 7.5,-7.5 0,-4.142 -3.358,-7.5 -7.5,-7.5 z" /><path
     inkscape:connector-curvature="0"
     id="path34"
     d="m 296.08,159.291 h 16.032 c 4.143,0 7.5,-3.358 7.5,-7.5 0,-4.142 -3.357,-7.5 -7.5,-7.5 H 296.08 c -4.143,0 -7.5,3.358 -7.5,7.5 0,4.142 3.358,7.5 7.5,7.5 z" /></g></g></svg>