<?xml version="1.0" encoding="UTF-8" standalone="no"?>
<!-- Generator: Adobe Illustrator 19.0.0, SVG Export Plug-In . SVG Version: 6.00 Build 0)  -->

<svg
   xmlns:osb="http://www.openswatchbook.org/uri/2009/osb"
   xmlns:dc="http://purl.org/dc/elements/1.1/"
   xmlns:cc="http://creativecommons.org/ns#"
   xmlns:rdf="http://www.w3.org/1999/02/22-rdf-syntax-ns#"
   xmlns:svg="http://www.w3.org/2000/svg"
   xmlns="http://www.w3.org/2000/svg"
   xmlns:xlink="http://www.w3.org/1999/xlink"
   xmlns:sodipodi="http://sodipodi.sourceforge.net/DTD/sodipodi-0.dtd"
   xmlns:inkscape="http://www.inkscape.org/namespaces/inkscape"
   version="1.1"
   id="Capa_1"
   x="0px"
   y="0px"
   viewBox="0 0 511.999 511.999"
   style="enable-background:new 0 0 511.999 511.999;"
   xml:space="preserve"
   sodipodi:docname="19.svg"
   inkscape:version="0.92.4 (5da689c313, 2019-01-14)"><metadata
   id="metadata95"><rdf:RDF><cc:Work
       rdf:about=""><dc:format>image/svg+xml</dc:format><dc:type
         rdf:resource="http://purl.org/dc/dcmitype/StillImage" /><dc:title /></cc:Work></rdf:RDF></metadata><defs
   id="defs93"><linearGradient
     id="linearGradient2457"
     osb:paint="solid"><stop
       style="stop-color:#000000;stop-opacity:1;"
       offset="0"
       id="stop2455" /></linearGradient><linearGradient
     inkscape:collect="always"
     xlink:href="#linearGradient2457"
     id="linearGradient2459-6-2"
     x1="1442.3572"
     y1="-339.5119"
     x2="1514.9286"
     y2="-339.5119"
     gradientUnits="userSpaceOnUse"
     gradientTransform="matrix(6.4669274,0,0,9.6773016,-9356.1743,3517.6929)" /></defs><sodipodi:namedview
   pagecolor="#ffffff"
   bordercolor="#666666"
   borderopacity="1"
   objecttolerance="10"
   gridtolerance="10"
   guidetolerance="10"
   inkscape:pageopacity="0"
   inkscape:pageshadow="2"
   inkscape:window-width="1920"
   inkscape:window-height="986"
   id="namedview91"
   showgrid="false"
   inkscape:zoom="1.3037307"
   inkscape:cx="-87.797664"
   inkscape:cy="318.09098"
   inkscape:window-x="-11"
   inkscape:window-y="-11"
   inkscape:window-maximized="1"
   inkscape:current-layer="g1046" />























<g
   id="g60">
</g>
<g
   id="g62">
</g>
<g
   id="g64">
</g>
<g
   id="g66">
</g>
<g
   id="g68">
</g>
<g
   id="g70">
</g>
<g
   id="g72">
</g>
<g
   id="g74">
</g>
<g
   id="g76">
</g>
<g
   id="g78">
</g>
<g
   id="g80">
</g>
<g
   id="g82">
</g>
<g
   id="g84">
</g>
<g
   id="g86">
</g>
<g
   id="g88">
</g>
<g
   id="g1046"
   transform="matrix(0.55886315,0,0,0.55886315,157.54779,132.77619)"><rect
   y="-104.38158"
   x="-28.555799"
   height="673.03345"
   width="469.31418"
   id="rect2447-0-9"
   style="display:inline;fill:none;fill-opacity:1;stroke:url(#linearGradient2459-6-2);stroke-width:25.31489563;stroke-miterlimit:4;stroke-dasharray:none;stroke-opacity:1" /><text
   id="text2485-9"
   y="522.54254"
   x="102.68215"
   style="font-style:normal;font-weight:normal;font-size:76.99105835px;line-height:1.25;font-family:sans-serif;letter-spacing:0px;word-spacing:0px;display:inline;fill:#000000;fill-opacity:1;stroke:none;stroke-width:1.9247762"
   xml:space="preserve"><tspan
     style="stroke-width:1.9247762"
     y="522.54254"
     x="102.68215"
     id="tspan2483-7"
     sodipodi:role="line">NINA</tspan></text>


<g
   transform="matrix(0.94614227,0,0,0.94614227,-36.111131,-46.702606)"
   id="g895"><path
     inkscape:connector-curvature="0"
     id="path2-5"
     d="m 151.789,392.274 c 0,0 -56.113,-105.789 -56.113,-214.425 v 0 c 0,-60.558 32.065,-114.237 88.178,-146.301 h 48.097 v 360.726 z"
     style="fill:#5a4650" /><path
     inkscape:connector-curvature="0"
     id="path4-9"
     d="m 360.209,384.258 c 0,0 64.129,-104.21 64.129,-208.419 v 0 C 424.338,82.868 348.97,7.5 255.999,7.5 h -16.032 c -40.081,0 -72.145,25.123 -72.145,56.113 v 0 c 0,17.709 14.356,32.065 32.065,32.065 h 32.065 v 288.581 z"
     style="fill:#64505a" /><g
     id="g10"><path
       inkscape:connector-curvature="0"
       id="path6-4"
       d="m 159.806,256 c 0,8.854 -7.178,16.032 -16.032,16.032 -8.854,0 -16.032,-7.178 -16.032,-16.032 0,-16.032 16.032,-48.097 16.032,-48.097 0,0 16.032,32.065 16.032,48.097 z"
       style="fill:#ffe17d" /><path
       inkscape:connector-curvature="0"
       id="path8"
       d="m 384.257,256 c 0,8.854 -7.178,16.032 -16.032,16.032 -8.854,0 -16.032,-7.178 -16.032,-16.032 0,-16.032 16.032,-48.097 16.032,-48.097 0,0 16.032,32.065 16.032,48.097 z"
       style="fill:#ffe17d" /></g><path
     inkscape:connector-curvature="0"
     id="path12-2"
     d="M 408.281,396.981 325.489,367.76 c -12.82,-4.525 -21.393,-16.642 -21.393,-30.237 V 296.08 h -96.194 v 41.443 c 0,13.595 -8.573,25.712 -21.393,30.236 l -82.793,29.221 c -19.229,6.787 -32.089,24.962 -32.089,45.354 V 504.5 h 368.742 v -62.164 c 10e-4,-20.392 -12.859,-38.568 -32.088,-45.355 z"
     style="fill:#e3aa75" /><path
     inkscape:connector-curvature="0"
     id="path14"
     d="m 255.999,336.161 c 17.034,0 33.296,-3.712 48.097,-10.257 V 296.08 h -96.194 v 29.824 c 14.801,6.545 31.063,10.257 48.097,10.257 z"
     style="fill:#d29b6e" /><path
     inkscape:connector-curvature="0"
     id="path16"
     d="m 372.233,175.839 h -12.024 v -32.065 c 0,-26.563 -21.534,-48.097 -48.097,-48.097 H 199.886 c -26.563,0 -48.097,21.534 -48.097,48.097 v 32.065 h -12.024 c -11.068,0 -20.04,8.972 -20.04,20.04 0,11.068 8.972,20.04 20.04,20.04 h 12.429 c 4.106,53.795 48.958,96.194 103.805,96.194 54.847,0 99.699,-42.398 103.805,-96.194 h 12.429 c 11.068,0 20.04,-8.973 20.04,-20.04 0,-11.068 -8.972,-20.04 -20.04,-20.04 z"
     style="fill:#f5b97d" /><path
     inkscape:connector-curvature="0"
     id="path18"
     d="m 408.28,396.981 -18.797,-6.634 c -30.77,40.095 -79.038,66.056 -133.485,66.056 -54.447,0 -102.715,-25.961 -133.485,-66.057 l -18.797,6.635 c -19.229,6.787 -32.088,24.962 -32.088,45.354 V 504.5 H 440.37 v -62.164 c 0,-20.392 -12.86,-38.568 -32.09,-45.355 z"
     style="fill:#ff8250" /><path
     inkscape:connector-curvature="0"
     id="path20"
     d="m 151.789,143.774 v 32.065 h -10.881 c -10.483,0 -20.035,7.542 -21.08,17.973 -1.201,11.996 8.187,22.108 19.936,22.108 h 12.429 c 4.106,53.795 48.957,96.194 103.805,96.194 5.483,0 10.83,-0.534 16.083,-1.351 -49.946,-7.708 -88.228,-50.754 -88.228,-102.859 V 151.79 c 0,-17.709 14.356,-32.065 32.065,-32.065 h 88.177 c 8.854,0 16.032,-7.178 16.032,-16.032 V 95.677 H 199.886 c -26.563,0 -48.097,21.534 -48.097,48.097 z"
     style="fill:#e3aa75" /><path
     inkscape:connector-curvature="0"
     id="path22-0"
     d="m 389.484,390.347 c -30.771,40.095 -79.038,66.056 -133.485,66.056 -54.447,0 -102.715,-25.961 -133.485,-66.057 l -18.798,6.634 c -1.665,0.588 -3.214,1.367 -4.779,2.12 34.847,49.202 92.183,81.351 157.062,81.351 64.879,0 122.215,-32.149 157.062,-81.35 -1.566,-0.753 -3.116,-1.533 -4.781,-2.12 z"
     style="fill:#dc7346" /><path
     inkscape:connector-curvature="0"
     id="path24-2"
     d="m 207.902,177.052 c -4.142,0 -7.5,3.358 -7.5,7.5 v 8.016 c 0,4.142 3.358,7.5 7.5,7.5 4.142,0 7.5,-3.358 7.5,-7.5 v -8.016 c 0,-4.142 -3.358,-7.5 -7.5,-7.5 z" /><path
     inkscape:connector-curvature="0"
     id="path26-6"
     d="m 304.096,177.052 c -4.142,0 -7.5,3.358 -7.5,7.5 v 8.016 c 0,4.142 3.358,7.5 7.5,7.5 4.142,0 7.5,-3.358 7.5,-7.5 v -8.016 c 0,-4.142 -3.358,-7.5 -7.5,-7.5 z" /><path
     inkscape:connector-curvature="0"
     id="path28"
     d="m 410.777,389.909 -41.142,-14.521 c 5.541,-8.978 17.477,-29.437 29.522,-57.292 C 426.168,255.634 431.838,206.26 431.838,175.839 431.838,78.881 352.957,0 255.999,0 h -16.032 c -21.021,0 -40.807,6.399 -55.714,18.02 -6.575,5.126 -11.879,11.012 -15.815,17.419 -25.203,14.87 -45.142,35.521 -58.549,58.708 -14.407,24.915 -21.712,53.076 -21.712,83.703 0,57.248 15.454,110.227 28.419,144.589 9.385,24.873 18.693,43.589 24.014,53.568 l -39.388,13.901 c -22.187,7.83 -37.093,28.899 -37.093,52.427 V 504.5 c 0,4.142 3.358,7.5 7.5,7.5 4.142,0 7.5,-3.358 7.5,-7.5 v -62.165 c 0,-17.18 10.885,-32.564 27.085,-38.282 l 12.237,-4.319 c 28.714,39.69 80.937,64.169 137.549,64.169 25.526,0 50.915,-5.042 73.422,-14.579 3.814,-1.617 5.595,-6.019 3.979,-9.832 -1.617,-3.814 -6.018,-5.596 -9.832,-3.979 -20.671,8.76 -44.037,13.39 -67.569,13.39 -50.122,0 -96.282,-20.655 -122.72,-54.403 l 55.726,-19.668 c 15.789,-5.573 26.397,-20.566 26.397,-37.309 v -25.548 c 12.589,4.928 26.282,7.638 40.597,7.638 14.315,0 28.007,-2.71 40.597,-7.638 v 25.548 c 0,16.743 10.608,31.736 26.397,37.309 l 55.723,19.667 c -7.693,9.817 -17.148,18.63 -28.209,26.272 -3.408,2.354 -4.262,7.025 -1.907,10.434 1.456,2.107 3.796,3.237 6.177,3.237 1.47,0 2.955,-0.431 4.256,-1.33 13.79,-9.527 25.372,-20.742 34.51,-33.38 l 12.242,4.321 c 16.201,5.718 27.085,21.102 27.085,38.282 V 504.5 c 0,4.142 3.358,7.5 7.5,7.5 4.142,0 7.5,-3.358 7.5,-7.5 V 442.335 C 447.87,418.808 432.963,397.739 410.777,389.909 Z M 200.402,337.523 c 0,10.396 -6.586,19.705 -16.389,23.165 l -29.069,10.26 C 143.419,349.575 103.176,268.442 103.176,177.85 c 0,-27.956 6.627,-53.591 19.697,-76.194 9.56,-16.533 22.205,-30.86 37.685,-42.777 -0.141,1.568 -0.237,3.144 -0.237,4.734 0,12.302 5.644,23.308 14.478,30.57 -18.083,9.185 -30.51,27.958 -30.51,49.591 v 24.048 c 0,0.285 -0.231,0.516 -0.516,0.516 h -4.008 c -15.186,0 -27.54,12.354 -27.54,27.54 0,12.254 8.046,22.66 19.131,26.223 -4.993,9.186 -11.115,22.725 -11.115,33.898 0,12.976 10.557,23.532 23.532,23.532 7.899,0 14.896,-3.916 19.166,-9.904 9.588,14.408 22.425,26.477 37.463,35.141 z M 135.241,256 c 0,-7.165 4.329,-17.273 8.532,-25.263 4.204,7.99 8.532,18.098 8.532,25.263 0,4.705 -3.828,8.532 -8.532,8.532 -4.704,0 -8.532,-3.827 -8.532,-8.532 z m 192.744,104.688 c -9.803,-3.46 -16.389,-12.769 -16.389,-23.165 V 304.77 c 15.038,-8.665 27.875,-20.734 37.463,-35.142 4.27,5.988 11.267,9.904 19.166,9.904 12.976,0 23.532,-10.557 23.532,-23.532 0,-11.173 -6.122,-24.712 -11.115,-33.898 11.085,-3.563 19.131,-13.969 19.131,-26.223 0,-15.186 -12.354,-27.54 -27.541,-27.54 h -4.008 c -0.285,0 -0.516,-0.231 -0.516,-0.516 v -24.048 c 0,-30.656 -24.941,-55.597 -55.597,-55.597 h -8.015 c -4.142,0 -7.5,3.358 -7.5,7.5 0,4.142 3.358,7.5 7.5,7.5 h 8.015 c 22.385,0 40.597,18.212 40.597,40.597 v 24.048 c 0,8.556 6.96,15.516 15.516,15.516 h 4.008 c 6.915,0 12.541,5.625 12.541,12.54 0,6.915 -5.625,12.541 -12.541,12.541 h -4.53 c 10e-4,-0.172 0.007,-0.344 0.007,-0.516 0,-4.142 -3.358,-7.5 -7.5,-7.5 -4.142,0 -7.5,3.358 -7.5,7.5 0,53.326 -43.384,96.709 -96.71,96.709 -53.326,0 -96.709,-43.384 -96.709,-96.709 0,-4.142 -3.358,-7.5 -7.5,-7.5 -4.142,0 -7.5,3.358 -7.5,7.5 0,0.173 0.006,0.344 0.007,0.516 h -4.531 c -6.915,0 -12.54,-5.625 -12.54,-12.541 0,-6.915 5.625,-12.54 12.54,-12.54 h 4.008 c 8.556,0 15.516,-6.96 15.516,-15.516 v -24.048 c 0,-22.385 18.211,-40.597 40.597,-40.597 h 72.147 c 4.142,0 7.5,-3.358 7.5,-7.5 0,-4.142 -3.358,-7.5 -7.5,-7.5 h -72.147 c -13.545,0 -24.564,-11.02 -24.564,-24.564 0,-26.805 29,-48.613 64.645,-48.613 h 16.031 c 88.687,0 160.839,72.152 160.839,160.839 0,92.977 -53.124,180.849 -61.706,194.431 z M 359.693,256 c 0,-7.165 4.329,-17.273 8.532,-25.263 4.204,7.99 8.532,18.098 8.532,25.263 0,4.705 -3.828,8.532 -8.532,8.532 -4.704,0 -8.532,-3.827 -8.532,-8.532 z" /><path
     inkscape:connector-curvature="0"
     id="path30"
     d="m 274.78,242.645 c -2.737,2.701 -9.298,5.855 -18.781,5.855 -9.483,0 -16.043,-3.154 -18.781,-5.855 -2.95,-2.91 -7.698,-2.877 -10.606,0.071 -2.909,2.948 -2.877,7.697 0.071,10.606 6.459,6.373 17.418,10.177 29.316,10.177 11.898,0 22.857,-3.805 29.316,-10.177 2.949,-2.909 2.98,-7.658 0.071,-10.606 -2.91,-2.948 -7.658,-2.98 -10.606,-0.071 z" /><path
     inkscape:connector-curvature="0"
     id="path32"
     d="m 206.194,149.021 -9.519,4.509 c -3.743,1.773 -5.34,6.245 -3.567,9.989 1.282,2.707 3.975,4.291 6.783,4.291 1.076,0 2.169,-0.233 3.206,-0.724 l 9.519,-4.509 c 3.743,-1.773 5.34,-6.245 3.567,-9.989 -1.773,-3.744 -6.244,-5.34 -9.989,-3.567 z" /><path
     inkscape:connector-curvature="0"
     id="path34-8"
     d="m 299.382,162.576 9.519,4.509 c 1.037,0.491 2.13,0.724 3.206,0.724 2.808,0 5.501,-1.585 6.783,-4.291 1.773,-3.744 0.176,-8.216 -3.567,-9.989 l -9.519,-4.509 c -3.743,-1.772 -8.215,-0.177 -9.989,3.567 -1.774,3.744 -0.176,8.216 3.567,9.989 z" /></g></g></svg>