<?xml version="1.0" encoding="UTF-8" standalone="no"?>
<!-- Generator: Adobe Illustrator 19.0.0, SVG Export Plug-In . SVG Version: 6.00 Build 0)  -->

<svg
   xmlns:osb="http://www.openswatchbook.org/uri/2009/osb"
   xmlns:dc="http://purl.org/dc/elements/1.1/"
   xmlns:cc="http://creativecommons.org/ns#"
   xmlns:rdf="http://www.w3.org/1999/02/22-rdf-syntax-ns#"
   xmlns:svg="http://www.w3.org/2000/svg"
   xmlns="http://www.w3.org/2000/svg"
   xmlns:xlink="http://www.w3.org/1999/xlink"
   xmlns:sodipodi="http://sodipodi.sourceforge.net/DTD/sodipodi-0.dtd"
   xmlns:inkscape="http://www.inkscape.org/namespaces/inkscape"
   version="1.1"
   id="Capa_1"
   x="0px"
   y="0px"
   viewBox="0 0 511.999 511.999"
   style="enable-background:new 0 0 511.999 511.999;"
   xml:space="preserve"
   sodipodi:docname="26.svg"
   inkscape:version="0.92.4 (5da689c313, 2019-01-14)"><metadata
   id="metadata95"><rdf:RDF><cc:Work
       rdf:about=""><dc:format>image/svg+xml</dc:format><dc:type
         rdf:resource="http://purl.org/dc/dcmitype/StillImage" /><dc:title /></cc:Work></rdf:RDF></metadata><defs
   id="defs93"><linearGradient
     id="linearGradient2457"
     osb:paint="solid"><stop
       style="stop-color:#000000;stop-opacity:1;"
       offset="0"
       id="stop2455" /></linearGradient><linearGradient
     inkscape:collect="always"
     xlink:href="#linearGradient2457"
     id="linearGradient2459-6-2"
     x1="1442.3572"
     y1="-339.5119"
     x2="1514.9286"
     y2="-339.5119"
     gradientUnits="userSpaceOnUse"
     gradientTransform="matrix(6.4669274,0,0,9.6773016,-9356.1743,3517.6929)" /></defs><sodipodi:namedview
   pagecolor="#ffffff"
   bordercolor="#666666"
   borderopacity="1"
   objecttolerance="10"
   gridtolerance="10"
   guidetolerance="10"
   inkscape:pageopacity="0"
   inkscape:pageshadow="2"
   inkscape:window-width="1920"
   inkscape:window-height="986"
   id="namedview91"
   showgrid="false"
   inkscape:zoom="1.3037307"
   inkscape:cx="47.583058"
   inkscape:cy="348.77217"
   inkscape:window-x="-11"
   inkscape:window-y="-11"
   inkscape:window-maximized="1"
   inkscape:current-layer="g1046" />























<g
   id="g60">
</g>
<g
   id="g62">
</g>
<g
   id="g64">
</g>
<g
   id="g66">
</g>
<g
   id="g68">
</g>
<g
   id="g70">
</g>
<g
   id="g72">
</g>
<g
   id="g74">
</g>
<g
   id="g76">
</g>
<g
   id="g78">
</g>
<g
   id="g80">
</g>
<g
   id="g82">
</g>
<g
   id="g84">
</g>
<g
   id="g86">
</g>
<g
   id="g88">
</g>
<g
   id="g1046"
   transform="matrix(0.55886315,0,0,0.55886315,157.54779,132.77619)"><rect
   y="-104.38158"
   x="-28.555799"
   height="673.03345"
   width="469.31418"
   id="rect2447-0-9"
   style="display:inline;fill:none;fill-opacity:1;stroke:url(#linearGradient2459-6-2);stroke-width:25.31489563;stroke-miterlimit:4;stroke-dasharray:none;stroke-opacity:1" /><text
   id="text2485-9"
   y="522.54254"
   x="98.095772"
   style="font-style:normal;font-weight:normal;font-size:76.99105835px;line-height:1.25;font-family:sans-serif;letter-spacing:0px;word-spacing:0px;display:inline;fill:#000000;fill-opacity:1;stroke:none;stroke-width:1.9247762"
   xml:space="preserve"><tspan
     style="stroke-width:1.9247762"
     y="522.54254"
     x="98.095772"
     id="tspan2483-7"
     sodipodi:role="line">LUNA</tspan></text>





<g
   transform="matrix(0.95412184,0,0,0.95412184,-38.154378,-49.743269)"
   id="g892"><path
     inkscape:connector-curvature="0"
     id="path2-3"
     d="m 408.281,396.284 -82.792,-29.221 c -12.82,-4.525 -21.393,-16.642 -21.393,-30.237 v -49.459 h -96.194 v 49.459 c 0,13.595 -8.573,25.712 -21.393,30.236 l -82.793,29.221 c -19.23,6.787 -32.089,24.962 -32.089,45.354 v 62.165 h 368.742 v -62.165 c 10e-4,-20.39 -12.859,-38.566 -32.088,-45.353 z"
     style="fill:#b4f09b" /><path
     inkscape:connector-curvature="0"
     id="path4-1"
     d="m 255.999,343.481 c 48.097,0 124.635,-24.847 144.57,-32.783 8.243,-3.281 12.297,-12.693 8.878,-20.879 -7.107,-17.016 -17.174,-48.44 -17.174,-89.931 V 143.775 C 392.272,68.512 331.26,7.5 255.999,7.5 v 0 0 0 0 0 0 0 0 c -75.262,0 -136.274,61.012 -136.274,136.274 v 56.113 c 0,41.491 -10.067,72.916 -17.174,89.931 -3.419,8.186 0.635,17.598 8.878,20.879 19.935,7.937 96.473,32.784 144.57,32.784 z"
     style="fill:#739bd7" /><path
     inkscape:connector-curvature="0"
     id="path6-2"
     d="M 344.176,295.384 H 167.822 c -26.563,0 -48.097,21.534 -48.097,48.097 0,53.126 43.067,96.194 96.194,96.194 h 80.161 c 53.126,0 96.194,-43.068 96.194,-96.194 -0.002,-26.564 -21.534,-48.097 -48.098,-48.097 z"
     style="fill:#9c969e" /><path
     inkscape:connector-curvature="0"
     id="path8"
     d="m 342.043,319.432 c 17.449,0 24.301,22.63 9.782,32.309 l -82.487,54.991 c -8.078,5.385 -18.601,5.385 -26.679,0 l -82.487,-54.991 c -14.518,-9.679 -7.666,-32.309 9.782,-32.309 z"
     style="fill:#6f6571" /><path
     inkscape:connector-curvature="0"
     id="path10"
     d="m 255.999,7.5 c -23.193,0 -45.011,5.83 -64.129,16.049 v 7.303 c 0,53.126 43.067,96.194 96.194,96.194 H 391.143 C 382.88,59.692 325.586,7.5 255.999,7.5 Z"
     style="fill:#8cb4eb" /><path
     inkscape:connector-curvature="0"
     id="path12-2"
     d="m 242.659,406.732 c 8.078,5.385 18.601,5.385 26.68,0 l 58.343,-38.895 -2.193,-0.774 c -12.82,-4.525 -21.393,-16.642 -21.393,-30.237 v -49.459 h -96.194 v 49.459 c 0,13.595 -8.573,25.712 -21.393,30.237 l -2.193,0.774 z"
     style="fill:#e3aa75" /><path
     inkscape:connector-curvature="0"
     id="path14-8"
     d="m 207.902,325.21 c 13.042,5.808 27.268,9.411 42.305,10.118 1.94,0.091 3.872,0.137 5.792,0.137 17.103,0 33.353,-3.645 48.097,-10.11 v -37.987 h -96.194 z"
     style="fill:#d29b6e" /><path
     inkscape:connector-curvature="0"
     id="path16"
     d="m 328.143,143.077 h -12.712 c -2.126,0 -4.165,-0.845 -5.668,-2.348 l -29.522,-29.522 c -3.03,-3.03 -8.211,-0.884 -8.211,3.401 v 20.453 c 0,4.427 -3.589,8.016 -8.016,8.016 h -80.161 c -17.709,0 -32.065,14.356 -32.065,32.065 v 29.121 c 0,56.112 43.122,104.395 99.172,107.034 59.844,2.818 109.248,-44.867 109.248,-104.091 v -32.065 c 0,-17.708 -14.355,-32.064 -32.065,-32.064 z"
     style="fill:#f5b97d" /><path
     inkscape:connector-curvature="0"
     id="path18-3"
     d="m 328.143,151.094 v -8.016 H 312.111 L 272.03,102.997 v 40.081 h -88.177 c -17.709,0 -32.065,14.356 -32.065,32.065 v 28.852 c 0,47.061 29.921,90.101 75.102,103.267 15.682,4.57 30.874,5.097 45.157,2.888 -50.6,-7.969 -88.195,-53.501 -88.195,-105.886 v -5.072 c 0,-17.709 14.356,-32.065 32.065,-32.065 h 96.194 c 8.855,-0.001 16.032,-7.179 16.032,-16.033 z"
     style="fill:#e3aa75" /><path
     inkscape:connector-curvature="0"
     id="path20"
     d="m 224.404,235.931 c -2.574,0 -4.497,2.354 -4.061,4.891 2.65,15.387 17.604,27.173 35.656,27.173 18.052,0 33.006,-11.786 35.656,-27.173 0.437,-2.537 -1.486,-4.891 -4.061,-4.891 z"
     style="fill:#ffffff" /><path
     inkscape:connector-curvature="0"
     id="path22-0"
     d="m 215.402,199.887 v -8.016 c 0,-4.142 -3.358,-7.5 -7.5,-7.5 -4.142,0 -7.5,3.358 -7.5,7.5 v 8.016 c 0,4.142 3.358,7.5 7.5,7.5 4.142,0 7.5,-3.358 7.5,-7.5 z" /><path
     inkscape:connector-curvature="0"
     id="path24"
     d="m 304.095,184.371 c -4.142,0 -7.5,3.358 -7.5,7.5 v 8.016 c 0,4.142 3.358,7.5 7.5,7.5 4.142,0 7.5,-3.358 7.5,-7.5 v -8.016 c 0,-4.142 -3.357,-7.5 -7.5,-7.5 z" /><path
     inkscape:connector-curvature="0"
     id="path26"
     d="m 410.777,389.909 -18.929,-6.681 c 5.102,-12.248 7.926,-25.673 7.926,-39.747 0,-8.029 -1.725,-15.659 -4.801,-22.559 2.826,-1.075 5.625,-2.162 8.371,-3.256 5.907,-2.352 10.519,-6.876 12.985,-12.739 2.445,-5.813 2.459,-12.205 0.04,-17.999 -6.198,-14.838 -16.595,-45.875 -16.595,-87.041 V 143.774 C 399.772,64.497 335.276,0 255.999,0 176.722,0 112.225,64.497 112.225,143.774 v 56.113 c 0,41.166 -10.397,72.203 -16.594,87.041 -2.42,5.793 -2.406,12.185 0.039,17.998 2.466,5.864 7.078,10.389 12.985,12.74 2.748,1.094 5.546,2.182 8.371,3.257 -3.076,6.9 -4.801,14.53 -4.801,22.559 0,14.074 2.824,27.499 7.926,39.747 l -18.929,6.681 c -22.187,7.83 -37.093,28.899 -37.093,52.427 V 504.5 c 0,4.142 3.358,7.5 7.5,7.5 4.142,0 7.5,-3.358 7.5,-7.5 v -62.165 c 0,-4.992 0.925,-9.83 2.626,-14.326 l 37.925,32.507 c 5.452,4.673 8.578,11.471 8.578,18.651 V 504.5 c 0,4.142 3.358,7.5 7.5,7.5 4.142,0 7.5,-3.358 7.5,-7.5 v -25.333 c 0,-11.564 -5.036,-22.513 -13.816,-30.04 L 89.687,415.052 c 4.423,-4.876 10.048,-8.712 16.528,-10.999 l 20.759,-7.327 c 16.932,28.179 46.868,47.691 81.446,50.175 v 56.902 c 0,4.142 3.358,7.5 7.5,7.5 4.142,0 7.5,-3.358 7.5,-7.5 v -56.629 h 65.161 v 56.629 c 0,4.142 3.358,7.5 7.5,7.5 4.142,0 7.5,-3.358 7.5,-7.5 v -56.902 c 34.578,-2.484 64.514,-21.996 81.446,-50.175 l 20.759,7.327 c 6.479,2.287 12.105,6.123 16.528,10.999 l -39.755,34.075 c -8.781,7.526 -13.816,18.475 -13.816,30.04 V 504.5 c 0,4.142 3.358,7.5 7.5,7.5 4.142,0 7.5,-3.358 7.5,-7.5 v -25.333 c 0,-7.18 3.126,-13.978 8.578,-18.651 l 37.925,-32.507 c 1.702,4.496 2.626,9.334 2.626,14.326 V 504.5 c 0,4.142 3.358,7.5 7.5,7.5 4.142,0 7.5,-3.358 7.5,-7.5 v -62.165 c -0.002,-23.527 -14.91,-44.596 -37.095,-52.426 z m -296.574,-86.18 c -2.141,-0.852 -3.812,-2.493 -4.707,-4.619 -0.873,-2.076 -0.882,-4.349 -0.025,-6.401 8.099,-19.389 17.753,-51.232 17.753,-92.822 V 143.774 C 127.225,72.768 184.993,15 255.999,15 c 71.006,0 128.774,57.768 128.774,128.774 v 56.113 c 0,41.588 9.655,73.432 17.753,92.821 0.857,2.052 0.849,4.326 -0.025,6.402 -0.895,2.126 -2.566,3.767 -4.707,4.619 -3.562,1.418 -7.215,2.828 -10.904,4.21 -10.207,-12.246 -25.564,-20.056 -42.715,-20.056 H 333.9 c 20.841,-20.305 33.807,-48.654 33.807,-79.98 v -32.064 c 0,-21.816 -17.749,-39.564 -39.564,-39.564 H 315.217 L 277.333,98.39 c -2.145,-2.145 -5.371,-2.786 -8.173,-1.626 -2.803,1.161 -4.63,3.896 -4.63,6.929 v 32.581 h -40.596 c -4.142,0 -7.5,3.358 -7.5,7.5 0,4.142 3.358,7.5 7.5,7.5 h 48.096 c 4.142,0 7.5,-3.358 7.5,-7.5 V 121.8 l 27.277,27.277 c 1.406,1.407 3.314,2.197 5.303,2.197 h 16.032 c 13.545,0 24.564,11.02 24.564,24.564 v 32.064 c 0,53.326 -43.384,96.709 -96.709,96.709 -53.325,0 -96.709,-43.384 -96.709,-96.709 v -32.064 c 0,-13.545 11.02,-24.564 24.564,-24.564 h 8.02 c 4.142,0 7.5,-3.358 7.5,-7.5 0,-4.142 -3.358,-7.5 -7.5,-7.5 h -8.02 c -21.816,0 -39.564,17.749 -39.564,39.564 v 32.064 c 0,31.326 12.966,59.676 33.807,79.98 H 167.82 c -17.15,0 -32.507,7.809 -42.714,20.055 -3.686,-1.381 -7.339,-2.789 -10.903,-4.208 z m 211.852,56.179 c -8.726,-3.941 -14.46,-12.688 -14.46,-22.384 v -10.591 h 30.448 c 5.545,0 8.647,3.718 9.7,7.198 1.054,3.48 0.536,8.294 -4.078,11.371 z m -140.112,0 -21.61,-14.407 c -4.614,-3.076 -5.132,-7.891 -4.078,-11.371 1.053,-3.48 4.155,-7.198 9.7,-7.198 h 30.448 v 10.591 c -0.001,9.697 -5.734,18.444 -14.46,22.385 z m 117.636,71.946 v -8.212 c 0,-4.142 -3.358,-7.5 -7.5,-7.5 -4.142,0 -7.5,3.358 -7.5,7.5 v 8.532 h -65.161 v -8.532 c 0,-4.142 -3.358,-7.5 -7.5,-7.5 -4.142,0 -7.5,3.358 -7.5,7.5 v 8.212 c -45.409,-3.821 -81.194,-41.994 -81.194,-88.374 0,-22.385 18.212,-40.597 40.597,-40.597 h 29.441 c 1.037,0.643 2.081,1.276 3.139,1.886 v 7.163 h -30.448 c -11.331,0 -20.773,7.007 -24.057,17.852 -3.284,10.844 0.687,21.913 10.114,28.198 l 82.487,54.992 c 5.315,3.544 11.408,5.315 17.5,5.315 6.092,0 12.185,-1.772 17.5,-5.315 l 18.725,-12.483 c 3.447,-2.297 4.378,-6.954 2.08,-10.4 -2.297,-3.446 -6.955,-4.377 -10.4,-2.08 l -18.725,12.483 c -5.577,3.717 -12.783,3.717 -18.359,0 l -47.124,-31.416 c 9.7,-7.349 15.707,-18.955 15.707,-31.553 v -25.548 c 12.589,4.928 26.282,7.638 40.597,7.638 14.315,0 28.007,-2.71 40.597,-7.638 v 25.548 c 0,12.598 6.007,24.204 15.707,31.553 l -0.341,0.227 c -3.447,2.297 -4.378,6.954 -2.08,10.4 1.445,2.168 3.823,3.341 6.247,3.341 1.43,0 2.875,-0.408 4.153,-1.261 l 35.704,-23.803 c 9.428,-6.285 13.398,-17.354 10.114,-28.198 -3.283,-10.844 -12.726,-17.852 -24.057,-17.852 h -30.448 v -7.163 c 1.059,-0.61 2.103,-1.243 3.139,-1.886 h 29.441 c 22.385,0 40.597,18.212 40.597,40.597 10e-4,46.38 -35.783,84.553 -81.192,88.374 z" /><path
     inkscape:connector-curvature="0"
     id="path28"
     d="m 192.385,167.126 c 0,4.142 3.358,7.5 7.5,7.5 h 16.032 c 4.142,0 7.5,-3.358 7.5,-7.5 0,-4.142 -3.358,-7.5 -7.5,-7.5 h -16.032 c -4.142,0 -7.5,3.358 -7.5,7.5 z" /><path
     inkscape:connector-curvature="0"
     id="path30"
     d="m 296.079,174.626 h 16.032 c 4.142,0 7.5,-3.358 7.5,-7.5 0,-4.142 -3.358,-7.5 -7.5,-7.5 h -16.032 c -4.142,0 -7.5,3.358 -7.5,7.5 0,4.142 3.357,7.5 7.5,7.5 z" /><path
     inkscape:connector-curvature="0"
     id="path32-2"
     d="m 212.426,235.931 c 0,21.816 19.547,39.564 43.573,39.564 24.026,0 43.573,-17.749 43.573,-39.564 0,-4.142 -3.358,-7.5 -7.5,-7.5 h -72.146 c -4.142,0 -7.5,3.358 -7.5,7.5 z m 70.784,7.5 c -3.695,9.889 -14.497,17.064 -27.211,17.064 -12.714,0 -23.516,-7.176 -27.211,-17.064 z" /></g></g></svg>