<?xml version="1.0" encoding="UTF-8" standalone="no"?>
<!-- Generator: Adobe Illustrator 19.0.0, SVG Export Plug-In . SVG Version: 6.00 Build 0)  -->

<svg
   xmlns:osb="http://www.openswatchbook.org/uri/2009/osb"
   xmlns:dc="http://purl.org/dc/elements/1.1/"
   xmlns:cc="http://creativecommons.org/ns#"
   xmlns:rdf="http://www.w3.org/1999/02/22-rdf-syntax-ns#"
   xmlns:svg="http://www.w3.org/2000/svg"
   xmlns="http://www.w3.org/2000/svg"
   xmlns:xlink="http://www.w3.org/1999/xlink"
   xmlns:sodipodi="http://sodipodi.sourceforge.net/DTD/sodipodi-0.dtd"
   xmlns:inkscape="http://www.inkscape.org/namespaces/inkscape"
   version="1.1"
   id="Capa_1"
   x="0px"
   y="0px"
   viewBox="0 0 511.999 511.999"
   style="enable-background:new 0 0 511.999 511.999;"
   xml:space="preserve"
   sodipodi:docname="29.svg"
   inkscape:version="0.92.4 (5da689c313, 2019-01-14)"><metadata
   id="metadata95"><rdf:RDF><cc:Work
       rdf:about=""><dc:format>image/svg+xml</dc:format><dc:type
         rdf:resource="http://purl.org/dc/dcmitype/StillImage" /><dc:title /></cc:Work></rdf:RDF></metadata><defs
   id="defs93"><linearGradient
     id="linearGradient2457"
     osb:paint="solid"><stop
       style="stop-color:#000000;stop-opacity:1;"
       offset="0"
       id="stop2455" /></linearGradient><linearGradient
     inkscape:collect="always"
     xlink:href="#linearGradient2457"
     id="linearGradient2459-6-2"
     x1="1442.3572"
     y1="-339.5119"
     x2="1514.9286"
     y2="-339.5119"
     gradientUnits="userSpaceOnUse"
     gradientTransform="matrix(6.4669274,0,0,9.6773016,-9356.1743,3517.6929)" /></defs><sodipodi:namedview
   pagecolor="#ffffff"
   bordercolor="#666666"
   borderopacity="1"
   objecttolerance="10"
   gridtolerance="10"
   guidetolerance="10"
   inkscape:pageopacity="0"
   inkscape:pageshadow="2"
   inkscape:window-width="1920"
   inkscape:window-height="986"
   id="namedview91"
   showgrid="false"
   inkscape:zoom="1.3037307"
   inkscape:cx="-101.60419"
   inkscape:cy="348.77217"
   inkscape:window-x="-11"
   inkscape:window-y="-11"
   inkscape:window-maximized="1"
   inkscape:current-layer="g1046" />























<g
   id="g60">
</g>
<g
   id="g62">
</g>
<g
   id="g64">
</g>
<g
   id="g66">
</g>
<g
   id="g68">
</g>
<g
   id="g70">
</g>
<g
   id="g72">
</g>
<g
   id="g74">
</g>
<g
   id="g76">
</g>
<g
   id="g78">
</g>
<g
   id="g80">
</g>
<g
   id="g82">
</g>
<g
   id="g84">
</g>
<g
   id="g86">
</g>
<g
   id="g88">
</g>
<g
   id="g1046"
   transform="matrix(0.55886315,0,0,0.55886315,157.54779,132.77619)"><rect
   y="-104.38158"
   x="-28.555799"
   height="673.03345"
   width="469.31418"
   id="rect2447-0-9"
   style="display:inline;fill:none;fill-opacity:1;stroke:url(#linearGradient2459-6-2);stroke-width:25.31489563;stroke-miterlimit:4;stroke-dasharray:none;stroke-opacity:1" /><text
   id="text2485-9"
   y="522.54254"
   x="18.416792"
   style="font-style:normal;font-weight:normal;font-size:76.99105835px;line-height:1.25;font-family:sans-serif;letter-spacing:0px;word-spacing:0px;display:inline;fill:#000000;fill-opacity:1;stroke:none;stroke-width:1.9247762"
   xml:space="preserve"><tspan
     style="stroke-width:1.9247762"
     y="522.54254"
     x="18.416792"
     id="tspan2483-7"
     sodipodi:role="line">GUSTAVO</tspan></text>






<g
   transform="matrix(0.91031247,0,0,0.91031247,-26.939158,-29.544469)"
   id="g913"><path
     inkscape:connector-curvature="0"
     id="path2"
     d="m 256,296.081 c 72.145,0 125.704,-26.969 141.309,-38.809 6.043,-4.585 8.088,-12.643 4.902,-19.527 -4.533,-9.796 -9.937,-27.093 -9.937,-53.89 V 143.774 C 392.274,68.512 331.262,7.5 256,7.5 v 0 0 0 0 c -75.262,0 -136.274,61.012 -136.274,136.274 v 40.081 c 0,26.796 -5.404,44.093 -9.937,53.89 -3.186,6.884 -1.141,14.942 4.902,19.527 15.605,11.84 69.164,38.809 141.309,38.809 z"
     style="fill:#a06e50" /><rect
     id="rect4"
     height="96.190002"
     width="112.23"
     style="fill:#f7d291"
     y="264.01999"
     x="199.89" /><path
     inkscape:connector-curvature="0"
     id="path6"
     d="m 199.887,305.948 c 16.842,8.996 35.938,14.181 56.113,14.181 20.175,0 39.271,-5.185 56.113,-14.181 V 264.016 H 199.887 Z"
     style="fill:#f0c382" /><path
     inkscape:connector-curvature="0"
     id="path8-3"
     d="m 372.626,159.806 h -8.51 c -6.919,0 -12.209,-5.822 -11.978,-12.737 1.128,-33.706 -15.116,-63.644 -40.447,-81.654 -7.18,-5.105 -17.369,-3.208 -22.206,4.155 -7.157,10.895 -19.474,18.091 -33.485,18.091 -14.011,0 -26.328,-7.196 -33.484,-18.091 -4.837,-7.363 -15.027,-9.26 -22.206,-4.155 -25.331,18.01 -41.575,47.948 -40.447,81.654 0.231,6.915 -5.059,12.737 -11.978,12.737 h -8.219 c -11.068,0 -20.04,8.972 -20.04,20.04 0,11.068 8.972,20.04 20.04,20.04 h 12.53 c 4.106,53.795 48.957,96.194 103.805,96.194 54.848,0 99.699,-42.398 103.805,-96.194 h 12.822 c 11.068,0 20.04,-8.973 20.04,-20.04 -0.001,-11.067 -8.973,-20.04 -20.042,-20.04 z"
     style="fill:#ffe1a0" /><path
     inkscape:connector-curvature="0"
     id="path10-8"
     d="M 183.855,191.871 V 80.303 c -15.61,17.689 -24.851,41.117 -23.993,66.767 0.231,6.915 -5.059,12.737 -11.978,12.737 h -8.218 c -11.068,0 -20.04,8.972 -20.04,20.04 0,11.068 8.972,20.04 20.04,20.04 h 12.529 c 4.106,53.795 48.957,96.194 103.805,96.194 5.483,0 10.83,-0.534 16.083,-1.351 -49.947,-7.708 -88.228,-50.755 -88.228,-102.859 z"
     style="fill:#f7d291" /><path
     inkscape:connector-curvature="0"
     id="path12-2"
     d="m 403.117,362.313 -58.945,-18.136 -88.172,8.017 -88.181,-8.013 -58.936,18.133 c -26.908,8.279 -45.271,33.14 -45.271,61.293 V 504.5 h 384.774 v -80.893 c 10e-4,-28.154 -18.361,-53.015 -45.269,-61.294 z"
     style="fill:#b67f5f" /><path
     inkscape:connector-curvature="0"
     id="path14"
     d="m 256,312.113 v 0 c -4.841,0 -9.195,-2.948 -10.993,-7.443 l -13.055,-32.638 h 48.097 l -13.055,32.638 c -1.799,4.495 -6.153,7.443 -10.994,7.443 z"
     style="fill:#a06e50" /><path
     inkscape:connector-curvature="0"
     id="path16"
     d="m 272.032,256 h -32.065 c -8.854,0 -16.032,-7.178 -16.032,-16.032 v -16.032 h 64.129 v 16.032 C 288.065,248.822 280.887,256 272.032,256 Z"
     style="fill:#f0c382" /><g
     id="g24"><path
       inkscape:connector-curvature="0"
       id="path18"
       d="m 202.047,419.957 c 7.64,0 15.047,-2.742 20.854,-7.72 l 33.099,-28.37 33.099,28.37 c 5.807,4.978 13.214,7.72 20.855,7.72 11.484,0 22.156,-6.191 27.85,-16.156 l 27.253,-47.692 1.783,-3.121 0.892,-1.562 -23.561,-7.249 -88.171,8.017 -88.181,-8.014 -23.551,7.247 0.891,1.561 1.784,3.121 27.252,47.691 c 5.697,9.966 16.369,16.157 27.852,16.157 z"
       style="fill:#a06e50" /><path
       inkscape:connector-curvature="0"
       id="path20"
       d="m 256,215.919 h -24.048 c -13.282,0 -24.048,10.767 -24.048,24.048 v 0 h 24.048 C 245.233,239.968 256,229.201 256,215.919 v 0"
       style="fill:#a06e50" /><path
       inkscape:connector-curvature="0"
       id="path22-5"
       d="m 256,215.919 h 24.048 c 13.282,0 24.048,10.767 24.048,24.048 v 0 H 280.048 C 266.767,239.968 256,229.201 256,215.919 v 0"
       style="fill:#a06e50" /></g><g
     id="g30"><path
       inkscape:connector-curvature="0"
       id="path26-7"
       d="m 191.173,316.179 c -3.989,-2.216 -9.022,-0.66 -11.063,3.422 l -12.288,24.576 27.252,47.691 c 2.497,4.37 8.356,5.384 12.177,2.109 L 256,352.194 Z"
       style="fill:#cd916e" /><path
       inkscape:connector-curvature="0"
       id="path28-6"
       d="m 320.827,316.179 c 3.989,-2.216 9.022,-0.66 11.063,3.422 l 12.288,24.576 -27.252,47.691 c -2.497,4.37 -8.356,5.384 -12.177,2.109 L 256,352.194 Z"
       style="fill:#cd916e" /></g><path
     inkscape:connector-curvature="0"
     id="path32"
     d="m 215.403,175.839 v -8.016 c 0,-4.142 -3.357,-7.5 -7.5,-7.5 -4.143,0 -7.5,3.358 -7.5,7.5 v 8.016 c 0,4.142 3.357,7.5 7.5,7.5 4.143,0 7.5,-3.358 7.5,-7.5 z" /><path
     inkscape:connector-curvature="0"
     id="path34"
     d="m 304.097,160.323 c -4.143,0 -7.5,3.358 -7.5,7.5 v 8.016 c 0,4.142 3.357,7.5 7.5,7.5 4.143,0 7.5,-3.358 7.5,-7.5 v -8.016 c 0,-4.142 -3.358,-7.5 -7.5,-7.5 z" /><path
     inkscape:connector-curvature="0"
     id="path36"
     d="m 199.887,151.274 h 16.032 c 4.143,0 7.5,-3.358 7.5,-7.5 0,-4.142 -3.357,-7.5 -7.5,-7.5 h -16.032 c -4.143,0 -7.5,3.358 -7.5,7.5 0,4.142 3.357,7.5 7.5,7.5 z" /><path
     inkscape:connector-curvature="0"
     id="path38"
     d="m 296.081,151.274 h 16.032 c 4.143,0 7.5,-3.358 7.5,-7.5 0,-4.142 -3.357,-7.5 -7.5,-7.5 h -16.032 c -4.143,0 -7.5,3.358 -7.5,7.5 0,4.142 3.357,7.5 7.5,7.5 z" /><path
     inkscape:connector-curvature="0"
     id="path40"
     d="m 415.978,358.892 -65.722,-19.33 -11.657,-23.315 c -1.883,-3.766 -5.27,-6.639 -9.291,-7.884 -3.173,-0.981 -6.585,-0.888 -9.693,0.191 v -13.216 c 37.497,-2.244 67.302,-20.767 82.229,-32.092 8.904,-6.756 11.855,-18.539 7.176,-28.652 -4.217,-9.112 -9.243,-25.311 -9.243,-50.739 V 143.774 C 399.774,64.497 335.277,0 256,0 176.723,0 112.226,64.497 112.226,143.774 v 40.081 c 0,25.428 -5.026,41.627 -9.243,50.74 -4.68,10.113 -1.729,21.896 7.176,28.652 14.926,11.324 44.732,29.847 82.229,32.091 v 13.217 c -3.109,-1.079 -6.521,-1.173 -9.693,-0.192 -4.021,1.245 -7.408,4.118 -9.291,7.884 l -11.657,23.315 -65.723,19.331 c -23.498,6.911 -39.909,28.845 -39.909,53.338 v 92.27 c 0,4.142 3.357,7.5 7.5,7.5 4.143,0 7.5,-3.358 7.5,-7.5 v -92.27 c 0,-7.386 2.048,-14.451 5.656,-20.559 l 42.91,36.78 c 5.451,4.673 8.578,11.471 8.578,18.651 V 504.5 c 0,4.142 3.357,7.5 7.5,7.5 4.143,0 7.5,-3.358 7.5,-7.5 v -57.397 c 0,-11.565 -5.036,-22.514 -13.816,-30.04 L 86.628,380.364 c 3.98,-3.154 8.577,-5.596 13.628,-7.082 l 64.689,-19.026 23.619,41.333 c 2.303,4.031 6.248,6.798 10.822,7.591 0.89,0.154 1.782,0.23 2.668,0.23 3.672,0 7.239,-1.303 10.08,-3.737 v 0 L 256,362.071 l 43.867,37.602 c 2.841,2.434 6.408,3.737 10.08,3.737 0.886,0 1.778,-0.076 2.668,-0.23 4.574,-0.793 8.52,-3.56 10.821,-7.59 l 23.62,-41.333 64.689,19.026 c 5.051,1.485 9.648,3.927 13.628,7.082 l -42.815,36.699 c -8.78,7.526 -13.816,18.475 -13.816,30.04 V 504.5 c 0,4.142 3.357,7.5 7.5,7.5 4.143,0 7.5,-3.358 7.5,-7.5 v -57.397 c 0,-7.18 3.127,-13.978 8.578,-18.651 l 42.91,-36.78 c 3.608,6.108 5.656,13.172 5.656,20.559 v 92.27 c 0,4.142 3.357,7.5 7.5,7.5 4.143,0 7.5,-3.358 7.5,-7.5 v -92.27 c 10e-4,-24.494 -16.41,-46.428 -39.908,-53.339 z M 392.775,251.297 c -12.699,9.635 -37.236,25.018 -67.955,28.53 5.729,-4.485 11.06,-9.524 15.866,-15.106 14.023,-16.289 22.977,-36.23 25.937,-57.334 h 4.468 c 5.32,0 10.361,-1.444 14.693,-3.943 1.867,17.4 6.002,29.632 9.62,37.45 1.696,3.664 0.615,7.942 -2.629,10.403 z M 256,15 c 71.007,0 128.774,57.768 128.774,128.774 v 11.562 c -3.846,-1.967 -8.141,-3.029 -12.541,-3.029 h -4.008 c -2.281,0 -4.429,-0.884 -6.045,-2.489 -1.605,-1.594 -2.489,-3.71 -2.487,-5.958 0.027,-33.492 -16.294,-65.103 -43.658,-84.558 -5.079,-3.612 -11.544,-5.015 -17.729,-3.853 -6.177,1.161 -11.677,4.806 -15.09,10.002 -6.05,9.21 -16.224,14.709 -27.217,14.709 -10.993,0 -21.167,-5.499 -27.217,-14.71 -3.413,-5.196 -8.913,-8.841 -15.09,-10.002 -6.185,-1.162 -12.648,0.241 -17.729,3.853 -5.258,3.738 -10.195,7.99 -14.673,12.638 -2.874,2.983 -2.786,7.731 0.196,10.605 2.982,2.874 7.731,2.786 10.604,-0.197 3.835,-3.979 8.062,-7.62 12.563,-10.821 1.803,-1.281 4.029,-1.757 6.267,-1.335 2.228,0.418 4.117,1.66 5.323,3.495 8.831,13.447 23.692,21.475 39.754,21.475 16.062,0 30.923,-8.028 39.754,-21.475 1.206,-1.835 3.096,-3.077 5.323,-3.495 2.232,-0.422 4.462,0.053 6.267,1.336 23.41,16.644 37.373,43.679 37.35,72.321 -0.005,6.279 2.452,12.18 6.919,16.614 4.445,4.414 10.346,6.844 16.613,6.844 h 4.008 c 3.537,0 6.928,1.505 9.304,4.131 2.406,2.659 3.532,6.114 3.17,9.728 -0.63,6.292 -6.61,11.222 -13.616,11.222 h -3.385 v -0.439 c 0,-4.141 -3.356,-7.499 -7.497,-7.5 -10e-4,0 -0.002,0 -0.003,0 -4.14,0 -7.497,3.354 -7.5,7.495 -0.017,23.123 -8.322,45.494 -23.387,62.992 -12.289,14.274 -28.422,24.592 -46.271,29.794 l 3.965,-9.911 c 0.924,-2.311 0.642,-4.93 -0.753,-6.99 -1.396,-2.061 -3.723,-3.295 -6.211,-3.295 h -48.098 c -2.488,0 -4.815,1.234 -6.211,3.295 -1.395,2.061 -1.677,4.68 -0.753,6.99 l 3.969,9.921 c -17.674,-5.147 -33.659,-15.311 -45.919,-29.39 -15.313,-17.585 -23.747,-40.129 -23.747,-63.479 0,-4.142 -3.357,-7.5 -7.5,-7.5 -4.143,0 -7.5,3.358 -7.5,7.5 v 0.516 h -4.523 c -3.537,0 -6.928,-1.505 -9.303,-4.13 -2.407,-2.66 -3.533,-6.116 -3.171,-9.73 0.63,-6.292 6.612,-11.22 13.618,-11.22 h 2.863 c 6.269,0 12.168,-2.431 16.613,-6.844 4.468,-4.435 6.925,-10.336 6.919,-16.615 -0.011,-12.923 2.699,-25.377 8.055,-37.018 1.731,-3.763 0.084,-8.217 -3.679,-9.948 -3.766,-1.731 -8.218,-0.084 -9.948,3.679 -6.269,13.624 -9.44,28.192 -9.428,43.3 0.002,2.247 -0.881,4.363 -2.487,5.958 -1.616,1.605 -3.763,2.489 -6.045,2.489 h -2.863 c -4.912,0 -9.587,1.231 -13.686,3.386 V 143.774 C 127.226,72.768 184.993,15 256,15 Z m -12.971,264.532 h 25.941 l -8.941,22.353 c -0.662,1.657 -2.244,2.728 -4.029,2.728 -1.785,0 -3.367,-1.071 -4.029,-2.729 z M 116.596,240.894 c 3.594,-7.766 7.697,-19.888 9.581,-37.102 4.106,2.328 8.786,3.595 13.59,3.595 h 5.604 c 2.987,21.318 12.085,41.428 26.354,57.813 4.697,5.394 9.88,10.272 15.439,14.626 -30.712,-3.516 -55.243,-18.895 -67.94,-28.528 -3.243,-2.462 -4.324,-6.74 -2.628,-10.404 z m 85.775,147.389 c -0.051,0.044 -0.182,0.16 -0.425,0.117 -0.238,-0.042 -0.323,-0.188 -0.359,-0.252 l -25.262,-44.207 10.493,-20.986 c 0.024,-0.049 0.099,-0.197 0.31,-0.262 0.213,-0.064 0.356,0.016 0.403,0.042 l 55.403,30.78 z m 108.041,-0.135 c -0.035,0.063 -0.12,0.21 -0.358,0.251 -0.241,0.043 -0.374,-0.073 -0.425,-0.116 l -40.563,-34.769 6.612,-3.673 c 3.62,-2.012 4.925,-6.578 2.914,-10.198 -2.012,-3.622 -6.578,-4.925 -10.199,-2.914 L 256,343.614 207.387,316.607 V 292.45 c 8.953,4.334 18.489,7.468 28.366,9.28 l 2.291,5.726 c 2.954,7.385 10.002,12.158 17.957,12.158 7.955,0 15.003,-4.772 17.957,-12.157 l 2.294,-5.736 c 9.875,-1.812 19.408,-4.951 28.362,-9.287 v 24.174 l -8.926,4.959 c -3.621,2.012 -4.925,6.578 -2.913,10.199 2.012,3.621 6.579,4.926 10.198,2.914 l 21.495,-11.942 c 0.049,-0.027 0.195,-0.107 0.404,-0.042 0.211,0.065 0.285,0.213 0.31,0.262 l 10.493,20.986 z" /><path
     inkscape:connector-curvature="0"
     id="path42"
     d="M 256.08,416.839 H 256 c -4.143,0 -7.46,3.358 -7.46,7.5 0,4.142 3.397,7.5 7.54,7.5 4.143,0 7.5,-3.358 7.5,-7.5 0,-4.142 -3.357,-7.5 -7.5,-7.5 z" /><path
     inkscape:connector-curvature="0"
     id="path44"
     d="M 256.08,472.952 H 256 c -4.143,0 -7.46,3.358 -7.46,7.5 0,4.142 3.397,7.5 7.54,7.5 4.143,0 7.5,-3.358 7.5,-7.5 0,-4.142 -3.357,-7.5 -7.5,-7.5 z" /><path
     inkscape:connector-curvature="0"
     id="path46"
     d="m 200.403,239.968 v 8.016 c 0,4.142 3.357,7.5 7.5,7.5 4.143,0 7.5,-3.358 7.5,-7.5 v -0.516 h 16.548 c 9.628,0 18.257,-4.34 24.049,-11.161 5.792,6.821 14.42,11.161 24.049,11.161 h 16.548 v 0.516 c 0,4.142 3.357,7.5 7.5,7.5 4.143,0 7.5,-3.358 7.5,-7.5 v -8.016 c 0,-17.396 -14.152,-31.548 -31.548,-31.548 h -48.098 c -17.395,-10e-4 -31.548,14.152 -31.548,31.548 z m 79.646,-16.549 c 6.427,0 12.01,3.682 14.749,9.048 h -14.749 c -6.427,0 -12.01,-3.682 -14.75,-9.048 z m -48.098,0 h 14.75 c -2.74,5.366 -8.323,9.048 -14.75,9.048 h -14.749 c 2.739,-5.365 8.322,-9.048 14.749,-9.048 z" /></g></g></svg>