<?xml version="1.0" encoding="UTF-8" standalone="no"?>
<!-- Generator: Adobe Illustrator 19.0.0, SVG Export Plug-In . SVG Version: 6.00 Build 0)  -->

<svg
   xmlns:osb="http://www.openswatchbook.org/uri/2009/osb"
   xmlns:dc="http://purl.org/dc/elements/1.1/"
   xmlns:cc="http://creativecommons.org/ns#"
   xmlns:rdf="http://www.w3.org/1999/02/22-rdf-syntax-ns#"
   xmlns:svg="http://www.w3.org/2000/svg"
   xmlns="http://www.w3.org/2000/svg"
   xmlns:xlink="http://www.w3.org/1999/xlink"
   xmlns:sodipodi="http://sodipodi.sourceforge.net/DTD/sodipodi-0.dtd"
   xmlns:inkscape="http://www.inkscape.org/namespaces/inkscape"
   version="1.1"
   id="Capa_1"
   x="0px"
   y="0px"
   viewBox="0 0 511.999 511.999"
   style="enable-background:new 0 0 511.999 511.999;"
   xml:space="preserve"
   sodipodi:docname="34.svg"
   inkscape:version="0.92.4 (5da689c313, 2019-01-14)"><metadata
   id="metadata95"><rdf:RDF><cc:Work
       rdf:about=""><dc:format>image/svg+xml</dc:format><dc:type
         rdf:resource="http://purl.org/dc/dcmitype/StillImage" /><dc:title /></cc:Work></rdf:RDF></metadata><defs
   id="defs93"><linearGradient
     id="linearGradient2457"
     osb:paint="solid"><stop
       style="stop-color:#000000;stop-opacity:1;"
       offset="0"
       id="stop2455" /></linearGradient><linearGradient
     inkscape:collect="always"
     xlink:href="#linearGradient2457"
     id="linearGradient2459-6-2"
     x1="1442.3572"
     y1="-339.5119"
     x2="1514.9286"
     y2="-339.5119"
     gradientUnits="userSpaceOnUse"
     gradientTransform="matrix(6.4669274,0,0,9.6773016,-9356.1743,3517.6929)" /></defs><sodipodi:namedview
   pagecolor="#ffffff"
   bordercolor="#666666"
   borderopacity="1"
   objecttolerance="10"
   gridtolerance="10"
   guidetolerance="10"
   inkscape:pageopacity="0"
   inkscape:pageshadow="2"
   inkscape:window-width="1920"
   inkscape:window-height="986"
   id="namedview91"
   showgrid="false"
   inkscape:zoom="1.3037307"
   inkscape:cx="266.57"
   inkscape:cy="256.72862"
   inkscape:window-x="-11"
   inkscape:window-y="-11"
   inkscape:window-maximized="1"
   inkscape:current-layer="g1046" />























<g
   id="g60">
</g>
<g
   id="g62">
</g>
<g
   id="g64">
</g>
<g
   id="g66">
</g>
<g
   id="g68">
</g>
<g
   id="g70">
</g>
<g
   id="g72">
</g>
<g
   id="g74">
</g>
<g
   id="g76">
</g>
<g
   id="g78">
</g>
<g
   id="g80">
</g>
<g
   id="g82">
</g>
<g
   id="g84">
</g>
<g
   id="g86">
</g>
<g
   id="g88">
</g>
<g
   id="g1046"
   transform="matrix(0.55886315,0,0,0.55886315,157.54779,132.77619)"><rect
   y="-104.38158"
   x="-28.555799"
   height="673.03345"
   width="469.31418"
   id="rect2447-0-9"
   style="display:inline;fill:none;fill-opacity:1;stroke:url(#linearGradient2459-6-2);stroke-width:25.31489563;stroke-miterlimit:4;stroke-dasharray:none;stroke-opacity:1" /><text
   id="text2485-9"
   y="522.54254"
   x="57.49501"
   style="font-style:normal;font-weight:normal;font-size:76.99105835px;line-height:1.25;font-family:sans-serif;letter-spacing:0px;word-spacing:0px;display:inline;fill:#000000;fill-opacity:1;stroke:none;stroke-width:1.9247762"
   xml:space="preserve"><tspan
     style="stroke-width:1.9247762"
     y="522.54254"
     x="57.49501"
     id="tspan2483-7"
     sodipodi:role="line">YASMIN</tspan></text>






<g
   transform="matrix(0.95681138,0,0,0.95681138,-38.84338,-49.63775)"
   id="g904"><path
     inkscape:connector-curvature="0"
     id="path2"
     d="m 353.699,270.028 c -6.012,-27.555 -1.503,-62.125 -1.503,-62.125 h -56.113 v 176.355 h 96.194 0.334 c -5.845,-43.087 -30.443,-75.413 -38.912,-114.23 z"
     style="fill:#5a4650" /><path
     inkscape:connector-curvature="0"
     id="path4"
     d="m 408.284,388.965 -82.792,-29.221 c -12.82,-4.525 -21.393,-16.642 -21.393,-30.237 v -49.459 h -96.194 v 49.459 c 0,13.595 -8.573,25.712 -21.393,30.236 l -82.793,29.221 C 84.49,395.751 71.63,413.926 71.63,434.318 V 504.5 h 368.742 v -70.181 c 0.002,-20.392 -12.858,-38.567 -32.088,-45.354 z"
     style="fill:#b67f5f" /><path
     inkscape:connector-curvature="0"
     id="path6-8"
     d="m 325.247,359.635 c 0.085,0.031 0.16,0.079 0.245,0.109 l 82.793,29.221 c 19.23,6.787 32.089,24.962 32.089,45.354 V 504.5 H 159.809 C 270.099,454.97 314.273,381.156 325.247,359.635 Z"
     style="fill:#ff8087" /><path
     inkscape:connector-curvature="0"
     id="path8"
     d="m 186.757,359.635 c -0.085,0.031 -0.16,0.079 -0.245,0.109 l -82.793,29.221 C 84.49,395.752 71.63,413.927 71.63,434.319 V 504.5 H 352.195 C 241.905,454.97 197.731,381.156 186.757,359.635 Z"
     style="fill:#ffd164" /><path
     inkscape:connector-curvature="0"
     id="path10"
     d="m 207.905,318.225 c 14.753,6.391 31.02,9.92 48.097,9.92 17.077,0 33.344,-3.529 48.097,-9.92 v -38.177 h -96.194 z"
     style="fill:#a06e50" /><circle
     id="circle12"
     r="32.060001"
     cy="256"
     cx="151.791"
     style="fill:#ffe17d" /><circle
     id="circle14"
     r="8.0200005"
     cy="256"
     cx="151.791"
     style="fill:#ffd164" /><circle
     id="circle16"
     r="32.060001"
     cy="256"
     cx="360.211"
     style="fill:#ffe17d" /><circle
     id="circle18"
     r="8.0200005"
     cy="256"
     cx="360.211"
     style="fill:#ffd164" /><path
     inkscape:connector-curvature="0"
     id="path20"
     d="m 256.003,7.5 c -70.835,0 -128.258,57.423 -128.258,128.258 v 60.121 H 384.26 V 135.758 C 384.26,64.923 326.837,7.5 256.003,7.5 Z"
     style="fill:#5a4650" /><path
     inkscape:connector-curvature="0"
     id="path22"
     d="m 372.236,175.839 h -8.016 c 0,0 -10.734,-1.293 -14.018,-2.202 -18.212,-5.043 -57.641,-20.789 -87.51,-66.825 -3.147,-4.851 -10.232,-4.851 -13.378,0 -29.869,46.036 -69.298,61.782 -87.51,66.825 -3.284,0.909 -14.018,2.202 -14.018,2.202 h -8.016 c -11.068,0 -20.04,8.972 -20.04,20.04 0,11.068 8.972,20.04 20.04,20.04 h 13.382 c 7.73,49.921 50.764,88.177 102.851,88.177 52.087,0 95.121,-38.256 102.851,-88.177 h 13.382 c 11.068,0 20.04,-8.973 20.04,-20.04 0,-11.068 -8.971,-20.04 -20.04,-20.04 z"
     style="fill:#cd916e" /><path
     inkscape:connector-curvature="0"
     id="path24"
     d="m 262.715,106.848 c -3.157,-4.863 -10.266,-4.867 -13.423,-0.004 -20.637,31.793 -45.826,49.122 -65.435,58.466 -8.77,4.178 -16.428,6.769 -22.054,8.326 -3.284,0.909 -14.018,2.202 -14.018,2.202 h -6.872 c -10.483,0 -20.036,7.542 -21.081,17.973 -1.202,11.996 8.186,22.108 19.937,22.108 h 9.159 4.223 c 7.73,49.921 50.764,88.177 102.851,88.177 5.505,0 10.881,-0.517 16.154,-1.34 -48.105,-7.389 -85.406,-47.559 -88.138,-97.041 -0.059,-1.073 -0.108,-2.078 -0.147,-3.018 -0.274,-6.537 3.391,-12.478 9.309,-15.268 18.5,-8.72 41.815,-23.719 62.822,-49.147 21.166,25.618 44.686,40.664 63.258,49.36 13.745,6.436 24.92,-0.655 24.92,-15.832 v -0.03 c -19.912,-6.616 -54.541,-23.457 -81.465,-64.932 z"
     style="fill:#b67f5f" /><path
     inkscape:connector-curvature="0"
     id="path26"
     d="m 219.929,227.915 c 0,17.708 16.15,32.064 36.073,32.064 19.923,0 36.073,-14.356 36.073,-32.064 z"
     style="fill:#ffffff" /><path
     inkscape:connector-curvature="0"
     id="path28"
     d="m 279.24,9.707 c -4.593,11.751 -7.205,24.496 -7.205,37.874 0,57.553 46.656,104.21 104.21,104.21 2.706,0 5.362,-0.203 8.016,-0.405 V 135.758 C 384.26,72.869 338.965,20.654 279.24,9.707 Z"
     style="fill:#64505a" /><path
     inkscape:connector-curvature="0"
     id="path30"
     d="m 360.212,175.322 v 3.019 c 1.364,-0.772 2.718,-1.568 4.008,-2.502 0,0 -1.738,-0.211 -4.008,-0.517 z"
     style="fill:#b67f5f" /><path
     inkscape:connector-curvature="0"
     id="path32-4"
     d="m 215.405,191.871 v -8.016 c 0,-4.142 -3.357,-7.5 -7.5,-7.5 -4.143,0 -7.5,3.358 -7.5,7.5 v 8.016 c 0,4.142 3.357,7.5 7.5,7.5 4.143,0 7.5,-3.358 7.5,-7.5 z" /><path
     inkscape:connector-curvature="0"
     id="path34-0"
     d="m 304.099,199.371 c 4.143,0 7.5,-3.358 7.5,-7.5 v -8.016 c 0,-4.142 -3.357,-7.5 -7.5,-7.5 -4.143,0 -7.5,3.358 -7.5,7.5 v 8.016 c 0,4.142 3.357,7.5 7.5,7.5 z" /><path
     inkscape:connector-curvature="0"
     id="path36"
     d="m 410.78,381.892 -11.206,-3.955 c -4.89,-26.472 -12.239,-40.328 -18.746,-52.591 -4.978,-9.381 -9.372,-17.696 -11.96,-30.747 17.665,-3.96 30.908,-19.757 30.908,-38.599 0,-14.484 -7.828,-27.168 -19.471,-34.063 10.363,-3.422 18.246,-12.417 19.329,-23.245 0.778,-7.771 -1.764,-15.53 -6.974,-21.288 -0.291,-0.322 -0.597,-0.627 -0.901,-0.933 V 135.757 C 391.76,60.901 330.859,0 256.003,0 181.147,0 120.244,60.901 120.244,135.758 v 40.702 c -0.306,0.308 -0.609,0.621 -0.901,0.945 -5.21,5.758 -7.752,13.517 -6.974,21.287 1.084,10.828 8.966,19.823 19.329,23.245 -11.643,6.895 -19.471,19.579 -19.471,34.063 0,21.816 17.749,39.564 39.564,39.564 11.198,0 21.784,-4.805 29.203,-12.904 6,5.441 12.508,10.169 19.41,14.136 v 32.71 c 0,10.395 -6.586,19.704 -16.389,23.164 l -82.793,29.221 c -22.187,7.831 -37.093,28.899 -37.093,52.427 v 70.18 c 0,4.142 3.357,7.5 7.5,7.5 4.143,0 7.5,-3.358 7.5,-7.5 v -70.18 c 0,-17.18 10.885,-32.564 27.085,-38.282 l 21.718,-7.665 c 4.057,23.252 8.467,47.443 13.366,69.65 0.772,3.501 3.874,5.886 7.317,5.886 0.535,0 1.078,-0.058 1.623,-0.178 4.044,-0.892 6.6,-4.895 5.708,-8.94 -5.011,-22.714 -9.527,-47.647 -13.673,-71.48 l 11.368,-4.012 c 14.248,46.518 32.05,97.397 56.28,129.703 1.474,1.965 3.726,3 6.006,3 1.565,0 3.146,-0.489 4.494,-1.5 3.313,-2.485 3.985,-7.187 1.5,-10.5 -25.597,-34.13 -44.944,-95.524 -54.124,-125.698 l 14.901,-5.259 c 4.637,8.875 14.822,26.183 32.901,46.96 23.669,27.199 66.059,65.823 133.59,95.368 0.979,0.428 1.998,0.631 3.002,0.631 2.889,0 5.643,-1.68 6.875,-4.496 1.66,-3.795 -0.07,-8.217 -3.865,-9.877 -38.462,-16.828 -68.389,-36.661 -91.088,-55.414 38.807,-31.929 57.963,-61.019 64.962,-73.252 l 15.117,5.335 c -8.279,26.72 -17.374,50.688 -27.063,71.29 -1.763,3.748 -0.153,8.216 3.596,9.979 1.031,0.485 2.117,0.715 3.187,0.715 2.815,0 5.515,-1.593 6.792,-4.31 9.916,-21.085 19.207,-45.514 27.645,-72.677 l 47.439,16.743 c 16.2,5.718 27.085,21.102 27.085,38.282 v 70.18 c 0,4.142 3.357,7.5 7.5,7.5 4.143,0 7.5,-3.358 7.5,-7.5 v -70.18 c 0.001,-23.528 -14.906,-44.597 -37.093,-52.428 z M 384.776,256 c 0,13.545 -11.02,24.564 -24.564,24.564 -7.272,0 -14.13,-3.265 -18.757,-8.722 9.975,-11.823 17.338,-25.504 21.686,-40.226 12.169,1.454 21.635,11.831 21.635,24.384 z M 135.244,135.758 c 0,-66.821 54.555,-121.14 121.464,-120.756 66.635,0.383 120.052,55.449 120.052,122.084 v 31.252 h -9.875 c -5.118,0 -10.058,-0.649 -14.683,-1.93 -16.442,-4.552 -56.658,-20.139 -85.822,-67.856 -1.901,-3.11 -2.878,-6.7 -2.878,-10.344 V 71.943 c 0,-4.107 -3.165,-7.688 -7.27,-7.811 -4.248,-0.127 -7.73,3.278 -7.73,7.497 v 16.579 c 0,3.645 -0.978,7.235 -2.878,10.344 -29.164,47.717 -69.381,63.304 -85.822,67.856 -4.625,1.281 -9.564,1.93 -14.683,1.93 h -5.351 c -1.526,0 -3.038,0.132 -4.524,0.381 z m 16.548,144.806 c -13.545,0 -24.564,-11.02 -24.564,-24.564 0,-12.553 9.467,-22.93 21.635,-24.384 4.348,14.721 11.711,28.403 21.686,40.226 -4.627,5.457 -11.485,8.722 -18.757,8.722 z m 38.33,-9.877 c -17.856,-16.623 -28.705,-39.124 -30.548,-63.356 -0.314,-4.13 -3.915,-7.222 -8.047,-6.91 -4.114,0.313 -7.197,3.889 -6.911,7.998 h -3.705 c -7.006,0 -12.986,-4.929 -13.616,-11.221 -0.362,-3.614 0.764,-7.069 3.171,-9.729 2.375,-2.625 5.766,-4.131 9.303,-4.131 h 5.351 c 6.471,0 12.757,-0.832 18.685,-2.474 17.739,-4.912 60.466,-21.346 92.198,-70.595 31.732,49.249 74.459,65.683 92.198,70.595 5.928,1.641 12.214,2.474 18.685,2.474 h 5.351 c 3.537,0 6.928,1.506 9.303,4.131 2.407,2.66 3.533,6.115 3.171,9.729 -0.63,6.292 -6.61,11.221 -13.616,11.221 h -3.705 c 0.284,-4.108 -2.799,-7.681 -6.911,-7.994 -4.159,-0.317 -7.733,2.78 -8.048,6.909 -1.844,24.232 -12.692,46.731 -30.549,63.354 -17.947,16.707 -41.344,25.908 -65.879,25.908 -24.537,10e-4 -47.934,-9.201 -65.881,-25.909 z m 62.481,161.569 c -10.097,-9.139 -18.452,-17.825 -25.199,-25.539 -16.637,-19.02 -26.293,-35.089 -30.817,-43.532 11.509,-7.101 18.818,-19.784 18.818,-33.678 v -25.521 c 12.804,4.992 26.538,7.611 40.597,7.611 14.059,0 27.793,-2.619 40.597,-7.611 v 25.521 c 0,13.79 7.2,26.388 18.56,33.518 -7.136,12.042 -25.823,39.453 -62.556,69.231 z m 75.384,-79.584 c -9.803,-3.46 -16.389,-12.769 -16.389,-23.164 v -32.71 c 6.902,-3.967 13.41,-8.695 19.411,-14.136 5.956,6.501 13.954,10.864 22.673,12.335 2.91,16.64 8.258,26.757 13.896,37.381 5.499,10.363 11.156,21.03 15.475,39.729 z" /><path
     inkscape:connector-curvature="0"
     id="path38-8"
     d="m 163.757,486.439 c -1.121,-3.988 -5.261,-6.313 -9.25,-5.191 -3.987,1.121 -6.312,5.262 -5.191,9.25 1.686,5.996 3.391,11.523 5.067,16.429 1.065,3.116 3.978,5.076 7.096,5.076 0.805,0 1.623,-0.13 2.427,-0.405 3.92,-1.34 6.011,-5.604 4.671,-9.523 -1.59,-4.646 -3.211,-9.906 -4.82,-15.636 z" /><path
     inkscape:connector-curvature="0"
     id="path40"
     d="m 299.574,227.915 c 0,-4.142 -3.357,-7.5 -7.5,-7.5 H 219.93 c -4.143,0 -7.5,3.358 -7.5,7.5 0,21.816 19.547,39.564 43.572,39.564 24.025,0 43.572,-17.748 43.572,-39.564 z m -70.783,7.5 h 54.422 c -3.696,9.889 -14.497,17.064 -27.211,17.064 -12.714,0 -23.515,-7.175 -27.211,-17.064 z" /></g></g></svg>