<?xml version="1.0" encoding="UTF-8" standalone="no"?>
<!-- Generator: Adobe Illustrator 19.0.0, SVG Export Plug-In . SVG Version: 6.00 Build 0)  -->

<svg
   xmlns:osb="http://www.openswatchbook.org/uri/2009/osb"
   xmlns:dc="http://purl.org/dc/elements/1.1/"
   xmlns:cc="http://creativecommons.org/ns#"
   xmlns:rdf="http://www.w3.org/1999/02/22-rdf-syntax-ns#"
   xmlns:svg="http://www.w3.org/2000/svg"
   xmlns="http://www.w3.org/2000/svg"
   xmlns:xlink="http://www.w3.org/1999/xlink"
   xmlns:sodipodi="http://sodipodi.sourceforge.net/DTD/sodipodi-0.dtd"
   xmlns:inkscape="http://www.inkscape.org/namespaces/inkscape"
   version="1.1"
   id="Capa_1"
   x="0px"
   y="0px"
   viewBox="0 0 511.999 511.999"
   style="enable-background:new 0 0 511.999 511.999;"
   xml:space="preserve"
   sodipodi:docname="37.svg"
   inkscape:version="0.92.4 (5da689c313, 2019-01-14)"><metadata
   id="metadata95"><rdf:RDF><cc:Work
       rdf:about=""><dc:format>image/svg+xml</dc:format><dc:type
         rdf:resource="http://purl.org/dc/dcmitype/StillImage" /><dc:title /></cc:Work></rdf:RDF></metadata><defs
   id="defs93"><linearGradient
     id="linearGradient2457"
     osb:paint="solid"><stop
       style="stop-color:#000000;stop-opacity:1;"
       offset="0"
       id="stop2455" /></linearGradient><linearGradient
     inkscape:collect="always"
     xlink:href="#linearGradient2457"
     id="linearGradient2459-6-2"
     x1="1442.3572"
     y1="-339.5119"
     x2="1514.9286"
     y2="-339.5119"
     gradientUnits="userSpaceOnUse"
     gradientTransform="matrix(6.4669274,0,0,9.6773016,-9356.1743,3517.6929)" /></defs><sodipodi:namedview
   pagecolor="#ffffff"
   bordercolor="#666666"
   borderopacity="1"
   objecttolerance="10"
   gridtolerance="10"
   guidetolerance="10"
   inkscape:pageopacity="0"
   inkscape:pageshadow="2"
   inkscape:window-width="1920"
   inkscape:window-height="986"
   id="namedview91"
   showgrid="false"
   inkscape:zoom="1.3037307"
   inkscape:cx="178.74512"
   inkscape:cy="256.72862"
   inkscape:window-x="-11"
   inkscape:window-y="-11"
   inkscape:window-maximized="1"
   inkscape:current-layer="g1046" />























<g
   id="g60">
</g>
<g
   id="g62">
</g>
<g
   id="g64">
</g>
<g
   id="g66">
</g>
<g
   id="g68">
</g>
<g
   id="g70">
</g>
<g
   id="g72">
</g>
<g
   id="g74">
</g>
<g
   id="g76">
</g>
<g
   id="g78">
</g>
<g
   id="g80">
</g>
<g
   id="g82">
</g>
<g
   id="g84">
</g>
<g
   id="g86">
</g>
<g
   id="g88">
</g>
<g
   id="g1046"
   transform="matrix(0.55886315,0,0,0.55886315,157.54779,132.77619)"><rect
   y="-104.38158"
   x="-28.555799"
   height="673.03345"
   width="469.31418"
   id="rect2447-0-9"
   style="display:inline;fill:none;fill-opacity:1;stroke:url(#linearGradient2459-6-2);stroke-width:25.31489563;stroke-miterlimit:4;stroke-dasharray:none;stroke-opacity:1" /><text
   id="text2485-9"
   y="522.54254"
   x="85.614799"
   style="font-style:normal;font-weight:normal;font-size:76.99105835px;line-height:1.25;font-family:sans-serif;letter-spacing:0px;word-spacing:0px;display:inline;fill:#000000;fill-opacity:1;stroke:none;stroke-width:1.9247762"
   xml:space="preserve"><tspan
     style="stroke-width:1.9247762"
     y="522.54254"
     x="85.614799"
     id="tspan2483-7"
     sodipodi:role="line">LEYLA</tspan></text>







<g
   transform="matrix(0.95299135,0,0,0.95299135,-37.864496,-46.751606)"
   id="g883"><path
     inkscape:connector-curvature="0"
     id="path2"
     d="M 408.102,380.913 325.31,351.692 H 186.331 l -82.793,29.221 C 84.309,387.7 71.45,405.876 71.45,426.268 V 504.5 h 368.742 v -78.231 c 0,-20.393 -12.86,-38.569 -32.09,-45.356 z"
     style="fill:#5a4650" /><path
     inkscape:connector-curvature="0"
     id="path4-6"
     d="m 371.432,334.267 c -12.142,-9.132 -19.418,-23.358 -19.418,-38.55 v -31.701 c 0,-88.177 -48.097,-200.403 -96.194,-200.403 -48.097,0 -96.194,112.226 -96.194,200.403 v 31.701 c 0,15.192 -7.276,29.418 -19.418,38.55 -13.093,9.847 -20.663,21.486 -20.663,33.959 0,35.417 34.449,104.21 136.274,104.21 101.825,0 136.274,-68.792 136.274,-104.21 0.002,-12.473 -7.568,-24.112 -20.661,-33.959 z"
     style="fill:#6e5a64" /><path
     inkscape:connector-curvature="0"
     id="path6"
     d="m 255.821,352.194 c -57.459,0 -104.21,-39.556 -104.21,-88.177 0,-48.621 46.75,-88.177 104.21,-88.177 57.46,0 104.21,39.556 104.21,88.177 0,48.621 -46.751,88.177 -104.21,88.177 z"
     style="fill:#5a4650" /><path
     inkscape:connector-curvature="0"
     id="path8-9"
     d="m 255.821,312.113 v 0 c -57.554,0 -104.21,-46.656 -104.21,-104.21 V 111.71 H 360.03 v 96.194 c 0,57.553 -46.656,104.209 -104.209,104.209 z"
     style="fill:#f5b97d" /><path
     inkscape:connector-curvature="0"
     id="path10-7"
     d="m 183.676,207.903 v -8.016 c 0,-35.417 28.712,-64.129 64.129,-64.129 H 360.03 V 111.71 H 151.611 v 96.194 c 0,57.553 46.656,104.21 104.21,104.21 5.467,0 10.793,-0.547 16.032,-1.359 -49.921,-7.73 -88.177,-50.765 -88.177,-102.852 z"
     style="fill:#e3aa75" /><path
     inkscape:connector-curvature="0"
     id="path12"
     d="M 399.005,256.273 391.983,139.237 C 387.81,69.692 333.416,11.744 263.862,7.732 188.258,3.371 124.356,60.953 119.881,135.527 l -7.245,120.746 c -4.744,79.067 55.375,146.121 133.155,151.507 -48.411,-5.017 -86.164,-45.929 -86.164,-95.667 0,-35.417 0,-40.081 0,-48.097 0,-88.177 48.097,-200.403 96.194,-200.403 48.097,0 96.194,112.226 96.194,200.403 v 77.686 c 0,10.772 13.893,15.499 20.204,6.77 18.608,-25.738 28.849,-57.812 26.786,-92.199 z"
     style="fill:#84737b" /><path
     inkscape:connector-curvature="0"
     id="path14"
     d="m 410.957,374.107 -11.385,-4.018 c 0.008,-0.482 0.023,-0.963 0.023,-1.446 0,-10.335 -3.105,-19.095 -9.468,-26.654 12.557,-33.883 17.515,-73.772 14.466,-118.476 l -4.988,-88.436 C 395.061,59.333 332.061,0 256.179,0 180.111,0 116.951,59.479 112.391,135.411 l -7.232,120.414 c -1.776,29.572 4.904,58.147 19.086,83.158 -8.092,8.354 -12.199,18.321 -12.199,29.661 0,0.525 0.016,1.048 0.025,1.572 l -11.028,3.892 C 78.815,381.953 63.95,402.963 63.95,426.535 v 77.651 c 0,4.106 3.164,7.688 7.269,7.811 4.247,0.127 7.731,-3.277 7.731,-7.497 v -77.966 c 0,-17.212 10.854,-32.554 27.085,-38.282 l 7.649,-2.7 c 1.77,9.042 4.968,17.852 9.576,26.334 1.359,2.502 3.936,3.92 6.597,3.92 1.554,0 3.139,-0.484 4.523,-1.521 3.002,-2.248 3.741,-6.448 1.959,-9.748 -6.166,-11.417 -9.292,-23.492 -9.292,-35.894 0,-6.2 1.844,-11.633 5.599,-16.491 4.022,5.639 8.451,11.054 13.296,16.198 29.117,30.918 68.647,47.802 111.178,47.451 56.759,-0.468 102.394,-46.927 102.394,-103.688 v -48.097 c 0,-43.697 -11.496,-94.691 -30.75,-136.411 C 319.183,106.846 308.056,89.474 296.587,77.368 283.226,63.264 269.51,56.113 255.821,56.113 c -13.689,0 -27.404,7.151 -40.766,21.255 -11.47,12.106 -22.596,29.479 -32.177,50.237 -19.255,41.72 -30.751,92.714 -30.751,136.411 v 48.097 c 0,21.605 6.645,41.686 17.995,58.312 -4.64,-3.791 -9.071,-7.911 -13.26,-12.359 -25.956,-27.561 -39,-63.552 -36.73,-101.343 l 7.232,-120.414 C 131.45,68.286 188.032,15 256.179,15 c 67.959,0 124.383,53.14 128.452,120.949 l 4.992,88.496 c 5.193,76.165 -13.732,137.082 -54.73,176.165 -36.71,34.995 -89.702,51.108 -149.819,45.724 -4.449,-0.398 -8.74,-1.879 -12.507,-4.28 -6.482,-4.13 -12.478,-8.775 -17.885,-13.902 -2.961,-2.808 -7.701,-2.985 -10.619,-0.131 -3.05,2.984 -2.997,7.876 0.065,10.795 27.416,26.133 68.126,41.12 111.693,41.12 38.032,0 73.868,-11.341 100.905,-31.934 22.433,-17.086 36.686,-38.866 41.263,-62.565 l 7.976,2.815 c 16.231,5.728 27.085,21.069 27.085,38.281 v 77.653 c 0,4.106 3.164,7.688 7.269,7.811 4.247,0.127 7.731,-3.277 7.731,-7.497 v -77.967 c 0,-23.571 -14.865,-44.581 -37.093,-52.426 z M 255.821,71.113 c 14.178,0 29.263,12.752 42.897,33.097 h -85.795 c 13.634,-20.345 28.72,-33.097 42.898,-33.097 z m -51.946,48.097 h 103.892 c 18.887,34.595 33.471,83.08 36.259,129.164 -16.596,35.996 -52.786,57.982 -92.531,56.128 -18.325,-0.863 -35.921,-7.094 -50.887,-18.018 -14.319,-10.452 -25.636,-24.697 -32.784,-41.224 3.239,-45.145 17.588,-92.234 36.051,-126.05 z m -36.571,198.432 c 18.233,25.199 51.089,42.052 88.516,42.052 14.907,0 29.295,-2.612 42.763,-7.765 3.869,-1.479 5.805,-5.816 4.325,-9.685 -1.479,-3.868 -5.814,-5.804 -9.685,-4.325 -11.75,4.495 -24.335,6.774 -37.403,6.774 -48.074,0 -87.336,-31.497 -88.657,-70.625 6.904,9.377 15.189,17.661 24.6,24.531 17.346,12.662 37.757,19.884 59.025,20.885 1.804,0.085 3.602,0.128 5.397,0.128 21.127,0 41.567,-5.866 59.418,-17.101 11.113,-6.994 20.786,-15.785 28.721,-25.972 -1.29,17.202 -9.92,33.357 -24.666,45.891 -3.156,2.684 -3.54,7.416 -0.857,10.572 1.483,1.745 3.594,2.643 5.718,2.643 1.717,0 3.443,-0.587 4.854,-1.785 5.773,-4.908 10.773,-10.296 14.953,-16.057 -2.944,46.263 -41.512,83.003 -88.506,83.003 -47.048,0.001 -85.651,-36.825 -88.516,-83.164 z m 88.517,147.294 c -11.112,0 -22.003,-1.055 -32.468,-3.086 48.134,-3.089 90.386,-20.35 121.89,-50.382 15.548,-14.822 28.154,-32.454 37.749,-52.569 1.09,2.913 1.603,6.095 1.603,9.745 0,53.095 -57.768,96.292 -128.774,96.292 z" /><path
     inkscape:connector-curvature="0"
     id="path16"
     d="m 256.179,263.5 c 11.898,0 22.857,-3.805 29.316,-10.178 2.948,-2.91 2.98,-7.658 0.07,-10.606 -2.909,-2.949 -7.658,-2.98 -10.606,-0.071 -2.737,2.701 -9.298,5.855 -18.78,5.855 -9.482,0 -16.043,-3.154 -18.78,-5.855 -2.949,-2.909 -7.697,-2.878 -10.606,0.071 -2.91,2.948 -2.878,7.696 0.07,10.606 6.459,6.373 17.418,10.178 29.316,10.178 z" /><path
     inkscape:connector-curvature="0"
     id="path18"
     d="m 208.083,184.252 c -4.142,0 -7.5,3.357 -7.5,7.5 v 8.017 c 0,4.143 3.358,7.5 7.5,7.5 4.142,0 7.5,-3.357 7.5,-7.5 v -8.017 c 0,-4.143 -3.358,-7.5 -7.5,-7.5 z" /><path
     inkscape:connector-curvature="0"
     id="path20-6"
     d="m 304.276,184.252 c -4.142,0 -7.5,3.357 -7.5,7.5 v 8.017 c 0,4.143 3.358,7.5 7.5,7.5 4.142,0 7.5,-3.357 7.5,-7.5 v -8.017 c 0,-4.143 -3.358,-7.5 -7.5,-7.5 z" /><path
     inkscape:connector-curvature="0"
     id="path22-3"
     d="m 200.066,175.204 h 16.032 c 4.142,0 7.5,-3.357 7.5,-7.5 0,-4.143 -3.358,-7.5 -7.5,-7.5 h -16.032 c -4.142,0 -7.5,3.357 -7.5,7.5 0,4.143 3.358,7.5 7.5,7.5 z" /><path
     inkscape:connector-curvature="0"
     id="path24-6"
     d="m 296.26,175.204 h 16.032 c 4.142,0 7.5,-3.357 7.5,-7.5 0,-4.143 -3.358,-7.5 -7.5,-7.5 H 296.26 c -4.142,0 -7.5,3.357 -7.5,7.5 0,4.143 3.358,7.5 7.5,7.5 z" /></g></g></svg>