<?xml version="1.0" encoding="UTF-8" standalone="no"?>
<!-- Generator: Adobe Illustrator 19.0.0, SVG Export Plug-In . SVG Version: 6.00 Build 0)  -->

<svg
   xmlns:osb="http://www.openswatchbook.org/uri/2009/osb"
   xmlns:dc="http://purl.org/dc/elements/1.1/"
   xmlns:cc="http://creativecommons.org/ns#"
   xmlns:rdf="http://www.w3.org/1999/02/22-rdf-syntax-ns#"
   xmlns:svg="http://www.w3.org/2000/svg"
   xmlns="http://www.w3.org/2000/svg"
   xmlns:xlink="http://www.w3.org/1999/xlink"
   xmlns:sodipodi="http://sodipodi.sourceforge.net/DTD/sodipodi-0.dtd"
   xmlns:inkscape="http://www.inkscape.org/namespaces/inkscape"
   version="1.1"
   id="Capa_1"
   x="0px"
   y="0px"
   viewBox="0 0 511.999 511.999"
   style="enable-background:new 0 0 511.999 511.999;"
   xml:space="preserve"
   sodipodi:docname="39.svg"
   inkscape:version="0.92.4 (5da689c313, 2019-01-14)"><metadata
   id="metadata95"><rdf:RDF><cc:Work
       rdf:about=""><dc:format>image/svg+xml</dc:format><dc:type
         rdf:resource="http://purl.org/dc/dcmitype/StillImage" /><dc:title /></cc:Work></rdf:RDF></metadata><defs
   id="defs93"><linearGradient
     id="linearGradient2457"
     osb:paint="solid"><stop
       style="stop-color:#000000;stop-opacity:1;"
       offset="0"
       id="stop2455" /></linearGradient><linearGradient
     inkscape:collect="always"
     xlink:href="#linearGradient2457"
     id="linearGradient2459-6-2"
     x1="1442.3572"
     y1="-339.5119"
     x2="1514.9286"
     y2="-339.5119"
     gradientUnits="userSpaceOnUse"
     gradientTransform="matrix(6.4669274,0,0,9.6773016,-9356.1743,3517.6929)" /></defs><sodipodi:namedview
   pagecolor="#ffffff"
   bordercolor="#666666"
   borderopacity="1"
   objecttolerance="10"
   gridtolerance="10"
   guidetolerance="10"
   inkscape:pageopacity="0"
   inkscape:pageshadow="2"
   inkscape:window-width="1920"
   inkscape:window-height="986"
   id="namedview91"
   showgrid="false"
   inkscape:zoom="1.3037307"
   inkscape:cx="178.74512"
   inkscape:cy="256.72862"
   inkscape:window-x="-11"
   inkscape:window-y="-11"
   inkscape:window-maximized="1"
   inkscape:current-layer="g1046" />























<g
   id="g60">
</g>
<g
   id="g62">
</g>
<g
   id="g64">
</g>
<g
   id="g66">
</g>
<g
   id="g68">
</g>
<g
   id="g70">
</g>
<g
   id="g72">
</g>
<g
   id="g74">
</g>
<g
   id="g76">
</g>
<g
   id="g78">
</g>
<g
   id="g80">
</g>
<g
   id="g82">
</g>
<g
   id="g84">
</g>
<g
   id="g86">
</g>
<g
   id="g88">
</g>
<g
   id="g1046"
   transform="matrix(0.55886315,0,0,0.55886315,157.54779,132.77619)"><rect
   y="-104.38158"
   x="-28.555799"
   height="673.03345"
   width="469.31418"
   id="rect2447-0-9"
   style="display:inline;fill:none;fill-opacity:1;stroke:url(#linearGradient2459-6-2);stroke-width:25.31489563;stroke-miterlimit:4;stroke-dasharray:none;stroke-opacity:1" /><text
   id="text2485-9"
   y="522.54254"
   x="14.149955"
   style="font-style:normal;font-weight:normal;font-size:76.99105835px;line-height:1.25;font-family:sans-serif;letter-spacing:0px;word-spacing:0px;display:inline;fill:#000000;fill-opacity:1;stroke:none;stroke-width:1.9247762"
   xml:space="preserve"><tspan
     style="stroke-width:1.9247762"
     y="522.54254"
     x="14.149955"
     id="tspan2483-7"
     sodipodi:role="line">VICTORIA</tspan></text>







<g
   transform="matrix(0.955956,0,0,0.955956,-38.623446,-47.982359)"
   id="g901"><path
     inkscape:connector-curvature="0"
     id="path2"
     d="M 392.454,221.597 V 111.71 c 0,-41.22 -31.111,-75.173 -71.133,-79.658 -4.802,-0.538 -9.437,-2.822 -12.124,-6.838 C 301.366,13.509 283.658,7.5 256.178,7.5 c -56.11,0 -136.272,39.663 -136.272,120.242 0,32.065 0,93.855 0,93.855 0,16.198 -9.539,22.459 -16.602,24.875 -4.335,1.483 -6.794,6.085 -5.181,10.373 3.739,9.944 13.406,24.534 37.815,23.203 0,0 16.367,24.551 49.102,19.946 14.556,-2.048 29.137,-3.914 43.836,-3.914 h 54.609 c 14.699,0 29.28,1.866 43.836,3.914 32.734,4.605 49.102,-19.946 49.102,-19.946 24.409,1.331 34.076,-13.259 37.815,-23.203 1.613,-4.288 -0.846,-8.89 -5.181,-10.373 -7.063,-2.416 -16.603,-8.677 -16.603,-24.875 z"
     style="fill:#a06e50" /><path
     inkscape:connector-curvature="0"
     id="path4-1"
     d="M 392.454,221.597 V 111.71 c 0,-41.22 -31.111,-75.173 -71.133,-79.658 -4.802,-0.538 -9.437,-2.822 -12.125,-6.838 C 301.366,13.51 283.658,7.5 256.18,7.5 v 288.581 h 27.304 c 14.699,0 29.28,1.866 43.836,3.914 32.734,4.605 49.101,-19.946 49.101,-19.946 24.409,1.331 34.076,-13.259 37.815,-23.203 1.613,-4.288 -0.846,-8.89 -5.181,-10.373 -7.061,-2.417 -16.601,-8.678 -16.601,-24.876 z"
     style="fill:#b67f5f" /><path
     inkscape:connector-curvature="0"
     id="path6"
     d="M 408.462,380.949 325.67,351.728 c -5.311,-1.874 -9.831,-5.102 -13.377,-9.148 v 11.101 c 0,32.919 -25.367,61.626 -58.272,62.613 -34.048,1.022 -61.97,-26.275 -61.97,-60.093 v -7.006 c -1.696,0.981 -3.464,1.863 -5.36,2.532 l -82.793,29.221 c -19.23,6.787 -32.089,24.962 -32.089,45.354 V 504.5 h 368.742 v -78.197 c 0,-20.392 -12.859,-38.567 -32.089,-45.354 z"
     style="fill:#ff8087" /><g
     id="g12"><polygon
       id="polygon8"
       points="304.277,327.887 304.269,328.145 304.277,328.148 "
       style="fill:#ffd164" /><polygon
       id="polygon10"
       points="208.091,328.145 208.083,327.887 208.083,328.148 "
       style="fill:#ffd164" /></g><path
     inkscape:connector-curvature="0"
     id="path14"
     d="m 256.18,400.29 v 0 c -26.563,0 -48.097,-21.534 -48.097,-48.097 v -64.129 h 96.194 v 64.129 c 0,26.564 -21.534,48.097 -48.097,48.097 z"
     style="fill:#f7d291" /><path
     inkscape:connector-curvature="0"
     id="path16"
     d="m 208.083,325.904 c 14.8,6.545 31.063,10.257 48.097,10.257 17.034,0 33.296,-3.712 48.097,-10.257 v -37.84 h -96.194 z"
     style="fill:#f0c382" /><path
     inkscape:connector-curvature="0"
     id="path18"
     d="M 372.414,175.839 H 360.39 v -16.032 c 0,-29.708 -40.081,-48.097 -64.129,-88.177 V 63.614 H 151.971 V 175.84 h -12.024 c -11.068,0 -20.04,8.972 -20.04,20.04 0,11.068 8.972,20.04 20.04,20.04 h 12.429 c 4.106,53.795 48.958,96.194 103.805,96.194 54.847,0 99.699,-42.398 103.805,-96.194 h 12.429 c 11.068,0 20.04,-8.973 20.04,-20.04 -10e-4,-11.069 -8.973,-20.041 -20.041,-20.041 z"
     style="fill:#ffe1a0" /><path
     inkscape:connector-curvature="0"
     id="path20-7"
     d="m 247.915,127.074 c 26.802,-8.701 51.896,-16.847 67.146,-30.473 C 308.42,89.125 301.887,81.006 296.262,71.63 V 63.614 H 151.971 V 175.84 H 141.09 c -10.483,0 -20.035,7.542 -21.08,17.973 -1.201,11.996 8.187,22.108 19.936,22.108 h 12.429 c 4.106,53.795 48.957,96.194 103.805,96.194 5.483,0 10.83,-0.534 16.083,-1.351 -49.946,-7.708 -88.228,-50.754 -88.228,-102.859 v -35.036 c 0,-12.481 7.243,-23.76 18.528,-29.093 13.261,-6.268 29.771,-11.645 45.352,-16.702 z"
     style="fill:#f7d291" /><path
     inkscape:connector-curvature="0"
     id="path22-1"
     d="M 309.197,25.213 C 301.365,13.509 283.657,7.5 256.178,7.5 c -56.11,0 -136.272,39.663 -136.272,120.242 0,13.146 0,31.265 0,48.097 h 32.065 c 4.427,0 8.016,-3.589 8.016,-8.016 v -8.016 c 0,-48.38 101.3,-55.047 139.497,-81.654 8.278,-5.766 12.809,-15.558 12.809,-25.647 V 28.419 c -1.171,-0.918 -2.253,-1.946 -3.096,-3.206 z"
     style="fill:#a06e50" /><path
     inkscape:connector-curvature="0"
     id="path24-1"
     d="m 186.691,351.728 -43.783,15.453 c 0.611,21.997 5.1,43.853 13.236,63.361 8.77,21.025 29.114,34.61 51.831,34.61 4.581,0 9.168,-0.566 13.632,-1.682 l 34.574,-8.644 34.573,8.644 c 4.465,1.116 9.051,1.682 13.633,1.682 22.718,0 43.063,-13.586 51.831,-34.611 8.135,-19.507 12.625,-41.362 13.236,-63.36 l -43.783,-15.453 c -5.31,-1.874 -9.83,-5.102 -13.376,-9.148 v 11.101 c 0,32.919 -25.367,61.626 -58.272,62.613 -34.049,1.022 -61.97,-26.275 -61.97,-60.093 v -7.006 c -1.699,0.982 -3.466,1.863 -5.362,2.533 z"
     style="fill:#e6646e" /><path
     inkscape:connector-curvature="0"
     id="path26-4"
     d="m 304.269,328.145 30.316,10.309 c 6.141,2.141 10.393,7.813 10.776,14.305 1.71,29 -4.617,52.407 -11.339,68.525 -6.127,14.691 -21.993,22.716 -37.436,18.855 l -40.406,-10.102 -40.406,10.102 c -15.442,3.86 -31.309,-4.165 -37.436,-18.855 -6.723,-16.118 -13.05,-39.525 -11.339,-68.525 0.383,-6.493 4.635,-12.164 10.776,-14.305 l 30.316,-10.309 -0.008,-0.258 v 24.048 c 0,26.563 21.534,48.097 48.097,48.097 26.563,0 48.097,-21.534 48.097,-48.097 v -24.048"
     style="fill:#edebed" /><path
     inkscape:connector-curvature="0"
     id="path28-8"
     d="m 410.958,374.107 -58.06,-20.492 c -0.021,-0.398 -0.026,-0.785 -0.049,-1.185 -0.564,-9.575 -6.765,-17.797 -15.85,-20.965 l -25.222,-8.576 V 304.77 c 1.144,-0.659 2.271,-1.344 3.388,-2.042 9.302,3.387 17.535,4.728 24.704,4.728 11.693,0 20.585,-3.517 26.782,-7.321 6.734,-4.136 11.189,-9.081 13.742,-12.503 39.327,-0.515 43.533,-38.519 43.572,-38.917 0.203,-2.07 -0.463,-4.132 -1.839,-5.691 -1.375,-1.561 -3.337,-2.479 -5.417,-2.537 -0.041,-0.001 -4.348,-0.222 -8.556,-2.589 -5.519,-3.104 -8.201,-8.436 -8.201,-16.3 V 111.71 c 0,-44.691 -33.445,-82.141 -77.795,-87.111 -2.944,-0.33 -5.459,-1.66 -6.729,-3.557 C 306.087,7.079 286.151,0 256.178,0 224.136,0 189.132,11.728 162.544,31.372 139.671,48.27 112.406,78.707 112.406,127.742 v 93.855 c 0,17.267 -14.009,18.766 -16.757,18.889 -2.08,0.058 -4.042,0.977 -5.417,2.537 -1.376,1.56 -2.042,3.621 -1.839,5.691 0.039,0.398 4.23,38.411 43.572,38.917 2.553,3.422 7.008,8.367 13.742,12.503 10,6.138 27.018,11.517 51.494,2.597 1.115,0.696 2.24,1.38 3.381,2.037 v 18.12 l -25.277,8.595 c -9.029,3.149 -15.229,11.371 -15.794,20.946 -0.021,0.357 -0.025,0.701 -0.044,1.057 l -58.424,20.62 C 78.856,381.937 63.95,403.005 63.95,426.534 V 504.5 c 0,4.143 3.357,7.5 7.5,7.5 4.143,0 7.5,-3.357 7.5,-7.5 v -77.965 c 0,-5.176 0.994,-10.185 2.817,-14.82 l 38.092,32.65 c 5.451,4.673 8.578,11.471 8.578,18.65 v 41.365 c 0,4.143 3.357,7.5 7.5,7.5 4.143,0 7.5,-3.357 7.5,-7.5 v -41.365 c 0,-11.563 -5.036,-22.513 -13.816,-30.039 L 89.847,398.885 c 4.37,-4.701 9.872,-8.404 16.188,-10.633 l 53.337,-18.825 c 1.006,23.438 6.804,42.297 12.043,54.856 7.612,18.253 27.024,28.027 46.177,23.245 l 38.587,-9.647 38.586,9.647 c 3.263,0.815 6.532,1.208 9.75,1.208 15.669,-10e-4 30.111,-9.31 36.427,-24.452 5.23,-12.537 11.015,-31.353 12.036,-54.733 l 52.986,18.701 c 6.392,2.256 11.952,6.022 16.347,10.804 l -39.574,33.92 c -8.78,7.526 -13.816,18.476 -13.816,30.039 v 41.365 c 0,4.143 3.357,7.5 7.5,7.5 4.143,0 7.5,-3.357 7.5,-7.5 v -41.365 c 0,-7.18 3.127,-13.978 8.578,-18.65 l 37.823,-32.419 c 1.766,4.57 2.728,9.499 2.728,14.589 V 504.5 c 0,4.143 3.357,7.5 7.5,7.5 4.143,0 7.5,-3.357 7.5,-7.5 v -77.965 c 10e-4,-23.528 -14.905,-44.597 -37.092,-52.428 z m -3.534,-120.181 c -2.841,7.952 -10.458,19.743 -30.594,18.634 -2.889,-0.134 -5.631,1.339 -7.003,3.917 -0.513,0.929 -11.684,20.399 -39.568,14.963 19.409,-17.232 32.791,-41.104 36.548,-68.021 h 5.607 c 4.515,0 8.776,-1.099 12.54,-3.033 v 1.212 c 0,19.964 11.984,29.03 22.47,32.328 z M 171.457,43.437 C 195.558,25.63 227.229,15 256.178,15 c 24.311,0 40.489,4.974 46.787,14.385 3.749,5.603 10.136,9.291 17.522,10.12 36.752,4.119 64.467,35.16 64.467,72.205 v 59.662 c -3.765,-1.934 -8.026,-3.034 -12.542,-3.034 0,0 -2.089,0 -4.522,0 v -8.532 c 0,-24.932 -13.229,-35.543 -27.233,-46.777 -5.41,-4.339 -11.004,-8.826 -16.666,-14.591 -2.901,-2.956 -7.651,-2.997 -10.605,-0.096 -2.956,2.902 -2.998,7.65 -0.096,10.605 6.284,6.399 12.499,11.384 17.981,15.782 13.481,10.814 21.619,17.342 21.619,35.076 v 16.032 h 0.007 c 0.003,2.545 1.293,5.026 3.634,6.432 1.784,1.07 1.793,1.076 9.873,1.069 l 6.01,-0.001 c 6.915,0 12.54,5.625 12.54,12.54 0,6.915 -5.625,12.54 -12.54,12.54 h -4.531 c 0.001,-0.172 0.007,-0.343 0.007,-0.516 0,-4.143 -3.357,-7.5 -7.5,-7.5 -4.143,0 -7.5,3.357 -7.5,7.5 0,53.326 -43.384,96.71 -96.71,96.71 -53.325,0 -96.709,-43.384 -96.709,-96.71 0,-4.143 -3.357,-7.5 -7.5,-7.5 -4.143,0 -7.5,3.357 -7.5,7.5 0,0.172 0.006,0.343 0.007,0.516 h -4.531 c -6.915,0 -12.54,-5.625 -12.54,-12.54 0,-6.915 5.625,-12.54 12.54,-12.54 h 4.008 c 12.976,0 23.532,-10.557 23.532,-23.532 0,-8.419 4.173,-15.456 11.115,-21.548 l 0.537,0.583 c 1.479,1.605 3.495,2.418 5.518,2.418 1.816,0 3.639,-0.656 5.08,-1.984 2.712,-2.499 3.157,-6.53 1.243,-9.535 14.784,-8.283 34.712,-14.754 54.302,-21.113 33.737,-10.952 65.604,-21.297 73.977,-42.229 1.538,-3.846 -0.332,-8.21 -4.179,-9.749 -3.842,-1.537 -8.21,0.332 -9.749,4.179 -5.762,14.405 -35.714,24.128 -64.68,33.531 -20.784,6.747 -42.961,13.948 -59.874,24.124 L 159.391,95.276 c -2.807,-3.047 -7.552,-3.24 -10.598,-0.434 -3.047,2.808 -3.24,7.552 -0.434,10.598 l 20.144,21.86 c -9.841,8.619 -16.017,19.137 -16.017,32.506 0,4.705 -3.827,8.532 -8.532,8.532 h -4.008 c -4.515,0 -8.776,1.099 -12.54,3.033 v -43.63 c 0,-42.779 23.955,-69.458 44.051,-84.304 z M 142.56,276.526 c -1.371,-2.577 -4.121,-4.109 -7.029,-3.967 -20.167,1.106 -27.762,-10.695 -30.597,-18.633 10.487,-3.297 22.473,-12.363 22.473,-32.329 v -1.212 c 3.764,1.934 8.025,3.033 12.54,3.033 h 5.607 c 3.757,26.917 17.139,50.789 36.548,68.021 -27.884,5.437 -39.053,-14.027 -39.542,-14.913 z M 327.1,418.51 c -4.736,11.354 -16.808,17.437 -28.694,14.466 l -40.405,-10.102 c -1.195,-0.299 -2.443,-0.299 -3.639,0 l -40.406,10.102 c -11.889,2.973 -23.959,-3.11 -28.694,-14.467 -5.843,-14.008 -12.455,-36.69 -10.774,-65.195 0.207,-3.509 2.467,-6.518 5.704,-7.646 l 20.393,-6.934 v 13.315 c 0,30.656 24.941,55.597 55.598,55.597 10.977,0 21.594,-3.195 30.704,-9.241 3.451,-2.29 4.392,-6.944 2.102,-10.396 -2.29,-3.451 -6.944,-4.392 -10.396,-2.102 -6.644,4.409 -14.393,6.739 -22.409,6.739 -22.386,0 -40.598,-18.212 -40.598,-40.597 v -40.073 c 12.59,4.928 26.283,7.638 40.598,7.638 14.315,0 28.007,-2.71 40.597,-7.638 v 40.072 c 0,4.654 -0.779,9.215 -2.315,13.554 -1.383,3.904 0.661,8.19 4.565,9.573 0.828,0.294 1.673,0.433 2.504,0.433 3.088,0 5.98,-1.922 7.069,-4.998 2.108,-5.951 3.177,-12.196 3.177,-18.562 v -13.315 l 20.338,6.916 c 3.292,1.147 5.552,4.156 5.759,7.665 1.677,28.504 -4.936,51.187 -10.778,65.196 z" /><path
     inkscape:connector-curvature="0"
     id="path30"
     d="m 274.96,242.646 c -2.736,2.7 -9.297,5.854 -18.779,5.854 -9.482,0 -16.044,-3.154 -18.781,-5.855 -2.946,-2.907 -7.695,-2.879 -10.606,0.071 -2.909,2.948 -2.877,7.697 0.071,10.606 6.459,6.373 17.419,10.178 29.316,10.178 11.898,0 22.857,-3.805 29.316,-10.179 2.948,-2.909 2.979,-7.658 0.069,-10.606 -2.909,-2.948 -7.658,-2.979 -10.606,-0.069 z" /><path
     inkscape:connector-curvature="0"
     id="path32"
     d="m 208.083,184.252 c -4.143,0 -7.5,3.357 -7.5,7.5 v 8.017 c 0,4.143 3.357,7.5 7.5,7.5 4.143,0 7.5,-3.357 7.5,-7.5 v -8.017 c 0,-4.143 -3.357,-7.5 -7.5,-7.5 z" /><path
     inkscape:connector-curvature="0"
     id="path34"
     d="m 304.277,184.252 c -4.143,0 -7.5,3.357 -7.5,7.5 v 8.017 c 0,4.143 3.357,7.5 7.5,7.5 4.143,0 7.5,-3.357 7.5,-7.5 v -8.017 c 0,-4.143 -3.357,-7.5 -7.5,-7.5 z" /><path
     inkscape:connector-curvature="0"
     id="path36"
     d="m 216.1,160.204 h -16.032 c -4.143,0 -7.5,3.357 -7.5,7.5 0,4.143 3.357,7.5 7.5,7.5 H 216.1 c 4.143,0 7.5,-3.357 7.5,-7.5 0,-4.143 -3.358,-7.5 -7.5,-7.5 z" /><path
     inkscape:connector-curvature="0"
     id="path38"
     d="m 288.761,167.704 c 0,4.143 3.357,7.5 7.5,7.5 h 16.032 c 4.143,0 7.5,-3.357 7.5,-7.5 0,-4.143 -3.357,-7.5 -7.5,-7.5 h -16.032 c -4.143,0 -7.5,3.358 -7.5,7.5 z" /></g></g></svg>