<?xml version="1.0" encoding="UTF-8" standalone="no"?>
<!-- Generator: Adobe Illustrator 19.0.0, SVG Export Plug-In . SVG Version: 6.00 Build 0)  -->

<svg
   xmlns:osb="http://www.openswatchbook.org/uri/2009/osb"
   xmlns:dc="http://purl.org/dc/elements/1.1/"
   xmlns:cc="http://creativecommons.org/ns#"
   xmlns:rdf="http://www.w3.org/1999/02/22-rdf-syntax-ns#"
   xmlns:svg="http://www.w3.org/2000/svg"
   xmlns="http://www.w3.org/2000/svg"
   xmlns:xlink="http://www.w3.org/1999/xlink"
   xmlns:sodipodi="http://sodipodi.sourceforge.net/DTD/sodipodi-0.dtd"
   xmlns:inkscape="http://www.inkscape.org/namespaces/inkscape"
   version="1.1"
   id="Capa_1"
   x="0px"
   y="0px"
   viewBox="0 0 511.999 511.999"
   style="enable-background:new 0 0 511.999 511.999;"
   xml:space="preserve"
   sodipodi:docname="4.svg"
   inkscape:version="0.92.4 (5da689c313, 2019-01-14)"><metadata
   id="metadata95"><rdf:RDF><cc:Work
       rdf:about=""><dc:format>image/svg+xml</dc:format><dc:type
         rdf:resource="http://purl.org/dc/dcmitype/StillImage" /><dc:title /></cc:Work></rdf:RDF></metadata><defs
   id="defs93"><linearGradient
     id="linearGradient2457"
     osb:paint="solid"><stop
       style="stop-color:#000000;stop-opacity:1;"
       offset="0"
       id="stop2455" /></linearGradient><linearGradient
     inkscape:collect="always"
     xlink:href="#linearGradient2457"
     id="linearGradient2459-6-2"
     x1="1442.3572"
     y1="-339.5119"
     x2="1514.9286"
     y2="-339.5119"
     gradientUnits="userSpaceOnUse"
     gradientTransform="matrix(6.4669274,0,0,9.6773016,-9356.1743,3517.6929)" /></defs><sodipodi:namedview
   pagecolor="#ffffff"
   bordercolor="#666666"
   borderopacity="1"
   objecttolerance="10"
   gridtolerance="10"
   guidetolerance="10"
   inkscape:pageopacity="0"
   inkscape:pageshadow="2"
   inkscape:window-width="1920"
   inkscape:window-height="986"
   id="namedview91"
   showgrid="false"
   inkscape:zoom="1.3037307"
   inkscape:cx="61.389588"
   inkscape:cy="256.72861"
   inkscape:window-x="-11"
   inkscape:window-y="-11"
   inkscape:window-maximized="1"
   inkscape:current-layer="g1046" />























<g
   id="g60">
</g>
<g
   id="g62">
</g>
<g
   id="g64">
</g>
<g
   id="g66">
</g>
<g
   id="g68">
</g>
<g
   id="g70">
</g>
<g
   id="g72">
</g>
<g
   id="g74">
</g>
<g
   id="g76">
</g>
<g
   id="g78">
</g>
<g
   id="g80">
</g>
<g
   id="g82">
</g>
<g
   id="g84">
</g>
<g
   id="g86">
</g>
<g
   id="g88">
</g>
<g
   id="g1046"
   transform="matrix(0.55886315,0,0,0.55886315,157.54779,132.77619)"><rect
   y="-104.38158"
   x="-28.555799"
   height="673.03345"
   width="469.31418"
   id="rect2447-0-9"
   style="display:inline;fill:none;fill-opacity:1;stroke:url(#linearGradient2459-6-2);stroke-width:25.31489563;stroke-miterlimit:4;stroke-dasharray:none;stroke-opacity:1" /><text
   id="text2485-9"
   y="522.54254"
   x="74.712746"
   style="font-style:normal;font-weight:normal;font-size:76.99105835px;line-height:1.25;font-family:sans-serif;letter-spacing:0px;word-spacing:0px;display:inline;fill:#000000;fill-opacity:1;stroke:none;stroke-width:1.9247762"
   xml:space="preserve"><tspan
     style="stroke-width:1.9247762"
     y="522.54254"
     x="74.712746"
     id="tspan2483-7"
     sodipodi:role="line">MARÍA</tspan></text>

<g
   transform="matrix(0.95059473,0,0,0.95059473,-37.250486,-48.688271)"
   id="g892"><path
     inkscape:connector-curvature="0"
     id="path2-8"
     d="m 406.19,274.927 c -13.917,-23.45 -13.917,-53.163 -13.917,-66.523 H 119.725 c 0,13.36 0,43.073 -13.917,66.523 -4.097,6.903 -0.873,15.769 6.912,17.725 27.776,6.979 85.528,19.461 143.279,19.461 57.751,0 115.503,-12.482 143.279,-19.461 7.785,-1.956 11.009,-10.823 6.912,-17.725 z"
     style="fill:#a06e50" /><path
     inkscape:connector-curvature="0"
     id="path4-9"
     d="m 405.098,370.149 -64.813,-25.926 c -12.173,-4.869 -20.156,-16.66 -20.156,-29.771 V 304.096 H 191.87 v 10.356 c 0,13.111 -7.982,24.901 -20.156,29.771 l -64.813,25.926 c -21.304,8.522 -35.273,29.155 -35.273,52.099 V 504.5 H 440.37 v -82.252 c 0,-22.945 -13.969,-43.578 -35.272,-52.099 z"
     style="fill:#f7d291" /><path
     inkscape:connector-curvature="0"
     id="path6-0"
     d="m 405.097,370.149 -44.438,-17.776 c -16.197,42.064 -56.888,71.966 -104.66,71.966 -47.772,0 -88.463,-29.901 -104.66,-71.966 l -44.438,17.776 c -21.304,8.522 -35.273,29.155 -35.273,52.1 V 504.5 H 440.37 v -82.251 c 0,-22.945 -13.969,-43.579 -35.273,-52.1 z"
     style="fill:#ff8087" /><path
     inkscape:connector-curvature="0"
     id="path8-0"
     d="m 106.711,370.242 c 23.296,59.771 81.275,102.193 149.288,102.193 68.013,0 125.993,-42.423 149.289,-102.193 -0.067,-0.027 -0.124,-0.067 -0.191,-0.093 l -44.438,-17.776 c -16.197,42.064 -56.888,71.966 -104.66,71.966 -47.772,0 -88.463,-29.901 -104.66,-71.966 l -44.438,17.776 c -0.066,0.026 -0.124,0.066 -0.19,0.093 z"
     style="fill:#e6646e" /><path
     inkscape:connector-curvature="0"
     id="path10-8"
     d="m 191.87,304.097 v 10.356 c 0,4.253 -0.916,16.348 -2.467,20.133 19.767,11.169 42.487,17.608 66.596,17.608 24.109,0 46.829,-6.439 66.596,-17.608 -1.551,-3.784 -2.467,-15.88 -2.467,-20.133 v -10.356 z"
     style="fill:#f0c382" /><path
     inkscape:connector-curvature="0"
     id="path12-6"
     d="M 388.266,175.839 H 376.242 V 135.758 H 135.758 v 40.081 h -12.024 c -11.068,0 -20.04,8.972 -20.04,20.04 0,11.068 8.972,20.04 20.04,20.04 h 12.429 c 4.143,62.652 56.134,112.226 119.837,112.226 63.703,0 115.694,-49.573 119.837,-112.226 h 12.429 c 11.068,0 20.04,-8.973 20.04,-20.04 0,-11.068 -8.972,-20.04 -20.04,-20.04 z"
     style="fill:#ffe1a0" /><path
     inkscape:connector-curvature="0"
     id="path14-0"
     d="m 135.758,135.758 v 40.081 h -12.024 c -11.068,0 -20.04,8.972 -20.04,20.04 0,11.068 8.972,20.04 20.04,20.04 h 12.429 c 4.143,62.652 56.134,112.226 119.837,112.226 6.869,0 13.566,-0.684 20.119,-1.791 -56.886,-9.527 -100.28,-58.859 -100.28,-118.451 v -8.016 c 0,-22.136 17.944,-40.081 40.081,-40.081 h 96.194 c 8.854,0 16.032,-7.178 16.032,-16.032 v -8.016 z"
     style="fill:#f7d291" /><polygon
     id="polygon16"
     points="239.967,440.371 231.951,504.5 280.048,504.5 272.032,440.371 "
     style="fill:#ffd164" /><path
     inkscape:connector-curvature="0"
     id="path18"
     d="m 215.919,236.405 c 0,19.676 17.945,35.627 40.08,35.627 22.135,0 40.081,-15.951 40.08,-35.627 z"
     style="fill:#ffffff" /><path
     inkscape:connector-curvature="0"
     id="path20-8"
     d="m 255.999,448.387 c 57.896,0 107.232,-36.165 126.977,-87.087 l -37.195,-14.879 c -13.83,36.16 -48.759,61.885 -89.781,61.885 -41.022,0 -75.951,-25.725 -89.781,-61.885 L 129.023,361.3 c 19.744,50.922 69.081,87.087 126.976,87.087 z"
     style="fill:#ffe17d" /><path
     inkscape:connector-curvature="0"
     id="path22-9"
     d="m 256,7.5 v 0 c -75.262,0 -136.274,61.012 -136.274,136.274 v 35.947 l 17.92,-2.17 c 8.723,-1.056 16.175,-6.785 19.438,-14.943 l 10.739,-26.85 h 176.355 l 10.74,26.851 c 3.263,8.158 10.715,13.886 19.437,14.943 l 17.919,2.17 V 143.775 C 392.274,68.512 331.262,7.5 256,7.5 Z"
     style="fill:#b67f5f" /><path
     inkscape:connector-curvature="0"
     id="path24-0"
     d="M 288.064,11.452 C 277.764,8.963 267.064,7.5 255.999,7.5 180.737,7.5 119.725,68.512 119.725,143.774 v 35.948 l 17.92,-2.17 c 8.723,-1.056 16.175,-6.786 19.438,-14.944 l 10.739,-26.85 h 16.437 C 187.794,75.154 230.822,25.283 288.064,11.452 Z"
     style="fill:#a06e50" /><path
     inkscape:connector-curvature="0"
     id="path26-5"
     d="m 207.771,200.075 c 4.142,0 7.5,-3.358 7.5,-7.5 v -8.016 c 0,-4.142 -3.358,-7.5 -7.5,-7.5 -4.142,0 -7.5,3.358 -7.5,7.5 v 8.016 c 0,4.142 3.358,7.5 7.5,7.5 z" /><path
     inkscape:connector-curvature="0"
     id="path28"
     d="m 303.969,200.075 c 4.142,0 7.5,-3.358 7.5,-7.5 v -8.016 c 0,-4.142 -3.358,-7.5 -7.5,-7.5 -4.142,0 -7.5,3.358 -7.5,7.5 v 8.016 c 0,4.142 3.358,7.5 7.5,7.5 z" /><path
     inkscape:connector-curvature="0"
     id="path30"
     d="m 407.889,363.18 -64.815,-25.926 c -9.381,-3.752 -15.442,-12.706 -15.442,-22.809 v -0.832 c 0.98,-0.666 1.949,-1.349 2.909,-2.041 32.998,-0.354 62.102,-7.913 76.706,-12.465 4.8,-1.496 8.449,-5.08 10.012,-9.832 1.586,-4.822 0.713,-10.181 -2.336,-14.334 -13.437,-18.308 -14.95,-40.032 -15.12,-54.072 9.442,-4.372 16.01,-13.931 16.01,-25.001 0,-11.129 -6.64,-20.731 -16.163,-25.071 V 143.78 C 399.649,64.5 335.15,0 255.87,0 176.59,0 112.09,64.5 112.09,143.78 v 27.133 c -9.384,4.395 -15.903,13.925 -15.903,24.953 0,11.07 6.569,20.629 16.01,25.001 -0.171,14.041 -1.683,35.765 -15.12,54.072 -3.049,4.154 -3.922,9.513 -2.336,14.334 1.563,4.752 5.212,8.336 10.012,9.832 14.603,4.552 43.708,12.111 76.706,12.465 0.961,0.693 1.929,1.375 2.909,2.041 v 0.832 c 0,10.104 -6.062,19.057 -15.442,22.809 l -64.816,25.926 c -24.292,9.717 -39.989,32.901 -39.989,59.065 V 504.5 c 0,4.142 3.358,7.5 7.5,7.5 4.142,0 7.5,-3.358 7.5,-7.5 v -82.255 c 0,-19.995 11.996,-37.712 30.56,-45.139 l 15.14,-6.056 c 10.833,24.103 28.025,44.674 49.969,59.719 17.195,11.789 36.515,19.566 56.827,23.032 l -7.091,49.637 c -0.585,4.101 2.264,7.899 6.364,8.485 0.36,0.051 0.717,0.076 1.07,0.076 3.672,0 6.881,-2.7 7.416,-6.44 l 7.143,-50.003 c 3.146,0.205 6.306,0.327 9.481,0.327 3.176,0 6.335,-0.123 9.481,-0.327 l 7.143,50.003 c 0.535,3.741 3.743,6.44 7.416,6.44 0.353,0 0.71,-0.025 1.07,-0.076 4.101,-0.586 6.95,-4.385 6.364,-8.485 l -7.091,-49.637 c 20.489,-3.496 39.961,-11.376 57.269,-23.337 21.751,-15.032 38.761,-35.489 49.514,-59.42 l 15.152,6.061 c 18.564,7.426 30.56,25.144 30.56,45.139 V 504.5 c 0,4.142 3.358,7.5 7.5,7.5 4.142,0 7.5,-3.358 7.5,-7.5 v -82.255 c 0,-26.164 -15.697,-49.349 -39.989,-59.065 z m -4.88,-78.592 c -0.037,0.111 -0.069,0.148 -0.227,0.198 -11.008,3.431 -30.719,8.671 -54.003,10.825 18.31,-19.356 30.644,-44.417 34.023,-72.204 h 2.036 c 0.335,15.876 2.602,39.441 17.991,60.408 0.271,0.369 0.216,0.664 0.18,0.773 z M 123.728,183.325 h 11.775 c 12.975,0 24.473,-7.785 29.292,-19.833 l 8.1,-20.25 H 296.08 c 4.142,0 7.5,-3.358 7.5,-7.5 0,-4.142 -3.358,-7.5 -7.5,-7.5 H 151.786 c -4.142,0 -7.5,3.358 -7.5,7.5 0,4.142 3.358,7.5 7.5,7.5 h 4.955 l -5.872,14.679 c -2.528,6.32 -8.56,10.403 -15.366,10.403 h -8.414 V 143.78 C 127.089,72.771 184.86,15 255.869,15 c 71.01,0 128.78,57.771 128.78,128.78 v 24.545 h -8.154 c -6.806,0 -12.837,-4.083 -15.366,-10.403 l -5.872,-14.679 h 4.955 c 4.142,0 7.5,-3.358 7.5,-7.5 0,-4.142 -3.358,-7.5 -7.5,-7.5 h -32.067 c -4.142,0 -7.5,3.358 -7.5,7.5 0,4.142 3.358,7.5 7.5,7.5 h 10.957 l 8.1,20.25 c 4.819,12.047 16.317,19.832 29.292,19.832 h 11.775 c 6.916,0 12.542,5.626 12.542,12.541 0,6.915 -5.626,12.541 -12.542,12.541 h -4.531 c 10e-4,-0.172 0.007,-0.344 0.007,-0.516 0,-4.142 -3.358,-7.5 -7.5,-7.5 -4.142,0 -7.5,3.358 -7.5,7.5 0,62.168 -50.578,112.747 -112.747,112.747 -62.169,0 -112.746,-50.578 -112.746,-112.747 0,-4.142 -3.358,-7.5 -7.5,-7.5 -4.142,0 -7.5,3.358 -7.5,7.5 0,0.173 0.006,0.344 0.007,0.516 h -4.531 c -6.916,0 -12.542,-5.626 -12.542,-12.541 0,-6.915 5.626,-12.541 12.542,-12.541 z M 108.99,284.588 c -0.036,-0.11 -0.091,-0.405 0.18,-0.773 15.389,-20.967 17.656,-44.532 17.991,-60.408 h 2.036 c 3.38,27.787 15.713,52.848 34.023,72.204 -23.285,-2.154 -42.995,-7.394 -54.003,-10.825 -0.158,-0.049 -0.191,-0.086 -0.227,-0.198 z m 220.134,133.537 c -21.544,14.889 -46.83,22.759 -73.124,22.759 -26.123,0 -51.271,-7.776 -72.728,-22.487 -19.489,-13.361 -34.784,-31.586 -44.502,-52.927 l 23.335,-9.334 c 7.786,16.606 19.785,30.815 35.009,41.334 17.354,11.992 37.717,18.331 58.885,18.331 15.075,0 29.614,-3.165 43.214,-9.407 3.765,-1.728 5.416,-6.181 3.688,-9.945 -1.728,-3.764 -6.181,-5.416 -9.945,-3.688 -11.624,5.335 -24.058,8.04 -36.957,8.04 -34.498,0 -65.245,-19.542 -79.965,-50.276 11.893,-5.336 20.205,-15.981 22.613,-28.509 17.256,8.707 36.74,13.621 57.352,13.621 20.612,0 40.096,-4.913 57.352,-13.621 2.408,12.524 10.717,23.167 22.606,28.505 -4.572,9.471 -10.878,18.204 -18.469,25.508 -2.985,2.872 -3.076,7.62 -0.204,10.604 1.472,1.53 3.437,2.3 5.405,2.3 1.871,0 3.745,-0.696 5.199,-2.096 9.106,-8.761 16.632,-19.285 22.008,-30.701 l 23.324,9.33 c -9.645,21.189 -24.78,39.31 -44.096,52.659 z" /><path
     inkscape:connector-curvature="0"
     id="path32"
     d="m 208.417,236.394 c 0,23.781 21.345,43.128 47.583,43.128 26.238,0 47.583,-19.347 47.583,-43.128 0,-4.142 -3.358,-7.5 -7.5,-7.5 h -80.165 c -4.143,0 -7.501,3.358 -7.501,7.5 z m 78.989,7.5 c -3.812,11.88 -16.449,20.628 -31.407,20.628 -14.958,0 -27.595,-8.748 -31.407,-20.628 z" /></g></g></svg>