<?xml version="1.0" encoding="UTF-8" standalone="no"?>
<!-- Generator: Adobe Illustrator 19.0.0, SVG Export Plug-In . SVG Version: 6.00 Build 0)  -->

<svg
   xmlns:osb="http://www.openswatchbook.org/uri/2009/osb"
   xmlns:dc="http://purl.org/dc/elements/1.1/"
   xmlns:cc="http://creativecommons.org/ns#"
   xmlns:rdf="http://www.w3.org/1999/02/22-rdf-syntax-ns#"
   xmlns:svg="http://www.w3.org/2000/svg"
   xmlns="http://www.w3.org/2000/svg"
   xmlns:xlink="http://www.w3.org/1999/xlink"
   xmlns:sodipodi="http://sodipodi.sourceforge.net/DTD/sodipodi-0.dtd"
   xmlns:inkscape="http://www.inkscape.org/namespaces/inkscape"
   version="1.1"
   id="Capa_1"
   x="0px"
   y="0px"
   viewBox="0 0 511.999 511.999"
   style="enable-background:new 0 0 511.999 511.999;"
   xml:space="preserve"
   sodipodi:docname="40.svg"
   inkscape:version="0.92.4 (5da689c313, 2019-01-14)"><metadata
   id="metadata95"><rdf:RDF><cc:Work
       rdf:about=""><dc:format>image/svg+xml</dc:format><dc:type
         rdf:resource="http://purl.org/dc/dcmitype/StillImage" /><dc:title /></cc:Work></rdf:RDF></metadata><defs
   id="defs93"><linearGradient
     id="linearGradient2457"
     osb:paint="solid"><stop
       style="stop-color:#000000;stop-opacity:1;"
       offset="0"
       id="stop2455" /></linearGradient><linearGradient
     inkscape:collect="always"
     xlink:href="#linearGradient2457"
     id="linearGradient2459-6-2"
     x1="1442.3572"
     y1="-339.5119"
     x2="1514.9286"
     y2="-339.5119"
     gradientUnits="userSpaceOnUse"
     gradientTransform="matrix(6.4669274,0,0,9.6773016,-9356.1743,3517.6929)" /></defs><sodipodi:namedview
   pagecolor="#ffffff"
   bordercolor="#666666"
   borderopacity="1"
   objecttolerance="10"
   gridtolerance="10"
   guidetolerance="10"
   inkscape:pageopacity="0"
   inkscape:pageshadow="2"
   inkscape:window-width="1920"
   inkscape:window-height="986"
   id="namedview91"
   showgrid="false"
   inkscape:zoom="1.3037307"
   inkscape:cx="178.74512"
   inkscape:cy="256.72862"
   inkscape:window-x="-11"
   inkscape:window-y="-11"
   inkscape:window-maximized="1"
   inkscape:current-layer="g1046" />























<g
   id="g60">
</g>
<g
   id="g62">
</g>
<g
   id="g64">
</g>
<g
   id="g66">
</g>
<g
   id="g68">
</g>
<g
   id="g70">
</g>
<g
   id="g72">
</g>
<g
   id="g74">
</g>
<g
   id="g76">
</g>
<g
   id="g78">
</g>
<g
   id="g80">
</g>
<g
   id="g82">
</g>
<g
   id="g84">
</g>
<g
   id="g86">
</g>
<g
   id="g88">
</g>
<g
   id="g1046"
   transform="matrix(0.55886315,0,0,0.55886315,157.54779,132.77619)"><rect
   y="-104.38158"
   x="-28.555799"
   height="673.03345"
   width="469.31418"
   id="rect2447-0-9"
   style="display:inline;fill:none;fill-opacity:1;stroke:url(#linearGradient2459-6-2);stroke-width:25.31489563;stroke-miterlimit:4;stroke-dasharray:none;stroke-opacity:1" /><text
   id="text2485-9"
   y="522.54254"
   x="42.044167"
   style="font-style:normal;font-weight:normal;font-size:76.99105835px;line-height:1.25;font-family:sans-serif;letter-spacing:0px;word-spacing:0px;display:inline;fill:#000000;fill-opacity:1;stroke:none;stroke-width:1.9247762"
   xml:space="preserve"><tspan
     style="stroke-width:1.9247762"
     y="522.54254"
     x="42.044167"
     id="tspan2483-7"
     sodipodi:role="line">HÉCTOR</tspan></text>







<g
   transform="matrix(0.91379735,0,0,0.91379735,-27.831746,-26.718776)"
   id="g892"><path
     inkscape:connector-curvature="0"
     id="path2-4"
     d="m 414.433,397.861 -53.282,-16.394 c -10.09,-3.105 -16.976,-12.427 -16.976,-22.984 v -38.352 c 0,-4.427 -3.589,-8.016 -8.016,-8.016 H 175.838 c -4.427,0 -8.016,3.589 -8.016,8.016 v 38.351 c 0,10.557 -6.886,19.88 -16.976,22.985 l -53.281,16.394 c -20.181,6.21 -33.952,24.855 -33.952,45.97 v 60.67 h 384.774 v -60.67 c -10e-4,-21.114 -13.772,-39.76 -33.954,-45.97 z"
     style="fill:#f5dcb4" /><path
     inkscape:connector-curvature="0"
     id="path4"
     d="m 151.64,381.15 c 12.446,34.099 54.388,59.223 104.358,59.223 49.97,0 91.912,-25.123 104.358,-59.223 -9.64,-3.348 -16.181,-12.399 -16.181,-22.667 v -38.352 c 0,-4.427 -3.589,-8.016 -8.016,-8.016 H 175.838 c -4.427,0 -8.016,3.589 -8.016,8.016 v 38.351 c -0.001,10.268 -6.541,19.321 -16.182,22.668 z"
     style="fill:#ebc9a0" /><path
     inkscape:connector-curvature="0"
     id="path6-3"
     d="M 336.16,312.115 H 175.838 c -4.427,0 -8.016,3.589 -8.016,8.016 v 5.146 c 20.548,26.118 52.367,42.951 88.177,42.951 35.81,0 67.629,-16.833 88.177,-42.951 v -5.146 c 0,-4.428 -3.589,-8.016 -8.016,-8.016 z"
     style="fill:#d2b496" /><path
     inkscape:connector-curvature="0"
     id="path8"
     d="M 372.233,175.841 H 360.209 V 95.679 h -208.42 v 80.161 h -12.024 c -11.022,0 -20.04,9.018 -20.04,20.04 0,11.022 9.018,20.04 20.04,20.04 h 12.429 c 4.106,53.795 48.958,96.194 103.805,96.194 54.847,0 99.699,-42.398 103.805,-96.194 h 12.429 c 11.022,0 20.04,-9.018 20.04,-20.04 0,-11.022 -9.018,-20.039 -20.04,-20.039 z"
     style="fill:#f5b97d" /><path
     inkscape:connector-curvature="0"
     id="path10"
     d="M 320.128,103.695 V 95.679 H 151.789 v 80.161 h -11.321 c -9.127,0 -17.651,5.783 -20.015,14.598 -3.576,13.332 6.518,25.482 19.312,25.482 h 12.429 c 4.106,53.795 48.957,96.194 103.805,96.194 5.483,0 10.83,-0.534 16.083,-1.351 -49.946,-7.708 -88.228,-50.754 -88.228,-102.859 v -40.081 c 0,-22.136 17.945,-40.081 40.081,-40.081 h 72.145 c 13.281,0.002 24.048,-10.765 24.048,-24.047 z"
     style="fill:#e3aa75" /><path
     inkscape:connector-curvature="0"
     id="path12"
     d="m 199.886,25.244 c -39.398,8.154 -67.755,45.104 -63.353,86.843 l 6.773,64.225 8.269,-0.163 c 8.73,-0.171 15.717,-7.297 15.717,-16.029 v -32.377 c 0,-13.282 10.767,-24.048 24.048,-24.048 h 88.707 z"
     style="fill:#5a4650" /><path
     inkscape:connector-curvature="0"
     id="path14-1"
     d="M 320.128,223.937 H 191.87 c -13.282,0 -24.048,10.767 -24.048,24.048 v 8.017 c 0,48.699 39.478,88.177 88.177,88.177 v 0 c 48.699,0 88.177,-39.478 88.177,-88.177 v -8.016 c 0,-13.282 -10.767,-24.049 -24.048,-24.049 z"
     style="fill:#84737b" /><g
     id="g20"><path
       inkscape:connector-curvature="0"
       id="path16-1"
       d="m 207.902,256.002 v -8.016 c 0,-13.282 10.767,-24.048 24.048,-24.048 h -40.081 c -13.282,0 -24.048,10.767 -24.048,24.048 v 8.016 c 0,48.699 39.478,88.177 88.177,88.177 6.905,0 13.592,-0.874 20.04,-2.375 -39.027,-9.086 -68.136,-44.008 -68.136,-85.802 z"
       style="fill:#6e5a64" /><path
       inkscape:connector-curvature="0"
       id="path18-6"
       d="m 368.162,176.312 6.774,-64.225 C 379.928,64.76 342.821,23.534 295.232,23.534 h -79.313 c -24.049,0 -52.106,-4.008 -64.129,-16.032 0,0 -16.032,96.194 128.258,96.194 h 40.081 c 13.282,0 24.048,10.767 24.048,24.048 v 32.377 c 0,8.732 6.987,15.858 15.717,16.029 z"
       style="fill:#6e5a64" /></g><path
     inkscape:connector-curvature="0"
     id="path22"
     d="m 207.902,176.356 c -4.143,0 -7.5,3.357 -7.5,7.5 v 8.017 c 0,4.143 3.357,7.5 7.5,7.5 4.143,0 7.5,-3.357 7.5,-7.5 v -8.017 c 0,-4.142 -3.357,-7.5 -7.5,-7.5 z" /><path
     inkscape:connector-curvature="0"
     id="path24"
     d="m 304.096,176.356 c -4.143,0 -7.5,3.357 -7.5,7.5 v 8.017 c 0,4.143 3.357,7.5 7.5,7.5 4.143,0 7.5,-3.357 7.5,-7.5 v -8.017 c 0,-4.142 -3.358,-7.5 -7.5,-7.5 z" /><path
     inkscape:connector-curvature="0"
     id="path26"
     d="m 274.781,250.663 c -2.739,2.701 -9.301,5.855 -18.782,5.855 -9.481,0 -16.043,-3.154 -18.782,-5.855 -2.949,-2.911 -7.698,-2.879 -10.605,0.072 -2.909,2.948 -2.877,7.697 0.072,10.605 6.46,6.373 17.419,10.178 29.315,10.178 11.896,0 22.855,-3.805 29.315,-10.178 2.949,-2.908 2.981,-7.657 0.072,-10.605 -2.908,-2.951 -7.657,-2.981 -10.605,-0.072 z" /><path
     inkscape:connector-curvature="0"
     id="path28"
     d="m 199.886,167.308 h 16.032 c 4.143,0 7.5,-3.357 7.5,-7.5 0,-4.143 -3.357,-7.5 -7.5,-7.5 h -16.032 c -4.143,0 -7.5,3.357 -7.5,7.5 0,4.143 3.357,7.5 7.5,7.5 z" /><path
     inkscape:connector-curvature="0"
     id="path30-4"
     d="m 296.08,167.308 h 16.032 c 4.143,0 7.5,-3.357 7.5,-7.5 0,-4.143 -3.357,-7.5 -7.5,-7.5 H 296.08 c -4.143,0 -7.5,3.357 -7.5,7.5 0,4.143 3.357,7.5 7.5,7.5 z" /><path
     inkscape:connector-curvature="0"
     id="path32-1"
     d="m 416.638,390.693 -53.28,-16.394 c -6.987,-2.15 -11.682,-8.507 -11.682,-15.817 V 320.13 c 0,-7.835 -5.844,-14.315 -13.398,-15.354 6.805,-11.437 11.294,-24.403 12.816,-38.252 8.137,-13.176 13.406,-27.838 15.535,-43.105 h 4.459 c 0.002,0 10e-4,0 0.003,0 14.615,-0.001 27.152,-10.861 28.54,-24.727 0.778,-7.771 -1.764,-15.529 -6.974,-21.287 -4.244,-4.69 -9.967,-7.751 -16.138,-8.728 l 5.875,-55.807 C 384.991,88.2 376.961,63.477 360.365,45.042 343.767,26.605 320.021,16.032 295.215,16.032 h -79.297 c -27.751,0 -50.292,-5.302 -58.825,-13.836 -1.986,-1.986 -4.913,-2.694 -7.593,-1.839 -2.675,0.857 -4.647,3.139 -5.108,5.909 -0.176,1.055 -3.084,19.703 5.19,41.146 -15.212,18.164 -22.471,41.781 -19.978,65.457 l 5.892,55.972 c -12.189,2.285 -21.916,12.106 -23.129,24.221 -0.778,7.771 1.763,15.53 6.973,21.288 5.214,5.763 12.659,9.067 20.427,9.067 h 5.597 c 2.128,15.271 7.398,29.927 15.541,43.11 1.523,13.846 6.011,26.811 12.816,38.246 -7.554,1.039 -13.398,7.518 -13.398,15.354 v 38.352 c 0,7.311 -4.694,13.667 -11.681,15.817 L 95.36,390.69 c -23.475,7.223 -39.246,28.577 -39.246,53.138 v 60.674 c 0,4.143 3.357,7.5 7.5,7.5 4.143,0 7.5,-3.357 7.5,-7.5 v -60.671 c 0,-17.934 11.517,-33.527 28.658,-38.802 l 48.726,-14.992 c 13.385,33.922 57.031,57.836 107.502,57.836 17.839,0 34.877,-2.884 50.642,-8.572 3.896,-1.405 5.916,-5.704 4.51,-9.6 -1.406,-3.897 -5.707,-5.919 -9.6,-4.51 -13.93,5.025 -29.681,7.682 -45.552,7.682 -23.32,0 -45.876,-5.694 -63.514,-16.035 -14.852,-8.707 -25.395,-20.202 -30.214,-32.776 8.064,-5.798 13.05,-15.18 13.05,-25.579 v -38.352 c 0,-0.284 0.231,-0.516 0.517,-0.516 h 8.761 c 17.536,19.661 43.044,32.064 71.4,32.064 28.356,0 53.864,-12.404 71.4,-32.064 h 8.761 c 0.285,0 0.517,0.231 0.517,0.516 v 38.352 c 0,10.401 4.988,19.784 13.054,25.582 -3.692,9.647 -10.749,18.673 -20.649,26.331 -3.276,2.534 -3.878,7.245 -1.344,10.521 1.478,1.91 3.695,2.911 5.938,2.911 1.603,0 3.218,-0.511 4.584,-1.567 11.895,-9.2 20.501,-20.237 25.235,-32.226 l 48.734,14.995 c 17.142,5.274 28.658,20.868 28.658,38.802 v 60.67 c 0,4.143 3.357,7.5 7.5,7.5 4.143,0 7.5,-3.357 7.5,-7.5 v -60.671 c -0.002,-24.561 -15.774,-45.915 -39.25,-53.138 z M 177.752,27.356 c 13.983,3.04 28.474,3.678 38.166,3.678 h 79.297 c 20.562,0 40.245,8.765 54.002,24.046 13.757,15.281 20.412,35.773 18.26,56.222 l -6.004,57.039 h -1.264 c -4.705,0 -8.532,-3.827 -8.532,-8.532 v -32.064 c 0,-17.396 -14.152,-31.549 -31.549,-31.549 h -40.08 C 230.082,96.196 194.83,84.573 175.27,61.648 163.278,47.593 159.81,31.887 158.999,21.264 c 5.279,2.488 11.544,4.525 18.753,6.092 z m -14.608,207.61 c -2.542,-8.729 -3.855,-17.828 -3.855,-27.061 0,-4.143 -3.357,-7.5 -7.5,-7.5 -4.143,0 -7.5,3.357 -7.5,7.5 v 0.516 h -4.523 c -3.537,0 -6.929,-1.506 -9.304,-4.131 -2.406,-2.66 -3.532,-6.115 -3.17,-9.729 0.63,-6.292 6.611,-11.22 13.617,-11.22 0.488,0 10.88,0 10.88,0 12.976,0 23.532,-10.557 23.532,-23.532 v -40.081 c 0,-3.037 1.637,-5.87 4.271,-7.395 3.585,-2.075 4.811,-6.663 2.736,-10.248 -2.075,-3.584 -6.663,-4.809 -10.248,-2.736 -7.254,4.197 -11.76,12.006 -11.76,20.379 v 40.081 c 0,4.705 -3.827,8.532 -8.532,8.532 h -1.264 l -6.004,-57.039 c -1.834,-17.426 2.723,-34.802 12.59,-49.022 1.912,2.981 4.077,5.953 6.554,8.876 22.507,26.567 61.663,40.039 116.383,40.039 h 40.08 c 9.125,0 16.549,7.424 16.549,16.549 v 32.064 c 0,12.976 10.557,23.532 23.532,23.532 0,0 11.332,0 12.023,0 3.537,0 6.928,1.506 9.304,4.131 2.406,2.659 3.532,6.114 3.17,9.729 -0.63,6.292 -6.609,11.221 -13.615,11.221 h -3.386 v -0.438 c 0,-4.141 -3.356,-7.498 -7.497,-7.5 h -0.003 c -4.14,0 -7.497,3.354 -7.5,7.494 -0.007,9.2 -1.323,18.272 -3.857,26.977 -4.97,-10.91 -15.97,-18.517 -28.72,-18.517 H 191.87 c -12.755,0 -23.758,7.613 -28.726,18.529 z m 173.533,21.036 c 0,44.486 -36.192,80.678 -80.678,80.678 -44.486,0 -80.678,-36.192 -80.678,-80.678 v -8.017 c 0,-9.124 7.424,-16.548 16.549,-16.548 h 128.258 c 9.125,0 16.549,7.424 16.549,16.548 z" /></g></g></svg>