<?xml version="1.0" encoding="UTF-8" standalone="no"?>
<!-- Generator: Adobe Illustrator 19.0.0, SVG Export Plug-In . SVG Version: 6.00 Build 0)  -->

<svg
   xmlns:osb="http://www.openswatchbook.org/uri/2009/osb"
   xmlns:dc="http://purl.org/dc/elements/1.1/"
   xmlns:cc="http://creativecommons.org/ns#"
   xmlns:rdf="http://www.w3.org/1999/02/22-rdf-syntax-ns#"
   xmlns:svg="http://www.w3.org/2000/svg"
   xmlns="http://www.w3.org/2000/svg"
   xmlns:xlink="http://www.w3.org/1999/xlink"
   xmlns:sodipodi="http://sodipodi.sourceforge.net/DTD/sodipodi-0.dtd"
   xmlns:inkscape="http://www.inkscape.org/namespaces/inkscape"
   version="1.1"
   id="Capa_1"
   x="0px"
   y="0px"
   viewBox="0 0 511.999 511.999"
   style="enable-background:new 0 0 511.999 511.999;"
   xml:space="preserve"
   sodipodi:docname="47.svg"
   inkscape:version="0.92.4 (5da689c313, 2019-01-14)"><metadata
   id="metadata95"><rdf:RDF><cc:Work
       rdf:about=""><dc:format>image/svg+xml</dc:format><dc:type
         rdf:resource="http://purl.org/dc/dcmitype/StillImage" /><dc:title /></cc:Work></rdf:RDF></metadata><defs
   id="defs93"><linearGradient
     id="linearGradient2457"
     osb:paint="solid"><stop
       style="stop-color:#000000;stop-opacity:1;"
       offset="0"
       id="stop2455" /></linearGradient><linearGradient
     inkscape:collect="always"
     xlink:href="#linearGradient2457"
     id="linearGradient2459-6-2"
     x1="1442.3572"
     y1="-339.5119"
     x2="1514.9286"
     y2="-339.5119"
     gradientUnits="userSpaceOnUse"
     gradientTransform="matrix(6.4669274,0,0,9.6773016,-9356.1743,3517.6929)" /></defs><sodipodi:namedview
   pagecolor="#ffffff"
   bordercolor="#666666"
   borderopacity="1"
   objecttolerance="10"
   gridtolerance="10"
   guidetolerance="10"
   inkscape:pageopacity="0"
   inkscape:pageshadow="2"
   inkscape:window-width="1920"
   inkscape:window-height="986"
   id="namedview91"
   showgrid="false"
   inkscape:zoom="1.3037307"
   inkscape:cx="55.636868"
   inkscape:cy="256.72862"
   inkscape:window-x="-11"
   inkscape:window-y="-11"
   inkscape:window-maximized="1"
   inkscape:current-layer="g1046" />























<g
   id="g60">
</g>
<g
   id="g62">
</g>
<g
   id="g64">
</g>
<g
   id="g66">
</g>
<g
   id="g68">
</g>
<g
   id="g70">
</g>
<g
   id="g72">
</g>
<g
   id="g74">
</g>
<g
   id="g76">
</g>
<g
   id="g78">
</g>
<g
   id="g80">
</g>
<g
   id="g82">
</g>
<g
   id="g84">
</g>
<g
   id="g86">
</g>
<g
   id="g88">
</g>
<g
   id="g1046"
   transform="matrix(0.55886315,0,0,0.55886315,157.54779,132.77619)"><rect
   y="-104.38158"
   x="-28.555799"
   height="673.03345"
   width="469.31418"
   id="rect2447-0-9"
   style="display:inline;fill:none;fill-opacity:1;stroke:url(#linearGradient2459-6-2);stroke-width:25.31489563;stroke-miterlimit:4;stroke-dasharray:none;stroke-opacity:1" /><text
   id="text2485-9"
   y="522.54254"
   x="73.490959"
   style="font-style:normal;font-weight:normal;font-size:76.99105835px;line-height:1.25;font-family:sans-serif;letter-spacing:0px;word-spacing:0px;display:inline;fill:#000000;fill-opacity:1;stroke:none;stroke-width:1.9247762"
   xml:space="preserve"><tspan
     style="stroke-width:1.9247762"
     y="522.54254"
     x="73.490959"
     id="tspan2483-7"
     sodipodi:role="line">CÉSAR</tspan></text>








<g
   transform="matrix(0.90182309,0,0,0.90182309,-24.765421,-24.553507)"
   id="g943"><path
     inkscape:connector-curvature="0"
     id="path2-9"
     d="m 413.862,374.103 -84.486,-24.849 c -10.235,-3.01 -17.263,-12.403 -17.263,-23.071 V 288.064 H 199.888 v 38.119 c 0,10.668 -7.028,20.061 -17.263,23.071 l -84.486,24.849 c -20.469,6.02 -34.525,24.806 -34.525,46.142 v 84.254 h 384.773 v -84.254 c 10e-4,-21.336 -14.056,-40.122 -34.525,-46.142 z"
     style="fill:#d29b6e" /><path
     inkscape:connector-curvature="0"
     id="path4-6"
     d="m 413.862,374.102 -84.486,-24.849 c -5.342,-1.572 -9.775,-4.905 -12.826,-9.228 l -60.549,20.184 -60.549,-20.183 c -3.052,4.323 -7.484,7.656 -12.826,9.228 L 98.14,374.103 c -20.469,6.02 -34.525,24.806 -34.525,46.142 v 84.254 h 384.773 v -84.254 c 0,-21.337 -14.057,-40.122 -34.526,-46.143 z"
     style="fill:#6e5a64" /><path
     inkscape:connector-curvature="0"
     id="path6-6"
     d="m 141.541,361.338 3.954,3.389 50.2,43.028 c 7.26,6.222 16.52,9.649 26.074,9.649 12.25,0 23.661,-5.483 31.308,-15.044 l 2.925,-3.655 2.925,3.656 c 7.648,9.56 19.06,15.043 31.308,15.043 9.554,0 18.814,-3.427 26.074,-9.649 l 50.2,-43.029 3.954,-3.389 -41.085,-12.084 c -5.343,-1.572 -9.776,-4.905 -12.827,-9.228 l -60.55,20.184 -60.549,-20.183 c -3.051,4.323 -7.484,7.656 -12.827,9.228 z"
     style="fill:#5a4650" /><path
     inkscape:connector-curvature="0"
     id="path8-4"
     d="M 372.235,167.822 H 360.211 V 127.741 H 151.792 v 40.081 h -12.024 c -11.068,0 -20.04,8.972 -20.04,20.04 0,11.068 8.972,20.04 20.04,20.04 h 12.024 c 0,57.553 46.656,104.209 104.209,104.209 57.553,0 104.209,-46.656 104.209,-104.209 h 12.024 c 11.068,0 20.04,-8.973 20.04,-20.04 10e-4,-11.068 -8.971,-20.04 -20.039,-20.04 z"
     style="fill:#f5b97d" /><path
     inkscape:connector-curvature="0"
     id="path10-5"
     d="M 183.856,207.903 V 164.667 H 344.178 V 127.742 H 151.792 v 40.081 h -11.544 c -10.462,0 -19.536,7.823 -20.443,18.246 -1.033,11.876 8.301,21.835 19.962,21.835 h 12.024 c 0,57.553 46.656,104.209 104.209,104.209 5.466,0 10.793,-0.547 16.032,-1.359 -49.919,-7.73 -88.176,-50.765 -88.176,-102.851 z"
     style="fill:#e3aa75" /><g
     id="g18"><path
       inkscape:connector-curvature="0"
       id="path12-1"
       d="m 256.001,231.951 c -42.969,0 -80.905,-9.277 -104.18,-23.468 0.317,57.283 46.823,103.629 104.18,103.629 57.357,0 103.863,-46.346 104.18,-103.629 -23.275,14.191 -61.211,23.468 -104.18,23.468 z"
       style="fill:#b7b2b8" /><rect
       id="rect14"
       height="40.080002"
       width="32.060001"
       style="fill:#b7b2b8"
       y="127.74"
       x="135.761" /><rect
       id="rect16"
       height="40.080002"
       width="32.060001"
       style="fill:#b7b2b8"
       y="127.74"
       x="344.181" /></g><g
     id="g24"><path
       inkscape:connector-curvature="0"
       id="path20"
       d="m 256.001,360.209 -64.826,-36.015 c -3.989,-2.216 -9.022,-0.66 -11.063,3.422 l -10.609,21.217 c -0.987,1.974 -0.504,4.366 1.172,5.803 l 40.669,34.859 c 6.884,5.901 17.288,4.923 22.953,-2.157 z"
       style="fill:#6e5a64" /><path
       inkscape:connector-curvature="0"
       id="path22-6"
       d="m 256.001,360.209 64.826,-36.015 c 3.99,-2.216 9.022,-0.66 11.063,3.422 l 10.609,21.217 c 0.987,1.974 0.504,4.366 -1.172,5.803 l -40.669,34.859 c -6.884,5.901 -17.288,4.923 -22.953,-2.157 z"
       style="fill:#6e5a64" /></g><path
     inkscape:connector-curvature="0"
     id="path26-8"
     d="M 353.699,43.204 C 348.084,22.15 329.017,7.5 307.226,7.5 h -102.45 c -21.79,0 -40.858,14.65 -46.473,35.704 l -22.543,84.538 h 240.483 z"
     style="fill:#b67f5f" /><path
     inkscape:connector-curvature="0"
     id="path28-4"
     d="m 272.033,264.531 h -32.064 c -8.854,0 -16.032,-7.178 -16.032,-16.032 v -24.564 h 64.129 v 24.564 c -10e-4,8.854 -7.178,16.032 -16.033,16.032 z"
     style="fill:#aea8af" /><path
     inkscape:connector-curvature="0"
     id="path30"
     d="m 236.84,7.5 h -32.064 c -21.79,0 -40.858,14.65 -46.473,35.704 l -22.543,84.538 h 32.064 L 190.367,43.204 C 195.982,22.15 215.05,7.5 236.84,7.5 Z"
     style="fill:#a06e50" /><polygon
     id="polygon32"
     points="367.692,95.677 144.31,95.677 137.897,119.726 374.105,119.726 "
     style="fill:#6e5a64" /><polygon
     id="polygon34"
     points="176.374,95.677 144.31,95.677 137.897,119.726 169.961,119.726 "
     style="fill:#5a4650" /><g
     id="g40"><polygon
       id="polygon36"
       points="167.824,353.607 135.759,363.038 135.759,504.499 167.824,504.499 "
       style="fill:#b67f5f" /><polygon
       id="polygon38"
       points="344.178,353.607 376.243,363.038 376.243,504.499 344.178,504.499 "
       style="fill:#b67f5f" /></g><g
     id="g46"><path
       inkscape:connector-curvature="0"
       id="path42-7"
       d="m 135.759,432.354 v 0 72.145 h -24.048 v -48.097 c 0,-13.281 10.767,-24.048 24.048,-24.048 z"
       style="fill:#5a4650" /><path
       inkscape:connector-curvature="0"
       id="path44"
       d="m 376.243,432.354 v 0 72.145 h 24.048 v -48.097 c 0,-13.281 -10.767,-24.048 -24.048,-24.048 z"
       style="fill:#5a4650" /></g><g
     id="g52"><path
       inkscape:connector-curvature="0"
       id="path48"
       d="m 256.001,223.935 h -24.048 c -13.282,0 -24.048,10.767 -24.048,24.048 v 0 h 24.048 c 13.281,0 24.048,-10.767 24.048,-24.048 v 0"
       style="fill:#c9c6ca" /><path
       inkscape:connector-curvature="0"
       id="path50"
       d="m 256.001,223.935 h 24.048 c 13.282,0 24.048,10.767 24.048,24.048 v 0 h -24.048 c -13.281,0 -24.048,-10.767 -24.048,-24.048 v 0"
       style="fill:#c9c6ca" /></g><path
     inkscape:connector-curvature="0"
     id="path54"
     d="m 184.979,222.487 c -12.867,-3.77 -24.136,-8.504 -33.158,-14.004 v 0.002 c 0.018,3.288 0.176,6.542 0.493,9.751 0.012,0.144 0.02,0.285 0.032,0.43 5.389,52.495 49.737,93.446 103.655,93.446 5.466,0 10.793,-0.547 16.032,-1.359 -45.165,-6.993 -80.678,-42.918 -87.054,-88.266 z"
     style="fill:#aea8af" /><path
     inkscape:connector-curvature="0"
     id="path56"
     d="m 256.081,496.999 h -0.08 c -4.142,0 -7.46,3.357 -7.46,7.5 0,4.143 3.398,7.5 7.54,7.5 4.142,0 7.5,-3.357 7.5,-7.5 0,-4.143 -3.358,-7.5 -7.5,-7.5 z" /><path
     inkscape:connector-curvature="0"
     id="path58"
     d="m 415.979,366.907 -65.723,-19.33 -11.658,-23.315 c -1.883,-3.766 -5.27,-6.64 -9.292,-7.884 -3.174,-0.981 -6.585,-0.887 -9.692,0.192 v -16.893 c 27.116,-18.853 45.515,-49.397 47.839,-84.274 h 3.639 c 14.617,0 27.154,-10.861 28.542,-24.727 0.778,-7.771 -1.764,-15.53 -6.974,-21.287 -2.522,-2.786 -5.568,-4.992 -8.917,-6.533 v -27.614 h 24.564 c 4.142,0 7.5,-3.357 7.5,-7.5 0,-4.143 -3.358,-7.5 -7.5,-7.5 H 382.004 L 360.945,41.272 C 354.466,16.972 332.376,0 307.227,0 H 204.775 c -25.149,0 -47.239,16.972 -53.719,41.271 l -21.059,78.97 h -26.303 c -4.142,0 -7.5,3.357 -7.5,7.5 0,4.143 3.358,7.5 7.5,7.5 h 24.564 v 27.948 c -8.63,4.115 -14.93,12.266 -15.891,21.859 -0.778,7.771 1.764,15.53 6.974,21.288 5.213,5.762 12.658,9.066 20.425,9.066 h 4.781 c 2.324,34.877 20.723,65.421 47.839,84.274 v 16.894 c -3.108,-1.08 -6.519,-1.174 -9.692,-0.193 -4.022,1.244 -7.409,4.118 -9.292,7.884 l -11.658,23.316 -65.723,19.33 c -23.498,6.911 -39.909,28.845 -39.909,53.338 v 84.254 c 0,4.143 3.358,7.5 7.5,7.5 4.142,0 7.5,-3.357 7.5,-7.5 v -84.254 c 0,-17.885 11.983,-33.9 29.142,-38.947 l 28.003,-8.236 v 131.437 c 0,4.143 3.358,7.5 7.5,7.5 4.142,0 7.5,-3.357 7.5,-7.5 V 368.65 l 17.064,-5.019 v 140.868 c 0,4.143 3.358,7.5 7.5,7.5 4.142,0 7.5,-3.357 7.5,-7.5 v -136 l 31.14,26.691 c 4.312,3.695 9.66,5.668 15.261,5.668 0.748,0 1.501,-0.035 2.256,-0.106 6.409,-0.603 12.152,-3.702 16.173,-8.728 l 15.85,-19.809 15.848,19.809 c 4.021,5.025 9.764,8.125 16.173,8.728 0.755,0.071 1.508,0.106 2.256,0.106 5.601,0 10.95,-1.973 15.261,-5.668 l 39.2,-33.601 24.002,7.059 V 504.5 c 0,4.143 3.358,7.5 7.5,7.5 4.142,0 7.5,-3.357 7.5,-7.5 V 373.061 l 28.005,8.237 c 17.158,5.047 29.142,21.063 29.142,38.947 v 84.254 c 0,4.143 3.358,7.5 7.5,7.5 4.142,0 7.5,-3.357 7.5,-7.5 v -84.254 c 0,-24.493 -16.411,-46.427 -39.909,-53.338 z M 335.646,160.322 v -0.517 c 0,-4.143 -3.358,-7.5 -7.5,-7.5 h -56.113 c -4.142,0 -7.5,3.357 -7.5,7.5 v 2.124 c -2.647,-1.034 -5.523,-1.608 -8.532,-1.608 -3.009,0 -5.885,0.574 -8.532,1.608 v -2.124 c 0,-4.143 -3.358,-7.5 -7.5,-7.5 h -56.113 c -4.142,0 -7.5,3.357 -7.5,7.5 v 0.517 h -1.032 v -25.081 h 161.354 v 25.081 z m -35.557,23.016 c 4.142,0 7.5,-3.357 7.5,-7.5 v -8.016 c 0,-0.174 -0.014,-0.345 -0.026,-0.517 h 13.083 v 16.549 c 0,4.705 -3.828,8.532 -8.532,8.532 h -24.048 c -4.705,0 -8.532,-3.827 -8.532,-8.532 v -16.549 h 13.082 c -0.012,0.171 -0.026,0.342 -0.026,0.517 v 8.016 c -10e-4,4.142 3.357,7.5 7.499,7.5 z M 191.356,167.306 h 13.083 c -0.012,0.171 -0.026,0.342 -0.026,0.517 v 8.016 c 0,4.143 3.358,7.5 7.5,7.5 4.142,0 7.5,-3.357 7.5,-7.5 v -8.016 c 0,-0.174 -0.014,-0.345 -0.026,-0.517 h 13.082 v 16.549 c 0,4.705 -3.828,8.532 -8.532,8.532 h -24.048 c -4.705,0 -8.532,-3.827 -8.532,-8.532 z m 160.322,-32.065 h 17.064 v 25.081 H 351.678 Z M 204.775,15 h 32.449 c 7.607,0 14.209,5.154 16.054,12.535 l 3.462,13.849 c 0.852,3.408 3.91,5.683 7.27,5.683 0.602,0 1.214,-0.073 1.825,-0.226 4.018,-1.005 6.461,-5.077 5.457,-9.096 L 267.83,23.896 C 267.028,20.687 265.749,17.701 264.088,15 h 43.138 c 18.364,0 34.494,12.393 39.226,30.137 l 11.477,43.04 h -29.786 c -4.142,0 -7.5,3.357 -7.5,7.5 0,4.143 3.358,7.5 7.5,7.5 h 33.786 l 4.551,17.064 H 145.521 l 4.551,-17.064 h 146.01 c 4.142,0 7.5,-3.357 7.5,-7.5 0,-4.143 -3.358,-7.5 -7.5,-7.5 h -142.01 l 11.477,-43.04 C 170.281,27.393 186.412,15 204.775,15 Z m -44.451,120.241 v 25.081 H 143.26 v -25.081 z m -29.86,61.03 c -2.406,-2.659 -3.533,-6.115 -3.171,-9.729 0.63,-6.292 6.612,-11.221 13.618,-11.221 h 35.445 v 8.532 c 0,12.976 10.557,23.532 23.532,23.532 h 24.048 c 12.976,0 23.532,-10.557 23.532,-23.532 0,-4.705 3.828,-8.532 8.532,-8.532 4.704,0 8.532,3.827 8.532,8.532 0,12.976 10.557,23.532 23.532,23.532 h 24.048 c 12.976,0 23.532,-10.557 23.532,-23.532 v -8.532 h 36.588 c 3.537,0 6.927,1.506 9.303,4.131 2.407,2.659 3.533,6.114 3.171,9.729 -0.629,6.292 -6.61,11.221 -13.616,11.221 h -3.381 v -0.516 c 0,-4.143 -3.358,-7.5 -7.5,-7.5 -4.142,0 -7.5,3.357 -7.5,7.5 v 4.258 c -20.003,14.302 -45.465,18.304 -52.982,19.206 -5.4,-4.323 -12.24,-6.916 -19.679,-6.916 h -48.097 c -7.441,0 -14.283,2.595 -19.683,6.92 -7.5,-0.886 -32.9,-4.841 -52.978,-19.208 v -4.26 c 0,-4.143 -3.358,-7.5 -7.5,-7.5 -4.142,0 -7.5,3.357 -7.5,7.5 v 0.516 h -4.524 c -3.535,0 -6.926,-1.506 -9.302,-4.131 z m 164.335,44.212 h -14.75 c -6.427,0 -12.01,-3.683 -14.75,-9.049 h 14.75 c 6.427,0.001 12.01,3.683 14.75,9.049 z m -62.846,-9.048 h 14.75 c -2.74,5.366 -8.323,9.049 -14.75,9.049 h -14.75 c 2.74,-5.367 8.323,-9.049 14.75,-9.049 z m -71.554,-8.887 c 15.448,8.56 31.606,12.616 41.967,14.485 -1.267,3.413 -1.962,7.102 -1.962,10.95 0,4.143 3.358,7.5 7.5,7.5 h 24.048 c 9.628,0 18.257,-4.34 24.048,-11.161 5.791,6.821 14.42,11.161 24.048,11.161 h 24.048 c 4.142,0 7.5,-3.357 7.5,-7.5 0,-3.849 -0.695,-7.537 -1.962,-10.95 10.361,-1.869 26.519,-5.925 41.967,-14.485 -7.079,46.401 -47.254,82.064 -95.602,82.064 -48.348,0 -88.521,-35.662 -95.6,-82.064 z m 95.602,97.064 c 17.413,0 33.908,-4.007 48.613,-11.145 v 16.154 l -48.613,27.008 -48.613,-27.006 v -16.155 c 14.705,7.137 31.2,11.144 48.613,11.144 z m -27.561,63.041 c -1.458,1.822 -3.54,2.946 -5.864,3.165 -2.32,0.216 -4.579,-0.497 -6.352,-2.017 l -39.074,-33.493 9.669,-19.338 c 0.024,-0.049 0.099,-0.197 0.309,-0.263 0.209,-0.063 0.355,0.016 0.403,0.043 l 57.067,31.704 z m 67.337,1.149 c -1.772,1.52 -4.028,2.232 -6.352,2.017 -2.324,-0.219 -4.406,-1.343 -5.864,-3.165 l -16.159,-20.198 57.067,-31.705 c 0.048,-0.025 0.195,-0.105 0.403,-0.042 0.21,0.065 0.285,0.214 0.309,0.263 l 9.669,19.338 z" /><path
     inkscape:connector-curvature="0"
     id="path60"
     d="m 344.176,384.773 c -4.142,0 -7.5,3.357 -7.5,7.5 V 504.5 c 0,4.143 3.358,7.5 7.5,7.5 4.142,0 7.5,-3.357 7.5,-7.5 V 392.273 c 0,-4.142 -3.358,-7.5 -7.5,-7.5 z" /><path
     inkscape:connector-curvature="0"
     id="path62"
     d="m 256.081,400.806 h -0.08 c -4.142,0 -7.46,3.357 -7.46,7.5 0,4.143 3.398,7.5 7.54,7.5 4.142,0 7.5,-3.357 7.5,-7.5 0,-4.143 -3.358,-7.5 -7.5,-7.5 z" /><path
     inkscape:connector-curvature="0"
     id="path64"
     d="m 256.081,448.902 h -0.08 c -4.142,0 -7.46,3.357 -7.46,7.5 0,4.143 3.398,7.5 7.54,7.5 4.142,0 7.5,-3.357 7.5,-7.5 0,-4.143 -3.358,-7.5 -7.5,-7.5 z" /><path
     inkscape:connector-curvature="0"
     id="path66"
     d="m 271.517,272.031 c 0,-4.143 -3.358,-7.5 -7.5,-7.5 h -16.032 c -4.142,0 -7.5,3.357 -7.5,7.5 0,4.143 3.358,7.5 7.5,7.5 h 16.032 c 4.142,0 7.5,-3.357 7.5,-7.5 z" /></g></g></svg>