<?xml version="1.0" encoding="UTF-8" standalone="no"?>
<!-- Generator: Adobe Illustrator 19.0.0, SVG Export Plug-In . SVG Version: 6.00 Build 0)  -->

<svg
   xmlns:osb="http://www.openswatchbook.org/uri/2009/osb"
   xmlns:dc="http://purl.org/dc/elements/1.1/"
   xmlns:cc="http://creativecommons.org/ns#"
   xmlns:rdf="http://www.w3.org/1999/02/22-rdf-syntax-ns#"
   xmlns:svg="http://www.w3.org/2000/svg"
   xmlns="http://www.w3.org/2000/svg"
   xmlns:xlink="http://www.w3.org/1999/xlink"
   xmlns:sodipodi="http://sodipodi.sourceforge.net/DTD/sodipodi-0.dtd"
   xmlns:inkscape="http://www.inkscape.org/namespaces/inkscape"
   version="1.1"
   id="Capa_1"
   x="0px"
   y="0px"
   viewBox="0 0 511.999 511.999"
   style="enable-background:new 0 0 511.999 511.999;"
   xml:space="preserve"
   sodipodi:docname="48.svg"
   inkscape:version="0.92.4 (5da689c313, 2019-01-14)"><metadata
   id="metadata95"><rdf:RDF><cc:Work
       rdf:about=""><dc:format>image/svg+xml</dc:format><dc:type
         rdf:resource="http://purl.org/dc/dcmitype/StillImage" /><dc:title /></cc:Work></rdf:RDF></metadata><defs
   id="defs93"><linearGradient
     id="linearGradient2457"
     osb:paint="solid"><stop
       style="stop-color:#000000;stop-opacity:1;"
       offset="0"
       id="stop2455" /></linearGradient><linearGradient
     inkscape:collect="always"
     xlink:href="#linearGradient2457"
     id="linearGradient2459-6-2"
     x1="1442.3572"
     y1="-339.5119"
     x2="1514.9286"
     y2="-339.5119"
     gradientUnits="userSpaceOnUse"
     gradientTransform="matrix(6.4669274,0,0,9.6773016,-9356.1743,3517.6929)" /></defs><sodipodi:namedview
   pagecolor="#ffffff"
   bordercolor="#666666"
   borderopacity="1"
   objecttolerance="10"
   gridtolerance="10"
   guidetolerance="10"
   inkscape:pageopacity="0"
   inkscape:pageshadow="2"
   inkscape:window-width="1920"
   inkscape:window-height="986"
   id="namedview91"
   showgrid="false"
   inkscape:zoom="1.3037307"
   inkscape:cx="55.636868"
   inkscape:cy="256.72862"
   inkscape:window-x="-11"
   inkscape:window-y="-11"
   inkscape:window-maximized="1"
   inkscape:current-layer="g1046" />























<g
   id="g60">
</g>
<g
   id="g62">
</g>
<g
   id="g64">
</g>
<g
   id="g66">
</g>
<g
   id="g68">
</g>
<g
   id="g70">
</g>
<g
   id="g72">
</g>
<g
   id="g74">
</g>
<g
   id="g76">
</g>
<g
   id="g78">
</g>
<g
   id="g80">
</g>
<g
   id="g82">
</g>
<g
   id="g84">
</g>
<g
   id="g86">
</g>
<g
   id="g88">
</g>
<g
   id="g1046"
   transform="matrix(0.55886315,0,0,0.55886315,157.54779,132.77619)"><rect
   y="-104.38158"
   x="-28.555799"
   height="673.03345"
   width="469.31418"
   id="rect2447-0-9"
   style="display:inline;fill:none;fill-opacity:1;stroke:url(#linearGradient2459-6-2);stroke-width:25.31489563;stroke-miterlimit:4;stroke-dasharray:none;stroke-opacity:1" /><text
   id="text2485-9"
   y="522.54254"
   x="75.38942"
   style="font-style:normal;font-weight:normal;font-size:76.99105835px;line-height:1.25;font-family:sans-serif;letter-spacing:0px;word-spacing:0px;display:inline;fill:#000000;fill-opacity:1;stroke:none;stroke-width:1.9247762"
   xml:space="preserve"><tspan
     style="stroke-width:1.9247762"
     y="522.54254"
     x="75.38942"
     id="tspan2483-7"
     sodipodi:role="line">TEDDY</tspan></text>








<g
   transform="matrix(0.90742339,0,0,0.90742339,-26.200006,-24.408283)"
   id="g928"><path
     inkscape:connector-curvature="0"
     id="path2"
     d="m 413.863,374.103 -84.486,-24.849 c -5.342,-1.572 -9.775,-4.905 -12.826,-9.228 H 195.452 c -3.052,4.323 -7.484,7.657 -12.826,9.228 L 98.14,374.103 c -20.469,6.02 -34.525,24.806 -34.525,46.142 V 504.5 h 384.774 v -84.254 c 0,-21.337 -14.057,-40.122 -34.526,-46.143 z"
     style="fill:#a06e50" /><path
     inkscape:connector-curvature="0"
     id="path4"
     d="m 256.001,424.339 c -47.652,0 -87.104,34.684 -94.751,80.161 h 189.502 c -7.646,-45.478 -47.099,-80.161 -94.751,-80.161 z"
     style="fill:#e3aa75" /><path
     inkscape:connector-curvature="0"
     id="path6"
     d="m 256.001,376.242 c 32.225,0 62.552,-8.107 89.077,-22.37 l -15.701,-4.618 c -5.343,-1.572 -9.776,-4.905 -12.827,-9.228 H 195.452 c -3.051,4.323 -7.484,7.657 -12.827,9.228 l -15.701,4.618 c 26.526,14.263 56.852,22.37 89.077,22.37 z"
     style="fill:#8c5f4b" /><circle
     id="circle8"
     r="48.099998"
     cy="55.599998"
     cx="376.241"
     style="fill:#b67f5f" /><circle
     id="circle10"
     r="16"
     cy="55.599998"
     cx="376.241"
     style="fill:#6e5a64" /><circle
     id="circle12"
     r="48.099998"
     cy="55.599998"
     cx="135.761"
     style="fill:#b67f5f" /><circle
     id="circle14"
     r="16"
     cy="55.599998"
     cx="135.761"
     style="fill:#6e5a64" /><circle
     id="circle16"
     r="164.33"
     cy="187.86"
     cx="256.00101"
     style="fill:#b67f5f" /><circle
     id="circle18"
     r="104.21"
     cy="199.89"
     cx="256.00101"
     style="fill:#f5b97d" /><path
     inkscape:connector-curvature="0"
     id="path20-1"
     d="m 183.856,199.887 c 0,-52.087 38.256,-95.122 88.177,-102.851 -5.24,-0.811 -10.566,-1.359 -16.032,-1.359 -57.553,0 -104.21,46.656 -104.21,104.21 0,57.554 46.656,104.21 104.21,104.21 5.467,0 10.793,-0.547 16.032,-1.359 -49.921,-7.729 -88.177,-50.764 -88.177,-102.851 z"
     style="fill:#e3aa75" /><path
     inkscape:connector-curvature="0"
     id="path22"
     d="m 219.929,227.915 c 0,17.708 16.15,32.064 36.073,32.064 19.923,0 36.073,-14.356 36.073,-32.064 z"
     style="fill:#ffffff" /><g
     id="g28"><path
       inkscape:connector-curvature="0"
       id="path24"
       d="m 278.046,330.149 c -90.757,0 -164.331,-73.573 -164.331,-164.331 0,-39.765 14.13,-76.227 37.635,-104.651 -36.449,30.142 -59.679,75.704 -59.679,126.696 0,90.757 73.573,164.331 164.331,164.331 50.992,0 96.554,-23.23 126.695,-59.68 -28.425,23.505 -64.886,37.635 -104.651,37.635 z"
       style="fill:#a06e50" /><path
       inkscape:connector-curvature="0"
       id="path26"
       d="m 272.034,119.726 h -32.065 c -13.282,0 -24.048,-10.767 -24.048,-24.048 v 0 c 0,-13.282 10.767,-24.048 24.048,-24.048 h 32.065 c 13.282,0 24.048,10.767 24.048,24.048 v 0 c 0,13.281 -10.767,24.048 -24.048,24.048 z"
       style="fill:#a06e50" /></g><circle
     id="circle30"
     r="16.030001"
     cy="71.629997"
     cx="256.00101"
     style="fill:#5a4650" /><path
     inkscape:connector-curvature="0"
     id="path32"
     d="m 207.905,199.371 c 4.142,0 7.5,-3.357 7.5,-7.5 v -8.017 c 0,-4.143 -3.358,-7.5 -7.5,-7.5 -4.142,0 -7.5,3.357 -7.5,7.5 v 8.017 c 0,4.143 3.358,7.5 7.5,7.5 z" /><path
     inkscape:connector-curvature="0"
     id="path34"
     d="m 311.598,191.871 v -8.017 c 0,-4.143 -3.358,-7.5 -7.5,-7.5 -4.142,0 -7.5,3.357 -7.5,7.5 v 8.017 c 0,4.143 3.358,7.5 7.5,7.5 4.142,0 7.5,-3.357 7.5,-7.5 z" /><path
     inkscape:connector-curvature="0"
     id="path36"
     d="m 415.98,366.908 -84.316,-24.799 c 56.912,-28.03 96.168,-86.636 96.168,-154.246 0,-30.854 -8.18,-59.83 -22.476,-84.886 C 421.672,92.967 431.84,75.155 431.84,55.596 431.84,24.94 406.899,0 376.243,0 354.912,0 335.581,12.266 326.327,31.093 304.85,21.421 281.044,16.032 256.001,16.032 c -25.043,0 -48.849,5.388 -70.326,15.061 C 176.422,12.266 157.091,0 135.76,0 105.104,0 80.163,24.94 80.163,55.597 c 0,19.558 10.168,37.371 26.484,47.381 -14.296,25.055 -22.476,54.032 -22.476,84.885 0,67.61 39.257,126.216 96.168,154.246 l -84.316,24.799 c -23.498,6.911 -39.909,28.845 -39.909,53.338 V 504.5 c 0,4.143 3.358,7.5 7.5,7.5 4.142,0 7.5,-3.357 7.5,-7.5 v -84.254 c 0,-17.885 11.983,-33.9 29.142,-38.947 l 84.487,-24.849 c 4.715,-1.388 8.969,-3.812 12.517,-7.102 18.336,6.69 38.119,10.345 58.741,10.345 20.622,0 40.406,-3.655 58.741,-10.345 3.549,3.29 7.802,5.714 12.518,7.102 l 84.486,24.849 c 17.158,5.047 29.142,21.063 29.142,38.947 V 504.5 c 0,4.143 3.358,7.5 7.5,7.5 4.142,0 7.5,-3.357 7.5,-7.5 v -84.254 c 0.001,-24.493 -16.41,-46.427 -39.908,-53.338 z M 376.243,15 c 22.385,0 40.597,18.212 40.597,40.597 0,14.34 -7.485,27.395 -19.484,34.689 -3.282,-4.739 -6.794,-9.306 -10.523,-13.685 7.67,-3.883 12.943,-11.837 12.943,-21.005 0,-12.976 -10.557,-23.532 -23.533,-23.532 -9.954,0 -18.478,6.216 -21.911,14.967 -4.704,-3.294 -9.58,-6.357 -14.612,-9.176 C 346.448,24.023 360.608,15 376.243,15 Z m -8.532,40.597 c 0,-4.705 3.828,-8.532 8.532,-8.532 4.705,0 8.533,3.827 8.533,8.532 0,4.705 -3.828,8.532 -8.533,8.532 -0.418,0 -0.832,-0.04 -1.241,-0.099 -2.284,-2.195 -4.627,-4.329 -7.028,-6.397 -0.162,-0.663 -0.263,-1.343 -0.263,-2.036 z m -272.548,0 C 95.163,33.212 113.375,15 135.76,15 c 15.635,0 29.795,9.023 36.523,22.855 -5.031,2.819 -9.908,5.882 -14.612,9.176 -3.433,-8.751 -11.957,-14.967 -21.911,-14.967 -12.976,0 -23.533,10.557 -23.533,23.532 0,9.168 5.273,17.122 12.943,21.005 -3.729,4.378 -7.241,8.945 -10.523,13.685 C 102.648,82.992 95.163,69.937 95.163,55.597 Z m 48.866,2.036 c -2.402,2.068 -4.745,4.202 -7.028,6.397 -0.409,0.059 -0.823,0.099 -1.241,0.099 -4.705,0 -8.533,-3.827 -8.533,-8.532 0,-4.705 3.828,-8.532 8.533,-8.532 4.705,0 8.532,3.827 8.532,8.532 0,0.693 -0.101,1.373 -0.263,2.036 z m -44.858,130.23 c 0,-86.477 70.354,-156.831 156.831,-156.831 86.477,0 156.831,70.354 156.831,156.831 0,86.477 -70.355,156.83 -156.832,156.83 -86.477,0 -156.83,-70.353 -156.83,-156.83 z" /><path
     inkscape:connector-curvature="0"
     id="path38"
     d="m 223.421,159.807 c 0,-4.143 -3.358,-7.5 -7.5,-7.5 h -16.032 c -4.142,0 -7.5,3.357 -7.5,7.5 0,4.143 3.358,7.5 7.5,7.5 h 16.032 c 4.142,0 7.5,-3.358 7.5,-7.5 z" /><path
     inkscape:connector-curvature="0"
     id="path40"
     d="m 319.614,159.807 c 0,-4.143 -3.358,-7.5 -7.5,-7.5 h -16.032 c -4.142,0 -7.5,3.357 -7.5,7.5 0,4.143 3.358,7.5 7.5,7.5 h 16.032 c 4.142,0 7.5,-3.358 7.5,-7.5 z" /><path
     inkscape:connector-curvature="0"
     id="path42"
     d="m 127.743,448.903 c -4.142,0 -7.5,3.357 -7.5,7.5 V 504.5 c 0,4.143 3.358,7.5 7.5,7.5 4.142,0 7.5,-3.357 7.5,-7.5 v -48.097 c 0,-4.142 -3.358,-7.5 -7.5,-7.5 z" /><path
     inkscape:connector-curvature="0"
     id="path44-0"
     d="m 384.26,448.903 c -4.142,0 -7.5,3.357 -7.5,7.5 V 504.5 c 0,4.143 3.358,7.5 7.5,7.5 4.142,0 7.5,-3.357 7.5,-7.5 v -48.097 c 0,-4.142 -3.358,-7.5 -7.5,-7.5 z" /><path
     inkscape:connector-curvature="0"
     id="path46"
     d="m 323.255,441.667 c -18.71,-16.011 -42.594,-24.828 -67.254,-24.828 -24.66,0 -48.544,8.817 -67.254,24.828 -18.483,15.816 -30.875,37.689 -34.893,61.59 -0.687,4.084 2.068,7.952 6.152,8.64 4.084,0.684 7.953,-2.068 8.64,-6.153 7.2,-42.823 43.938,-73.904 87.355,-73.904 43.417,0 80.155,31.081 87.355,73.904 0.616,3.664 3.792,6.258 7.387,6.258 0.413,0 0.832,-0.034 1.253,-0.104 4.084,-0.688 6.839,-4.556 6.152,-8.64 -4.018,-23.902 -16.41,-45.775 -34.893,-61.591 z" /><path
     inkscape:connector-curvature="0"
     id="path48-2"
     d="m 191.873,79.129 h 0.08 c 4.142,0 7.46,-3.357 7.46,-7.5 0,-4.143 -3.398,-7.5 -7.54,-7.5 -4.142,0 -7.5,3.357 -7.5,7.5 0,4.143 3.357,7.5 7.5,7.5 z" /><path
     inkscape:connector-curvature="0"
     id="path50-2"
     d="m 320.13,79.129 h 0.08 c 4.142,0 7.46,-3.357 7.46,-7.5 0,-4.143 -3.398,-7.5 -7.54,-7.5 -4.142,0 -7.5,3.357 -7.5,7.5 0,4.143 3.358,7.5 7.5,7.5 z" /><path
     inkscape:connector-curvature="0"
     id="path52"
     d="m 159.608,192.797 c 1.651,-23.114 11.598,-44.883 28.009,-61.294 7.659,-7.658 16.385,-13.865 25.983,-18.535 5.645,8.579 15.353,14.257 26.369,14.257 h 32.064 c 10.978,0 20.66,-5.64 26.313,-14.171 5.116,2.5 10.014,5.454 14.615,8.821 1.335,0.978 2.886,1.449 4.424,1.449 2.31,0 4.589,-1.064 6.058,-3.071 2.446,-3.343 1.72,-8.035 -1.623,-10.481 -5.767,-4.221 -11.941,-7.871 -18.4,-10.908 0.106,-1.048 0.161,-2.111 0.161,-3.187 0,-15.173 -10.767,-27.875 -25.062,-30.875 C 275.586,55.145 266.602,48.096 256,48.096 c -10.602,0 -19.586,7.049 -22.519,16.706 -14.294,3 -25.062,15.702 -25.062,30.875 0,1.031 0.053,2.049 0.151,3.055 -11.708,5.474 -22.308,12.911 -31.561,22.164 -18.962,18.963 -30.457,44.118 -32.365,70.832 -1.887,26.412 5.657,52.685 21.24,73.979 1.469,2.007 3.748,3.071 6.058,3.071 1.537,0 3.088,-0.472 4.423,-1.448 3.343,-2.446 4.069,-7.14 1.623,-10.482 -13.486,-18.43 -20.014,-41.177 -18.38,-64.051 z m 96.393,-129.7 c 4.705,0 8.532,3.827 8.532,8.532 0,4.705 -3.828,8.532 -8.532,8.532 -4.704,0 -8.532,-3.827 -8.532,-8.532 0,-4.705 3.828,-8.532 8.532,-8.532 z m -21.899,17.126 c 3.441,8.736 11.957,14.938 21.9,14.938 9.943,0 18.459,-6.202 21.9,-14.938 6.233,2.375 10.681,8.398 10.681,15.454 0,9.125 -7.423,16.548 -16.548,16.548 h -32.064 c -9.125,0 -16.548,-7.423 -16.548,-16.548 -0.002,-7.056 4.446,-13.079 10.679,-15.454 z" /><path
     inkscape:connector-curvature="0"
     id="path54-2"
     d="m 346.117,134.067 c -2.446,-3.342 -7.138,-4.068 -10.482,-1.622 -3.342,2.446 -4.069,7.139 -1.623,10.481 13.488,18.43 20.017,41.177 18.383,64.05 -1.651,23.115 -11.598,44.883 -28.009,61.294 -16.411,16.411 -38.18,26.359 -61.295,28.01 -22.868,1.635 -45.62,-4.894 -64.05,-18.383 -3.342,-2.444 -8.035,-1.72 -10.481,1.623 -2.446,3.343 -1.72,8.036 1.623,10.482 19.147,14.013 42.32,21.524 66.001,21.524 2.654,0 5.315,-0.095 7.977,-0.285 26.714,-1.908 51.87,-13.402 70.833,-32.364 18.962,-18.963 30.457,-44.118 32.365,-70.833 1.885,-26.411 -5.659,-52.684 -21.242,-73.977 z" /><path
     inkscape:connector-curvature="0"
     id="path56-5"
     d="m 256.001,267.479 c 24.026,0 43.573,-17.748 43.573,-39.564 0,-4.143 -3.358,-7.5 -7.5,-7.5 h -72.146 c -4.142,0 -7.5,3.357 -7.5,7.5 0.001,21.816 19.548,39.564 43.573,39.564 z m 27.211,-32.064 c -3.695,9.889 -14.497,17.064 -27.211,17.064 -12.714,0 -23.516,-7.176 -27.211,-17.064 z" /></g></g></svg>