<?xml version="1.0" encoding="UTF-8" standalone="no"?>
<!-- Generator: Adobe Illustrator 19.0.0, SVG Export Plug-In . SVG Version: 6.00 Build 0)  -->

<svg
   xmlns:osb="http://www.openswatchbook.org/uri/2009/osb"
   xmlns:dc="http://purl.org/dc/elements/1.1/"
   xmlns:cc="http://creativecommons.org/ns#"
   xmlns:rdf="http://www.w3.org/1999/02/22-rdf-syntax-ns#"
   xmlns:svg="http://www.w3.org/2000/svg"
   xmlns="http://www.w3.org/2000/svg"
   xmlns:xlink="http://www.w3.org/1999/xlink"
   xmlns:sodipodi="http://sodipodi.sourceforge.net/DTD/sodipodi-0.dtd"
   xmlns:inkscape="http://www.inkscape.org/namespaces/inkscape"
   version="1.1"
   id="Capa_1"
   x="0px"
   y="0px"
   viewBox="0 0 511.999 511.999"
   style="enable-background:new 0 0 511.999 511.999;"
   xml:space="preserve"
   sodipodi:docname="49.svg"
   inkscape:version="0.92.4 (5da689c313, 2019-01-14)"><metadata
   id="metadata95"><rdf:RDF><cc:Work
       rdf:about=""><dc:format>image/svg+xml</dc:format><dc:type
         rdf:resource="http://purl.org/dc/dcmitype/StillImage" /><dc:title></dc:title></cc:Work></rdf:RDF></metadata><defs
   id="defs93"><linearGradient
     id="linearGradient2457"
     osb:paint="solid"><stop
       style="stop-color:#000000;stop-opacity:1;"
       offset="0"
       id="stop2455" /></linearGradient><linearGradient
     inkscape:collect="always"
     xlink:href="#linearGradient2457"
     id="linearGradient2459-6-2"
     x1="1442.3572"
     y1="-339.5119"
     x2="1514.9286"
     y2="-339.5119"
     gradientUnits="userSpaceOnUse"
     gradientTransform="matrix(6.4669274,0,0,9.6773016,-9356.1743,3517.6929)" /></defs><sodipodi:namedview
   pagecolor="#ffffff"
   bordercolor="#666666"
   borderopacity="1"
   objecttolerance="10"
   gridtolerance="10"
   guidetolerance="10"
   inkscape:pageopacity="0"
   inkscape:pageshadow="2"
   inkscape:window-width="1920"
   inkscape:window-height="986"
   id="namedview91"
   showgrid="false"
   inkscape:zoom="1.3037307"
   inkscape:cx="204.82412"
   inkscape:cy="256.72862"
   inkscape:window-x="-11"
   inkscape:window-y="-11"
   inkscape:window-maximized="1"
   inkscape:current-layer="g1046" />























<g
   id="g60">
</g>
<g
   id="g62">
</g>
<g
   id="g64">
</g>
<g
   id="g66">
</g>
<g
   id="g68">
</g>
<g
   id="g70">
</g>
<g
   id="g72">
</g>
<g
   id="g74">
</g>
<g
   id="g76">
</g>
<g
   id="g78">
</g>
<g
   id="g80">
</g>
<g
   id="g82">
</g>
<g
   id="g84">
</g>
<g
   id="g86">
</g>
<g
   id="g88">
</g>
<g
   id="g1046"
   transform="matrix(0.55886315,0,0,0.55886315,157.54779,132.77619)"><rect
   y="-104.38158"
   x="-28.555799"
   height="673.03345"
   width="469.31418"
   id="rect2447-0-9"
   style="display:inline;fill:none;fill-opacity:1;stroke:url(#linearGradient2459-6-2);stroke-width:25.31489563;stroke-miterlimit:4;stroke-dasharray:none;stroke-opacity:1" /><text
   id="text2485-9"
   y="522.54254"
   x="56.348419"
   style="font-style:normal;font-weight:normal;font-size:76.99105835px;line-height:1.25;font-family:sans-serif;letter-spacing:0px;word-spacing:0px;display:inline;fill:#000000;fill-opacity:1;stroke:none;stroke-width:1.9247762"
   xml:space="preserve"><tspan
     style="stroke-width:1.9247762"
     y="522.54254"
     x="56.348419"
     id="tspan2483-7"
     sodipodi:role="line">ISMAEL</tspan></text>







<g
   transform="matrix(0.91546183,0,0,0.91546183,-28.257396,-28.427262)"
   id="g901"><path
     inkscape:connector-curvature="0"
     id="path2-3"
     d="m 413.862,387.765 -84.486,-24.849 c -10.235,-3.01 -17.263,-12.403 -17.263,-23.071 V 280.049 H 199.888 v 59.796 c 0,10.668 -7.028,20.061 -17.263,23.071 l -84.486,24.849 c -20.469,6.02 -34.525,24.806 -34.525,46.142 V 504.5 h 384.774 v -70.593 c -10e-4,-21.336 -14.057,-40.122 -34.526,-46.142 z"
     style="fill:#6e5a64" /><path
     inkscape:connector-curvature="0"
     id="path4-9"
     d="M 344.178,294.076 H 167.823 c -26.563,0 -48.097,21.534 -48.097,48.097 0,53.126 43.067,96.193 96.193,96.193 h 80.161 c 53.126,0 96.193,-43.068 96.193,-96.193 0.002,-26.563 -21.532,-48.097 -48.095,-48.097 z"
     style="fill:#84737b" /><path
     inkscape:connector-curvature="0"
     id="path6-2"
     d="m 342.045,318.125 c 17.449,0 24.301,22.63 9.782,32.309 L 256,414.318 160.173,350.434 c -14.518,-9.679 -7.666,-32.309 9.782,-32.309 z"
     style="fill:#6e5a64" /><path
     inkscape:connector-curvature="0"
     id="path8"
     d="m 180.42,363.931 75.58,50.387 75.581,-50.387 v 0 l -2.206,-0.649 C 319.14,360.272 312.112,350.878 312.112,340.21 V 288.064 H 199.888 v 52.146 c 0,10.668 -7.028,20.061 -17.263,23.072 z"
     style="fill:#f7d291" /><path
     inkscape:connector-curvature="0"
     id="path10"
     d="m 199.888,321.985 c 16.841,8.996 35.939,14.176 56.113,14.176 20.173,0 39.272,-5.18 56.113,-14.176 V 288.064 H 199.888 Z"
     style="fill:#f0c382" /><path
     inkscape:connector-curvature="0"
     id="path12"
     d="M 372.234,175.839 H 360.21 V 151.79 H 151.791 v 24.048 h -12.024 c -11.068,0 -20.04,8.972 -20.04,20.04 0,11.068 8.972,20.04 20.04,20.04 h 12.429 c 4.106,53.795 48.958,96.193 103.805,96.193 54.847,0 99.699,-42.398 103.805,-96.193 h 12.429 c 11.068,0 20.04,-8.973 20.04,-20.04 0,-11.067 -8.973,-20.039 -20.041,-20.039 z"
     style="fill:#ffe1a0" /><path
     inkscape:connector-curvature="0"
     id="path14"
     d="M 183.855,207.903 V 151.79 h -32.064 v 24.048 h -12.024 c -11.022,0 -20.04,9.018 -20.04,20.04 0,11.022 9.018,20.04 20.04,20.04 h 12.429 c 4.106,53.795 48.957,96.193 103.805,96.193 5.483,0 10.83,-0.534 16.083,-1.351 -49.947,-7.706 -88.229,-50.753 -88.229,-102.857 z"
     style="fill:#f7d291" /><path
     inkscape:connector-curvature="0"
     id="path16"
     d="M 256,7.5 C 195.042,7.5 144.805,52.901 136.949,111.71 H 375.05 C 367.195,52.901 316.958,7.5 256,7.5 Z"
     style="fill:#6e5a64" /><circle
     id="circle18-4"
     r="16.030001"
     cy="440.37"
     cx="256"
     style="fill:#5a4650" /><path
     inkscape:connector-curvature="0"
     id="path20"
     d="M 384.258,151.79 H 127.742 v -32.065 c 0,-4.427 3.589,-8.016 8.016,-8.016 h 240.484 c 4.427,0 8.016,3.589 8.016,8.016 z"
     style="fill:#84737b" /><g
     id="g26"><path
       inkscape:connector-curvature="0"
       id="path22-7"
       d="m 183.855,111.71 h -48.097 c -4.427,0 -8.016,3.589 -8.016,8.016 v 32.065 h 48.097 v -32.065 c 0,-4.428 3.589,-8.016 8.016,-8.016 z"
       style="fill:#6e5a64" /><path
       inkscape:connector-curvature="0"
       id="path24-1"
       d="m 376.242,175.839 -58.064,40.198 c -16.014,11.086 -36.84,3.668 -43.779,-12.472 -3.112,-7.239 -10.498,-11.697 -18.378,-11.7 h -0.031 c -7.886,-0.003 -15.276,4.458 -18.393,11.701 -6.945,16.134 -27.765,23.554 -43.774,12.471 L 135.759,175.839 V 151.79 h 240.484 v 24.049 z"
       style="fill:#6e5a64" /></g><path
     inkscape:connector-curvature="0"
     id="path28"
     d="m 127.793,175.839 h 256.416 c 0.004,-0.196 0.05,-0.379 0.05,-0.576 V 151.79 H 127.742 v 23.472 c 0,0.197 0.047,0.381 0.051,0.577 z"
     style="fill:#5a4650" /><path
     inkscape:connector-curvature="0"
     id="path30"
     d="m 415.978,382.94 -21.414,-6.298 c 3.377,-10.218 5.211,-21.131 5.211,-32.465 0,-30.656 -24.94,-55.597 -55.597,-55.597 h -11.001 c 17.73,-16.969 29.892,-39.706 33.447,-65.161 h 4.467 c 14.617,0 27.155,-10.861 28.544,-24.728 0.778,-7.771 -1.764,-15.529 -6.974,-21.286 -0.293,-0.324 -0.595,-0.637 -0.902,-0.946 v -56.734 c 0,-6.663 -4.229,-12.341 -10.137,-14.535 C 376.572,76.924 362.075,51.08 340.407,31.931 317.105,11.34 287.13,0 256.001,0 c -31.13,0 -61.105,11.34 -84.405,31.932 -21.668,19.149 -36.165,44.993 -41.216,73.259 -5.908,2.194 -10.137,7.872 -10.137,14.535 l 0.001,57.124 c -4.339,4.312 -7.247,9.953 -7.874,16.214 -0.779,7.771 1.762,15.53 6.972,21.289 5.213,5.762 12.658,9.066 20.426,9.066 h 5.607 c 3.553,25.456 15.711,48.193 33.438,65.161 h -10.99 c -30.656,0 -55.597,24.941 -55.597,55.598 0,11.334 1.834,22.247 5.211,32.464 l -21.414,6.298 c -23.498,6.911 -39.91,28.845 -39.91,53.338 V 504.5 c 0,4.143 3.358,7.5 7.5,7.5 4.142,0 7.5,-3.357 7.5,-7.5 v -68.222 c 0,-6.066 1.382,-11.916 3.874,-17.197 l 36.678,31.438 c 5.451,4.673 8.578,11.471 8.578,18.65 v 35.33 c 0,4.143 3.358,7.5 7.5,7.5 4.142,0 7.5,-3.357 7.5,-7.5 v -35.33 c 0,-11.564 -5.036,-22.513 -13.816,-30.039 L 83.795,406.874 c 4.567,-4.358 10.163,-7.692 16.461,-9.544 l 22.952,-6.751 c 17.057,33.942 52.207,57.291 92.712,57.291 h 17.781 c 2.344,6.951 7.849,12.455 14.8,14.8 v 41.83 c 0,4.143 3.358,7.5 7.5,7.5 4.142,0 7.5,-3.357 7.5,-7.5 v -41.829 c 6.951,-2.344 12.455,-7.849 14.8,-14.8 h 17.781 c 40.505,0 75.655,-23.348 92.712,-57.291 l 22.952,6.751 c 6.298,1.852 11.894,5.187 16.461,9.544 l -37.632,32.255 c -8.78,7.526 -13.815,18.475 -13.815,30.039 v 35.33 c 0,4.143 3.357,7.5 7.5,7.5 4.143,0 7.5,-3.357 7.5,-7.5 v -35.33 c 0,-7.18 3.126,-13.978 8.577,-18.65 l 36.677,-31.437 c 2.491,5.281 3.874,11.13 3.874,17.196 V 504.5 c 0,4.143 3.357,7.5 7.5,7.5 4.143,0 7.5,-3.357 7.5,-7.5 v -68.222 c -10e-4,-24.493 -16.412,-46.426 -39.91,-53.338 z m -63.27,-199.931 -38.799,26.861 c -5.516,3.819 -12.051,4.918 -18.408,3.094 -6.355,-1.825 -11.669,-6.446 -14.214,-12.363 -4.238,-9.857 -14.154,-16.23 -25.294,-16.236 -0.004,0 -0.007,0 -0.011,0 -11.107,0 -21.028,6.372 -25.273,16.235 -2.547,5.918 -7.864,10.54 -14.221,12.363 -6.35,1.823 -12.883,0.725 -18.396,-3.092 l -38.8,-26.862 V 159.29 H 352.71 Z m 32,14.188 c -0.63,6.292 -6.612,11.222 -13.618,11.222 h -3.389 c 10e-4,-0.146 0.006,-0.292 0.006,-0.438 l 0.001,-24.642 h 4.527 c 3.537,0 6.928,1.506 9.303,4.131 2.407,2.659 3.533,6.113 3.17,9.727 z m -16.999,-28.858 v -9.049 h 9.048 v 9.429 c -1.486,-0.249 -2.997,-0.38 -4.522,-0.38 z m -1.566,-64.129 h -23.272 c -3.514,-27.37 -13.128,-52.449 -27.416,-71.203 -0.453,-0.594 -0.91,-1.178 -1.371,-1.757 26.07,15.785 45.449,41.884 52.059,72.96 z m -38.391,0 h -32.514 c -1.617,-30.556 -6.634,-62.975 -16.086,-83.39 24.167,12.482 43.091,43.93 48.6,83.39 z M 256.001,15 c 1.734,0 8.068,4.545 14.221,24.738 5.137,16.855 8.629,39.525 9.989,64.472 h -48.42 c 1.36,-24.947 4.852,-47.617 9.989,-64.472 C 247.933,19.545 254.267,15 256.001,15 Z m -58.169,16.302 c -6.601,8.343 -12.401,18.19 -17.152,29.375 -1.62,3.813 0.158,8.216 3.971,9.836 3.813,1.619 8.215,-0.159 9.835,-3.971 9.298,-21.888 22.87,-37.784 38.379,-45.755 -9.462,20.413 -14.483,52.85 -16.102,83.422 h -32.511 c 0.337,-2.412 0.722,-4.807 1.16,-7.167 0.757,-4.072 -1.931,-7.987 -6.003,-8.744 -4.071,-0.756 -7.987,1.932 -8.744,6.004 -0.605,3.255 -1.112,6.57 -1.54,9.907 h -23.267 c 6.603,-31.041 25.948,-57.116 51.974,-72.907 z m -58.065,177.117 c -3.537,0 -6.928,-1.506 -9.303,-4.131 -2.406,-2.659 -3.532,-6.114 -3.17,-9.729 0.63,-6.292 6.612,-11.221 13.619,-11.221 h 3.379 v 24.564 c 0,0.172 0.006,0.344 0.007,0.516 z m -4.523,-39.523 v -9.606 h 9.048 v 9.049 h -3.379 c -1.934,0 -3.829,0.195 -5.669,0.557 z m -0.002,-24.606 v -24.564 c 0,-0.284 0.231,-0.516 0.516,-0.516 h 240.484 c 0.284,0 0.516,0.231 0.516,0.516 v 24.564 z m 24.05,63.613 v -6.651 l 30.262,20.952 c 9.146,6.331 20.472,8.217 31.071,5.178 10.793,-3.097 19.491,-10.697 23.862,-20.852 1.874,-4.354 6.385,-7.166 11.525,-7.166 10e-4,0 0.003,0 0.005,0 5.111,0.003 9.621,2.813 11.491,7.162 4.366,10.155 13.061,17.757 23.854,20.855 3.324,0.954 6.719,1.424 10.097,1.424 7.396,0 14.706,-2.253 20.988,-6.603 l 30.26,-20.95 v 6.721 c -0.039,53.286 -43.421,96.638 -96.706,96.638 -53.325,0.001 -96.709,-43.382 -96.709,-96.708 z m 160.322,119.726 h 22.431 c 5.546,0 8.647,3.719 9.701,7.198 1.054,3.479 0.535,8.294 -4.079,11.37 l -17.278,11.519 c -6.397,-2.391 -10.775,-8.602 -10.775,-15.5 z M 233.701,432.871 H 215.92 c -48.906,0 -88.693,-39.788 -88.693,-88.694 0,-22.385 18.211,-40.597 40.597,-40.597 h 24.564 v 9.049 h -22.432 c -11.331,0 -20.773,7.007 -24.057,17.852 -3.284,10.844 0.687,21.912 10.114,28.197 l 90.35,60.234 c -5.933,2.675 -10.564,7.737 -12.662,13.959 z M 192.387,327.629 v 14.587 c 0,6.899 -4.378,13.109 -10.775,15.5 l -17.279,-11.519 c -4.614,-3.076 -5.132,-7.891 -4.078,-11.37 1.054,-3.479 4.155,-7.198 9.7,-7.198 z M 264.531,440.4 c -0.016,4.692 -3.835,8.503 -8.53,8.503 -4.701,0 -8.526,-3.822 -8.532,-8.522 0,-0.003 0,-0.007 0,-0.01 0,-0.003 0,-0.006 0,-0.01 0.005,-4.7 3.83,-8.522 8.532,-8.522 4.695,0 8.514,3.812 8.53,8.503 0,0.01 -0.001,0.019 -0.001,0.029 0,0.01 0.001,0.019 0.001,0.029 z m 31.55,-7.529 H 278.3 c -2.098,-6.222 -6.729,-11.285 -12.662,-13.96 l 26.588,-17.726 c 3.446,-2.298 4.378,-6.954 2.08,-10.4 -2.297,-3.446 -6.954,-4.377 -10.4,-2.08 L 256,407.309 l -60.6,-40.4 c 7.37,-5.878 11.988,-14.919 11.988,-24.692 v -33.749 c 14.705,7.137 31.2,11.145 48.614,11.145 17.411,0 33.906,-4.01 48.612,-11.151 v 33.754 c 0,9.773 4.617,18.814 11.987,24.692 L 311.963,370 c -3.446,2.298 -4.378,6.954 -2.08,10.4 1.445,2.168 3.823,3.341 6.247,3.341 1.43,0 2.875,-0.408 4.153,-1.261 l 35.703,-23.803 c 9.428,-6.285 13.398,-17.353 10.115,-28.197 -3.284,-10.845 -12.727,-17.852 -24.058,-17.852 h -22.431 v -9.049 h 24.564 c 22.385,0 40.597,18.212 40.597,40.598 0.002,48.906 -39.786,88.694 -88.692,88.694 z" /><path
     inkscape:connector-curvature="0"
     id="path32-8"
     d="m 207.905,199.371 c 4.142,0 7.5,-3.357 7.5,-7.5 v -8.017 c 0,-4.143 -3.358,-7.5 -7.5,-7.5 -4.142,0 -7.5,3.357 -7.5,7.5 v 8.017 c 0,4.143 3.357,7.5 7.5,7.5 z" /><path
     inkscape:connector-curvature="0"
     id="path34-4"
     d="m 304.098,199.371 c 4.143,0 7.5,-3.357 7.5,-7.5 v -8.017 c 0,-4.143 -3.357,-7.5 -7.5,-7.5 -4.143,0 -7.5,3.357 -7.5,7.5 v 8.017 c 0,4.143 3.356,7.5 7.5,7.5 z" /><path
     inkscape:connector-curvature="0"
     id="path36-8"
     d="m 239.969,255.483 h 32.064 c 4.143,0 7.5,-3.357 7.5,-7.5 0,-4.143 -3.357,-7.5 -7.5,-7.5 h -32.064 c -4.142,0 -7.5,3.357 -7.5,7.5 0,4.143 3.357,7.5 7.5,7.5 z" /></g></g></svg>