<?xml version="1.0" encoding="UTF-8" standalone="no"?>
<!-- Generator: Adobe Illustrator 19.0.0, SVG Export Plug-In . SVG Version: 6.00 Build 0)  -->

<svg
   xmlns:osb="http://www.openswatchbook.org/uri/2009/osb"
   xmlns:dc="http://purl.org/dc/elements/1.1/"
   xmlns:cc="http://creativecommons.org/ns#"
   xmlns:rdf="http://www.w3.org/1999/02/22-rdf-syntax-ns#"
   xmlns:svg="http://www.w3.org/2000/svg"
   xmlns="http://www.w3.org/2000/svg"
   xmlns:xlink="http://www.w3.org/1999/xlink"
   xmlns:sodipodi="http://sodipodi.sourceforge.net/DTD/sodipodi-0.dtd"
   xmlns:inkscape="http://www.inkscape.org/namespaces/inkscape"
   version="1.1"
   id="Capa_1"
   x="0px"
   y="0px"
   viewBox="0 0 511.999 511.999"
   style="enable-background:new 0 0 511.999 511.999;"
   xml:space="preserve"
   sodipodi:docname="52.svg"
   inkscape:version="0.92.4 (5da689c313, 2019-01-14)"><metadata
   id="metadata95"><rdf:RDF><cc:Work
       rdf:about=""><dc:format>image/svg+xml</dc:format><dc:type
         rdf:resource="http://purl.org/dc/dcmitype/StillImage" /><dc:title /></cc:Work></rdf:RDF></metadata><defs
   id="defs93"><linearGradient
     id="linearGradient2457"
     osb:paint="solid"><stop
       style="stop-color:#000000;stop-opacity:1;"
       offset="0"
       id="stop2455" /></linearGradient><linearGradient
     inkscape:collect="always"
     xlink:href="#linearGradient2457"
     id="linearGradient2459-6-2"
     x1="1442.3572"
     y1="-339.5119"
     x2="1514.9286"
     y2="-339.5119"
     gradientUnits="userSpaceOnUse"
     gradientTransform="matrix(6.4669274,0,0,9.6773016,-9356.1743,3517.6929)" /><pattern
     y="0"
     x="0"
     height="6"
     width="6"
     patternUnits="userSpaceOnUse"
     id="EMFhbasepattern" /></defs><sodipodi:namedview
   pagecolor="#ffffff"
   bordercolor="#666666"
   borderopacity="1"
   objecttolerance="10"
   gridtolerance="10"
   guidetolerance="10"
   inkscape:pageopacity="0"
   inkscape:pageshadow="2"
   inkscape:window-width="1920"
   inkscape:window-height="986"
   id="namedview91"
   showgrid="false"
   inkscape:zoom="1.3037307"
   inkscape:cx="94.755378"
   inkscape:cy="256.72862"
   inkscape:window-x="-11"
   inkscape:window-y="-11"
   inkscape:window-maximized="1"
   inkscape:current-layer="g1046" />























<g
   id="g60">
</g>
<g
   id="g62">
</g>
<g
   id="g64">
</g>
<g
   id="g66">
</g>
<g
   id="g68">
</g>
<g
   id="g70">
</g>
<g
   id="g72">
</g>
<g
   id="g74">
</g>
<g
   id="g76">
</g>
<g
   id="g78">
</g>
<g
   id="g80">
</g>
<g
   id="g82">
</g>
<g
   id="g84">
</g>
<g
   id="g86">
</g>
<g
   id="g88">
</g>
<g
   id="g1046"
   transform="matrix(0.55886315,0,0,0.55886315,157.54779,132.77619)"><rect
   y="-104.38158"
   x="-28.555799"
   height="673.03345"
   width="469.31418"
   id="rect2447-0-9"
   style="display:inline;fill:none;fill-opacity:1;stroke:url(#linearGradient2459-6-2);stroke-width:25.31489563;stroke-miterlimit:4;stroke-dasharray:none;stroke-opacity:1" /><text
   id="text2485-9"
   y="522.54254"
   x="119.01643"
   style="font-style:normal;font-weight:normal;font-size:76.99105835px;line-height:1.25;font-family:sans-serif;letter-spacing:0px;word-spacing:0px;display:inline;fill:#000000;fill-opacity:1;stroke:none;stroke-width:1.9247762"
   xml:space="preserve"><tspan
     style="stroke-width:1.9247762"
     y="522.54254"
     x="119.01643"
     id="tspan2483-7"
     sodipodi:role="line">ONA</tspan></text>










<g
   transform="matrix(0.94606446,0,0,0.94606446,-36.092158,-45.833284)"
   id="g904"><path
     inkscape:connector-curvature="0"
     id="path2"
     d="m 402.577,451.08 -77.085,-27.207 c -12.82,-4.525 -21.393,-16.642 -21.393,-30.237 v -49.458 h -96.194 v 49.459 c 0,13.595 -8.573,25.712 -21.393,30.237 l -77.086,27.207 c -22.65,7.994 -37.796,29.401 -37.795,53.42 h 368.741 c 10e-4,-24.02 -15.145,-45.427 -37.795,-53.421 z"
     style="fill:#f7d291" /><path
     inkscape:connector-curvature="0"
     id="path4"
     d="m 402.577,451.08 -77.085,-27.207 c -8.416,-2.971 -14.938,-9.243 -18.47,-17.028 l -51.02,25.51 -51.02,-25.51 c -3.532,7.785 -10.054,14.058 -18.47,17.028 l -77.086,27.207 c -22.649,7.993 -37.796,29.4 -37.792,53.42 h 368.733 c 0.006,-24.02 -15.141,-45.427 -37.79,-53.42 z"
     style="fill:#8cb4eb" /><path
     inkscape:connector-curvature="0"
     id="path6"
     d="m 207.905,390.37 c 14.753,6.391 31.02,9.92 48.097,9.92 17.077,0 33.344,-3.529 48.097,-9.92 v -46.193 h -96.194 z"
     style="fill:#f0c382" /><path
     inkscape:connector-curvature="0"
     id="path8-4"
     d="m 135.76,272.032 h 72.192 l -2.552,80.662 c -8.934,18.537 -53.608,55.612 -53.608,55.612 v 8.016 c 0,0 27.555,39.58 40.081,88.177 H 135.76 v -96.194 c -8.016,-64.128 0,-136.273 0,-136.273 z"
     style="fill:#6e5a64" /><path
     inkscape:connector-curvature="0"
     id="path10-6"
     d="m 151.792,432.355 h -8.016 c -8.854,0 -16.032,-7.178 -16.032,-16.032 v 0 c 0,-8.854 7.178,-16.032 16.032,-16.032 h 8.016 c 8.854,0 16.032,7.178 16.032,16.032 v 0 c 10e-4,8.854 -7.177,16.032 -16.032,16.032 z"
     style="fill:#5a4650" /><g
     id="g16"><path
       inkscape:connector-curvature="0"
       id="path12-2"
       d="m 376.244,272.032 h -72.192 l 2.552,80.662 c 8.934,18.537 53.608,55.612 53.608,55.612 v 8.016 c 0,0 -27.555,39.58 -40.081,88.177 h 56.113 v -96.194 c 8.016,-64.128 0,-136.273 0,-136.273 z"
       style="fill:#6e5a64" /><circle
       id="circle14"
       r="16.030001"
       cy="432.35999"
       cx="256.00101"
       style="fill:#6e5a64" /></g><path
     inkscape:connector-curvature="0"
     id="path18-5"
     d="m 360.212,432.355 h 8.016 c 8.854,0 16.032,-7.178 16.032,-16.032 v 0 c 0,-8.854 -7.178,-16.032 -16.032,-16.032 h -8.016 c -8.854,0 -16.032,7.178 -16.032,16.032 v 0 c -0.001,8.854 7.177,16.032 16.032,16.032 z"
     style="fill:#5a4650" /><path
     inkscape:connector-curvature="0"
     id="path20-2"
     d="M 317.011,50.62 290.86,20.111 C 283.999,12.107 273.982,7.5 263.44,7.5 c -14.272,0 -27.206,8.406 -33.002,21.447 l 65.645,58.714 18.375,-13.782 c 7.411,-5.557 8.582,-16.223 2.553,-23.259 z"
     style="fill:#739bd7" /><path
     inkscape:connector-curvature="0"
     id="path22"
     d="m 263.44,7.5 v 0 c -14.272,0 -27.206,8.405 -33.002,21.447 L 175.841,151.79 h 160.323 z"
     style="fill:#8cb4eb" /><path
     inkscape:connector-curvature="0"
     id="path24"
     d="M 372.236,239.968 H 139.768 c -11.068,0 -20.04,8.972 -20.04,20.04 0,11.067 8.972,20.04 20.04,20.04 h 12.429 c 4.106,53.796 48.958,96.194 103.805,96.194 54.847,0 99.699,-42.398 103.805,-96.194 h 12.429 c 11.068,0 20.04,-8.973 20.04,-20.04 0,-11.068 -8.972,-20.04 -20.04,-20.04 z"
     style="fill:#ffe1a0" /><path
     inkscape:connector-curvature="0"
     id="path26"
     d="m 336.163,247.984 v -8.016 H 140.912 c -10.483,0 -20.035,7.542 -21.081,17.972 -1.202,11.996 8.186,22.109 19.936,22.109 h 12.429 c 4.106,53.796 48.957,96.194 103.805,96.194 5.483,0 10.83,-0.534 16.083,-1.35 -49.946,-7.709 -88.228,-42.738 -88.228,-94.843 v 0 c 0,-8.854 7.178,-16.032 16.032,-16.032 h 120.243 c 8.854,-0.002 16.032,-7.18 16.032,-16.034 z"
     style="fill:#f7d291" /><path
     inkscape:connector-curvature="0"
     id="path28-5"
     d="M 428.853,229.449 344.179,183.855 H 167.825 l -84.674,45.594 c -5.117,2.756 -3.159,10.519 2.652,10.519 h 340.398 c 5.811,0 7.769,-7.764 2.652,-10.519 z"
     style="fill:#8cb4eb" /><path
     inkscape:connector-curvature="0"
     id="path30-2"
     d="M 336.163,151.79 H 175.841 c -4.427,0 -8.016,3.589 -8.016,8.016 v 24.048 H 344.18 v -24.048 c -0.001,-4.426 -3.589,-8.016 -8.017,-8.016 z"
     style="fill:#6e5a64" /><path
     inkscape:connector-curvature="0"
     id="path32"
     d="M 230.438,28.947 175.841,151.79 h 40.081 L 254.052,8.8 c -10.348,2.792 -19.128,10.053 -23.614,20.147 z"
     style="fill:#739bd7" /><path
     inkscape:connector-curvature="0"
     id="path34"
     d="m 175.841,151.79 c -4.427,0 -8.016,3.589 -8.016,8.016 v 24.048 h 40.081 V 151.79 Z"
     style="fill:#5a4650" /><path
     inkscape:connector-curvature="0"
     id="path36"
     d="m 170.266,229.449 37.639,-45.594 h -40.081 l -84.673,45.594 c -5.117,2.756 -3.159,10.519 2.652,10.519 h 85.665 c -2.632,0 -3.518,-7.764 -1.202,-10.519 z"
     style="fill:#739bd7" /><path
     inkscape:connector-curvature="0"
     id="path38"
     d="m 285.272,317.452 c 2.948,-2.909 2.98,-7.657 0.071,-10.606 -2.909,-2.949 -7.658,-2.98 -10.606,-0.071 -2.737,2.7 -9.299,5.854 -18.781,5.854 -9.482,0 -16.043,-3.154 -18.781,-5.854 -2.949,-2.911 -7.698,-2.878 -10.606,0.071 -2.909,2.949 -2.877,7.697 0.071,10.606 6.459,6.372 17.418,10.177 29.316,10.177 11.898,0 22.856,-3.805 29.316,-10.177 z" /><path
     inkscape:connector-curvature="0"
     id="path40"
     d="m 410.78,446.021 -27.036,-9.542 v -2.487 c 4.909,-4.316 8.017,-10.635 8.017,-17.67 0,-6.926 -3.009,-13.161 -7.787,-17.471 6.251,-52.328 2.196,-98.393 0.407,-114.156 9.086,-4.505 15.349,-13.876 15.349,-24.687 0,-4.515 -1.099,-8.776 -3.033,-12.54 h 29.504 c 6.102,0 11.205,-3.976 12.696,-9.893 1.492,-5.917 -1.115,-11.837 -6.489,-14.73 l -80.729,-43.47 v -19.568 c 0,-6.771 -4.366,-12.527 -10.425,-14.641 l -29.588,-59.817 7.292,-5.469 c 5.185,-3.889 8.565,-9.814 9.272,-16.257 0.708,-6.443 -1.306,-12.962 -5.525,-17.884 L 296.555,15.23 C 288.258,5.551 276.189,0 263.44,0 246.221,0 230.577,10.167 223.584,25.901 l -53.04,119.34 c -5.951,2.172 -10.22,7.872 -10.22,14.566 v 19.568 l -80.73,43.47 c -5.373,2.894 -7.98,8.813 -6.488,14.73 1.492,5.917 6.594,9.893 12.696,9.893 h 29.412 c -1.934,3.764 -3.033,8.025 -3.033,12.54 0,10.849 6.307,20.25 15.446,24.737 -0.303,2.707 -0.672,6.307 -1.047,10.701 -0.352,4.127 2.709,7.758 6.836,8.109 0.217,0.019 0.432,0.027 0.646,0.027 3.854,0 7.131,-2.953 7.464,-6.863 0.31,-3.641 0.619,-6.726 0.884,-9.17 h 2.918 c 4.253,30.471 20.841,57.042 44.543,74.491 -8.232,10.997 -25.19,25.071 -33.248,31.251 -1.56,-0.327 -3.175,-0.501 -4.831,-0.501 h -8.016 c -0.444,0 -0.885,0.015 -1.323,0.04 -2.242,-20.514 -3.13,-42.171 -2.613,-64.505 0.096,-4.142 -3.184,-7.576 -7.325,-7.672 -0.059,-0.001 -0.118,-0.002 -0.177,-0.002 -4.062,0 -7.4,3.245 -7.495,7.326 -0.568,24.584 0.519,48.401 3.201,70.862 -4.786,4.311 -7.801,10.551 -7.801,17.484 0,7.035 3.107,13.354 8.017,17.67 v 2.487 l -27.036,9.542 c -22.187,7.831 -37.093,28.899 -37.093,52.427 v 6.052 c 0,4.143 3.358,7.5 7.5,7.5 4.142,0 7.5,-3.357 7.5,-7.5 v -6.052 c 0,-17.18 10.885,-32.564 27.085,-38.282 l 22.044,-7.78 V 504.5 c 0,4.143 3.358,7.5 7.5,7.5 4.142,0 7.5,-3.357 7.5,-7.5 v -64.646 h 8.532 c 1.205,0 2.388,-0.092 3.545,-0.267 5.798,10.144 22.91,41.335 29.26,66.732 0.852,3.407 3.91,5.683 7.27,5.683 0.602,0 1.214,-0.073 1.825,-0.226 4.019,-1.005 6.462,-5.077 5.457,-9.096 -5.993,-23.974 -20.283,-51.658 -27.922,-65.459 l 17.781,-6.276 c 7.798,-2.752 14.329,-7.805 18.946,-14.229 l 24.747,12.373 c -0.149,1.068 -0.232,2.157 -0.232,3.265 0,10.354 6.724,19.16 16.032,22.3 V 504.5 c 0,4.143 3.358,7.5 7.5,7.5 4.142,0 7.5,-3.357 7.5,-7.5 v -49.846 c 9.308,-3.139 16.032,-11.946 16.032,-22.3 0,-1.108 -0.083,-2.197 -0.232,-3.265 l 24.747,-12.373 c 4.617,6.424 11.147,11.477 18.946,14.229 l 17.781,6.276 c -7.638,13.801 -21.928,41.486 -27.922,65.459 -1.005,4.019 1.438,8.091 5.457,9.096 0.61,0.152 1.222,0.226 1.825,0.226 3.36,0 6.418,-2.275 7.27,-5.683 6.341,-25.363 23.461,-56.581 29.261,-66.732 1.156,0.175 2.34,0.267 3.544,0.267 h 8.532 V 504.5 c 0,4.143 3.358,7.5 7.5,7.5 4.142,0 7.5,-3.357 7.5,-7.5 v -52.114 l 22.044,7.78 c 16.201,5.718 27.085,21.103 27.085,38.282 v 6.052 c 0,4.143 3.358,7.5 7.5,7.5 4.142,0 7.5,-3.357 7.5,-7.5 v -6.052 c 0.002,-23.527 -14.905,-44.595 -37.091,-52.427 z M 237.291,31.993 C 241.879,21.67 252.143,15 263.44,15 c 8.364,0 16.283,3.642 21.726,9.992 l 26.15,30.509 c 1.553,1.811 2.264,4.114 2.004,6.484 -0.261,2.37 -1.455,4.464 -3.362,5.895 l -5.057,3.792 -6.038,-12.207 c -1.836,-3.713 -6.334,-5.232 -10.048,-3.397 -3.713,1.837 -5.234,6.335 -3.397,10.048 l 38.668,78.174 H 187.381 Z M 93.363,232.468 169.716,191.355 h 118.348 c 4.142,0 7.5,-3.357 7.5,-7.5 0,-4.143 -3.358,-7.5 -7.5,-7.5 H 175.325 v -16.548 c 0,-0.282 0.227,-0.51 0.508,-0.515 0.001,0 0.003,0 0.004,0 0.009,0 0.018,-0.002 0.027,-0.002 h 160.277 c 0.01,0 0.019,0.002 0.028,0.002 0.001,0 0.002,0 0.003,0 0.28,0.005 0.507,0.233 0.507,0.515 v 16.548 h -16.548 c -4.142,0 -7.5,3.357 -7.5,7.5 0,4.143 3.358,7.5 7.5,7.5 h 22.157 l 76.353,41.113 z m 58.43,192.386 h -8.016 c -4.705,0 -8.533,-3.827 -8.533,-8.532 0,-4.705 3.828,-8.532 8.533,-8.532 h 8.016 c 4.705,0 8.532,3.827 8.532,8.532 0,4.705 -3.828,8.532 -8.532,8.532 z m 48.612,-31.217 c 0,10.396 -6.586,19.704 -16.389,23.164 l -8.975,3.168 c 0.186,-1.189 0.284,-2.406 0.284,-3.646 0,-5.523 -1.918,-10.604 -5.116,-14.623 7.858,-6.287 21.408,-17.78 30.196,-28.804 z m 55.597,47.25 c -4.705,0 -8.532,-3.827 -8.532,-8.532 0,-4.705 3.828,-8.532 8.532,-8.532 4.704,0 8.532,3.827 8.532,8.532 0,4.705 -3.827,8.532 -8.532,8.532 z m 16.585,-25.21 c -4.257,-4.234 -10.12,-6.855 -16.585,-6.855 -6.465,0 -12.327,2.621 -16.585,6.855 l -25.166,-12.583 c 0.754,-3.051 1.154,-6.221 1.154,-9.458 v -17.515 c 12.577,4.917 26.253,7.62 40.55,7.62 14.332,0 28.041,-2.716 40.643,-7.656 v 17.55 c 0,3.237 0.401,6.407 1.154,9.458 z m 64.092,0.645 c 0,1.24 0.098,2.458 0.284,3.646 l -8.975,-3.168 c -9.803,-3.46 -16.389,-12.769 -16.389,-23.164 v -20.742 c 8.788,11.024 22.338,22.518 30.196,28.804 -3.198,4.02 -5.116,9.101 -5.116,14.624 z m -14.581,-54.325 c 23.671,-17.45 40.235,-44.002 44.484,-74.448 h 3.003 c 1.679,15.661 5.137,57.944 -0.022,105.281 -0.442,-0.025 -0.887,-0.04 -1.336,-0.04 h -8.016 c -1.656,0 -3.271,0.174 -4.831,0.501 -8.066,-6.183 -25.06,-20.28 -33.282,-31.294 z m 46.13,62.857 h -8.016 c -4.705,0 -8.532,-3.827 -8.532,-8.532 0,-4.705 3.828,-8.532 8.532,-8.532 h 8.016 c 4.705,0 8.533,3.827 8.533,8.532 0,4.705 -3.828,8.532 -8.533,8.532 z m 3.961,-152.305 h -4.531 c 10e-4,-0.173 0.007,-0.344 0.007,-0.517 0,-4.143 -3.358,-7.5 -7.5,-7.5 -4.142,0 -7.5,3.357 -7.5,7.5 0,53.326 -43.384,96.71 -96.709,96.71 -53.326,0 -96.71,-43.384 -96.71,-96.71 0,-4.143 -3.358,-7.5 -7.5,-7.5 -4.142,0 -7.5,3.357 -7.5,7.5 0,0.173 0.006,0.344 0.007,0.517 h -4.53 c -6.915,0 -12.541,-5.626 -12.541,-12.541 0,-6.915 5.625,-12.54 12.541,-12.54 H 200.36 V 258.5 c 0,4.143 3.358,7.5 7.5,7.5 4.142,0 7.5,-3.357 7.5,-7.5 v -11.032 h 81.193 V 258.5 c 0,4.143 3.358,7.5 7.5,7.5 4.142,0 7.5,-3.357 7.5,-7.5 v -11.032 h 60.637 c 6.915,0 12.54,5.625 12.54,12.54 0,6.915 -5.626,12.541 -12.541,12.541 z" /></g></g></svg>