<?xml version="1.0" encoding="UTF-8" standalone="no"?>
<!-- Generator: Adobe Illustrator 19.0.0, SVG Export Plug-In . SVG Version: 6.00 Build 0)  -->

<svg
   xmlns:osb="http://www.openswatchbook.org/uri/2009/osb"
   xmlns:dc="http://purl.org/dc/elements/1.1/"
   xmlns:cc="http://creativecommons.org/ns#"
   xmlns:rdf="http://www.w3.org/1999/02/22-rdf-syntax-ns#"
   xmlns:svg="http://www.w3.org/2000/svg"
   xmlns="http://www.w3.org/2000/svg"
   xmlns:xlink="http://www.w3.org/1999/xlink"
   xmlns:sodipodi="http://sodipodi.sourceforge.net/DTD/sodipodi-0.dtd"
   xmlns:inkscape="http://www.inkscape.org/namespaces/inkscape"
   version="1.1"
   id="Capa_1"
   x="0px"
   y="0px"
   viewBox="0 0 511.999 511.999"
   style="enable-background:new 0 0 511.999 511.999;"
   xml:space="preserve"
   sodipodi:docname="53.svg"
   inkscape:version="0.92.4 (5da689c313, 2019-01-14)"><metadata
   id="metadata95"><rdf:RDF><cc:Work
       rdf:about=""><dc:format>image/svg+xml</dc:format><dc:type
         rdf:resource="http://purl.org/dc/dcmitype/StillImage" /><dc:title></dc:title></cc:Work></rdf:RDF></metadata><defs
   id="defs93"><linearGradient
     id="linearGradient2457"
     osb:paint="solid"><stop
       style="stop-color:#000000;stop-opacity:1;"
       offset="0"
       id="stop2455" /></linearGradient><linearGradient
     inkscape:collect="always"
     xlink:href="#linearGradient2457"
     id="linearGradient2459-6-2"
     x1="1442.3572"
     y1="-339.5119"
     x2="1514.9286"
     y2="-339.5119"
     gradientUnits="userSpaceOnUse"
     gradientTransform="matrix(6.4669274,0,0,9.6773016,-9356.1743,3517.6929)" /><pattern
     y="0"
     x="0"
     height="6"
     width="6"
     patternUnits="userSpaceOnUse"
     id="EMFhbasepattern" /></defs><sodipodi:namedview
   pagecolor="#ffffff"
   bordercolor="#666666"
   borderopacity="1"
   objecttolerance="10"
   gridtolerance="10"
   guidetolerance="10"
   inkscape:pageopacity="0"
   inkscape:pageshadow="2"
   inkscape:window-width="1920"
   inkscape:window-height="986"
   id="namedview91"
   showgrid="false"
   inkscape:zoom="1.3037307"
   inkscape:cx="243.94263"
   inkscape:cy="256.72862"
   inkscape:window-x="-11"
   inkscape:window-y="-11"
   inkscape:window-maximized="1"
   inkscape:current-layer="g1046" />























<g
   id="g60">
</g>
<g
   id="g62">
</g>
<g
   id="g64">
</g>
<g
   id="g66">
</g>
<g
   id="g68">
</g>
<g
   id="g70">
</g>
<g
   id="g72">
</g>
<g
   id="g74">
</g>
<g
   id="g76">
</g>
<g
   id="g78">
</g>
<g
   id="g80">
</g>
<g
   id="g82">
</g>
<g
   id="g84">
</g>
<g
   id="g86">
</g>
<g
   id="g88">
</g>
<g
   id="g1046"
   transform="matrix(0.55886315,0,0,0.55886315,157.54779,132.77619)"><g
   transform="matrix(0.92099367,0,0,0.92099367,-29.67309,-32.221484)"
   id="g924"><path
     inkscape:connector-curvature="0"
     id="path2-5"
     d="m 413.861,358.071 -84.486,-24.849 c -10.235,-3.01 -17.263,-12.403 -17.263,-23.071 V 272.032 H 199.886 v 38.119 c 0,10.668 -7.028,20.061 -17.263,23.071 l -84.486,24.849 c -20.469,6.02 -34.525,24.806 -34.525,46.142 V 504.5 H 448.386 V 404.213 c 0,-21.336 -14.056,-40.122 -34.525,-46.142 z"
     style="fill:#e3aa75" /><path
     inkscape:connector-curvature="0"
     id="path4-9"
     d="m 413.861,358.071 -69.606,-20.472 c -14.791,22.73 -48.721,38.643 -88.256,38.643 -39.535,0 -73.465,-15.913 -88.256,-38.643 l -69.606,20.472 c -20.469,6.02 -34.525,24.806 -34.525,46.141 V 504.5 H 448.386 V 404.212 c 0,-21.336 -14.056,-40.121 -34.525,-46.141 z"
     style="fill:#e6646e" /><path
     inkscape:connector-curvature="0"
     id="path6-4"
     d="m 199.886,297.937 c 16.841,8.996 35.939,14.176 56.113,14.176 20.174,0 39.272,-5.18 56.113,-14.176 V 272.032 H 199.886 Z"
     style="fill:#d29b6e" /><path
     inkscape:connector-curvature="0"
     id="path8"
     d="M 372.233,151.79 H 360.209 V 71.629 h -208.42 v 80.161 h -12.024 c -11.068,0 -20.04,8.972 -20.04,20.04 0,11.067 8.972,20.04 20.04,20.04 h 12.429 c 4.106,53.796 48.958,96.194 103.805,96.194 54.847,0 99.699,-42.398 103.805,-96.194 h 12.429 c 11.068,0 20.04,-8.973 20.04,-20.04 0,-11.068 -8.972,-20.04 -20.04,-20.04 z"
     style="fill:#f5b97d" /><path
     inkscape:connector-curvature="0"
     id="path10"
     d="m 328.144,103.694 v 0 H 151.789 v 48.097 h -11.321 c -9.127,0 -17.651,5.783 -20.015,14.598 -3.576,13.332 6.518,25.482 19.312,25.482 h 12.429 c 4.106,53.796 48.957,96.194 103.805,96.194 5.483,0 10.83,-0.534 16.083,-1.35 -49.946,-7.709 -88.228,-50.754 -88.228,-102.859 v -8.016 c 0,-26.563 21.534,-48.097 48.097,-48.097 h 72.145 c 13.281,-10e-4 24.048,-10.768 24.048,-24.049 z"
     style="fill:#e3aa75" /><path
     inkscape:connector-curvature="0"
     id="path12"
     d="M 376.241,103.694 H 135.757 L 155.251,25.716 C 157.928,15.01 167.547,7.5 178.582,7.5 h 154.834 c 11.035,0 20.654,7.51 23.33,18.216 z"
     style="fill:#e6646e" /><g
     id="g18"><path
       inkscape:connector-curvature="0"
       id="path14"
       d="m 234.054,325.526 c -13.95,-3.403 -25.879,-9.875 -33.448,-17.943 -4.484,-4.779 -12.231,-4.171 -16.163,1.072 l -21.766,29.021 c 17.197,20.173 44.834,34.134 77.289,37.642 l -0.001,-42.069 c -0.001,-3.615 -2.401,-6.867 -5.911,-7.723 z"
       style="fill:#dc4655" /><path
       inkscape:connector-curvature="0"
       id="path16"
       d="m 349.321,337.676 -21.766,-29.021 c -3.932,-5.243 -11.679,-5.852 -16.163,-1.072 -7.569,8.068 -19.498,14.54 -33.448,17.943 -3.51,0.856 -5.91,4.109 -5.91,7.724 l -10e-4,42.069 c 32.454,-3.509 60.091,-17.47 77.288,-37.643 z"
       style="fill:#dc4655" /></g><g
     id="g24"><path
       inkscape:connector-curvature="0"
       id="path20"
       d="m 153.755,153.528 -17.998,2.223 v -52.058 h 32.065 v 33.923 c 0,8.095 -6.034,14.92 -14.067,15.912 z"
       style="fill:#6e5a64" /><path
       inkscape:connector-curvature="0"
       id="path22-4"
       d="m 358.243,153.528 17.998,2.223 v -52.058 h -32.065 v 33.923 c 0,8.095 6.034,14.92 14.067,15.912 z"
       style="fill:#6e5a64" /></g><path
     inkscape:connector-curvature="0"
     id="path26-9"
     d="m 234.695,7.5 h -56.113 c -11.035,0 -20.654,7.51 -23.331,18.216 l -19.494,77.977 H 191.87 L 211.364,25.716 C 214.041,15.01 223.66,7.5 234.695,7.5 Z"
     style="fill:#dc4655" /><path
     inkscape:connector-curvature="0"
     id="path28"
     d="m 207.902,152.307 c -4.142,0 -7.5,3.357 -7.5,7.5 v 8.016 c 0,4.143 3.358,7.5 7.5,7.5 4.142,0 7.5,-3.357 7.5,-7.5 v -8.016 c 0,-4.143 -3.358,-7.5 -7.5,-7.5 z" /><path
     inkscape:connector-curvature="0"
     id="path30"
     d="m 304.096,152.307 c -4.142,0 -7.5,3.357 -7.5,7.5 v 8.016 c 0,4.143 3.358,7.5 7.5,7.5 4.142,0 7.5,-3.357 7.5,-7.5 v -8.016 c 0,-4.143 -3.358,-7.5 -7.5,-7.5 z" /><path
     inkscape:connector-curvature="0"
     id="path32-9"
     d="m 285.315,221.258 c 2.948,-2.91 2.98,-7.658 0.07,-10.606 -2.909,-2.949 -7.658,-2.98 -10.606,-0.071 -2.737,2.701 -9.298,5.855 -18.78,5.855 -9.482,0 -16.043,-3.154 -18.78,-5.855 -2.949,-2.908 -7.697,-2.879 -10.606,0.071 -2.91,2.948 -2.878,7.696 0.07,10.606 6.459,6.373 17.418,10.178 29.316,10.178 11.898,0 22.857,-3.805 29.316,-10.178 z" /><path
     inkscape:connector-curvature="0"
     id="path34-1"
     d="m 415.977,350.876 -60.791,-17.88 -21.632,-28.842 c -3.253,-4.337 -8.219,-6.995 -13.625,-7.293 -0.107,-0.006 -0.211,0.004 -0.318,0 v -21.238 c 25.013,-17.396 42.617,-44.741 47.019,-76.252 h 4.459 c 14.617,0 27.154,-10.861 28.543,-24.727 0.778,-7.771 -1.765,-15.531 -6.975,-21.289 -2.522,-2.786 -5.568,-4.991 -8.917,-6.532 v -43.13 h -0.006 c 0,-0.607 -0.068,-1.218 -0.218,-1.819 L 364.022,23.897 C 360.505,9.827 347.919,0 333.416,0 H 178.582 c -14.503,0 -27.089,9.827 -30.606,23.896 l -19.494,77.978 c -0.15,0.602 -0.218,1.212 -0.218,1.819 h -0.006 v 43.463 c -8.631,4.115 -14.93,12.266 -15.891,21.859 -0.778,7.771 1.764,15.53 6.974,21.289 5.214,5.762 12.658,9.066 20.425,9.066 h 5.598 c 4.399,31.522 22.003,58.87 47.023,76.264 v 21.227 c -0.106,0.004 -0.211,-0.006 -0.318,0 -5.406,0.298 -10.372,2.956 -13.625,7.293 l -21.632,28.842 -60.79,17.879 C 72.524,357.786 56.113,379.72 56.113,404.213 V 504.5 c 0,4.143 3.358,7.5 7.5,7.5 4.142,0 7.5,-3.357 7.5,-7.5 V 404.214 c 0,-17.885 11.983,-33.9 29.142,-38.947 l 61.064,-17.96 c 8.299,8.515 18.328,15.727 29.576,21.436 h -31.088 c -21.816,0 -39.565,17.749 -39.565,39.564 0,4.143 3.358,7.5 7.5,7.5 4.142,0 7.5,-3.357 7.5,-7.5 0,-13.545 11.02,-24.564 24.565,-24.564 h 96.192 c 37.488,0 72.345,-13.518 94.682,-36.436 l 61.064,17.96 c 17.158,5.047 29.142,21.063 29.142,38.947 V 504.5 c 0,4.143 3.358,7.5 7.5,7.5 4.142,0 7.5,-3.357 7.5,-7.5 V 404.214 c -10e-4,-24.493 -16.412,-46.427 -39.91,-53.338 z M 149.629,79.129 h 154.464 c 4.142,0 7.5,-3.357 7.5,-7.5 0,-4.143 -3.358,-7.5 -7.5,-7.5 H 153.379 l 9.148,-36.594 C 164.373,20.154 170.974,15 178.582,15 h 154.834 c 7.608,0 14.209,5.154 16.055,12.535 l 9.148,36.594 H 336.16 c -4.142,0 -7.5,3.357 -7.5,7.5 0,4.143 3.358,7.5 7.5,7.5 h 26.209 l 4.266,17.064 H 145.363 Z m 219.112,32.064 v 33.097 h -8.532 c -4.705,0 -8.532,-3.827 -8.532,-8.532 v -24.564 h 17.064 z m -225.484,0 h 17.064 v 24.564 c 0,4.705 -3.828,8.532 -8.532,8.532 h -8.532 z m 16.033,72.661 c 0,-4.143 -3.358,-7.5 -7.5,-7.5 -4.142,0 -7.5,3.357 -7.5,7.5 v 0.517 h -4.524 c -3.537,0 -6.927,-1.506 -9.303,-4.131 -2.407,-2.66 -3.533,-6.115 -3.17,-9.729 0.63,-6.292 6.612,-11.221 13.618,-11.221 h 10.88 c 12.976,0 23.532,-10.557 23.532,-23.532 v -24.564 h 161.354 v 24.564 c 0,12.976 10.557,23.532 23.532,23.532 h 12.024 c 3.537,0 6.927,1.506 9.302,4.131 2.407,2.659 3.533,6.115 3.171,9.729 -0.63,6.292 -6.611,11.221 -13.617,11.221 h -3.385 v -0.438 c 0,-4.141 -3.356,-7.498 -7.497,-7.5 0,0 -0.002,0 -0.003,0 -4.14,0 -7.497,3.354 -7.5,7.494 -0.039,53.286 -43.421,96.638 -96.706,96.638 -53.325,-10e-4 -96.708,-43.384 -96.708,-96.711 z m 13.119,153.345 18.034,-24.045 c 0.587,-0.782 1.48,-1.262 2.45,-1.315 0.616,-0.03 1.508,0.091 2.244,0.876 8.659,9.229 21.849,16.366 37.14,20.097 0.04,0.02 0.188,0.179 0.188,0.438 l 0.002,33.501 c -23.948,-4.127 -45.228,-14.494 -60.058,-29.552 z m 92.125,-3.95 -0.002,35.235 c -5.641,0.342 -11.424,0.342 -17.064,0 l -0.002,-35.235 c 0,-7.167 -4.783,-13.339 -11.633,-15.01 -11.532,-2.814 -21.775,-8.038 -28.445,-14.463 v -19.358 c 14.705,7.137 31.199,11.146 48.613,11.146 17.412,0 33.906,-4.012 48.613,-11.154 v 19.365 c -6.671,6.425 -16.913,11.649 -28.446,14.463 -6.851,1.672 -11.634,7.844 -11.634,15.011 z m 14.998,33.501 0.002,-33.501 c 0,-0.259 0.148,-0.418 0.188,-0.438 15.291,-3.73 28.48,-10.867 37.14,-20.097 0.668,-0.712 1.462,-0.881 2.064,-0.881 0.062,0 0.122,0.002 0.18,0.005 0.97,0.054 1.862,0.533 2.449,1.315 l 18.034,24.045 c -14.83,15.059 -36.11,25.426 -60.057,29.552 z" /><path
     inkscape:connector-curvature="0"
     id="path36-2"
     d="m 215.918,128.258 h -16.032 c -4.142,0 -7.5,3.357 -7.5,7.5 0,4.143 3.358,7.5 7.5,7.5 h 16.032 c 4.142,0 7.5,-3.357 7.5,-7.5 0,-4.143 -3.357,-7.5 -7.5,-7.5 z" /><path
     inkscape:connector-curvature="0"
     id="path38-2"
     d="m 296.08,143.258 h 16.032 c 4.142,0 7.5,-3.357 7.5,-7.5 0,-4.143 -3.358,-7.5 -7.5,-7.5 H 296.08 c -4.142,0 -7.5,3.357 -7.5,7.5 0,4.143 3.357,7.5 7.5,7.5 z" /><path
     inkscape:connector-curvature="0"
     id="path40-3"
     d="m 127.741,432.871 c -4.142,0 -7.5,3.357 -7.5,7.5 V 504.5 c 0,4.143 3.358,7.5 7.5,7.5 4.142,0 7.5,-3.357 7.5,-7.5 v -64.129 c 0,-4.142 -3.358,-7.5 -7.5,-7.5 z" /><path
     inkscape:connector-curvature="0"
     id="path42"
     d="m 159.886,408.822 h -0.08 c -4.142,0 -7.46,3.357 -7.46,7.5 0,4.143 3.398,7.5 7.54,7.5 4.142,0 7.5,-3.357 7.5,-7.5 0,-4.143 -3.358,-7.5 -7.5,-7.5 z" /><path
     inkscape:connector-curvature="0"
     id="path44"
     d="m 352.273,408.822 h -0.081 c -4.142,0 -7.46,3.357 -7.46,7.5 0,4.143 3.398,7.5 7.541,7.5 4.143,0 7.5,-3.357 7.5,-7.5 0,-4.143 -3.358,-7.5 -7.5,-7.5 z" /><path
     inkscape:connector-curvature="0"
     id="path46"
     d="m 352.273,448.903 h -0.081 c -4.142,0 -7.46,3.357 -7.46,7.5 0,4.143 3.398,7.5 7.541,7.5 4.143,0 7.5,-3.357 7.5,-7.5 0,-4.143 -3.358,-7.5 -7.5,-7.5 z" /><path
     inkscape:connector-curvature="0"
     id="path48"
     d="m 159.886,448.903 h -0.08 c -4.142,0 -7.46,3.357 -7.46,7.5 0,4.143 3.398,7.5 7.54,7.5 4.142,0 7.5,-3.357 7.5,-7.5 0,-4.143 -3.358,-7.5 -7.5,-7.5 z" /><path
     inkscape:connector-curvature="0"
     id="path50"
     d="m 352.273,488.983 h -0.081 c -4.142,0 -7.46,3.357 -7.46,7.5 0,4.143 3.398,7.5 7.541,7.5 4.143,0 7.5,-3.357 7.5,-7.5 0,-4.143 -3.358,-7.5 -7.5,-7.5 z" /><path
     inkscape:connector-curvature="0"
     id="path52"
     d="m 159.886,488.983 h -0.08 c -4.142,0 -7.46,3.357 -7.46,7.5 0,4.143 3.398,7.5 7.54,7.5 4.142,0 7.5,-3.357 7.5,-7.5 0,-4.143 -3.358,-7.5 -7.5,-7.5 z" /></g><rect
   y="-104.38158"
   x="-28.555799"
   height="673.03345"
   width="469.31418"
   id="rect2447-0-9"
   style="display:inline;fill:none;fill-opacity:1;stroke:url(#linearGradient2459-6-2);stroke-width:25.31489563;stroke-miterlimit:4;stroke-dasharray:none;stroke-opacity:1" /><text
   id="text2485-9"
   y="522.54254"
   x="129.82451"
   style="font-style:normal;font-weight:normal;font-size:76.99105835px;line-height:1.25;font-family:sans-serif;letter-spacing:0px;word-spacing:0px;display:inline;fill:#000000;fill-opacity:1;stroke:none;stroke-width:1.9247762"
   xml:space="preserve"><tspan
     style="stroke-width:1.9247762"
     y="522.54254"
     x="129.82451"
     id="tspan2483-7"
     sodipodi:role="line">TEO</tspan></text>









</g></svg>