<?xml version="1.0" encoding="UTF-8" standalone="no"?>
<!-- Generator: Adobe Illustrator 19.0.0, SVG Export Plug-In . SVG Version: 6.00 Build 0)  -->

<svg
   xmlns:osb="http://www.openswatchbook.org/uri/2009/osb"
   xmlns:dc="http://purl.org/dc/elements/1.1/"
   xmlns:cc="http://creativecommons.org/ns#"
   xmlns:rdf="http://www.w3.org/1999/02/22-rdf-syntax-ns#"
   xmlns:svg="http://www.w3.org/2000/svg"
   xmlns="http://www.w3.org/2000/svg"
   xmlns:xlink="http://www.w3.org/1999/xlink"
   xmlns:sodipodi="http://sodipodi.sourceforge.net/DTD/sodipodi-0.dtd"
   xmlns:inkscape="http://www.inkscape.org/namespaces/inkscape"
   version="1.1"
   id="Capa_1"
   x="0px"
   y="0px"
   viewBox="0 0 511.999 511.999"
   style="enable-background:new 0 0 511.999 511.999;"
   xml:space="preserve"
   sodipodi:docname="54.svg"
   inkscape:version="0.92.4 (5da689c313, 2019-01-14)"><metadata
   id="metadata95"><rdf:RDF><cc:Work
       rdf:about=""><dc:format>image/svg+xml</dc:format><dc:type
         rdf:resource="http://purl.org/dc/dcmitype/StillImage" /><dc:title></dc:title></cc:Work></rdf:RDF></metadata><defs
   id="defs93"><linearGradient
     id="linearGradient2457"
     osb:paint="solid"><stop
       style="stop-color:#000000;stop-opacity:1;"
       offset="0"
       id="stop2455" /></linearGradient><linearGradient
     inkscape:collect="always"
     xlink:href="#linearGradient2457"
     id="linearGradient2459-6-2"
     x1="1442.3572"
     y1="-339.5119"
     x2="1514.9286"
     y2="-339.5119"
     gradientUnits="userSpaceOnUse"
     gradientTransform="matrix(6.4669274,0,0,9.6773016,-9356.1743,3517.6929)" /><pattern
     y="0"
     x="0"
     height="6"
     width="6"
     patternUnits="userSpaceOnUse"
     id="EMFhbasepattern" /></defs><sodipodi:namedview
   pagecolor="#ffffff"
   bordercolor="#666666"
   borderopacity="1"
   objecttolerance="10"
   gridtolerance="10"
   guidetolerance="10"
   inkscape:pageopacity="0"
   inkscape:pageshadow="2"
   inkscape:window-width="1920"
   inkscape:window-height="986"
   id="namedview91"
   showgrid="false"
   inkscape:zoom="1.3037307"
   inkscape:cx="94.755378"
   inkscape:cy="256.72862"
   inkscape:window-x="-11"
   inkscape:window-y="-11"
   inkscape:window-maximized="1"
   inkscape:current-layer="g1046" />























<g
   id="g60">
</g>
<g
   id="g62">
</g>
<g
   id="g64">
</g>
<g
   id="g66">
</g>
<g
   id="g68">
</g>
<g
   id="g70">
</g>
<g
   id="g72">
</g>
<g
   id="g74">
</g>
<g
   id="g76">
</g>
<g
   id="g78">
</g>
<g
   id="g80">
</g>
<g
   id="g82">
</g>
<g
   id="g84">
</g>
<g
   id="g86">
</g>
<g
   id="g88">
</g>
<g
   id="g1046"
   transform="matrix(0.55886315,0,0,0.55886315,157.54779,132.77619)"><g
   transform="matrix(0.92082308,0,0,0.92082308,-29.629861,-31.079562)"
   id="g892"><path
     inkscape:connector-curvature="0"
     id="path2"
     d="m 463.752,339.501 c 0.668,-46.093 -14.697,-54.109 -22.379,-81.163 -7.734,-27.237 0.135,-45.835 -9.018,-75.986 -8.517,-28.056 -23.99,-32.796 -28.724,-72.646 C 395.614,42.236 322.801,7.5 286.728,7.5 c -10.2,0 -17.165,2.589 -21.847,5.685 -5.419,3.585 -12.343,3.585 -17.762,0 C 242.437,10.089 235.472,7.5 225.272,7.5 189.199,7.5 116.386,42.236 108.37,109.706 c -4.735,39.85 -20.207,44.59 -28.724,72.646 -9.153,30.15 -1.284,48.748 -9.018,75.986 -7.682,27.054 -23.046,35.071 -22.379,81.163 0.775,53.452 -30.06,65.465 -18.036,100.87 8.974,26.422 57.449,48.097 57.449,48.097 h 336.677 c 0,0 48.475,-21.674 57.449,-48.097 12.024,-35.405 -18.811,-47.418 -18.036,-100.87 z"
     style="fill:#64505a" /><path
     inkscape:connector-curvature="0"
     id="path4"
     d="m 256,15.874 c -3.086,0 -6.172,-0.896 -8.881,-2.689 C 242.437,10.089 235.472,7.5 225.272,7.5 189.199,7.5 116.386,42.236 108.37,109.706 c -4.735,39.85 -20.207,44.59 -28.724,72.646 -9.153,30.15 -1.284,48.748 -9.018,75.986 -7.682,27.054 -23.046,35.071 -22.379,81.163 0.775,53.452 -30.06,65.465 -18.036,100.87 8.974,26.422 57.449,48.097 57.449,48.097 H 256 Z"
     style="fill:#5a4650" /><path
     inkscape:connector-curvature="0"
     id="path6"
     d="M 408.282,396.981 325.49,367.76 c -12.82,-4.525 -21.393,-16.642 -21.393,-30.237 V 296.08 h -96.194 v 41.443 c 0,13.595 -8.573,25.712 -21.393,30.237 l -82.792,29.221 c -19.229,6.787 -32.089,24.962 -32.089,45.354 V 504.5 H 440.37 v -62.165 c 10e-4,-20.392 -12.858,-38.567 -32.088,-45.354 z"
     style="fill:#b67f5f" /><path
     inkscape:connector-curvature="0"
     id="path8-2"
     d="m 408.282,396.981 -55.243,-19.498 c -21.743,30.052 -51.334,63.195 -85.78,81.556 -7.021,3.743 -15.496,3.743 -22.517,0 -34.446,-18.361 -64.038,-51.504 -85.78,-81.556 l -55.243,19.498 C 84.489,403.768 71.63,421.944 71.63,442.336 V 504.5 h 368.742 v -62.164 c -0.001,-20.392 -12.86,-38.568 -32.09,-45.355 z"
     style="fill:#b4e6a0" /><path
     inkscape:connector-curvature="0"
     id="path10-7"
     d="m 207.903,325.904 c 14.8,6.545 31.063,10.257 48.097,10.257 17.034,0 33.297,-3.712 48.097,-10.257 V 296.08 h -96.194 z"
     style="fill:#a06e50" /><path
     inkscape:connector-curvature="0"
     id="path12-0"
     d="m 256,312.113 v 0 c -57.554,0 -104.21,-46.656 -104.21,-104.21 V 71.629 h 208.42 v 136.274 c 0,57.554 -46.657,104.21 -104.21,104.21 z"
     style="fill:#cd916e" /><path
     inkscape:connector-curvature="0"
     id="path14-7"
     d="m 151.79,71.629 v 136.274 c 0,57.553 46.656,104.21 104.21,104.21 5.466,0 10.793,-0.548 16.032,-1.358 -49.921,-7.73 -88.177,-50.764 -88.177,-102.851 v -15.159 c 0,-14.492 4.588,-28.45 12.273,-40.736 0.04,-0.064 0.08,-0.128 0.12,-0.192 11.453,-18.378 20.782,-20.728 34.903,-24.287 7.255,-1.828 16.053,-4.045 24.849,-8.913 8.796,4.868 17.594,7.086 24.849,8.913 14.121,3.559 23.451,5.909 34.902,24.287 14.603,23.432 31.628,35.438 44.059,44.205 0.143,0.101 0.258,0.184 0.399,0.284 V 71.629 Z"
     style="fill:#b67f5f" /><path
     inkscape:connector-curvature="0"
     id="path16-6"
     d="m 441.372,258.338 c -7.734,-27.237 0.135,-45.835 -9.018,-75.986 -8.517,-28.056 -23.99,-32.796 -28.724,-72.646 C 395.614,42.236 322.801,7.5 286.728,7.5 c -10.2,0 -17.165,2.589 -21.847,5.685 -2.71,1.793 -5.795,2.689 -8.881,2.689 v 71.787 c 20.708,26.052 51.437,5.344 80.161,51.437 24.415,39.177 55.073,38.187 65.858,69.076 3.091,8.853 1.415,18.312 2.154,27.659 4.133,52.232 44.214,76.28 62.231,130.788 -1.718,-7.784 -2.804,-16.636 -2.652,-27.119 0.667,-46.094 -14.697,-54.11 -22.38,-81.164 z"
     style="fill:#6e5a64" /><path
     inkscape:connector-curvature="0"
     id="path18-9"
     d="m 70.627,258.338 c 7.734,-27.237 -0.135,-45.835 9.018,-75.986 8.517,-28.056 23.99,-32.796 28.724,-72.646 C 116.386,42.236 189.199,7.5 225.272,7.5 c 10.2,0 17.165,2.589 21.847,5.685 2.71,1.793 5.795,2.689 8.881,2.689 v 71.787 c -20.708,26.052 -51.437,5.344 -80.161,51.437 -24.415,39.177 -55.073,38.187 -65.858,69.076 -3.091,8.853 -1.415,18.312 -2.154,27.659 -4.133,52.232 -44.214,76.28 -62.231,130.788 1.718,-7.784 2.804,-16.636 2.652,-27.119 -0.667,-46.094 14.697,-54.11 22.379,-81.164 z"
     style="fill:#64505a" /><path
     inkscape:connector-curvature="0"
     id="path20-0"
     d="m 256,263.5 c 11.897,0 22.857,-3.805 29.316,-10.178 2.948,-2.909 2.98,-7.658 0.071,-10.606 -2.91,-2.948 -7.659,-2.981 -10.606,-0.071 -2.737,2.701 -9.299,5.855 -18.781,5.855 -9.482,0 -16.043,-3.154 -18.78,-5.855 -2.949,-2.908 -7.698,-2.879 -10.606,0.071 -2.91,2.948 -2.878,7.696 0.07,10.606 6.459,6.373 17.418,10.178 29.316,10.178 z" /><path
     inkscape:connector-curvature="0"
     id="path22"
     d="m 207.903,184.371 c -4.142,0 -7.5,3.357 -7.5,7.5 v 8.016 c 0,4.143 3.358,7.5 7.5,7.5 4.142,0 7.5,-3.357 7.5,-7.5 v -8.016 c 0,-4.142 -3.358,-7.5 -7.5,-7.5 z" /><path
     inkscape:connector-curvature="0"
     id="path24"
     d="m 304.096,184.371 c -4.143,0 -7.5,3.357 -7.5,7.5 v 8.016 c 0,4.143 3.357,7.5 7.5,7.5 4.143,0 7.5,-3.357 7.5,-7.5 v -8.016 c 0,-4.142 -3.357,-7.5 -7.5,-7.5 z" /><path
     inkscape:connector-curvature="0"
     id="path26"
     d="m 199.887,175.322 h 16.032 c 4.142,0 7.5,-3.357 7.5,-7.5 0,-4.143 -3.358,-7.5 -7.5,-7.5 h -16.032 c -4.142,0 -7.5,3.357 -7.5,7.5 0,4.143 3.358,7.5 7.5,7.5 z" /><path
     inkscape:connector-curvature="0"
     id="path28-0"
     d="m 296.081,175.322 h 16.032 c 4.143,0 7.5,-3.357 7.5,-7.5 0,-4.143 -3.357,-7.5 -7.5,-7.5 h -16.032 c -4.143,0 -7.5,3.357 -7.5,7.5 0,4.143 3.358,7.5 7.5,7.5 z" /><path
     inkscape:connector-curvature="0"
     id="path30-2"
     d="m 483.253,392.301 c -5.79,-13.345 -12.354,-28.469 -12.003,-52.691 0.475,-32.726 -6.839,-47.618 -13.911,-62.021 -3.296,-6.71 -6.408,-13.048 -8.751,-21.3 -3.429,-12.074 -3.548,-22.444 -3.675,-33.423 -0.147,-12.758 -0.299,-25.95 -5.382,-42.693 -3.65,-12.026 -8.441,-20.011 -13.073,-27.73 -6.539,-10.897 -12.715,-21.191 -15.38,-43.621 C 406.266,68.325 380.695,42.094 360.09,27.221 337.182,10.685 308.385,0 286.729,0 c -10.29,0 -19.032,2.332 -25.984,6.93 -2.925,1.938 -6.561,1.938 -9.488,0 C 244.303,2.332 235.561,0 225.272,0 203.615,0 174.818,10.685 151.91,27.221 c -20.604,14.873 -46.176,41.104 -50.988,81.601 -2.665,22.43 -8.841,32.724 -15.38,43.621 -4.632,7.72 -9.423,15.704 -13.074,27.73 -5.083,16.744 -5.235,29.936 -5.382,42.693 -0.126,10.979 -0.246,21.349 -3.674,33.423 -2.343,8.252 -5.456,14.59 -8.75,21.3 -7.073,14.402 -14.387,29.295 -13.912,62.021 0.351,24.223 -6.212,39.347 -12.003,52.691 -6.572,15.145 -12.779,29.449 -5.636,50.482 7.893,23.242 31.066,37.282 41.018,42.393 V 504.5 c 0,4.143 3.358,7.5 7.5,7.5 4.142,0 7.5,-3.357 7.5,-7.5 v -62.164 c 0,-7.302 1.972,-14.276 5.477,-20.325 l 35.432,30.37 c 5.452,4.673 8.578,11.471 8.578,18.651 V 504.5 c 0,4.143 3.358,7.5 7.5,7.5 4.142,0 7.5,-3.357 7.5,-7.5 v -33.468 c 0,-11.564 -5.036,-22.514 -13.816,-30.04 L 94.384,410.636 c 3.486,-2.793 7.463,-5.042 11.83,-6.583 l 47.713,-16.84 c 32.279,42.292 65.665,70.608 99.267,84.161 0.9,0.363 1.853,0.545 2.806,0.545 0.953,0 1.905,-0.182 2.806,-0.544 20.446,-8.247 41.137,-22.243 61.496,-41.6 3.002,-2.854 3.121,-7.602 0.268,-10.604 -2.855,-3.003 -7.603,-3.121 -10.604,-0.268 -18.034,17.147 -36.175,29.713 -53.965,37.388 -35.47,-15.312 -66.203,-47.551 -87.179,-74.336 l 20.185,-7.124 c 15.789,-5.572 26.397,-20.565 26.397,-37.309 v -25.548 c 12.589,4.928 26.282,7.638 40.597,7.638 14.315,0 28.007,-2.71 40.597,-7.638 v 25.548 c 0,16.743 10.608,31.736 26.396,37.309 l 20.178,7.122 c -4.189,5.354 -8.428,10.518 -12.668,15.394 -2.719,3.126 -2.388,7.863 0.737,10.581 1.421,1.235 3.174,1.841 4.919,1.841 2.095,0 4.18,-0.873 5.662,-2.578 5.455,-6.273 10.901,-12.991 16.24,-19.982 l 47.725,16.844 c 4.522,1.596 8.629,3.947 12.202,6.879 l -35.071,30.061 c -8.78,7.525 -13.816,18.475 -13.816,30.04 V 504.5 c 0,4.143 3.357,7.5 7.5,7.5 4.143,0 7.5,-3.357 7.5,-7.5 v -33.468 c 0,-7.181 3.127,-13.979 8.578,-18.651 l 34.952,-29.958 c 3.357,5.953 5.241,12.777 5.241,19.914 V 504.5 c 0,4.143 3.357,7.5 7.5,7.5 4.143,0 7.5,-3.357 7.5,-7.5 v -19.324 c 9.951,-5.111 33.124,-19.15 41.019,-42.393 7.14,-21.033 0.933,-35.338 -5.639,-50.482 z m -8.566,45.658 c -4.753,13.993 -17.548,24.146 -26.815,29.943 v -25.566 c 0,-23.528 -14.906,-44.597 -37.093,-52.428 l -82.793,-29.221 c -9.803,-3.46 -16.389,-12.769 -16.389,-23.164 V 304.77 c 33.508,-19.307 56.113,-55.497 56.113,-96.867 v -26.561 c 0.551,0.39 1.099,0.777 1.639,1.157 16.121,11.368 26.771,18.879 28.81,44.698 0.311,3.929 3.594,6.909 7.469,6.909 0.197,0 0.397,-0.008 0.599,-0.023 4.129,-0.326 7.212,-3.938 6.886,-8.067 -2.593,-32.838 -18.392,-43.979 -35.117,-55.775 -11.918,-8.404 -24.241,-17.096 -35.468,-35.11 -18.182,-29.175 -38.024,-34.175 -53.969,-38.192 -7.711,-1.943 -14.274,-3.604 -19.995,-7.604 -3.19,-2.231 -5.063,-5.905 -5.063,-9.798 v -15.61 c 0,-4.106 -3.164,-7.688 -7.269,-7.811 -4.247,-0.127 -7.731,3.277 -7.731,7.497 v 15.923 c 0,3.893 -1.873,7.567 -5.063,9.798 -5.721,4 -12.284,5.661 -19.995,7.604 -15.944,4.018 -35.787,9.018 -53.968,38.192 -11.227,18.015 -23.55,26.706 -35.467,35.11 -16.726,11.796 -32.525,22.938 -35.117,55.776 -0.326,4.129 2.757,7.74 6.886,8.066 4.135,0.333 7.741,-2.757 8.067,-6.887 2.039,-25.818 12.688,-33.329 28.809,-44.698 11.905,-8.396 26.721,-18.844 39.553,-39.435 14.982,-24.041 29.516,-27.703 44.903,-31.581 9.812,-2.473 19.896,-5.013 28.893,-12.947 8.996,7.935 19.08,10.475 28.893,12.947 15.387,3.878 29.921,7.54 44.903,31.581 7.297,11.709 15.234,20.135 22.914,26.772 v 36.833 c 0,53.243 -42.515,97.422 -95.755,97.938 -53.762,0.521 -97.664,-43.061 -97.664,-96.705 v -2.692 c 0,-4.106 -3.164,-7.688 -7.269,-7.811 -4.247,-0.127 -7.731,3.277 -7.731,7.497 v 3.006 c 0,41.37 22.605,77.56 56.113,96.867 v 32.753 c 0,10.396 -6.586,19.704 -16.389,23.164 l -82.792,29.221 c -22.187,7.831 -37.093,28.899 -37.093,52.428 v 25.596 c -9.255,-5.771 -22.036,-15.902 -26.815,-29.973 -5.281,-15.55 -1.115,-25.152 5.193,-39.688 6.077,-14.003 13.639,-31.43 13.241,-58.879 -0.422,-29.128 5.795,-41.788 12.378,-55.192 3.443,-7.011 7.004,-14.262 9.716,-23.813 3.975,-13.998 4.111,-25.868 4.244,-37.348 0.141,-12.245 0.274,-23.812 4.736,-38.509 3.113,-10.255 7.227,-17.111 11.583,-24.371 7.064,-11.772 14.369,-23.946 17.413,-49.568 C 119.99,75.495 142.524,52.495 160.693,39.38 184.023,22.539 209.939,15 225.272,15 c 7.296,0 13.254,1.494 17.709,4.44 7.908,5.231 18.129,5.232 26.039,10e-4 4.455,-2.947 10.413,-4.441 17.709,-4.441 21.278,0 47.769,12.246 64.582,24.383 18.17,13.115 40.703,36.115 44.873,71.208 3.044,25.622 10.348,37.796 17.412,49.568 4.355,7.26 8.47,14.116 11.582,24.371 4.462,14.697 4.596,26.264 4.736,38.509 0.133,11.479 0.27,23.35 4.244,37.348 2.712,9.553 6.272,16.803 9.716,23.814 6.582,13.403 12.8,26.064 12.378,55.191 -0.397,27.449 7.165,44.877 13.241,58.879 6.308,14.536 10.474,24.138 5.194,39.688 z" /></g><rect
   y="-104.38158"
   x="-28.555799"
   height="673.03345"
   width="469.31418"
   id="rect2447-0-9"
   style="display:inline;fill:none;fill-opacity:1;stroke:url(#linearGradient2459-6-2);stroke-width:25.31489563;stroke-miterlimit:4;stroke-dasharray:none;stroke-opacity:1" /><text
   id="text2485-9"
   y="522.54254"
   x="55.615345"
   style="font-style:normal;font-weight:normal;font-size:76.99105835px;line-height:1.25;font-family:sans-serif;letter-spacing:0px;word-spacing:0px;display:inline;fill:#000000;fill-opacity:1;stroke:none;stroke-width:1.9247762"
   xml:space="preserve"><tspan
     style="stroke-width:1.9247762"
     y="522.54254"
     x="55.615345"
     id="tspan2483-7"
     sodipodi:role="line">FÁTIMA</tspan></text>










</g></svg>