<?xml version="1.0" encoding="UTF-8" standalone="no"?>
<!-- Generator: Adobe Illustrator 19.0.0, SVG Export Plug-In . SVG Version: 6.00 Build 0)  -->

<svg
   xmlns:osb="http://www.openswatchbook.org/uri/2009/osb"
   xmlns:dc="http://purl.org/dc/elements/1.1/"
   xmlns:cc="http://creativecommons.org/ns#"
   xmlns:rdf="http://www.w3.org/1999/02/22-rdf-syntax-ns#"
   xmlns:svg="http://www.w3.org/2000/svg"
   xmlns="http://www.w3.org/2000/svg"
   xmlns:xlink="http://www.w3.org/1999/xlink"
   xmlns:sodipodi="http://sodipodi.sourceforge.net/DTD/sodipodi-0.dtd"
   xmlns:inkscape="http://www.inkscape.org/namespaces/inkscape"
   version="1.1"
   id="Capa_1"
   x="0px"
   y="0px"
   viewBox="0 0 511.999 511.999"
   style="enable-background:new 0 0 511.999 511.999;"
   xml:space="preserve"
   sodipodi:docname="56.svg"
   inkscape:version="0.92.4 (5da689c313, 2019-01-14)"><metadata
   id="metadata95"><rdf:RDF><cc:Work
       rdf:about=""><dc:format>image/svg+xml</dc:format><dc:type
         rdf:resource="http://purl.org/dc/dcmitype/StillImage" /><dc:title></dc:title></cc:Work></rdf:RDF></metadata><defs
   id="defs93"><linearGradient
     id="linearGradient2457"
     osb:paint="solid"><stop
       style="stop-color:#000000;stop-opacity:1;"
       offset="0"
       id="stop2455" /></linearGradient><linearGradient
     inkscape:collect="always"
     xlink:href="#linearGradient2457"
     id="linearGradient2459-6-2"
     x1="1442.3572"
     y1="-339.5119"
     x2="1514.9286"
     y2="-339.5119"
     gradientUnits="userSpaceOnUse"
     gradientTransform="matrix(6.4669274,0,0,9.6773016,-9356.1743,3517.6929)" /><pattern
     y="0"
     x="0"
     height="6"
     width="6"
     patternUnits="userSpaceOnUse"
     id="EMFhbasepattern" /></defs><sodipodi:namedview
   pagecolor="#ffffff"
   bordercolor="#666666"
   borderopacity="1"
   objecttolerance="10"
   gridtolerance="10"
   guidetolerance="10"
   inkscape:pageopacity="0"
   inkscape:pageshadow="2"
   inkscape:window-width="1920"
   inkscape:window-height="986"
   id="namedview91"
   showgrid="false"
   inkscape:zoom="1.3037307"
   inkscape:cx="55.636868"
   inkscape:cy="256.72862"
   inkscape:window-x="-11"
   inkscape:window-y="-11"
   inkscape:window-maximized="1"
   inkscape:current-layer="g1046" />























<g
   id="g60">
</g>
<g
   id="g62">
</g>
<g
   id="g64">
</g>
<g
   id="g66">
</g>
<g
   id="g68">
</g>
<g
   id="g70">
</g>
<g
   id="g72">
</g>
<g
   id="g74">
</g>
<g
   id="g76">
</g>
<g
   id="g78">
</g>
<g
   id="g80">
</g>
<g
   id="g82">
</g>
<g
   id="g84">
</g>
<g
   id="g86">
</g>
<g
   id="g88">
</g>
<g
   id="g1046"
   transform="matrix(0.55886315,0,0,0.55886315,157.54779,132.77619)"><g
   transform="matrix(0.93690686,0,0,0.93690686,-33.746398,-40.437528)"
   id="g886"><path
     inkscape:connector-curvature="0"
     id="path2"
     d="m 255.999,343.481 c 48.097,0 124.635,-24.847 144.57,-32.783 8.243,-3.281 12.297,-12.693 8.878,-20.879 -7.107,-17.016 -17.174,-48.44 -17.174,-89.931 V 143.775 C 392.273,68.512 331.261,7.5 255.999,7.5 v 0 0 0 0 0 0 0 0 c -75.262,0 -136.274,61.012 -136.274,136.274 v 56.113 c 0,41.491 -10.067,72.916 -17.174,89.931 -3.419,8.186 0.635,17.598 8.878,20.879 19.936,7.937 96.473,32.784 144.57,32.784 z"
     style="fill:#b4f09b" /><path
     inkscape:connector-curvature="0"
     id="path4"
     d="m 255.999,7.5 c -23.193,0 -45.011,5.83 -64.129,16.049 v 7.303 c 0,53.126 43.067,96.194 96.194,96.194 H 391.143 C 382.881,59.692 325.586,7.5 255.999,7.5 Z"
     style="fill:#cdf5a0" /><path
     inkscape:connector-curvature="0"
     id="path6"
     d="m 408.281,396.284 -82.792,-29.221 c -12.82,-4.525 -21.393,-16.642 -21.393,-30.237 v -49.459 h -96.194 v 49.459 c 0,13.595 -8.573,25.712 -21.393,30.236 l -82.793,29.221 c -19.23,6.787 -32.089,24.962 -32.089,45.354 v 62.165 H 440.37 v -62.165 c 0,-20.39 -12.859,-38.566 -32.089,-45.353 z"
     style="fill:#e3aa75" /><path
     inkscape:connector-curvature="0"
     id="path8-7"
     d="M 71.628,503.803 H 440.37 v -62.165 c 0,-20.392 -12.859,-38.568 -32.089,-45.354 l -70.932,-25.035 c -11.906,18.861 -39.114,55.148 -78.826,67.666 -1.627,0.513 -3.422,0.513 -5.049,0 -39.712,-12.518 -66.921,-48.805 -78.826,-67.666 l -70.932,25.035 c -19.23,6.787 -32.089,24.962 -32.089,45.354 z"
     style="fill:#64dca0" /><path
     inkscape:connector-curvature="0"
     id="path10-8"
     d="m 248.68,454.215 c 2.364,0.74 4.838,1.112 7.312,1.112 2.489,0 4.971,-0.372 7.343,-1.116 46.977,-14.804 77.566,-57.807 89.508,-77.494 l -27.353,-9.654 c -1.212,-0.428 -2.348,-0.985 -3.481,-1.544 -11.239,17.169 -34.161,46.297 -66.009,57.344 -31.677,-11.005 -54.677,-40.18 -65.972,-57.36 -1.144,0.566 -2.292,1.128 -3.517,1.56 l -27.353,9.654 c 11.942,19.687 42.532,62.691 89.522,77.498 z"
     style="fill:#b4f09b" /><path
     inkscape:connector-curvature="0"
     id="path12-1"
     d="m 207.902,325.21 c 13.042,5.808 27.268,9.411 42.305,10.118 1.94,0.091 3.872,0.137 5.792,0.137 17.103,0 33.353,-3.645 48.097,-10.11 v -37.987 h -96.194 z"
     style="fill:#d29b6e" /><path
     inkscape:connector-curvature="0"
     id="path14-4"
     d="m 328.144,143.077 h -12.712 c -2.126,0 -4.165,-0.845 -5.668,-2.348 l -29.522,-29.522 c -3.03,-3.03 -8.211,-0.884 -8.211,3.401 v 20.453 c 0,4.427 -3.589,8.016 -8.016,8.016 h -80.161 c -17.709,0 -32.065,14.356 -32.065,32.065 v 29.121 c 0,56.112 43.122,104.395 99.172,107.034 59.844,2.818 109.248,-44.867 109.248,-104.091 v -32.065 c 0,-17.708 -14.355,-32.064 -32.065,-32.064 z"
     style="fill:#f5b97d" /><path
     inkscape:connector-curvature="0"
     id="path16-1"
     d="m 328.144,151.094 v -8.016 h -12.712 c -2.126,0 -4.165,-0.845 -5.668,-2.348 l -29.522,-29.522 c -3.03,-3.03 -8.211,-0.884 -8.211,3.401 v 20.453 c 0,4.427 -3.589,8.016 -8.016,8.016 h -80.161 c -17.709,0 -32.065,14.356 -32.065,32.065 v 28.852 c 0,47.061 29.921,90.101 75.102,103.267 15.682,4.57 30.874,5.097 45.157,2.888 -50.6,-7.969 -88.195,-53.501 -88.195,-105.886 v -5.072 c 0,-17.709 14.356,-32.065 32.065,-32.065 h 96.194 c 8.854,-0.001 16.032,-7.179 16.032,-16.033 z"
     style="fill:#e3aa75" /><path
     inkscape:connector-curvature="0"
     id="path18"
     d="m 207.902,184.371 c -4.142,0 -7.5,3.358 -7.5,7.5 v 8.016 c 0,4.142 3.358,7.5 7.5,7.5 4.142,0 7.5,-3.358 7.5,-7.5 v -8.016 c 0,-4.142 -3.358,-7.5 -7.5,-7.5 z" /><path
     inkscape:connector-curvature="0"
     id="path20-5"
     d="m 304.096,184.371 c -4.142,0 -7.5,3.358 -7.5,7.5 v 8.016 c 0,4.142 3.358,7.5 7.5,7.5 4.142,0 7.5,-3.358 7.5,-7.5 v -8.016 c 0,-4.142 -3.357,-7.5 -7.5,-7.5 z" /><path
     inkscape:connector-curvature="0"
     id="path22"
     d="m 255.999,263.5 c 11.898,0 22.857,-3.805 29.316,-10.177 2.949,-2.909 2.98,-7.658 0.071,-10.606 -2.91,-2.948 -7.659,-2.98 -10.606,-0.071 -2.737,2.701 -9.298,5.855 -18.781,5.855 -9.483,0 -16.043,-3.154 -18.781,-5.855 -2.95,-2.91 -7.698,-2.877 -10.606,0.071 -2.909,2.948 -2.877,7.697 0.071,10.606 6.46,6.372 17.419,10.177 29.316,10.177 z" /><path
     inkscape:connector-curvature="0"
     id="path24"
     d="m 410.778,389.909 -82.792,-29.221 c -7.268,-2.565 -12.761,-8.35 -15.119,-15.406 37.467,-7.642 72.465,-20.447 90.477,-27.617 5.907,-2.352 10.519,-6.876 12.985,-12.739 2.445,-5.813 2.459,-12.205 0.04,-17.999 -6.198,-14.838 -16.595,-45.875 -16.595,-87.041 V 143.773 C 399.773,64.497 335.276,0 255.999,0 176.722,0 112.225,64.497 112.225,143.774 v 56.113 c 0,41.166 -10.397,72.203 -16.594,87.041 -2.42,5.793 -2.406,12.185 0.039,17.998 2.466,5.864 7.078,10.389 12.985,12.74 18.012,7.17 53.011,19.975 90.477,27.617 -2.358,7.055 -7.85,12.84 -15.119,15.406 l -82.792,29.221 c -22.187,7.83 -37.093,28.899 -37.093,52.427 V 504.5 c 0,4.142 3.358,7.5 7.5,7.5 4.142,0 7.5,-3.358 7.5,-7.5 v -62.165 c 0,-4.992 0.925,-9.83 2.626,-14.326 l 37.925,32.507 c 5.452,4.673 8.578,11.471 8.578,18.651 V 504.5 c 0,4.142 3.358,7.5 7.5,7.5 4.142,0 7.5,-3.358 7.5,-7.5 v -25.333 c 0,-11.564 -5.036,-22.513 -13.816,-30.04 L 89.686,415.052 c 4.423,-4.876 10.048,-8.712 16.528,-10.999 l 50.404,-17.79 c 33.991,51.887 69.37,70.459 93.321,76.847 1.975,0.526 4.014,0.793 6.061,0.793 2.047,0 4.086,-0.267 6.062,-0.793 23.929,-6.382 59.311,-24.949 93.317,-76.847 l 50.406,17.791 c 6.479,2.287 12.105,6.123 16.528,10.999 l -39.755,34.075 c -8.781,7.526 -13.816,18.475 -13.816,30.04 V 504.5 c 0,4.142 3.358,7.5 7.5,7.5 4.142,0 7.5,-3.358 7.5,-7.5 v -25.333 c 0,-7.18 3.126,-13.978 8.578,-18.651 l 37.925,-32.507 c 1.702,4.496 2.626,9.334 2.626,14.326 V 504.5 c 0,4.142 3.358,7.5 7.5,7.5 4.142,0 7.5,-3.358 7.5,-7.5 V 442.335 C 447.87,418.808 432.964,397.739 410.778,389.909 Z M 109.496,299.11 c -0.873,-2.076 -0.882,-4.349 -0.025,-6.401 8.099,-19.389 17.753,-51.232 17.753,-92.822 V 143.774 C 127.225,72.768 184.993,15 255.999,15 c 71.006,0 128.774,57.768 128.774,128.774 v 56.113 c 0,41.588 9.655,73.432 17.753,92.821 0.857,2.052 0.849,4.326 -0.025,6.402 -0.895,2.126 -2.566,3.767 -4.706,4.619 -17.262,6.872 -50.526,19.06 -86.2,26.504 V 304.77 c 33.507,-19.306 56.113,-55.496 56.113,-96.866 V 175.84 c 0,-21.816 -17.749,-39.564 -39.564,-39.564 H 315.218 L 277.334,98.39 c -2.145,-2.146 -5.371,-2.786 -8.173,-1.626 -2.803,1.161 -4.63,3.896 -4.63,6.929 v 32.581 h -40.596 c -4.142,0 -7.5,3.358 -7.5,7.5 0,4.142 3.358,7.5 7.5,7.5 h 48.096 c 4.142,0 7.5,-3.358 7.5,-7.5 V 121.8 l 27.277,27.277 c 1.406,1.407 3.314,2.197 5.303,2.197 h 16.032 c 13.545,0 24.564,11.02 24.564,24.564 v 32.064 c 0,53.326 -43.384,96.709 -96.709,96.709 -53.325,0 -96.709,-43.384 -96.709,-96.709 v -32.064 c 0,-13.545 11.02,-24.564 24.564,-24.564 h 8.02 c 4.142,0 7.5,-3.358 7.5,-7.5 0,-4.142 -3.358,-7.5 -7.5,-7.5 h -8.02 c -21.816,0 -39.564,17.749 -39.564,39.564 v 32.064 c 0,41.37 22.605,77.56 56.113,96.866 v 25.464 c -35.673,-7.445 -68.937,-19.632 -86.2,-26.504 -2.139,-0.851 -3.811,-2.492 -4.706,-4.618 z m 148.702,149.506 c -1.43,0.381 -2.968,0.38 -4.395,0 -20.946,-5.587 -51.871,-21.922 -82.595,-67.502 l 16.688,-5.89 c 14.731,21.012 37.312,46.093 65.732,55.535 0.768,0.255 1.566,0.382 2.365,0.382 0.804,0 1.608,-0.129 2.38,-0.388 13.278,-4.444 26.571,-12.852 39.509,-24.991 3.021,-2.834 3.172,-7.581 0.338,-10.601 -2.834,-3.021 -7.581,-3.172 -10.601,-0.338 -10.554,9.901 -21.185,16.909 -31.639,20.862 -22.961,-8.586 -41.934,-29.562 -54.864,-47.739 8.862,-7.378 14.287,-18.452 14.287,-30.423 v -25.548 c 12.589,4.928 26.282,7.638 40.597,7.638 14.315,0 28.007,-2.71 40.597,-7.638 v 25.548 c 0,11.97 5.424,23.044 14.286,30.423 -1.544,2.144 -3.111,4.247 -4.691,6.281 -2.541,3.271 -1.948,7.983 1.323,10.523 1.368,1.063 2.987,1.577 4.595,1.577 2.237,0 4.451,-0.997 5.929,-2.9 2.054,-2.645 4.085,-5.394 6.075,-8.2 l 16.677,5.886 c -30.739,45.594 -61.666,61.922 -82.593,67.503 z" /><path
     inkscape:connector-curvature="0"
     id="path26-3"
     d="m 192.386,167.126 c 0,4.142 3.358,7.5 7.5,7.5 h 16.032 c 4.142,0 7.5,-3.358 7.5,-7.5 0,-4.142 -3.358,-7.5 -7.5,-7.5 h -16.032 c -4.142,0 -7.5,3.358 -7.5,7.5 z" /><path
     inkscape:connector-curvature="0"
     id="path28-8"
     d="m 296.081,174.626 h 16.032 c 4.142,0 7.5,-3.358 7.5,-7.5 0,-4.142 -3.358,-7.5 -7.5,-7.5 h -16.032 c -4.142,0 -7.5,3.358 -7.5,7.5 0,4.142 3.357,7.5 7.5,7.5 z" /></g><rect
   y="-104.38158"
   x="-28.555799"
   height="673.03345"
   width="469.31418"
   id="rect2447-0-9"
   style="display:inline;fill:none;fill-opacity:1;stroke:url(#linearGradient2459-6-2);stroke-width:25.31489563;stroke-miterlimit:4;stroke-dasharray:none;stroke-opacity:1" /><text
   id="text2485-9"
   y="522.54254"
   x="135.51988"
   style="font-style:normal;font-weight:normal;font-size:76.99105835px;line-height:1.25;font-family:sans-serif;letter-spacing:0px;word-spacing:0px;display:inline;fill:#000000;fill-opacity:1;stroke:none;stroke-width:1.9247762"
   xml:space="preserve"><tspan
     style="stroke-width:1.9247762"
     y="522.54254"
     x="135.51988"
     id="tspan2483-7"
     sodipodi:role="line">ISA</tspan></text>








</g></svg>