<?xml version="1.0" encoding="UTF-8" standalone="no"?>
<!-- Generator: Adobe Illustrator 19.0.0, SVG Export Plug-In . SVG Version: 6.00 Build 0)  -->

<svg
   xmlns:osb="http://www.openswatchbook.org/uri/2009/osb"
   xmlns:dc="http://purl.org/dc/elements/1.1/"
   xmlns:cc="http://creativecommons.org/ns#"
   xmlns:rdf="http://www.w3.org/1999/02/22-rdf-syntax-ns#"
   xmlns:svg="http://www.w3.org/2000/svg"
   xmlns="http://www.w3.org/2000/svg"
   xmlns:xlink="http://www.w3.org/1999/xlink"
   xmlns:sodipodi="http://sodipodi.sourceforge.net/DTD/sodipodi-0.dtd"
   xmlns:inkscape="http://www.inkscape.org/namespaces/inkscape"
   version="1.1"
   id="Capa_1"
   x="0px"
   y="0px"
   viewBox="0 0 511.999 511.999"
   style="enable-background:new 0 0 511.999 511.999;"
   xml:space="preserve"
   sodipodi:docname="58.svg"
   inkscape:version="0.92.4 (5da689c313, 2019-01-14)"><metadata
   id="metadata95"><rdf:RDF><cc:Work
       rdf:about=""><dc:format>image/svg+xml</dc:format><dc:type
         rdf:resource="http://purl.org/dc/dcmitype/StillImage" /><dc:title></dc:title></cc:Work></rdf:RDF></metadata><defs
   id="defs93"><linearGradient
     id="linearGradient2457"
     osb:paint="solid"><stop
       style="stop-color:#000000;stop-opacity:1;"
       offset="0"
       id="stop2455" /></linearGradient><linearGradient
     inkscape:collect="always"
     xlink:href="#linearGradient2457"
     id="linearGradient2459-6-2"
     x1="1442.3572"
     y1="-339.5119"
     x2="1514.9286"
     y2="-339.5119"
     gradientUnits="userSpaceOnUse"
     gradientTransform="matrix(6.4669274,0,0,9.6773016,-9356.1743,3517.6929)" /><pattern
     y="0"
     x="0"
     height="6"
     width="6"
     patternUnits="userSpaceOnUse"
     id="EMFhbasepattern" /></defs><sodipodi:namedview
   pagecolor="#ffffff"
   bordercolor="#666666"
   borderopacity="1"
   objecttolerance="10"
   gridtolerance="10"
   guidetolerance="10"
   inkscape:pageopacity="0"
   inkscape:pageshadow="2"
   inkscape:window-width="1920"
   inkscape:window-height="986"
   id="namedview91"
   showgrid="false"
   inkscape:zoom="1.3037307"
   inkscape:cx="55.636868"
   inkscape:cy="256.72862"
   inkscape:window-x="-11"
   inkscape:window-y="-11"
   inkscape:window-maximized="1"
   inkscape:current-layer="g1046" />























<g
   id="g60">
</g>
<g
   id="g62">
</g>
<g
   id="g64">
</g>
<g
   id="g66">
</g>
<g
   id="g68">
</g>
<g
   id="g70">
</g>
<g
   id="g72">
</g>
<g
   id="g74">
</g>
<g
   id="g76">
</g>
<g
   id="g78">
</g>
<g
   id="g80">
</g>
<g
   id="g82">
</g>
<g
   id="g84">
</g>
<g
   id="g86">
</g>
<g
   id="g88">
</g>
<g
   id="g1046"
   transform="matrix(0.55886315,0,0,0.55886315,157.54779,132.77619)"><g
   transform="matrix(0.88865554,0,0,0.88865554,167.42129,-14.466047)"
   id="g892"><g
     id="g1201"
     transform="matrix(1.0271485,0,0,1.0271485,-219.42359,-14.561051)"><path
       style="fill:#e6646e"
       d="m 413.862,355.701 -61.469,-18.079 c -23.881,-7.024 -40.28,-28.941 -40.28,-53.833 H 199.887 c 0,24.892 -16.399,46.809 -40.28,53.833 l -61.47,18.079 c -20.469,6.02 -34.525,24.806 -34.525,46.142 V 504.5 H 448.386 V 401.842 c 10e-4,-21.335 -14.055,-40.121 -34.524,-46.141 z"
       id="path2"
       inkscape:connector-curvature="0" /><path
       style="fill:#dc4655"
       d="m 256,7.5 c 70.835,0 128.258,57.423 128.258,128.258 v 56.113 C 384.258,312.113 256,352.194 256,408.306 256,352.193 127.742,312.112 127.742,191.871 V 135.758 C 127.742,64.923 185.165,7.5 256,7.5 Z"
       id="path4"
       inkscape:connector-curvature="0" /><polygon
       style="fill:#c9c6ca"
       points="231.952,280.048 280.048,280.048 280.048,360.21 256,392.274 231.952,360.21 "
       id="polygon6" /><path
       style="fill:#dbd9dc"
       d="m 175.839,199.887 v 42.42 c 0,13.111 7.982,24.902 20.156,29.771 l 39.165,15.666 c 13.378,5.352 28.302,5.352 41.68,0 l 39.165,-15.666 c 12.174,-4.869 20.156,-16.66 20.156,-29.771 v -42.42 z"
       id="path8-2"
       inkscape:connector-curvature="0" /><path
       style="fill:#edebed"
       d="m 254.199,39.581 c -52.955,0.969 -94.392,46.403 -94.392,99.367 v 43.606 c 0,10.352 6.624,19.541 16.443,22.814 l 31.654,10.551 c 0,8.854 7.179,16.032 16.032,16.032 h 64.129 c 8.854,0 16.032,-7.179 16.032,-16.032 l 31.652,-10.551 c 9.821,-3.273 16.445,-12.464 16.445,-22.815 v -46.795 c 0,-53.725 -44.044,-97.164 -97.995,-96.177 z"
       id="path10-5"
       inkscape:connector-curvature="0" /><path
       style="fill:#dbd9dc"
       d="m 207.903,135.758 c 0,-44.813 30.688,-82.357 72.163,-93.045 -8.258,-2.131 -16.906,-3.296 -25.867,-3.132 -52.956,0.969 -94.392,46.403 -94.392,99.367 v 43.606 c 0,10.352 6.624,19.541 16.444,22.814 l 23.235,7.744 c 3.55,1.184 6.471,3.609 8.418,6.74 v -84.094 z"
       id="path12-2"
       inkscape:connector-curvature="0" /><circle
       style="fill:#e6646e"
       cx="215.92"
       cy="159.81"
       r="24.049999"
       id="circle14" /><path
       style="fill:#dc4655"
       d="m 215.919,159.806 c 8.879,0 16.547,4.866 20.714,12.024 2.065,-3.55 3.335,-7.621 3.335,-12.024 0,-13.282 -10.767,-24.048 -24.048,-24.048 -13.282,0 -24.048,10.767 -24.048,24.048 0,4.403 1.27,8.474 3.335,12.024 4.165,-7.157 11.833,-12.024 20.712,-12.024 z"
       id="path16-7"
       inkscape:connector-curvature="0" /><circle
       style="fill:#e6646e"
       cx="296.07999"
       cy="159.81"
       r="24.049999"
       id="circle18" /><path
       style="fill:#dc4655"
       d="m 296.081,159.806 c 8.879,0 16.547,4.866 20.714,12.024 2.065,-3.55 3.335,-7.621 3.335,-12.024 0,-13.282 -10.767,-24.048 -24.048,-24.048 -13.281,0 -24.048,10.767 -24.048,24.048 0,4.403 1.27,8.474 3.335,12.024 4.165,-7.157 11.832,-12.024 20.712,-12.024 z"
       id="path20-2"
       inkscape:connector-curvature="0" /><path
       d="m 215.919,128.258 c -17.396,0 -31.548,14.152 -31.548,31.549 0,17.396 14.152,31.548 31.548,31.548 17.396,0 31.548,-14.152 31.548,-31.548 10e-4,-17.397 -14.152,-31.549 -31.548,-31.549 z m 0,48.096 c -9.125,0 -16.548,-7.423 -16.548,-16.548 0,-9.125 7.423,-16.549 16.548,-16.549 9.125,0 16.548,7.424 16.548,16.549 0,9.125 -7.423,16.548 -16.548,16.548 z"
       id="path22"
       inkscape:connector-curvature="0" /><path
       d="m 296.081,128.258 c -17.396,0 -31.548,14.152 -31.548,31.549 0,17.396 14.152,31.548 31.548,31.548 17.396,0 31.548,-14.152 31.548,-31.548 0,-17.397 -14.152,-31.549 -31.548,-31.549 z m 0,48.096 c -9.125,0 -16.548,-7.423 -16.548,-16.548 0,-9.125 7.423,-16.549 16.548,-16.549 9.125,0 16.548,7.424 16.548,16.549 0,9.125 -7.423,16.548 -16.548,16.548 z"
       id="path24"
       inkscape:connector-curvature="0" /><path
       d="m 256,184.371 c -4.142,0 -7.5,3.357 -7.5,7.5 v 8.016 c 0,4.143 3.358,7.5 7.5,7.5 4.142,0 7.5,-3.357 7.5,-7.5 v -8.016 c 0,-4.142 -3.358,-7.5 -7.5,-7.5 z"
       id="path26"
       inkscape:connector-curvature="0" /><path
       d="m 415.978,350.876 -61.469,-18.079 c -7.814,-2.298 -14.815,-6.448 -20.521,-12.121 29.961,-31.567 57.77,-71.242 57.77,-128.805 V 135.758 C 391.758,60.9 330.857,0 256,0 181.143,0 120.242,60.9 120.242,135.758 v 56.113 c 0,57.562 27.807,97.236 57.767,128.803 -5.704,5.673 -12.699,9.823 -20.518,12.123 l -61.469,18.079 c -23.498,6.911 -39.909,28.845 -39.909,53.338 V 504.5 c 0,4.143 3.358,7.5 7.5,7.5 4.142,0 7.5,-3.357 7.5,-7.5 V 404.214 c 0,-5.486 1.132,-10.794 3.19,-15.666 l 45.566,39.87 c 5.332,4.665 8.389,11.403 8.389,18.486 V 504.5 c 0,4.143 3.358,7.5 7.5,7.5 4.142,0 7.5,-3.357 7.5,-7.5 v -57.596 c 0,-11.409 -4.925,-22.262 -13.511,-29.775 L 82.664,375.932 c 4.76,-4.908 10.763,-8.657 17.59,-10.665 l 61.47,-18.079 c 10.205,-3.002 19.337,-8.414 26.79,-15.807 5.437,5.383 10.847,10.538 16.079,15.524 23.56,22.451 43.907,41.841 43.907,61.402 0,4.143 3.358,7.5 7.5,7.5 4.142,0 7.5,-3.357 7.5,-7.5 0,-19.562 20.347,-38.951 43.908,-61.402 5.231,-4.985 10.64,-10.14 16.076,-15.521 7.456,7.395 16.596,12.804 26.793,15.804 l 61.469,18.079 c 6.827,2.008 12.831,5.757 17.59,10.665 l -47.083,41.197 c -8.586,7.514 -13.511,18.366 -13.511,29.775 V 504.5 c 0,4.143 3.358,7.5 7.5,7.5 4.142,0 7.5,-3.357 7.5,-7.5 v -57.596 c 0,-7.083 3.058,-13.821 8.389,-18.486 l 45.566,-39.87 c 2.059,4.872 3.19,10.18 3.19,15.666 V 504.5 c 0,4.143 3.358,7.5 7.5,7.5 4.142,0 7.5,-3.357 7.5,-7.5 V 404.214 c 0,-24.493 -16.411,-46.427 -39.909,-53.338 z m -232.639,-135.239 17.746,5.915 c 2.531,10.265 11.816,17.899 22.851,17.899 h 0.516 v 0.517 c 0,4.143 3.358,7.5 7.5,7.5 4.142,0 7.5,-3.357 7.5,-7.5 v -0.517 h 9.048 v 0.517 c 0,4.143 3.358,7.5 7.5,7.5 4.142,0 7.5,-3.357 7.5,-7.5 v -0.517 h 9.048 v 0.517 c 0,4.143 3.358,7.5 7.5,7.5 4.142,0 7.5,-3.357 7.5,-7.5 v -0.517 h 0.516 c 11.035,0 20.32,-7.635 22.851,-17.899 l 17.746,-5.915 v 26.671 c 0,10.103 -6.061,19.055 -15.441,22.807 l -39.165,15.667 c -11.643,4.658 -24.466,4.657 -36.109,0 L 198.78,265.115 c -9.38,-3.752 -15.441,-12.704 -15.441,-22.807 z M 256,299.278 c 5.56,0 11.118,-0.753 16.548,-2.223 v 15.573 h -33.097 v -15.573 c 5.431,1.471 10.989,2.223 16.549,2.223 z m -16.548,28.351 h 33.097 v 17.064 H 239.452 Z M 256,382.274 c -4.176,-7.374 -9.888,-14.579 -16.548,-21.851 v -0.73 h 33.097 v 0.73 c -6.661,7.272 -12.373,14.478 -16.549,21.851 z m 41.06,-46.229 c -3.238,3.086 -6.419,6.118 -9.511,9.115 v -53.62 l 31.242,-12.498 c 15.108,-6.043 24.871,-20.462 24.871,-36.734 v -32.307 c 9.775,-5.516 16.032,-15.906 16.032,-27.447 v -46.796 c 0,-25.306 -9.217,-49.676 -25.953,-68.622 -2.742,-3.105 -7.481,-3.398 -10.586,-0.656 -3.104,2.742 -3.398,7.482 -0.656,10.586 14.313,16.203 22.195,37.047 22.195,58.692 v 46.796 c 0,7.134 -4.547,13.443 -11.315,15.699 l -31.653,10.551 c -3.063,1.021 -5.128,3.887 -5.128,7.115 0,4.705 -3.828,8.532 -8.532,8.532 h -64.129 c -4.705,0 -8.532,-3.827 -8.532,-8.532 0,-3.229 -2.066,-6.095 -5.128,-7.115 l -31.653,-10.551 c -6.768,-2.256 -11.315,-8.565 -11.315,-15.699 v -46.796 c 0,-48.905 39.788,-88.693 88.693,-88.693 15.6,0 30.937,4.104 44.355,11.868 3.584,2.074 8.172,0.851 10.248,-2.734 2.074,-3.586 0.85,-8.174 -2.735,-10.248 C 292.169,36.866 274.234,32.064 256,32.064 c -57.177,0 -103.693,46.517 -103.693,103.693 v 46.796 c 0,11.542 6.257,21.932 16.032,27.447 v 32.307 c 0,16.272 9.762,30.691 24.87,36.734 l 31.243,12.498 v 53.62 c -3.092,-2.996 -6.273,-6.029 -9.511,-9.115 -17.936,-17.092 -38.266,-36.465 -53.709,-59.849 -17.488,-26.479 -25.989,-54.062 -25.989,-84.325 V 135.757 C 135.242,69.172 189.414,15 256,15 c 66.586,0 120.758,54.172 120.758,120.758 v 56.113 c 0,30.264 -8.501,57.847 -25.989,84.325 -15.443,23.384 -35.773,42.757 -53.709,59.849 z"
       id="path28-4"
       inkscape:connector-curvature="0" /><path
       d="m 256,432.871 c -4.142,0 -7.5,3.357 -7.5,7.5 V 504.5 c 0,4.143 3.358,7.5 7.5,7.5 4.142,0 7.5,-3.357 7.5,-7.5 v -64.129 c 0,-4.142 -3.358,-7.5 -7.5,-7.5 z"
       id="path30-6"
       inkscape:connector-curvature="0" /></g></g><rect
   y="-104.38158"
   x="-28.555799"
   height="673.03345"
   width="469.31418"
   id="rect2447-0-9"
   style="display:inline;fill:none;fill-opacity:1;stroke:url(#linearGradient2459-6-2);stroke-width:25.31489563;stroke-miterlimit:4;stroke-dasharray:none;stroke-opacity:1" /><text
   id="text2485-9"
   y="522.54254"
   x="49.750793"
   style="font-style:normal;font-weight:normal;font-size:76.99105835px;line-height:1.25;font-family:sans-serif;letter-spacing:0px;word-spacing:0px;display:inline;fill:#000000;fill-opacity:1;stroke:none;stroke-width:1.9247762"
   xml:space="preserve"><tspan
     style="stroke-width:1.9247762"
     y="522.54254"
     x="49.750793"
     id="tspan2483-7"
     sodipodi:role="line">MIGUEL</tspan></text>








</g></svg>