<?xml version="1.0" encoding="UTF-8" standalone="no"?>
<!-- Generator: Adobe Illustrator 19.0.0, SVG Export Plug-In . SVG Version: 6.00 Build 0)  -->

<svg
   xmlns:osb="http://www.openswatchbook.org/uri/2009/osb"
   xmlns:dc="http://purl.org/dc/elements/1.1/"
   xmlns:cc="http://creativecommons.org/ns#"
   xmlns:rdf="http://www.w3.org/1999/02/22-rdf-syntax-ns#"
   xmlns:svg="http://www.w3.org/2000/svg"
   xmlns="http://www.w3.org/2000/svg"
   xmlns:xlink="http://www.w3.org/1999/xlink"
   xmlns:sodipodi="http://sodipodi.sourceforge.net/DTD/sodipodi-0.dtd"
   xmlns:inkscape="http://www.inkscape.org/namespaces/inkscape"
   version="1.1"
   id="Capa_1"
   x="0px"
   y="0px"
   viewBox="0 0 511.999 511.999"
   style="enable-background:new 0 0 511.999 511.999;"
   xml:space="preserve"
   sodipodi:docname="59.svg"
   inkscape:version="0.92.4 (5da689c313, 2019-01-14)"><metadata
   id="metadata95"><rdf:RDF><cc:Work
       rdf:about=""><dc:format>image/svg+xml</dc:format><dc:type
         rdf:resource="http://purl.org/dc/dcmitype/StillImage" /><dc:title></dc:title></cc:Work></rdf:RDF></metadata><defs
   id="defs93"><linearGradient
     id="linearGradient2457"
     osb:paint="solid"><stop
       style="stop-color:#000000;stop-opacity:1;"
       offset="0"
       id="stop2455" /></linearGradient><linearGradient
     inkscape:collect="always"
     xlink:href="#linearGradient2457"
     id="linearGradient2459-6-2"
     x1="1442.3572"
     y1="-339.5119"
     x2="1514.9286"
     y2="-339.5119"
     gradientUnits="userSpaceOnUse"
     gradientTransform="matrix(6.4669274,0,0,9.6773016,-9356.1743,3517.6929)" /><pattern
     y="0"
     x="0"
     height="6"
     width="6"
     patternUnits="userSpaceOnUse"
     id="EMFhbasepattern" /></defs><sodipodi:namedview
   pagecolor="#ffffff"
   bordercolor="#666666"
   borderopacity="1"
   objecttolerance="10"
   gridtolerance="10"
   guidetolerance="10"
   inkscape:pageopacity="0"
   inkscape:pageshadow="2"
   inkscape:window-width="1920"
   inkscape:window-height="986"
   id="namedview91"
   showgrid="false"
   inkscape:zoom="1.3037307"
   inkscape:cx="55.636868"
   inkscape:cy="256.72862"
   inkscape:window-x="-11"
   inkscape:window-y="-11"
   inkscape:window-maximized="1"
   inkscape:current-layer="g1046" />























<g
   id="g60">
</g>
<g
   id="g62">
</g>
<g
   id="g64">
</g>
<g
   id="g66">
</g>
<g
   id="g68">
</g>
<g
   id="g70">
</g>
<g
   id="g72">
</g>
<g
   id="g74">
</g>
<g
   id="g76">
</g>
<g
   id="g78">
</g>
<g
   id="g80">
</g>
<g
   id="g82">
</g>
<g
   id="g84">
</g>
<g
   id="g86">
</g>
<g
   id="g88">
</g>
<g
   id="g1046"
   transform="matrix(0.55886315,0,0,0.55886315,157.54779,132.77619)"><g
   transform="matrix(0.93886012,0,0,0.93886012,-34.24784,-37.920647)"
   id="g910"><path
     inkscape:connector-curvature="0"
     id="path2-8"
     d="M 408.282,380.949 325.49,351.728 H 186.51 l -82.792,29.221 c -19.23,6.787 -32.089,24.963 -32.089,45.355 V 504.5 h 368.742 v -78.196 c 0,-20.393 -12.86,-38.568 -32.089,-45.355 z"
     style="fill:#edebed" /><rect
     id="rect4"
     height="152.31"
     width="80.160004"
     style="fill:#a5cdff"
     y="352.19"
     x="215.91901" /><path
     inkscape:connector-curvature="0"
     id="path6"
     d="m 215.919,396.141 c 11.465,7.677 25.246,12.165 40.081,12.165 14.835,0 28.615,-4.489 40.081,-12.165 v -43.948 h -80.162 z"
     style="fill:#8cb4eb" /><path
     inkscape:connector-curvature="0"
     id="path8"
     d="m 400.177,257.719 c -3.97,-10.039 -7.903,-25.995 -7.903,-49.816 V 143.774 C 392.274,68.511 331.262,7.5 256,7.5 180.738,7.5 119.726,68.511 119.726,143.774 v 64.129 c 0,23.821 -3.933,39.777 -7.903,49.816 -3.324,8.406 1.229,17.891 9.792,20.787 19.083,6.454 51.306,16.163 86.289,21.579 h 96.194 c 34.983,-5.415 67.206,-15.124 86.288,-21.579 8.562,-2.896 13.115,-12.381 9.791,-20.787 z"
     style="fill:#64505a" /><path
     inkscape:connector-curvature="0"
     id="path10"
     d="m 256,384.258 v 0 c -26.563,0 -48.097,-21.534 -48.097,-48.097 v -56.113 h 96.194 v 56.113 c 0,26.563 -21.534,48.097 -48.097,48.097 z"
     style="fill:#e3aa75" /><path
     inkscape:connector-curvature="0"
     id="path12"
     d="m 207.903,318.035 c 14.744,6.465 30.994,10.11 48.097,10.11 17.103,0 33.353,-3.645 48.097,-10.11 v -37.987 h -96.194 z"
     style="fill:#d29b6e" /><path
     inkscape:connector-curvature="0"
     id="path14"
     d="m 256,304.097 v 0 c -57.554,0 -104.21,-46.656 -104.21,-104.21 V 79.645 H 360.209 V 199.887 C 360.21,257.441 313.553,304.097 256,304.097 Z"
     style="fill:#f5b97d" /><path
     inkscape:connector-curvature="0"
     id="path16"
     d="m 219.696,123.356 c 1.69,-1.344 3.487,-1.626 4.695,-1.626 1.184,0 2.961,0.271 4.692,1.564 21.598,16.119 65.395,43.127 131.126,57.541 V 79.645 H 151.79 v 120.242 c 0,57.553 46.656,104.21 104.21,104.21 5.467,0 10.793,-0.548 16.032,-1.358 -49.921,-7.73 -88.177,-50.764 -88.177,-102.851 V 165.24 c 0,-10.998 5.677,-21.14 14.946,-27.059 7.172,-4.581 14.231,-9.525 20.895,-14.825 z"
     style="fill:#e3aa75" /><rect
     id="rect18"
     height="48.099998"
     width="80.160004"
     style="fill:#a5cdff"
     y="456.39999"
     x="111.709" /><path
     inkscape:connector-curvature="0"
     id="path20"
     d="m 219.928,227.914 c 0,17.709 16.15,32.064 36.072,32.064 19.922,0 36.073,-14.355 36.072,-32.064 z"
     style="fill:#ffffff" /><path
     inkscape:connector-curvature="0"
     id="path22-2"
     d="m 238.673,99.907 c 23.381,17.451 74.581,48.611 153.601,59.899 V 147.345 C 392.274,70.961 329.767,6.094 253.397,7.524 179.336,8.912 119.726,69.381 119.726,143.774 v 5.115 c 17.098,-6.445 58.412,-23.505 89.991,-48.618 8.426,-6.701 20.329,-6.803 28.956,-0.364 z"
     style="fill:#6e5a64" /><g
     id="g28"><path
       inkscape:connector-curvature="0"
       id="path24-3"
       d="M 339.598,338.236 304.097,321.491 256,504.5 h 40.081 l 44.337,-96.063 c 2.336,-5.062 1.875,-10.973 -1.217,-15.611 l -11.055,-16.583 15.692,-20.923 c 4.314,-5.754 2.263,-14.017 -4.24,-17.084 z"
       style="fill:#dbd9dc" /><path
       inkscape:connector-curvature="0"
       id="path26-9"
       d="M 172.402,338.236 207.903,321.491 256,504.5 h -40.081 l -44.337,-96.063 c -2.336,-5.062 -1.875,-10.973 1.217,-15.611 l 11.055,-16.583 -15.692,-20.923 c -4.314,-5.754 -2.263,-14.017 4.24,-17.084 z"
       style="fill:#dbd9dc" /></g><path
     inkscape:connector-curvature="0"
     id="path30"
     d="M 392.109,137.55 C 388.853,62.921 326.448,6.155 253.397,7.524 238.365,7.806 223.98,10.629 210.516,15.401 242.124,56.358 302.45,116.876 392.109,137.55 Z"
     style="fill:#84737b" /><path
     inkscape:connector-curvature="0"
     id="path32"
     d="m 410.778,373.876 -57.831,-20.41 c 0.837,-3.064 0.895,-6.325 0.106,-9.502 -1.371,-5.522 -5.109,-10.083 -10.256,-12.511 l -31.201,-14.717 v -10.274 c 32.328,-5.506 61.735,-14.27 81.191,-20.852 6.079,-2.055 11.113,-6.575 13.814,-12.401 2.703,-5.83 2.897,-12.312 0.55,-18.247 -3.366,-8.511 -7.377,-23.584 -7.377,-47.059 V 143.774 C 399.774,64.497 335.277,0 256,0 176.723,0 112.226,64.497 112.226,143.774 v 64.129 c 0,23.477 -4.012,38.548 -7.377,47.059 -2.348,5.937 -2.153,12.417 0.55,18.248 2.7,5.825 7.735,10.346 13.813,12.4 19.457,6.582 48.863,15.346 81.192,20.852 v 10.274 l -31.2,14.717 c -5.147,2.428 -8.886,6.988 -10.256,12.511 -0.789,3.177 -0.731,6.438 0.106,9.502 l -57.83,20.41 c -22.187,7.831 -37.093,28.899 -37.093,52.428 V 504.5 c 0,4.143 3.358,7.5 7.5,7.5 4.142,0 7.5,-3.357 7.5,-7.5 v -78.196 c 0,-17.18 10.885,-32.565 27.085,-38.283 l 60.963,-21.516 7.494,9.993 -8.113,12.168 c -4.506,6.76 -5.19,15.54 -1.786,22.914 l 17.225,37.323 H 159.29 v -8.532 c 0,-4.143 -3.358,-7.5 -7.5,-7.5 -4.142,0 -7.5,3.357 -7.5,7.5 v 8.532 h -32.581 c -4.142,0 -7.5,3.357 -7.5,7.5 V 504.5 c 0,4.143 3.358,7.5 7.5,7.5 h 80.162 c 4.142,0 7.5,-3.357 7.5,-7.5 v -17.958 l 9.739,21.101 c 1.266,2.744 3.979,4.359 6.814,4.359 1.052,0 2.121,-0.223 3.138,-0.692 3.761,-1.735 5.402,-6.191 3.667,-9.952 l -44.337,-96.064 c -1.234,-2.674 -0.986,-5.856 0.647,-8.308 l 11.056,-16.583 c 1.764,-2.646 1.667,-6.116 -0.24,-8.66 l -15.693,-20.924 c -0.956,-1.274 -0.822,-2.577 -0.657,-3.241 0.165,-0.663 0.656,-1.878 2.097,-2.558 l 27.341,-12.896 16.319,62.096 c 1.053,4.007 5.157,6.403 9.16,5.348 4.006,-1.053 6.4,-5.154 5.348,-9.16 l -0.628,-2.388 c 7.327,2.462 15.051,3.74 22.858,3.74 7.799,0 15.527,-1.276 22.857,-3.738 L 256,474.995 242.179,422.406 c -1.053,-4.005 -5.153,-6.402 -9.16,-5.348 -4.006,1.053 -6.4,5.154 -5.348,9.16 l 21.075,80.189 c 0.866,3.296 3.846,5.594 7.254,5.594 3.408,0 6.387,-2.298 7.253,-5.594 l 45.804,-174.283 27.341,12.896 c 1.44,0.68 1.932,1.895 2.097,2.558 0.165,0.664 0.298,1.967 -0.658,3.241 l -15.692,20.924 c -1.908,2.544 -2.004,6.015 -0.24,8.66 l 11.055,16.583 c 1.634,2.451 1.882,5.634 0.648,8.309 l -44.337,96.063 c -1.736,3.761 -0.094,8.217 3.667,9.952 1.018,0.47 2.086,0.692 3.138,0.692 2.835,0 5.548,-1.616 6.814,-4.359 l 44.337,-96.063 c 3.404,-7.375 2.72,-16.155 -1.786,-22.915 l -8.112,-12.168 7.494,-9.992 60.963,21.516 c 16.201,5.718 27.085,21.103 27.085,38.283 V 504.5 c 0,4.143 3.358,7.5 7.5,7.5 4.142,0 7.5,-3.357 7.5,-7.5 v -78.196 c 0,-23.529 -14.907,-44.597 -37.093,-52.428 z M 184.371,497 h -65.162 v -33.097 h 25.081 v 0.516 c 0,4.143 3.358,7.5 7.5,7.5 4.142,0 7.5,-3.357 7.5,-7.5 v -0.516 h 25.081 V 497 Z M 392.992,266.901 c -0.995,2.146 -2.773,3.743 -5.01,4.5 -16.038,5.426 -39.01,12.371 -64.719,17.614 26.98,-20.412 44.446,-52.767 44.446,-89.129 v -36.732 c 5.644,1.15 11.336,2.19 17.064,3.103 v 41.646 c 0,20.742 2.835,38.431 8.429,52.575 0.822,2.078 0.747,4.358 -0.21,6.423 z M 256,376.758 c -9.735,0 -19.299,-2.507 -27.721,-7.245 l -12.876,-48.992 v -16.562 c 12.589,4.928 26.282,7.638 40.597,7.638 14.315,0 28.007,-2.71 40.597,-7.638 v 16.562 l -12.877,48.998 c -8.418,4.734 -17.996,7.239 -27.72,7.239 z m 0,-80.161 c -53.326,0 -96.709,-43.384 -96.709,-96.71 v -32.064 c 0,-4.143 -3.358,-7.5 -7.5,-7.5 -4.142,0 -7.5,3.357 -7.5,7.5 v 32.064 c 0,36.362 17.466,68.717 44.446,89.129 -25.709,-5.244 -48.681,-12.189 -64.72,-17.614 -2.236,-0.756 -4.015,-2.354 -5.009,-4.5 -0.958,-2.065 -1.032,-4.347 -0.21,-6.424 5.592,-14.142 8.428,-31.83 8.428,-52.574 v -56.426 c 1.158,-0.195 2.259,-0.4 2.577,-0.491 1.861,-0.532 46.021,-13.384 84.703,-44.775 5.658,-4.593 13.805,-4.674 19.81,-0.198 14.775,11.013 39.802,26.955 75.128,40.367 3.873,1.473 8.204,-0.478 9.674,-4.35 1.47,-3.872 -0.477,-8.203 -4.35,-9.674 -33.707,-12.797 -57.48,-27.93 -71.489,-38.371 -11.516,-8.581 -27.234,-8.344 -38.226,0.579 -32.013,25.98 -69.106,38.747 -77.586,41.448 C 131.494,68.606 187.601,15 256,15 c 71.006,0 128.774,57.768 128.774,128.774 v 7.276 c -13.143,-2.176 -26.089,-5 -38.586,-8.443 -3.99,-1.102 -8.122,1.245 -9.223,5.238 -1.1,3.993 1.245,8.123 5.238,9.223 3.47,0.956 6.977,1.858 10.506,2.723 v 40.095 c 0,53.327 -43.383,96.711 -96.709,96.711 z" /><path
     inkscape:connector-curvature="0"
     id="path34"
     d="m 199.887,167.307 h 16.032 c 4.142,0 7.5,-3.357 7.5,-7.5 0,-4.143 -3.358,-7.5 -7.5,-7.5 h -16.032 c -4.142,0 -7.5,3.357 -7.5,7.5 0,4.143 3.358,7.5 7.5,7.5 z" /><path
     inkscape:connector-curvature="0"
     id="path36"
     d="m 296.081,167.307 h 16.032 c 4.142,0 7.5,-3.357 7.5,-7.5 0,-4.143 -3.358,-7.5 -7.5,-7.5 h -16.032 c -4.142,0 -7.5,3.357 -7.5,7.5 0,4.143 3.357,7.5 7.5,7.5 z" /><path
     inkscape:connector-curvature="0"
     id="path38"
     d="M 400.291,452.911 H 387.75 v -12.54 c 0,-4.143 -3.358,-7.5 -7.5,-7.5 -4.142,0 -7.5,3.357 -7.5,7.5 v 12.54 h -12.541 c -4.142,0 -7.5,3.357 -7.5,7.5 0,4.143 3.358,7.5 7.5,7.5 h 12.541 v 12.54 c 0,4.143 3.358,7.5 7.5,7.5 4.142,0 7.5,-3.357 7.5,-7.5 v -12.54 h 12.541 c 4.142,0 7.5,-3.357 7.5,-7.5 0,-4.143 -3.358,-7.5 -7.5,-7.5 z" /><path
     inkscape:connector-curvature="0"
     id="path40"
     d="m 215.403,191.871 v -8.017 c 0,-4.143 -3.358,-7.5 -7.5,-7.5 -4.142,0 -7.5,3.357 -7.5,7.5 v 8.017 c 0,4.143 3.358,7.5 7.5,7.5 4.142,0 7.5,-3.357 7.5,-7.5 z" /><path
     inkscape:connector-curvature="0"
     id="path42"
     d="m 304.097,176.354 c -4.142,0 -7.5,3.357 -7.5,7.5 v 8.017 c 0,4.143 3.358,7.5 7.5,7.5 4.142,0 7.5,-3.357 7.5,-7.5 v -8.017 c 0,-4.142 -3.358,-7.5 -7.5,-7.5 z" /><path
     inkscape:connector-curvature="0"
     id="path44"
     d="m 212.427,227.915 c 0,21.816 19.547,39.564 43.573,39.564 24.026,0 43.573,-17.748 43.573,-39.564 0,-4.143 -3.358,-7.5 -7.5,-7.5 h -72.146 c -4.142,0 -7.5,3.357 -7.5,7.5 z m 70.784,7.5 c -3.695,9.889 -14.497,17.064 -27.211,17.064 -12.714,0 -23.516,-7.176 -27.211,-17.064 z" /></g><rect
   y="-104.38158"
   x="-28.555799"
   height="673.03345"
   width="469.31418"
   id="rect2447-0-9"
   style="display:inline;fill:none;fill-opacity:1;stroke:url(#linearGradient2459-6-2);stroke-width:25.31489563;stroke-miterlimit:4;stroke-dasharray:none;stroke-opacity:1" /><text
   id="text2485-9"
   y="522.54254"
   x="76.141289"
   style="font-style:normal;font-weight:normal;font-size:76.99105835px;line-height:1.25;font-family:sans-serif;letter-spacing:0px;word-spacing:0px;display:inline;fill:#000000;fill-opacity:1;stroke:none;stroke-width:1.9247762"
   xml:space="preserve"><tspan
     style="stroke-width:1.9247762"
     y="522.54254"
     x="76.141289"
     id="tspan2483-7"
     sodipodi:role="line">PAOLA</tspan></text>








</g></svg>