<?xml version="1.0" encoding="UTF-8" standalone="no"?>
<!-- Generator: Adobe Illustrator 19.0.0, SVG Export Plug-In . SVG Version: 6.00 Build 0)  -->

<svg
   xmlns:osb="http://www.openswatchbook.org/uri/2009/osb"
   xmlns:dc="http://purl.org/dc/elements/1.1/"
   xmlns:cc="http://creativecommons.org/ns#"
   xmlns:rdf="http://www.w3.org/1999/02/22-rdf-syntax-ns#"
   xmlns:svg="http://www.w3.org/2000/svg"
   xmlns="http://www.w3.org/2000/svg"
   xmlns:xlink="http://www.w3.org/1999/xlink"
   xmlns:sodipodi="http://sodipodi.sourceforge.net/DTD/sodipodi-0.dtd"
   xmlns:inkscape="http://www.inkscape.org/namespaces/inkscape"
   version="1.1"
   id="Capa_1"
   x="0px"
   y="0px"
   viewBox="0 0 511.999 511.999"
   style="enable-background:new 0 0 511.999 511.999;"
   xml:space="preserve"
   sodipodi:docname="6.svg"
   inkscape:version="0.92.4 (5da689c313, 2019-01-14)"><metadata
   id="metadata95"><rdf:RDF><cc:Work
       rdf:about=""><dc:format>image/svg+xml</dc:format><dc:type
         rdf:resource="http://purl.org/dc/dcmitype/StillImage" /><dc:title /></cc:Work></rdf:RDF></metadata><defs
   id="defs93"><linearGradient
     id="linearGradient2457"
     osb:paint="solid"><stop
       style="stop-color:#000000;stop-opacity:1;"
       offset="0"
       id="stop2455" /></linearGradient><linearGradient
     inkscape:collect="always"
     xlink:href="#linearGradient2457"
     id="linearGradient2459-6-2"
     x1="1442.3572"
     y1="-339.5119"
     x2="1514.9286"
     y2="-339.5119"
     gradientUnits="userSpaceOnUse"
     gradientTransform="matrix(6.4669274,0,0,9.6773016,-9356.1743,3517.6929)" /></defs><sodipodi:namedview
   pagecolor="#ffffff"
   bordercolor="#666666"
   borderopacity="1"
   objecttolerance="10"
   gridtolerance="10"
   guidetolerance="10"
   inkscape:pageopacity="0"
   inkscape:pageshadow="2"
   inkscape:window-width="1920"
   inkscape:window-height="986"
   id="namedview91"
   showgrid="false"
   inkscape:zoom="1.3037307"
   inkscape:cx="131.95067"
   inkscape:cy="273.8305"
   inkscape:window-x="-11"
   inkscape:window-y="-11"
   inkscape:window-maximized="1"
   inkscape:current-layer="g1046" />























<g
   id="g60">
</g>
<g
   id="g62">
</g>
<g
   id="g64">
</g>
<g
   id="g66">
</g>
<g
   id="g68">
</g>
<g
   id="g70">
</g>
<g
   id="g72">
</g>
<g
   id="g74">
</g>
<g
   id="g76">
</g>
<g
   id="g78">
</g>
<g
   id="g80">
</g>
<g
   id="g82">
</g>
<g
   id="g84">
</g>
<g
   id="g86">
</g>
<g
   id="g88">
</g>
<g
   id="g1046"
   transform="matrix(0.55886315,0,0,0.55886315,157.54779,132.77619)"><g
   transform="translate(-49.89921,-75.184669)"
   id="g2062"
   style="display:inline"><path
     inkscape:connector-curvature="0"
     style="fill:#b67f5f"
     d="m 395.156,411.717 -99.077,-35.475 h -80.161 l -99.077,35.475 c -22.31,7.988 -37.197,29.131 -37.197,52.828 V 504.5 h 352.71 v -39.955 c 0,-23.697 -14.887,-44.84 -37.198,-52.828 z"
     id="path1974" /><path
     inkscape:connector-curvature="0"
     style="fill:#a06e50"
     d="m 218,495.885 37.999,-8.835 37.999,8.835 c 4.55,1.058 9.225,1.595 13.893,1.595 23.274,0 44.261,-13.112 53.465,-33.406 5.785,-12.755 12.845,-33.297 14.418,-59.297 l -79.695,-28.535 h -80.161 l -79.694,28.534 c 1.572,25.998 8.632,46.541 14.417,59.298 9.204,20.293 30.191,33.406 53.466,33.406 4.669,0 9.343,-0.537 13.893,-1.595 z"
     id="path1976" /><path
     inkscape:connector-curvature="0"
     style="fill:#edebed"
     d="m 351.888,385.082 c -0.411,-6.493 -4.983,-12.164 -11.587,-14.305 l -0.002,-10e-4 c -18.688,-5.91 -38.172,-8.918 -57.773,-8.918 H 229.47 c -19.6,0 -39.084,3.008 -57.772,8.918 l -0.003,10e-4 c -6.603,2.141 -11.175,7.813 -11.587,14.305 -1.86,29.322 5.116,52.927 12.433,69.059 6.558,14.459 23.642,22.127 40.011,18.321 l 37.999,-8.835 c 3.583,-0.833 7.31,-0.833 10.893,0 l 37.999,8.835 c 16.369,3.806 33.453,-3.862 40.011,-18.321 7.318,-16.133 14.294,-39.738 12.434,-69.059 z"
     id="path1978" /><path
     inkscape:connector-curvature="0"
     style="fill:#e3aa75"
     d="m 199.886,344.177 v 40.081 c 0,26.563 25.123,48.097 56.113,48.097 30.991,0 56.113,-21.534 56.113,-48.097 v -40.081 z"
     id="path1980" /><path
     inkscape:connector-curvature="0"
     style="fill:#d29b6e"
     d="m 255.999,392.274 c 20.175,0 39.271,-5.185 56.113,-14.181 V 344.177 H 199.886 v 33.916 c 16.842,8.996 35.938,14.181 56.113,14.181 z"
     id="path1982" /><path
     inkscape:connector-curvature="0"
     style="fill:#dbd9dc"
     d="m 268.023,135.758 h -24.049 c -35.417,0 -64.129,-28.712 -64.129,-64.129 v 0 C 179.845,36.212 208.557,7.5 243.974,7.5 h 24.049 c 35.417,0 64.129,28.712 64.129,64.129 v 0 c 0,35.418 -28.711,64.129 -64.129,64.129 z"
     id="path1984" /><path
     inkscape:connector-curvature="0"
     style="fill:#c9c6ca"
     d="m 381.988,256 c 16.404,-19.511 26.317,-44.66 26.317,-72.145 0,-61.981 -50.245,-112.226 -112.226,-112.226 h -80.161 c -61.981,0 -112.226,50.245 -112.226,112.226 0,27.485 9.913,52.634 26.317,72.145 z"
     id="path1986" /><path
     inkscape:connector-curvature="0"
     style="fill:#b7b2b8"
     d="M 316.12,264.016 H 195.878 c -33.204,0 -60.121,-26.917 -60.121,-60.121 v 0 c 0,-33.204 26.917,-60.121 60.121,-60.121 H 316.12 c 33.204,0 60.121,26.917 60.121,60.121 v 0 c 0,33.204 -26.917,60.121 -60.121,60.121 z"
     id="path1988" /><path
     inkscape:connector-curvature="0"
     style="fill:#f5b97d"
     d="m 372.233,231.952 h -9.159 c -6.01,0 -10.881,-4.872 -10.881,-10.881 v -29.2 c 0,-13.282 -10.767,-24.048 -24.048,-24.048 h -144.29 c -13.282,0 -24.048,10.767 -24.048,24.048 v 29.2 c 0,6.009 -4.871,10.881 -10.881,10.881 h -9.159 c -11.068,0 -20.04,8.972 -20.04,20.04 0,11.068 8.972,20.04 20.04,20.04 h 12.429 c 4.106,53.795 48.958,96.194 103.805,96.194 54.847,0 99.699,-42.398 103.805,-96.194 h 12.429 c 11.068,0 20.04,-8.973 20.04,-20.04 -0.002,-11.068 -8.974,-20.04 -20.042,-20.04 z"
     id="path1990" /><path
     inkscape:connector-curvature="0"
     style="fill:#e3aa75"
     d="m 183.854,167.823 c -13.282,0 -24.048,10.767 -24.048,24.048 v 29.2 c 0,6.088 -4.986,10.82 -11.072,10.881 h -8.968 c -11.068,0 -20.04,8.972 -20.04,20.04 0,11.068 8.972,20.04 20.04,20.04 h 12.429 c 4.106,53.795 48.958,96.194 103.805,96.194 5.484,0 10.83,-0.534 16.083,-1.351 -49.946,-7.708 -88.228,-50.754 -88.228,-102.859 v -40.081 c 0,-17.709 14.355,-32.065 32.065,-32.065 h 96.194 c 8.854,0 16.032,-7.178 16.032,-16.032 v -8.016 H 183.854 Z"
     id="path1992" /><path
     inkscape:connector-curvature="0"
     d="m 285.323,309.436 c 2.948,-2.909 2.98,-7.658 0.071,-10.606 -2.91,-2.949 -7.657,-2.981 -10.606,-0.071 -2.737,2.701 -9.299,5.855 -18.781,5.855 -9.482,0 -16.044,-3.154 -18.781,-5.855 -2.948,-2.908 -7.697,-2.877 -10.606,0.071 -2.909,2.948 -2.877,7.698 0.071,10.606 6.46,6.373 17.419,10.177 29.316,10.177 11.897,0 22.856,-3.805 29.316,-10.177 z"
     id="path1994" /><path
     inkscape:connector-curvature="0"
     d="m 397.412,404.75 -37.76,-13.327 c -0.045,-2.239 -0.132,-4.508 -0.278,-6.816 -0.612,-9.633 -7.19,-17.862 -16.811,-20.981 l -22.951,-7.258 v -0.577 c 25.017,-17.394 42.615,-44.739 47.014,-76.258 h 5.607 c 15.186,0 27.54,-12.354 27.54,-27.541 0,-2.355 -0.298,-4.642 -0.857,-6.826 11.049,-18.497 16.889,-39.626 16.889,-61.312 0,-50.656 -31.624,-94.062 -76.164,-111.52 0.002,-0.235 0.011,-0.471 0.011,-0.705 C 339.652,32.133 307.52,0 268.023,0 h -24.049 c -39.496,0 -71.629,32.133 -71.629,71.629 0,0.235 0.009,0.47 0.011,0.706 -44.54,17.459 -76.164,60.865 -76.164,111.521 0,21.681 5.842,42.814 16.89,61.311 -0.559,2.184 -0.857,4.471 -0.857,6.826 0,15.186 12.354,27.541 27.54,27.541 h 5.607 c 4.399,31.519 21.997,58.864 47.014,76.258 v 0.577 l -23.003,7.275 c -9.568,3.103 -16.146,11.332 -16.759,20.965 -0.144,2.271 -0.233,4.544 -0.279,6.816 l -37.759,13.327 C 89.2,413.711 72.145,437.818 72.145,464.738 V 504.5 c 0,4.142 3.357,7.5 7.5,7.5 4.143,0 7.5,-3.358 7.5,-7.5 v -39.764 c 0,-6.644 1.367,-13.061 3.861,-18.939 l 36.69,31.448 c 5.451,4.673 8.578,11.471 8.578,18.651 v 8.604 c 0,4.142 3.357,7.5 7.5,7.5 4.143,0 7.5,-3.358 7.5,-7.5 v -8.604 c 0,-11.564 -5.036,-22.513 -13.816,-30.04 L 99.034,432.921 c 5.404,-6.246 12.412,-11.156 20.546,-14.027 l 33.239,-11.731 c 0.049,0.612 0.095,1.224 0.152,1.834 0.361,3.889 3.63,6.806 7.459,6.806 0.232,0 0.468,-0.011 0.703,-0.033 4.124,-0.383 7.157,-4.038 6.773,-8.162 -0.674,-7.246 -0.778,-14.665 -0.31,-22.052 0.219,-3.452 2.737,-6.454 6.363,-7.629 l 18.428,-5.828 v 12.159 c 0,30.656 28.537,55.597 63.613,55.597 35.076,0 63.613,-24.94 63.613,-55.597 v -12.159 l 18.376,5.811 c 3.678,1.192 6.196,4.194 6.415,7.646 1.817,28.656 -5.402,51.429 -11.778,65.487 -5.014,11.053 -18.545,17.122 -31.482,14.113 L 266.061,457 c -6.583,-1.53 -13.541,-1.53 -20.122,0 l -35.083,8.157 c -12.938,3.009 -26.469,-3.06 -31.482,-14.114 -1.909,-4.208 -3.626,-8.595 -5.103,-13.038 -1.308,-3.931 -5.557,-6.058 -9.482,-4.751 -3.931,1.307 -6.059,5.552 -4.752,9.483 1.642,4.938 3.552,9.818 5.677,14.502 8.038,17.724 28.45,27.201 48.539,22.528 l 35.084,-8.157 c 4.359,-1.014 8.968,-1.014 13.327,0 l 35.083,8.157 c 3.439,0.8 6.886,1.185 10.281,1.185 16.432,-10e-4 31.596,-9.024 38.258,-23.712 5.311,-11.709 11.149,-28.851 12.888,-50.079 l 33.247,11.734 c 8.133,2.871 15.141,7.781 20.546,14.027 l -38.424,32.935 c -8.78,7.527 -13.816,18.476 -13.816,30.04 v 8.604 c 0,4.142 3.357,7.5 7.5,7.5 4.143,0 7.5,-3.358 7.5,-7.5 v -8.604 c 0,-7.18 3.127,-13.978 8.578,-18.651 l 36.69,-31.448 c 2.495,5.878 3.861,12.295 3.861,18.939 V 504.5 c 0,4.142 3.357,7.5 7.5,7.5 4.143,0 7.5,-3.358 7.5,-7.5 v -39.764 c -0.003,-26.92 -17.058,-51.027 -42.444,-59.986 z M 243.975,15 h 24.049 c 29.85,0 54.362,23.22 56.465,52.543 -9.11,-2.226 -18.623,-3.415 -28.409,-3.415 h -80.162 c -9.786,0 -19.298,1.189 -28.409,3.415 C 189.612,38.22 214.124,15 243.975,15 Z m 56.113,209.452 c -9.253,0 -17.448,4.592 -22.445,11.611 -6.309,-2.338 -13.779,-3.595 -21.644,-3.595 -7.85,0 -15.321,1.269 -21.635,3.607 -4.995,-7.026 -13.195,-11.623 -22.453,-11.623 h -46.212 c 1.034,-2.647 1.608,-5.523 1.608,-8.532 v -24.049 c 0,-9.125 7.424,-16.548 16.548,-16.548 h 104.21 c 4.143,0 7.5,-3.358 7.5,-7.5 0,-4.142 -3.357,-7.5 -7.5,-7.5 h -104.21 c -17.396,0 -31.548,14.152 -31.548,31.548 v 24.049 c 0,4.705 -3.828,8.532 -8.532,8.532 h -4.009 c -6.64,0 -12.739,2.363 -17.5,6.291 -7.26,-14.484 -11.072,-30.505 -11.072,-46.888 0,-57.746 46.979,-104.726 104.726,-104.726 h 80.162 c 57.746,0 104.726,46.98 104.726,104.726 0,16.386 -3.81,32.405 -11.071,46.889 -4.761,-3.929 -10.861,-6.292 -17.501,-6.292 h -3.999 c -0.003,0 -0.006,0 -0.01,0 h -0.01 c -4.7,-0.006 -8.523,-3.83 -8.523,-8.532 v -24.049 c 0,-17.396 -14.152,-31.548 -31.548,-31.548 h -8.02 c -4.143,0 -7.5,3.358 -7.5,7.5 0,4.142 3.357,7.5 7.5,7.5 h 8.02 c 9.125,0 16.548,7.423 16.548,16.548 v 24.049 c 0,3.009 0.574,5.885 1.608,8.532 m -49.699,15.502 v 8.727 c 0,4.142 3.357,7.5 7.5,7.5 4.143,0 7.5,-3.358 7.5,-7.5 v -8.723 c 5.216,1.52 9.041,6.334 9.041,12.034 0,6.915 -5.626,12.54 -12.541,12.54 h -8.016 c -6.915,0 -12.54,-5.625 -12.54,-12.541 10e-4,-5.704 3.833,-10.522 9.056,-12.037 z m -96.193,0 v 8.727 c 0,4.142 3.357,7.5 7.5,7.5 4.143,0 7.5,-3.358 7.5,-7.5 v -8.723 c 5.215,1.52 9.04,6.334 9.04,12.034 0,6.915 -5.625,12.54 -12.54,12.54 h -8.016 c -6.915,0 -12.541,-5.625 -12.541,-12.541 0,-5.704 3.834,-10.522 9.057,-12.037 z m -41.121,24.063 c 0,-4.142 -3.357,-7.5 -7.5,-7.5 -4.143,0 -7.5,3.358 -7.5,7.5 0,0.173 0.006,0.344 0.007,0.516 h -4.531 c -6.915,0 -12.54,-5.625 -12.54,-12.541 0,-6.915 5.625,-12.54 12.54,-12.54 h 39.622 c -1.934,3.764 -3.033,8.025 -3.033,12.54 0,15.186 12.354,27.54 27.541,27.54 h 8.016 c 15.186,0 27.54,-12.354 27.54,-27.541 0,-0.597 -0.026,-1.188 -0.063,-1.775 4.654,-1.757 10.492,-2.749 16.612,-2.749 6.137,0 11.966,0.988 16.613,2.744 -0.038,0.589 -0.064,1.182 -0.064,1.781 0,15.186 12.354,27.54 27.54,27.54 h 8.016 c 15.187,0 27.541,-12.354 27.541,-27.541 0,-4.515 -1.099,-8.776 -3.033,-12.54 h 39.622 c 6.915,0 12.54,5.625 12.54,12.54 0,6.915 -5.625,12.541 -12.54,12.541 h -4.531 c 10e-4,-0.172 0.007,-0.344 0.007,-0.516 0,-4.142 -3.357,-7.5 -7.5,-7.5 -4.143,0 -7.5,3.358 -7.5,7.5 0,53.326 -43.384,96.709 -96.71,96.709 -53.326,0 -96.712,-43.383 -96.712,-96.708 z m 96.71,160.838 c -26.806,0 -48.613,-18.211 -48.613,-40.597 v -19.677 c 14.705,7.137 31.2,11.145 48.613,11.145 17.413,0 33.908,-4.007 48.613,-11.145 v 19.677 c 0,22.386 -21.807,40.597 -48.613,40.597 z"
     id="path1996" /><g
     id="g1998" /><g
     id="g2000" /><g
     id="g2002" /><g
     id="g2004" /><g
     id="g2006" /><g
     id="g2008" /><g
     id="g2010" /><g
     id="g2012" /><g
     id="g2014" /><g
     id="g2016" /><g
     id="g2018" /><g
     id="g2020" /><g
     id="g2022" /><g
     id="g2024" /><g
     id="g2026" /></g><rect
   y="-104.38158"
   x="-28.555799"
   height="673.03345"
   width="469.31418"
   id="rect2447-0-9"
   style="display:inline;fill:none;fill-opacity:1;stroke:url(#linearGradient2459-6-2);stroke-width:25.31489563;stroke-miterlimit:4;stroke-dasharray:none;stroke-opacity:1" /><text
   id="text2485-9"
   y="522.54254"
   x="103.73476"
   style="font-style:normal;font-weight:normal;font-size:76.99105835px;line-height:1.25;font-family:sans-serif;letter-spacing:0px;word-spacing:0px;display:inline;fill:#000000;fill-opacity:1;stroke:none;stroke-width:1.9247762"
   xml:space="preserve"><tspan
     style="stroke-width:1.9247762"
     y="522.54254"
     x="103.73476"
     id="tspan2483-7"
     sodipodi:role="line">LOLA</tspan></text>

</g></svg>