<?xml version="1.0" encoding="UTF-8" standalone="no"?>
<!-- Generator: Adobe Illustrator 19.0.0, SVG Export Plug-In . SVG Version: 6.00 Build 0)  -->

<svg
   xmlns:osb="http://www.openswatchbook.org/uri/2009/osb"
   xmlns:dc="http://purl.org/dc/elements/1.1/"
   xmlns:cc="http://creativecommons.org/ns#"
   xmlns:rdf="http://www.w3.org/1999/02/22-rdf-syntax-ns#"
   xmlns:svg="http://www.w3.org/2000/svg"
   xmlns="http://www.w3.org/2000/svg"
   xmlns:xlink="http://www.w3.org/1999/xlink"
   xmlns:sodipodi="http://sodipodi.sourceforge.net/DTD/sodipodi-0.dtd"
   xmlns:inkscape="http://www.inkscape.org/namespaces/inkscape"
   version="1.1"
   id="Capa_1"
   x="0px"
   y="0px"
   viewBox="0 0 511.999 511.999"
   style="enable-background:new 0 0 511.999 511.999;"
   xml:space="preserve"
   sodipodi:docname="60.svg"
   inkscape:version="0.92.4 (5da689c313, 2019-01-14)"><metadata
   id="metadata95"><rdf:RDF><cc:Work
       rdf:about=""><dc:format>image/svg+xml</dc:format><dc:type
         rdf:resource="http://purl.org/dc/dcmitype/StillImage" /><dc:title></dc:title></cc:Work></rdf:RDF></metadata><defs
   id="defs93"><linearGradient
     id="linearGradient2457"
     osb:paint="solid"><stop
       style="stop-color:#000000;stop-opacity:1;"
       offset="0"
       id="stop2455" /></linearGradient><linearGradient
     inkscape:collect="always"
     xlink:href="#linearGradient2457"
     id="linearGradient2459-6-2"
     x1="1442.3572"
     y1="-339.5119"
     x2="1514.9286"
     y2="-339.5119"
     gradientUnits="userSpaceOnUse"
     gradientTransform="matrix(6.4669274,0,0,9.6773016,-9356.1743,3517.6929)" /><pattern
     y="0"
     x="0"
     height="6"
     width="6"
     patternUnits="userSpaceOnUse"
     id="EMFhbasepattern" /></defs><sodipodi:namedview
   pagecolor="#ffffff"
   bordercolor="#666666"
   borderopacity="1"
   objecttolerance="10"
   gridtolerance="10"
   guidetolerance="10"
   inkscape:pageopacity="0"
   inkscape:pageshadow="2"
   inkscape:window-width="1920"
   inkscape:window-height="986"
   id="namedview91"
   showgrid="false"
   inkscape:zoom="1.3037307"
   inkscape:cx="55.636868"
   inkscape:cy="256.72862"
   inkscape:window-x="-11"
   inkscape:window-y="-11"
   inkscape:window-maximized="1"
   inkscape:current-layer="g1046" />























<g
   id="g60">
</g>
<g
   id="g62">
</g>
<g
   id="g64">
</g>
<g
   id="g66">
</g>
<g
   id="g68">
</g>
<g
   id="g70">
</g>
<g
   id="g72">
</g>
<g
   id="g74">
</g>
<g
   id="g76">
</g>
<g
   id="g78">
</g>
<g
   id="g80">
</g>
<g
   id="g82">
</g>
<g
   id="g84">
</g>
<g
   id="g86">
</g>
<g
   id="g88">
</g>
<g
   id="g1046"
   transform="matrix(0.55886315,0,0,0.55886315,157.54779,132.77619)"><g
   transform="matrix(0.90065247,0,0,0.90065247,207.95208,-28.135493)"
   id="g904"><g
     id="g1398"
     transform="matrix(1.0178578,0,0,1.0178578,-262.62756,-7.4909164)"><path
       style="fill:#edebed"
       d="M 413.862,364.082 329.376,339.233 H 182.626 L 98.14,364.082 c -20.469,6.02 -34.526,24.806 -34.526,46.143 V 504.5 h 384.774 v -94.275 c 0,-21.336 -14.056,-40.122 -34.526,-46.143 z"
       id="path2"
       inkscape:connector-curvature="0" /><polygon
       style="fill:#a5cdff"
       points="312.114,344.177 296.082,504.5 215.921,504.5 199.888,344.177 "
       id="polygon4" /><path
       style="fill:#8cb4eb"
       d="m 203.534,380.643 c 14.067,12.206 32.381,19.647 52.467,19.647 20.086,0 38.4,-7.441 52.467,-19.647 l 3.646,-36.466 H 199.888 Z"
       id="path6-2"
       inkscape:connector-curvature="0" /><path
       style="fill:#f7d291"
       d="m 256.001,376.242 v 0 c -30.99,0 -56.113,-25.123 -56.113,-56.113 v -56.113 h 112.226 v 56.113 c 0,30.99 -25.122,56.113 -56.113,56.113 z"
       id="path8-4"
       inkscape:connector-curvature="0" /><path
       style="fill:#f0c382"
       d="m 199.888,305.948 c 16.842,8.996 35.938,14.181 56.113,14.181 20.175,0 39.271,-5.185 56.113,-14.181 V 264.016 H 199.888 Z"
       id="path10-7"
       inkscape:connector-curvature="0" /><path
       style="fill:#ffe1a0"
       d="M 372.235,159.806 H 360.211 V 79.645 H 151.792 v 80.161 h -12.024 c -11.068,0 -20.04,8.972 -20.04,20.04 0,11.067 8.972,20.04 20.04,20.04 h 12.429 c 4.106,53.796 48.958,96.194 103.805,96.194 54.847,0 99.699,-42.398 103.805,-96.194 h 12.429 c 11.068,0 20.04,-8.973 20.04,-20.04 -0.001,-11.067 -8.973,-20.04 -20.041,-20.04 z"
       id="path12-2"
       inkscape:connector-curvature="0" /><path
       style="fill:#f7d291"
       d="m 151.792,79.645 v 80.161 h -11.216 c -9.127,0 -17.651,5.784 -20.015,14.599 -3.575,13.331 6.519,25.482 19.313,25.482 h 12.324 c 4.106,53.796 48.958,96.194 103.805,96.194 5.484,0 10.83,-0.534 16.083,-1.35 -49.946,-7.709 -88.228,-50.754 -88.228,-102.859 v -50.377 c 0,-14.49 12.772,-25.344 27.161,-23.63 7.47,0.89 15.469,1.381 24.043,1.381 23.929,0 50.567,-3.798 79.174,-11.287 15.866,-4.154 29.129,-14.609 37.285,-28.313 z"
       id="path14-5"
       inkscape:connector-curvature="0" /><path
       style="fill:#a06e50"
       d="m 190.87,47.581 1.002,32.065 c 0,0 -24.048,24.048 -24.048,56.113 v 9.895 c 0,8.085 -6.021,14.906 -14.044,15.908 l -18.021,2.253 V 95.677 c 0,-26.563 25.051,-49.432 55.111,-48.096 z"
       id="path16-3"
       inkscape:connector-curvature="0" /><path
       style="fill:#dbd9dc"
       d="m 352.04,384.103 -15.878,-15.878 16.992,-22.656 c 3.674,-4.9 2.015,-11.929 -3.463,-14.668 L 312.113,312.112 256.001,504.5 h 48.097 l 50.945,-101.891 c 3.086,-6.172 1.877,-13.627 -3.003,-18.506 z"
       id="path18"
       inkscape:connector-curvature="0" /><path
       style="fill:#cd916e"
       d="m 321.132,23.532 -1.002,56.113 c 0,0 24.048,24.048 24.048,56.113 v 9.895 c 0,8.085 6.021,14.906 14.044,15.908 l 18.021,2.253 V 71.629 c 0,-26.563 -25.05,-49.433 -55.111,-48.097 z"
       id="path20-7"
       inkscape:connector-curvature="0" /><path
       style="fill:#dbd9dc"
       d="m 159.962,384.103 15.878,-15.878 -16.992,-22.656 c -3.674,-4.9 -2.015,-11.929 3.463,-14.668 L 199.889,312.112 256.001,504.5 H 207.904 L 156.959,402.609 c -3.086,-6.172 -1.876,-13.627 3.003,-18.506 z"
       id="path22"
       inkscape:connector-curvature="0" /><path
       style="fill:#b67f5f"
       d="m 271.532,7.5 c -66.879,0 -79.696,20.331 -131.195,36.734 -3.539,1.127 -5.132,5.226 -3.132,8.355 11.175,17.48 52.769,63.043 170.937,32.104 13.838,-3.623 24.478,-14.78 27.284,-28.806 v 0 C 338.676,39.637 328.8,23.542 313.951,16.184 302.158,10.34 286.69,7.5 271.532,7.5 Z"
       id="path24"
       inkscape:connector-curvature="0" /><rect
       x="103.69"
       y="456.39999"
       style="fill:#a5cdff"
       width="80.160004"
       height="48.099998"
       id="rect26" /><path
       d="m 207.905,160.322 c -4.142,0 -7.5,3.357 -7.5,7.5 v 8.017 c 0,4.143 3.358,7.5 7.5,7.5 4.142,0 7.5,-3.357 7.5,-7.5 v -8.017 c 0,-4.142 -3.358,-7.5 -7.5,-7.5 z"
       id="path28"
       inkscape:connector-curvature="0" /><path
       d="m 304.098,160.322 c -4.143,0 -7.5,3.357 -7.5,7.5 v 8.017 c 0,4.143 3.357,7.5 7.5,7.5 4.143,0 7.5,-3.357 7.5,-7.5 v -8.017 c 0,-4.142 -3.358,-7.5 -7.5,-7.5 z"
       id="path30-1"
       inkscape:connector-curvature="0" /><path
       d="m 285.317,229.274 c 2.949,-2.908 2.981,-7.657 0.072,-10.605 -2.908,-2.951 -7.657,-2.981 -10.605,-0.072 -2.738,2.7 -9.3,5.854 -18.782,5.854 -9.482,0 -16.043,-3.154 -18.781,-5.854 -2.95,-2.911 -7.699,-2.878 -10.606,0.071 -2.909,2.949 -2.877,7.697 0.071,10.606 6.459,6.372 17.418,10.177 29.316,10.177 11.897,0 22.856,-3.805 29.315,-10.177 z"
       id="path32-0"
       inkscape:connector-curvature="0" /><path
       d="m 215.921,136.274 h -16.032 c -4.142,0 -7.5,3.357 -7.5,7.5 0,4.143 3.358,7.5 7.5,7.5 h 16.032 c 4.142,0 7.5,-3.357 7.5,-7.5 0,-4.143 -3.358,-7.5 -7.5,-7.5 z"
       id="path34-8"
       inkscape:connector-curvature="0" /><path
       d="m 296.082,151.274 h 16.032 c 4.143,0 7.5,-3.357 7.5,-7.5 0,-4.143 -3.357,-7.5 -7.5,-7.5 h -16.032 c -4.143,0 -7.5,3.357 -7.5,7.5 0,4.143 3.358,7.5 7.5,7.5 z"
       id="path36-3"
       inkscape:connector-curvature="0" /><path
       d="m 416.63,357.239 -54.059,-16.62 c 0.088,-1.633 -0.032,-3.285 -0.417,-4.917 -1.184,-5.011 -4.503,-9.206 -9.108,-11.509 L 319.614,307.478 V 283.64 c 25.013,-17.396 42.617,-44.741 47.019,-76.253 h 4.458 c 14.617,0 27.155,-10.861 28.543,-24.728 0.778,-7.771 -1.764,-15.529 -6.974,-21.286 -2.521,-2.787 -5.568,-4.992 -8.917,-6.533 V 71.629 c 0,-30.656 -24.94,-55.597 -55.597,-55.597 -0.039,0 -0.561,0 -1.268,0.001 C 313.375,6.073 293.538,0 271.532,0 224.683,0 203.16,9.76 178.24,21.061 c -13.313,6.037 -27.078,12.279 -46.59,17.985 -2.048,0.599 -3.745,2.042 -4.664,3.969 -0.919,1.926 -0.974,4.153 -0.151,6.122 0.228,0.546 3.579,8.325 12.224,17.775 -3.733,4.595 -10.799,16.346 -10.799,39.453 v 48.809 c -8.63,4.115 -14.929,12.266 -15.89,21.857 -0.779,7.771 1.762,15.53 6.972,21.289 5.213,5.762 12.658,9.066 20.426,9.066 h 5.598 c 4.398,31.522 22.003,58.87 47.022,76.264 v 23.827 l -33.433,16.715 c -4.605,2.304 -7.925,6.499 -9.108,11.51 -0.385,1.631 -0.504,3.283 -0.417,4.916 l -54.059,16.62 c -23.481,7.22 -39.258,28.575 -39.258,53.142 v 94.12 c 0,4.143 3.358,7.5 7.5,7.5 4.142,0 7.5,-3.357 7.5,-7.5 v -94.119 c 0,-17.938 11.52,-33.532 28.667,-38.804 l 56.231,-17.288 9.925,13.234 -11.276,11.277 c -7.174,7.173 -8.946,18.089 -4.409,27.164 l 21.47,42.939 h -20.445 v -8.532 c 0,-4.143 -3.358,-7.5 -7.5,-7.5 -4.142,0 -7.5,3.357 -7.5,7.5 v 8.532 h -32.581 c -4.142,0 -7.5,3.357 -7.5,7.5 V 504.5 c 0,4.143 3.358,7.5 7.5,7.5 h 80.162 c 4.142,0 7.5,-3.357 7.5,-7.5 v -16.326 l 9.84,19.681 c 1.314,2.628 3.962,4.147 6.714,4.147 1.127,0 2.271,-0.256 3.348,-0.794 3.705,-1.853 5.207,-6.357 3.354,-10.063 L 163.668,399.254 c -1.645,-3.29 -1.002,-7.247 1.599,-9.849 l 15.877,-15.878 c 2.639,-2.639 2.936,-6.817 0.697,-9.803 l -16.992,-22.655 c -0.565,-0.754 -0.494,-1.527 -0.401,-1.921 0.093,-0.395 0.375,-1.118 1.218,-1.54 l 29.54,-14.77 20.854,71.499 c 1.16,3.978 5.322,6.258 9.3,5.101 3.977,-1.16 6.26,-5.323 5.1,-9.3 l -3.287,-11.27 c 9.222,3.205 18.973,4.873 28.83,4.873 9.861,0 19.608,-1.663 28.828,-4.868 l -28.829,98.84 -16.186,-55.494 c -1.16,-3.978 -5.323,-6.261 -9.3,-5.101 -3.977,1.16 -6.26,5.324 -5.1,9.3 l 23.386,80.18 c 0.934,3.2 3.867,5.4 7.2,5.4 3.333,0 6.267,-2.2 7.2,-5.4 l 53.597,-183.76 29.539,14.77 c 0.844,0.422 1.125,1.146 1.219,1.539 0.093,0.395 0.164,1.168 -0.401,1.922 l -16.992,22.655 c -2.239,2.985 -1.942,7.164 0.696,9.804 l 15.878,15.878 c 2.602,2.601 3.243,6.559 1.599,9.848 L 297.39,501.146 c -1.853,3.705 -0.351,8.21 3.354,10.063 1.077,0.539 2.222,0.794 3.349,0.794 2.751,0 5.4,-1.52 6.714,-4.147 l 50.945,-101.891 c 4.537,-9.074 2.766,-19.99 -4.407,-27.164 l -11.278,-11.278 9.924,-13.233 56.232,17.289 c 17.146,5.271 28.666,20.865 28.666,38.804 V 504.5 c 0,4.143 3.357,7.5 7.5,7.5 4.143,0 7.5,-3.357 7.5,-7.5 V 410.381 C 455.888,385.814 440.112,364.458 416.63,357.239 Z M 176.356,497 h -65.162 v -33.097 h 25.081 v 0.516 c 0,4.143 3.358,7.5 7.5,7.5 4.142,0 7.5,-3.357 7.5,-7.5 v -0.516 h 25.081 z M 184.435,34.722 C 208.734,23.703 227.926,15 271.532,15 c 27.67,0 52.396,11.58 57.515,26.937 1.311,3.93 5.555,6.051 9.487,4.743 3.929,-1.31 6.053,-5.558 4.743,-9.487 -0.431,-1.294 -0.946,-2.563 -1.529,-3.809 15.714,5.606 26.995,20.63 26.995,38.245 v 80.678 h -8.532 c -4.705,0 -8.532,-3.827 -8.532,-8.532 v -8.017 c 0,-34.771 -25.174,-60.344 -26.246,-61.416 -1.977,-1.978 -4.892,-2.687 -7.562,-1.849 -41.634,13.148 -100.337,24.229 -143.555,2.362 -15.379,-7.782 -24.46,-17.671 -29.236,-24.274 15.921,-5.232 28.263,-10.829 39.355,-15.859 z m 120.18,276.32 -14.324,49.112 c -10.496,5.624 -22.288,8.589 -34.288,8.589 -11.993,0 -23.796,-2.961 -34.287,-8.581 l -14.327,-49.12 v -18.607 c 14.705,7.137 31.199,11.147 48.613,11.147 17.412,0 33.906,-4.012 48.613,-11.154 z m -48.613,-22.461 c -53.326,0 -96.709,-43.384 -96.709,-96.71 0,-4.143 -3.358,-7.5 -7.5,-7.5 -4.142,0 -7.5,3.357 -7.5,7.5 v 0.516 h -4.524 c -3.537,0 -6.928,-1.506 -9.303,-4.131 -2.406,-2.659 -3.532,-6.114 -3.17,-9.729 0.631,-6.292 6.613,-11.221 13.619,-11.221 h 10.878 c 12.976,0 23.532,-10.557 23.532,-23.532 v -28.308 c 0,-4.143 -3.358,-7.5 -7.5,-7.5 -4.142,0 -7.5,3.357 -7.5,7.5 v 28.308 c 0,4.705 -3.828,8.532 -8.532,8.532 h -8.532 v -45.941 c 0,-17.451 4.69,-26.129 6.856,-29.206 4.582,3.614 9.956,7.194 16.246,10.472 16.997,8.859 37.227,13.765 60.127,14.581 26.841,0.965 57.519,-3.743 91.24,-13.973 5.952,7.208 18.951,25.475 18.951,47.518 v 8.017 c 0,12.976 10.557,23.532 23.532,23.532 h 12.024 c 3.537,0 6.928,1.506 9.303,4.131 2.406,2.659 3.532,6.113 3.17,9.728 -0.63,6.293 -6.611,11.222 -13.617,11.222 h -3.384 v -0.438 c 0,-4.141 -3.356,-7.498 -7.497,-7.5 -10e-4,0 -0.002,0 -0.003,0 -4.14,0 -7.497,3.354 -7.5,7.494 -0.041,53.286 -43.423,96.638 -96.707,96.638 z"
       id="path38-7"
       inkscape:connector-curvature="0" /><path
       d="m 408.308,452.911 h -12.54 v -12.54 c 0,-4.143 -3.357,-7.5 -7.5,-7.5 -4.143,0 -7.5,3.357 -7.5,7.5 v 12.54 h -12.541 c -4.143,0 -7.5,3.357 -7.5,7.5 0,4.143 3.357,7.5 7.5,7.5 h 12.541 v 12.54 c 0,4.143 3.357,7.5 7.5,7.5 4.143,0 7.5,-3.357 7.5,-7.5 v -12.54 h 12.54 c 4.143,0 7.5,-3.357 7.5,-7.5 0,-4.143 -3.358,-7.5 -7.5,-7.5 z"
       id="path40-5"
       inkscape:connector-curvature="0" /></g></g><rect
   y="-104.38158"
   x="-28.555799"
   height="673.03345"
   width="469.31418"
   id="rect2447-0-9"
   style="display:inline;fill:none;fill-opacity:1;stroke:url(#linearGradient2459-6-2);stroke-width:25.31489563;stroke-miterlimit:4;stroke-dasharray:none;stroke-opacity:1" /><text
   id="text2485-9"
   y="522.54254"
   x="76.141289"
   style="font-style:normal;font-weight:normal;font-size:76.99105835px;line-height:1.25;font-family:sans-serif;letter-spacing:0px;word-spacing:0px;display:inline;fill:#000000;fill-opacity:1;stroke:none;stroke-width:1.9247762"
   xml:space="preserve"><tspan
     style="stroke-width:1.9247762"
     y="522.54254"
     x="76.141289"
     id="tspan2483-7"
     sodipodi:role="line">MAURO</tspan></text>








</g></svg>