<?xml version="1.0" encoding="UTF-8" standalone="no"?>
<!-- Generator: Adobe Illustrator 19.0.0, SVG Export Plug-In . SVG Version: 6.00 Build 0)  -->

<svg
   xmlns:osb="http://www.openswatchbook.org/uri/2009/osb"
   xmlns:dc="http://purl.org/dc/elements/1.1/"
   xmlns:cc="http://creativecommons.org/ns#"
   xmlns:rdf="http://www.w3.org/1999/02/22-rdf-syntax-ns#"
   xmlns:svg="http://www.w3.org/2000/svg"
   xmlns="http://www.w3.org/2000/svg"
   xmlns:xlink="http://www.w3.org/1999/xlink"
   xmlns:sodipodi="http://sodipodi.sourceforge.net/DTD/sodipodi-0.dtd"
   xmlns:inkscape="http://www.inkscape.org/namespaces/inkscape"
   version="1.1"
   id="Capa_1"
   x="0px"
   y="0px"
   viewBox="0 0 511.999 511.999"
   style="enable-background:new 0 0 511.999 511.999;"
   xml:space="preserve"
   sodipodi:docname="62.svg"
   inkscape:version="0.92.4 (5da689c313, 2019-01-14)"><metadata
   id="metadata95"><rdf:RDF><cc:Work
       rdf:about=""><dc:format>image/svg+xml</dc:format><dc:type
         rdf:resource="http://purl.org/dc/dcmitype/StillImage" /><dc:title></dc:title></cc:Work></rdf:RDF></metadata><defs
   id="defs93"><linearGradient
     id="linearGradient2457"
     osb:paint="solid"><stop
       style="stop-color:#000000;stop-opacity:1;"
       offset="0"
       id="stop2455" /></linearGradient><linearGradient
     inkscape:collect="always"
     xlink:href="#linearGradient2457"
     id="linearGradient2459-6-2"
     x1="1442.3572"
     y1="-339.5119"
     x2="1514.9286"
     y2="-339.5119"
     gradientUnits="userSpaceOnUse"
     gradientTransform="matrix(6.4669274,0,0,9.6773016,-9356.1743,3517.6929)" /><pattern
     y="0"
     x="0"
     height="6"
     width="6"
     patternUnits="userSpaceOnUse"
     id="EMFhbasepattern" /></defs><sodipodi:namedview
   pagecolor="#ffffff"
   bordercolor="#666666"
   borderopacity="1"
   objecttolerance="10"
   gridtolerance="10"
   guidetolerance="10"
   inkscape:pageopacity="0"
   inkscape:pageshadow="2"
   inkscape:window-width="1920"
   inkscape:window-height="986"
   id="namedview91"
   showgrid="false"
   inkscape:zoom="1.3037307"
   inkscape:cx="55.636868"
   inkscape:cy="256.72862"
   inkscape:window-x="-11"
   inkscape:window-y="-11"
   inkscape:window-maximized="1"
   inkscape:current-layer="g1046" />























<g
   id="g60">
</g>
<g
   id="g62">
</g>
<g
   id="g64">
</g>
<g
   id="g66">
</g>
<g
   id="g68">
</g>
<g
   id="g70">
</g>
<g
   id="g72">
</g>
<g
   id="g74">
</g>
<g
   id="g76">
</g>
<g
   id="g78">
</g>
<g
   id="g80">
</g>
<g
   id="g82">
</g>
<g
   id="g84">
</g>
<g
   id="g86">
</g>
<g
   id="g88">
</g>
<g
   id="g1046"
   transform="matrix(0.55886315,0,0,0.55886315,157.54779,132.77619)"><g
   transform="matrix(0.92761674,0,0,0.92761674,-31.369987,-41.413604)"
   id="g928"><path
     inkscape:connector-curvature="0"
     id="path2"
     d="M 413.861,374.369 329.375,349.52 C 319.14,346.51 312.112,337.117 312.112,326.449 V 272.031 H 199.887 v 54.418 c 0,10.668 -7.028,20.061 -17.263,23.071 l -84.486,24.849 c -20.469,6.02 -34.525,24.806 -34.525,46.142 v 83.987 h 384.772 v -83.987 c 0.001,-21.336 -14.055,-40.122 -34.524,-46.142 z"
     style="fill:#f7d291" /><path
     inkscape:connector-curvature="0"
     id="path4-9"
     d="m 413.862,374.369 -82.707,-24.326 c -15.5,25.296 -43.314,42.229 -75.155,42.229 -31.841,0 -59.655,-16.933 -75.155,-42.229 l -82.707,24.326 c -20.469,6.02 -34.524,24.806 -34.524,46.141 v 83.987 H 448.386 V 420.51 c 0,-21.335 -14.056,-40.12 -34.524,-46.141 z"
     style="fill:#a5cdff" /><path
     inkscape:connector-curvature="0"
     id="path6-7"
     d="m 256,416.321 c 42.828,0 80.029,-24.005 98.945,-59.281 l -23.79,-6.996 c -15.5,25.296 -43.314,42.229 -75.155,42.229 -31.841,0 -59.655,-16.933 -75.155,-42.229 l -23.79,6.997 c 18.916,35.275 56.117,59.28 98.945,59.28 z"
     style="fill:#8cb4eb" /><g
     id="g12"><polygon
       id="polygon8"
       points="167.823,353.873 127.743,365.662 127.743,464.417 167.823,464.417 "
       style="fill:#ff8250" /><polygon
       id="polygon10"
       points="344.177,353.873 384.257,365.662 384.257,464.417 344.177,464.417 "
       style="fill:#ff8250" /></g><path
     inkscape:connector-curvature="0"
     id="path14-7"
     d="M 360.209,432.353 H 151.791 c -13.282,0 -24.048,10.767 -24.048,24.048 v 48.097 h 256.515 v -48.097 c -10e-4,-13.281 -10.767,-24.048 -24.049,-24.048 z"
     style="fill:#ff9664" /><path
     inkscape:connector-curvature="0"
     id="path16-9"
     d="m 199.887,313.968 c 16.841,8.996 35.939,14.176 56.113,14.176 20.174,0 39.272,-5.18 56.113,-14.176 V 280.047 H 199.887 Z"
     style="fill:#f0c382" /><path
     inkscape:connector-curvature="0"
     id="path18"
     d="m 372.233,167.822 h -4.008 V 135.758 C 368.225,73.778 317.98,23.533 256,23.533 c -61.98,0 -112.225,50.245 -112.225,112.224 v 32.064 h -4.008 c -11.068,0 -20.04,8.972 -20.04,20.04 0,11.067 8.972,20.04 20.04,20.04 h 12.429 c 4.106,53.796 48.958,96.193 103.804,96.193 54.846,0 99.698,-42.398 103.804,-96.193 h 12.429 c 11.068,0 20.04,-8.973 20.04,-20.04 10e-4,-11.067 -8.972,-20.039 -20.04,-20.039 z"
     style="fill:#ffe1a0" /><path
     inkscape:connector-curvature="0"
     id="path20-2"
     d="m 256,15.516 v 0 c -70.835,0 -128.258,57.423 -128.258,128.257 v 0 h 256.515 v 0 C 384.257,72.939 326.835,15.516 256,15.516 Z"
     style="fill:#ffe17d" /><path
     inkscape:connector-curvature="0"
     id="path22"
     d="m 256,15.516 c -70.835,0 -128.257,57.422 -128.257,128.257 h 72.145 c 0,-44.063 22.258,-82.861 56.113,-105.927 v -22.33 z"
     style="fill:#ffd164" /><path
     inkscape:connector-curvature="0"
     id="path24"
     d="m 143.775,143.774 v 24.048 h -4.008 c -11.068,0 -20.04,8.972 -20.04,20.04 0,11.067 8.972,20.04 20.04,20.04 h 12.429 c 4.106,53.796 48.958,96.193 103.804,96.193 8.108,0 15.957,-1.028 23.529,-2.781 C 229.38,290.1 191.871,245.4 191.871,191.87 c 0,-13.282 10.767,-24.048 24.048,-24.048 H 336.16 c 8.854,0 16.032,-7.178 16.032,-16.032 v -8.016 z"
     style="fill:#f7d291" /><path
     inkscape:connector-curvature="0"
     id="path26-8"
     d="m 274.558,223.935 h -37.112 c -12.254,0 -22.548,9.214 -23.901,21.393 l -3.787,34.086 c -1.113,10.014 4.135,19.659 13.146,24.165 l 22.344,11.172 c 6.77,3.385 14.739,3.385 21.509,0 l 22.344,-11.172 c 9.012,-4.506 14.259,-14.151 13.146,-24.165 l -3.787,-34.086 c -1.354,-12.18 -11.648,-21.393 -23.902,-21.393 z"
     style="fill:#cd916e" /><path
     inkscape:connector-curvature="0"
     id="path28"
     d="m 253.262,306.067 c -9.012,-5.554 -14.259,-17.442 -13.147,-29.785 l 3.787,-42.013 c 0.334,-3.709 1.223,-7.189 2.543,-10.335 h -9 c -12.254,0 -22.548,9.214 -23.901,21.393 l -3.787,34.086 c -1.113,10.014 4.135,19.66 13.147,24.165 l 22.344,11.172 c 6.77,3.385 14.739,3.385 21.51,0 l 0.328,-0.164 z"
     style="fill:#b67f5f" /><g
     id="g34"><path
       inkscape:connector-curvature="0"
       id="path30-8"
       d="m 272.032,111.709 h -32.064 c -4.427,0 -8.016,-3.589 -8.016,-8.016 V 15.516 c 0,-4.427 3.589,-8.016 8.016,-8.016 h 32.064 c 4.427,0 8.016,3.589 8.016,8.016 v 88.177 c 0,4.427 -3.589,8.016 -8.016,8.016 z"
       style="fill:#ffedb1" /><path
       inkscape:connector-curvature="0"
       id="path32"
       d="m 344.177,111.709 h -16.032 c -4.427,0 -8.016,-3.589 -8.016,-8.016 V 33.852 c 0,-4.252 4.854,-6.679 8.256,-4.128 l 17.396,13.047 c 4.037,3.028 6.413,7.779 6.413,12.826 v 48.097 c -0.001,4.426 -3.59,8.015 -8.017,8.015 z"
       style="fill:#ffedb1" /></g><path
     inkscape:connector-curvature="0"
     id="path36"
     d="m 167.823,111.709 h 16.032 c 4.427,0 8.016,-3.589 8.016,-8.016 V 33.852 c 0,-4.252 -4.854,-6.679 -8.256,-4.128 L 166.22,42.771 c -4.037,3.028 -6.413,7.779 -6.413,12.826 v 48.097 c 0,4.426 3.589,8.015 8.016,8.015 z"
     style="fill:#ffe17d" /><g
     id="g42"><path
       inkscape:connector-curvature="0"
       id="path38"
       d="m 127.742,432.353 v 0 72.145 h -24.048 v -48.097 c 0,-13.281 10.767,-24.048 24.048,-24.048 z"
       style="fill:#8cb4eb" /><path
       inkscape:connector-curvature="0"
       id="path40"
       d="m 384.258,432.353 v 0 72.145 h 24.048 v -48.097 c 0,-13.281 -10.767,-24.048 -24.048,-24.048 z"
       style="fill:#8cb4eb" /></g><path
     inkscape:connector-curvature="0"
     id="path44"
     d="m 256.003,263.499 c 9.143,0 17.459,-4.231 22.246,-11.318 2.318,-3.433 1.416,-8.095 -2.017,-10.413 -3.433,-2.317 -8.094,-1.416 -10.413,2.017 -1.965,2.908 -5.726,4.715 -9.816,4.715 -4.09,0 -7.853,-1.807 -9.817,-4.716 -2.32,-3.432 -6.982,-4.333 -10.414,-2.016 -3.432,2.319 -4.334,6.981 -2.016,10.414 4.789,7.087 13.105,11.317 22.247,11.317 z" /><path
     inkscape:connector-curvature="0"
     id="path46"
     d="m 211.912,191.354 c 4.143,0 7.5,-3.357 7.5,-7.5 v -8.017 c 0,-4.143 -3.357,-7.5 -7.5,-7.5 -4.143,0 -7.5,3.357 -7.5,7.5 v 8.017 c 0,4.143 3.358,7.5 7.5,7.5 z" /><path
     inkscape:connector-curvature="0"
     id="path48"
     d="m 300.089,191.354 c 4.143,0 7.5,-3.357 7.5,-7.5 v -8.017 c 0,-4.143 -3.357,-7.5 -7.5,-7.5 -4.143,0 -7.5,3.357 -7.5,7.5 v 8.017 c 0,4.143 3.357,7.5 7.5,7.5 z" /><path
     inkscape:connector-curvature="0"
     id="path50"
     d="M 415.978,366.906 331.492,342.057 C 324.498,340 319.613,333.472 319.613,326.181 v -34.477 c 25.495,-17.719 42.655,-45.456 47.007,-76.302 h 4.473 c 14.617,0 27.155,-10.861 28.543,-24.728 0.778,-7.771 -1.764,-15.529 -6.974,-21.286 -2.522,-2.787 -5.569,-4.993 -8.919,-6.534 v -11.581 h 16.548 c 4.143,0 7.5,-3.357 7.5,-7.5 0,-4.143 -3.357,-7.5 -7.5,-7.5 h -8.747 C 389.92,106.827 378.777,78.714 359.695,56.149 v -0.553 c 0,-7.367 -3.519,-14.404 -9.413,-18.826 L 332.887,23.725 c -3.863,-2.898 -8.943,-3.355 -13.258,-1.197 -0.41,0.205 -0.8,0.435 -1.179,0.678 C 308.481,18.03 297.953,14.132 287.023,11.579 285.273,4.927 279.226,0 272.032,0 h -32.064 c -7.193,0 -13.241,4.927 -14.99,11.578 -10.929,2.553 -21.457,6.451 -31.427,11.628 -0.379,-0.243 -0.769,-0.473 -1.179,-0.678 -4.314,-2.158 -9.396,-1.7 -13.257,1.196 L 161.72,36.771 c -5.895,4.422 -9.413,11.459 -9.413,18.826 v 0.554 c -19.082,22.565 -30.226,50.678 -31.849,80.123 h -8.747 c -4.143,0 -7.5,3.357 -7.5,7.5 0,4.143 3.357,7.5 7.5,7.5 h 16.549 v 11.917 c -8.63,4.115 -14.928,12.266 -15.888,21.857 -0.778,7.771 1.763,15.53 6.973,21.289 5.214,5.762 12.658,9.066 20.426,9.066 h 5.598 c 2.219,15.929 7.848,31.189 16.599,44.806 8.013,12.468 18.366,23.142 30.422,31.502 v 34.471 c 0,7.291 -4.885,13.819 -11.879,15.876 l -84.486,24.849 c -23.497,6.911 -39.908,28.845 -39.908,53.338 v 84.254 c 0,4.143 3.357,7.5 7.5,7.5 4.143,0 7.5,-3.357 7.5,-7.5 v -84.254 c 0,-17.885 11.983,-33.9 29.141,-38.947 l 19.987,-5.878 V 504.5 c 0,4.143 3.357,7.5 7.5,7.5 4.143,0 7.5,-3.357 7.5,-7.5 v -48.097 c 0,-9.125 7.424,-16.549 16.549,-16.549 h 32.064 c 4.143,0 7.5,-3.357 7.5,-7.5 0,-4.143 -3.357,-7.5 -7.5,-7.5 h -8.532 V 359.22 l 2.046,-0.602 c 17.905,25.874 46.885,41.156 78.631,41.156 31.608,0 60.707,-15.316 78.625,-41.158 l 2.055,0.604 v 65.634 H 215.92 c -4.143,0 -7.5,3.357 -7.5,7.5 0,4.143 3.357,7.5 7.5,7.5 h 144.289 c 9.125,0 16.549,7.424 16.549,16.549 0,0.013 0.002,0.026 0.002,0.039 v 48.06 c 0,4.143 3.357,7.5 7.5,7.5 4.143,0 7.5,-3.357 7.5,-7.5 V 375.419 l 19.985,5.878 c 17.157,5.047 29.141,21.063 29.141,38.947 v 84.254 c 0,4.143 3.357,7.5 7.5,7.5 4.143,0 7.5,-3.357 7.5,-7.5 v -84.254 c 0,-24.493 -16.411,-46.427 -39.908,-53.338 z m -198.766,-86.665 3.787,-34.086 c 0.933,-8.392 8.004,-14.721 16.447,-14.721 h 37.112 c 8.443,0 15.515,6.329 16.447,14.721 l 3.787,34.086 c 0.762,6.859 -2.874,13.542 -9.047,16.629 l -22.344,11.172 c -4.636,2.319 -10.168,2.315 -14.8,0 L 226.257,296.87 c -6.172,-3.087 -9.808,-9.769 -9.045,-16.629 z M 327.629,38.532 341.28,48.77 c 2.137,1.603 3.413,4.155 3.413,6.826 v 48.097 c 0,0.284 -0.231,0.516 -0.517,0.516 h -16.032 c -0.284,0 -0.516,-0.231 -0.516,-0.516 V 38.532 Z M 239.968,15 h 32.064 c 0.284,0 0.516,0.231 0.516,0.516 v 88.178 c 0,0.284 -0.231,0.516 -0.516,0.516 h -32.064 c -0.284,0 -0.516,-0.231 -0.516,-0.516 V 15.516 c 0,-0.285 0.232,-0.516 0.516,-0.516 z m -72.661,40.597 c 0,-2.671 1.276,-5.224 3.413,-6.826 l 13.651,-10.238 v 65.161 c 0,0.284 -0.231,0.516 -0.516,0.516 h -16.032 c -0.285,0 -0.517,-0.231 -0.517,-0.516 V 55.597 Z m 7.277,196.501 c -10.003,-15.563 -15.29,-33.618 -15.29,-52.212 0,-4.143 -3.357,-7.5 -7.5,-7.5 -4.143,0 -7.5,3.357 -7.5,7.5 v 0.517 h -4.524 c -3.537,0 -6.928,-1.506 -9.303,-4.131 -2.406,-2.659 -3.532,-6.114 -3.17,-9.729 0.63,-6.292 6.611,-11.22 13.617,-11.22 4.143,0 7.5,-3.357 7.5,-7.5 0,-3.323 -2.162,-6.136 -5.155,-7.121 v -9.428 h 176.866 c 4.143,0 7.5,-3.357 7.5,-7.5 0,-4.143 -3.357,-7.5 -7.5,-7.5 H 135.481 c 1.197,-19.302 6.994,-37.937 16.826,-54.399 v 21.819 c 0,8.556 6.961,15.516 15.517,15.516 h 16.032 c 8.556,0 15.516,-6.96 15.516,-15.516 v -66.59 c 7.984,-4.25 16.379,-7.565 25.081,-9.912 v 76.501 c 0,8.556 6.96,15.516 15.516,15.516 h 32.064 c 8.556,0 15.516,-6.96 15.516,-15.516 v -76.5 c 8.702,2.347 17.097,5.662 25.081,9.912 v 66.589 c 0,8.556 6.96,15.516 15.516,15.516 h 16.032 c 8.556,0 15.517,-6.96 15.517,-15.516 v -21.82 c 9.833,16.463 15.629,35.097 16.826,54.4 h -24.328 c -4.143,0 -7.5,3.357 -7.5,7.5 0,4.143 3.357,7.5 7.5,7.5 h 16.551 v 9.915 c -2.381,1.257 -4.006,3.754 -4.006,6.634 0,4.143 3.357,7.5 7.5,7.5 3.537,0 6.928,1.506 9.303,4.13 2.406,2.659 3.532,6.114 3.17,9.729 -0.63,6.293 -6.611,11.222 -13.617,11.222 h -3.384 v -0.438 c 0,-4.141 -3.356,-7.498 -7.497,-7.5 -0.001,0 -0.002,0 -0.003,0 -4.14,0 -7.497,3.354 -7.5,7.494 -0.023,32.449 -16.456,62.508 -42.889,80.272 -0.032,-0.548 -0.057,-1.095 -0.118,-1.645 l -3.787,-34.086 c -1.778,-15.999 -15.258,-28.064 -31.355,-28.064 h -37.112 c -16.098,0 -29.577,12.065 -31.355,28.064 l -3.787,34.085 c -0.062,0.555 -0.087,1.109 -0.119,1.662 -10.982,-7.363 -20.386,-16.92 -27.604,-28.15 z m -14.261,172.755 h -8.532 c -6.066,0 -11.734,1.725 -16.549,4.703 v -58.549 l 25.081,-7.377 z M 256,384.772 c -25.439,0 -48.772,-11.644 -63.99,-31.529 9.325,-5.613 15.377,-15.862 15.377,-27.062 V 300.48 c 0.138,0.067 0.272,0.139 0.41,0.205 0.202,0.097 0.408,0.176 0.615,0.253 2.882,3.868 6.656,7.107 11.137,9.348 l 22.344,11.172 c 4.418,2.209 9.263,3.313 14.109,3.313 4.845,0 9.691,-1.104 14.108,-3.313 l 22.344,-11.172 c 4.467,-2.233 8.232,-5.458 11.111,-9.312 0.35,-0.165 0.699,-0.33 1.046,-0.498 v 25.705 c 0,11.199 6.051,21.446 15.374,27.059 -15.234,19.866 -38.654,31.532 -63.985,31.532 z m 120.76,44.785 c -4.815,-2.979 -10.484,-4.705 -16.551,-4.705 H 351.68 V 363.63 l 25.08,7.376 z" /><path
     inkscape:connector-curvature="0"
     id="path52"
     d="m 159.887,456.917 h -0.08 c -4.143,0 -7.46,3.357 -7.46,7.5 0,4.143 3.397,7.5 7.54,7.5 4.143,0 7.5,-3.357 7.5,-7.5 0,-4.143 -3.358,-7.5 -7.5,-7.5 z" /><path
     inkscape:connector-curvature="0"
     id="path54"
     d="m 352.193,456.917 h -0.08 c -4.143,0 -7.46,3.357 -7.46,7.5 0,4.143 3.397,7.5 7.54,7.5 4.143,0 7.5,-3.357 7.5,-7.5 0,-4.143 -3.357,-7.5 -7.5,-7.5 z" /></g><rect
   y="-104.38158"
   x="-28.555799"
   height="673.03345"
   width="469.31418"
   id="rect2447-0-9"
   style="display:inline;fill:none;fill-opacity:1;stroke:url(#linearGradient2459-6-2);stroke-width:25.31489563;stroke-miterlimit:4;stroke-dasharray:none;stroke-opacity:1" /><text
   id="text2485-9"
   y="522.54254"
   x="72.381958"
   style="font-style:normal;font-weight:normal;font-size:76.99105835px;line-height:1.25;font-family:sans-serif;letter-spacing:0px;word-spacing:0px;display:inline;fill:#000000;fill-opacity:1;stroke:none;stroke-width:1.9247762"
   xml:space="preserve"><tspan
     style="stroke-width:1.9247762"
     y="522.54254"
     x="72.381958"
     id="tspan2483-7"
     sodipodi:role="line">MARIO</tspan></text>








</g></svg>