<?xml version="1.0" encoding="UTF-8" standalone="no"?>
<!-- Generator: Adobe Illustrator 19.0.0, SVG Export Plug-In . SVG Version: 6.00 Build 0)  -->

<svg
   xmlns:osb="http://www.openswatchbook.org/uri/2009/osb"
   xmlns:dc="http://purl.org/dc/elements/1.1/"
   xmlns:cc="http://creativecommons.org/ns#"
   xmlns:rdf="http://www.w3.org/1999/02/22-rdf-syntax-ns#"
   xmlns:svg="http://www.w3.org/2000/svg"
   xmlns="http://www.w3.org/2000/svg"
   xmlns:xlink="http://www.w3.org/1999/xlink"
   xmlns:sodipodi="http://sodipodi.sourceforge.net/DTD/sodipodi-0.dtd"
   xmlns:inkscape="http://www.inkscape.org/namespaces/inkscape"
   version="1.1"
   id="Capa_1"
   x="0px"
   y="0px"
   viewBox="0 0 511.999 511.999"
   style="enable-background:new 0 0 511.999 511.999;"
   xml:space="preserve"
   sodipodi:docname="64.svg"
   inkscape:version="0.92.4 (5da689c313, 2019-01-14)"><metadata
   id="metadata95"><rdf:RDF><cc:Work
       rdf:about=""><dc:format>image/svg+xml</dc:format><dc:type
         rdf:resource="http://purl.org/dc/dcmitype/StillImage" /><dc:title></dc:title></cc:Work></rdf:RDF></metadata><defs
   id="defs93"><linearGradient
     id="linearGradient2457"
     osb:paint="solid"><stop
       style="stop-color:#000000;stop-opacity:1;"
       offset="0"
       id="stop2455" /></linearGradient><linearGradient
     inkscape:collect="always"
     xlink:href="#linearGradient2457"
     id="linearGradient2459-6-2"
     x1="1442.3572"
     y1="-339.5119"
     x2="1514.9286"
     y2="-339.5119"
     gradientUnits="userSpaceOnUse"
     gradientTransform="matrix(6.4669274,0,0,9.6773016,-9356.1743,3517.6929)" /><pattern
     y="0"
     x="0"
     height="6"
     width="6"
     patternUnits="userSpaceOnUse"
     id="EMFhbasepattern" /></defs><sodipodi:namedview
   pagecolor="#ffffff"
   bordercolor="#666666"
   borderopacity="1"
   objecttolerance="10"
   gridtolerance="10"
   guidetolerance="10"
   inkscape:pageopacity="0"
   inkscape:pageshadow="2"
   inkscape:window-width="1920"
   inkscape:window-height="986"
   id="namedview91"
   showgrid="false"
   inkscape:zoom="1.3037307"
   inkscape:cx="55.636868"
   inkscape:cy="256.72862"
   inkscape:window-x="-11"
   inkscape:window-y="-11"
   inkscape:window-maximized="1"
   inkscape:current-layer="g1046" />























<g
   id="g60">
</g>
<g
   id="g62">
</g>
<g
   id="g64">
</g>
<g
   id="g66">
</g>
<g
   id="g68">
</g>
<g
   id="g70">
</g>
<g
   id="g72">
</g>
<g
   id="g74">
</g>
<g
   id="g76">
</g>
<g
   id="g78">
</g>
<g
   id="g80">
</g>
<g
   id="g82">
</g>
<g
   id="g84">
</g>
<g
   id="g86">
</g>
<g
   id="g88">
</g>
<g
   id="g1046"
   transform="matrix(0.55886315,0,0,0.55886315,157.54779,132.77619)"><g
   transform="matrix(0.94472141,0,0,0.94472141,-35.747391,-49.678324)"
   id="g892"><path
     inkscape:connector-curvature="0"
     id="path2"
     d="M 413.847,419.837 329.369,394.99 c -10.234,-3.01 -17.261,-12.402 -17.261,-23.069 V 312.13 H 199.892 v 59.791 c 0,10.667 -7.028,20.059 -17.261,23.069 l -84.478,24.847 c -20.467,6.02 -34.522,24.804 -34.522,46.138 V 504.5 H 448.37 v -38.525 c -10e-4,-21.334 -14.056,-40.118 -34.523,-46.138 z"
     style="fill:#dbd9dc" /><path
     inkscape:connector-curvature="0"
     id="path4-1"
     d="m 215.923,494.481 h 80.154 c 50.814,0 94.266,-31.737 111.836,-76.389 L 329.37,394.991 c -10.234,-3.01 -17.262,-12.403 -17.262,-23.07 V 312.13 H 199.892 v 59.791 c 0,10.667 -7.027,20.06 -17.262,23.07 l -78.543,23.101 c 17.57,44.652 61.022,76.389 111.836,76.389 z"
     style="fill:#c9c6ca" /><path
     inkscape:connector-curvature="0"
     id="path6-9"
     d="M 344.169,326.158 H 167.831 c -26.561,0 -48.092,21.532 -48.092,48.092 0,53.121 43.063,96.185 96.185,96.185 h 80.154 c 53.122,0 96.185,-43.064 96.185,-96.185 -10e-4,-26.561 -21.533,-48.092 -48.094,-48.092 z"
     style="fill:#ff9664" /><path
     inkscape:connector-curvature="0"
     id="path8-4"
     d="m 342.036,350.204 c 17.447,0 24.298,22.628 9.781,32.306 l -82.479,54.986 c -8.077,5.385 -18.6,5.385 -26.677,0 L 160.182,382.51 c -14.517,-9.678 -7.666,-32.306 9.781,-32.306 z"
     style="fill:#ff8250" /><path
     inkscape:connector-curvature="0"
     id="path10-1"
     d="m 180.426,396.006 62.235,41.49 c 8.078,5.385 18.6,5.385 26.677,0 l 62.235,-41.49 v 0 l -2.205,-0.649 c -10.233,-3.01 -17.261,-12.402 -17.261,-23.069 V 320.146 H 199.892 v 52.142 c 0,10.667 -7.028,20.059 -17.261,23.069 z"
     style="fill:#f7d291" /><path
     inkscape:connector-curvature="0"
     id="path12-8"
     d="m 199.892,354.064 c 16.839,8.995 35.936,14.175 56.108,14.175 20.172,0 39.268,-5.18 56.108,-14.175 V 320.146 H 199.892 Z"
     style="fill:#f0c382" /><path
     inkscape:connector-curvature="0"
     id="path14-2"
     d="m 376.231,211.03 v -27.146 c 0,-62.528 -47.742,-113.869 -108.756,-119.652 -3.773,-0.383 -7.601,-0.579 -11.475,-0.579 -3.874,0 -7.702,0.197 -11.475,0.579 -61.014,5.783 -108.756,57.123 -108.756,119.652 v 27.408 c -8.278,2.002 -15.054,8.607 -15.923,17.281 -1.202,11.994 8.185,22.105 19.934,22.105 h 12.023 0.735 c 5.374,52.503 49.54,93.514 103.462,93.514 53.922,0 98.089,-41.01 103.462,-93.514 h 0.737 10.883 c 10.482,0 20.035,-7.542 21.078,-17.972 1.06,-10.592 -6.143,-19.686 -15.929,-21.676 z"
     style="fill:#ffe1a0" /><path
     inkscape:connector-curvature="0"
     id="path16-5"
     d="M 248.847,98.811 235.934,78.063 c -2.521,-4.051 -3.107,-9.014 -1.598,-13.54 L 252.504,10.02 c 1.12,-3.36 5.873,-3.36 6.993,0 l 18.168,54.503 c 1.509,4.526 0.923,9.489 -1.598,13.539 l -12.911,20.747 c -3.298,5.301 -11.011,5.301 -14.309,0.002 z"
     style="fill:#ff9664" /><path
     inkscape:connector-curvature="0"
     id="path18"
     d="m 256,7.5 c -1.469,0 -2.936,0.84 -3.496,2.52 l -18.168,54.503 c -1.509,4.526 -0.923,9.49 1.598,13.541 l 12.913,20.747 c 1.649,2.65 4.401,3.974 7.153,3.974 z"
     style="fill:#ff8250" /><path
     inkscape:connector-curvature="0"
     id="path20-5"
     d="M 191.877,239.992 V 136.441 c 0,-22.928 -30.383,-30.296 -41.401,-10.19 -9.375,17.107 -14.706,36.744 -14.706,57.633 v 27.408 c -8.278,2.002 -15.054,8.607 -15.923,17.281 -1.202,11.994 8.185,22.105 19.934,22.105 h 12.023 0.735 c 5.374,52.503 49.54,93.514 103.462,93.514 6.882,0 13.598,-0.685 20.103,-1.961 -47.986,-9.322 -84.227,-51.528 -84.227,-102.239 z"
     style="fill:#f7d291" /><path
     inkscape:connector-curvature="0"
     id="path22"
     d="m 415.963,415.013 -21.412,-6.297 c 3.376,-10.216 5.21,-21.128 5.21,-32.461 0,-30.654 -24.938,-55.593 -55.592,-55.593 h -8.295 c 16.261,-16.648 27.373,-38.341 30.743,-62.482 h 4.464 c 14.617,0 27.153,-10.861 28.541,-24.726 0.778,-7.771 -1.764,-15.529 -6.974,-21.286 -2.522,-2.787 -5.568,-4.993 -8.918,-6.534 v -19.078 c 0,-59.41 -41.429,-111.231 -98.975,-124.474 L 266.612,7.648 C 265.087,3.074 260.822,0 256,0 c -4.822,0 -9.087,3.074 -10.612,7.648 l -18.145,54.434 c -57.546,13.243 -98.974,65.064 -98.974,124.474 v 19.414 c -8.628,4.115 -14.926,12.266 -15.887,21.857 -0.778,7.771 1.764,15.529 6.973,21.287 5.213,5.761 12.658,9.065 20.424,9.065 h 5.603 c 3.37,24.142 14.482,45.834 30.743,62.482 h -8.295 c -30.654,0 -55.592,24.938 -55.592,55.593 0,11.333 1.834,22.245 5.21,32.461 l -21.412,6.297 C 72.54,421.922 56.13,443.854 56.13,468.345 V 504.5 c 0,4.143 3.358,7.5 7.5,7.5 4.142,0 7.5,-3.357 7.5,-7.5 v -36.154 c 0,-17.883 11.982,-33.896 29.139,-38.942 l 22.95,-6.75 c 12.426,24.725 34.453,43.824 61.159,52.373 V 504.5 c 0,4.143 3.358,7.5 7.5,7.5 4.142,0 7.5,-3.357 7.5,-7.5 v -25.887 c 5.39,0.868 10.915,1.326 16.545,1.326 h 80.154 c 5.632,0 11.157,-0.458 16.548,-1.326 V 504.5 c 0,4.143 3.358,7.5 7.5,7.5 4.142,0 7.5,-3.357 7.5,-7.5 v -29.475 c 26.705,-8.549 48.731,-27.647 61.156,-52.372 l 22.95,6.75 c 17.156,5.046 29.139,21.06 29.139,38.942 V 504.5 c 0,4.143 3.358,7.5 7.5,7.5 4.142,0 7.5,-3.357 7.5,-7.5 v -36.154 c 0,-24.492 -16.411,-46.423 -39.907,-53.333 z m -85.581,-25.222 c -6.396,-2.39 -10.774,-8.6 -10.774,-15.499 v -14.585 h 22.429 c 5.544,0 8.646,3.718 9.699,7.197 1.054,3.479 0.536,8.294 -4.078,11.369 z M 256,23.248 l 15.817,47.45 -15.029,24.149 c -0.067,0.108 -0.272,0.437 -0.787,0.438 -0.515,0 -0.72,-0.329 -0.787,-0.438 v 0 L 240.183,70.697 Z M 139.78,243.179 c -3.536,0 -6.927,-1.505 -9.302,-4.13 -2.406,-2.659 -3.532,-6.114 -3.17,-9.728 0.63,-6.292 6.612,-11.22 13.617,-11.22 4.142,0 7.5,-3.357 7.5,-7.5 0,-3.323 -2.162,-6.135 -5.155,-7.121 v -16.925 c 0,-51.128 34.767,-95.867 83.577,-108.9 l 15.634,25.117 v 0 c 2.927,4.703 7.982,7.512 13.522,7.512 5.54,-0.001 10.595,-2.809 13.521,-7.512 l 15.631,-25.117 c 48.81,13.032 83.577,57.771 83.577,108.9 v 17.412 c -2.381,1.257 -4.005,3.754 -4.005,6.634 0,4.143 3.358,7.5 7.5,7.5 3.536,0 6.926,1.505 9.301,4.13 2.406,2.659 3.532,6.113 3.17,9.728 -0.629,6.292 -6.61,11.22 -13.615,11.22 h -3.388 c 0.001,-0.172 0.007,-0.343 0.007,-0.515 0,-4.143 -3.358,-7.5 -7.5,-7.5 -4.142,0 -7.5,3.357 -7.5,7.5 0,53.32 -43.379,96.7 -96.7,96.7 -53.321,0 -96.7,-43.38 -96.7,-96.7 0,-4.143 -3.358,-7.5 -7.5,-7.5 -4.142,0 -7.5,3.357 -7.5,7.5 0,0.172 0.006,0.343 0.007,0.515 z m 41.838,146.612 -17.276,-11.517 c -4.613,-3.075 -5.131,-7.89 -4.078,-11.369 1.053,-3.479 4.154,-7.197 9.699,-7.197 h 22.429 v 14.585 c 0,6.898 -4.377,13.108 -10.774,15.498 z m 146.007,69.344 v -2.726 c 0,-4.143 -3.358,-7.5 -7.5,-7.5 -4.142,0 -7.5,3.357 -7.5,7.5 v 6.976 c -5.363,1.016 -10.893,1.555 -16.548,1.555 h -80.154 c -5.654,0 -11.183,-0.538 -16.545,-1.554 v -6.976 c 0,-4.143 -3.358,-7.5 -7.5,-7.5 -4.142,0 -7.5,3.357 -7.5,7.5 v 2.727 c -33.371,-12.744 -57.139,-45.087 -57.139,-82.881 0,-22.383 18.209,-40.593 40.592,-40.593 h 24.588 c -0.012,0.171 -0.026,0.342 -0.026,0.516 v 8.53 h -22.429 c -11.33,0 -20.772,7.007 -24.055,17.851 -3.283,10.845 0.687,21.912 10.114,28.196 l 86.926,57.95 c 3.965,2.644 8.508,3.965 13.052,3.965 4.543,0 9.088,-1.322 13.052,-3.965 l 23.17,-15.446 c 3.446,-2.298 4.378,-6.954 2.08,-10.4 -2.297,-3.446 -6.955,-4.377 -10.4,-2.08 l -23.17,15.446 c -2.875,1.916 -6.589,1.916 -9.464,0 l -55.862,-37.241 c 7.369,-5.877 11.986,-14.918 11.986,-24.691 v -31.071 c 14.704,7.136 31.196,11.143 48.608,11.143 17.412,0 33.904,-4.007 48.608,-11.143 v 31.071 c 0,9.773 4.617,18.813 11.986,24.691 l -4.637,3.091 c -3.447,2.298 -4.378,6.954 -2.08,10.4 1.445,2.168 3.823,3.341 6.247,3.341 1.43,0 2.875,-0.408 4.153,-1.261 l 35.701,-23.801 c 9.427,-6.284 13.397,-17.352 10.114,-28.196 -3.283,-10.844 -12.726,-17.851 -24.055,-17.851 h -22.429 v -8.53 c 0,-0.174 -0.014,-0.344 -0.026,-0.516 h 24.588 c 22.383,0 40.592,18.21 40.592,40.593 -10e-4,37.792 -23.768,70.134 -57.138,82.88 z" /><path
     inkscape:connector-curvature="0"
     id="path24"
     d="m 207.908,211.118 c -4.142,0 -7.5,3.357 -7.5,7.5 v 8.015 c 0,4.143 3.358,7.5 7.5,7.5 4.142,0 7.5,-3.357 7.5,-7.5 v -8.015 c 0,-4.142 -3.358,-7.5 -7.5,-7.5 z" /><path
     inkscape:connector-curvature="0"
     id="path26"
     d="m 304.092,211.118 c -4.142,0 -7.5,3.357 -7.5,7.5 v 8.015 c 0,4.143 3.358,7.5 7.5,7.5 4.142,0 7.5,-3.357 7.5,-7.5 v -8.015 c 0,-4.142 -3.358,-7.5 -7.5,-7.5 z" /><path
     inkscape:connector-curvature="0"
     id="path28"
     d="m 226.686,280.064 c 6.459,6.372 17.417,10.177 29.314,10.177 11.897,0 22.854,-3.805 29.314,-10.177 2.948,-2.909 2.98,-7.657 0.071,-10.606 -2.909,-2.948 -7.658,-2.981 -10.606,-0.071 -2.737,2.7 -9.298,5.854 -18.779,5.854 -9.481,0 -16.042,-3.154 -18.779,-5.854 -2.95,-2.912 -7.698,-2.877 -10.606,0.071 -2.909,2.949 -2.877,7.697 0.071,10.606 z" /><path
     inkscape:connector-curvature="0"
     id="path30-5"
     d="m 197.521,201.687 24.046,8.016 c 0.787,0.262 1.586,0.387 2.373,0.387 3.14,0 6.066,-1.987 7.114,-5.13 1.31,-3.93 -0.814,-8.178 -4.744,-9.487 l -24.046,-8.016 c -3.929,-1.305 -8.177,0.813 -9.487,4.743 -1.31,3.929 0.814,8.177 4.744,9.487 z" /><path
     inkscape:connector-curvature="0"
     id="path32"
     d="m 288.061,210.089 c 0.786,0 1.586,-0.125 2.373,-0.387 l 24.046,-8.016 c 3.93,-1.31 6.053,-5.558 4.744,-9.487 -1.311,-3.93 -5.558,-6.049 -9.487,-4.743 l -24.046,8.016 c -3.93,1.31 -6.053,5.558 -4.744,9.487 1.047,3.143 3.973,5.13 7.114,5.13 z" /></g><rect
   y="-104.38158"
   x="-28.555799"
   height="673.03345"
   width="469.31418"
   id="rect2447-0-9"
   style="display:inline;fill:none;fill-opacity:1;stroke:url(#linearGradient2459-6-2);stroke-width:25.31489563;stroke-miterlimit:4;stroke-dasharray:none;stroke-opacity:1" /><text
   id="text2485-9"
   y="522.54254"
   x="135.83943"
   style="font-style:normal;font-weight:normal;font-size:76.99105835px;line-height:1.25;font-family:sans-serif;letter-spacing:0px;word-spacing:0px;display:inline;fill:#000000;fill-opacity:1;stroke:none;stroke-width:1.9247762"
   xml:space="preserve"><tspan
     style="stroke-width:1.9247762"
     y="522.54254"
     x="135.83943"
     id="tspan2483-7"
     sodipodi:role="line">NIL</tspan></text>








</g></svg>