<?xml version="1.0" encoding="UTF-8" standalone="no"?>
<!-- Generator: Adobe Illustrator 19.0.0, SVG Export Plug-In . SVG Version: 6.00 Build 0)  -->

<svg
   xmlns:osb="http://www.openswatchbook.org/uri/2009/osb"
   xmlns:dc="http://purl.org/dc/elements/1.1/"
   xmlns:cc="http://creativecommons.org/ns#"
   xmlns:rdf="http://www.w3.org/1999/02/22-rdf-syntax-ns#"
   xmlns:svg="http://www.w3.org/2000/svg"
   xmlns="http://www.w3.org/2000/svg"
   xmlns:xlink="http://www.w3.org/1999/xlink"
   xmlns:sodipodi="http://sodipodi.sourceforge.net/DTD/sodipodi-0.dtd"
   xmlns:inkscape="http://www.inkscape.org/namespaces/inkscape"
   version="1.1"
   id="Capa_1"
   x="0px"
   y="0px"
   viewBox="0 0 511.999 511.999"
   style="enable-background:new 0 0 511.999 511.999;"
   xml:space="preserve"
   sodipodi:docname="65.svg"
   inkscape:version="0.92.4 (5da689c313, 2019-01-14)"><metadata
   id="metadata95"><rdf:RDF><cc:Work
       rdf:about=""><dc:format>image/svg+xml</dc:format><dc:type
         rdf:resource="http://purl.org/dc/dcmitype/StillImage" /><dc:title></dc:title></cc:Work></rdf:RDF></metadata><defs
   id="defs93"><linearGradient
     id="linearGradient2457"
     osb:paint="solid"><stop
       style="stop-color:#000000;stop-opacity:1;"
       offset="0"
       id="stop2455" /></linearGradient><linearGradient
     inkscape:collect="always"
     xlink:href="#linearGradient2457"
     id="linearGradient2459-6-2"
     x1="1442.3572"
     y1="-339.5119"
     x2="1514.9286"
     y2="-339.5119"
     gradientUnits="userSpaceOnUse"
     gradientTransform="matrix(6.4669274,0,0,9.6773016,-9356.1743,3517.6929)" /><pattern
     y="0"
     x="0"
     height="6"
     width="6"
     patternUnits="userSpaceOnUse"
     id="EMFhbasepattern" /></defs><sodipodi:namedview
   pagecolor="#ffffff"
   bordercolor="#666666"
   borderopacity="1"
   objecttolerance="10"
   gridtolerance="10"
   guidetolerance="10"
   inkscape:pageopacity="0"
   inkscape:pageshadow="2"
   inkscape:window-width="1920"
   inkscape:window-height="986"
   id="namedview91"
   showgrid="false"
   inkscape:zoom="1.3037307"
   inkscape:cx="55.636868"
   inkscape:cy="256.72862"
   inkscape:window-x="-11"
   inkscape:window-y="-11"
   inkscape:window-maximized="1"
   inkscape:current-layer="g1046" />























<g
   id="g60">
</g>
<g
   id="g62">
</g>
<g
   id="g64">
</g>
<g
   id="g66">
</g>
<g
   id="g68">
</g>
<g
   id="g70">
</g>
<g
   id="g72">
</g>
<g
   id="g74">
</g>
<g
   id="g76">
</g>
<g
   id="g78">
</g>
<g
   id="g80">
</g>
<g
   id="g82">
</g>
<g
   id="g84">
</g>
<g
   id="g86">
</g>
<g
   id="g88">
</g>
<g
   id="g1046"
   transform="matrix(0.55886315,0,0,0.55886315,157.54779,132.77619)"><g
   transform="matrix(0.9827456,0,0,0.9827456,-45.483058,-62.626542)"
   id="g904"><path
     inkscape:connector-curvature="0"
     id="path2-9"
     d="m 256.002,7.504 v 0 c -80.975,0 -147.868,63.213 -152.444,144.059 l -7.265,128.35 c -4.685,82.762 61.165,152.444 144.059,152.444 h 31.3 c 82.894,0 148.744,-69.682 144.059,-152.444 l -7.265,-128.35 C 403.869,70.717 336.977,7.504 256.002,7.504 Z"
     style="fill:#a06e50" /><path
     inkscape:connector-curvature="0"
     id="path4"
     d="M 415.71,279.912 408.684,155.783 C 404.878,88.54 359.397,29.469 294.228,12.464 263.577,4.466 234.267,6.642 207.905,15.399 v 8.137 c 0,26.563 21.534,48.097 48.096,48.097 h 16.032 c 13.281,0 24.048,10.767 24.048,24.048 v 334.431 c 70.961,-12.114 123.842,-75.78 119.629,-150.2 z"
     style="fill:#b67f5f" /><path
     inkscape:connector-curvature="0"
     id="path6"
     d="m 408.283,388.967 -82.792,-29.221 c -12.82,-4.525 -21.393,-16.642 -21.393,-30.237 v -41.443 h -96.193 v 41.443 c 0,13.595 -8.573,25.712 -21.393,30.237 l -82.792,29.221 c -19.229,6.787 -32.089,24.962 -32.089,45.354 v 70.18 h 368.74 v -70.18 c 0.001,-20.392 -12.859,-38.567 -32.088,-45.354 z"
     style="fill:#f7d291" /><path
     inkscape:connector-curvature="0"
     id="path8"
     d="m 408.283,388.967 -52.129,-18.398 c -18.48,36.618 -56.334,61.788 -100.153,61.788 -43.819,0 -81.673,-25.17 -100.153,-61.788 l -52.129,18.398 C 84.49,395.754 71.63,413.929 71.63,434.321 v 70.18 h 368.74 v -70.18 c 0.002,-20.392 -12.858,-38.567 -32.087,-45.354 z"
     style="fill:#ff8087" /><path
     inkscape:connector-curvature="0"
     id="path10"
     d="m 207.905,317.891 c 14.8,6.545 31.063,10.257 48.096,10.257 17.033,0 33.296,-3.712 48.097,-10.257 v -29.824 h -96.193 z"
     style="fill:#f0c382" /><path
     inkscape:connector-curvature="0"
     id="path12"
     d="m 372.235,167.826 h -9.16 c -6.009,0 -10.88,-4.871 -10.88,-10.881 v -5.151 c 0,-30.99 -25.123,-56.113 -56.113,-56.113 h -80.161 c -30.99,0 -56.113,25.123 -56.113,56.113 v 5.151 c 0,6.01 -4.871,10.881 -10.88,10.881 h -9.16 c -11.068,0 -20.04,8.972 -20.04,20.04 0,11.067 8.972,20.04 20.04,20.04 h 12.429 c 4.106,53.795 48.958,96.193 103.804,96.193 54.846,0 99.698,-42.398 103.804,-96.193 h 12.429 c 11.068,0 20.04,-8.973 20.04,-20.04 10e-4,-11.068 -8.971,-20.04 -20.039,-20.04 z"
     style="fill:#ffe1a0" /><path
     inkscape:connector-curvature="0"
     id="path14"
     d="m 219.93,223.936 c 0,17.709 16.15,32.064 36.072,32.064 19.922,0 36.072,-14.356 36.072,-32.064 z"
     style="fill:#ffffff" /><g
     id="g20"><path
       inkscape:connector-curvature="0"
       id="path16"
       d="m 202.877,29.199 c 16.976,5.285 30.466,14.75 37.902,25.199 1.911,2.685 0.735,6.464 -2.363,7.59 -12.054,4.381 -28.532,4.517 -45.508,-0.768 -16.976,-5.285 -30.466,-14.75 -37.902,-25.199 -1.911,-2.685 -0.735,-6.464 2.363,-7.59 12.053,-4.381 28.531,-4.517 45.508,0.768 z"
       style="fill:#ff8087" /><path
       inkscape:connector-curvature="0"
       id="path18-0"
       d="m 309.127,29.199 c -16.976,5.285 -30.466,14.75 -37.902,25.199 -1.911,2.685 -0.735,6.464 2.363,7.59 12.054,4.381 28.532,4.517 45.508,-0.768 16.976,-5.285 30.466,-14.75 37.902,-25.199 1.911,-2.685 0.735,-6.464 -2.363,-7.59 -12.054,-4.381 -28.532,-4.517 -45.508,0.768 z"
       style="fill:#ff8087" /></g><path
     inkscape:connector-curvature="0"
     id="path22-1"
     d="m 215.921,119.729 h 56.113 c 13.282,0 24.048,-10.767 24.048,-24.048 h -80.161 c -30.99,0 -56.113,25.123 -56.113,56.113 v 5.151 c 0,6.088 -4.986,10.821 -11.072,10.881 h -8.968 c -11.068,0 -20.04,8.972 -20.04,20.04 0,11.067 8.972,20.04 20.04,20.04 h 12.429 c 4.106,53.795 48.958,96.193 103.804,96.193 5.484,0 10.83,-0.534 16.083,-1.35 -49.946,-7.709 -88.228,-50.754 -88.228,-102.859 v -48.097 c 0.001,-17.709 14.356,-32.064 32.065,-32.064 z"
     style="fill:#f7d291" /><g
     id="g28"><circle
       id="circle24"
       r="16.030001"
       cy="55.599998"
       cx="256.00101"
       style="fill:#e6646e" /><path
       inkscape:connector-curvature="0"
       id="path26-7"
       d="m 130.909,379.371 c 23.136,45.665 70.399,77.033 125.093,77.033 54.694,0 101.957,-31.369 125.093,-77.033 l -24.941,-8.803 c -18.479,36.618 -56.334,61.788 -100.152,61.788 -43.818,0 -81.673,-25.17 -100.152,-61.788 z"
       style="fill:#e6646e" /></g><path
     inkscape:connector-curvature="0"
     id="path30"
     d="m 215.405,184.552 v -8.017 c 0,-4.143 -3.358,-7.5 -7.5,-7.5 -4.142,0 -7.5,3.357 -7.5,7.5 v 8.017 c 0,4.143 3.358,7.5 7.5,7.5 4.142,0 7.5,-3.357 7.5,-7.5 z" /><path
     inkscape:connector-curvature="0"
     id="path32-5"
     d="m 304.098,169.036 c -4.143,0 -7.5,3.357 -7.5,7.5 v 8.017 c 0,4.143 3.357,7.5 7.5,7.5 4.143,0 7.5,-3.357 7.5,-7.5 v -8.017 c 0,-4.143 -3.357,-7.5 -7.5,-7.5 z" /><path
     inkscape:connector-curvature="0"
     id="path34"
     d="m 410.779,381.892 -12.613,-4.452 c 18.817,-29.732 27.639,-63.936 25.551,-99.425 L 416.478,154.948 C 413.982,112.53 394.064,71.846 361.562,42.275 c 2.023,-2.564 3.754,-5.227 5.142,-7.967 1.833,-3.618 0.457,-8.038 -3.105,-9.977 -9.659,-5.255 -22.333,-7.28 -35.862,-5.99 C 304.993,6.193 279.842,-0.19 254.983,0.004 229.534,0.163 204.281,6.446 181.824,18.16 c -12.605,-0.836 -24.346,1.232 -33.42,6.171 -3.563,1.938 -4.938,6.358 -3.106,9.977 1.101,2.174 2.438,4.293 3.944,6.36 -31.587,28.173 -50.999,68.083 -53.49,110.434 l -7.465,126.913 c -2.089,35.504 6.733,69.698 25.552,99.425 l -12.614,4.452 c -22.187,7.831 -37.093,28.899 -37.093,52.427 v 70.183 c 0,4.143 3.358,7.5 7.5,7.5 4.142,0 7.5,-3.357 7.5,-7.5 v -70.183 c 0,-17.18 10.885,-32.564 27.085,-38.282 l 44.646,-15.758 c 4.235,8.209 9.678,15.886 16.266,22.868 1.476,1.563 3.463,2.353 5.456,2.353 1.846,0 3.697,-0.678 5.146,-2.045 3.013,-2.843 3.15,-7.59 0.307,-10.603 -5.127,-5.433 -9.44,-11.339 -12.886,-17.616 l 23.856,-8.42 c 15.789,-5.572 26.396,-20.565 26.396,-37.309 v -25.546 c 12.587,4.926 26.277,7.635 40.589,7.635 14.318,0 28.013,-2.711 40.604,-7.641 v 25.552 c 0,16.743 10.607,31.736 26.396,37.309 l 23.851,8.418 c -7.406,13.522 -18.727,25.138 -33.068,33.854 -16.972,10.314 -36.952,15.767 -57.782,15.767 -19.19,0 -37.844,-4.685 -53.946,-13.547 -3.63,-2 -8.189,-0.676 -10.187,2.954 -1.998,3.629 -0.675,8.189 2.954,10.187 18.312,10.079 39.467,15.406 61.179,15.406 23.578,0 46.253,-6.206 65.572,-17.948 17.358,-10.549 30.93,-24.87 39.565,-41.63 l 44.655,15.761 c 16.2,5.718 27.085,21.103 27.085,38.282 v 70.183 c 0,4.143 3.357,7.5 7.5,7.5 4.143,0 7.5,-3.357 7.5,-7.5 V 434.32 c 0.001,-23.529 -14.905,-44.597 -37.092,-52.428 z M 348.553,34.487 c -6.72,7.716 -17.522,14.392 -29.993,18.273 -12.469,3.883 -25.153,4.521 -35.065,1.98 6.72,-7.715 17.522,-14.391 29.993,-18.273 12.47,-3.882 25.155,-4.517 35.065,-1.98 z M 255.077,15.004 c 16.456,-0.121 33.015,2.957 48.786,8.931 -11.438,4.287 -21.396,10.516 -28.794,17.896 -4.279,-5.91 -11.229,-9.765 -19.067,-9.765 -7.838,0 -14.788,3.855 -19.067,9.765 -7.648,-7.629 -18.023,-14.04 -29.948,-18.334 15.374,-5.483 31.686,-8.39 48.09,-8.493 z m -7.608,40.594 c 0,-4.705 3.828,-8.532 8.532,-8.532 4.705,0 8.532,3.827 8.532,8.532 0,4.705 -3.827,8.532 -8.532,8.532 -4.704,0 -8.532,-3.827 -8.532,-8.532 z M 198.515,36.467 c 12.47,3.883 23.273,10.559 29.994,18.274 -9.914,2.537 -22.597,1.9 -35.066,-1.981 -12.469,-3.881 -23.273,-10.558 -29.993,-18.273 9.913,-2.536 22.596,-1.903 35.065,1.98 z m 113.083,293.04 v -32.759 c 29.239,-16.85 50.166,-46.559 55.022,-81.345 h 5.607 c 15.186,0 27.54,-12.354 27.54,-27.54 0,-15.187 -12.354,-27.541 -27.54,-27.541 h -4 c -4.705,0 -8.532,-3.827 -8.532,-8.532 0,-35.076 -28.537,-63.612 -63.613,-63.612 -4.143,0 -7.5,3.357 -7.5,7.5 0,4.143 3.357,7.5 7.5,7.5 26.806,0 48.613,21.808 48.613,48.613 0,12.976 10.557,23.531 23.532,23.531 h 4 c 6.915,0 12.54,5.626 12.54,12.541 0,6.915 -5.625,12.54 -12.54,12.54 h -4.531 c 10e-4,-0.173 0.007,-0.344 0.007,-0.517 0,-4.143 -3.357,-7.5 -7.5,-7.5 -4.143,0 -7.5,3.357 -7.5,7.5 0,53.325 -43.384,96.709 -96.709,96.709 -53.326,0 -96.709,-43.384 -96.709,-96.709 0,-4.143 -3.358,-7.5 -7.5,-7.5 -4.142,0 -7.5,3.357 -7.5,7.5 0,0.173 0.006,0.344 0.007,0.517 h -4.531 c -6.915,0 -12.54,-5.625 -12.54,-12.54 0,-6.915 5.625,-12.541 12.54,-12.541 h 4.016 c 12.976,0 23.532,-10.557 23.532,-23.532 0,-26.805 21.808,-48.612 48.612,-48.612 h 48.096 c 4.143,0 7.5,-3.357 7.5,-7.5 0,-4.143 -3.357,-7.5 -7.5,-7.5 h -48.096 c -35.076,0 -63.612,28.537 -63.612,63.613 0,4.704 -3.828,8.531 -8.532,8.531 h -4.016 c -15.186,0 -27.54,12.354 -27.54,27.541 0,15.186 12.354,27.54 27.54,27.54 h 5.607 c 4.856,34.792 25.79,64.505 55.037,81.354 v 32.75 c 0,10.396 -6.586,19.704 -16.389,23.164 l -55.631,19.635 C 109.973,344.58 101.291,312.38 103.261,278.896 l 7.465,-126.913 c 2.268,-38.553 20.003,-74.878 48.851,-100.437 7.972,6.598 18.088,12.013 29.407,15.537 8.982,2.797 18.016,4.183 26.515,4.183 7.402,0 14.381,-1.075 20.581,-3.163 4.169,6.618 11.538,11.028 19.921,11.028 8.383,0 15.752,-4.41 19.921,-11.028 6.2,2.088 13.178,3.163 20.581,3.163 8.499,0 17.534,-1.387 26.516,-4.183 10.588,-3.296 20.106,-8.259 27.819,-14.286 29.993,26.993 48.384,64.241 50.666,103.032 l 7.239,123.067 c 1.969,33.47 -6.712,65.681 -25.123,93.411 l -55.633,-19.635 c -9.803,-3.461 -16.389,-12.769 -16.389,-23.165 z" /><path
     inkscape:connector-curvature="0"
     id="path36"
     d="m 212.429,223.936 c 0,21.816 19.546,39.564 43.572,39.564 24.025,0 43.572,-17.748 43.572,-39.564 0,-4.143 -3.357,-7.5 -7.5,-7.5 h -72.145 c -4.141,0 -7.499,3.357 -7.499,7.5 z m 70.784,7.5 c -3.696,9.889 -14.497,17.064 -27.211,17.064 -12.714,0 -23.515,-7.176 -27.211,-17.064 z" /><path
     inkscape:connector-curvature="0"
     id="path38"
     d="m 217.74,155.062 c 4.019,-1.005 6.462,-5.077 5.457,-9.096 -1.004,-4.018 -5.079,-6.463 -9.095,-5.457 l -16.032,4.008 c -4.019,1.005 -6.462,5.077 -5.457,9.096 0.852,3.407 3.91,5.683 7.27,5.683 0.602,0 1.214,-0.073 1.825,-0.226 z" /><path
     inkscape:connector-curvature="0"
     id="path40"
     d="m 294.262,155.062 16.032,4.008 c 0.611,0.152 1.223,0.226 1.825,0.226 3.36,0 6.418,-2.275 7.271,-5.683 1.004,-4.019 -1.439,-8.091 -5.457,-9.096 l -16.032,-4.008 c -4.018,-0.999 -8.09,1.439 -9.096,5.457 -1.004,4.019 1.44,8.091 5.457,9.096 z" /></g><rect
   y="-104.38158"
   x="-28.555799"
   height="673.03345"
   width="469.31418"
   id="rect2447-0-9"
   style="display:inline;fill:none;fill-opacity:1;stroke:url(#linearGradient2459-6-2);stroke-width:25.31489563;stroke-miterlimit:4;stroke-dasharray:none;stroke-opacity:1" /><text
   id="text2485-9"
   y="522.54254"
   x="120.18182"
   style="font-style:normal;font-weight:normal;font-size:76.99105835px;line-height:1.25;font-family:sans-serif;letter-spacing:0px;word-spacing:0px;display:inline;fill:#000000;fill-opacity:1;stroke:none;stroke-width:1.9247762"
   xml:space="preserve"><tspan
     style="stroke-width:1.9247762"
     y="522.54254"
     x="120.18182"
     id="tspan2483-7"
     sodipodi:role="line">IRIS</tspan></text>








</g></svg>