<?xml version="1.0" encoding="UTF-8" standalone="no"?>
<!-- Generator: Adobe Illustrator 19.0.0, SVG Export Plug-In . SVG Version: 6.00 Build 0)  -->

<svg
   xmlns:osb="http://www.openswatchbook.org/uri/2009/osb"
   xmlns:dc="http://purl.org/dc/elements/1.1/"
   xmlns:cc="http://creativecommons.org/ns#"
   xmlns:rdf="http://www.w3.org/1999/02/22-rdf-syntax-ns#"
   xmlns:svg="http://www.w3.org/2000/svg"
   xmlns="http://www.w3.org/2000/svg"
   xmlns:xlink="http://www.w3.org/1999/xlink"
   xmlns:sodipodi="http://sodipodi.sourceforge.net/DTD/sodipodi-0.dtd"
   xmlns:inkscape="http://www.inkscape.org/namespaces/inkscape"
   version="1.1"
   id="Capa_1"
   x="0px"
   y="0px"
   viewBox="0 0 511.999 511.999"
   style="enable-background:new 0 0 511.999 511.999;"
   xml:space="preserve"
   sodipodi:docname="67.svg"
   inkscape:version="0.92.4 (5da689c313, 2019-01-14)"><metadata
   id="metadata95"><rdf:RDF><cc:Work
       rdf:about=""><dc:format>image/svg+xml</dc:format><dc:type
         rdf:resource="http://purl.org/dc/dcmitype/StillImage" /><dc:title></dc:title></cc:Work></rdf:RDF></metadata><defs
   id="defs93"><linearGradient
     id="linearGradient2457"
     osb:paint="solid"><stop
       style="stop-color:#000000;stop-opacity:1;"
       offset="0"
       id="stop2455" /></linearGradient><linearGradient
     inkscape:collect="always"
     xlink:href="#linearGradient2457"
     id="linearGradient2459-6-2"
     x1="1442.3572"
     y1="-339.5119"
     x2="1514.9286"
     y2="-339.5119"
     gradientUnits="userSpaceOnUse"
     gradientTransform="matrix(6.4669274,0,0,9.6773016,-9356.1743,3517.6929)" /><pattern
     y="0"
     x="0"
     height="6"
     width="6"
     patternUnits="userSpaceOnUse"
     id="EMFhbasepattern" /></defs><sodipodi:namedview
   pagecolor="#ffffff"
   bordercolor="#666666"
   borderopacity="1"
   objecttolerance="10"
   gridtolerance="10"
   guidetolerance="10"
   inkscape:pageopacity="0"
   inkscape:pageshadow="2"
   inkscape:window-width="1920"
   inkscape:window-height="986"
   id="namedview91"
   showgrid="false"
   inkscape:zoom="1.3037307"
   inkscape:cx="55.636868"
   inkscape:cy="256.72862"
   inkscape:window-x="-11"
   inkscape:window-y="-11"
   inkscape:window-maximized="1"
   inkscape:current-layer="g1046" />























<g
   id="g60">
</g>
<g
   id="g62">
</g>
<g
   id="g64">
</g>
<g
   id="g66">
</g>
<g
   id="g68">
</g>
<g
   id="g70">
</g>
<g
   id="g72">
</g>
<g
   id="g74">
</g>
<g
   id="g76">
</g>
<g
   id="g78">
</g>
<g
   id="g80">
</g>
<g
   id="g82">
</g>
<g
   id="g84">
</g>
<g
   id="g86">
</g>
<g
   id="g88">
</g>
<g
   id="g1046"
   transform="matrix(0.55886315,0,0,0.55886315,157.54779,132.77619)"><g
   transform="matrix(0.92618434,0,0,0.92618434,-31.001901,-38.907358)"
   id="g919"><path
     inkscape:connector-curvature="0"
     id="path2-3"
     d="M 413.861,374.102 329.375,349.253 C 319.14,346.243 312.112,336.85 312.112,326.182 V 288.063 H 199.887 v 38.119 c 0,10.668 -7.028,20.061 -17.263,23.071 l -84.486,24.849 c -20.469,6.02 -34.525,24.806 -34.525,46.142 v 84.254 h 384.773 v -84.254 c 10e-4,-21.335 -14.056,-40.121 -34.525,-46.142 z"
     style="fill:#f7d291" /><path
     inkscape:connector-curvature="0"
     id="path4"
     d="m 199.887,313.968 c 16.841,8.996 35.939,14.176 56.113,14.176 20.174,0 39.272,-5.18 56.113,-14.176 V 288.063 H 199.887 Z"
     style="fill:#f0c382" /><path
     inkscape:connector-curvature="0"
     id="path6"
     d="M 372.234,167.822 H 360.21 V 79.645 H 151.791 v 88.177 h -12.024 c -11.068,0 -20.04,8.972 -20.04,20.04 0,11.068 8.972,20.04 20.04,20.04 h 12.429 c 4.106,53.795 48.958,96.193 103.804,96.193 54.846,0 99.698,-42.398 103.804,-96.193 h 12.429 c 11.068,0 20.04,-8.973 20.04,-20.04 10e-4,-11.068 -8.971,-20.04 -20.039,-20.04 z"
     style="fill:#ffe1a0" /><path
     inkscape:connector-curvature="0"
     id="path8"
     d="m 151.791,79.645 v 88.177 h -12.024 c -11.068,0 -20.04,8.972 -20.04,20.04 0,11.068 8.972,20.04 20.04,20.04 h 12.429 c 4.106,53.795 48.958,96.193 103.804,96.193 5.484,0 10.83,-0.534 16.083,-1.351 -49.946,-7.708 -88.228,-50.754 -88.228,-102.859 v -40.081 c 0,-17.709 14.355,-32.064 32.064,-32.064 h 96.193 c 8.854,0 16.032,-7.178 16.032,-16.032 V 79.645 Z"
     style="fill:#f7d291" /><path
     inkscape:connector-curvature="0"
     id="path10"
     d="M 392.192,44.986 C 390.842,23.592 371.921,7.5 350.485,7.5 H 198.604 c -37.94,0 -67.586,32.758 -63.81,70.51 l 8.981,89.812 h 8.015 c 8.854,0 16.032,-7.178 16.032,-16.032 l 0.001,-40.081 h 176.354 l -0.001,40.08 c 0,8.854 7.178,16.033 16.032,16.033 h 8.017 l 6.671,-86.716 -0.537,-0.159 c 11.455,-7.624 18.779,-20.962 17.833,-35.961 z"
     style="fill:#b67f5f" /><path
     inkscape:connector-curvature="0"
     id="path12"
     d="m 231.952,7.5 h -33.348 c -37.94,0 -67.586,32.758 -63.81,70.51 l 8.981,89.812 h 8.015 c 8.854,0 16.032,-7.178 16.032,-16.032 l 0.001,-40.081 V 71.629 C 167.823,36.212 196.534,7.5 231.952,7.5 Z"
     style="fill:#a06e50" /><g
     id="g18"><path
       inkscape:connector-curvature="0"
       id="path14"
       d="m 175.839,368.225 v -16.976 l -40.081,11.788 V 504.498 H 376.241 V 363.038 L 336.16,351.25 v 16.976 c 0,44.272 -35.89,80.161 -80.161,80.161 -44.271,0 -80.16,-35.891 -80.16,-80.162 z"
       style="fill:#a5cdff" /><path
       inkscape:connector-curvature="0"
       id="path16"
       d="m 372.542,111.709 2.354,-30.603 -0.537,-0.159 c 3.781,-2.517 7.053,-5.703 9.785,-9.319 H 134.499 c 0.003,2.109 0.079,4.234 0.294,6.381 l 3.37,33.7 h 29.66 176.354 z"
       style="fill:#a5cdff" /></g><path
     inkscape:connector-curvature="0"
     id="path20-3"
     d="m 296.081,103.693 c 9.653,0 18.39,-3.553 25.309,-9.237 8.845,5.825 19.421,9.237 30.804,9.237 7.54,0 14.721,-1.51 21.289,-4.207 l 1.414,-18.38 -0.537,-0.159 c 3.781,-2.517 7.053,-5.703 9.785,-9.319 H 256.808 c 3.714,18.295 19.882,32.065 39.273,32.065 z"
     style="fill:#8cb4eb" /><path
     inkscape:connector-curvature="0"
     id="path22-3"
     d="m 256.782,71.629 v 0 H 280.83 V 55.597 h -8.016 c -8.854,0 -16.032,7.178 -16.032,16.032 z"
     style="fill:#a06e50" /><g
     id="g28"><circle
       id="circle24"
       r="40.080002"
       cy="47.581001"
       cx="352.19"
       style="fill:#b67f5f" /><circle
       id="circle26"
       r="24.049999"
       cy="63.610001"
       cx="296.07999"
       style="fill:#b67f5f" /></g><path
     inkscape:connector-curvature="0"
     id="path30"
     d="m 134.499,71.629 c 0.003,2.109 0.079,4.234 0.294,6.381 l 3.37,33.7 h 29.66 V 71.629 Z"
     style="fill:#8cb4eb" /><g
     id="g36"><path
       inkscape:connector-curvature="0"
       id="path32-6"
       d="m 135.758,448.386 v 0 56.113 H 111.71 v -32.064 c 0,-13.282 10.767,-24.049 24.048,-24.049 z"
       style="fill:#f0c382" /><path
       inkscape:connector-curvature="0"
       id="path34"
       d="m 376.242,448.386 v 0 56.113 h 24.048 v -32.064 c 0,-13.282 -10.767,-24.049 -24.048,-24.049 z"
       style="fill:#f0c382" /></g><path
     inkscape:connector-curvature="0"
     id="path38"
     d="m 336.161,351.249 v 16.976 c 0,44.272 -35.89,80.161 -80.161,80.161 -44.271,0 -80.161,-35.889 -80.161,-80.161 v -16.976 l -24.048,7.073 v 9.903 c 0,57.553 46.656,104.209 104.209,104.209 57.553,0 104.209,-46.656 104.209,-104.209 v -9.903 z"
     style="fill:#8cb4eb" /><path
     inkscape:connector-curvature="0"
     id="path40"
     d="m 207.903,168.338 c -4.142,0 -7.5,3.358 -7.5,7.5 v 8.016 c 0,4.142 3.358,7.5 7.5,7.5 4.142,0 7.5,-3.358 7.5,-7.5 v -8.016 c 0,-4.142 -3.358,-7.5 -7.5,-7.5 z" /><path
     inkscape:connector-curvature="0"
     id="path42"
     d="m 304.097,168.338 c -4.142,0 -7.5,3.358 -7.5,7.5 v 8.016 c 0,4.142 3.358,7.5 7.5,7.5 4.142,0 7.5,-3.358 7.5,-7.5 v -8.016 c 0,-4.142 -3.358,-7.5 -7.5,-7.5 z" /><path
     inkscape:connector-curvature="0"
     id="path44"
     d="m 274.781,226.612 c -2.737,2.701 -9.299,5.855 -18.781,5.855 -9.482,0 -16.043,-3.154 -18.781,-5.855 -2.95,-2.91 -7.698,-2.876 -10.606,0.071 -2.909,2.949 -2.877,7.698 0.071,10.606 6.459,6.373 17.418,10.177 29.316,10.177 11.898,0 22.856,-3.805 29.316,-10.177 2.948,-2.909 2.98,-7.658 0.071,-10.606 -2.908,-2.948 -7.658,-2.98 -10.606,-0.071 z" /><path
     inkscape:connector-curvature="0"
     id="path46"
     d="m 415.978,366.907 -84.486,-24.849 c -6.994,-2.057 -11.879,-8.585 -11.879,-15.876 v -34.527 c 25.013,-17.396 42.617,-44.741 47.019,-76.253 h 4.459 c 14.617,0 27.154,-10.861 28.542,-24.727 0.778,-7.771 -1.764,-15.531 -6.975,-21.288 -4.294,-4.746 -10.102,-7.819 -16.357,-8.757 l 5.856,-76.125 C 392.897,75.774 399.774,62.467 399.774,47.579 399.774,21.345 378.429,0 352.193,0 H 198.604 c -20.199,0 -39.557,8.589 -53.11,23.565 -13.553,14.977 -20.173,35.093 -18.164,55.19 l 8.206,82.062 c -12.207,2.271 -21.954,12.101 -23.169,24.23 -0.778,7.771 1.764,15.53 6.974,21.289 5.214,5.762 12.659,9.066 20.425,9.066 h 5.598 c 4.399,31.522 22.003,58.87 47.023,76.264 v 34.516 c 0,7.291 -4.885,13.819 -11.879,15.876 l -84.486,24.849 c -23.498,6.912 -39.909,28.844 -39.909,53.337 v 84.254 c 0,4.142 3.358,7.5 7.5,7.5 4.142,0 7.5,-3.358 7.5,-7.5 v -84.254 c 0,-17.885 11.983,-33.9 29.142,-38.947 l 28.003,-8.236 v 131.437 c 0,4.142 3.358,7.5 7.5,7.5 4.142,0 7.5,-3.358 7.5,-7.5 V 368.65 l 25.081,-7.377 v 6.952 c 0,48.336 39.325,87.661 87.661,87.661 15.411,0 30.571,-4.058 43.84,-11.735 3.585,-2.074 4.81,-6.662 2.736,-10.248 -2.075,-3.586 -6.663,-4.809 -10.248,-2.736 -10.989,6.358 -23.551,9.718 -36.328,9.718 -40.065,0 -72.661,-32.596 -72.661,-72.661 V 356.86 l 1.402,-0.412 c 13.334,-3.922 22.646,-16.368 22.646,-30.267 V 300.45 c 14.705,7.137 31.199,11.146 48.613,11.146 17.412,0 33.906,-4.012 48.613,-11.153 v 25.74 c 0,13.898 9.313,26.345 22.646,30.267 l 1.402,0.412 v 11.364 c 0,15.87 -5.022,30.945 -14.525,43.595 -2.488,3.312 -1.82,8.013 1.492,10.501 1.35,1.014 2.931,1.504 4.499,1.504 2.278,0 4.529,-1.034 6.002,-2.996 11.469,-15.268 17.532,-33.458 17.532,-52.604 v -6.952 l 25.079,7.376 V 504.5 c 0,4.142 3.358,7.5 7.5,7.5 4.142,0 7.5,-3.358 7.5,-7.5 V 373.061 l 28.005,8.237 c 17.158,5.046 29.142,21.062 29.142,38.947 v 84.254 c 0,4.142 3.358,7.5 7.5,7.5 4.142,0 7.5,-3.358 7.5,-7.5 v -84.254 c 0,-24.494 -16.411,-46.426 -39.909,-53.338 z M 360.209,160.322 c -4.705,0 -8.532,-3.828 -8.532,-8.532 v -32.581 h 12.766 l -3.163,41.113 z M 156.616,33.631 C 167.331,21.791 182.635,15 198.604,15 h 153.589 c 17.965,0 32.581,14.616 32.581,32.581 0,17.965 -14.616,32.581 -32.581,32.581 -12.973,0 -24.704,-7.687 -29.887,-19.583 -1.654,-3.798 -6.074,-5.534 -9.872,-3.88 -3.797,1.655 -5.535,6.074 -3.88,9.872 0.681,1.564 1.443,3.076 2.274,4.537 -2.792,5.488 -8.472,9.054 -14.748,9.054 -9.125,0 -16.548,-7.423 -16.548,-16.548 0,-4.079 1.496,-7.996 4.212,-11.031 2.763,-3.087 2.5,-7.828 -0.586,-10.59 -3.088,-2.763 -7.829,-2.5 -10.59,0.586 -5.182,5.79 -8.036,13.26 -8.036,21.035 0,17.396 14.152,31.548 31.548,31.548 9.762,0 18.765,-4.534 24.646,-11.884 8.526,7.511 19.643,11.884 31.467,11.884 4.969,0 9.761,-0.769 14.268,-2.188 l -0.864,11.237 H 144.951 L 142.443,79.13 h 97.525 c 4.142,0 7.5,-3.358 7.5,-7.5 0,-4.142 -3.358,-7.5 -7.5,-7.5 h -97.469 c 1.512,-11.262 6.374,-21.943 14.117,-30.499 z m -6.054,126.691 -4.111,-41.113 h 13.872 v 32.581 c 0,4.705 -3.828,8.532 -8.532,8.532 z m 8.729,39.565 c 0,-4.142 -3.358,-7.5 -7.5,-7.5 -4.142,0 -7.5,3.358 -7.5,7.5 v 0.516 h -4.524 c -3.537,0 -6.927,-1.506 -9.303,-4.131 -2.407,-2.66 -3.533,-6.115 -3.171,-9.729 0.63,-6.292 6.611,-11.22 13.617,-11.22 h 10.88 c 12.976,0 23.532,-10.557 23.532,-23.532 V 119.21 h 161.354 v 32.581 c 0,12.976 10.557,23.532 23.532,23.532 h 12.024 c 3.537,0 6.928,1.505 9.303,4.13 2.407,2.66 3.533,6.115 3.171,9.729 -0.629,6.292 -6.61,11.221 -13.616,11.221 h -3.385 v -0.439 c 0,-4.141 -3.356,-7.499 -7.497,-7.5 0,0 -0.002,0 -0.003,0 -4.14,0 -7.497,3.354 -7.5,7.495 -0.039,53.286 -43.421,96.638 -96.706,96.638 -53.325,-10e-4 -96.708,-43.385 -96.708,-96.71 z" /><path
     inkscape:connector-curvature="0"
     id="path48"
     d="m 215.919,144.29 h -16.032 c -4.142,0 -7.5,3.358 -7.5,7.5 0,4.142 3.358,7.5 7.5,7.5 h 16.032 c 4.142,0 7.5,-3.358 7.5,-7.5 0,-4.142 -3.357,-7.5 -7.5,-7.5 z" /><path
     inkscape:connector-curvature="0"
     id="path50"
     d="m 312.113,144.29 h -16.032 c -4.142,0 -7.5,3.358 -7.5,7.5 0,4.142 3.358,7.5 7.5,7.5 h 16.032 c 4.142,0 7.5,-3.358 7.5,-7.5 0,-4.142 -3.358,-7.5 -7.5,-7.5 z" /></g><rect
   y="-104.38158"
   x="-28.555799"
   height="673.03345"
   width="469.31418"
   id="rect2447-0-9"
   style="display:inline;fill:none;fill-opacity:1;stroke:url(#linearGradient2459-6-2);stroke-width:25.31489563;stroke-miterlimit:4;stroke-dasharray:none;stroke-opacity:1" /><text
   id="text2485-9"
   y="522.54254"
   x="107.08056"
   style="font-style:normal;font-weight:normal;font-size:76.99105835px;line-height:1.25;font-family:sans-serif;letter-spacing:0px;word-spacing:0px;display:inline;fill:#000000;fill-opacity:1;stroke:none;stroke-width:1.9247762"
   xml:space="preserve"><tspan
     style="stroke-width:1.9247762"
     y="522.54254"
     x="107.08056"
     id="tspan2483-7"
     sodipodi:role="line">AXEL</tspan></text>








</g></svg>