<?xml version="1.0" encoding="UTF-8" standalone="no"?>
<!-- Generator: Adobe Illustrator 19.0.0, SVG Export Plug-In . SVG Version: 6.00 Build 0)  -->

<svg
   xmlns:osb="http://www.openswatchbook.org/uri/2009/osb"
   xmlns:dc="http://purl.org/dc/elements/1.1/"
   xmlns:cc="http://creativecommons.org/ns#"
   xmlns:rdf="http://www.w3.org/1999/02/22-rdf-syntax-ns#"
   xmlns:svg="http://www.w3.org/2000/svg"
   xmlns="http://www.w3.org/2000/svg"
   xmlns:xlink="http://www.w3.org/1999/xlink"
   xmlns:sodipodi="http://sodipodi.sourceforge.net/DTD/sodipodi-0.dtd"
   xmlns:inkscape="http://www.inkscape.org/namespaces/inkscape"
   version="1.1"
   id="Capa_1"
   x="0px"
   y="0px"
   viewBox="0 0 511.999 511.999"
   style="enable-background:new 0 0 511.999 511.999;"
   xml:space="preserve"
   sodipodi:docname="69.svg"
   inkscape:version="0.92.4 (5da689c313, 2019-01-14)"><metadata
   id="metadata95"><rdf:RDF><cc:Work
       rdf:about=""><dc:format>image/svg+xml</dc:format><dc:type
         rdf:resource="http://purl.org/dc/dcmitype/StillImage" /><dc:title></dc:title></cc:Work></rdf:RDF></metadata><defs
   id="defs93"><linearGradient
     id="linearGradient2457"
     osb:paint="solid"><stop
       style="stop-color:#000000;stop-opacity:1;"
       offset="0"
       id="stop2455" /></linearGradient><linearGradient
     inkscape:collect="always"
     xlink:href="#linearGradient2457"
     id="linearGradient2459-6-2"
     x1="1442.3572"
     y1="-339.5119"
     x2="1514.9286"
     y2="-339.5119"
     gradientUnits="userSpaceOnUse"
     gradientTransform="matrix(6.4669274,0,0,9.6773016,-9356.1743,3517.6929)" /><pattern
     y="0"
     x="0"
     height="6"
     width="6"
     patternUnits="userSpaceOnUse"
     id="EMFhbasepattern" /></defs><sodipodi:namedview
   pagecolor="#ffffff"
   bordercolor="#666666"
   borderopacity="1"
   objecttolerance="10"
   gridtolerance="10"
   guidetolerance="10"
   inkscape:pageopacity="0"
   inkscape:pageshadow="2"
   inkscape:window-width="1920"
   inkscape:window-height="986"
   id="namedview91"
   showgrid="false"
   inkscape:zoom="1.3037307"
   inkscape:cx="55.636868"
   inkscape:cy="256.72862"
   inkscape:window-x="-11"
   inkscape:window-y="-11"
   inkscape:window-maximized="1"
   inkscape:current-layer="g1046" />























<g
   id="g60">
</g>
<g
   id="g62">
</g>
<g
   id="g64">
</g>
<g
   id="g66">
</g>
<g
   id="g68">
</g>
<g
   id="g70">
</g>
<g
   id="g72">
</g>
<g
   id="g74">
</g>
<g
   id="g76">
</g>
<g
   id="g78">
</g>
<g
   id="g80">
</g>
<g
   id="g82">
</g>
<g
   id="g84">
</g>
<g
   id="g86">
</g>
<g
   id="g88">
</g>
<g
   id="g1046"
   transform="matrix(0.55886315,0,0,0.55886315,157.54779,132.77619)"><g
   transform="matrix(0.95930451,0,0,0.95930451,-39.480665,-55.533122)"
   id="g904"><g
     id="g8"><path
       inkscape:connector-curvature="0"
       id="path2-7"
       d="m 167.941,167.598 c -0.271,0 -0.533,0.037 -0.803,0.041 -4.135,-20.472 -23.881,-35.286 -46.287,-31.455 -15.79,2.7 -28.809,15.159 -32.067,30.843 -3.577,17.221 3.926,32.995 16.675,41.644 4.486,3.043 6.572,8.403 6.459,13.823 -0.115,5.541 0.603,11.289 2.366,17.164 6.173,20.571 23.994,36.307 45.248,39.397 34.679,5.042 64.443,-21.714 64.443,-55.422 0,-30.948 -25.087,-56.035 -56.034,-56.035 z"
       style="fill:#8c5f4b" /><path
       inkscape:connector-curvature="0"
       id="path4"
       d="m 344.049,167.598 c 0.271,0 0.533,0.037 0.803,0.041 4.135,-20.472 23.881,-35.286 46.287,-31.455 15.79,2.7 28.809,15.159 32.067,30.843 3.577,17.221 -3.926,32.995 -16.675,41.644 -4.486,3.043 -6.572,8.403 -6.459,13.823 0.115,5.541 -0.603,11.289 -2.366,17.164 -6.173,20.571 -23.994,36.307 -45.248,39.397 -34.679,5.042 -64.443,-21.714 -64.443,-55.422 -10e-4,-30.948 25.087,-56.035 56.034,-56.035 z"
       style="fill:#8c5f4b" /><path
       inkscape:connector-curvature="0"
       id="path6"
       d="m 255.995,7.5 v 0 C 189.68,7.5 135.921,61.259 135.921,127.573 v 48.03 h 240.147 v -48.03 C 376.068,61.259 322.31,7.5 255.995,7.5 Z"
       style="fill:#8c5f4b" /></g><path
     inkscape:connector-curvature="0"
     id="path10"
     d="m 408.064,364.416 -82.676,-29.18 c -12.802,-4.518 -21.363,-16.619 -21.363,-30.194 v -49.39 h -96.059 v 49.39 c 0,13.576 -8.561,25.676 -21.363,30.194 l -82.677,29.18 c -19.203,6.777 -32.044,24.927 -32.044,45.291 v 94.097 h 368.226 v -94.097 c 0,-20.363 -12.842,-38.514 -32.044,-45.291 z"
     style="fill:#e3aa75" /><path
     inkscape:connector-curvature="0"
     id="path12"
     d="m 408.064,364.416 -82.676,-29.18 c -5.304,-1.872 -9.818,-5.095 -13.358,-9.135 v 11.086 c 0,32.873 -25.332,61.54 -58.19,62.526 -34,1.02 -61.883,-26.238 -61.883,-60.009 v -6.996 c -1.694,0.98 -3.46,1.86 -5.353,2.528 l -82.677,29.18 c -19.203,6.777 -32.044,24.927 -32.044,45.291 v 94.097 h 368.226 v -94.097 c -10e-4,-20.363 -12.843,-38.513 -32.045,-45.291 z"
     style="fill:#b4f09b" /><path
     inkscape:connector-curvature="0"
     id="path14"
     d="m 156.098,413.94 c 8.757,20.996 29.073,34.562 51.758,34.562 4.575,0 9.155,-0.565 13.614,-1.679 l 34.525,-8.632 34.524,8.631 c 4.46,1.115 9.04,1.68 13.615,1.68 22.685,0 43.001,-13.566 51.758,-34.562 8.224,-19.715 12.697,-41.316 13.308,-63.24 l -43.813,-15.463 c -5.303,-1.872 -9.817,-5.095 -13.358,-9.135 v 11.086 c 0,32.873 -25.332,61.54 -58.19,62.526 -34.001,1.02 -61.884,-26.238 -61.884,-60.009 v -6.996 c -1.694,0.98 -3.459,1.86 -5.353,2.528 L 142.79,350.7 c 0.61,21.925 5.085,43.525 13.308,63.24 z"
     style="fill:#9bdc9b" /><path
     inkscape:connector-curvature="0"
     id="path16"
     d="m 207.965,309.785 c 14.732,6.382 30.977,9.906 48.029,9.906 17.052,0 33.297,-3.524 48.029,-9.906 v -38.123 h -96.059 v 38.123 z"
     style="fill:#d29b6e" /><path
     inkscape:connector-curvature="0"
     id="path18-9"
     d="m 372.066,159.593 h -8.005 c 0,0 -10.719,-1.291 -13.999,-2.199 -18.187,-5.036 -57.561,-20.76 -87.388,-66.731 -3.143,-4.844 -10.217,-4.844 -13.36,0 -29.827,45.972 -69.201,61.696 -87.388,66.731 -3.279,0.908 -13.999,2.199 -13.999,2.199 h -8.005 c -11.053,0 -20.012,8.96 -20.012,20.012 0,11.052 8.96,20.012 20.012,20.012 h 12.412 c 4.1,53.72 48.889,96.059 103.659,96.059 54.77,0 99.559,-42.339 103.659,-96.059 h 12.412 c 11.053,0 20.012,-8.96 20.012,-20.012 0.002,-11.052 -8.957,-20.012 -20.01,-20.012 z"
     style="fill:#f5b97d" /><path
     inkscape:connector-curvature="0"
     id="path20-7"
     d="m 304.016,311.686 30.273,10.294 c 6.133,2.138 10.379,7.802 10.761,14.285 1.708,28.959 -4.61,52.334 -11.323,68.429 -6.118,14.67 -21.963,22.684 -37.383,18.829 l -40.349,-10.088 -40.349,10.088 c -15.421,3.855 -31.265,-4.159 -37.383,-18.829 -6.713,-16.095 -13.031,-39.47 -11.323,-68.429 0.382,-6.483 4.628,-12.147 10.761,-14.285 l 30.273,-10.294 -0.008,-0.258 v 24.015 c 0,26.526 21.503,48.029 48.029,48.029 26.526,0 48.029,-21.504 48.029,-48.029 v -24.015"
     style="fill:#ffe17d" /><g
     id="g26"><polygon
       id="polygon22"
       points="304.024,311.429 304.016,311.686 304.024,311.689 "
       style="fill:#ffd164" /><polygon
       id="polygon24"
       points="207.973,311.686 207.965,311.429 207.965,311.689 "
       style="fill:#ffd164" /></g><path
     inkscape:connector-curvature="0"
     id="path28"
     d="m 255.993,125.609 c 15.736,17.015 40.1,38.573 70.264,49.995 12.446,4.712 25.796,-4.45 25.796,-17.758 v -0.013 c -0.783,-0.15 -1.491,-0.299 -1.991,-0.437 -18.182,-5.034 -57.54,-20.752 -87.364,-66.696 -3.15,-4.852 -10.246,-4.87 -13.396,-0.017 -21.077,32.476 -46.858,49.793 -66.607,58.96 -1.333,0.619 -12.113,4.982 -13.361,5.412 -2.709,0.935 -5.247,1.743 -7.408,2.341 -3.279,0.908 -13.999,2.199 -13.999,2.199 h -6.863 c -10.468,0 -20.007,7.532 -21.05,17.948 -1.2,11.979 8.175,22.077 19.909,22.077 h 12.412 c 4.1,53.72 48.889,96.059 103.659,96.059 5.458,0 10.778,-0.547 16.01,-1.357 -45.704,-7.077 -81.615,-43.786 -87.276,-89.926 -0.163,-1.328 -0.323,-3.262 -0.47,-5.568 -0.798,-12.567 5.869,-24.509 17.043,-30.315 23.001,-11.952 41.77,-28.933 54.692,-42.904 z"
     style="fill:#e3aa75" /><path
     inkscape:connector-curvature="0"
     id="path30"
     d="m 282.368,10.498 c -1.882,-0.395 -3.765,-0.781 -5.675,-1.093 -0.696,-0.121 -1.4,-0.212 -2.1,-0.321 -1.623,7.23 -2.589,14.706 -2.589,22.43 0,57.473 46.591,104.064 104.064,104.064 v -8.005 c 0,-57.242 -40.089,-105.043 -93.7,-117.075 z"
     style="fill:#a06e50" /><path
     inkscape:connector-curvature="0"
     id="path32"
     d="m 207.969,160.794 c -4.142,0 -7.5,3.358 -7.5,7.5 v 8.005 c 0,4.142 3.358,7.5 7.5,7.5 4.142,0 7.5,-3.358 7.5,-7.5 v -8.005 c 0,-4.142 -3.357,-7.5 -7.5,-7.5 z" /><path
     inkscape:connector-curvature="0"
     id="path34"
     d="m 304.028,160.794 c -4.143,0 -7.5,3.358 -7.5,7.5 v 8.005 c 0,4.142 3.357,7.5 7.5,7.5 4.143,0 7.5,-3.358 7.5,-7.5 v -8.005 c 0,-4.142 -3.357,-7.5 -7.5,-7.5 z" /><path
     inkscape:connector-curvature="0"
     id="path36"
     d="m 274.746,218.99 c -2.732,2.695 -9.281,5.843 -18.747,5.843 -9.466,0 -16.015,-3.148 -18.747,-5.844 -2.95,-2.91 -7.698,-2.877 -10.606,0.071 -2.909,2.949 -2.877,7.697 0.071,10.606 6.452,6.366 17.398,10.166 29.282,10.166 11.885,0 22.831,-3.8 29.282,-10.167 2.948,-2.909 2.98,-7.658 0.071,-10.606 -2.912,-2.948 -7.66,-2.977 -10.606,-0.069 z" /><path
     inkscape:connector-curvature="0"
     id="path38"
     d="m 410.563,357.782 -57.967,-20.459 c -0.025,-0.502 -0.033,-0.992 -0.062,-1.498 -0.563,-9.567 -6.757,-17.781 -15.833,-20.945 l -25.188,-8.565 v -17.96 c 3.754,-2.163 7.369,-4.541 10.832,-7.112 8.096,3.935 16.84,5.936 25.832,5.936 3.678,0 7.398,-0.335 11.13,-1.009 20.928,-3.78 38.771,-19.409 45.458,-39.817 2.601,-7.937 3.536,-16.06 2.782,-24.144 -0.275,-2.95 1.067,-5.813 3.502,-7.471 16.023,-10.91 23.613,-29.601 19.809,-48.778 -3.755,-18.922 -19.079,-33.851 -38.133,-37.15 -3.055,-0.529 -6.118,-0.762 -9.16,-0.717 v -0.519 C 383.564,57.229 326.335,0 255.991,0 185.647,0 128.417,57.229 128.417,127.574 v 0.517 c -2.97,-0.031 -5.958,0.202 -8.939,0.719 -19.055,3.299 -34.379,18.229 -38.133,37.15 -3.805,19.178 3.785,37.869 19.809,48.778 2.435,1.658 3.776,4.52 3.501,7.47 -0.753,8.087 0.183,16.21 2.783,24.144 6.688,20.408 24.53,36.037 45.458,39.817 3.725,0.673 7.437,1.007 11.112,1.007 8.94,0 17.648,-1.984 25.711,-5.874 3.439,2.548 7.026,4.906 10.751,7.052 v 17.96 l -25.243,8.584 c -9.021,3.146 -15.215,11.359 -15.779,20.926 -0.03,0.508 -0.037,1 -0.063,1.504 l -57.951,20.454 c -22.16,7.821 -37.048,28.864 -37.048,52.363 V 504.5 c 0,4.142 3.358,7.5 7.5,7.5 4.142,0 7.5,-3.358 7.5,-7.5 v -94.354 c 0,-4.979 0.921,-9.804 2.617,-14.289 l 37.86,32.452 c 5.441,4.664 8.563,11.45 8.563,18.617 V 504.5 c 0,4.142 3.358,7.5 7.5,7.5 4.142,0 7.5,-3.358 7.5,-7.5 v -57.575 c 0,-11.552 -5.03,-22.488 -13.801,-30.005 l -39.69,-34.021 c 4.414,-4.864 10.028,-8.691 16.493,-10.973 l 52.91,-18.674 c 1.06,23.192 6.802,41.868 12,54.33 7.604,18.234 27.003,27.999 46.124,23.217 l 31.031,-7.757 v 24.73 c 0,4.142 3.358,7.5 7.5,7.5 4.143,0 7.5,-3.358 7.5,-7.5 v -24.73 l 31.03,7.757 c 3.259,0.815 6.524,1.207 9.739,1.207 15.65,0 30.076,-9.298 36.385,-24.424 5.198,-12.461 10.941,-31.139 12,-54.336 l 52.925,18.68 c 6.465,2.282 12.079,6.109 16.493,10.973 l -39.691,34.021 c -8.771,7.518 -13.801,18.454 -13.801,30.005 V 504.5 c 0,4.142 3.357,7.5 7.5,7.5 4.143,0 7.5,-3.358 7.5,-7.5 v -57.575 c 0,-7.167 3.121,-13.952 8.563,-18.617 l 37.861,-32.452 c 1.695,4.484 2.617,9.31 2.617,14.289 V 504.5 c 0,4.142 3.357,7.5 7.5,7.5 4.143,0 7.5,-3.358 7.5,-7.5 v -94.354 c -0.002,-23.5 -14.891,-44.543 -37.051,-52.364 z M 390.166,143.589 c 12.78,2.212 23.463,12.612 25.979,25.289 2.613,13.174 -2.573,25.995 -13.537,33.46 -6.947,4.73 -10.777,12.876 -9.996,21.262 0.563,6.026 -0.145,12.109 -2.101,18.081 -4.995,15.244 -18.29,26.913 -33.87,29.727 -7.393,1.334 -14.697,0.908 -21.538,-1.212 16.603,-16.713 27.957,-38.641 31.37,-63.079 h 5.59 c 15.17,0 27.512,-12.342 27.512,-27.512 0,-11.065 -6.57,-20.619 -16.01,-24.983 v -11.51 c 2.185,-0.047 4.391,0.095 6.601,0.477 z M 255.991,15 c 62.073,0 112.573,50.5 112.573,112.574 v 24.519 c -0.185,0 -0.47,-0.002 -0.505,-0.002 -7.238,0 -14.659,-1.027 -22.055,-3.054 -4.006,-1.095 -8.121,1.258 -9.216,5.251 -1.095,3.995 1.257,8.121 5.251,9.215 8.688,2.38 17.441,3.587 26.02,3.587 v -0.028 c 0.943,0.031 2.209,0.031 4.003,0.031 6.899,0 12.512,5.613 12.512,12.512 0,6.899 -5.612,12.512 -12.512,12.512 h -4.514 c 10e-4,-0.169 0.006,-0.336 0.006,-0.505 0,-4.142 -3.357,-7.5 -7.5,-7.5 -4.143,0 -7.5,3.358 -7.5,7.5 0,53.246 -43.318,96.564 -96.563,96.564 -53.246,0 -96.564,-43.318 -96.564,-96.564 0,-4.142 -3.358,-7.5 -7.5,-7.5 -4.142,0 -7.5,3.358 -7.5,7.5 0,0.169 0.006,0.336 0.006,0.505 h -4.514 c -6.899,0 -12.512,-5.613 -12.512,-12.512 0,-6.899 5.613,-12.512 12.512,-12.512 1.794,0 3.059,0 4.002,-0.031 v 0.028 c 53.568,0 95.935,-46.436 111.664,-66.4 0.05,-0.063 0.166,-0.211 0.405,-0.211 0.239,0 0.355,0.147 0.404,0.21 9.583,12.164 29.621,34.865 56.151,50.234 3.585,2.076 8.175,0.855 10.249,-2.73 2.077,-3.584 0.854,-8.173 -2.729,-10.249 -24.368,-14.116 -42.969,-35.216 -51.888,-46.537 -2.968,-3.767 -7.409,-5.928 -12.187,-5.928 0,0 0,0 -0.001,0 -4.777,0 -9.219,2.161 -12.187,5.928 -43.15,54.77 -84.225,60.683 -99.882,60.683 -0.035,0 -0.319,0.001 -0.505,0.001 V 127.573 C 143.417,65.5 193.918,15 255.991,15 Z M 155.562,271.408 c -15.58,-2.814 -28.874,-14.483 -33.87,-29.728 -1.957,-5.969 -2.664,-12.053 -2.102,-18.081 0.782,-8.385 -3.048,-16.532 -9.995,-21.262 -10.963,-7.464 -16.151,-20.286 -13.537,-33.46 2.515,-12.677 13.198,-23.077 25.979,-25.289 2.134,-0.37 4.266,-0.514 6.38,-0.481 v 11.515 c -9.44,4.364 -16.01,13.918 -16.01,24.983 0,15.17 12.342,27.512 27.512,27.512 h 5.59 c 3.416,24.461 14.788,46.408 31.417,63.127 -6.796,2.074 -14.043,2.486 -21.364,1.164 z m 100.429,31.769 c 14.288,0 27.955,-2.703 40.521,-7.619 l 0.008,39.886 c 0,22.348 -18.182,40.529 -40.529,40.529 -22.348,0 -40.529,-18.181 -40.529,-40.529 l 0.008,-39.886 c 12.566,4.916 26.233,7.619 40.521,7.619 z m 70.81,98.632 c -4.728,11.334 -16.774,17.406 -28.642,14.439 l -40.35,-10.087 c -1.195,-0.299 -2.444,-0.299 -3.638,0 l -40.35,10.087 c -11.87,2.965 -23.915,-3.106 -28.643,-14.439 -5.834,-13.99 -12.437,-36.64 -10.758,-65.101 0.207,-3.5 2.461,-6.5 5.689,-7.626 l 20.351,-6.92 v 13.283 c 0,30.619 24.91,55.529 55.529,55.529 30.619,0 55.529,-24.91 55.529,-55.529 v -13.283 l 20.297,6.902 c 3.282,1.145 5.536,4.145 5.742,7.645 1.681,28.463 -4.922,51.111 -10.756,65.1 z" /><path
     inkscape:connector-curvature="0"
     id="path40"
     d="m 255.991,472.289 c -4.142,0 -7.5,3.358 -7.5,7.5 v 8.005 c 0,4.142 3.358,7.5 7.5,7.5 4.143,0 7.5,-3.358 7.5,-7.5 v -8.005 c 0,-4.142 -3.357,-7.5 -7.5,-7.5 z" /></g><rect
   y="-104.38158"
   x="-28.555799"
   height="673.03345"
   width="469.31418"
   id="rect2447-0-9"
   style="display:inline;fill:none;fill-opacity:1;stroke:url(#linearGradient2459-6-2);stroke-width:25.31489563;stroke-miterlimit:4;stroke-dasharray:none;stroke-opacity:1" /><text
   id="text2485-9"
   y="522.54254"
   x="44.938858"
   style="font-style:normal;font-weight:normal;font-size:76.99105835px;line-height:1.25;font-family:sans-serif;letter-spacing:0px;word-spacing:0px;display:inline;fill:#000000;fill-opacity:1;stroke:none;stroke-width:1.9247762"
   xml:space="preserve"><tspan
     style="stroke-width:1.9247762"
     y="522.54254"
     x="44.938858"
     id="tspan2483-7"
     sodipodi:role="line">RAQUEL</tspan></text>








</g></svg>