<?xml version="1.0" encoding="UTF-8" standalone="no"?>
<!-- Generator: Adobe Illustrator 19.0.0, SVG Export Plug-In . SVG Version: 6.00 Build 0)  -->

<svg
   xmlns:osb="http://www.openswatchbook.org/uri/2009/osb"
   xmlns:dc="http://purl.org/dc/elements/1.1/"
   xmlns:cc="http://creativecommons.org/ns#"
   xmlns:rdf="http://www.w3.org/1999/02/22-rdf-syntax-ns#"
   xmlns:svg="http://www.w3.org/2000/svg"
   xmlns="http://www.w3.org/2000/svg"
   xmlns:xlink="http://www.w3.org/1999/xlink"
   xmlns:sodipodi="http://sodipodi.sourceforge.net/DTD/sodipodi-0.dtd"
   xmlns:inkscape="http://www.inkscape.org/namespaces/inkscape"
   version="1.1"
   id="Capa_1"
   x="0px"
   y="0px"
   viewBox="0 0 511.999 511.999"
   style="enable-background:new 0 0 511.999 511.999;"
   xml:space="preserve"
   sodipodi:docname="7.svg"
   inkscape:version="0.92.4 (5da689c313, 2019-01-14)"><metadata
   id="metadata95"><rdf:RDF><cc:Work
       rdf:about=""><dc:format>image/svg+xml</dc:format><dc:type
         rdf:resource="http://purl.org/dc/dcmitype/StillImage" /><dc:title /></cc:Work></rdf:RDF></metadata><defs
   id="defs93"><linearGradient
     id="linearGradient2457"
     osb:paint="solid"><stop
       style="stop-color:#000000;stop-opacity:1;"
       offset="0"
       id="stop2455" /></linearGradient><linearGradient
     inkscape:collect="always"
     xlink:href="#linearGradient2457"
     id="linearGradient2459-6-2"
     x1="1442.3572"
     y1="-339.5119"
     x2="1514.9286"
     y2="-339.5119"
     gradientUnits="userSpaceOnUse"
     gradientTransform="matrix(6.4669274,0,0,9.6773016,-9356.1743,3517.6929)" /></defs><sodipodi:namedview
   pagecolor="#ffffff"
   bordercolor="#666666"
   borderopacity="1"
   objecttolerance="10"
   gridtolerance="10"
   guidetolerance="10"
   inkscape:pageopacity="0"
   inkscape:pageshadow="2"
   inkscape:window-width="1920"
   inkscape:window-height="986"
   id="namedview91"
   showgrid="false"
   inkscape:zoom="1.3037307"
   inkscape:cx="61.389588"
   inkscape:cy="256.72861"
   inkscape:window-x="-11"
   inkscape:window-y="-11"
   inkscape:window-maximized="1"
   inkscape:current-layer="g1046" />























<g
   id="g60">
</g>
<g
   id="g62">
</g>
<g
   id="g64">
</g>
<g
   id="g66">
</g>
<g
   id="g68">
</g>
<g
   id="g70">
</g>
<g
   id="g72">
</g>
<g
   id="g74">
</g>
<g
   id="g76">
</g>
<g
   id="g78">
</g>
<g
   id="g80">
</g>
<g
   id="g82">
</g>
<g
   id="g84">
</g>
<g
   id="g86">
</g>
<g
   id="g88">
</g>
<g
   id="g1046"
   transform="matrix(0.55886315,0,0,0.55886315,157.54779,132.77619)"><rect
   y="-104.38158"
   x="-28.555799"
   height="673.03345"
   width="469.31418"
   id="rect2447-0-9"
   style="display:inline;fill:none;fill-opacity:1;stroke:url(#linearGradient2459-6-2);stroke-width:25.31489563;stroke-miterlimit:4;stroke-dasharray:none;stroke-opacity:1" /><text
   id="text2485-9"
   y="522.54254"
   x="71.517311"
   style="font-style:normal;font-weight:normal;font-size:76.99105835px;line-height:1.25;font-family:sans-serif;letter-spacing:0px;word-spacing:0px;display:inline;fill:#000000;fill-opacity:1;stroke:none;stroke-width:1.9247762"
   xml:space="preserve"><tspan
     style="stroke-width:1.9247762"
     y="522.54254"
     x="71.517311"
     id="tspan2483-7"
     sodipodi:role="line">RUBÉN</tspan></text>

<g
   transform="matrix(0.89264835,0,0,0.89264835,-22.417134,-21.13631)"
   id="g892"><path
     inkscape:connector-curvature="0"
     id="path2-7"
     d="m 416.449,371.966 -83.63,-24.597 -63.261,42.174 c -8.21,5.474 -18.907,5.474 -27.117,0 L 179.18,347.369 95.55,371.966 c -20.805,6.119 -35.091,25.213 -35.091,46.899 V 504.5 h 391.082 v -85.636 c 0,-21.685 -14.287,-40.779 -35.092,-46.898 z"
     style="fill:#cdf5a0" /><path
     inkscape:connector-curvature="0"
     id="path4-7"
     d="M 345.623,276.369 H 166.378 c -26.999,0 -48.885,21.887 -48.885,48.885 0,53.997 43.773,97.771 97.77,97.771 h 81.475 c 53.997,0 97.771,-43.774 97.771,-97.771 -0.001,-26.999 -21.887,-48.885 -48.886,-48.885 z"
     style="fill:#b4f09b" /><path
     inkscape:connector-curvature="0"
     id="path6"
     d="m 343.455,300.811 c 17.735,0 24.699,23.001 9.943,32.839 l -83.839,55.893 c -8.21,5.474 -18.906,5.474 -27.117,0 L 158.603,333.65 c -14.756,-9.837 -7.792,-32.839 9.943,-32.839 z"
     style="fill:#64dca0" /><path
     inkscape:connector-curvature="0"
     id="path8"
     d="m 179.18,347.369 63.261,42.174 c 8.211,5.474 18.906,5.474 27.117,0 l 63.261,-42.174 v 0 l -2.242,-0.659 c -10.402,-3.06 -17.546,-12.607 -17.546,-23.45 V 284.516 H 198.967 v 38.744 c 0,10.843 -7.144,20.39 -17.546,23.45 z"
     style="fill:#b67f5f" /><path
     inkscape:connector-curvature="0"
     id="path10"
     d="m 198.967,310.846 c 17.117,9.143 36.529,14.408 57.033,14.408 20.504,0 39.916,-5.265 57.033,-14.408 V 284.517 H 198.967 Z"
     style="fill:#a06e50" /><path
     inkscape:connector-curvature="0"
     id="path12-9"
     d="m 374.139,162.303 h -4.074 v -97.77 h -228.13 v 97.771 h -4.074 c -11.25,0 -20.369,9.119 -20.369,20.369 0,11.249 9.119,20.369 20.369,20.369 h 12.633 c 4.173,54.677 49.76,97.77 105.506,97.77 55.746,0 101.333,-43.093 105.506,-97.77 h 4.486 8.148 c 11.25,0 20.369,-9.12 20.369,-20.369 -0.001,-11.25 -9.12,-20.37 -20.37,-20.37 z"
     style="fill:#cd916e" /><path
     inkscape:connector-curvature="0"
     id="path14"
     d="m 223.411,7.5 c -40.498,0 -73.328,32.83 -73.328,73.328 H 321.18 c 37.399,0 68.258,-27.998 72.762,-64.177 0.604,-4.853 -3.255,-9.151 -8.145,-9.151 0,0 -162.386,0 -162.386,0 z"
     style="fill:#5a4650" /><path
     inkscape:connector-curvature="0"
     id="path16-2"
     d="m 141.935,80.828 v 81.475 h -4.074 c -11.25,0 -20.369,9.119 -20.369,20.369 0,11.249 9.119,20.369 20.369,20.369 h 12.633 c 4.173,54.677 49.76,97.77 105.506,97.77 5.574,0 11.008,-0.543 16.347,-1.373 -50.765,-7.834 -89.675,-51.587 -89.675,-104.545 V 137.86 c 0,-17.999 14.59,-32.59 32.59,-32.59 h 97.77 c 8.999,0 16.295,-7.296 16.295,-16.295 v -8.148 z"
     style="fill:#b67f5f" /><path
     inkscape:connector-curvature="0"
     id="path18"
     d="M 385.798,7.5 H 234.542 c -7.211,8.033 -12.717,17.629 -15.835,28.263 -3.025,10.32 4.998,20.622 15.753,20.622 H 375.759 C 385.474,45.547 392.052,31.839 393.944,16.651 394.547,11.798 390.688,7.5 385.798,7.5 Z"
     style="fill:#64505a" /><path
     inkscape:connector-curvature="0"
     id="path20-4"
     d="m 207.116,162.951 c -4.143,0 -7.5,3.358 -7.5,7.5 v 8.147 c 0,4.142 3.357,7.5 7.5,7.5 4.143,0 7.5,-3.358 7.5,-7.5 v -8.147 c 0,-4.142 -3.358,-7.5 -7.5,-7.5 z" /><path
     inkscape:connector-curvature="0"
     id="path22-7"
     d="m 304.885,162.951 c -4.143,0 -7.5,3.358 -7.5,7.5 v 8.147 c 0,4.142 3.357,7.5 7.5,7.5 4.143,0 7.5,-3.358 7.5,-7.5 v -8.147 c 0,-4.142 -3.358,-7.5 -7.5,-7.5 z" /><path
     inkscape:connector-curvature="0"
     id="path24-0"
     d="m 256,243.131 c 12.062,0 23.168,-3.854 29.71,-10.31 2.948,-2.909 2.98,-7.658 0.071,-10.606 -2.911,-2.949 -7.659,-2.979 -10.606,-0.07 -2.799,2.762 -9.5,5.986 -19.175,5.986 -9.675,0 -16.376,-3.225 -19.175,-5.986 -2.947,-2.91 -7.695,-2.878 -10.606,0.07 -2.909,2.948 -2.877,7.697 0.071,10.606 6.543,6.456 17.649,10.31 29.71,10.31 z" /><path
     inkscape:connector-curvature="0"
     id="path26-9"
     d="m 418.565,364.771 -21.887,-6.437 c 3.453,-10.407 5.329,-21.528 5.329,-33.079 0,-31.091 -25.294,-56.385 -56.385,-56.385 h -3.737 c 13.921,-16.14 23.387,-36.225 26.452,-58.328 h 4.64 c 14.795,0 27.484,-10.991 28.888,-25.021 0.787,-7.864 -1.785,-15.716 -7.057,-21.542 -4.504,-4.977 -10.651,-8.141 -17.243,-8.961 V 65.359 c 15.072,-14.69 24.442,-35.2 24.442,-57.859 0,-4.142 -3.357,-7.5 -7.5,-7.5 H 215.264 c -44.568,0 -80.828,36.259 -80.828,80.828 v 74.331 c -12.751,1.99 -23.043,12.11 -24.3,24.665 -0.788,7.864 1.784,15.716 7.057,21.542 5.275,5.831 12.81,9.175 20.669,9.175 h 5.797 c 3.065,22.104 12.528,42.188 26.447,58.328 h -3.727 c -31.091,0 -56.385,25.294 -56.385,56.386 0,11.551 1.876,22.671 5.329,33.079 l -21.887,6.438 C 69.605,371.781 52.96,394.026 52.96,418.866 V 504.5 c 0,4.142 3.357,7.5 7.5,7.5 4.143,0 7.5,-3.358 7.5,-7.5 v -85.635 c 0,-18.232 12.217,-34.559 29.708,-39.704 l 23.427,-6.891 c 16.239,32.394 48.704,55.298 86.668,57.984 V 504.5 c 0,4.142 3.357,7.5 7.5,7.5 4.143,0 7.5,-3.358 7.5,-7.5 v -73.976 h 66.475 V 504.5 c 0,4.142 3.357,7.5 7.5,7.5 4.143,0 7.5,-3.358 7.5,-7.5 v -74.246 c 37.964,-2.686 70.429,-25.59 86.668,-57.984 l 23.427,6.89 c 17.491,5.145 29.708,21.471 29.708,39.704 V 504.5 c 0,4.142 3.357,7.5 7.5,7.5 4.143,0 7.5,-3.358 7.5,-7.5 v -85.635 c 0,-24.841 -16.645,-47.085 -40.476,-54.094 z m -86.939,-25.62 c -6.582,-2.43 -11.093,-8.805 -11.093,-15.891 v -14.949 h 22.922 c 5.703,0 8.894,3.824 9.977,7.403 1.084,3.58 0.551,8.531 -4.194,11.695 z M 150.083,187.394 c -4.143,0 -7.5,3.358 -7.5,7.5 v 0.647 h -4.722 c -3.63,0 -7.109,-1.545 -9.547,-4.239 -2.47,-2.729 -3.625,-6.275 -3.253,-9.984 0.646,-6.457 6.779,-11.515 13.962,-11.515 h 2.912 c 4.143,0 7.5,-3.358 7.5,-7.5 V 80.828 C 149.435,44.531 178.965,15 215.263,15 h 171.32 c -3.735,32.778 -31.642,58.328 -65.402,58.328 H 174.525 c -4.143,0 -7.5,3.358 -7.5,7.5 0,4.142 3.357,7.5 7.5,7.5 H 321.18 c 15.113,0 29.272,-4.17 41.385,-11.419 v 85.395 c 0,4.142 3.357,7.5 7.5,7.5 h 4.074 c 3.629,0 7.108,1.545 9.546,4.238 2.47,2.729 3.625,6.275 3.254,9.984 -0.646,6.457 -6.778,11.515 -13.962,11.515 h -3.563 v -0.569 c 0,-4.141 -3.356,-7.499 -7.497,-7.5 -10e-4,0 -0.002,0 -0.003,0 -4.14,0 -7.497,3.354 -7.5,7.495 -0.04,54.228 -44.188,98.345 -98.414,98.345 -54.268,0 -98.418,-44.15 -98.418,-98.418 0.001,-4.143 -3.356,-7.5 -7.499,-7.5 z m 30.291,151.757 -17.611,-11.741 c -4.745,-3.164 -5.278,-8.116 -4.194,-11.695 1.084,-3.579 4.273,-7.403 9.977,-7.403 h 22.922 v 14.949 c -10e-4,7.085 -4.512,13.46 -11.094,15.89 z m 123.863,76.059 v -8.481 c 0,-4.142 -3.357,-7.5 -7.5,-7.5 -4.143,0 -7.5,3.358 -7.5,7.5 v 8.795 h -66.475 v -8.795 c 0,-4.142 -3.357,-7.5 -7.5,-7.5 -4.143,0 -7.5,3.358 -7.5,7.5 v 8.481 c -46.279,-3.824 -82.771,-42.707 -82.771,-89.957 0,-22.82 18.565,-41.385 41.385,-41.385 h 19.374 c 1.859,1.471 3.765,2.887 5.715,4.241 v 5.201 h -22.922 c -11.461,0 -21.012,7.088 -24.333,18.057 -3.321,10.969 0.694,22.165 10.23,28.522 l 83.839,55.893 c 5.382,3.587 11.55,5.381 17.719,5.381 6.168,0 12.337,-1.794 17.719,-5.382 l 19.032,-12.688 c 3.446,-2.297 4.378,-6.954 2.08,-10.4 -2.298,-3.447 -6.954,-4.378 -10.4,-2.08 l -19.032,12.688 c -5.708,3.805 -13.087,3.805 -18.797,0 l -52.407,-34.938 c 7.54,-5.948 12.272,-15.15 12.272,-25.105 v -26.352 c 14.975,7.301 31.783,11.403 49.533,11.403 17.748,0 34.557,-4.104 49.533,-11.408 v 26.357 c 0,9.955 4.732,19.157 12.272,25.105 l -4.857,3.238 c -3.446,2.297 -4.378,6.954 -2.08,10.4 1.445,2.168 3.823,3.341 6.247,3.341 1.43,0 2.875,-0.408 4.153,-1.261 l 36.289,-24.193 c 9.536,-6.357 13.552,-17.553 10.23,-28.522 -3.321,-10.969 -12.872,-18.057 -24.333,-18.057 H 320.53 V 288.1 c 1.947,-1.353 3.848,-2.765 5.704,-4.234 h 19.385 c 22.819,0 41.385,18.565 41.385,41.386 0.004,47.252 -36.488,86.134 -82.767,89.958 z" /><path
     inkscape:connector-curvature="0"
     id="path28"
     d="m 198.958,153.51 c 0.459,0 0.924,-0.042 1.391,-0.13 l 16.296,-3.056 c 4.071,-0.764 6.753,-4.683 5.989,-8.754 -0.764,-4.071 -4.692,-6.75 -8.753,-5.989 l -16.296,3.056 c -4.071,0.764 -6.753,4.683 -5.989,8.754 0.675,3.604 3.825,6.119 7.362,6.119 z" /><path
     inkscape:connector-curvature="0"
     id="path30"
     d="m 295.355,150.324 16.296,3.056 c 0.467,0.087 0.932,0.13 1.391,0.13 3.538,0 6.687,-2.515 7.362,-6.119 0.764,-4.071 -1.918,-7.99 -5.989,-8.754 l -16.296,-3.056 c -4.063,-0.761 -7.99,1.918 -8.753,5.989 -0.763,4.072 1.918,7.991 5.989,8.754 z" /></g></g></svg>