<?xml version="1.0" encoding="UTF-8" standalone="no"?>
<!-- Generator: Adobe Illustrator 19.0.0, SVG Export Plug-In . SVG Version: 6.00 Build 0)  -->

<svg
   xmlns:osb="http://www.openswatchbook.org/uri/2009/osb"
   xmlns:dc="http://purl.org/dc/elements/1.1/"
   xmlns:cc="http://creativecommons.org/ns#"
   xmlns:rdf="http://www.w3.org/1999/02/22-rdf-syntax-ns#"
   xmlns:svg="http://www.w3.org/2000/svg"
   xmlns="http://www.w3.org/2000/svg"
   xmlns:xlink="http://www.w3.org/1999/xlink"
   xmlns:sodipodi="http://sodipodi.sourceforge.net/DTD/sodipodi-0.dtd"
   xmlns:inkscape="http://www.inkscape.org/namespaces/inkscape"
   version="1.1"
   id="Capa_1"
   x="0px"
   y="0px"
   viewBox="0 0 511.999 511.999"
   style="enable-background:new 0 0 511.999 511.999;"
   xml:space="preserve"
   sodipodi:docname="10.svg"
   inkscape:version="0.92.4 (5da689c313, 2019-01-14)"><metadata
   id="metadata95"><rdf:RDF><cc:Work
       rdf:about=""><dc:format>image/svg+xml</dc:format><dc:type
         rdf:resource="http://purl.org/dc/dcmitype/StillImage" /><dc:title /></cc:Work></rdf:RDF></metadata><defs
   id="defs93"><linearGradient
     id="linearGradient2457"
     osb:paint="solid"><stop
       style="stop-color:#000000;stop-opacity:1;"
       offset="0"
       id="stop2455" /></linearGradient><linearGradient
     inkscape:collect="always"
     xlink:href="#linearGradient2457"
     id="linearGradient2459-6-2"
     x1="1442.3572"
     y1="-339.5119"
     x2="1514.9286"
     y2="-339.5119"
     gradientUnits="userSpaceOnUse"
     gradientTransform="matrix(6.4669274,0,0,9.6773016,-9356.1743,3517.6929)" /></defs><sodipodi:namedview
   pagecolor="#ffffff"
   bordercolor="#666666"
   borderopacity="1"
   objecttolerance="10"
   gridtolerance="10"
   guidetolerance="10"
   inkscape:pageopacity="0"
   inkscape:pageshadow="2"
   inkscape:window-width="1920"
   inkscape:window-height="986"
   id="namedview91"
   showgrid="false"
   inkscape:zoom="1.3037307"
   inkscape:cx="-87.797664"
   inkscape:cy="256.72861"
   inkscape:window-x="-11"
   inkscape:window-y="-11"
   inkscape:window-maximized="1"
   inkscape:current-layer="g1046" />























<g
   id="g60">
</g>
<g
   id="g62">
</g>
<g
   id="g64">
</g>
<g
   id="g66">
</g>
<g
   id="g68">
</g>
<g
   id="g70">
</g>
<g
   id="g72">
</g>
<g
   id="g74">
</g>
<g
   id="g76">
</g>
<g
   id="g78">
</g>
<g
   id="g80">
</g>
<g
   id="g82">
</g>
<g
   id="g84">
</g>
<g
   id="g86">
</g>
<g
   id="g88">
</g>
<g
   id="g1046"
   transform="matrix(0.55886315,0,0,0.55886315,157.54779,132.77619)"><rect
   y="-104.38158"
   x="-28.555799"
   height="673.03345"
   width="469.31418"
   id="rect2447-0-9"
   style="display:inline;fill:none;fill-opacity:1;stroke:url(#linearGradient2459-6-2);stroke-width:25.31489563;stroke-miterlimit:4;stroke-dasharray:none;stroke-opacity:1" /><text
   id="text2485-9"
   y="522.54254"
   x="110.03163"
   style="font-style:normal;font-weight:normal;font-size:76.99105835px;line-height:1.25;font-family:sans-serif;letter-spacing:0px;word-spacing:0px;display:inline;fill:#000000;fill-opacity:1;stroke:none;stroke-width:1.9247762"
   xml:space="preserve"><tspan
     style="stroke-width:1.9247762"
     y="522.54254"
     x="110.03163"
     id="tspan2483-7"
     sodipodi:role="line">INÉS</tspan></text>


<g
   transform="matrix(0.94699975,0,0,0.94699975,-36.33112,-44.507851)"
   id="g892"><path
     inkscape:connector-curvature="0"
     id="path2"
     d="m 256,7.5 c -75.262,0 -136.274,61.012 -136.274,136.274 v 61.457 c 0,107.55 66.785,162.529 66.785,162.529 H 392.275 V 143.774 C 392.273,68.512 331.262,7.5 256,7.5 Z"
     style="fill:#ffd164" /><path
     inkscape:connector-curvature="0"
     id="path4"
     d="m 119.726,143.774 v 61.457 c 0,107.55 66.785,162.529 66.785,162.529 H 256 V 7.5 c -75.262,0 -136.274,61.012 -136.274,136.274 z"
     style="fill:#ffc350" /><path
     inkscape:connector-curvature="0"
     id="path6-4"
     d="M 408.282,396.981 325.49,367.76 c -12.82,-4.525 -21.393,-16.642 -21.393,-30.237 v -49.459 h -96.194 v 49.459 c 0,13.595 -8.573,25.712 -21.393,30.236 l -82.793,29.221 c -19.23,6.787 -32.089,24.962 -32.089,45.354 V 504.5 H 440.37 v -62.165 c 10e-4,-20.392 -12.858,-38.567 -32.088,-45.354 z"
     style="fill:#f7d291" /><path
     inkscape:connector-curvature="0"
     id="path8-4"
     d="m 408.282,396.981 -68.898,-24.317 c -11.856,34.701 -44.667,59.691 -83.384,59.691 -38.717,0 -71.528,-24.99 -83.384,-59.691 l -68.898,24.317 c -19.23,6.787 -32.089,24.962 -32.089,45.354 V 504.5 h 368.742 v -62.165 c 0,-20.392 -12.859,-38.567 -32.089,-45.354 z"
     style="fill:#a5cdff" /><path
     inkscape:connector-curvature="0"
     id="path10-6"
     d="m 256,464.419 c 52.682,0 97.338,-33.934 113.594,-81.093 l -30.21,-10.663 c -11.856,34.701 -44.667,59.691 -83.384,59.691 -38.717,0 -71.528,-24.99 -83.384,-59.691 l -30.211,10.663 c 16.257,47.16 60.913,81.093 113.595,81.093 z"
     style="fill:#edebed" /><path
     inkscape:connector-curvature="0"
     id="path12"
     d="m 207.903,325.906 c 13.042,5.808 27.268,9.411 42.305,10.118 1.94,0.091 3.872,0.137 5.792,0.137 17.103,0 33.353,-3.645 48.097,-10.11 v -37.987 h -96.194 z"
     style="fill:#f0c382" /><path
     inkscape:connector-curvature="0"
     id="path14-4"
     d="m 372.234,175.839 h -9.159 c -10.437,0 -18.897,-8.461 -18.897,-18.897 v -13.167 c 0,-22.136 -17.944,-40.081 -40.081,-40.081 h -96.194 c -22.136,0 -40.081,17.945 -40.081,40.081 v 13.167 c 0,10.437 -8.46,18.897 -18.897,18.897 h -9.159 c -11.068,0 -20.04,8.972 -20.04,20.04 0,11.068 8.972,20.04 20.04,20.04 h 12.429 c 4.106,53.795 48.958,96.194 103.805,96.194 54.847,0 99.699,-42.398 103.805,-96.194 h 12.429 c 11.068,0 20.04,-8.973 20.04,-20.04 -10e-4,-11.068 -8.972,-20.04 -20.04,-20.04 z"
     style="fill:#ffe1a0" /><path
     inkscape:connector-curvature="0"
     id="path16"
     d="m 304.096,312.113 v 32.065 c 0,70.783 56.113,96.194 56.113,160.323 h 32.065 V 312.113 Z"
     style="fill:#ffd164" /><path
     inkscape:connector-curvature="0"
     id="path18-0"
     d="m 372.234,175.839 h -9.159 c -10.437,0 -18.897,-8.461 -18.897,-18.897 v -13.167 c 0,-5.534 -1.121,-10.806 -3.15,-15.601 -4.056,-9.59 -11.739,-17.273 -21.329,-21.33 -4.796,-2.028 -10.067,-3.15 -15.602,-3.15 h -96.194 c -1.953,0 -3.852,0.2 -5.721,0.485 -0.676,0.1 -1.339,0.225 -2.002,0.358 -1.2,0.248 -2.372,0.557 -3.531,0.91 -1.139,0.342 -2.249,0.73 -3.343,1.169 -0.83,0.333 -1.671,0.644 -2.476,1.026 0.012,0.016 0.025,0.031 0.038,0.047 -2.468,1.186 -4.849,2.524 -7.015,4.159 v 0.044 c -9.682,7.316 -16.032,18.813 -16.032,31.883 v 13.987 c 0,10.392 -8.713,17.97 -19.104,18.077 h -7.808 c -10.483,0 -20.036,7.542 -21.081,17.973 -1.202,11.996 8.186,22.108 19.937,22.108 h 12.429 c 4.106,53.795 48.958,96.194 103.805,96.194 5.484,0 10.83,-0.534 16.083,-1.351 -49.946,-7.708 -88.228,-50.754 -88.228,-102.859 v -48.986 c 0,-0.15 10e-4,-0.3 0.004,-0.449 0.31,-19.62 24.466,-29.176 39.211,-16.229 41.339,36.297 95.212,57.649 153.173,57.649 3.929,0 8.122,-0.15 12.61,-0.417 1.314,-1.462 2.107,-2.344 3.421,-3.806 -0.115,-10.971 -9.043,-19.827 -20.039,-19.827 z"
     style="fill:#f7d291" /><path
     inkscape:connector-curvature="0"
     id="path20"
     d="m 256,7.5 c -28.992,0 -55.818,9.121 -77.908,24.556 27.208,83.455 105.613,143.783 198.15,143.783 5.401,0 10.735,-0.271 16.032,-0.675 v -31.39 C 392.273,68.512 331.262,7.5 256,7.5 Z"
     style="fill:#ffe17d" /><path
     inkscape:connector-curvature="0"
     id="path22"
     d="m 207.903,176.355 c -4.142,0 -7.5,3.358 -7.5,7.5 v 8.016 c 0,4.142 3.358,7.5 7.5,7.5 4.142,0 7.5,-3.358 7.5,-7.5 v -8.016 c 0,-4.142 -3.358,-7.5 -7.5,-7.5 z" /><path
     inkscape:connector-curvature="0"
     id="path24"
     d="m 304.096,176.355 c -4.143,0 -7.5,3.358 -7.5,7.5 v 8.016 c 0,4.142 3.357,7.5 7.5,7.5 4.143,0 7.5,-3.358 7.5,-7.5 v -8.016 c 0,-4.142 -3.357,-7.5 -7.5,-7.5 z" /><path
     inkscape:connector-curvature="0"
     id="path26"
     d="m 274.781,234.629 c -2.737,2.701 -9.299,5.855 -18.781,5.855 -9.482,0 -16.043,-3.154 -18.781,-5.855 -2.949,-2.91 -7.698,-2.877 -10.606,0.071 -2.909,2.949 -2.877,7.697 0.071,10.606 6.459,6.373 17.418,10.177 29.316,10.177 11.897,0 22.856,-3.805 29.316,-10.177 2.948,-2.909 2.98,-7.658 0.071,-10.606 -2.909,-2.948 -7.657,-2.981 -10.606,-0.071 z" /><path
     inkscape:connector-curvature="0"
     id="path28-1"
     d="m 410.778,389.909 -11.004,-3.884 V 143.774 C 399.773,64.497 335.277,0 256,0 176.723,0 112.226,64.497 112.226,143.774 v 61.457 c 0,57.308 18.762,99.89 34.501,125.521 9.566,15.578 19.124,26.901 25.837,33.978 l -71.341,25.179 C 79.036,397.739 64.13,418.808 64.13,442.336 V 504.5 c 0,4.142 3.358,7.5 7.5,7.5 4.142,0 7.5,-3.358 7.5,-7.5 v -62.165 c 0,-4.992 0.925,-9.83 2.626,-14.326 l 37.925,32.507 c 5.452,4.673 8.578,11.471 8.578,18.651 V 504.5 c 0,4.142 3.358,7.5 7.5,7.5 4.142,0 7.5,-3.358 7.5,-7.5 v -25.333 c 0,-11.564 -5.036,-22.513 -13.816,-30.04 L 89.688,415.052 c 4.423,-4.876 10.048,-8.712 16.528,-10.999 l 31.671,-11.178 c 19.603,47.513 66.331,79.044 118.114,79.044 28.488,0 55.975,-9.466 78.311,-26.814 10.185,17.714 18.399,35.832 18.399,59.395 0,4.142 3.357,7.5 7.5,7.5 4.143,0 7.5,-3.358 7.5,-7.5 0,-33.365 -14.285,-56.986 -28.101,-79.83 -14.406,-23.82 -28.013,-46.319 -28.013,-80.493 v -8.016 c 0,-4.142 -3.357,-7.5 -7.5,-7.5 -4.143,0 -7.5,3.358 -7.5,7.5 v 8.016 c 0,23.851 5.933,42.678 13.987,59.406 -14.924,13.744 -34.158,21.271 -54.584,21.271 -31.927,0 -60.742,-18.911 -73.641,-47.676 l 6.647,-2.346 c 15.789,-5.573 26.397,-20.566 26.397,-37.309 v -25.55 c 12.59,4.928 26.282,7.639 40.597,7.639 56.313,0 103.051,-41.921 110.632,-96.193 h 4.457 c 4.912,0 9.587,-1.231 13.686,-3.386 V 504.5 c 0,4.142 3.357,7.5 7.5,7.5 4.143,0 7.5,-3.358 7.5,-7.5 v -50.374 l 30.47,-26.117 c 1.702,4.496 2.626,9.334 2.626,14.326 V 504.5 c 0,4.142 3.357,7.5 7.5,7.5 4.143,0 7.5,-3.358 7.5,-7.5 v -62.165 c 0,-23.527 -14.906,-44.596 -37.093,-52.426 z M 256,439.855 c 22.899,0 44.534,-7.979 61.782,-22.62 2.864,5.053 5.835,9.977 8.79,14.863 -19.968,16.044 -44.804,24.822 -70.572,24.822 -45.443,0 -86.468,-27.514 -103.943,-69.046 l 16.127,-5.692 c 15.045,34.746 49.541,57.673 87.816,57.673 z M 200.403,337.523 c 0,8.942 -4.881,17.07 -12.483,21.373 -12.401,-11.944 -55.185,-58.651 -60.204,-138.268 3.72,1.811 7.836,2.791 12.05,2.791 h 5.598 c 4.855,34.791 25.795,64.501 55.04,81.351 v 32.753 z M 384.707,197.198 c -0.63,6.292 -6.612,11.221 -13.618,11.221 h -3.383 v -0.439 c 0,-4.141 -3.356,-7.499 -7.497,-7.5 -10e-4,0 -0.002,0 -0.003,0 -4.14,0 -7.497,3.354 -7.5,7.495 -0.04,53.286 -43.422,96.638 -96.706,96.638 -53.326,0 -96.71,-43.384 -96.71,-96.709 0,-4.142 -3.358,-7.5 -7.5,-7.5 -4.142,0 -7.5,3.358 -7.5,7.5 v 0.516 h -4.524 c -3.537,0 -6.927,-1.506 -9.303,-4.131 -2.407,-2.66 -3.533,-6.115 -3.171,-9.729 0.631,-6.292 6.613,-11.221 13.62,-11.221 h 2.861 0.001 c 8.426,0 16.349,-3.282 22.307,-9.24 5.959,-5.958 9.241,-13.881 9.241,-22.308 v -8.016 c 0,-10.343 4.75,-19.845 13.033,-26.068 3.312,-2.488 3.979,-7.19 1.491,-10.501 -2.488,-3.311 -7.19,-3.979 -10.501,-1.491 -12.089,9.083 -19.022,22.956 -19.022,38.06 v 8.016 c 0,4.42 -1.721,8.576 -4.847,11.702 -3.125,3.125 -7.281,4.847 -11.701,4.847 v 0 h -2.862 c -4.913,0 -9.588,1.231 -13.687,3.387 v -27.951 c 0,-39.683 18.047,-75.225 46.359,-98.866 17.819,39.501 44.174,73.299 76.621,98.143 33.932,25.98 72.999,40.288 110.004,40.288 h 12.023 c 3.537,0 6.928,1.505 9.304,4.131 2.406,2.657 3.532,6.112 3.17,9.726 z M 372.233,168.339 H 360.21 c -33.728,0 -69.556,-13.21 -100.886,-37.198 C 228.04,107.188 202.755,74.294 185.946,35.775 206.122,22.642 230.184,15 256,15 c 71.007,0 128.774,57.768 128.774,128.774 v 27.594 c -3.846,-1.967 -8.141,-3.029 -12.541,-3.029 z m 27.54,266.032 v -32.439 l 6.012,2.122 c 6.479,2.287 12.104,6.123 16.527,10.999 z" /><path
     inkscape:connector-curvature="0"
     id="path30-7"
     d="m 213.548,144.675 -24.048,8.016 c -3.93,1.31 -6.053,5.558 -4.744,9.487 1.048,3.143 3.974,5.13 7.114,5.13 0.786,0 1.586,-0.125 2.373,-0.387 l 24.048,-8.016 c 3.93,-1.31 6.053,-5.557 4.744,-9.487 -1.31,-3.929 -5.559,-6.052 -9.487,-4.743 z" /></g></g></svg>