<?xml version="1.0" encoding="UTF-8" standalone="no"?>
<!-- Generator: Adobe Illustrator 19.0.0, SVG Export Plug-In . SVG Version: 6.00 Build 0)  -->

<svg
   xmlns:osb="http://www.openswatchbook.org/uri/2009/osb"
   xmlns:dc="http://purl.org/dc/elements/1.1/"
   xmlns:cc="http://creativecommons.org/ns#"
   xmlns:rdf="http://www.w3.org/1999/02/22-rdf-syntax-ns#"
   xmlns:svg="http://www.w3.org/2000/svg"
   xmlns="http://www.w3.org/2000/svg"
   xmlns:xlink="http://www.w3.org/1999/xlink"
   xmlns:sodipodi="http://sodipodi.sourceforge.net/DTD/sodipodi-0.dtd"
   xmlns:inkscape="http://www.inkscape.org/namespaces/inkscape"
   version="1.1"
   id="Capa_1"
   x="0px"
   y="0px"
   viewBox="0 0 511.999 511.999"
   style="enable-background:new 0 0 511.999 511.999;"
   xml:space="preserve"
   sodipodi:docname="1.svg"
   inkscape:version="0.92.4 (5da689c313, 2019-01-14)"><metadata
   id="metadata95"><rdf:RDF><cc:Work
       rdf:about=""><dc:format>image/svg+xml</dc:format><dc:type
         rdf:resource="http://purl.org/dc/dcmitype/StillImage" /><dc:title /></cc:Work></rdf:RDF></metadata><defs
   id="defs93"><linearGradient
     id="linearGradient2457"
     osb:paint="solid"><stop
       style="stop-color:#000000;stop-opacity:1;"
       offset="0"
       id="stop2455" /></linearGradient><linearGradient
     inkscape:collect="always"
     xlink:href="#linearGradient2457"
     id="linearGradient2459-6-2"
     x1="1442.3572"
     y1="-339.5119"
     x2="1514.9286"
     y2="-339.5119"
     gradientUnits="userSpaceOnUse"
     gradientTransform="matrix(6.4669274,0,0,9.6773016,-9356.1743,3517.6929)" /></defs><sodipodi:namedview
   pagecolor="#ffffff"
   bordercolor="#666666"
   borderopacity="1"
   objecttolerance="10"
   gridtolerance="10"
   guidetolerance="10"
   inkscape:pageopacity="0"
   inkscape:pageshadow="2"
   inkscape:window-width="1920"
   inkscape:window-height="986"
   id="namedview91"
   showgrid="false"
   inkscape:zoom="1.8437536"
   inkscape:cx="249.46513"
   inkscape:cy="250.70589"
   inkscape:window-x="-11"
   inkscape:window-y="-11"
   inkscape:window-maximized="1"
   inkscape:current-layer="g1046" />























<g
   id="g60">
</g>
<g
   id="g62">
</g>
<g
   id="g64">
</g>
<g
   id="g66">
</g>
<g
   id="g68">
</g>
<g
   id="g70">
</g>
<g
   id="g72">
</g>
<g
   id="g74">
</g>
<g
   id="g76">
</g>
<g
   id="g78">
</g>
<g
   id="g80">
</g>
<g
   id="g82">
</g>
<g
   id="g84">
</g>
<g
   id="g86">
</g>
<g
   id="g88">
</g>
<g
   id="g1046"
   transform="matrix(0.55886315,0,0,0.55886315,157.54779,132.77619)"><rect
   y="-104.38158"
   x="-28.555799"
   height="673.03345"
   width="469.31418"
   id="rect2447-0-9"
   style="display:inline;fill:none;fill-opacity:1;stroke:url(#linearGradient2459-6-2);stroke-width:25.31489563;stroke-miterlimit:4;stroke-dasharray:none;stroke-opacity:1" /><text
   id="text2485-9"
   y="522.54254"
   x="103.39642"
   style="font-style:normal;font-weight:normal;font-size:76.99105835px;line-height:1.25;font-family:sans-serif;letter-spacing:0px;word-spacing:0px;display:inline;fill:#000000;fill-opacity:1;stroke:none;stroke-width:1.9247762"
   xml:space="preserve"><tspan
     style="stroke-width:1.9247762"
     y="522.54254"
     x="103.39642"
     id="tspan2483-7"
     sodipodi:role="line">JOHN</tspan></text>

</g><g
   id="g931"
   transform="matrix(0.51508828,0,0,0.51508828,140.86786,113.68657)"><path
     id="path2"
     d="M 413.859,374.102 329.373,349.253 C 319.138,346.243 312.11,336.85 312.11,326.182 V 288.063 H 199.885 v 38.119 c 0,10.668 -7.028,20.061 -17.263,23.071 l -84.486,24.849 c -20.469,6.02 -34.525,24.806 -34.525,46.142 v 84.254 h 384.773 v -84.254 c 10e-4,-21.336 -14.056,-40.122 -34.525,-46.142 z"
     style="fill:#e3aa75"
     inkscape:connector-curvature="0" /><path
     id="path4"
     d="m 413.859,374.102 -84.486,-24.849 c -1.429,-0.42 -2.777,-0.991 -4.07,-1.646 l -69.31,12.602 -69.302,-12.602 c -1.293,0.655 -2.641,1.226 -4.07,1.646 l -84.486,24.849 c -20.469,6.02 -34.525,24.806 -34.525,46.142 v 84.254 h 384.773 v -84.254 c 0.002,-21.336 -14.055,-40.122 -34.524,-46.142 z"
     style="fill:#e6646e"
     inkscape:connector-curvature="0" /><path
     id="path6"
     d="m 195.691,407.754 c 7.26,6.223 16.521,9.65 26.075,9.65 12.249,0 23.66,-5.483 31.307,-15.043 l 2.925,-3.656 2.926,3.657 c 7.647,9.56 19.058,15.043 31.307,15.043 9.555,0 18.815,-3.427 26.075,-9.65 l 39.719,-34.045 c 4.196,-3.597 7.338,-8.335 9.088,-13.702 l 0.072,-0.221 -35.81,-10.532 c -1.429,-0.42 -2.777,-0.991 -4.071,-1.646 l -69.309,12.602 -69.301,-12.602 c -1.294,0.655 -2.642,1.226 -4.071,1.646 l -35.808,10.532 0.071,0.221 c 1.751,5.369 4.893,10.107 9.087,13.702 z"
     style="fill:#dc4655"
     inkscape:connector-curvature="0" /><path
     id="path8"
     d="m 199.885,313.968 c 16.841,8.996 35.939,14.176 56.113,14.176 20.173,0 39.272,-5.18 56.113,-14.176 V 288.063 H 199.885 Z"
     style="fill:#d29b6e"
     inkscape:connector-curvature="0" /><path
     id="path10"
     d="M 372.232,167.821 H 360.208 V 79.644 H 151.789 v 88.177 h -12.024 c -11.068,0 -20.04,8.972 -20.04,20.04 0,11.068 8.972,20.04 20.04,20.04 h 12.429 c 4.106,53.795 48.958,96.193 103.804,96.193 54.846,0 99.698,-42.398 103.804,-96.193 h 12.429 c 11.068,0 20.04,-8.973 20.04,-20.04 10e-4,-11.068 -8.971,-20.04 -20.039,-20.04 z"
     style="fill:#f5b97d"
     inkscape:connector-curvature="0" /><path
     id="path12"
     d="m 151.789,79.644 v 88.177 h -12.024 c -11.068,0 -20.04,8.972 -20.04,20.04 0,11.068 8.972,20.04 20.04,20.04 h 12.429 c 4.106,53.795 48.958,96.193 103.804,96.193 5.484,0 10.83,-0.534 16.083,-1.351 -49.946,-7.708 -88.228,-50.754 -88.228,-102.859 v -48.095 c 0,-17.709 14.355,-32.064 32.064,-32.064 h 96.193 c 8.854,0 16.032,-7.178 16.032,-16.032 V 79.644 Z"
     style="fill:#e3aa75"
     inkscape:connector-curvature="0" /><g
     id="g18"><path
       id="path14"
       d="m 255.998,360.208 -64.826,-36.015 c -3.989,-2.216 -9.022,-0.66 -11.063,3.422 l -10.049,20.098 c -1.316,2.632 -0.672,5.822 1.562,7.737 l 39.719,34.045 c 6.884,5.901 17.288,4.923 22.953,-2.157 z"
       style="fill:#e6646e"
       inkscape:connector-curvature="0" /><path
       id="path16"
       d="m 255.998,360.208 64.826,-36.015 c 3.99,-2.216 9.022,-0.66 11.063,3.422 l 10.049,20.098 c 1.316,2.632 0.672,5.822 -1.562,7.737 l -39.719,34.045 c -6.884,5.901 -17.288,4.923 -22.953,-2.157 z"
       style="fill:#e6646e"
       inkscape:connector-curvature="0" /></g><path
     id="path20"
     d="m 219.926,220.594 c 0,17.709 16.15,32.064 36.072,32.064 19.922,0 36.072,-14.356 36.072,-32.064 z"
     style="fill:#ffffff"
     inkscape:connector-curvature="0" /><path
     id="path22"
     d="m 345.813,71.628 h -179.63 c -24.476,0 -43.236,13.729 -39.648,37.941 l 9.221,62.213 17.998,-2.223 c 8.033,-0.992 14.067,-7.817 14.067,-15.911 V 95.676 h 176.354 v 57.971 c 0,8.094 6.034,14.919 14.067,15.911 l 17.998,2.223 9.221,-62.213 c 3.588,-24.211 -15.172,-37.94 -39.648,-37.94 z"
     style="fill:#5a4650"
     inkscape:connector-curvature="0" /><g
     id="g28"><path
       id="path24"
       d="m 135.756,432.353 v 0 72.145 h -24.048 v -48.097 c 0,-13.281 10.767,-24.048 24.048,-24.048 z"
       style="fill:#dc4655"
       inkscape:connector-curvature="0" /><path
       id="path26"
       d="m 376.24,432.353 v 0 72.145 h 24.048 v -48.097 c 0,-13.281 -10.767,-24.048 -24.048,-24.048 z"
       style="fill:#dc4655"
       inkscape:connector-curvature="0" /></g><g
     id="g34"><polygon
       id="polygon30"
       points="167.821,353.606 135.756,363.037 135.756,504.498 167.821,504.498 "
       style="fill:#ffe17d" /><polygon
       id="polygon32"
       points="344.175,353.606 376.24,363.037 376.24,504.498 344.175,504.498 "
       style="fill:#ffe17d" /></g><path
     id="path36"
     d="m 360.207,7.499 c 0,0 -16.032,16.032 -56.113,16.032 h -72.145 c -35.417,0 -64.129,28.712 -64.129,64.129 v 8.016 h 152.306 c 32.065,0 64.13,-32.064 40.081,-88.177 z"
     style="fill:#64505a"
     inkscape:connector-curvature="0" /><path
     id="path38"
     d="m 360.207,7.499 c 0,0 -16.032,16.032 -56.113,16.032 h -72.145 c -4.538,0 -8.961,0.486 -13.234,1.383 -1.997,5.741 -3.178,11.862 -3.178,18.286 0,0.087 0,0.173 0.001,0.259 0.12,11.366 10.187,20.153 21.554,20.153 h 128.219 c 5.084,-14.351 4.723,-33.184 -5.104,-56.113 z"
     style="fill:#6e5a64"
     inkscape:connector-curvature="0" /><path
     id="path40"
     d="m 415.976,366.906 -65.723,-19.33 -11.657,-23.314 c -1.883,-3.766 -5.27,-6.64 -9.292,-7.884 -3.172,-0.982 -6.584,-0.887 -9.692,0.192 v -24.915 c 25.013,-17.396 42.617,-44.741 47.019,-76.252 h 4.459 c 14.617,0 27.154,-10.861 28.542,-24.727 0.778,-7.771 -1.764,-15.531 -6.975,-21.288 -2.304,-2.546 -5.044,-4.61 -8.054,-6.123 l 8.845,-53.068 c 2.946,-17.676 -6.14,-34.599 -21.685,-42.104 7.007,-17.812 5.468,-39.914 -4.661,-63.548 -0.98,-2.288 -3.031,-3.94 -5.475,-4.41 -2.443,-0.47 -4.962,0.302 -6.722,2.062 -0.139,0.138 -14.841,13.835 -50.81,13.835 H 231.95 c -31.254,0 -57.879,20.128 -67.638,48.097 h -6.736 c -11.653,0 -22.656,5.1 -30.188,13.991 -7.532,8.892 -10.753,20.583 -8.838,32.078 l 8.899,53.396 c -8.213,4.229 -14.152,12.164 -15.083,21.454 -0.778,7.771 1.764,15.531 6.974,21.289 5.214,5.762 12.659,9.066 20.425,9.066 h 5.598 c 4.399,31.521 22.003,58.869 47.023,76.263 v 24.904 c -3.109,-1.079 -6.522,-1.173 -9.692,-0.192 -4.022,1.244 -7.409,4.118 -9.292,7.884 l -11.657,23.315 -65.723,19.33 c -23.498,6.911 -39.909,28.844 -39.909,53.338 v 84.254 c 0,4.142 3.358,7.5 7.5,7.5 4.142,0 7.5,-3.358 7.5,-7.5 v -84.254 c 0,-17.885 11.983,-33.901 29.142,-38.947 l 28.003,-8.236 v 131.437 c 0,4.142 3.358,7.5 7.5,7.5 4.142,0 7.5,-3.358 7.5,-7.5 v -135.85 l 17.064,-5.019 v 140.868 c 0,4.142 3.358,7.5 7.5,7.5 4.142,0 7.5,-3.358 7.5,-7.5 v -136 l 31.14,26.691 c 4.312,3.696 9.66,5.668 15.261,5.668 0.748,0 1.501,-0.035 2.256,-0.106 6.409,-0.603 12.152,-3.702 16.173,-8.729 l 15.846,-19.809 15.848,19.809 c 4.021,5.026 9.765,8.126 16.173,8.729 0.755,0.071 1.507,0.106 2.256,0.106 5.6,0 10.95,-1.973 15.261,-5.668 l 39.201,-33.601 24.002,7.059 v 135.852 c 0,4.142 3.358,7.5 7.5,7.5 4.142,0 7.5,-3.358 7.5,-7.5 V 373.06 l 28.005,8.237 c 17.158,5.046 29.142,21.062 29.142,38.947 v 84.254 c 0,4.142 3.358,7.5 7.5,7.5 4.142,0 7.5,-3.358 7.5,-7.5 v -84.254 c -0.001,-24.493 -16.412,-46.427 -39.91,-53.338 z m -37.325,-259.175 -8.765,52.591 h -9.679 c -4.705,0 -8.532,-3.828 -8.532,-8.532 V 93.447 c 4.84,-3.322 9.164,-7.417 12.764,-12.205 10.106,4.462 16.089,15.227 14.212,26.489 z M 138.832,87.815 c 4.676,-5.521 11.508,-8.687 18.743,-8.687 h 3.271 c -0.334,2.8 -0.526,5.644 -0.526,8.532 v 64.129 c 0,4.705 -3.828,8.532 -8.532,8.532 h -9.679 l -8.765,-52.59 c -1.189,-7.137 0.811,-14.396 5.488,-19.916 z m 20.457,112.071 c 0,-4.142 -3.358,-7.5 -7.5,-7.5 -4.142,0 -7.5,3.358 -7.5,7.5 v 0.516 h -4.524 c -3.537,0 -6.927,-1.506 -9.303,-4.131 -2.407,-2.66 -3.533,-6.115 -3.171,-9.729 0.63,-6.292 6.611,-11.22 13.617,-11.22 h 10.88 c 12.976,0 23.532,-10.557 23.532,-23.532 V 87.66 c 0,-31.225 25.404,-56.629 56.629,-56.629 h 72.145 c 26.315,0 43.24,-6.642 52.528,-11.913 6.738,20.171 5.829,38.083 -2.754,51.099 -7.415,11.245 -20.028,17.959 -33.741,17.959 H 199.889 c -4.142,0 -7.5,3.358 -7.5,7.5 0,4.142 3.358,7.5 7.5,7.5 h 120.238 c 5.707,0 11.272,-0.865 16.548,-2.488 v 51.101 c 0,12.976 10.557,23.532 23.532,23.532 h 12.024 c 3.537,0 6.928,1.505 9.303,4.13 2.407,2.659 3.533,6.115 3.171,9.73 -0.629,6.292 -6.61,11.22 -13.616,11.22 h -3.385 v -0.439 c 0,-4.141 -3.356,-7.499 -7.497,-7.5 0,0 -0.002,0 -0.003,0 -4.14,0 -7.497,3.354 -7.5,7.494 -0.039,53.286 -43.421,96.638 -96.706,96.638 -53.326,0.001 -96.709,-43.382 -96.709,-96.708 z m 96.709,111.709 c 17.412,0 33.906,-4.012 48.613,-11.153 v 24.179 l -48.613,27.007 -48.613,-27.007 v -24.172 c 14.706,7.137 31.199,11.146 48.613,11.146 z m -27.56,71.058 c -1.458,1.822 -3.541,2.946 -5.864,3.165 -2.32,0.221 -4.579,-0.497 -6.351,-2.016 l -39.074,-33.493 9.669,-19.338 c 0.024,-0.049 0.099,-0.197 0.31,-0.262 0.213,-0.066 0.356,0.016 0.403,0.042 l 57.067,31.704 z m 67.336,1.148 c -1.772,1.519 -4.027,2.236 -6.351,2.016 -2.324,-0.218 -4.406,-1.342 -5.864,-3.165 L 267.4,362.453 324.467,330.749 c 0.047,-0.026 0.194,-0.108 0.403,-0.042 0.211,0.065 0.285,0.214 0.31,0.262 l 9.669,19.338 z"
     inkscape:connector-curvature="0" /><path
     id="path42"
     d="m 344.173,384.772 c -4.142,0 -7.5,3.358 -7.5,7.5 v 112.227 c 0,4.142 3.358,7.5 7.5,7.5 4.142,0 7.5,-3.358 7.5,-7.5 V 392.272 c 0,-4.142 -3.358,-7.5 -7.5,-7.5 z"
     inkscape:connector-curvature="0" /><path
     id="path44"
     d="m 256.078,400.805 h -0.08 c -4.142,0 -7.46,3.358 -7.46,7.5 0,4.142 3.398,7.5 7.54,7.5 4.142,0 7.5,-3.358 7.5,-7.5 0,-4.142 -3.358,-7.5 -7.5,-7.5 z"
     inkscape:connector-curvature="0" /><path
     id="path46"
     d="m 256.078,496.998 h -0.08 c -4.142,0 -7.46,3.358 -7.46,7.5 0,4.142 3.398,7.5 7.54,7.5 4.142,0 7.5,-3.358 7.5,-7.5 0,-4.142 -3.358,-7.5 -7.5,-7.5 z"
     inkscape:connector-curvature="0" /><path
     id="path48"
     d="m 256.078,448.901 h -0.08 c -4.142,0 -7.46,3.358 -7.46,7.5 0,4.142 3.398,7.5 7.54,7.5 4.142,0 7.5,-3.358 7.5,-7.5 0,-4.142 -3.358,-7.5 -7.5,-7.5 z"
     inkscape:connector-curvature="0" /><path
     id="path50"
     d="m 215.401,184.55 v -8.016 c 0,-4.142 -3.358,-7.5 -7.5,-7.5 -4.142,0 -7.5,3.358 -7.5,7.5 v 8.016 c 0,4.142 3.358,7.5 7.5,7.5 4.142,0 7.5,-3.358 7.5,-7.5 z"
     inkscape:connector-curvature="0" /><path
     id="path52"
     d="m 304.095,169.034 c -4.142,0 -7.5,3.358 -7.5,7.5 v 8.016 c 0,4.142 3.358,7.5 7.5,7.5 4.142,0 7.5,-3.358 7.5,-7.5 v -8.016 c 0,-4.142 -3.358,-7.5 -7.5,-7.5 z"
     inkscape:connector-curvature="0" /><path
     id="path54"
     d="m 223.417,151.789 c 0,-4.142 -3.358,-7.5 -7.5,-7.5 h -16.032 c -4.142,0 -7.5,3.358 -7.5,7.5 0,4.142 3.358,7.5 7.5,7.5 h 16.032 c 4.143,0 7.5,-3.358 7.5,-7.5 z"
     inkscape:connector-curvature="0" /><path
     id="path56"
     d="m 296.079,159.289 h 16.032 c 4.142,0 7.5,-3.358 7.5,-7.5 0,-4.142 -3.358,-7.5 -7.5,-7.5 h -16.032 c -4.142,0 -7.5,3.358 -7.5,7.5 0,4.142 3.358,7.5 7.5,7.5 z"
     inkscape:connector-curvature="0" /><path
     id="path58"
     d="m 299.57,220.594 c 0,-4.142 -3.358,-7.5 -7.5,-7.5 h -72.145 c -4.142,0 -7.5,3.358 -7.5,7.5 0,21.816 19.546,39.564 43.572,39.564 24.026,0 43.573,-17.748 43.573,-39.564 z m -70.783,7.5 h 54.422 c -3.696,9.889 -14.497,17.064 -27.211,17.064 -12.714,0 -23.515,-7.175 -27.211,-17.064 z"
     inkscape:connector-curvature="0" /></g></svg>