<?xml version="1.0" encoding="UTF-8" standalone="no"?>
<!-- Generator: Adobe Illustrator 19.0.0, SVG Export Plug-In . SVG Version: 6.00 Build 0)  -->

<svg
   xmlns:osb="http://www.openswatchbook.org/uri/2009/osb"
   xmlns:dc="http://purl.org/dc/elements/1.1/"
   xmlns:cc="http://creativecommons.org/ns#"
   xmlns:rdf="http://www.w3.org/1999/02/22-rdf-syntax-ns#"
   xmlns:svg="http://www.w3.org/2000/svg"
   xmlns="http://www.w3.org/2000/svg"
   xmlns:xlink="http://www.w3.org/1999/xlink"
   xmlns:sodipodi="http://sodipodi.sourceforge.net/DTD/sodipodi-0.dtd"
   xmlns:inkscape="http://www.inkscape.org/namespaces/inkscape"
   version="1.1"
   id="Capa_1"
   x="0px"
   y="0px"
   viewBox="0 0 511.999 511.999"
   style="enable-background:new 0 0 511.999 511.999;"
   xml:space="preserve"
   sodipodi:docname="15.svg"
   inkscape:version="0.92.4 (5da689c313, 2019-01-14)"><metadata
   id="metadata95"><rdf:RDF><cc:Work
       rdf:about=""><dc:format>image/svg+xml</dc:format><dc:type
         rdf:resource="http://purl.org/dc/dcmitype/StillImage" /><dc:title /></cc:Work></rdf:RDF></metadata><defs
   id="defs93"><linearGradient
     id="linearGradient2457"
     osb:paint="solid"><stop
       style="stop-color:#000000;stop-opacity:1;"
       offset="0"
       id="stop2455" /></linearGradient><linearGradient
     inkscape:collect="always"
     xlink:href="#linearGradient2457"
     id="linearGradient2459-6-2"
     x1="1442.3572"
     y1="-339.5119"
     x2="1514.9286"
     y2="-339.5119"
     gradientUnits="userSpaceOnUse"
     gradientTransform="matrix(6.4669274,0,0,9.6773016,-9356.1743,3517.6929)" /></defs><sodipodi:namedview
   pagecolor="#ffffff"
   bordercolor="#666666"
   borderopacity="1"
   objecttolerance="10"
   gridtolerance="10"
   guidetolerance="10"
   inkscape:pageopacity="0"
   inkscape:pageshadow="2"
   inkscape:window-width="1920"
   inkscape:window-height="986"
   id="namedview91"
   showgrid="false"
   inkscape:zoom="1.3037307"
   inkscape:cx="-87.797664"
   inkscape:cy="318.09098"
   inkscape:window-x="-11"
   inkscape:window-y="-11"
   inkscape:window-maximized="1"
   inkscape:current-layer="g1046" />























<g
   id="g60">
</g>
<g
   id="g62">
</g>
<g
   id="g64">
</g>
<g
   id="g66">
</g>
<g
   id="g68">
</g>
<g
   id="g70">
</g>
<g
   id="g72">
</g>
<g
   id="g74">
</g>
<g
   id="g76">
</g>
<g
   id="g78">
</g>
<g
   id="g80">
</g>
<g
   id="g82">
</g>
<g
   id="g84">
</g>
<g
   id="g86">
</g>
<g
   id="g88">
</g>
<g
   id="g1046"
   transform="matrix(0.55886315,0,0,0.55886315,157.54779,132.77619)"><rect
   y="-104.38158"
   x="-28.555799"
   height="673.03345"
   width="469.31418"
   id="rect2447-0-9"
   style="display:inline;fill:none;fill-opacity:1;stroke:url(#linearGradient2459-6-2);stroke-width:25.31489563;stroke-miterlimit:4;stroke-dasharray:none;stroke-opacity:1" /><text
   id="text2485-9"
   y="522.54254"
   x="56.292027"
   style="font-style:normal;font-weight:normal;font-size:76.99105835px;line-height:1.25;font-family:sans-serif;letter-spacing:0px;word-spacing:0px;display:inline;fill:#000000;fill-opacity:1;stroke:none;stroke-width:1.9247762"
   xml:space="preserve"><tspan
     style="stroke-width:1.9247762"
     y="522.54254"
     x="56.292027"
     id="tspan2483-7"
     sodipodi:role="line">ESTELA</tspan></text>


<g
   transform="matrix(0.95056434,0,0,0.95056434,-37.243181,-45.640994)"
   id="g892"><path
     inkscape:connector-curvature="0"
     id="path2-2"
     d="M 394.764,283.46 C 381.142,266.749 358.922,243.972 344.179,231.952 H 167.824 c -14.743,12.02 -36.963,34.797 -50.585,51.508 -8.937,10.963 -6.134,26.436 6.067,34.374 19.056,12.398 49.686,30.184 84.599,42.292 h 96.194 c 34.913,-12.107 65.543,-29.893 84.599,-42.292 12.2,-7.938 15.003,-23.411 6.066,-34.374 z"
     style="fill:#5a4650" /><path
     inkscape:connector-curvature="0"
     id="path4-1"
     d="M 408.283,396.981 325.491,367.76 c -12.82,-4.525 -21.393,-16.642 -21.393,-30.237 v -49.459 h -96.194 v 49.459 c 0,13.595 -8.573,25.712 -21.393,30.236 l -82.793,29.221 c -19.229,6.787 -32.089,24.962 -32.089,45.354 V 504.5 h 368.742 v -62.165 c 0.001,-20.392 -12.858,-38.567 -32.088,-45.354 z"
     style="fill:#b67f5f" /><path
     inkscape:connector-curvature="0"
     id="path6-9"
     d="m 408.283,396.981 -64.105,-22.625 v 33.951 c 0,13.282 -10.767,24.048 -24.048,24.048 H 191.872 c -13.282,0 -24.048,-10.767 -24.048,-24.048 v -33.951 l -64.105,22.625 C 84.489,403.768 71.63,421.943 71.63,442.335 V 504.5 h 368.742 v -62.165 c 0,-20.392 -12.859,-38.567 -32.089,-45.354 z"
     style="fill:#ffe17d" /><path
     inkscape:connector-curvature="0"
     id="path8"
     d="m 207.904,326.052 c 14.744,6.465 30.994,10.11 48.097,10.11 17.103,0 33.353,-3.645 48.097,-10.11 v -37.987 h -96.194 z"
     style="fill:#a06e50" /><circle
     id="circle10"
     r="136.27"
     cy="143.77"
     cx="256.00101"
     style="fill:#5a4650" /><path
     inkscape:connector-curvature="0"
     id="path12-8"
     d="m 256.001,312.113 v 0 c -57.554,0 -104.21,-46.656 -104.21,-104.21 v -40.081 c 0,-57.553 46.656,-104.21 104.21,-104.21 h 104.21 v 144.29 c 0,57.555 -46.657,104.211 -104.21,104.211 z"
     style="fill:#cd916e" /><path
     inkscape:connector-curvature="0"
     id="path14"
     d="M 360.211,167.823 V 63.613 h -104.21 c -28.084,0 -53.414,11.265 -72.145,29.337 v -0.216 c -0.826,0.794 -3.377,3.436 -3.85,3.941 l 0.068,0.064 c -17.461,18.625 -28.283,43.54 -28.283,71.085 v 40.081 c 0,57.553 46.656,104.21 104.21,104.21 5.466,0 10.793,-0.547 16.032,-1.359 -49.921,-7.729 -88.177,-50.764 -88.177,-102.851 v -74.746 c 0,-13.016 14.61,-20.482 25.276,-13.022 44.229,30.931 96.695,47.686 151.079,47.686 z"
     style="fill:#b67f5f" /><path
     inkscape:connector-curvature="0"
     id="path16-2"
     d="M 392.165,141.596 C 390.989,67.35 330.528,7.5 256.001,7.5 c -35.26,0 -67.286,13.506 -91.482,35.48 43.62,60.997 114.985,100.794 195.692,100.794 10.841,0 21.493,-0.788 31.954,-2.178 z"
     style="fill:#64505a" /><g
     id="g22"><path
       inkscape:connector-curvature="0"
       id="path18-8"
       d="m 207.904,183.855 c 13.45,0 24.925,8.299 29.687,20.04 1.508,-3.718 2.378,-7.765 2.378,-12.024 0,-17.709 -14.355,-32.065 -32.065,-32.065 -17.71,0 -32.065,14.356 -32.065,32.065 0,4.259 0.87,8.306 2.378,12.024 4.762,-11.741 16.237,-20.04 29.687,-20.04 z"
       style="fill:#b67f5f" /><path
       inkscape:connector-curvature="0"
       id="path20-1"
       d="m 304.098,183.855 c 13.45,0 24.925,8.299 29.687,20.04 1.508,-3.718 2.378,-7.765 2.378,-12.024 0,-17.709 -14.355,-32.065 -32.065,-32.065 -17.71,0 -32.065,14.356 -32.065,32.065 0,4.259 0.87,8.306 2.378,12.024 4.762,-11.741 16.237,-20.04 29.687,-20.04 z"
       style="fill:#b67f5f" /></g><path
     inkscape:connector-curvature="0"
     id="path24-1"
     d="m 207.904,200.068 c 4.142,0 7.5,-3.358 7.5,-7.5 v -8.016 c 0,-4.142 -3.358,-7.5 -7.5,-7.5 -4.142,0 -7.5,3.358 -7.5,7.5 v 8.016 c 0,4.142 3.358,7.5 7.5,7.5 z" /><path
     inkscape:connector-curvature="0"
     id="path26-7"
     d="m 304.098,200.068 c 4.142,0 7.5,-3.358 7.5,-7.5 v -8.016 c 0,-4.142 -3.358,-7.5 -7.5,-7.5 -4.142,0 -7.5,3.358 -7.5,7.5 v 8.016 c 0,4.142 3.358,7.5 7.5,7.5 z" /><path
     inkscape:connector-curvature="0"
     id="path28"
     d="m 410.779,389.909 -80.678,-28.475 c 26.184,-11.604 48.826,-26.148 64.079,-37.048 7.009,-5.009 11.604,-12.442 12.938,-20.931 1.323,-8.417 -0.741,-16.815 -5.812,-23.648 -10.232,-13.788 -22.814,-27.561 -37.433,-40.993 23.166,-26.273 35.902,-59.924 35.902,-95.04 C 399.775,64.497 335.278,0 256.001,0 176.724,0 112.227,64.497 112.227,143.774 c 0,35.066 12.747,68.778 35.901,95.041 -14.618,13.432 -27.2,27.205 -37.432,40.992 -5.071,6.833 -7.135,15.231 -5.812,23.648 1.334,8.489 5.929,15.922 12.938,20.931 15.253,10.9 37.895,25.444 64.078,37.048 l -80.678,28.474 c -22.187,7.83 -37.093,28.899 -37.093,52.427 V 504.5 c 0,4.142 3.358,7.5 7.5,7.5 4.142,0 7.5,-3.358 7.5,-7.5 v -62.165 c 0,-17.18 10.885,-32.564 27.085,-38.282 l 54.108,-19.097 v 23.351 c 0,17.396 14.152,31.548 31.548,31.548 h 0.516 V 504.5 c 0,4.142 3.358,7.5 7.5,7.5 4.142,0 7.5,-3.358 7.5,-7.5 v -64.645 h 8.533 c 4.142,0 7.5,-3.358 7.5,-7.5 0,-4.142 -3.358,-7.5 -7.5,-7.5 H 191.87 c -9.125,0 -16.548,-7.423 -16.548,-16.548 v -28.645 l 13.684,-4.83 c 15.789,-5.573 26.397,-20.566 26.397,-37.309 v -25.548 c 12.589,4.928 26.282,7.638 40.597,7.638 14.315,0 28.007,-2.71 40.597,-7.638 v 25.548 c 0,16.743 10.608,31.736 26.397,37.309 l 13.684,4.83 v 28.645 c 0,9.125 -7.423,16.548 -16.548,16.548 h -72.146 c -4.142,0 -7.5,3.358 -7.5,7.5 0,4.142 3.358,7.5 7.5,7.5 h 72.146 c 17.396,0 31.548,-14.152 31.548,-31.548 v -23.351 l 54.108,19.097 c 16.201,5.718 27.085,21.102 27.085,38.282 V 504.5 c 0,4.142 3.358,7.5 7.5,7.5 4.142,0 7.5,-3.358 7.5,-7.5 v -62.165 c 0.001,-23.527 -14.906,-44.596 -37.092,-52.426 z M 256.001,15 c 71.006,0 128.774,57.768 128.774,128.774 0,22.71 -5.951,44.734 -17.065,64.083 v -57.256 c 0.173,0 0.343,0.005 0.516,0.005 4.142,0 7.5,-3.358 7.5,-7.5 0,-4.142 -3.358,-7.5 -7.5,-7.5 -62.788,0 -108.183,-20.323 -135.208,-37.372 -29.375,-18.531 -44.076,-37.338 -44.221,-37.526 -2.523,-3.278 -7.226,-3.895 -10.508,-1.376 -3.287,2.521 -3.907,7.229 -1.386,10.516 0.642,0.837 16.093,20.739 47.487,40.678 26.506,16.834 69.583,36.63 128.32,39.667 v 10.13 h -24.564 c -0.065,0 -0.129,0.008 -0.193,0.01 -6.637,-5.033 -14.902,-8.026 -23.855,-8.026 -16.311,0 -30.346,9.923 -36.391,24.048 h -23.411 c -6.046,-14.125 -20.08,-24.048 -36.391,-24.048 -8.953,0 -17.218,2.993 -23.855,8.026 -0.065,-0.002 -0.128,-0.01 -0.193,-0.01 h -24.293 c 1.419,-20.757 8.779,-39.033 21.968,-54.399 2.698,-3.143 2.336,-7.878 -0.807,-10.576 -3.143,-2.698 -7.879,-2.336 -10.576,0.807 -17.157,19.99 -25.856,44.103 -25.856,71.669 v 40.034 C 133.179,188.5 127.228,166.454 127.228,143.776 127.227,72.768 184.995,15 256.001,15 Z m 48.097,152.307 c 13.545,0 24.564,11.02 24.564,24.564 0,13.544 -11.02,24.564 -24.564,24.564 -13.544,0 -24.564,-11.02 -24.564,-24.564 0,-13.544 11.019,-24.564 24.564,-24.564 z m -96.194,0 c 13.545,0 24.564,11.02 24.564,24.564 0,13.544 -11.02,24.564 -24.564,24.564 -13.544,0 -24.564,-11.02 -24.564,-24.564 0,-13.544 11.019,-24.564 24.564,-24.564 z m -7.5,170.216 c 0,4.991 -1.531,9.723 -4.195,13.687 -28.484,-11.517 -53.421,-27.419 -69.666,-39.027 -3.708,-2.649 -6.137,-6.576 -6.842,-11.056 -0.693,-4.409 0.386,-8.805 3.039,-12.379 8.696,-11.717 19.234,-23.463 31.391,-35.012 9.697,21.469 25.986,39.346 46.272,51.034 v 32.753 z m -41.112,-129.62 v -32.581 h 12.689 c -2.33,5.039 -3.641,10.642 -3.641,16.548 0,21.816 17.749,39.564 39.564,39.564 21.815,0 39.564,-17.749 39.564,-39.564 0,-0.173 -0.011,-0.344 -0.013,-0.516 h 17.091 c -0.002,0.173 -0.013,0.343 -0.013,0.516 0,21.816 17.749,39.564 39.564,39.564 21.815,0 39.564,-17.749 39.564,-39.564 0,-5.906 -1.31,-11.51 -3.641,-16.548 h 12.689 v 32.581 c 0,53.326 -43.384,96.709 -96.709,96.709 -53.325,0 -96.708,-43.383 -96.708,-96.709 z m 198.578,45.832 c 12.157,11.549 22.695,23.295 31.391,35.012 2.653,3.574 3.732,7.971 3.039,12.379 -0.705,4.48 -3.134,8.407 -6.841,11.056 -16.245,11.609 -41.183,27.51 -69.667,39.027 -2.664,-3.963 -4.195,-8.695 -4.195,-13.687 V 304.77 c 20.287,-11.689 36.576,-29.566 46.273,-51.035 z" /><path
     inkscape:connector-curvature="0"
     id="path30"
     d="m 274.782,242.645 c -2.737,2.701 -9.298,5.855 -18.781,5.855 -9.483,0 -16.043,-3.154 -18.781,-5.855 -2.95,-2.91 -7.698,-2.877 -10.606,0.071 -2.909,2.948 -2.877,7.697 0.071,10.606 6.459,6.373 17.418,10.177 29.316,10.177 11.898,0 22.857,-3.805 29.316,-10.177 2.949,-2.909 2.98,-7.658 0.071,-10.606 -2.909,-2.948 -7.658,-2.98 -10.606,-0.071 z" /><path
     inkscape:connector-curvature="0"
     id="path32"
     d="m 232.033,456.919 h -0.08 c -4.142,0 -7.46,3.358 -7.46,7.5 0,4.142 3.398,7.5 7.54,7.5 4.142,0 7.5,-3.358 7.5,-7.5 0,-4.142 -3.358,-7.5 -7.5,-7.5 z" /></g></g></svg>