<?xml version="1.0" encoding="UTF-8" standalone="no"?>
<!-- Generator: Adobe Illustrator 19.0.0, SVG Export Plug-In . SVG Version: 6.00 Build 0)  -->

<svg
   xmlns:osb="http://www.openswatchbook.org/uri/2009/osb"
   xmlns:dc="http://purl.org/dc/elements/1.1/"
   xmlns:cc="http://creativecommons.org/ns#"
   xmlns:rdf="http://www.w3.org/1999/02/22-rdf-syntax-ns#"
   xmlns:svg="http://www.w3.org/2000/svg"
   xmlns="http://www.w3.org/2000/svg"
   xmlns:xlink="http://www.w3.org/1999/xlink"
   xmlns:sodipodi="http://sodipodi.sourceforge.net/DTD/sodipodi-0.dtd"
   xmlns:inkscape="http://www.inkscape.org/namespaces/inkscape"
   version="1.1"
   id="Capa_1"
   x="0px"
   y="0px"
   viewBox="0 0 511.999 511.999"
   style="enable-background:new 0 0 511.999 511.999;"
   xml:space="preserve"
   sodipodi:docname="18.svg"
   inkscape:version="0.92.4 (5da689c313, 2019-01-14)"><metadata
   id="metadata95"><rdf:RDF><cc:Work
       rdf:about=""><dc:format>image/svg+xml</dc:format><dc:type
         rdf:resource="http://purl.org/dc/dcmitype/StillImage" /><dc:title /></cc:Work></rdf:RDF></metadata><defs
   id="defs93"><linearGradient
     id="linearGradient2457"
     osb:paint="solid"><stop
       style="stop-color:#000000;stop-opacity:1;"
       offset="0"
       id="stop2455" /></linearGradient><linearGradient
     inkscape:collect="always"
     xlink:href="#linearGradient2457"
     id="linearGradient2459-6-2"
     x1="1442.3572"
     y1="-339.5119"
     x2="1514.9286"
     y2="-339.5119"
     gradientUnits="userSpaceOnUse"
     gradientTransform="matrix(6.4669274,0,0,9.6773016,-9356.1743,3517.6929)" /></defs><sodipodi:namedview
   pagecolor="#ffffff"
   bordercolor="#666666"
   borderopacity="1"
   objecttolerance="10"
   gridtolerance="10"
   guidetolerance="10"
   inkscape:pageopacity="0"
   inkscape:pageshadow="2"
   inkscape:window-width="1920"
   inkscape:window-height="986"
   id="namedview91"
   showgrid="false"
   inkscape:zoom="1.3037307"
   inkscape:cx="-87.797664"
   inkscape:cy="318.09098"
   inkscape:window-x="-11"
   inkscape:window-y="-11"
   inkscape:window-maximized="1"
   inkscape:current-layer="g1046" />























<g
   id="g60">
</g>
<g
   id="g62">
</g>
<g
   id="g64">
</g>
<g
   id="g66">
</g>
<g
   id="g68">
</g>
<g
   id="g70">
</g>
<g
   id="g72">
</g>
<g
   id="g74">
</g>
<g
   id="g76">
</g>
<g
   id="g78">
</g>
<g
   id="g80">
</g>
<g
   id="g82">
</g>
<g
   id="g84">
</g>
<g
   id="g86">
</g>
<g
   id="g88">
</g>
<g
   id="g1046"
   transform="matrix(0.55886315,0,0,0.55886315,157.54779,132.77619)"><rect
   y="-104.38158"
   x="-28.555799"
   height="673.03345"
   width="469.31418"
   id="rect2447-0-9"
   style="display:inline;fill:none;fill-opacity:1;stroke:url(#linearGradient2459-6-2);stroke-width:25.31489563;stroke-miterlimit:4;stroke-dasharray:none;stroke-opacity:1" /><text
   id="text2485-9"
   y="522.54254"
   x="112.02408"
   style="font-style:normal;font-weight:normal;font-size:76.99105835px;line-height:1.25;font-family:sans-serif;letter-spacing:0px;word-spacing:0px;display:inline;fill:#000000;fill-opacity:1;stroke:none;stroke-width:1.9247762"
   xml:space="preserve"><tspan
     style="stroke-width:1.9247762"
     y="522.54254"
     x="112.02408"
     id="tspan2483-7"
     sodipodi:role="line">TETE</tspan></text>


<g
   transform="matrix(0.90998782,0,0,0.90998782,-26.856047,-29.575142)"
   id="g901"><path
     inkscape:connector-curvature="0"
     id="path2"
     d="m 272.031,7.5 h -32.065 c -53.126,0 -96.193,43.067 -96.193,96.193 v 0 h 224.451 v 0 C 368.225,50.567 325.158,7.5 272.031,7.5 Z"
     style="fill:#ffe17d" /><path
     inkscape:connector-curvature="0"
     id="path4"
     d="m 413.861,358.071 -84.486,-24.849 c -10.235,-3.01 -17.263,-12.403 -17.263,-23.071 V 264.016 H 199.885 v 46.135 c 0,10.668 -7.028,20.061 -17.263,23.071 L 98.136,358.071 C 77.667,364.091 63.61,382.877 63.61,404.214 V 504.5 H 448.384 V 404.214 c 10e-4,-21.337 -14.055,-40.123 -34.523,-46.143 z"
     style="fill:#b67f5f" /><path
     inkscape:connector-curvature="0"
     id="path6"
     d="m 413.861,358.071 -71.352,-20.986 c -7.91,40.58 -43.615,71.221 -86.51,71.221 -42.895,0 -78.6,-30.641 -86.51,-71.221 l -71.352,20.986 c -20.469,6.02 -34.526,24.806 -34.526,46.142 V 504.5 H 448.385 V 404.213 c 0,-21.336 -14.056,-40.122 -34.524,-46.142 z"
     style="fill:#e6646e" /><path
     inkscape:connector-curvature="0"
     id="path8-2"
     d="m 199.885,297.932 c 16.842,8.996 35.938,14.181 56.113,14.181 20.175,0 39.271,-5.185 56.113,-14.181 V 264.016 H 199.885 Z"
     style="fill:#a06e50" /><path
     inkscape:connector-curvature="0"
     id="path10"
     d="m 372.233,151.79 h -12.024 v -48.097 h -208.42 v 48.097 h -12.024 c -11.068,0 -20.04,8.972 -20.04,20.04 0,11.068 8.972,20.04 20.04,20.04 h 12.429 c 4.106,53.795 48.958,96.194 103.805,96.194 54.847,0 99.699,-42.398 103.805,-96.194 h 12.429 c 11.068,0 20.04,-8.973 20.04,-20.04 -0.001,-11.068 -8.972,-20.04 -20.04,-20.04 z"
     style="fill:#cd916e" /><path
     inkscape:connector-curvature="0"
     id="path12"
     d="M 344.176,143.774 V 119.726 H 151.788 v 32.065 h -10.88 c -10.483,0 -20.035,7.542 -21.08,17.973 -1.201,11.996 8.186,22.108 19.936,22.108 h 12.429 c 4.106,53.795 48.957,96.194 103.805,96.194 5.483,0 10.83,-0.534 16.083,-1.351 -49.946,-7.708 -88.228,-50.754 -88.228,-102.859 v 0 c 0,-13.282 10.767,-24.048 24.048,-24.048 h 120.242 c 8.856,-0.002 16.033,-7.179 16.033,-16.034 z"
     style="fill:#b67f5f" /><rect
     id="rect14"
     height="32.060001"
     width="208.42"
     style="fill:#e6646e"
     y="103.69"
     x="151.78799" /><path
     inkscape:connector-curvature="0"
     id="path16-9"
     d="M 284.055,8.331 C 280.108,7.838 276.112,7.5 272.031,7.5 h -32.065 c -53.126,0 -96.194,43.067 -96.194,96.193 v 0 h 56.113 v 0 c 0,-49.044 36.733,-89.433 84.17,-95.362 z"
     style="fill:#ffd164" /><path
     inkscape:connector-curvature="0"
     id="path18-8"
     d="m 146.348,343.892 c 10.909,50.557 55.83,88.463 109.651,88.463 53.821,0 98.743,-37.906 109.651,-88.463 l -23.141,-6.806 c -7.91,40.58 -43.615,71.221 -86.51,71.221 -42.895,0 -78.6,-30.641 -86.51,-71.221 z"
     style="fill:#dc4655" /><path
     inkscape:connector-curvature="0"
     id="path20-2"
     d="m 207.902,152.307 c -4.143,0 -7.5,3.358 -7.5,7.5 v 8.016 c 0,4.142 3.357,7.5 7.5,7.5 4.143,0 7.5,-3.358 7.5,-7.5 v -8.016 c 0,-4.142 -3.357,-7.5 -7.5,-7.5 z" /><path
     inkscape:connector-curvature="0"
     id="path22"
     d="m 304.095,152.307 c -4.143,0 -7.5,3.358 -7.5,7.5 v 8.016 c 0,4.142 3.357,7.5 7.5,7.5 4.143,0 7.5,-3.358 7.5,-7.5 v -8.016 c 0,-4.142 -3.357,-7.5 -7.5,-7.5 z" /><path
     inkscape:connector-curvature="0"
     id="path24"
     d="m 415.977,350.876 -84.485,-24.849 c -6.994,-2.057 -11.879,-8.585 -11.879,-15.876 v -34.528 c 25.013,-17.396 42.617,-44.741 47.019,-76.253 h 4.457 c 14.618,0 27.156,-10.861 28.544,-24.727 0.778,-7.771 -1.764,-15.53 -6.974,-21.288 -5.214,-5.762 -12.658,-9.066 -20.426,-9.066 h -4.523 v -33.097 h 0.516 c 4.143,0 7.5,-3.358 7.5,-7.5 C 375.725,46.517 329.208,0 272.031,0 H 239.967 C 185.312,0 140.403,42.505 136.547,96.193 H 79.645 c -4.143,0 -7.5,3.358 -7.5,7.5 0,4.142 3.357,7.5 7.5,7.5 h 64.129 0.516 v 33.097 h -3.378 c -14.617,0 -27.155,10.861 -28.545,24.725 -0.778,7.771 1.763,15.53 6.973,21.289 5.214,5.762 12.659,9.067 20.427,9.067 h 5.598 c 4.398,31.522 22.003,58.87 47.022,76.263 v 34.517 c 0,7.291 -4.885,13.819 -11.879,15.876 l -84.485,24.849 c -23.498,6.911 -39.909,28.845 -39.909,53.338 V 504.5 c 0,4.142 3.357,7.5 7.5,7.5 4.143,0 7.5,-3.358 7.5,-7.5 V 404.214 c 0,-17.885 11.983,-33.901 29.142,-38.947 l 24.686,-7.26 c 0.104,0.358 0.198,0.722 0.305,1.077 0.973,3.252 3.954,5.353 7.183,5.353 0.711,0 1.436,-0.102 2.151,-0.316 3.969,-1.187 6.224,-5.366 5.037,-9.334 -0.1,-0.334 -0.189,-0.676 -0.286,-1.012 l 24.698,-7.264 c 11.622,40.556 49.187,69.297 91.972,69.297 15.313,0 29.946,-3.511 43.495,-10.437 3.688,-1.885 5.149,-6.404 3.264,-10.092 -1.885,-3.688 -6.4,-5.149 -10.092,-3.265 -11.414,5.834 -23.75,8.793 -36.667,8.793 -36.117,0 -67.822,-24.282 -77.584,-58.529 l 6.324,-1.86 c 13.334,-3.921 22.646,-16.368 22.646,-30.267 v -25.733 c 14.705,7.137 31.199,11.146 48.613,11.146 17.412,0 33.906,-4.012 48.613,-11.153 v 25.74 c 0,13.899 9.313,26.345 22.646,30.267 l 6.328,1.861 c -3.233,11.33 -8.947,21.889 -16.755,30.844 -2.722,3.122 -2.397,7.86 0.725,10.582 1.421,1.239 3.177,1.847 4.926,1.847 2.092,0 4.173,-0.871 5.656,-2.571 9.231,-10.588 15.994,-23.07 19.837,-36.47 l 23.452,6.898 c -0.858,2.998 -1.819,5.969 -2.901,8.874 -1.447,3.881 0.526,8.2 4.408,9.647 0.863,0.322 1.748,0.474 2.618,0.474 3.042,0 5.904,-1.865 7.028,-4.883 1.206,-3.235 2.277,-6.543 3.236,-9.88 l 25.927,7.625 c 17.158,5.046 29.142,21.062 29.142,38.947 V 504.5 c 0,4.142 3.357,7.5 7.5,7.5 4.143,0 7.5,-3.358 7.5,-7.5 V 404.214 c -0.002,-24.493 -16.412,-46.427 -39.91,-53.338 z M 239.967,15 h 32.064 c 34.697,0 64.799,20.029 79.365,49.129 H 336.16 c -4.143,0 -7.5,3.358 -7.5,7.5 0,4.142 3.357,7.5 7.5,7.5 h 21.093 c 1.585,5.491 2.664,11.195 3.157,17.064 H 151.588 C 155.407,50.784 193.586,15 239.967,15 Z m -80.679,168.855 c 0,-4.142 -3.357,-7.5 -7.5,-7.5 -4.143,0 -7.5,3.358 -7.5,7.5 v 0.516 h -4.523 c -3.537,0 -6.928,-1.506 -9.304,-4.131 -2.406,-2.66 -3.532,-6.115 -3.17,-9.729 0.63,-6.292 6.612,-11.221 13.619,-11.221 h 10.878 c 1.989,0 3.896,-0.79 5.303,-2.197 1.407,-1.406 2.197,-3.314 2.197,-5.303 v -8.532 h 152.823 c 4.143,0 7.5,-3.358 7.5,-7.5 0,-4.142 -3.357,-7.5 -7.5,-7.5 H 159.288 v -17.065 h 193.42 v 17.065 h -8.53 c -4.143,0 -7.5,3.358 -7.5,7.5 0,4.142 3.357,7.5 7.5,7.5 h 8.53 v 8.532 c 0,4.142 3.357,7.5 7.5,7.5 h 12.023 c 3.537,0 6.928,1.505 9.304,4.131 2.406,2.659 3.532,6.114 3.17,9.729 -0.63,6.292 -6.611,11.221 -13.618,11.221 h -3.383 v -0.439 c 0,-4.141 -3.356,-7.499 -7.497,-7.5 -10e-4,0 -0.002,0 -0.003,0 -4.14,0 -7.497,3.354 -7.5,7.495 -0.039,53.286 -43.421,96.638 -96.706,96.638 -53.325,-10e-4 -96.71,-43.384 -96.71,-96.71 z" /><path
     inkscape:connector-curvature="0"
     id="path26"
     d="m 236.382,439.41 c -4.945,-0.779 -9.887,-1.878 -14.687,-3.267 -3.979,-1.151 -8.138,1.14 -9.289,5.12 -1.151,3.979 1.141,8.138 5.119,9.29 5.401,1.563 10.96,2.799 16.522,3.675 0.396,0.063 0.788,0.092 1.176,0.092 3.628,0 6.817,-2.638 7.4,-6.334 0.645,-4.092 -2.149,-7.931 -6.241,-8.576 z" /><path
     inkscape:connector-curvature="0"
     id="path28-3"
     d="m 281.298,438.089 c -4.879,1.069 -9.883,1.841 -14.873,2.295 -4.125,0.375 -7.165,4.024 -6.789,8.149 0.354,3.894 3.625,6.82 7.46,6.82 0.228,0 0.458,-0.01 0.688,-0.031 5.61,-0.511 11.237,-1.379 16.725,-2.582 4.046,-0.886 6.607,-4.885 5.721,-8.931 -0.885,-4.045 -4.878,-6.607 -8.932,-5.72 z" /><path
     inkscape:connector-curvature="0"
     id="path30-3"
     d="m 194.116,424.247 c -4.309,-2.539 -8.505,-5.377 -12.472,-8.437 -3.28,-2.53 -7.989,-1.92 -10.519,1.358 -2.53,3.28 -1.922,7.99 1.358,10.52 4.458,3.438 9.174,6.628 14.017,9.482 1.195,0.704 2.507,1.039 3.801,1.039 2.568,0 5.07,-1.32 6.469,-3.693 2.102,-3.568 0.915,-8.166 -2.654,-10.269 z" /><path
     inkscape:connector-curvature="0"
     id="path32-6"
     d="m 322.586,420.44 c -4.156,2.792 -8.525,5.348 -12.986,7.596 -3.699,1.864 -5.187,6.374 -3.323,10.073 1.319,2.617 3.961,4.126 6.704,4.126 1.135,0 2.287,-0.258 3.369,-0.804 5.017,-2.528 9.929,-5.401 14.602,-8.541 3.438,-2.31 4.353,-6.97 2.043,-10.408 -2.311,-3.438 -6.973,-4.352 -10.409,-2.042 z" /><path
     inkscape:connector-curvature="0"
     id="path34"
     d="m 151.757,382.257 c -2.135,-3.549 -6.743,-4.697 -10.293,-2.563 -3.55,2.135 -4.696,6.743 -2.563,10.292 2.896,4.817 6.127,9.502 9.601,13.926 1.479,1.884 3.681,2.868 5.903,2.868 1.621,0 3.254,-0.523 4.627,-1.602 3.258,-2.558 3.825,-7.273 1.267,-10.531 -3.091,-3.935 -5.965,-8.105 -8.542,-12.39 z" /><path
     inkscape:connector-curvature="0"
     id="path36"
     d="m 365.04,387.019 c -3.401,-2.362 -8.074,-1.518 -10.438,1.885 -2.854,4.112 -5.996,8.086 -9.338,11.812 -2.766,3.083 -2.509,7.825 0.575,10.591 1.433,1.285 3.222,1.917 5.005,1.917 2.057,0 4.104,-0.841 5.586,-2.492 3.756,-4.187 7.286,-8.653 10.494,-13.275 2.364,-3.403 1.52,-8.077 -1.884,-10.438 z" /><path
     inkscape:connector-curvature="0"
     id="path38"
     d="m 272.031,208.419 h -16.032 c -4.143,0 -7.5,3.358 -7.5,7.5 0,4.142 3.357,7.5 7.5,7.5 h 16.032 c 4.143,0 7.5,-3.358 7.5,-7.5 0,-4.142 -3.358,-7.5 -7.5,-7.5 z" /></g></g></svg>