<?xml version="1.0" encoding="UTF-8" standalone="no"?>
<!-- Generator: Adobe Illustrator 19.0.0, SVG Export Plug-In . SVG Version: 6.00 Build 0)  -->

<svg
   xmlns:osb="http://www.openswatchbook.org/uri/2009/osb"
   xmlns:dc="http://purl.org/dc/elements/1.1/"
   xmlns:cc="http://creativecommons.org/ns#"
   xmlns:rdf="http://www.w3.org/1999/02/22-rdf-syntax-ns#"
   xmlns:svg="http://www.w3.org/2000/svg"
   xmlns="http://www.w3.org/2000/svg"
   xmlns:xlink="http://www.w3.org/1999/xlink"
   xmlns:sodipodi="http://sodipodi.sourceforge.net/DTD/sodipodi-0.dtd"
   xmlns:inkscape="http://www.inkscape.org/namespaces/inkscape"
   version="1.1"
   id="Capa_1"
   x="0px"
   y="0px"
   viewBox="0 0 511.999 511.999"
   style="enable-background:new 0 0 511.999 511.999;"
   xml:space="preserve"
   sodipodi:docname="2.svg"
   inkscape:version="0.92.4 (5da689c313, 2019-01-14)"><metadata
   id="metadata95"><rdf:RDF><cc:Work
       rdf:about=""><dc:format>image/svg+xml</dc:format><dc:type
         rdf:resource="http://purl.org/dc/dcmitype/StillImage" /><dc:title /></cc:Work></rdf:RDF></metadata><defs
   id="defs93"><linearGradient
     id="linearGradient2457"
     osb:paint="solid"><stop
       style="stop-color:#000000;stop-opacity:1;"
       offset="0"
       id="stop2455" /></linearGradient><linearGradient
     inkscape:collect="always"
     xlink:href="#linearGradient2457"
     id="linearGradient2459-6-2"
     x1="1442.3572"
     y1="-339.5119"
     x2="1514.9286"
     y2="-339.5119"
     gradientUnits="userSpaceOnUse"
     gradientTransform="matrix(6.4669274,0,0,9.6773016,-9356.1743,3517.6929)" /></defs><sodipodi:namedview
   pagecolor="#ffffff"
   bordercolor="#666666"
   borderopacity="1"
   objecttolerance="10"
   gridtolerance="10"
   guidetolerance="10"
   inkscape:pageopacity="0"
   inkscape:pageshadow="2"
   inkscape:window-width="1920"
   inkscape:window-height="986"
   id="namedview91"
   showgrid="false"
   inkscape:zoom="1.3037307"
   inkscape:cx="61.389588"
   inkscape:cy="256.72861"
   inkscape:window-x="-11"
   inkscape:window-y="-11"
   inkscape:window-maximized="1"
   inkscape:current-layer="g1046" />























<g
   id="g60">
</g>
<g
   id="g62">
</g>
<g
   id="g64">
</g>
<g
   id="g66">
</g>
<g
   id="g68">
</g>
<g
   id="g70">
</g>
<g
   id="g72">
</g>
<g
   id="g74">
</g>
<g
   id="g76">
</g>
<g
   id="g78">
</g>
<g
   id="g80">
</g>
<g
   id="g82">
</g>
<g
   id="g84">
</g>
<g
   id="g86">
</g>
<g
   id="g88">
</g>
<g
   id="g1046"
   transform="matrix(0.55886315,0,0,0.55886315,157.54779,132.77619)"><rect
   y="-104.38158"
   x="-28.555799"
   height="673.03345"
   width="469.31418"
   id="rect2447-0-9"
   style="display:inline;fill:none;fill-opacity:1;stroke:url(#linearGradient2459-6-2);stroke-width:25.31489563;stroke-miterlimit:4;stroke-dasharray:none;stroke-opacity:1" /><text
   id="text2485-9"
   y="522.54254"
   x="73.002243"
   style="font-style:normal;font-weight:normal;font-size:76.99105835px;line-height:1.25;font-family:sans-serif;letter-spacing:0px;word-spacing:0px;display:inline;fill:#000000;fill-opacity:1;stroke:none;stroke-width:1.9247762"
   xml:space="preserve"><tspan
     style="stroke-width:1.9247762"
     y="522.54254"
     x="73.002243"
     id="tspan2483-7"
     sodipodi:role="line">KAREN</tspan></text>

<g
   transform="matrix(0.95835188,0,0,0.95835188,-39.236792,-55.053753)"
   id="g904"><g
     id="g8"><path
       inkscape:connector-curvature="0"
       id="path2-9"
       d="m 256.001,7.5 v 0 c -75.262,0 -136.274,61.012 -136.274,136.274 v 48.097 H 392.275 V 143.774 C 392.275,68.512 331.263,7.5 256.001,7.5 Z"
       style="fill:#ff8250" /><path
       inkscape:connector-curvature="0"
       id="path4-7"
       d="m 167.824,321.572 c 0,-7.987 -2.73,-15.272 -7.25,-20.985 -2.712,-3.427 -2.712,-8.34 0,-11.766 4.52,-5.712 7.25,-12.997 7.25,-20.984 0,-1.031 -15.944,-42.894 -16.032,-43.902 l -12.024,-5.638 c -11.741,4.951 -20.04,16.887 -20.04,30.876 0,7.987 2.73,15.271 7.25,20.984 2.712,3.427 2.712,8.34 0,11.766 -4.52,5.713 -7.25,12.998 -7.25,20.985 0,8.267 2.916,15.792 7.723,21.592 3.145,3.797 3.145,9.13 0,12.927 -4.807,5.8 -7.723,13.326 -7.723,21.594 0,11.201 5.321,21.086 13.471,27.123 l 34.095,-14.505 c -1.046,-5.877 -3.587,-11.197 -7.192,-15.547 -3.145,-3.797 -3.145,-9.13 0,-12.927 4.806,-5.801 7.722,-13.326 7.722,-21.593 z"
       style="fill:#ff8250" /><path
       inkscape:connector-curvature="0"
       id="path6-4"
       d="m 344.178,321.572 c 0,-7.987 2.73,-15.272 7.25,-20.985 2.711,-3.427 2.711,-8.34 0,-11.766 -4.52,-5.712 -7.25,-12.997 -7.25,-20.984 0,-1.031 15.944,-42.894 16.032,-43.902 l 12.024,-5.638 c 11.741,4.951 20.04,16.887 20.04,30.876 0,7.987 -2.73,15.271 -7.25,20.984 -2.712,3.427 -2.712,8.34 0,11.766 4.52,5.713 7.25,12.998 7.25,20.985 0,8.267 -2.916,15.792 -7.723,21.592 -3.145,3.797 -3.145,9.13 0,12.927 4.807,5.8 7.723,13.326 7.723,21.594 0,11.201 -5.321,21.086 -13.471,27.123 l -34.095,-14.505 c 1.046,-5.877 3.587,-11.197 7.192,-15.547 3.145,-3.797 3.145,-9.13 0,-12.927 -4.806,-5.801 -7.722,-13.326 -7.722,-21.593 z"
       style="fill:#ff8250" /></g><path
     inkscape:connector-curvature="0"
     id="path10-8"
     d="M 408.283,396.981 325.491,367.76 c -12.82,-4.525 -21.393,-16.642 -21.393,-30.237 v -65.491 h -96.194 v 65.491 c 0,13.595 -8.573,25.712 -21.393,30.236 l -82.793,29.221 c -19.229,6.787 -32.089,24.962 -32.089,45.354 V 504.5 h 368.742 v -62.165 c 0.001,-20.392 -12.858,-38.567 -32.088,-45.354 z"
     style="fill:#f7d291" /><path
     inkscape:connector-curvature="0"
     id="path12-1"
     d="m 408.283,396.981 -64.408,-22.732 c -3.108,45.877 -41.208,82.155 -87.874,82.155 -46.666,0 -84.765,-36.278 -87.874,-82.155 l -64.408,22.732 C 84.489,403.768 71.63,421.943 71.63,442.335 V 504.5 h 368.742 v -62.165 c 0,-20.392 -12.86,-38.567 -32.089,-45.354 z"
     style="fill:#e3aa75" /><path
     inkscape:connector-curvature="0"
     id="path14-2"
     d="m 207.904,326.241 c 14.753,6.391 31.02,9.92 48.097,9.92 17.077,0 33.344,-3.529 48.097,-9.92 v -38.177 h -96.194 z"
     style="fill:#f0c382" /><path
     inkscape:connector-curvature="0"
     id="path16-0"
     d="m 372.235,175.839 h -8.016 c 0,0 -10.734,-1.293 -14.018,-2.202 -18.212,-5.043 -57.641,-20.789 -87.51,-66.825 -3.147,-4.851 -10.232,-4.851 -13.378,0 -29.869,46.036 -69.298,61.782 -87.51,66.825 -3.284,0.909 -14.018,2.202 -14.018,2.202 h -8.016 c -11.068,0 -20.04,8.972 -20.04,20.04 0,11.068 8.972,20.04 20.04,20.04 h 12.429 c 4.106,53.795 48.958,96.194 103.805,96.194 54.847,0 99.699,-42.398 103.805,-96.194 h 12.429 c 11.068,0 20.04,-8.973 20.04,-20.04 -0.002,-11.068 -8.974,-20.04 -20.042,-20.04 z"
     style="fill:#ffe1a0" /><g
     id="g22"><polygon
       id="polygon18"
       points="304.09,328.145 304.098,328.148 304.098,327.887 "
       style="fill:#ffd164" /><polygon
       id="polygon20"
       points="207.904,327.887 207.904,328.148 207.912,328.145 "
       style="fill:#ffd164" /></g><path
     inkscape:connector-curvature="0"
     id="path24-9"
     d="m 219.928,228.612 c 0,17.709 16.15,32.065 36.073,32.065 19.923,0 36.073,-14.356 36.073,-32.065 z"
     style="fill:#ffffff" /><path
     inkscape:connector-curvature="0"
     id="path26-9"
     d="m 390.279,390.627 -46.404,-16.378 c -3.109,45.877 -41.208,82.155 -87.874,82.155 -46.666,0 -84.765,-36.278 -87.874,-82.155 l -46.404,16.378 c 10.705,64.579 66.663,113.873 134.278,113.873 67.615,0 123.573,-49.294 134.278,-113.873 z"
     style="fill:#d29b6e" /><path
     inkscape:connector-curvature="0"
     id="path28"
     d="m 256.001,480.452 c 57.137,0 104.199,-42.733 111.221,-97.963 l -39.099,-13.8 c -0.252,39.629 -32.433,71.682 -72.122,71.682 -39.689,0 -71.87,-32.053 -72.122,-71.682 l -39.099,13.8 c 7.022,55.23 54.084,97.963 111.221,97.963 z"
     style="fill:#edebed" /><path
     inkscape:connector-curvature="0"
     id="path30"
     d="m 255.999,141.807 c 15.758,17.039 40.157,38.628 70.363,50.065 12.463,4.719 25.833,-4.456 25.833,-17.783 v -0.013 c -0.784,-0.151 -1.493,-0.299 -1.994,-0.438 -18.208,-5.042 -57.621,-20.781 -87.487,-66.789 -3.154,-4.859 -10.261,-4.876 -13.414,-0.017 -21.107,32.522 -46.924,49.863 -66.7,59.042 -1.335,0.619 -12.13,4.989 -13.379,5.419 -2.712,0.936 -5.255,1.746 -7.418,2.345 -3.284,0.909 -14.018,2.202 -14.018,2.202 h -6.873 c -10.483,0 -20.035,7.542 -21.08,17.973 -1.201,11.996 8.187,22.108 19.937,22.108 h 12.429 c 4.106,53.795 48.958,96.194 103.805,96.194 5.466,0 10.793,-0.547 16.032,-1.359 -45.768,-7.087 -81.73,-43.847 -87.399,-90.052 -0.163,-1.33 -0.324,-3.266 -0.47,-5.575 -0.8,-12.585 5.877,-24.543 17.067,-30.357 23.031,-11.969 41.826,-28.975 54.766,-42.965 z"
     style="fill:#f7d291" /><path
     inkscape:connector-curvature="0"
     id="path32"
     d="m 281.19,9.922 c -5.823,12.701 -9.157,26.78 -9.157,41.667 0,55.34 44.862,100.202 100.202,100.202 6.863,0 13.564,-0.698 20.04,-2.012 v -6.004 C 392.275,77.129 344.403,21.75 281.19,9.922 Z"
     style="fill:#ff9664" /><path
     inkscape:connector-curvature="0"
     id="path34"
     d="m 215.404,192.568 v -8.016 c 0,-4.142 -3.357,-7.5 -7.5,-7.5 -4.143,0 -7.5,3.358 -7.5,7.5 v 8.016 c 0,4.142 3.357,7.5 7.5,7.5 4.143,0 7.5,-3.358 7.5,-7.5 z" /><path
     inkscape:connector-curvature="0"
     id="path36-8"
     d="m 304.098,177.052 c -4.143,0 -7.5,3.358 -7.5,7.5 v 8.016 c 0,4.142 3.357,7.5 7.5,7.5 4.143,0 7.5,-3.358 7.5,-7.5 v -8.016 c 0,-4.142 -3.358,-7.5 -7.5,-7.5 z" /><path
     inkscape:connector-curvature="0"
     id="path38-1"
     d="m 410.779,389.909 -18.79,-6.632 c 4.98,-6.948 7.786,-15.438 7.786,-24.256 0,-9.657 -3.355,-19.025 -9.447,-26.378 -0.845,-1.02 -0.845,-2.338 0,-3.357 6.092,-7.353 9.447,-16.72 9.447,-26.377 0,-9.307 -3.149,-18.412 -8.869,-25.639 -0.554,-0.701 -0.554,-1.757 0,-2.458 5.72,-7.227 8.869,-16.332 8.869,-25.638 0,-11.691 -4.782,-22.474 -12.804,-30.051 7.602,-4.839 12.681,-13.297 12.789,-22.932 0.004,-0.104 0.016,-0.206 0.016,-0.311 V 143.775 C 399.775,64.497 335.278,0 256.001,0 176.724,0 112.227,64.497 112.227,143.774 v 51.797 c -0.001,0.103 -0.008,0.205 -0.008,0.308 0,9.768 5.116,18.359 12.805,23.25 -8.018,7.577 -12.798,18.356 -12.798,30.044 0,9.306 3.149,18.411 8.868,25.637 0.555,0.701 0.555,1.758 0.001,2.458 -5.72,7.227 -8.869,16.333 -8.869,25.639 0,9.657 3.355,19.025 9.447,26.377 0.845,1.02 0.845,2.338 0,3.357 -6.092,7.354 -9.447,16.722 -9.447,26.379 0,8.818 2.806,17.308 7.786,24.256 l -18.79,6.632 c -22.187,7.83 -37.093,28.899 -37.093,52.427 V 504.5 c 0,4.142 3.357,7.5 7.5,7.5 4.143,0 7.5,-3.358 7.5,-7.5 v -62.165 c 0,-17.18 10.885,-32.564 27.085,-38.282 l 32.546,-11.487 c 5.292,25.567 18.912,48.856 38.809,66.121 21.749,18.872 49.603,29.264 78.431,29.264 28.994,0 56.97,-10.499 78.773,-29.563 19.727,-17.248 33.207,-40.405 38.468,-65.822 l 32.545,11.486 c 16.2,5.718 27.085,21.102 27.085,38.282 V 504.5 c 0,4.142 3.357,7.5 7.5,7.5 4.143,0 7.5,-3.358 7.5,-7.5 v -62.165 c 0.001,-23.527 -14.905,-44.596 -37.092,-52.426 z m -57.821,-20.408 c 1.015,-3.146 2.612,-6.083 4.718,-8.625 5.486,-6.623 5.486,-15.874 0,-22.497 -3.867,-4.667 -5.997,-10.636 -5.997,-16.807 0,-6.028 1.947,-11.675 5.632,-16.331 4.831,-6.106 4.831,-14.97 -10e-4,-21.074 -3.684,-4.655 -5.631,-10.302 -5.631,-16.33 0,-0.803 0.035,-1.613 0.104,-2.406 0.003,-0.04 10e-4,-0.08 0.004,-0.12 7.564,-12.574 12.719,-26.752 14.833,-41.892 h 0.141 c 0.698,0.747 1.556,1.366 2.559,1.789 9.389,3.959 15.455,13.366 15.455,23.965 0,6.028 -1.947,11.674 -5.632,16.33 -4.831,6.106 -4.831,14.969 0.001,21.075 3.684,4.655 5.631,10.302 5.631,16.331 0,6.17 -2.13,12.139 -5.998,16.808 -5.486,6.623 -5.486,15.874 0,22.497 3.868,4.668 5.998,10.638 5.998,16.809 0,7.216 -2.906,14.068 -7.894,18.924 z m -24.972,-8.813 c -9.803,-3.46 -16.389,-12.769 -16.389,-23.165 v -32.758 c 10.393,-5.99 19.732,-13.608 27.678,-22.497 1.491,4.031 3.596,7.826 6.271,11.208 0.555,0.701 0.555,1.757 0.001,2.458 -5.72,7.227 -8.869,16.333 -8.869,25.639 0,9.658 3.354,19.025 9.446,26.377 0.845,1.02 0.845,2.338 0,3.357 -3.236,3.905 -5.701,8.398 -7.304,13.205 z M 256.001,15 c 71.007,0 128.774,57.768 128.774,128.774 v 27.602 c -3.766,-1.937 -8.03,-3.037 -12.549,-3.037 0.002,0 -3.437,0 -3.902,-0.002 -0.035,0 -0.07,-10e-4 -0.105,-10e-4 -7.251,0 -14.683,-1.029 -22.089,-3.059 -3.997,-1.093 -8.121,1.256 -9.216,5.251 -1.095,3.995 1.256,8.121 5.251,9.216 8.697,2.384 17.463,3.592 26.054,3.592 v -0.028 c 0.944,0.031 2.211,0.031 4.008,0.031 6.915,0 12.541,5.625 12.541,12.54 0,6.915 -5.626,12.541 -12.541,12.541 h -4.53 c 10e-4,-0.172 0.007,-0.344 0.007,-0.516 0,-4.142 -3.357,-7.5 -7.5,-7.5 -4.143,0 -7.5,3.358 -7.5,7.5 0,53.326 -43.384,96.709 -96.71,96.709 -53.326,0 -96.71,-43.384 -96.71,-96.709 0,-4.142 -3.357,-7.5 -7.5,-7.5 -4.143,0 -7.5,3.358 -7.5,7.5 0,0.173 0.006,0.344 0.007,0.516 h -4.531 c -6.889,0 -12.494,-5.584 -12.536,-12.463 0,-0.026 0.004,-0.051 0.004,-0.077 v -0.154 c 0.084,-6.843 5.669,-12.386 12.532,-12.386 1.797,0 3.064,0 4.009,-0.031 v 0.028 c 53.637,0 96.062,-46.498 111.813,-66.49 0.051,-0.064 0.169,-0.215 0.413,-0.215 0.244,0 0.362,0.151 0.413,0.215 9.598,12.181 29.663,34.914 56.227,50.302 3.585,2.076 8.173,0.855 10.249,-2.73 2.077,-3.584 0.854,-8.173 -2.729,-10.249 -24.4,-14.135 -43.03,-35.267 -51.963,-46.605 -2.971,-3.77 -7.416,-5.933 -12.196,-5.933 -4.78,0 -9.226,2.163 -12.196,5.932 -43.214,54.851 -84.35,60.772 -100.029,60.772 -0.035,0 -0.069,0 -0.104,10e-4 -0.46,0.002 -3.906,0.002 -3.905,0.002 -4.512,0 -8.77,1.098 -12.532,3.029 V 143.774 C 127.227,72.768 184.994,15 256.001,15 Z m -71.985,345.688 -10.834,3.824 c -1.603,-4.807 -4.068,-9.3 -7.304,-13.205 -0.845,-1.02 -0.845,-2.338 0,-3.357 6.092,-7.352 9.446,-16.72 9.446,-26.377 0,-9.307 -3.149,-18.412 -8.868,-25.639 -0.555,-0.701 -0.555,-1.757 0.001,-2.459 2.672,-3.377 4.775,-7.168 6.266,-11.194 7.947,8.888 17.288,16.505 27.682,22.494 v 32.749 c -0.001,10.395 -6.587,19.704 -16.389,23.164 z m -56.789,-1.667 c 0,-6.171 2.13,-12.141 5.998,-16.809 5.486,-6.623 5.486,-15.874 0,-22.497 -3.868,-4.668 -5.998,-10.637 -5.998,-16.807 0,-6.028 1.947,-11.675 5.631,-16.331 4.832,-6.105 4.832,-14.969 0,-21.075 -3.684,-4.655 -5.631,-10.301 -5.631,-16.329 0,-10.599 6.066,-20.006 15.455,-23.965 1.003,-0.423 1.861,-1.042 2.559,-1.789 h 0.125 c 2.115,15.151 7.276,29.339 14.849,41.92 0.002,0.031 0.001,0.061 0.003,0.091 0.069,0.793 0.104,1.603 0.104,2.406 0,6.027 -1.947,11.674 -5.63,16.329 -4.833,6.105 -4.833,14.969 -0.001,21.076 3.684,4.655 5.631,10.302 5.631,16.331 0,6.171 -2.13,12.14 -5.997,16.808 -5.486,6.623 -5.486,15.874 0,22.497 2.106,2.542 3.703,5.478 4.718,8.625 l -23.924,8.443 c -4.987,-4.856 -7.892,-11.708 -7.892,-18.924 z M 324.9,447.097 c -19.068,16.672 -43.537,25.854 -68.899,25.854 -25.217,0 -49.579,-9.089 -68.6,-25.593 -17.929,-15.558 -30.02,-36.699 -34.335,-59.841 l 24.021,-8.478 c 2.39,17.65 10.596,33.925 23.575,46.466 14.926,14.422 34.578,22.365 55.339,22.365 13.579,0 26.989,-3.48 38.779,-10.063 3.617,-2.02 4.911,-6.588 2.892,-10.205 -2.019,-3.617 -6.587,-4.911 -10.204,-2.892 -9.561,5.338 -20.441,8.16 -31.467,8.16 -33.884,0 -61.584,-25.693 -64.407,-59.06 14.349,-6.231 23.811,-20.477 23.811,-36.287 v -25.545 c 12.587,4.926 26.277,7.635 40.589,7.635 14.317,0 28.013,-2.711 40.604,-7.641 v 25.551 c 0,15.807 9.457,30.05 23.801,36.283 -1.005,11.769 -5.173,22.952 -12.174,32.529 -2.444,3.344 -1.716,8.036 1.628,10.481 1.335,0.976 2.885,1.446 4.421,1.446 2.312,0 4.592,-1.065 6.061,-3.074 7.845,-10.731 12.804,-23.096 14.575,-36.15 l 24.039,8.484 c -4.293,23.01 -16.271,44.031 -34.049,59.575 z" /><path
     inkscape:connector-curvature="0"
     id="path40-4"
     d="m 292.073,221.111 h -72.145 c -4.143,0 -7.5,3.358 -7.5,7.5 0,21.816 19.547,39.565 43.572,39.565 24.025,0 43.572,-17.749 43.572,-39.565 10e-4,-4.142 -3.356,-7.5 -7.499,-7.5 z m -36.072,32.065 c -12.714,0 -23.516,-7.176 -27.211,-17.065 h 54.422 c -3.695,9.889 -14.497,17.065 -27.211,17.065 z" /></g></g></svg>