<?xml version="1.0" encoding="UTF-8" standalone="no"?>
<!-- Generator: Adobe Illustrator 19.0.0, SVG Export Plug-In . SVG Version: 6.00 Build 0)  -->

<svg
   xmlns:osb="http://www.openswatchbook.org/uri/2009/osb"
   xmlns:dc="http://purl.org/dc/elements/1.1/"
   xmlns:cc="http://creativecommons.org/ns#"
   xmlns:rdf="http://www.w3.org/1999/02/22-rdf-syntax-ns#"
   xmlns:svg="http://www.w3.org/2000/svg"
   xmlns="http://www.w3.org/2000/svg"
   xmlns:xlink="http://www.w3.org/1999/xlink"
   xmlns:sodipodi="http://sodipodi.sourceforge.net/DTD/sodipodi-0.dtd"
   xmlns:inkscape="http://www.inkscape.org/namespaces/inkscape"
   version="1.1"
   id="Capa_1"
   x="0px"
   y="0px"
   viewBox="0 0 511.999 511.999"
   style="enable-background:new 0 0 511.999 511.999;"
   xml:space="preserve"
   sodipodi:docname="20.svg"
   inkscape:version="0.92.4 (5da689c313, 2019-01-14)"><metadata
   id="metadata95"><rdf:RDF><cc:Work
       rdf:about=""><dc:format>image/svg+xml</dc:format><dc:type
         rdf:resource="http://purl.org/dc/dcmitype/StillImage" /><dc:title /></cc:Work></rdf:RDF></metadata><defs
   id="defs93"><linearGradient
     id="linearGradient2457"
     osb:paint="solid"><stop
       style="stop-color:#000000;stop-opacity:1;"
       offset="0"
       id="stop2455" /></linearGradient><linearGradient
     inkscape:collect="always"
     xlink:href="#linearGradient2457"
     id="linearGradient2459-6-2"
     x1="1442.3572"
     y1="-339.5119"
     x2="1514.9286"
     y2="-339.5119"
     gradientUnits="userSpaceOnUse"
     gradientTransform="matrix(6.4669274,0,0,9.6773016,-9356.1743,3517.6929)" /></defs><sodipodi:namedview
   pagecolor="#ffffff"
   bordercolor="#666666"
   borderopacity="1"
   objecttolerance="10"
   gridtolerance="10"
   guidetolerance="10"
   inkscape:pageopacity="0"
   inkscape:pageshadow="2"
   inkscape:window-width="1920"
   inkscape:window-height="986"
   id="namedview91"
   showgrid="false"
   inkscape:zoom="1.3037307"
   inkscape:cx="8.4645484"
   inkscape:cy="318.09098"
   inkscape:window-x="-11"
   inkscape:window-y="-11"
   inkscape:window-maximized="1"
   inkscape:current-layer="g1046" />























<g
   id="g60">
</g>
<g
   id="g62">
</g>
<g
   id="g64">
</g>
<g
   id="g66">
</g>
<g
   id="g68">
</g>
<g
   id="g70">
</g>
<g
   id="g72">
</g>
<g
   id="g74">
</g>
<g
   id="g76">
</g>
<g
   id="g78">
</g>
<g
   id="g80">
</g>
<g
   id="g82">
</g>
<g
   id="g84">
</g>
<g
   id="g86">
</g>
<g
   id="g88">
</g>
<g
   id="g1046"
   transform="matrix(0.55886315,0,0,0.55886315,157.54779,132.77619)"><rect
   y="-104.38158"
   x="-28.555799"
   height="673.03345"
   width="469.31418"
   id="rect2447-0-9"
   style="display:inline;fill:none;fill-opacity:1;stroke:url(#linearGradient2459-6-2);stroke-width:25.31489563;stroke-miterlimit:4;stroke-dasharray:none;stroke-opacity:1" /><text
   id="text2485-9"
   y="522.54254"
   x="40.728409"
   style="font-style:normal;font-weight:normal;font-size:76.99105835px;line-height:1.25;font-family:sans-serif;letter-spacing:0px;word-spacing:0px;display:inline;fill:#000000;fill-opacity:1;stroke:none;stroke-width:1.9247762"
   xml:space="preserve"><tspan
     style="stroke-width:1.9247762"
     y="522.54254"
     x="40.728409"
     id="tspan2483-7"
     sodipodi:role="line">MANUEL</tspan></text>



<g
   transform="matrix(0.90209267,0,0,0.90209267,-24.835787,-22.253995)"
   id="g928"><path
     inkscape:connector-curvature="0"
     id="path2"
     d="m 413.863,358.071 -84.486,-24.849 c -10.235,-3.01 -17.263,-12.403 -17.263,-23.071 V 272.032 H 199.889 v 38.119 c 0,10.668 -7.028,20.061 -17.263,23.071 L 98.14,358.071 c -20.469,6.02 -34.526,24.806 -34.526,46.142 V 504.5 H 448.388 V 404.214 c 0.001,-21.337 -14.056,-40.123 -34.525,-46.143 z"
     style="fill:#f7d291" /><path
     inkscape:connector-curvature="0"
     id="path4"
     d="m 413.864,358.071 -84.486,-24.849 c -1.429,-0.42 8.079,3.594 6.786,2.939 l -80.165,24.048 -80.157,-24.048 c -1.293,0.655 8.214,-3.359 6.786,-2.939 l -84.486,24.849 c -20.469,6.02 -34.525,24.806 -34.525,46.142 V 504.5 H 448.391 V 404.213 c -0.002,-21.336 -14.058,-40.122 -34.527,-46.142 z"
     style="fill:#cd916e" /><path
     inkscape:connector-curvature="0"
     id="path6"
     d="m 333.412,349.443 -9.558,-9.558 -67.852,12.309 -67.852,-12.309 -9.558,9.558 c -12.027,12.026 -18.783,28.338 -18.783,45.346 V 504.5 H 352.196 V 394.789 c -0.001,-17.008 -6.757,-33.32 -18.784,-45.346 z"
     style="fill:#edebed" /><path
     inkscape:connector-curvature="0"
     id="path8-1"
     d="m 333.412,349.443 -9.558,-9.558 -67.852,12.309 -67.852,-12.309 -9.558,9.558 c -5.271,5.271 -9.461,11.398 -12.583,18.014 l 27.214,31.102 c 6.087,6.958 14.883,10.95 24.133,10.95 8.564,0 16.616,-3.336 22.673,-9.392 l 17.016,-17.016 17.019,17.017 c 6.053,6.056 14.105,9.391 22.67,9.391 9.248,0 18.045,-3.991 24.134,-10.95 l 25.861,-29.556 c -3.176,-7.217 -7.634,-13.878 -13.317,-19.56 z"
     style="fill:#dbd9dc" /><polygon
     id="polygon10"
     points="280.05,504.5 267.581,392.274 244.423,392.274 231.953,504.5 "
     style="fill:#e3aa75" /><path
     inkscape:connector-curvature="0"
     id="path12"
     d="m 266.256,400.29 h -20.509 c -3.45,0 -6.514,-2.208 -7.605,-5.481 l -14.205,-42.616 h 64.129 l -14.205,42.616 c -1.091,3.273 -4.154,5.481 -7.605,5.481 z"
     style="fill:#d29b6e" /><path
     inkscape:connector-curvature="0"
     id="path14-6"
     d="m 199.889,297.937 c 16.841,8.996 35.939,14.176 56.113,14.176 20.174,0 39.272,-5.18 56.113,-14.176 V 272.032 H 199.889 Z"
     style="fill:#f0c382" /><g
     id="g20"><path
       inkscape:connector-curvature="0"
       id="path16-1"
       d="m 92.026,173.64 17.775,23.7 c 1.338,1.784 1.927,4.026 1.504,6.215 -0.494,2.553 -1.388,5.431 -2.394,8.202 -2.784,7.672 0.799,16.133 8.123,19.735 12.478,6.138 33.039,14.147 58.807,16.492 V 47.581 c -59.914,19.971 -81.129,89.7 -86.6,112.768 -1.1,4.638 -0.075,9.477 2.785,13.291 z"
       style="fill:#b7b2b8" /><path
       inkscape:connector-curvature="0"
       id="path18-6"
       d="m 419.978,173.64 -17.775,23.7 c -1.338,1.784 -1.927,4.026 -1.504,6.215 0.494,2.553 1.388,5.431 2.394,8.202 2.784,7.672 -0.799,16.133 -8.123,19.735 -12.478,6.138 -33.039,14.147 -58.807,16.492 V 47.581 c 59.914,19.971 81.129,89.7 86.6,112.768 1.1,4.638 0.075,9.477 -2.785,13.291 z"
       style="fill:#b7b2b8" /></g><path
     inkscape:connector-curvature="0"
     id="path22"
     d="m 376.244,152.194 v -24.453 c 0,-62.534 -47.746,-113.879 -108.766,-119.662 -3.773,-0.383 -7.601,-0.58 -11.476,-0.58 -3.875,0 -7.703,0.197 -11.476,0.58 C 183.507,13.862 135.76,65.208 135.76,127.741 v 24.453 c -9.147,1.857 -16.032,9.941 -16.032,19.636 0,11.068 8.972,20.04 20.04,20.04 h 12.429 c 4.106,53.795 48.958,96.194 103.805,96.194 54.847,0 99.699,-42.398 103.805,-96.194 h 12.429 c 11.068,0 20.04,-8.973 20.04,-20.04 0,-9.695 -6.885,-17.778 -16.032,-19.636 z"
     style="fill:#ffe1a0" /><g
     id="g28"><rect
       id="rect24"
       height="19.865"
       width="56.110001"
       style="fill:#f7d291"
       y="143.77"
       x="183.86099" /><rect
       id="rect26"
       height="19.865"
       width="56.110001"
       style="fill:#f7d291"
       y="143.77"
       x="272.03101" /></g><g
     id="g34"><path
       inkscape:connector-curvature="0"
       id="path30-5"
       d="m 194.534,318.045 -21.122,25.647 36.867,42.134 c 3.054,3.49 8.422,3.668 11.701,0.39 l 34.022,-34.022 z"
       style="fill:#ffffff" /><path
       inkscape:connector-curvature="0"
       id="path32-6"
       d="m 317.47,318.045 21.122,25.647 -36.867,42.134 c -3.054,3.49 -8.422,3.668 -11.701,0.39 l -34.022,-34.022 z"
       style="fill:#ffffff" /></g><g
     id="g40"><path
       inkscape:connector-curvature="0"
       id="path36"
       d="m 119.728,504.5 -14.123,-63.554 c -1.189,-5.351 0.438,-10.938 4.314,-14.814 l 25.841,-25.841 -11.889,-17.833 c -2.799,-4.198 -3.398,-9.47 -1.805,-14.257 19.114,-57.442 77.823,-72.119 77.823,-72.119 v 15.463 c 0,10.63 -4.223,20.825 -11.739,28.341 l -9.558,9.558 c -12.027,12.027 -18.783,28.338 -18.783,45.346 V 504.5"
       style="fill:#b67f5f" /><path
       inkscape:connector-curvature="0"
       id="path38"
       d="m 392.276,504.5 14.123,-63.554 c 1.189,-5.351 -0.438,-10.938 -4.314,-14.814 l -25.841,-25.841 11.889,-17.833 c 2.799,-4.198 3.398,-9.47 1.805,-14.257 -19.114,-57.442 -77.823,-72.119 -77.823,-72.119 v 15.463 c 0,10.63 4.223,20.825 11.739,28.341 l 9.558,9.558 c 12.027,12.027 18.783,28.338 18.783,45.346 V 504.5"
       style="fill:#b67f5f" /></g><path
     inkscape:connector-curvature="0"
     id="path42"
     d="M 191.873,183.855 V 111.71 c 0,-50.789 36.35,-93.038 84.443,-102.281 C 269.719,8.221 262.949,7.5 256.002,7.5 252.127,7.5 248.299,7.697 244.526,8.08 183.507,13.863 135.76,65.209 135.76,127.742 v 24.048 h 4.008 c -11.068,0 -20.04,8.972 -20.04,20.04 0,11.068 8.972,20.04 20.04,20.04 h 12.429 c 4.106,53.795 48.958,96.194 103.805,96.194 6.895,0 13.631,-0.675 20.149,-1.954 -48.012,-9.306 -84.278,-51.524 -84.278,-102.255 z"
     style="fill:#f7d291" /><path
     inkscape:connector-curvature="0"
     id="path44"
     d="m 256.002,304.097 v 0 c -13.282,0 -24.048,-10.767 -24.048,-24.048 v -16.032 c 0,-4.427 3.589,-8.016 8.016,-8.016 h 32.065 c 4.427,0 8.016,3.589 8.016,8.016 v 16.032 c -10e-4,13.281 -10.768,24.048 -24.049,24.048 z"
     style="fill:#9c969e" /><path
     inkscape:connector-curvature="0"
     id="path46"
     d="m 159.808,424.853 c -4.142,0 -7.5,3.358 -7.5,7.5 V 504.5 c 0,4.142 3.358,7.5 7.5,7.5 4.142,0 7.5,-3.358 7.5,-7.5 v -72.147 c 0,-4.142 -3.358,-7.5 -7.5,-7.5 z" /><path
     inkscape:connector-curvature="0"
     id="path48"
     d="m 352.195,424.855 c -4.142,0 -7.5,3.358 -7.5,7.5 V 504.5 c 0,4.142 3.358,7.5 7.5,7.5 4.142,0 7.5,-3.358 7.5,-7.5 v -72.145 c 0,-4.142 -3.358,-7.5 -7.5,-7.5 z" /><path
     inkscape:connector-curvature="0"
     id="path50"
     d="m 415.98,349.484 -30.044,-8.836 C 365.448,307.571 332.768,293.62 319.615,289.142 v -13.483 c 8.041,-5.576 15.356,-12.222 21.722,-19.75 44.154,-4.497 70.542,-25.225 71.657,-26.117 2.762,-2.209 3.605,-6.047 2.023,-9.21 -2.499,-4.998 -6.025,-13.511 -6.979,-18.521 l 22.303,-29.737 c 1.245,-1.66 1.747,-3.76 1.386,-5.803 C 430.936,162.039 411.766,57.358 349.595,40.927 326.163,15.719 292.746,0 256.002,0 219.054,0 185.726,15.774 162.381,40.934 100.233,57.388 81.068,162.038 80.277,166.52 c -0.361,2.043 0.141,4.144 1.386,5.803 l 22.306,29.742 c -0.938,4.988 -4.411,13.365 -6.982,18.517 -1.582,3.163 -0.739,7.001 2.023,9.21 1.115,0.892 27.501,21.619 71.654,26.117 6.368,7.529 13.683,14.176 21.725,19.752 v 13.481 c -13.153,4.478 -45.834,18.429 -66.322,51.506 l -30.044,8.836 c -23.498,6.912 -39.909,28.845 -39.909,53.338 V 504.5 c 0,4.142 3.358,7.5 7.5,7.5 4.142,0 7.5,-3.358 7.5,-7.5 V 402.822 c 0,-17.885 11.983,-33.9 29.142,-38.947 l 16.668,-4.902 c -0.694,1.782 -1.354,3.604 -1.975,5.471 -2.365,7.106 -1.388,14.681 2.681,20.782 l 8.479,12.718 -21.523,21.523 c -5.693,5.692 -8.068,13.787 -6.353,21.653 l 14.166,64.979 c 0.765,3.509 3.871,5.904 7.321,5.904 0.529,0 1.067,-0.056 1.605,-0.174 4.047,-0.882 6.612,-4.878 5.73,-8.925 l -14.166,-64.979 c -0.622,-2.852 0.239,-5.786 2.303,-7.85 l 25.871,-25.871 c 2.528,-2.528 2.92,-6.489 0.937,-9.464 l -11.89,-17.833 c -1.483,-2.225 -1.822,-5.041 -0.929,-7.726 13.085,-39.33 46.75,-57.319 63.207,-63.971 v 4.944 c 0,8.703 -3.389,16.884 -9.542,23.038 l -9.559,9.558 c -13.529,13.529 -20.979,31.517 -20.979,50.649 v 6.892 c 0,4.142 3.358,7.5 7.5,7.5 4.142,0 7.5,-3.358 7.5,-7.5 v -6.892 c 0,-12.461 4.006,-24.302 11.394,-34.069 l 20.218,24.262 c 4.222,5.066 10.423,8.144 17.012,8.442 0.354,0.016 0.707,0.024 1.059,0.024 3.991,0 7.898,-1.026 11.352,-2.926 l 0.857,2.57 c 1.353,4.058 3.739,7.545 6.797,10.232 l -11.496,101.724 c -0.465,4.116 2.495,7.83 6.61,8.295 0.286,0.032 0.57,0.048 0.852,0.048 3.765,0 7.01,-2.829 7.443,-6.658 l 11.029,-97.595 c 0.363,0.017 0.723,0.043 1.089,0.043 h 8.954 c 0.36,0 0.715,-0.026 1.071,-0.043 l 11.047,97.596 c 0.434,3.829 3.679,6.657 7.443,6.657 0.282,0 0.566,-0.016 0.853,-0.048 4.116,-0.466 7.075,-4.18 6.609,-8.296 L 275.988,401.948 c 3.066,-2.689 5.458,-6.182 6.814,-10.248 l 0.857,-2.57 c 3.455,1.899 7.361,2.926 11.352,2.926 0.352,0 0.706,-0.008 1.059,-0.024 6.589,-0.299 12.79,-3.376 17.012,-8.443 L 333.3,359.328 c 7.388,9.768 11.394,21.609 11.394,34.069 v 6.894 c 0,4.142 3.358,7.5 7.5,7.5 4.142,0 7.5,-3.358 7.5,-7.5 v -6.894 c 0,-19.132 -7.451,-37.12 -20.979,-50.649 l -9.559,-9.558 c -6.153,-6.154 -9.542,-14.335 -9.542,-23.038 v -4.975 c 16.433,6.594 50.062,24.494 63.207,64.003 0.893,2.685 0.555,5.5 -0.929,7.725 l -11.89,17.833 c -1.983,2.975 -1.591,6.936 0.937,9.464 l 25.871,25.872 c 2.064,2.063 2.925,4.998 2.303,7.85 l -14.166,64.979 c -0.882,4.047 1.683,8.043 5.73,8.925 0.539,0.118 1.076,0.174 1.605,0.174 3.45,0 6.556,-2.395 7.321,-5.904 l 14.166,-64.979 c 1.715,-7.866 -0.659,-15.961 -6.352,-21.653 l -21.523,-21.523 8.479,-12.717 c 4.068,-6.102 5.045,-13.677 2.681,-20.782 -0.621,-1.866 -1.281,-3.689 -1.975,-5.471 l 16.668,4.902 c 17.158,5.047 29.142,21.063 29.142,38.947 V 504.5 c 0,4.142 3.358,7.5 7.5,7.5 4.142,0 7.5,-3.358 7.5,-7.5 V 402.822 c 0,-24.493 -16.411,-46.426 -39.909,-53.338 z M 143.26,127.742 C 143.26,65.576 193.836,15 256.002,15 c 59.198,0 108.612,46.218 112.495,105.219 0.272,4.133 3.84,7.26 7.977,6.991 4.133,-0.272 7.263,-3.843 6.991,-7.977 -1.2,-18.235 -6.245,-35.387 -14.298,-50.698 14.241,12.647 24.559,31.317 31.434,47.333 9.273,21.604 14.122,42.426 15.733,50.129 l -22.042,29.389 c -0.974,1.298 -1.5,2.877 -1.5,4.5 0,6.352 3.412,15.416 6.049,21.472 -2.947,1.865 -7.201,4.331 -12.625,6.889 -7.689,3.626 -18.992,8.002 -33.096,10.77 6.93,-12.227 11.53,-25.706 13.496,-39.647 h 4.476 c 14.617,0 27.154,-10.861 28.542,-24.727 0.778,-7.771 -1.765,-15.531 -6.975,-21.288 -5.213,-5.762 -12.658,-9.066 -20.425,-9.066 -0.695,0 -36.589,0 -36.589,0 v -0.516 c 0,-4.142 -3.358,-7.5 -7.5,-7.5 h -56.113 c -4.142,0 -7.5,3.358 -7.5,7.5 v 2.124 c -2.647,-1.034 -5.523,-1.608 -8.532,-1.608 -3.009,0 -5.885,0.574 -8.532,1.608 v -2.124 c 0,-4.142 -3.358,-7.5 -7.5,-7.5 h -56.113 c -4.142,0 -7.5,3.358 -7.5,7.5 v 0.516 h -33.097 v -16.547 z m 156.831,39.565 c 4.142,0 7.5,-3.358 7.5,-7.5 v -8.016 c 0,-0.174 -0.014,-0.345 -0.026,-0.516 h 13.082 v 16.548 c 0,4.705 -3.828,8.532 -8.532,8.532 h -24.048 c -4.705,0 -8.532,-3.828 -8.532,-8.532 v -16.548 h 13.083 c -0.012,0.171 -0.026,0.342 -0.026,0.516 v 8.016 c -10e-4,4.142 3.357,7.5 7.499,7.5 z m -88.178,0 c 4.142,0 7.5,-3.358 7.5,-7.5 v -8.016 c 0,-0.174 -0.014,-0.345 -0.026,-0.516 h 13.083 v 16.548 c 0,4.705 -3.828,8.532 -8.532,8.532 H 199.89 c -4.705,0 -8.532,-3.828 -8.532,-8.532 v -16.548 h 13.082 c -0.012,0.171 -0.026,0.342 -0.026,0.516 v 8.016 c -10e-4,4.142 3.357,7.5 7.499,7.5 z m -86.127,60.942 c -5.424,-2.558 -9.679,-5.025 -12.625,-6.889 2.637,-6.056 6.049,-15.121 6.049,-21.473 0,-1.623 -0.526,-3.202 -1.5,-4.5 L 95.668,165.998 c 1.611,-7.705 6.459,-28.526 15.733,-50.129 10.042,-23.393 21.036,-38.111 31.417,-47.298 -9.292,17.701 -14.559,37.831 -14.559,59.171 v 19.415 c -8.631,4.115 -14.93,12.266 -15.891,21.859 -0.778,7.771 1.763,15.531 6.974,21.289 5.213,5.762 12.658,9.067 20.425,9.067 h 5.615 c 1.966,13.941 6.566,27.419 13.496,39.647 -14.101,-2.769 -25.403,-7.145 -33.092,-10.77 z m 97.246,146.308 c -1.716,1.716 -3.993,2.594 -6.42,2.49 -2.424,-0.11 -4.615,-1.197 -6.168,-3.061 l -21.446,-25.735 4.455,-4.455 c 3.937,-3.937 7.098,-8.442 9.409,-13.33 l 40.894,23.368 z m 32.97,-62.96 c 13.298,0 24.692,-8.274 29.327,-19.941 6.649,-1.809 13.105,-4.242 19.286,-7.242 v 25.738 c 0,1.833 0.115,3.648 0.318,5.443 l -48.931,27.961 -48.931,-27.961 c 0.203,-1.795 0.318,-3.61 0.318,-5.443 v -25.737 c 6.181,3 12.637,5.433 19.286,7.242 4.635,11.666 16.029,19.94 29.327,19.94 z M 239.453,280.048 V 263.5 h 33.097 v 16.548 c 0,9.125 -7.423,16.548 -16.548,16.548 -9.125,0 -16.549,-7.423 -16.549,-16.548 z m 29.12,106.909 c -0.674,2.021 -2.061,3.638 -3.813,4.658 -0.211,0.103 -0.416,0.214 -0.615,0.335 -1.121,0.534 -2.364,0.841 -3.665,0.841 h -8.954 c -3.678,0 -6.931,-2.345 -8.094,-5.834 l -2.896,-8.689 15.467,-15.467 15.467,15.467 z m 54.433,-38.706 -21.446,25.735 c -1.553,1.864 -3.744,2.952 -6.168,3.062 -2.42,0.104 -4.704,-0.774 -6.42,-2.49 l -20.724,-20.724 40.894,-23.368 c 2.311,4.888 5.472,9.393 9.409,13.33 z M 287.55,275.275 V 256 c 0,-4.142 -3.358,-7.5 -7.5,-7.5 h -48.097 c -4.142,0 -7.5,3.358 -7.5,7.5 v 19.276 c -17.143,-5.937 -32.515,-16.707 -43.963,-30.994 -13.868,-17.305 -21.198,-38.2 -21.198,-60.427 0,-4.142 -3.358,-7.5 -7.5,-7.5 -4.142,0 -7.5,3.358 -7.5,7.5 v 0.516 h -4.524 c -3.537,0 -6.927,-1.506 -9.303,-4.131 -2.407,-2.66 -3.533,-6.115 -3.17,-9.73 0.63,-6.292 6.611,-11.22 13.617,-11.22 0.49,0 35.445,0 35.445,0 v 8.532 c 0,12.976 10.557,23.532 23.532,23.532 h 24.048 c 12.976,0 23.532,-10.557 23.532,-23.532 0,-4.705 3.828,-8.532 8.532,-8.532 4.704,0 8.532,3.828 8.532,8.532 0,12.976 10.557,23.532 23.532,23.532 h 24.048 c 12.976,0 23.532,-10.557 23.532,-23.532 v -8.532 c 0,0 35.894,0 36.589,0 3.537,0 6.927,1.505 9.303,4.13 2.407,2.66 3.533,6.115 3.171,9.729 -0.63,6.292 -6.611,11.221 -13.617,11.221 h -3.385 v -0.439 c 0,-4.141 -3.356,-7.499 -7.497,-7.5 -10e-4,0 -0.002,0 -0.003,0 -4.14,0 -7.497,3.354 -7.5,7.495 -0.016,22.211 -7.353,43.09 -21.216,60.379 -11.444,14.275 -26.808,25.037 -43.94,30.97 z" /><path
     inkscape:connector-curvature="0"
     id="path52"
     d="m 256.002,231.436 c 11.898,0 22.857,-3.805 29.316,-10.177 2.949,-2.909 2.98,-7.658 0.071,-10.606 -2.91,-2.949 -7.659,-2.98 -10.606,-0.071 -2.737,2.701 -9.298,5.855 -18.781,5.855 -9.483,0 -16.043,-3.154 -18.781,-5.855 -2.95,-2.91 -7.698,-2.877 -10.606,0.071 -2.909,2.948 -2.877,7.697 0.071,10.606 6.459,6.372 17.418,10.177 29.316,10.177 z" /><path
     inkscape:connector-curvature="0"
     id="path54"
     d="m 199.889,127.226 h 24.048 c 4.142,0 7.5,-3.358 7.5,-7.5 0,-4.142 -3.358,-7.5 -7.5,-7.5 h -24.048 c -4.142,0 -7.5,3.358 -7.5,7.5 0,4.142 3.358,7.5 7.5,7.5 z" /><path
     inkscape:connector-curvature="0"
     id="path56"
     d="m 288.066,127.226 h 24.048 c 4.142,0 7.5,-3.358 7.5,-7.5 0,-4.142 -3.358,-7.5 -7.5,-7.5 h -24.048 c -4.142,0 -7.5,3.358 -7.5,7.5 0,4.142 3.358,7.5 7.5,7.5 z" /></g></g></svg>