<?xml version="1.0" encoding="UTF-8" standalone="no"?>
<!-- Generator: Adobe Illustrator 19.0.0, SVG Export Plug-In . SVG Version: 6.00 Build 0)  -->

<svg
   xmlns:osb="http://www.openswatchbook.org/uri/2009/osb"
   xmlns:dc="http://purl.org/dc/elements/1.1/"
   xmlns:cc="http://creativecommons.org/ns#"
   xmlns:rdf="http://www.w3.org/1999/02/22-rdf-syntax-ns#"
   xmlns:svg="http://www.w3.org/2000/svg"
   xmlns="http://www.w3.org/2000/svg"
   xmlns:xlink="http://www.w3.org/1999/xlink"
   xmlns:sodipodi="http://sodipodi.sourceforge.net/DTD/sodipodi-0.dtd"
   xmlns:inkscape="http://www.inkscape.org/namespaces/inkscape"
   version="1.1"
   id="Capa_1"
   x="0px"
   y="0px"
   viewBox="0 0 511.999 511.999"
   style="enable-background:new 0 0 511.999 511.999;"
   xml:space="preserve"
   sodipodi:docname="22.svg"
   inkscape:version="0.92.4 (5da689c313, 2019-01-14)"><metadata
   id="metadata95"><rdf:RDF><cc:Work
       rdf:about=""><dc:format>image/svg+xml</dc:format><dc:type
         rdf:resource="http://purl.org/dc/dcmitype/StillImage" /><dc:title /></cc:Work></rdf:RDF></metadata><defs
   id="defs93"><linearGradient
     id="linearGradient2457"
     osb:paint="solid"><stop
       style="stop-color:#000000;stop-opacity:1;"
       offset="0"
       id="stop2455" /></linearGradient><linearGradient
     inkscape:collect="always"
     xlink:href="#linearGradient2457"
     id="linearGradient2459-6-2"
     x1="1442.3572"
     y1="-339.5119"
     x2="1514.9286"
     y2="-339.5119"
     gradientUnits="userSpaceOnUse"
     gradientTransform="matrix(6.4669274,0,0,9.6773016,-9356.1743,3517.6929)" /></defs><sodipodi:namedview
   pagecolor="#ffffff"
   bordercolor="#666666"
   borderopacity="1"
   objecttolerance="10"
   gridtolerance="10"
   guidetolerance="10"
   inkscape:pageopacity="0"
   inkscape:pageshadow="2"
   inkscape:window-width="1920"
   inkscape:window-height="986"
   id="namedview91"
   showgrid="false"
   inkscape:zoom="1.3037307"
   inkscape:cx="43.364394"
   inkscape:cy="318.09098"
   inkscape:window-x="-11"
   inkscape:window-y="-11"
   inkscape:window-maximized="1"
   inkscape:current-layer="g1046" />























<g
   id="g60">
</g>
<g
   id="g62">
</g>
<g
   id="g64">
</g>
<g
   id="g66">
</g>
<g
   id="g68">
</g>
<g
   id="g70">
</g>
<g
   id="g72">
</g>
<g
   id="g74">
</g>
<g
   id="g76">
</g>
<g
   id="g78">
</g>
<g
   id="g80">
</g>
<g
   id="g82">
</g>
<g
   id="g84">
</g>
<g
   id="g86">
</g>
<g
   id="g88">
</g>
<g
   id="g1046"
   transform="matrix(0.55886315,0,0,0.55886315,157.54779,132.77619)"><rect
   y="-104.38158"
   x="-28.555799"
   height="673.03345"
   width="469.31418"
   id="rect2447-0-9"
   style="display:inline;fill:none;fill-opacity:1;stroke:url(#linearGradient2459-6-2);stroke-width:25.31489563;stroke-miterlimit:4;stroke-dasharray:none;stroke-opacity:1" /><text
   id="text2485-9"
   y="522.54254"
   x="55.540161"
   style="font-style:normal;font-weight:normal;font-size:76.99105835px;line-height:1.25;font-family:sans-serif;letter-spacing:0px;word-spacing:0px;display:inline;fill:#000000;fill-opacity:1;stroke:none;stroke-width:1.9247762"
   xml:space="preserve"><tspan
     style="stroke-width:1.9247762"
     y="522.54254"
     x="55.540161"
     id="tspan2483-7"
     sodipodi:role="line">BENITO</tspan></text>




<g
   transform="matrix(0.8940168,0,0,0.8940168,-22.767011,-17.796527)"
   id="g910"><path
     inkscape:connector-curvature="0"
     id="path2-5"
     d="m 413.86,358.071 -84.486,-24.849 c -10.235,-3.01 -17.263,-12.403 -17.263,-23.071 V 264.016 H 199.886 v 46.135 c 0,10.668 -7.028,20.061 -17.263,23.071 l -84.486,24.849 c -20.469,6.02 -34.526,24.806 -34.526,46.143 V 504.5 H 448.385 V 404.214 c 0.001,-21.337 -14.055,-40.123 -34.525,-46.143 z"
     style="fill:#f7d291" /><path
     inkscape:connector-curvature="0"
     id="path4-1"
     d="m 199.886,297.932 c 16.842,8.996 35.938,14.181 56.113,14.181 20.175,0 39.271,-5.185 56.113,-14.181 V 264.016 H 199.886 Z"
     style="fill:#f0c382" /><path
     inkscape:connector-curvature="0"
     id="path6-9"
     d="m 372.233,151.79 h -4.008 V 119.725 C 368.225,57.745 317.979,7.5 255.999,7.5 194.019,7.5 143.773,57.745 143.773,119.726 v 32.065 h -4.008 c -11.068,0 -20.04,8.972 -20.04,20.04 0,11.068 8.972,20.04 20.04,20.04 h 12.429 c 4.106,53.795 48.958,96.194 103.805,96.194 54.847,0 99.699,-42.398 103.805,-96.194 h 12.429 c 11.068,0 20.04,-8.973 20.04,-20.04 0,-11.069 -8.972,-20.041 -20.04,-20.041 z"
     style="fill:#ffe1a0" /><path
     inkscape:connector-curvature="0"
     id="path8"
     d="m 272.031,240.532 h -32.065 c -8.854,0 -16.032,-7.178 -16.032,-16.032 v -16.597 h 64.129 V 224.5 c 0.001,8.854 -7.177,16.032 -16.032,16.032 z"
     style="fill:#f0c382" /><g
     id="g14"><path
       inkscape:connector-curvature="0"
       id="path10"
       d="m 207.902,223.935 h 24.048 c 13.282,0 24.048,-10.767 24.048,-24.048 H 231.95 c -13.281,0 -24.048,10.767 -24.048,24.048 z"
       style="fill:#a06e50" /><path
       inkscape:connector-curvature="0"
       id="path12-2"
       d="m 280.047,199.887 h -24.048 c 0,13.282 10.767,24.048 24.048,24.048 h 24.048 c 10e-4,-13.281 -10.766,-24.048 -24.048,-24.048 z"
       style="fill:#a06e50" /></g><path
     inkscape:connector-curvature="0"
     id="path16"
     d="m 167.822,360.21 v -22.634 l -40.081,11.788 V 504.5 H 384.257 V 349.364 l -40.081,-11.788 v 22.634 c 0,48.699 -39.478,88.177 -88.177,88.177 -48.699,0 -88.177,-39.478 -88.177,-88.177 z"
     style="fill:#edebed" /><path
     inkscape:connector-curvature="0"
     id="path18"
     d="m 344.176,337.576 v 22.634 c 0,48.699 -39.478,88.177 -88.177,88.177 -48.699,0 -88.177,-39.478 -88.177,-88.177 v -22.634 l -24.048,7.073 v 15.561 c 0,61.981 50.246,112.226 112.226,112.226 61.98,0 112.225,-50.246 112.225,-112.226 v -15.561 z"
     style="fill:#ffffff" /><path
     inkscape:connector-curvature="0"
     id="path20"
     d="M 191.87,183.855 V 66.721 c 0,-15.825 -20.612,-22.163 -29.382,-8.99 -11.82,17.753 -18.714,39.061 -18.714,61.995 v 32.065 h -4.008 c -11.068,0 -20.04,8.972 -20.04,20.04 0,11.068 8.972,20.04 20.04,20.04 h 12.429 c 4.106,53.795 48.958,96.194 103.805,96.194 6.895,0 13.631,-0.675 20.149,-1.954 -48.013,-9.307 -84.279,-51.525 -84.279,-102.256 z"
     style="fill:#f7d291" /><g
     id="g26"><path
       inkscape:connector-curvature="0"
       id="path22-5"
       d="m 143.773,151.79 h -16.032 v -40.08 c 0,-8.854 7.178,-16.032 16.032,-16.032 v 0 c 8.854,0 16.032,7.178 16.032,16.032 v 24.048 c 0,8.854 -7.177,16.032 -16.032,16.032 z"
       style="fill:#a06e50" /><path
       inkscape:connector-curvature="0"
       id="path24"
       d="m 368.225,151.79 h 16.032 v -40.08 c 0,-8.854 -7.178,-16.032 -16.032,-16.032 v 0 c -8.854,0 -16.032,7.178 -16.032,16.032 v 24.048 c 0,8.854 7.177,16.032 16.032,16.032 z"
       style="fill:#a06e50" /></g><path
     inkscape:connector-curvature="0"
     id="path28"
     d="m 204.41,159.807 v 8.016 c 0,4.142 3.357,7.5 7.5,7.5 4.143,0 7.5,-3.358 7.5,-7.5 v -8.016 c 0,-4.142 -3.357,-7.5 -7.5,-7.5 -4.143,0 -7.5,3.358 -7.5,7.5 z" /><path
     inkscape:connector-curvature="0"
     id="path30"
     d="m 231.211,125.922 c -1.005,-4.018 -5.078,-6.459 -9.096,-5.457 l -32.064,8.017 c -4.019,1.004 -6.461,5.077 -5.457,9.095 0.853,3.408 3.91,5.683 7.271,5.683 0.603,0 1.215,-0.073 1.825,-0.226 l 32.064,-8.017 c 4.018,-1.004 6.461,-5.076 5.457,-9.095 z" /><path
     inkscape:connector-curvature="0"
     id="path32"
     d="m 292.588,159.807 v 8.016 c 0,4.142 3.357,7.5 7.5,7.5 4.143,0 7.5,-3.358 7.5,-7.5 v -8.016 c 0,-4.142 -3.357,-7.5 -7.5,-7.5 -4.143,0 -7.5,3.358 -7.5,7.5 z" /><path
     inkscape:connector-curvature="0"
     id="path34"
     d="m 280.787,125.922 c -1.004,4.019 1.438,8.091 5.457,9.095 l 32.064,8.017 c 0.611,0.153 1.223,0.226 1.825,0.226 3.36,0 6.418,-2.275 7.271,-5.683 1.004,-4.019 -1.438,-8.091 -5.457,-9.095 l -32.064,-8.017 c -4.018,-1.002 -8.09,1.439 -9.096,5.457 z" /><path
     inkscape:connector-curvature="0"
     id="path36-5"
     d="m 415.977,350.876 -84.485,-24.849 c -6.994,-2.057 -11.879,-8.585 -11.879,-15.876 v -34.523 c 25.017,-17.394 42.615,-44.739 47.014,-76.258 h 5.607 c 7.768,0 15.212,-3.305 20.426,-9.067 5.21,-5.758 7.751,-13.518 6.973,-21.289 -0.628,-6.263 -3.531,-11.909 -7.872,-16.222 v -41.084 c 0,-9.426 -5.573,-17.571 -13.595,-21.324 C 361.863,37.012 312.103,0 255.999,0 199.896,0 150.136,37.013 133.835,90.386 c -8.021,3.754 -13.594,11.898 -13.594,21.324 v 41.083 c -4.341,4.313 -7.245,9.96 -7.872,16.222 -0.778,7.771 1.763,15.531 6.973,21.289 5.214,5.762 12.658,9.067 20.426,9.067 h 5.604 c 4.399,31.519 21.997,58.864 47.014,76.258 v 34.523 c 0,7.291 -4.885,13.819 -11.879,15.876 l -84.485,24.849 c -23.498,6.911 -39.909,28.845 -39.909,53.338 V 504.5 c 0,4.142 3.357,7.5 7.5,7.5 4.143,0 7.5,-3.358 7.5,-7.5 V 404.214 c 0,-17.885 11.983,-33.901 29.142,-38.947 l 19.987,-5.879 V 504.5 c 0,4.142 3.357,7.5 7.5,7.5 4.143,0 7.5,-3.358 7.5,-7.5 V 354.976 l 25.08,-7.376 v 12.61 c 0,52.757 42.921,95.677 95.678,95.677 52.757,0 95.678,-42.92 95.678,-95.677 V 347.6 l 25.08,7.376 v 21.266 c 0,4.142 3.357,7.5 7.5,7.5 4.143,0 7.5,-3.358 7.5,-7.5 v -16.855 l 19.987,5.879 c 17.158,5.046 29.142,21.062 29.142,38.947 V 504.5 c 0,4.142 3.357,7.5 7.5,7.5 4.143,0 7.5,-3.358 7.5,-7.5 V 404.214 c -10e-4,-24.493 -16.412,-46.427 -39.91,-53.338 z M 120.296,152.734 c 10e-4,-0.012 0.003,-0.014 0.004,-0.004 -0.002,0.001 -0.003,0.003 -0.004,0.004 z m 247.932,-49.557 c 4.705,0 8.532,3.828 8.532,8.532 v 33.133 c -1.84,-0.362 -3.736,-0.552 -5.671,-0.552 h -2.861 c -2.279,0 -4.422,-0.887 -6.033,-2.499 -1.611,-1.612 -2.499,-3.754 -2.499,-6.034 v -24.048 c -0.001,-4.704 3.826,-8.532 8.532,-8.532 z m -232.987,8.532 c 0,-4.705 3.827,-8.532 8.532,-8.532 4.705,0 8.532,3.828 8.532,8.532 v 24.048 c 0,2.279 -0.888,4.422 -2.499,6.034 -1.611,1.611 -3.754,2.499 -6.033,2.499 h -2.861 c -1.934,0 -3.831,0.19 -5.671,0.552 z m 24.048,72.146 c 0,-4.142 -3.357,-7.5 -7.5,-7.5 -4.143,0 -7.5,3.358 -7.5,7.5 0,0.173 0.006,0.344 0.007,0.516 h -4.528 c -3.537,0 -6.928,-1.506 -9.303,-4.131 -2.406,-2.66 -3.532,-6.115 -3.17,-9.73 0.63,-6.292 6.611,-11.22 13.617,-11.22 h 2.861 c 0,0 0,0 0.001,0 6.285,0 12.194,-2.448 16.639,-6.892 4.445,-4.445 6.893,-10.354 6.893,-16.64 V 111.71 c 0,-10.79 -7.303,-19.901 -17.224,-22.667 C 166.161,45.036 208.511,15 256.002,15 c 47.488,0 89.837,30.036 105.917,74.043 -9.921,2.765 -17.224,11.876 -17.224,22.666 v 24.048 c 0,6.286 2.447,12.195 6.893,16.64 4.444,4.445 10.354,6.893 16.64,6.892 h 2.861 c 7.006,0 12.987,4.929 13.617,11.221 0.362,3.614 -0.764,7.069 -3.17,9.729 -2.375,2.625 -5.766,4.131 -9.303,4.131 h -4.531 c 10e-4,-0.172 0.007,-0.344 0.007,-0.516 0,-4.142 -3.357,-7.5 -7.5,-7.5 -4.143,0 -7.5,3.358 -7.5,7.5 0,53.326 -43.384,96.709 -96.71,96.709 -53.326,0 -96.71,-43.382 -96.71,-96.708 z M 336.677,360.21 c 0,30.114 -16.597,56.411 -41.113,70.269 v -14.156 c 0,-4.142 -3.357,-7.5 -7.5,-7.5 -4.143,0 -7.5,3.358 -7.5,7.5 v 20.728 c -5.46,1.75 -11.171,2.93 -17.064,3.476 v -32.219 c 0,-4.142 -3.357,-7.5 -7.5,-7.5 -4.143,0 -7.5,3.358 -7.5,7.5 v 32.219 c -5.894,-0.546 -11.604,-1.726 -17.064,-3.476 v -20.728 c 0,-4.142 -3.357,-7.5 -7.5,-7.5 -4.143,0 -7.5,3.358 -7.5,7.5 v 14.156 C 191.92,416.62 175.323,390.324 175.323,360.21 v -17.022 l 9.418,-2.77 c 13.334,-3.921 22.646,-16.368 22.646,-30.267 V 284.42 c 14.705,7.137 31.2,11.145 48.613,11.145 17.413,0 33.908,-4.007 48.613,-11.145 v 25.732 c 0,13.899 9.313,26.345 22.646,30.267 l 9.418,2.77 z" /><path
     inkscape:connector-curvature="0"
     id="path38-5"
     d="m 384.257,400.808 c -4.143,0 -7.5,3.358 -7.5,7.5 V 504.5 c 0,4.142 3.357,7.5 7.5,7.5 4.143,0 7.5,-3.358 7.5,-7.5 v -96.192 c 0,-4.142 -3.358,-7.5 -7.5,-7.5 z" /><path
     inkscape:connector-curvature="0"
     id="path40"
     d="m 233.994,50.187 c 7.313,-2.072 14.718,-3.122 22.005,-3.122 7.287,0 14.691,1.05 22.005,3.122 0.684,0.193 1.371,0.286 2.048,0.286 3.271,0 6.277,-2.156 7.212,-5.458 1.129,-3.985 -1.187,-8.131 -5.172,-9.26 -8.644,-2.448 -17.423,-3.689 -26.093,-3.689 -8.67,0 -17.449,1.241 -26.093,3.689 -3.985,1.129 -6.301,5.275 -5.172,9.26 1.128,3.985 5.274,6.3 9.26,5.172 z" /><path
     inkscape:connector-curvature="0"
     id="path42-9"
     d="m 280.048,231.436 h 24.048 c 4.143,0 7.5,-3.358 7.5,-7.5 0,-17.396 -14.152,-31.548 -31.548,-31.548 H 231.95 c -17.396,0 -31.548,14.152 -31.548,31.548 0,4.142 3.357,7.5 7.5,7.5 h 24.048 c 9.628,0 18.257,-4.34 24.049,-11.161 5.792,6.82 14.42,11.161 24.049,11.161 z m 0,-24.049 c 6.427,0 12.01,3.682 14.749,9.048 h -14.749 c -6.427,0 -12.01,-3.682 -14.75,-9.048 z m -48.098,9.049 h -14.749 c 2.739,-5.366 8.322,-9.048 14.749,-9.048 h 14.75 c -2.74,5.365 -8.323,9.048 -14.75,9.048 z" /></g></g></svg>