<?xml version="1.0" encoding="UTF-8" standalone="no"?>
<!-- Generator: Adobe Illustrator 19.0.0, SVG Export Plug-In . SVG Version: 6.00 Build 0)  -->

<svg
   xmlns:osb="http://www.openswatchbook.org/uri/2009/osb"
   xmlns:dc="http://purl.org/dc/elements/1.1/"
   xmlns:cc="http://creativecommons.org/ns#"
   xmlns:rdf="http://www.w3.org/1999/02/22-rdf-syntax-ns#"
   xmlns:svg="http://www.w3.org/2000/svg"
   xmlns="http://www.w3.org/2000/svg"
   xmlns:xlink="http://www.w3.org/1999/xlink"
   xmlns:sodipodi="http://sodipodi.sourceforge.net/DTD/sodipodi-0.dtd"
   xmlns:inkscape="http://www.inkscape.org/namespaces/inkscape"
   version="1.1"
   id="Capa_1"
   x="0px"
   y="0px"
   viewBox="0 0 511.999 511.999"
   style="enable-background:new 0 0 511.999 511.999;"
   xml:space="preserve"
   sodipodi:docname="24.svg"
   inkscape:version="0.92.4 (5da689c313, 2019-01-14)"><metadata
   id="metadata95"><rdf:RDF><cc:Work
       rdf:about=""><dc:format>image/svg+xml</dc:format><dc:type
         rdf:resource="http://purl.org/dc/dcmitype/StillImage" /><dc:title /></cc:Work></rdf:RDF></metadata><defs
   id="defs93"><linearGradient
     id="linearGradient2457"
     osb:paint="solid"><stop
       style="stop-color:#000000;stop-opacity:1;"
       offset="0"
       id="stop2455" /></linearGradient><linearGradient
     inkscape:collect="always"
     xlink:href="#linearGradient2457"
     id="linearGradient2459-6-2"
     x1="1442.3572"
     y1="-339.5119"
     x2="1514.9286"
     y2="-339.5119"
     gradientUnits="userSpaceOnUse"
     gradientTransform="matrix(6.4669274,0,0,9.6773016,-9356.1743,3517.6929)" /></defs><sodipodi:namedview
   pagecolor="#ffffff"
   bordercolor="#666666"
   borderopacity="1"
   objecttolerance="10"
   gridtolerance="10"
   guidetolerance="10"
   inkscape:pageopacity="0"
   inkscape:pageshadow="2"
   inkscape:window-width="1920"
   inkscape:window-height="986"
   id="namedview91"
   showgrid="false"
   inkscape:zoom="1.3037307"
   inkscape:cx="47.583058"
   inkscape:cy="348.77217"
   inkscape:window-x="-11"
   inkscape:window-y="-11"
   inkscape:window-maximized="1"
   inkscape:current-layer="g1046" />























<g
   id="g60">
</g>
<g
   id="g62">
</g>
<g
   id="g64">
</g>
<g
   id="g66">
</g>
<g
   id="g68">
</g>
<g
   id="g70">
</g>
<g
   id="g72">
</g>
<g
   id="g74">
</g>
<g
   id="g76">
</g>
<g
   id="g78">
</g>
<g
   id="g80">
</g>
<g
   id="g82">
</g>
<g
   id="g84">
</g>
<g
   id="g86">
</g>
<g
   id="g88">
</g>
<g
   id="g1046"
   transform="matrix(0.55886315,0,0,0.55886315,157.54779,132.77619)"><rect
   y="-104.38158"
   x="-28.555799"
   height="673.03345"
   width="469.31418"
   id="rect2447-0-9"
   style="display:inline;fill:none;fill-opacity:1;stroke:url(#linearGradient2459-6-2);stroke-width:25.31489563;stroke-miterlimit:4;stroke-dasharray:none;stroke-opacity:1" /><text
   id="text2485-9"
   y="522.54254"
   x="126.96741"
   style="font-style:normal;font-weight:normal;font-size:76.99105835px;line-height:1.25;font-family:sans-serif;letter-spacing:0px;word-spacing:0px;display:inline;fill:#000000;fill-opacity:1;stroke:none;stroke-width:1.9247762"
   xml:space="preserve"><tspan
     style="stroke-width:1.9247762"
     y="522.54254"
     x="126.96741"
     id="tspan2483-7"
     sodipodi:role="line">EVA</tspan></text>





<g
   transform="matrix(0.95411009,0,0,0.95411009,-38.150893,-48.559869)"
   id="g892"><path
     inkscape:connector-curvature="0"
     id="path2-4"
     d="M 391.94,139.25 C 387.624,65.244 328.045,7.5 256,7.5 183.955,7.5 124.375,65.244 120.06,139.25 l -6.842,112.651 C 108.07,336.657 173.479,408.306 256,408.306 v 0 c 82.521,0 147.93,-71.65 142.782,-156.405 z"
     style="fill:#8c5f4b" /><path
     inkscape:connector-curvature="0"
     id="path4-2"
     d="m 207.032,16.936 c 7.973,35.868 39.906,62.709 78.175,62.709 h 89.749 C 351.628,36.499 306.991,7.5 256,7.5 c -17.245,0 -33.738,3.388 -48.968,9.436 z"
     style="fill:#a06e50" /><path
     inkscape:connector-curvature="0"
     id="path6-1"
     d="M 408.282,396.981 325.49,367.76 c -12.82,-4.525 -21.393,-16.642 -21.393,-30.237 V 296.08 h -96.194 v 41.443 c 0,13.595 -8.573,25.712 -21.393,30.237 l -82.792,29.221 c -19.229,6.787 -32.089,24.962 -32.089,45.354 V 504.5 h 368.742 v -62.165 c 0,-20.392 -12.859,-38.567 -32.089,-45.354 z"
     style="fill:#e3aa75" /><path
     inkscape:connector-curvature="0"
     id="path8"
     d="m 207.903,325.904 c 14.8,6.545 31.063,10.257 48.097,10.257 17.034,0 33.296,-3.712 48.097,-10.257 V 296.08 h -96.194 z"
     style="fill:#d29b6e" /><path
     inkscape:connector-curvature="0"
     id="path10"
     d="M 320.129,103.694 H 191.871 c -22.136,0 -40.081,17.945 -40.081,40.081 v 61.186 c 0,56.112 43.121,104.395 99.172,107.034 59.844,2.818 109.248,-44.867 109.248,-104.091 v -64.129 c 0,-22.137 -17.945,-40.081 -40.081,-40.081 z"
     style="fill:#f5b97d" /><g
     id="g18"><rect
       id="rect12"
       height="24.049999"
       width="64.129997"
       style="fill:#e3aa75"
       y="167.82001"
       x="175.84" /><rect
       id="rect14"
       height="24.049999"
       width="64.129997"
       style="fill:#e3aa75"
       y="167.82001"
       x="272.03" /><path
       inkscape:connector-curvature="0"
       id="path16"
       d="m 183.855,204.96 v -37.137 c 0,-22.136 17.945,-40.081 40.081,-40.081 h 80.161 c 8.854,0 16.032,-7.178 16.032,-16.032 v -8.016 H 191.871 c -22.136,0 -40.081,17.945 -40.081,40.081 v 60.958 c 0,47.034 29.902,90.046 75.055,103.214 15.696,4.578 30.907,5.111 45.205,2.899 -50.6,-7.968 -88.195,-53.501 -88.195,-105.886 z"
       style="fill:#e3aa75" /></g><path
     inkscape:connector-curvature="0"
     id="path20"
     d="m 71.629,504.5 h 368.742 v -62.165 c 0,-20.392 -12.859,-38.567 -32.089,-45.354 l -41.156,-14.525 c -12.777,14.949 -49.188,53.757 -101.598,77.991 -3.022,1.397 -6.274,2.096 -9.529,2.096 -3.253,0 -6.505,-0.699 -9.526,-2.096 -52.41,-24.235 -88.821,-63.042 -101.598,-77.991 l -41.156,14.525 C 84.49,403.768 71.63,421.943 71.63,442.335 V 504.5 Z"
     style="fill:#b4f09b" /><path
     inkscape:connector-curvature="0"
     id="path22-3"
     d="m 124.591,395.375 0.906,1.423 1.096,1.282 c 14.203,16.619 53.336,58.091 109.785,84.194 6.194,2.865 12.795,4.317 19.621,4.317 6.826,0 13.428,-1.452 19.622,-4.317 56.449,-26.103 95.582,-67.575 109.785,-84.194 l 1.55,-1.813 1.163,-2.082 2.016,-3.608 -23.01,-8.121 c -12.777,14.949 -49.189,53.757 -101.598,77.991 -3.022,1.397 -6.274,2.096 -9.53,2.096 -3.253,0 -6.504,-0.699 -9.526,-2.096 -52.41,-24.235 -88.821,-63.042 -101.598,-77.991 l -23.279,8.216 z"
     style="fill:#9bdc9b" /><path
     inkscape:connector-curvature="0"
     id="path24"
     d="m 410.778,389.909 -49.075,-17.32 c 13.684,-13.457 24.832,-29.516 32.534,-47.01 9.705,-22.045 13.889,-45.514 12.434,-69.754 L 399.426,135.079 C 394.882,59.333 331.882,0 256,0 180.118,0 117.118,59.333 112.574,135.079 l -7.245,120.746 c -1.459,24.319 2.755,47.858 12.525,69.961 7.698,17.416 18.809,33.4 32.439,46.804 l -49.072,17.319 c -22.187,7.83 -37.093,28.899 -37.093,52.427 V 504.5 c 0,4.142 3.357,7.5 7.5,7.5 4.143,0 7.5,-3.358 7.5,-7.5 v -62.165 c 0,-17.18 10.885,-32.564 27.085,-38.282 l 34.257,-12.09 c 9.809,11.268 47.093,51.122 103.342,75.558 3.873,1.683 8.029,2.524 12.188,2.524 4.157,0 8.315,-0.842 12.188,-2.524 19.273,-8.374 38.252,-19.44 56.407,-32.891 3.328,-2.466 4.027,-7.163 1.562,-10.491 -2.467,-3.329 -7.161,-4.025 -10.491,-1.562 -17.24,12.774 -35.226,23.266 -53.454,31.186 -3.946,1.714 -8.474,1.715 -12.422,0 -46.98,-20.41 -80.7,-53.014 -93.96,-67.221 l 33.178,-11.71 c 15.789,-5.573 26.396,-20.566 26.396,-37.309 V 311.83 c 11.13,4.464 22.988,7.08 35.206,7.656 1.825,0.086 3.642,0.129 5.455,0.128 14.088,0 27.772,-2.591 40.532,-7.565 v 25.474 c 0,16.743 10.607,31.736 26.396,37.309 l 33.195,11.716 c -3.835,4.124 -9.375,9.784 -16.435,16.215 -3.063,2.79 -3.283,7.533 -0.493,10.595 1.479,1.625 3.509,2.449 5.546,2.449 1.803,0 3.611,-0.646 5.049,-1.956 10.708,-9.755 18.064,-17.772 21.667,-21.892 l 34.265,12.093 c 16.2,5.718 27.085,21.102 27.085,38.282 V 504.5 c 0,4.142 3.357,7.5 7.5,7.5 4.143,0 7.5,-3.358 7.5,-7.5 v -62.165 c -0.001,-23.527 -14.907,-44.596 -37.094,-52.426 z M 251.314,304.502 c -24.929,-1.174 -48.165,-12.197 -65.427,-31.04 -17.152,-18.721 -26.598,-43.049 -26.598,-68.503 v -29.637 h 9.049 v 8.532 c 0,21.816 17.748,39.564 39.564,39.564 21.816,0 39.564,-17.749 39.564,-39.564 v -0.516 h 17.064 v 0.516 c 0,21.816 17.748,39.564 39.564,39.564 21.816,0 39.564,-17.749 39.564,-39.564 v -8.532 h 9.049 v 32.581 c 0,26.696 -10.642,51.55 -29.964,69.984 -19.307,18.423 -44.665,27.868 -71.429,26.615 z M 207.901,192.05 c 4.143,0 7.5,-3.358 7.5,-7.5 v -9.228 h 17.066 v 8.532 c 0,13.545 -11.02,24.564 -24.564,24.564 -13.544,0 -24.564,-11.02 -24.564,-24.564 v -8.532 h 17.063 v 9.228 c -10e-4,4.142 3.357,7.5 7.499,7.5 z m 96.195,0 c 4.143,0 7.5,-3.358 7.5,-7.5 v -9.228 h 17.065 v 8.532 c 0,13.545 -11.02,24.564 -24.564,24.564 -13.544,0 -24.564,-11.02 -24.564,-24.564 v -8.532 h 17.063 v 9.228 c 0,4.142 3.357,7.5 7.5,7.5 z m 7.501,145.473 v -32.665 c 7.687,-4.431 14.901,-9.82 21.503,-16.118 22.319,-21.292 34.61,-50.001 34.61,-80.837 v -64.129 c 0,-26.236 -21.345,-47.581 -47.581,-47.581 h -8.017 c -4.143,0 -7.5,3.358 -7.5,7.5 0,4.142 3.357,7.5 7.5,7.5 h 8.017 c 17.965,0 32.581,14.616 32.581,32.581 v 16.548 h -80.678 c -4.143,0 -7.5,3.358 -7.5,7.5 v 0.516 h -17.064 v -0.516 c 0,-4.142 -3.357,-7.5 -7.5,-7.5 H 159.29 v -16.548 c 0,-17.965 14.616,-32.581 32.581,-32.581 h 88.177 c 4.143,0 7.5,-3.358 7.5,-7.5 0,-4.142 -3.357,-7.5 -7.5,-7.5 h -88.177 c -26.236,0 -47.581,21.345 -47.581,47.581 v 61.186 c 0,29.215 10.845,57.141 30.537,78.636 7.606,8.302 16.224,15.286 25.576,20.833 v 33.095 c 0,10.396 -6.586,19.705 -16.389,23.165 l -17.769,6.271 C 134.479,339.04 117.762,299.053 120.301,256.723 l 7.245,-120.746 C 131.617,68.14 188.04,15 256,15 c 67.96,0 124.383,53.14 128.453,120.977 l 7.245,120.746 c 2.538,42.305 -14.186,82.313 -45.947,110.236 l -17.766,-6.27 c -9.802,-3.461 -16.388,-12.77 -16.388,-23.166 z" /><path
     inkscape:connector-curvature="0"
     id="path26"
     d="m 274.781,242.645 c -2.737,2.701 -9.299,5.855 -18.781,5.855 -9.482,0 -16.044,-3.154 -18.781,-5.855 -2.948,-2.908 -7.697,-2.877 -10.606,0.071 -2.909,2.948 -2.877,7.698 0.071,10.606 6.46,6.373 17.419,10.177 29.316,10.177 11.897,0 22.856,-3.805 29.316,-10.177 2.948,-2.909 2.98,-7.658 0.071,-10.606 -2.909,-2.948 -7.656,-2.981 -10.606,-0.071 z" /><path
     inkscape:connector-curvature="0"
     id="path28"
     d="m 214.1,132.49 -16.032,4.008 c -4.019,1.004 -6.461,5.077 -5.457,9.095 0.853,3.408 3.91,5.683 7.271,5.683 0.603,0 1.215,-0.073 1.825,-0.226 l 16.032,-4.008 c 4.019,-1.004 6.461,-5.077 5.457,-9.095 -1.006,-4.019 -5.082,-6.461 -9.096,-5.457 z" /><path
     inkscape:connector-curvature="0"
     id="path30"
     d="m 288.805,137.947 c -1.004,4.019 1.438,8.091 5.457,9.095 l 16.032,4.008 c 0.611,0.153 1.223,0.226 1.825,0.226 3.36,0 6.418,-2.275 7.271,-5.683 1.004,-4.019 -1.438,-8.091 -5.457,-9.095 L 297.9,132.49 c -4.018,-1.004 -8.089,1.438 -9.095,5.457 z" /></g></g></svg>