<?xml version="1.0" encoding="UTF-8" standalone="no"?>
<!-- Generator: Adobe Illustrator 19.0.0, SVG Export Plug-In . SVG Version: 6.00 Build 0)  -->

<svg
   xmlns:osb="http://www.openswatchbook.org/uri/2009/osb"
   xmlns:dc="http://purl.org/dc/elements/1.1/"
   xmlns:cc="http://creativecommons.org/ns#"
   xmlns:rdf="http://www.w3.org/1999/02/22-rdf-syntax-ns#"
   xmlns:svg="http://www.w3.org/2000/svg"
   xmlns="http://www.w3.org/2000/svg"
   xmlns:xlink="http://www.w3.org/1999/xlink"
   xmlns:sodipodi="http://sodipodi.sourceforge.net/DTD/sodipodi-0.dtd"
   xmlns:inkscape="http://www.inkscape.org/namespaces/inkscape"
   version="1.1"
   id="Capa_1"
   x="0px"
   y="0px"
   viewBox="0 0 511.999 511.999"
   style="enable-background:new 0 0 511.999 511.999;"
   xml:space="preserve"
   sodipodi:docname="27.svg"
   inkscape:version="0.92.4 (5da689c313, 2019-01-14)"><metadata
   id="metadata95"><rdf:RDF><cc:Work
       rdf:about=""><dc:format>image/svg+xml</dc:format><dc:type
         rdf:resource="http://purl.org/dc/dcmitype/StillImage" /><dc:title /></cc:Work></rdf:RDF></metadata><defs
   id="defs93"><linearGradient
     id="linearGradient2457"
     osb:paint="solid"><stop
       style="stop-color:#000000;stop-opacity:1;"
       offset="0"
       id="stop2455" /></linearGradient><linearGradient
     inkscape:collect="always"
     xlink:href="#linearGradient2457"
     id="linearGradient2459-6-2"
     x1="1442.3572"
     y1="-339.5119"
     x2="1514.9286"
     y2="-339.5119"
     gradientUnits="userSpaceOnUse"
     gradientTransform="matrix(6.4669274,0,0,9.6773016,-9356.1743,3517.6929)" /></defs><sodipodi:namedview
   pagecolor="#ffffff"
   bordercolor="#666666"
   borderopacity="1"
   objecttolerance="10"
   gridtolerance="10"
   guidetolerance="10"
   inkscape:pageopacity="0"
   inkscape:pageshadow="2"
   inkscape:window-width="1920"
   inkscape:window-height="986"
   id="namedview91"
   showgrid="false"
   inkscape:zoom="1.3037307"
   inkscape:cx="47.583058"
   inkscape:cy="348.77217"
   inkscape:window-x="-11"
   inkscape:window-y="-11"
   inkscape:window-maximized="1"
   inkscape:current-layer="g1046" />























<g
   id="g60">
</g>
<g
   id="g62">
</g>
<g
   id="g64">
</g>
<g
   id="g66">
</g>
<g
   id="g68">
</g>
<g
   id="g70">
</g>
<g
   id="g72">
</g>
<g
   id="g74">
</g>
<g
   id="g76">
</g>
<g
   id="g78">
</g>
<g
   id="g80">
</g>
<g
   id="g82">
</g>
<g
   id="g84">
</g>
<g
   id="g86">
</g>
<g
   id="g88">
</g>
<g
   id="g1046"
   transform="matrix(0.55886315,0,0,0.55886315,157.54779,132.77619)"><rect
   y="-104.38158"
   x="-28.555799"
   height="673.03345"
   width="469.31418"
   id="rect2447-0-9"
   style="display:inline;fill:none;fill-opacity:1;stroke:url(#linearGradient2459-6-2);stroke-width:25.31489563;stroke-miterlimit:4;stroke-dasharray:none;stroke-opacity:1" /><text
   id="text2485-9"
   y="522.54254"
   x="102.04306"
   style="font-style:normal;font-weight:normal;font-size:76.99105835px;line-height:1.25;font-family:sans-serif;letter-spacing:0px;word-spacing:0px;display:inline;fill:#000000;fill-opacity:1;stroke:none;stroke-width:1.9247762"
   xml:space="preserve"><tspan
     style="stroke-width:1.9247762"
     y="522.54254"
     x="102.04306"
     id="tspan2483-7"
     sodipodi:role="line">LUCA</tspan></text>





<g
   transform="matrix(0.91225696,0,0,0.91225696,-27.437404,-28.797633)"
   id="g919"><path
     inkscape:connector-curvature="0"
     id="path2"
     d="m 140.074,191.871 h 231.851 l 9.894,-64.315 C 391.531,64.429 342.69,7.5 278.822,7.5 h -45.645 c -63.869,0 -112.71,56.929 -102.998,120.056 z"
     style="fill:#5a4650" /><path
     inkscape:connector-curvature="0"
     id="path4"
     d="m 413.861,366.087 -84.486,-24.849 c -10.235,-3.01 -17.263,-12.403 -17.263,-23.071 V 280.048 H 199.886 v 38.119 c 0,10.668 -7.028,20.061 -17.263,23.071 l -84.485,24.849 c -20.469,6.02 -34.526,24.806 -34.526,46.142 v 92.27 h 384.774 v -92.27 c 0,-21.335 -14.056,-40.121 -34.525,-46.142 z"
     style="fill:#b67f5f" /><path
     inkscape:connector-curvature="0"
     id="path6"
     d="m 413.861,366.087 -84.486,-24.849 c -1.429,-0.42 8.079,3.594 6.786,2.939 l -80.165,24.048 -80.157,-24.048 c -1.293,0.655 8.214,-3.359 6.786,-2.939 l -84.486,24.849 c -20.469,6.02 -34.525,24.806 -34.525,46.142 V 504.5 h 384.774 v -92.271 c -0.002,-21.336 -14.058,-40.121 -34.527,-46.142 z"
     style="fill:#5a4650" /><path
     inkscape:connector-curvature="0"
     id="path8-7"
     d="m 333.41,357.459 -9.558,-9.558 -67.852,12.309 -67.852,-12.309 -9.558,9.558 c -12.027,12.026 -18.783,28.338 -18.783,45.346 V 504.5 H 352.194 V 402.805 c -0.001,-17.008 -6.757,-33.32 -18.784,-45.346 z"
     style="fill:#a5cdff" /><path
     inkscape:connector-curvature="0"
     id="path10-0"
     d="m 333.41,357.459 -9.558,-9.558 -67.852,12.309 -67.852,-12.309 -9.558,9.558 c -6.013,6.012 -10.708,13.096 -13.9,20.802 l 27.49,31.417 c 6.087,6.958 14.883,10.95 24.133,10.95 8.564,0 16.616,-3.336 22.673,-9.392 l 17.016,-17.016 17.019,17.017 c 6.053,6.056 14.105,9.391 22.67,9.391 9.248,0 18.045,-3.991 24.134,-10.95 l 27.489,-31.417 c -3.196,-7.706 -7.891,-14.789 -13.904,-20.802 z"
     style="fill:#8cb4eb" /><polygon
     id="polygon12"
     points="244.42,400.29 231.951,504.5 280.048,504.5 267.578,400.29 "
     style="fill:#5a4650" /><path
     inkscape:connector-curvature="0"
     id="path14"
     d="m 266.254,408.306 h -20.509 c -3.45,0 -6.514,-2.208 -7.605,-5.481 l -14.205,-42.616 h 64.129 l -14.205,42.616 c -1.092,3.274 -4.155,5.481 -7.605,5.481 z"
     style="fill:#64505a" /><path
     inkscape:connector-curvature="0"
     id="path16-1"
     d="m 199.886,305.953 c 16.841,8.996 35.939,14.176 56.113,14.176 20.174,0 39.272,-5.18 56.113,-14.176 V 280.048 H 199.886 Z"
     style="fill:#a06e50" /><g
     id="g22"><path
       inkscape:connector-curvature="0"
       id="path18"
       d="m 194.531,326.061 -21.122,25.647 36.867,42.134 c 3.054,3.49 8.422,3.668 11.701,0.39 l 34.022,-34.022 z"
       style="fill:#a5cdff" /><path
       inkscape:connector-curvature="0"
       id="path20-2"
       d="m 317.467,326.061 21.122,25.647 -36.867,42.134 c -3.054,3.49 -8.422,3.668 -11.701,0.39 L 255.999,360.21 Z"
       style="fill:#a5cdff" /></g><g
     id="g28"><path
       inkscape:connector-curvature="0"
       id="path24-6"
       d="m 119.725,504.5 -14.123,-55.538 c -1.189,-5.351 0.438,-10.938 4.314,-14.814 l 25.841,-25.841 -11.889,-17.833 c -2.799,-4.198 -3.398,-9.47 -1.805,-14.257 19.114,-57.442 77.823,-72.119 77.823,-72.119 v 15.463 c 0,10.63 -4.223,20.825 -11.739,28.341 l -9.558,9.558 c -12.027,12.027 -18.783,28.338 -18.783,45.346 V 504.5"
       style="fill:#64505a" /><path
       inkscape:connector-curvature="0"
       id="path26-4"
       d="m 392.273,504.5 14.123,-55.538 c 1.189,-5.351 -0.438,-10.938 -4.314,-14.814 l -25.841,-25.841 11.889,-17.833 c 2.799,-4.198 3.398,-9.47 1.805,-14.257 -19.114,-57.442 -77.823,-72.119 -77.823,-72.119 v 15.463 c 0,10.63 4.223,20.825 11.739,28.341 l 9.558,9.558 c 12.027,12.027 18.783,28.338 18.783,45.346 V 504.5"
       style="fill:#64505a" /></g><path
     inkscape:connector-curvature="0"
     id="path30-6"
     d="m 372.233,159.806 h -8.719 -0.346 c -9.746,0 -16.985,-9.025 -14.872,-18.54 6.114,-27.51 -14.82,-53.605 -43.001,-53.605 h -98.593 c -28.181,0 -49.114,26.095 -43.001,53.605 2.114,9.514 -5.126,18.54 -14.872,18.54 h -0.346 -8.719 c -11.068,0 -20.04,8.972 -20.04,20.04 0,11.068 8.972,20.04 20.04,20.04 h 12.429 c 4.106,53.795 48.958,96.194 103.805,96.194 54.847,0 99.699,-42.398 103.805,-96.194 h 12.429 c 11.068,0 20.04,-8.973 20.04,-20.04 0.001,-11.067 -8.971,-20.04 -20.039,-20.04 z"
     style="fill:#cd916e" /><path
     inkscape:connector-curvature="0"
     id="path32"
     d="m 206.703,87.661 c -28.204,0 -49.147,26.137 -42.987,53.671 2.123,9.488 -5.163,18.474 -14.886,18.474 h -0.345 -7.577 c -10.483,0 -20.035,7.542 -21.08,17.973 -1.201,11.996 8.187,22.108 19.937,22.108 h 12.429 c 4.106,53.795 48.958,96.194 103.805,96.194 5.484,0 10.83,-0.534 16.083,-1.351 -49.946,-7.708 -88.228,-50.754 -88.228,-102.859 V 151.79 c 0,-22.136 17.945,-40.081 40.081,-40.081 h 56.11 c 13.281,0 24.048,-10.767 24.048,-24.048 v 0 c 0,0 -97.39,0 -97.39,0 z"
     style="fill:#b67f5f" /><path
     inkscape:connector-curvature="0"
     id="path34"
     d="m 278.822,7.5 h -45.645 c -8.268,0 -16.268,0.993 -23.938,2.791 1.464,29.685 25.924,53.322 55.972,53.322 H 371.196 C 353.937,30.587 319.459,7.5 278.822,7.5 Z"
     style="fill:#64505a" /><path
     inkscape:connector-curvature="0"
     id="path36"
     d="m 159.806,432.869 c -4.142,0 -7.5,3.358 -7.5,7.5 V 504.5 c 0,4.142 3.358,7.5 7.5,7.5 4.142,0 7.5,-3.358 7.5,-7.5 v -64.131 c 0,-4.142 -3.358,-7.5 -7.5,-7.5 z" /><path
     inkscape:connector-curvature="0"
     id="path38"
     d="m 352.193,432.871 c -4.143,0 -7.5,3.358 -7.5,7.5 V 504.5 c 0,4.142 3.357,7.5 7.5,7.5 4.143,0 7.5,-3.358 7.5,-7.5 v -64.129 c 0,-4.142 -3.358,-7.5 -7.5,-7.5 z" /><path
     inkscape:connector-curvature="0"
     id="path40"
     d="m 415.977,357.5 -30.043,-8.836 C 365.446,315.587 332.766,301.636 319.613,297.158 V 283.64 c 25.013,-17.396 42.617,-44.741 47.019,-76.253 h 4.458 c 14.617,0 27.154,-10.861 28.544,-24.728 0.777,-7.771 -1.765,-15.53 -6.975,-21.287 -3.2,-3.536 -7.242,-6.141 -11.681,-7.63 l 4.014,-21.794 C 391.019,99.229 382.267,65.8 360.979,40.232 339.691,14.664 308.401,0 275.13,0 h -41.466 c -32.718,0 -63.673,14.266 -84.927,39.14 -21.254,24.874 -30.518,57.675 -25.416,89.993 l 4.172,26.423 c -8.236,4.224 -14.194,12.171 -15.126,21.477 -0.778,7.771 1.764,15.53 6.974,21.288 5.213,5.762 12.658,9.066 20.425,9.066 h 5.598 c 4.399,31.522 22.003,58.869 47.022,76.263 v 13.508 c -13.153,4.478 -45.833,18.429 -66.321,51.506 L 96.021,357.5 c -23.498,6.912 -39.909,28.845 -39.909,53.338 V 504.5 c 0,4.142 3.358,7.5 7.5,7.5 4.142,0 7.5,-3.358 7.5,-7.5 v -93.662 c 0,-17.885 11.983,-33.9 29.142,-38.947 l 16.668,-4.902 c -0.694,1.783 -1.354,3.606 -1.976,5.473 -2.363,7.105 -1.386,14.679 2.681,20.78 l 8.479,12.718 -21.336,21.335 c -5.777,5.777 -8.16,14.296 -6.218,22.233 l 13.887,56.755 c 0.838,3.425 3.904,5.719 7.279,5.719 0.59,0 1.19,-0.07 1.789,-0.217 4.023,-0.984 6.487,-5.044 5.502,-9.068 l -13.887,-56.755 c -0.704,-2.878 0.16,-5.967 2.254,-8.062 l 25.684,-25.683 c 2.528,-2.528 2.92,-6.489 0.937,-9.464 l -11.89,-17.833 c -1.483,-2.225 -1.821,-5.041 -0.928,-7.725 13.085,-39.333 46.751,-57.321 63.207,-63.972 v 4.943 c 0,8.703 -3.389,16.884 -9.542,23.038 l -9.559,9.558 c -13.529,13.529 -20.979,31.517 -20.979,50.649 v 6.892 c 0,4.142 3.358,7.5 7.5,7.5 4.142,0 7.5,-3.358 7.5,-7.5 v -6.892 c 0,-12.461 4.006,-24.302 11.394,-34.069 l 20.218,24.262 c 4.222,5.066 10.423,8.144 17.012,8.442 0.354,0.016 0.707,0.024 1.059,0.024 3.991,0 7.898,-1.026 11.352,-2.926 l 0.857,2.57 c 1.348,4.045 3.724,7.522 6.768,10.206 l -11.459,93.668 c -0.503,4.111 2.422,7.852 6.534,8.355 0.31,0.038 0.616,0.057 0.92,0.057 3.735,0 6.97,-2.788 7.435,-6.59 l 10.967,-89.65 c 0.386,0.019 0.77,0.046 1.16,0.046 h 8.954 c 0.387,0 0.768,-0.027 1.151,-0.046 l 10.977,89.651 c 0.466,3.802 3.699,6.589 7.435,6.589 0.305,0 0.612,-0.019 0.921,-0.057 4.112,-0.503 7.037,-4.245 6.533,-8.356 l -11.468,-93.659 c 3.048,-2.685 5.427,-6.164 6.777,-10.213 l 0.857,-2.57 c 3.455,1.899 7.361,2.926 11.352,2.926 0.353,0 0.705,-0.008 1.059,-0.024 6.589,-0.299 12.789,-3.376 17.012,-8.443 l 20.218,-24.262 c 7.388,9.768 11.394,21.609 11.394,34.07 v 6.894 c 0,4.142 3.357,7.5 7.5,7.5 4.143,0 7.5,-3.358 7.5,-7.5 v -6.894 c 0,-19.133 -7.451,-37.121 -20.979,-50.649 l -9.558,-9.558 c -6.154,-6.154 -9.543,-14.335 -9.543,-23.038 v -4.975 c 16.433,6.594 50.062,24.494 63.206,64.003 0.894,2.685 0.555,5.5 -0.929,7.726 l -11.889,17.833 c -1.983,2.975 -1.591,6.936 0.937,9.463 l 25.683,25.683 c 2.096,2.095 2.959,5.184 2.255,8.061 l -13.887,56.755 c -0.984,4.023 1.479,8.083 5.503,9.068 0.599,0.146 1.198,0.217 1.788,0.217 3.375,0 6.441,-2.295 7.279,-5.719 l 13.887,-56.755 c 1.942,-7.937 -0.44,-16.456 -6.218,-22.233 l -21.336,-21.335 8.478,-12.717 c 4.068,-6.1 5.047,-13.674 2.683,-20.781 -0.621,-1.867 -1.281,-3.69 -1.975,-5.472 l 16.668,4.902 c 17.158,5.046 29.142,21.062 29.142,38.947 V 504.5 c 0,4.142 3.357,7.5 7.5,7.5 4.143,0 7.5,-3.358 7.5,-7.5 V 410.838 C 455.886,386.345 439.475,364.411 415.977,357.5 Z M 159.29,191.871 c 0,-4.142 -3.358,-7.5 -7.5,-7.5 -4.142,0 -7.5,3.358 -7.5,7.5 v 0.516 h -4.524 c -3.537,0 -6.927,-1.505 -9.303,-4.13 -2.406,-2.66 -3.533,-6.115 -3.17,-9.73 0.63,-6.292 6.612,-11.22 13.618,-11.22 h 8.999 c 6.685,0 13.076,-2.857 17.535,-7.838 4.458,-4.981 6.592,-11.648 5.854,-18.293 l -1.093,-9.835 c -1.022,-9.199 1.932,-18.43 8.105,-25.327 6.173,-6.896 15.021,-10.852 24.276,-10.852 h 67.445 c 4.143,0 7.5,-3.358 7.5,-7.5 0,-4.142 -3.357,-7.5 -7.5,-7.5 h -67.445 c -13.516,0 -26.438,5.776 -35.453,15.848 -9.015,10.072 -13.329,23.553 -11.836,36.988 l 1.093,9.835 c 0.271,2.444 -0.482,4.8 -2.123,6.632 -1.641,1.833 -3.898,2.842 -6.358,2.842 h -7.743 l -4.029,-25.514 C 133.721,98.815 141.74,70.418 160.141,48.884 178.541,27.35 205.339,15 233.664,15 h 41.466 c 28.803,0 55.892,12.695 74.321,34.83 18.43,22.134 26.006,51.074 20.788,79.4 l -4.251,23.077 h -3.9 c -2.459,0 -4.717,-1.009 -6.357,-2.842 -1.64,-1.833 -2.395,-4.188 -2.123,-6.633 l 1.093,-9.835 c 1.493,-13.434 -2.82,-26.915 -11.835,-36.987 -9.015,-10.072 -21.938,-15.849 -35.454,-15.849 h -3.319 c -4.143,0 -7.5,3.358 -7.5,7.5 0,4.142 3.357,7.5 7.5,7.5 h 3.319 c 9.256,0 18.104,3.956 24.277,10.852 6.172,6.896 9.126,16.127 8.104,25.327 l -1.093,9.836 c -0.738,6.644 1.396,13.312 5.854,18.292 4.458,4.981 10.85,7.838 17.534,7.838 h 10.121 c 0.011,0 0.021,10e-4 0.032,10e-4 0.003,0 0.007,0 0.01,0 3.53,0.005 6.913,1.509 9.284,4.129 2.406,2.659 3.532,6.114 3.171,9.728 -0.63,6.293 -6.612,11.222 -13.618,11.222 h -3.384 v -0.439 c 0,-4.141 -3.356,-7.499 -7.497,-7.5 -10e-4,0 -0.002,0 -0.003,0 -4.14,0 -7.497,3.354 -7.5,7.495 -0.039,53.286 -43.421,96.638 -96.706,96.638 -53.324,0.001 -96.708,-43.383 -96.708,-96.709 z M 256,303.581 c 17.412,0 33.906,-4.012 48.613,-11.153 v 25.74 c 0,1.833 0.115,3.648 0.318,5.443 l -48.932,27.961 -48.931,-27.961 c 0.203,-1.795 0.318,-3.61 0.318,-5.443 v -25.734 c 14.706,7.137 31.2,11.147 48.614,11.147 z m -39.391,81.482 c -2.424,-0.11 -4.615,-1.197 -6.168,-3.061 l -21.446,-25.735 4.455,-4.455 c 3.937,-3.937 7.098,-8.442 9.409,-13.33 l 40.894,23.368 -20.724,20.724 c -1.716,1.716 -3.992,2.597 -6.42,2.489 z m 34.913,15.744 c -3.678,0 -6.931,-2.345 -8.094,-5.834 l -2.896,-8.689 15.468,-15.467 15.467,15.468 -2.896,8.688 c -1.163,3.49 -4.416,5.834 -8.095,5.834 z m 71.481,-44.54 -21.446,25.736 c -1.554,1.864 -3.743,2.951 -6.168,3.061 -2.413,0.104 -4.704,-0.774 -6.419,-2.49 l -20.724,-20.724 40.893,-23.368 c 2.31,4.888 5.472,9.394 9.408,13.33 z" /><path
     inkscape:connector-curvature="0"
     id="path42"
     d="m 207.903,160.323 c -4.142,0 -7.5,3.358 -7.5,7.5 v 8.016 c 0,4.142 3.358,7.5 7.5,7.5 4.142,0 7.5,-3.358 7.5,-7.5 v -8.016 c 0,-4.142 -3.358,-7.5 -7.5,-7.5 z" /><path
     inkscape:connector-curvature="0"
     id="path44"
     d="m 304.096,160.323 c -4.143,0 -7.5,3.358 -7.5,7.5 v 8.016 c 0,4.142 3.357,7.5 7.5,7.5 4.143,0 7.5,-3.358 7.5,-7.5 v -8.016 c 0,-4.142 -3.358,-7.5 -7.5,-7.5 z" /><path
     inkscape:connector-curvature="0"
     id="path46"
     d="m 285.316,229.274 c 2.948,-2.909 2.98,-7.658 0.071,-10.606 -2.91,-2.949 -7.659,-2.981 -10.606,-0.071 -2.737,2.701 -9.299,5.855 -18.781,5.855 -9.482,0 -16.043,-3.154 -18.781,-5.855 -2.95,-2.91 -7.699,-2.878 -10.606,0.071 -2.909,2.949 -2.877,7.697 0.071,10.606 6.459,6.373 17.418,10.177 29.316,10.177 11.897,0.001 22.856,-3.804 29.316,-10.177 z" /><path
     inkscape:connector-curvature="0"
     id="path48"
     d="m 215.919,136.274 h -16.032 c -4.142,0 -7.5,3.358 -7.5,7.5 0,4.142 3.358,7.5 7.5,7.5 h 16.032 c 4.142,0 7.5,-3.358 7.5,-7.5 0,-4.142 -3.358,-7.5 -7.5,-7.5 z" /><path
     inkscape:connector-curvature="0"
     id="path50"
     d="m 296.08,151.274 h 16.032 c 4.143,0 7.5,-3.358 7.5,-7.5 0,-4.142 -3.357,-7.5 -7.5,-7.5 H 296.08 c -4.143,0 -7.5,3.358 -7.5,7.5 0,4.142 3.358,7.5 7.5,7.5 z" /></g></g></svg>