<?xml version="1.0" encoding="UTF-8" standalone="no"?>
<!-- Generator: Adobe Illustrator 19.0.0, SVG Export Plug-In . SVG Version: 6.00 Build 0)  -->

<svg
   xmlns:osb="http://www.openswatchbook.org/uri/2009/osb"
   xmlns:dc="http://purl.org/dc/elements/1.1/"
   xmlns:cc="http://creativecommons.org/ns#"
   xmlns:rdf="http://www.w3.org/1999/02/22-rdf-syntax-ns#"
   xmlns:svg="http://www.w3.org/2000/svg"
   xmlns="http://www.w3.org/2000/svg"
   xmlns:xlink="http://www.w3.org/1999/xlink"
   xmlns:sodipodi="http://sodipodi.sourceforge.net/DTD/sodipodi-0.dtd"
   xmlns:inkscape="http://www.inkscape.org/namespaces/inkscape"
   version="1.1"
   id="Capa_1"
   x="0px"
   y="0px"
   viewBox="0 0 511.999 511.999"
   style="enable-background:new 0 0 511.999 511.999;"
   xml:space="preserve"
   sodipodi:docname="28.svg"
   inkscape:version="0.92.4 (5da689c313, 2019-01-14)"><metadata
   id="metadata95"><rdf:RDF><cc:Work
       rdf:about=""><dc:format>image/svg+xml</dc:format><dc:type
         rdf:resource="http://purl.org/dc/dcmitype/StillImage" /><dc:title /></cc:Work></rdf:RDF></metadata><defs
   id="defs93"><linearGradient
     id="linearGradient2457"
     osb:paint="solid"><stop
       style="stop-color:#000000;stop-opacity:1;"
       offset="0"
       id="stop2455" /></linearGradient><linearGradient
     inkscape:collect="always"
     xlink:href="#linearGradient2457"
     id="linearGradient2459-6-2"
     x1="1442.3572"
     y1="-339.5119"
     x2="1514.9286"
     y2="-339.5119"
     gradientUnits="userSpaceOnUse"
     gradientTransform="matrix(6.4669274,0,0,9.6773016,-9356.1743,3517.6929)" /></defs><sodipodi:namedview
   pagecolor="#ffffff"
   bordercolor="#666666"
   borderopacity="1"
   objecttolerance="10"
   gridtolerance="10"
   guidetolerance="10"
   inkscape:pageopacity="0"
   inkscape:pageshadow="2"
   inkscape:window-width="1920"
   inkscape:window-height="986"
   id="namedview91"
   showgrid="false"
   inkscape:zoom="1.3037307"
   inkscape:cx="-101.60419"
   inkscape:cy="348.77217"
   inkscape:window-x="-11"
   inkscape:window-y="-11"
   inkscape:window-maximized="1"
   inkscape:current-layer="g1046" />























<g
   id="g60">
</g>
<g
   id="g62">
</g>
<g
   id="g64">
</g>
<g
   id="g66">
</g>
<g
   id="g68">
</g>
<g
   id="g70">
</g>
<g
   id="g72">
</g>
<g
   id="g74">
</g>
<g
   id="g76">
</g>
<g
   id="g78">
</g>
<g
   id="g80">
</g>
<g
   id="g82">
</g>
<g
   id="g84">
</g>
<g
   id="g86">
</g>
<g
   id="g88">
</g>
<g
   id="g1046"
   transform="matrix(0.55886315,0,0,0.55886315,157.54779,132.77619)"><rect
   y="-104.38158"
   x="-28.555799"
   height="673.03345"
   width="469.31418"
   id="rect2447-0-9"
   style="display:inline;fill:none;fill-opacity:1;stroke:url(#linearGradient2459-6-2);stroke-width:25.31489563;stroke-miterlimit:4;stroke-dasharray:none;stroke-opacity:1" /><text
   id="text2485-9"
   y="522.54254"
   x="40.239681"
   style="font-style:normal;font-weight:normal;font-size:76.99105835px;line-height:1.25;font-family:sans-serif;letter-spacing:0px;word-spacing:0px;display:inline;fill:#000000;fill-opacity:1;stroke:none;stroke-width:1.9247762"
   xml:space="preserve"><tspan
     style="stroke-width:1.9247762"
     y="522.54254"
     x="40.239681"
     id="tspan2483-7"
     sodipodi:role="line">SANDRA</tspan></text>






<g
   transform="matrix(0.94521953,0,0,0.94521953,-35.87491,-46.835104)"
   id="g901"><path
     inkscape:connector-curvature="0"
     id="path2-8"
     d="M 399.363,256.274 392.118,135.528 C 387.803,63.613 328.223,7.5 256.178,7.5 184.133,7.5 124.554,63.613 120.239,135.528 l -7.245,120.746 c -2.84,47.334 17.549,90.428 51.061,118.549 l 184.573,-0.274 c 33.318,-28.127 53.566,-71.094 50.735,-118.275 z"
     style="fill:#ffd164" /><path
     inkscape:connector-curvature="0"
     id="path4-6"
     d="m 120.239,135.528 -7.245,120.746 c -2.84,47.334 17.549,90.428 51.061,118.549 l 92.124,-0.137 V 7.5 c -72.046,0 -131.625,56.113 -135.94,128.028 z"
     style="fill:#ffc350" /><path
     inkscape:connector-curvature="0"
     id="path6-3"
     d="m 408.46,380.83 -82.792,-29.221 c -12.82,-4.525 -21.393,-16.642 -21.393,-30.237 v -49.459 h -96.194 v 49.459 c 0,13.595 -8.573,25.712 -21.393,30.236 l -82.793,29.221 c -19.229,6.787 -32.089,24.962 -32.089,45.354 v 78.197 h 368.743 v -78.197 c 0,-20.391 -12.859,-38.566 -32.089,-45.353 z"
     style="fill:#f7d291" /><path
     inkscape:connector-curvature="0"
     id="path8"
     d="m 408.46,380.83 -82.792,-29.221 c -5.311,-1.874 -9.831,-5.102 -13.377,-9.148 v 11.101 c 0,32.919 -25.367,61.626 -58.272,62.613 -34.048,1.021 -61.97,-26.275 -61.97,-60.093 v -7.006 c -1.696,0.981 -3.464,1.863 -5.36,2.532 l -82.793,29.221 c -19.23,6.787 -32.089,24.962 -32.089,45.354 v 78.197 h 368.742 v -78.197 c 0,-20.391 -12.859,-38.566 -32.089,-45.353 z"
     style="fill:#ff8087" /><path
     inkscape:connector-curvature="0"
     id="path10"
     d="m 208.082,326.123 c 14.753,6.391 31.02,9.92 48.097,9.92 17.077,0 33.344,-3.529 48.097,-9.92 v -38.177 h -96.194 z"
     style="fill:#f0c382" /><path
     inkscape:connector-curvature="0"
     id="path12"
     d="m 256.178,311.994 v 0 c -57.554,0 -104.21,-46.656 -104.21,-104.21 V 95.559 h 208.419 v 112.226 c 10e-4,57.553 -46.655,104.209 -104.209,104.209 z"
     style="fill:#ffe1a0" /><path
     inkscape:connector-curvature="0"
     id="path14-8"
     d="M 360.388,95.559 H 151.969 v 112.226 c 0,57.553 46.656,104.21 104.21,104.21 5.466,0 10.793,-0.547 16.032,-1.359 -49.921,-7.729 -88.177,-50.764 -88.177,-102.851 v -27.417 c 0,-0.065 0,-0.13 0,-0.194 0.061,-9.616 7.2,-17.831 16.493,-20.305 21.049,-5.604 43.546,-12.876 63.762,-22.123 1.065,12.298 11.382,21.943 23.954,21.943 1.174,0 29.066,-0.102 58.532,-9.002 5.785,-1.748 10.325,-5.539 13.3,-10.281 -0.031,-0.192 -0.115,-0.362 -0.153,-0.551 0.153,-0.035 0.314,-0.07 0.466,-0.106 z"
     style="fill:#f7d291" /><g
     id="g20"><polygon
       id="polygon16"
       points="304.275,327.768 304.267,328.026 304.275,328.029 "
       style="fill:#ffd164" /><polygon
       id="polygon18"
       points="208.089,328.026 208.082,327.768 208.082,328.029 "
       style="fill:#ffd164" /></g><path
     inkscape:connector-curvature="0"
     id="path22"
     d="M 247.906,7.746 C 178.908,11.839 124.301,67.833 120.161,136.828 l -0.703,11.718 0.447,3.125 c 0,0 120.242,-16.032 168.339,-56.113 v 40.081 c 0,0 25.173,0 51.579,-7.98 10.248,-3.097 20.566,4.643 20.566,15.348 v 0 C 380.04,138.375 391.407,117.742 384.743,98.683 365.225,42.862 310.565,4.028 247.906,7.746 Z"
     style="fill:#ffe17d" /><path
     inkscape:connector-curvature="0"
     id="path24"
     d="m 186.689,351.609 -43.783,15.453 c 0.611,21.997 5.1,43.853 13.236,63.361 8.77,21.025 29.114,34.61 51.831,34.61 4.581,0 9.168,-0.566 13.632,-1.682 l 34.574,-8.644 34.573,8.644 c 4.465,1.116 9.051,1.682 13.633,1.682 22.718,0 43.063,-13.586 51.831,-34.611 8.135,-19.507 12.625,-41.362 13.236,-63.36 l -43.783,-15.453 c -5.31,-1.874 -9.83,-5.102 -13.377,-9.148 v 11.101 c 0,32.919 -25.367,61.626 -58.272,62.613 -34.049,1.022 -61.97,-26.275 -61.97,-60.093 v -7.006 c -1.698,0.982 -3.465,1.864 -5.361,2.533 z"
     style="fill:#e6646e" /><path
     inkscape:connector-curvature="0"
     id="path26"
     d="m 304.267,328.026 30.316,10.309 c 6.141,2.141 10.393,7.813 10.776,14.305 1.71,29 -4.617,52.407 -11.339,68.525 -6.127,14.691 -21.993,22.716 -37.436,18.855 l -40.406,-10.102 -40.406,10.102 c -15.442,3.86 -31.309,-4.165 -37.436,-18.855 -6.723,-16.118 -13.05,-39.525 -11.339,-68.525 0.383,-6.493 4.635,-12.164 10.776,-14.305 l 30.316,-10.309 -0.008,-0.258 v 24.048 c 0,26.563 21.534,48.097 48.097,48.097 26.563,0 48.097,-21.534 48.097,-48.097 v -24.048"
     style="fill:#ffffff" /><path
     inkscape:connector-curvature="0"
     id="path28"
     d="m 410.956,374.108 -38.121,-13.455 c 24.296,-29.457 36.327,-66.285 34.014,-104.829 L 399.605,135.078 C 395.06,59.333 332.059,0 256.178,0 180.297,0 117.297,59.333 112.752,135.079 l -7.244,120.746 c -2.309,38.48 9.697,75.285 33.936,104.73 l -38.401,13.553 C 78.856,381.938 63.95,403.007 63.95,426.535 V 504.5 c 0,4.142 3.357,7.5 7.5,7.5 4.143,0 7.5,-3.358 7.5,-7.5 v -77.965 c 0,-5.176 0.994,-10.185 2.817,-14.82 l 38.092,32.65 c 5.451,4.673 8.578,11.471 8.578,18.651 v 41.366 c 0,4.142 3.357,7.5 7.5,7.5 4.143,0 7.5,-3.358 7.5,-7.5 v -41.366 c 0,-11.564 -5.036,-22.513 -13.816,-30.04 L 89.848,398.885 c 4.37,-4.701 9.872,-8.404 16.187,-10.633 l 53.338,-18.825 c 1.006,23.438 6.804,42.297 12.043,54.857 7.613,18.253 27.024,28.031 46.177,23.244 l 38.587,-9.646 38.586,9.646 c 3.263,0.816 6.531,1.208 9.75,1.208 15.668,0 30.111,-9.309 36.427,-24.452 5.229,-12.537 11.015,-31.354 12.036,-54.733 l 52.986,18.701 c 6.392,2.256 11.951,6.021 16.346,10.804 l -39.574,33.92 c -8.78,7.527 -13.816,18.476 -13.816,30.04 v 41.366 c 0,4.142 3.357,7.5 7.5,7.5 4.143,0 7.5,-3.358 7.5,-7.5 v -41.366 c 0,-7.18 3.127,-13.978 8.578,-18.651 l 37.823,-32.419 c 1.766,4.57 2.728,9.499 2.728,14.589 V 504.5 c 0,4.142 3.357,7.5 7.5,7.5 4.143,0 7.5,-3.358 7.5,-7.5 v -77.965 c -0.001,-23.528 -14.907,-44.597 -37.094,-52.427 z M 120.48,256.723 l 5.904,-98.408 c 22.462,-3.395 106.642,-17.729 154.359,-48.091 v 25.416 c 0,4.142 3.357,7.5 7.5,7.5 1.073,0 26.594,-0.094 53.749,-8.3 2.565,-0.774 5.277,-0.299 7.442,1.309 2.194,1.629 3.453,4.129 3.453,6.859 v 64.896 c 0,26.696 -10.642,51.551 -29.964,69.985 -19.312,18.422 -44.669,27.874 -71.431,26.614 -24.93,-1.174 -48.165,-12.197 -65.428,-31.04 -17.151,-18.721 -26.597,-43.049 -26.597,-68.503 v -29.238 c 0,-4.142 -3.357,-7.5 -7.5,-7.5 -4.143,0 -7.5,3.358 -7.5,7.5 v 29.238 c 0,29.215 10.845,57.142 30.537,78.636 7.605,8.301 16.223,15.286 25.575,20.832 v 18.461 l -25.276,8.595 c -9.03,3.148 -15.23,11.37 -15.795,20.946 -0.021,0.357 -0.025,0.702 -0.044,1.058 l -4.868,1.718 C 130.387,328.038 118.291,293.214 120.48,256.723 Z M 327.098,418.51 c -4.736,11.354 -16.808,17.437 -28.694,14.466 l -40.405,-10.102 c -1.195,-0.299 -2.443,-0.299 -3.639,0 l -40.406,10.102 c -11.889,2.971 -23.959,-3.112 -28.694,-14.466 -5.843,-14.009 -12.455,-36.692 -10.774,-65.197 0.207,-3.509 2.467,-6.517 5.704,-7.646 l 20.393,-6.934 v 13.316 c 0,30.656 24.941,55.597 55.598,55.597 10.976,0 21.593,-3.196 30.703,-9.241 3.452,-2.291 4.393,-6.945 2.103,-10.396 -2.289,-3.451 -6.944,-4.393 -10.396,-2.103 -6.646,4.41 -14.395,6.74 -22.41,6.74 -22.386,0 -40.598,-18.211 -40.598,-40.597 V 311.83 c 11.13,4.464 22.989,7.08 35.207,7.656 1.824,0.086 3.643,0.129 5.455,0.129 14.089,0 27.772,-2.591 40.532,-7.565 v 39.999 c 0,4.654 -0.779,9.214 -2.316,13.554 -1.382,3.904 0.662,8.19 4.566,9.573 0.828,0.293 1.673,0.432 2.504,0.432 3.088,0 5.98,-1.922 7.07,-4.999 2.107,-5.952 3.176,-12.196 3.176,-18.561 v -13.316 l 20.339,6.916 c 3.291,1.147 5.551,4.156 5.758,7.665 1.679,28.504 -4.934,51.187 -10.776,65.197 z m 9.899,-87.044 -25.222,-8.576 v -18.031 c 7.686,-4.431 14.901,-9.819 21.502,-16.117 22.319,-21.292 34.61,-50.001 34.61,-80.838 v -64.896 c 0,-7.525 -3.467,-14.415 -9.512,-18.902 -6.013,-4.465 -13.564,-5.787 -20.724,-3.624 -16.558,5.003 -32.79,6.739 -41.909,7.34 V 95.559 c 0,-2.91 -1.684,-5.558 -4.319,-6.792 -2.635,-1.235 -5.746,-0.832 -7.982,1.03 -38.684,32.237 -128.304,48.708 -156.136,53.172 l 0.419,-6.992 C 131.796,68.14 188.219,15 256.179,15 c 67.959,0 124.382,53.14 128.453,120.977 l 7.244,120.746 c 2.194,36.555 -9.934,71.399 -34.206,98.578 l -4.774,-1.685 c -0.021,-0.398 -0.026,-0.785 -0.049,-1.186 -0.565,-9.576 -6.765,-17.798 -15.85,-20.964 z" /><path
     inkscape:connector-curvature="0"
     id="path30"
     d="m 256.179,263.5 c 11.898,0 22.857,-3.805 29.315,-10.178 2.948,-2.909 2.98,-7.658 0.071,-10.606 -2.911,-2.949 -7.66,-2.979 -10.606,-0.07 -2.737,2.701 -9.298,5.854 -18.78,5.854 -9.482,0 -16.044,-3.154 -18.781,-5.855 -2.948,-2.908 -7.697,-2.877 -10.606,0.071 -2.909,2.948 -2.877,7.698 0.071,10.606 6.459,6.373 17.418,10.178 29.316,10.178 z" /><path
     inkscape:connector-curvature="0"
     id="path32-1"
     d="m 208.081,184.252 c -4.143,0 -7.5,3.358 -7.5,7.5 v 8.016 c 0,4.142 3.357,7.5 7.5,7.5 4.143,0 7.5,-3.358 7.5,-7.5 v -8.016 c 0,-4.142 -3.357,-7.5 -7.5,-7.5 z" /><path
     inkscape:connector-curvature="0"
     id="path34-0"
     d="m 304.275,184.252 c -4.143,0 -7.5,3.358 -7.5,7.5 v 8.016 c 0,4.142 3.357,7.5 7.5,7.5 4.143,0 7.5,-3.358 7.5,-7.5 v -8.016 c 0,-4.142 -3.357,-7.5 -7.5,-7.5 z" /><path
     inkscape:connector-curvature="0"
     id="path36-1"
     d="m 200.065,175.204 h 16.032 c 4.143,0 7.5,-3.358 7.5,-7.5 0,-4.142 -3.357,-7.5 -7.5,-7.5 h -16.032 c -4.143,0 -7.5,3.358 -7.5,7.5 0,4.142 3.358,7.5 7.5,7.5 z" /><path
     inkscape:connector-curvature="0"
     id="path38-9"
     d="m 296.259,175.204 h 16.032 c 4.143,0 7.5,-3.358 7.5,-7.5 0,-4.142 -3.357,-7.5 -7.5,-7.5 h -16.032 c -4.143,0 -7.5,3.358 -7.5,7.5 0,4.142 3.357,7.5 7.5,7.5 z" /></g></g></svg>