<?xml version="1.0" encoding="UTF-8" standalone="no"?>
<!-- Generator: Adobe Illustrator 19.0.0, SVG Export Plug-In . SVG Version: 6.00 Build 0)  -->

<svg
   xmlns:osb="http://www.openswatchbook.org/uri/2009/osb"
   xmlns:dc="http://purl.org/dc/elements/1.1/"
   xmlns:cc="http://creativecommons.org/ns#"
   xmlns:rdf="http://www.w3.org/1999/02/22-rdf-syntax-ns#"
   xmlns:svg="http://www.w3.org/2000/svg"
   xmlns="http://www.w3.org/2000/svg"
   xmlns:xlink="http://www.w3.org/1999/xlink"
   xmlns:sodipodi="http://sodipodi.sourceforge.net/DTD/sodipodi-0.dtd"
   xmlns:inkscape="http://www.inkscape.org/namespaces/inkscape"
   version="1.1"
   id="Capa_1"
   x="0px"
   y="0px"
   viewBox="0 0 511.999 511.999"
   style="enable-background:new 0 0 511.999 511.999;"
   xml:space="preserve"
   sodipodi:docname="3.svg"
   inkscape:version="0.92.4 (5da689c313, 2019-01-14)"><metadata
   id="metadata95"><rdf:RDF><cc:Work
       rdf:about=""><dc:format>image/svg+xml</dc:format><dc:type
         rdf:resource="http://purl.org/dc/dcmitype/StillImage" /><dc:title /></cc:Work></rdf:RDF></metadata><defs
   id="defs93"><linearGradient
     id="linearGradient2457"
     osb:paint="solid"><stop
       style="stop-color:#000000;stop-opacity:1;"
       offset="0"
       id="stop2455" /></linearGradient><linearGradient
     inkscape:collect="always"
     xlink:href="#linearGradient2457"
     id="linearGradient2459-6-2"
     x1="1442.3572"
     y1="-339.5119"
     x2="1514.9286"
     y2="-339.5119"
     gradientUnits="userSpaceOnUse"
     gradientTransform="matrix(6.4669274,0,0,9.6773016,-9356.1743,3517.6929)" /></defs><sodipodi:namedview
   pagecolor="#ffffff"
   bordercolor="#666666"
   borderopacity="1"
   objecttolerance="10"
   gridtolerance="10"
   guidetolerance="10"
   inkscape:pageopacity="0"
   inkscape:pageshadow="2"
   inkscape:window-width="1920"
   inkscape:window-height="986"
   id="namedview91"
   showgrid="false"
   inkscape:zoom="1.3037307"
   inkscape:cx="61.389588"
   inkscape:cy="256.72861"
   inkscape:window-x="-11"
   inkscape:window-y="-11"
   inkscape:window-maximized="1"
   inkscape:current-layer="g1046" />























<g
   id="g60">
</g>
<g
   id="g62">
</g>
<g
   id="g64">
</g>
<g
   id="g66">
</g>
<g
   id="g68">
</g>
<g
   id="g70">
</g>
<g
   id="g72">
</g>
<g
   id="g74">
</g>
<g
   id="g76">
</g>
<g
   id="g78">
</g>
<g
   id="g80">
</g>
<g
   id="g82">
</g>
<g
   id="g84">
</g>
<g
   id="g86">
</g>
<g
   id="g88">
</g>
<g
   id="g1046"
   transform="matrix(0.55886315,0,0,0.55886315,157.54779,132.77619)"><rect
   y="-104.38158"
   x="-28.555799"
   height="673.03345"
   width="469.31418"
   id="rect2447-0-9"
   style="display:inline;fill:none;fill-opacity:1;stroke:url(#linearGradient2459-6-2);stroke-width:25.31489563;stroke-miterlimit:4;stroke-dasharray:none;stroke-opacity:1" /><text
   id="text2485-9"
   y="522.54254"
   x="78.641243"
   style="font-style:normal;font-weight:normal;font-size:76.99105835px;line-height:1.25;font-family:sans-serif;letter-spacing:0px;word-spacing:0px;display:inline;fill:#000000;fill-opacity:1;stroke:none;stroke-width:1.9247762"
   xml:space="preserve"><tspan
     style="stroke-width:1.9247762"
     y="522.54254"
     x="78.641243"
     id="tspan2483-7"
     sodipodi:role="line">JORGE</tspan></text>

</g><g
   transform="matrix(0.51161789,0,0,0.51161789,141.75603,114.95113)"
   id="g901"><path
     inkscape:connector-curvature="0"
     id="path2"
     d="M 339.843,329.686 256,400.29 172.157,329.686 C 128.748,293.131 103.693,239.277 103.693,182.527 V 159.806 C 103.694,75.69 171.883,7.5 256,7.5 v 0 c 84.116,0 152.306,68.19 152.306,152.306 v 22.721 c 0,56.75 -25.055,110.604 -68.463,147.159 z"
     style="fill:#8cb4eb" /><path
     inkscape:connector-curvature="0"
     id="path4"
     d="m 413.862,374.103 -84.486,-24.849 c -10.235,-3.01 -17.263,-12.403 -17.263,-23.071 V 288.064 H 199.887 v 38.119 c 0,10.668 -7.028,20.061 -17.263,23.071 l -84.486,24.849 c -20.469,6.02 -34.526,24.806 -34.526,46.142 V 504.5 h 384.774 v -84.254 c 10e-4,-21.336 -14.055,-40.122 -34.524,-46.143 z"
     style="fill:#e3aa75" /><path
     inkscape:connector-curvature="0"
     id="path6"
     d="m 413.862,374.103 -84.486,-24.849 c -1.429,-0.42 -2.777,-0.991 -4.07,-1.646 l -69.31,52.682 -69.302,-52.682 c -1.293,0.655 -2.641,1.226 -4.07,1.646 l -84.486,24.849 c -20.469,6.02 -34.525,24.806 -34.525,46.142 V 504.5 h 384.774 v -84.254 c 0,-21.336 -14.056,-40.122 -34.525,-46.143 z"
     style="fill:#8cb4eb" /><path
     inkscape:connector-curvature="0"
     id="path8"
     d="m 199.887,313.969 c 16.841,8.996 35.939,14.176 56.113,14.176 20.174,0 39.272,-5.18 56.113,-14.176 V 288.065 H 199.887 Z"
     style="fill:#d29b6e" /><path
     inkscape:connector-curvature="0"
     id="path10"
     d="M 372.234,167.823 H 360.21 V 79.645 H 151.79 v 88.177 h -12.024 c -11.068,0 -20.04,8.972 -20.04,20.04 0,11.068 8.972,20.04 20.04,20.04 h 12.429 c 4.106,53.795 48.958,96.194 103.805,96.194 54.847,0 99.699,-42.398 103.805,-96.194 h 12.429 c 11.068,0 20.04,-8.973 20.04,-20.04 0,-11.067 -8.972,-20.039 -20.04,-20.039 z"
     style="fill:#f5b97d" /><path
     inkscape:connector-curvature="0"
     id="path12"
     d="m 151.79,79.645 v 88.177 h -10.88 c -10.483,0 -20.036,7.542 -21.081,17.973 -1.202,11.996 8.186,22.108 19.937,22.108 h 12.429 c 4.106,53.795 48.958,96.194 103.805,96.194 5.484,0 10.83,-0.534 16.083,-1.351 -49.946,-7.708 -88.228,-50.754 -88.228,-102.859 v -39.29 c 0,-15.373 14.184,-26.717 29.205,-23.446 13.084,2.849 26.664,5.116 40.548,6.504 0.8,0.08 1.601,0.12 2.396,0.12 7.516,0 14.658,-3.525 19.227,-9.609 2.75,-3.662 4.349,-7.962 4.729,-12.378 23.844,7.77 54.679,22.047 80.118,47.857 0.095,-0.038 0.037,-0.014 0.131,-0.052 V 79.647 H 151.79 Z"
     style="fill:#e3aa75" /><g
     id="g18"><path
       inkscape:connector-curvature="0"
       id="path14"
       d="m 135.758,171.595 17.905,-2.107 c 8.074,-0.95 14.159,-7.793 14.159,-15.922 V 79.645 h -32.064 z"
       style="fill:#5a4650" /><path
       inkscape:connector-curvature="0"
       id="path16"
       d="m 376.242,171.595 -17.905,-2.107 c -8.074,-0.95 -14.159,-7.793 -14.159,-15.922 V 79.645 h 32.064 z"
       style="fill:#5a4650" /></g><path
     inkscape:connector-curvature="0"
     id="path20"
     d="M 387.634,83.439 C 361.258,38.079 312.252,7.5 256,7.5 201.035,7.5 153.017,36.714 126.235,80.363 v 2.349 C 153.729,95.196 203.12,114.438 256,119.725 L 243.642,88.997 c 0,0 76.487,6.68 132.6,62.793 z"
     style="fill:#6e5a64" /><path
     inkscape:connector-curvature="0"
     id="path22"
     d="m 256,7.5 c -54.965,0 -102.983,29.214 -129.765,72.863 v 2.349 c 6.06,2.751 13.265,5.843 21.255,9.029 22.719,-36.088 62.806,-60.193 108.51,-60.193 59.813,0 110.047,41.214 124.166,96.695 l 7.468,-44.804 C 361.258,38.079 312.252,7.5 256,7.5 Z"
     style="fill:#64505a" /><path
     inkscape:connector-curvature="0"
     id="path24"
     d="m 256,400.29 v 0 c -8.818,0 -16.032,7.215 -16.032,16.032 v 16.032 c 0,8.818 7.215,16.032 16.032,16.032 v 0 c 8.818,0 16.032,-7.215 16.032,-16.032 v -16.032 c 0,-8.817 -7.214,-16.032 -16.032,-16.032 z"
     style="fill:#6e5a64" /><path
     inkscape:connector-curvature="0"
     id="path26"
     d="m 207.903,168.339 c -4.142,0 -7.5,3.358 -7.5,7.5 v 8.016 c 0,4.142 3.358,7.5 7.5,7.5 4.142,0 7.5,-3.358 7.5,-7.5 v -8.016 c 0,-4.142 -3.358,-7.5 -7.5,-7.5 z" /><path
     inkscape:connector-curvature="0"
     id="path28-5"
     d="m 304.097,168.339 c -4.142,0 -7.5,3.358 -7.5,7.5 v 8.016 c 0,4.142 3.358,7.5 7.5,7.5 4.142,0 7.5,-3.358 7.5,-7.5 v -8.016 c 0,-4.142 -3.358,-7.5 -7.5,-7.5 z" /><path
     inkscape:connector-curvature="0"
     id="path30-2"
     d="m 256,247.468 c 11.898,0 22.857,-3.805 29.316,-10.177 2.949,-2.909 2.98,-7.658 0.071,-10.606 -2.91,-2.949 -7.659,-2.98 -10.606,-0.071 -2.737,2.701 -9.298,5.855 -18.781,5.855 -9.483,0 -16.043,-3.154 -18.781,-5.855 -2.95,-2.91 -7.698,-2.877 -10.606,0.071 -2.909,2.948 -2.877,7.697 0.071,10.606 6.459,6.372 17.418,10.177 29.316,10.177 z" /><path
     inkscape:connector-curvature="0"
     id="path32-9"
     d="m 415.978,366.908 -80.557,-23.693 9.253,-7.792 c 45.206,-38.068 71.133,-93.796 71.133,-152.896 V 159.806 C 415.807,71.689 344.118,0 256,0 167.883,0 96.194,71.689 96.194,159.806 v 22.721 c 0,59.099 25.927,114.828 71.132,152.896 l 9.253,7.792 -80.557,23.693 C 72.524,373.82 56.113,395.753 56.113,420.246 V 504.5 c 0,4.142 3.358,7.5 7.5,7.5 4.142,0 7.5,-3.358 7.5,-7.5 v -84.254 c 0,-5.486 1.132,-10.794 3.191,-15.666 l 45.566,39.871 c 5.331,4.665 8.389,11.402 8.389,18.486 V 504.5 c 0,4.142 3.358,7.5 7.5,7.5 4.142,0 7.5,-3.358 7.5,-7.5 v -41.563 c 0,-11.41 -4.925,-22.262 -13.511,-29.775 L 82.665,391.964 c 4.76,-4.908 10.763,-8.657 17.59,-10.665 l 84.486,-24.849 c 1.792,-0.527 3.503,-1.219 5.137,-2.037 l 51.576,43.432 c -5.466,4.313 -8.986,10.99 -8.986,18.477 v 16.032 c 0,10.354 6.724,19.16 16.032,22.3 V 504.5 c 0,4.142 3.358,7.5 7.5,7.5 4.142,0 7.5,-3.358 7.5,-7.5 v -49.845 c 9.308,-3.139 16.032,-11.946 16.032,-22.3 v -16.032 c 0,-7.487 -3.519,-14.164 -8.986,-18.477 l 51.576,-43.432 c 1.634,0.818 3.345,1.51 5.137,2.037 l 84.486,24.849 c 6.827,2.008 12.831,5.757 17.59,10.665 l -47.082,41.198 c -8.586,7.513 -13.511,18.366 -13.511,29.775 V 504.5 c 0,4.142 3.358,7.5 7.5,7.5 4.142,0 7.5,-3.358 7.5,-7.5 v -41.563 c 0,-7.084 3.058,-13.822 8.389,-18.486 l 45.566,-39.87 c 2.059,4.872 3.19,10.18 3.19,15.666 V 504.5 c 0,4.142 3.358,7.5 7.5,7.5 4.142,0 7.5,-3.358 7.5,-7.5 v -84.254 c 0,-24.493 -16.411,-46.426 -39.909,-53.338 z M 400.807,182.527 c 0,54.665 -23.981,106.211 -65.795,141.422 l -12.925,10.884 c -1.573,-2.551 -2.474,-5.529 -2.474,-8.65 v -6.055 c 0,-4.142 -3.358,-7.5 -7.5,-7.5 -4.142,0 -7.5,3.358 -7.5,7.5 v 6.055 c 0,6.727 2.196,13.102 5.959,18.346 L 256,390.485 201.428,344.53 c 3.763,-5.244 5.959,-11.62 5.959,-18.346 V 300.45 c 14.705,7.137 31.199,11.146 48.613,11.146 56.313,0 103.051,-41.921 110.631,-96.193 h 4.459 c 14.617,0 27.155,-10.861 28.542,-24.727 0.778,-7.771 -1.765,-15.531 -6.975,-21.288 -2.405,-2.657 -5.287,-4.784 -8.454,-6.313 l 5.378,-59.157 c 7.225,17.206 11.224,36.087 11.224,55.887 v 22.722 z M 140.91,175.323 h 10.881 c 12.976,0 23.532,-10.557 23.532,-23.532 v -18.705 c 0,-4.142 -3.358,-7.5 -7.5,-7.5 -4.142,0 -7.5,3.358 -7.5,7.5 v 18.705 c 0,4.705 -3.828,8.532 -8.532,8.532 h -8.532 V 98.132 c 28.085,11.267 68.972,24.754 111.996,29.056 2.606,0.259 5.168,-0.861 6.744,-2.959 1.576,-2.099 1.94,-4.868 0.961,-7.302 l -7.457,-18.541 c 17.113,3.254 49.332,11.588 81.175,31.568 v 21.836 c 0,12.976 10.557,23.532 23.532,23.532 h 12.024 c 3.537,0 6.927,1.505 9.303,4.13 2.407,2.66 3.533,6.115 3.171,9.729 -0.629,6.292 -6.611,11.221 -13.617,11.221 h -3.385 v -0.439 c 0,-4.141 -3.356,-7.499 -7.497,-7.5 0,0 -0.002,0 -0.003,0 -4.14,0 -7.497,3.354 -7.5,7.495 -0.039,53.286 -43.421,96.638 -96.706,96.638 -53.326,0 -96.709,-43.384 -96.709,-96.709 0,-4.142 -3.358,-7.5 -7.5,-7.5 -4.142,0 -7.5,3.358 -7.5,7.5 v 0.516 h -4.524 c -3.537,0 -6.927,-1.505 -9.303,-4.131 -2.407,-2.66 -3.533,-6.115 -3.171,-9.729 0.629,-6.292 6.611,-11.22 13.617,-11.22 z m 228.483,-15 h -9.184 c -4.705,0 -8.532,-3.828 -8.532,-8.532 v -11.479 c 6.189,4.706 12.262,9.918 18.111,15.665 z M 256,15 c 50.334,0 94.745,25.82 120.704,64.904 l -5.201,57.209 C 315.615,88.298 247.343,81.792 244.294,81.526 c -2.601,-0.227 -5.126,0.912 -6.678,3.006 -1.552,2.094 -1.905,4.845 -0.933,7.264 l 7.624,18.957 C 200.572,104.527 160.207,89.378 135.997,78.844 162.051,40.35 206.121,15 256,15 Z M 111.194,182.527 v -22.721 c 0,-24.565 6.156,-47.717 16.995,-68.005 0.024,0.01 0.045,0.02 0.069,0.031 v 71.358 c -8.631,4.115 -14.93,12.266 -15.892,21.859 -0.778,7.771 1.764,15.53 6.974,21.289 5.214,5.762 12.659,9.066 20.425,9.066 h 5.598 c 4.399,31.522 22.003,58.87 47.023,76.264 v 34.517 c 0,3.121 -0.901,6.099 -2.474,8.65 l -12.925,-10.884 c -41.812,-35.213 -65.793,-86.76 -65.793,-141.424 z m 153.338,249.828 c 0,4.705 -3.828,8.532 -8.532,8.532 -4.704,0 -8.532,-3.828 -8.532,-8.532 v -16.032 c 0,-4.705 3.828,-8.532 8.532,-8.532 4.704,0 8.532,3.828 8.532,8.532 z" /><path
     inkscape:connector-curvature="0"
     id="path34-3"
     d="m 199.887,159.291 h 16.032 c 4.142,0 7.5,-3.358 7.5,-7.5 0,-4.142 -3.358,-7.5 -7.5,-7.5 h -16.032 c -4.142,0 -7.5,3.358 -7.5,7.5 0,4.142 3.358,7.5 7.5,7.5 z" /><path
     inkscape:connector-curvature="0"
     id="path36"
     d="m 296.081,159.291 h 16.032 c 4.142,0 7.5,-3.358 7.5,-7.5 0,-4.142 -3.358,-7.5 -7.5,-7.5 h -16.032 c -4.142,0 -7.5,3.358 -7.5,7.5 0,4.142 3.357,7.5 7.5,7.5 z" /></g></svg>