<?xml version="1.0" encoding="UTF-8" standalone="no"?>
<!-- Generator: Adobe Illustrator 19.0.0, SVG Export Plug-In . SVG Version: 6.00 Build 0)  -->

<svg
   xmlns:osb="http://www.openswatchbook.org/uri/2009/osb"
   xmlns:dc="http://purl.org/dc/elements/1.1/"
   xmlns:cc="http://creativecommons.org/ns#"
   xmlns:rdf="http://www.w3.org/1999/02/22-rdf-syntax-ns#"
   xmlns:svg="http://www.w3.org/2000/svg"
   xmlns="http://www.w3.org/2000/svg"
   xmlns:xlink="http://www.w3.org/1999/xlink"
   xmlns:sodipodi="http://sodipodi.sourceforge.net/DTD/sodipodi-0.dtd"
   xmlns:inkscape="http://www.inkscape.org/namespaces/inkscape"
   version="1.1"
   id="Capa_1"
   x="0px"
   y="0px"
   viewBox="0 0 511.999 511.999"
   style="enable-background:new 0 0 511.999 511.999;"
   xml:space="preserve"
   sodipodi:docname="30.svg"
   inkscape:version="0.92.4 (5da689c313, 2019-01-14)"><metadata
   id="metadata95"><rdf:RDF><cc:Work
       rdf:about=""><dc:format>image/svg+xml</dc:format><dc:type
         rdf:resource="http://purl.org/dc/dcmitype/StillImage" /><dc:title /></cc:Work></rdf:RDF></metadata><defs
   id="defs93"><linearGradient
     id="linearGradient2457"
     osb:paint="solid"><stop
       style="stop-color:#000000;stop-opacity:1;"
       offset="0"
       id="stop2455" /></linearGradient><linearGradient
     inkscape:collect="always"
     xlink:href="#linearGradient2457"
     id="linearGradient2459-6-2"
     x1="1442.3572"
     y1="-339.5119"
     x2="1514.9286"
     y2="-339.5119"
     gradientUnits="userSpaceOnUse"
     gradientTransform="matrix(6.4669274,0,0,9.6773016,-9356.1743,3517.6929)" /></defs><sodipodi:namedview
   pagecolor="#ffffff"
   bordercolor="#666666"
   borderopacity="1"
   objecttolerance="10"
   gridtolerance="10"
   guidetolerance="10"
   inkscape:pageopacity="0"
   inkscape:pageshadow="2"
   inkscape:window-width="1920"
   inkscape:window-height="986"
   id="namedview91"
   showgrid="false"
   inkscape:zoom="1.3037307"
   inkscape:cx="-101.60419"
   inkscape:cy="256.72862"
   inkscape:window-x="-11"
   inkscape:window-y="-11"
   inkscape:window-maximized="1"
   inkscape:current-layer="g1046" />























<g
   id="g60">
</g>
<g
   id="g62">
</g>
<g
   id="g64">
</g>
<g
   id="g66">
</g>
<g
   id="g68">
</g>
<g
   id="g70">
</g>
<g
   id="g72">
</g>
<g
   id="g74">
</g>
<g
   id="g76">
</g>
<g
   id="g78">
</g>
<g
   id="g80">
</g>
<g
   id="g82">
</g>
<g
   id="g84">
</g>
<g
   id="g86">
</g>
<g
   id="g88">
</g>
<g
   id="g1046"
   transform="matrix(0.55886315,0,0,0.55886315,157.54779,132.77619)"><rect
   y="-104.38158"
   x="-28.555799"
   height="673.03345"
   width="469.31418"
   id="rect2447-0-9"
   style="display:inline;fill:none;fill-opacity:1;stroke:url(#linearGradient2459-6-2);stroke-width:25.31489563;stroke-miterlimit:4;stroke-dasharray:none;stroke-opacity:1" /><text
   id="text2485-9"
   y="522.54254"
   x="41.781025"
   style="font-style:normal;font-weight:normal;font-size:76.99105835px;line-height:1.25;font-family:sans-serif;letter-spacing:0px;word-spacing:0px;display:inline;fill:#000000;fill-opacity:1;stroke:none;stroke-width:1.9247762"
   xml:space="preserve"><tspan
     style="stroke-width:1.9247762"
     y="522.54254"
     x="41.781025"
     id="tspan2483-7"
     sodipodi:role="line">MÓNICA</tspan></text>






<g
   transform="matrix(0.95595878,0,0,0.95595878,-38.625592,-48.439507)"
   id="g951"><polygon
     id="polygon2"
     points="87.662,119.727 135.759,167.824 376.242,167.824 424.339,119.727 376.242,39.565 256,7.501 135.759,39.565 "
     style="fill:#8cb4eb" /><path
     inkscape:connector-curvature="0"
     id="path4"
     d="m 103.719,416.323 c 0,0 0,-8.016 0,-33.267 0,-75.752 32.04,-92.586 32.04,-143.088 h 80.161 v 176.355 z"
     style="fill:#5a4650" /><path
     inkscape:connector-curvature="0"
     id="path6-8"
     d="M 408.282,412.978 325.49,383.757 c -12.82,-4.525 -21.393,-16.642 -21.393,-30.237 v -25.375 h -96.194 v 25.375 c 0,13.595 -8.573,25.712 -21.393,30.236 l -82.793,29.221 c -19.229,6.787 -32.089,24.962 -32.089,45.354 V 504.5 H 440.37 v -46.167 c 10e-4,-20.392 -12.858,-38.567 -32.088,-45.355 z"
     style="fill:#e3aa75" /><path
     inkscape:connector-curvature="0"
     id="path8"
     d="M 408.282,412.978 325.49,383.757 c -1.174,-0.414 -2.27,-0.958 -3.37,-1.495 L 256,424.339 189.88,382.263 c -1.099,0.537 -2.196,1.08 -3.37,1.495 l -82.793,29.221 c -19.23,6.787 -32.089,24.962 -32.089,45.354 V 504.5 H 440.37 v -46.167 c 10e-4,-20.392 -12.858,-38.567 -32.088,-45.355 z"
     style="fill:#8cb4eb" /><path
     inkscape:connector-curvature="0"
     id="path10"
     d="m 256,368.227 c 17.034,0 33.296,-3.712 48.097,-10.257 v -29.824 h -96.194 v 29.824 c 14.801,6.544 31.064,10.257 48.097,10.257 z"
     style="fill:#d29b6e" /><path
     inkscape:connector-curvature="0"
     id="path12"
     d="M 372.234,207.904 H 360.21 v -32.065 c 0,-26.563 -21.534,-48.097 -48.097,-48.097 H 199.888 c -26.563,0 -48.097,21.534 -48.097,48.097 v 32.065 h -12.024 c -11.068,0 -20.04,8.972 -20.04,20.04 0,11.068 8.972,20.04 20.04,20.04 h 12.429 c 4.106,53.795 48.958,96.194 103.805,96.194 54.847,0 99.699,-42.398 103.805,-96.194 h 12.429 c 11.068,0 20.04,-8.973 20.04,-20.04 0,-11.068 -8.972,-20.04 -20.041,-20.04 z"
     style="fill:#f5b97d" /><path
     inkscape:connector-curvature="0"
     id="path14-8"
     d="m 256,218.23 c 37.973,0 77.535,-5.922 104.21,-18.343 v -24.048 c 0,-16.739 -8.56,-31.466 -21.532,-40.081 H 173.322 C 160.35,144.372 151.79,159.1 151.79,175.839 v 32.065 h -10.881 c -10.483,0 -20.035,7.542 -21.08,17.973 -1.201,11.996 8.186,22.108 19.936,22.108 h 12.429 c 4.106,53.795 48.957,96.194 103.805,96.194 5.483,0 10.83,-0.534 16.083,-1.351 -49.946,-7.708 -88.228,-50.754 -88.228,-102.859 v 0 c 0,-15.012 13.227,-26.377 28.118,-24.477 14.348,1.83 29.296,2.738 44.028,2.738 z"
     style="fill:#e3aa75" /><g
     id="g20"><path
       inkscape:connector-curvature="0"
       id="path16-4"
       d="m 358.303,209.596 17.939,2.149 V 151.79 h -32.065 v 41.887 c 10e-4,8.118 6.067,14.954 14.126,15.919 z"
       style="fill:#5a4650" /><path
       inkscape:connector-curvature="0"
       id="path18-2"
       d="m 153.698,209.596 -17.939,2.149 V 151.79 h 32.065 v 41.887 c -0.001,8.118 -6.067,14.954 -14.126,15.919 z"
       style="fill:#5a4650" /></g><path
     inkscape:connector-curvature="0"
     id="path22"
     d="m 256,191.872 c -66.408,0 -120.242,-17.945 -120.242,-40.081 h 240.484 c 0,22.135 -53.834,40.081 -120.242,40.081 z"
     style="fill:#6e5a64" /><polygon
     id="polygon24"
     points="275.584,504.5 268.034,456.404 243.84,457.036 236.417,504.5 "
     style="fill:#64505a" /><path
     inkscape:connector-curvature="0"
     id="path26"
     d="M 368.226,103.695 H 143.775 c -4.427,0 -8.016,3.589 -8.016,8.016 v 40.081 h 240.484 v -40.081 c -10e-4,-4.428 -3.59,-8.016 -8.017,-8.016 z"
     style="fill:#739bd7" /><path
     inkscape:connector-curvature="0"
     id="path28"
     d="m 256.001,111.711 v 0 c -13.282,0 -24.048,-10.767 -24.048,-24.048 V 55.597 h 48.097 v 32.065 c -0.001,13.282 -10.768,24.049 -24.049,24.049 z"
     style="fill:#ffe17d" /><path
     inkscape:connector-curvature="0"
     id="path30"
     d="m 156.098,399.053 25.522,57.423 c 5.142,11.569 16.65,19.045 29.318,19.045 7.473,0 14.757,-2.64 20.51,-7.434 L 256,447.628 l 24.553,20.461 c 5.754,4.794 13.037,7.434 20.51,7.434 12.667,0 24.175,-7.475 29.318,-19.043 l 25.52,-57.422 c 0.579,-1.303 1.036,-2.675 1.437,-4.058 l -31.849,-11.241 c -1.174,-0.414 -2.27,-0.958 -3.37,-1.495 L 256,424.339 189.881,382.263 c -1.1,0.537 -2.196,1.08 -3.37,1.495 l -31.848,11.24 c 0.401,1.381 0.857,2.752 1.435,4.055 z"
     style="fill:#739bd7" /><path
     inkscape:connector-curvature="0"
     id="path32-1"
     d="m 260.138,460.745 h -8.276 c -7.01,0 -13.207,-4.554 -15.3,-11.243 l -10.385,-33.179 h 59.646 l -10.385,33.179 c -2.093,6.69 -8.29,11.243 -15.3,11.243 z"
     style="fill:#5a4650" /><g
     id="g38"><path
       inkscape:connector-curvature="0"
       id="path34-5"
       d="m 205.556,365.878 50.444,50.445 -39.948,33.29 c -4.087,3.406 -10.296,1.959 -12.457,-2.902 l -25.52,-57.421 c -1.347,-3.031 -0.688,-6.579 1.657,-8.924 l 14.487,-14.487 c 3.131,-3.132 8.206,-3.132 11.337,-0.001 z"
       style="fill:#8cb4eb" /><path
       inkscape:connector-curvature="0"
       id="path36-7"
       d="M 306.445,365.878 256,416.323 l 39.948,33.29 c 4.087,3.406 10.296,1.959 12.457,-2.902 l 25.52,-57.421 c 1.347,-3.031 0.688,-6.579 -1.657,-8.924 l -14.487,-14.487 c -3.13,-3.132 -8.205,-3.132 -11.336,-0.001 z"
       style="fill:#8cb4eb" /></g><path
     inkscape:connector-curvature="0"
     id="path40-9"
     d="m 256,111.711 v 0 c -13.282,0 -24.048,-10.767 -24.048,-24.048 V 55.597 H 256 Z"
     style="fill:#ffd164" /><path
     inkscape:connector-curvature="0"
     id="path42-0"
     d="m 256,295.564 c 11.898,0 22.857,-3.805 29.316,-10.177 2.949,-2.909 2.98,-7.658 0.071,-10.606 -2.91,-2.949 -7.659,-2.98 -10.606,-0.071 -2.737,2.701 -9.298,5.855 -18.781,5.855 -9.483,0 -16.043,-3.154 -18.781,-5.855 -2.95,-2.91 -7.698,-2.877 -10.606,0.071 -2.909,2.948 -2.877,7.697 0.071,10.606 6.46,6.373 17.419,10.177 29.316,10.177 z" /><path
     inkscape:connector-curvature="0"
     id="path44-1"
     d="m 207.904,231.437 c 4.142,0 7.5,-3.358 7.5,-7.5 v -8.016 c 0,-4.142 -3.358,-7.5 -7.5,-7.5 -4.142,0 -7.5,3.358 -7.5,7.5 v 8.016 c 0,4.142 3.358,7.5 7.5,7.5 z" /><path
     inkscape:connector-curvature="0"
     id="path46-7"
     d="m 304.097,231.437 c 4.142,0 7.5,-3.358 7.5,-7.5 v -8.016 c 0,-4.142 -3.358,-7.5 -7.5,-7.5 -4.142,0 -7.5,3.358 -7.5,7.5 v 8.016 c 0,4.142 3.358,7.5 7.5,7.5 z" /><path
     inkscape:connector-curvature="0"
     id="path48"
     d="m 410.778,405.941 -67.441,-23.803 c -0.347,-1.176 -0.967,-2.277 -1.873,-3.183 l -18.38,-18.38 c -3.156,-3.156 -7.344,-4.65 -11.488,-4.513 v -19.228 c 29.243,-16.849 50.174,-46.561 55.03,-81.35 h 5.607 c 15.186,0 27.541,-12.354 27.541,-27.541 0,-11.079 -6.579,-20.644 -16.033,-25.011 v -32.003 l 45.9,-45.9 c 2.434,-2.434 2.898,-6.211 1.128,-9.162 L 382.672,35.706 c -1.002,-1.671 -2.616,-2.886 -4.499,-3.388 L 257.933,0.253 c -1.267,-0.338 -2.599,-0.338 -3.865,0 L 133.826,32.319 c -1.883,0.502 -3.496,1.717 -4.499,3.388 L 81.23,115.868 c -1.771,2.951 -1.306,6.729 1.128,9.162 l 45.9,45.9 v 32.003 c -9.454,4.367 -16.033,13.932 -16.033,25.011 0,11.025 6.515,20.553 15.894,24.949 -0.891,17.535 -6.469,30.627 -12.859,45.573 -8.926,20.877 -19.043,44.54 -19.043,85.793 v 23.739 c -19.392,9.054 -32.089,28.661 -32.089,50.37 V 504.5 c 0,4.142 3.358,7.5 7.5,7.5 4.142,0 7.5,-3.358 7.5,-7.5 v -46.132 c 0,-4.992 0.925,-9.83 2.626,-14.326 l 37.925,32.507 c 5.452,4.673 8.578,11.471 8.578,18.651 v 9.301 c 0,4.142 3.358,7.5 7.5,7.5 4.142,0 7.5,-3.358 7.5,-7.5 V 495.2 c 0,-11.564 -5.036,-22.513 -13.816,-30.04 L 89.686,431.085 c 4.423,-4.876 10.048,-8.712 16.528,-10.999 l 66.854,-23.596 23.674,53.266 c 1.993,4.485 5.878,7.696 10.658,8.81 1.188,0.277 2.384,0.413 3.568,0.413 3.58,0 7.053,-1.244 9.886,-3.604 l 7.284,-6.07 1.061,3.184 c 1.32,3.96 3.626,7.372 6.578,10.032 l -6.758,40.753 c -0.678,4.086 2.085,7.948 6.172,8.626 0.416,0.069 0.828,0.102 1.236,0.102 3.602,0 6.781,-2.603 7.39,-6.274 l 6.171,-37.209 c 0.51,0.033 1.021,0.061 1.537,0.061 h 8.954 c 0.508,0 1.011,-0.028 1.513,-0.06 l 6.195,37.212 c 0.61,3.669 3.788,6.27 7.389,6.27 0.409,0 0.824,-0.033 1.24,-0.103 4.086,-0.68 6.847,-4.544 6.167,-8.63 l -6.779,-40.728 c 2.962,-2.663 5.277,-6.083 6.6,-10.052 l 1.061,-3.184 7.284,6.07 c 2.833,2.361 6.306,3.604 9.886,3.604 1.184,0 2.38,-0.136 3.568,-0.413 4.78,-1.113 8.665,-4.324 10.658,-8.81 l 11.366,-25.573 c 1.682,-3.785 -0.022,-8.217 -3.808,-9.899 -3.782,-1.682 -8.217,0.022 -9.899,3.808 l -11.366,25.573 c -0.031,0.07 -0.104,0.234 -0.354,0.293 -0.248,0.058 -0.388,-0.057 -0.448,-0.106 l -33.638,-28.032 44.637,-44.638 c 0.201,-0.201 0.528,-0.202 0.73,0 l 14.738,14.738 -1.473,3.313 c -1.682,3.785 0.022,8.217 3.808,9.899 3.382,1.505 7.279,0.296 9.27,-2.682 l 66.965,23.635 c 6.479,2.287 12.105,6.123 16.528,10.999 l -39.755,34.075 c -8.781,7.526 -13.816,18.475 -13.816,30.04 v 9.301 c 0,4.142 3.358,7.5 7.5,7.5 4.142,0 7.5,-3.358 7.5,-7.5 v -9.3 c 0,-7.18 3.126,-13.978 8.578,-18.651 l 37.925,-32.507 c 1.702,4.496 2.626,9.334 2.626,14.326 V 504.5 c 0,4.142 3.358,7.5 7.5,7.5 4.142,0 7.5,-3.358 7.5,-7.5 v -46.132 c -0.003,-23.528 -14.91,-44.597 -37.097,-52.427 z M 160.323,184.208 v 7.664 c 0,4.705 -3.829,8.533 -8.535,8.533 l -8.53,-0.001 v -25.112 c 4.394,3.05 9.984,6.06 17.065,8.916 z m 13.026,-11.19 c -9.632,-3.21 -20.385,-8.207 -26.066,-13.726 h 217.436 c -5.681,5.519 -16.434,10.516 -26.066,13.726 -21.966,7.322 -51.319,11.354 -82.652,11.354 -31.333,0 -60.687,-4.032 -82.652,-11.354 z m 178.329,11.19 c 7.081,-2.857 12.671,-5.865 17.064,-8.916 v 25.112 l -8.529,0.001 c -2.28,0 -4.423,-0.888 -6.035,-2.5 -1.612,-1.612 -2.5,-3.754 -2.5,-6.033 z M 140.627,46.028 256,15.262 l 115.374,30.766 43.521,72.535 -31.153,31.153 V 111.71 c 0,-8.556 -6.96,-15.516 -15.516,-15.516 h -8.012 c -4.142,0 -7.5,3.358 -7.5,7.5 0,4.142 3.358,7.5 7.5,7.5 h 8.012 c 0.285,0 0.516,0.231 0.516,0.516 v 32.581 H 143.259 V 111.71 c 0,-0.285 0.231,-0.516 0.516,-0.516 h 91.243 c 5.58,4.981 12.932,8.016 20.983,8.016 8.051,0 15.403,-3.035 20.983,-8.016 h 51.162 c 4.142,0 7.5,-3.358 7.5,-7.5 0,-4.142 -3.358,-7.5 -7.5,-7.5 h -41.779 c 0.764,-2.716 1.182,-5.575 1.182,-8.532 V 55.597 c 0,-4.142 -3.358,-7.5 -7.5,-7.5 h -48.097 c -4.142,0 -7.5,3.358 -7.5,7.5 v 32.064 c 0,2.957 0.418,5.816 1.182,8.532 h -81.859 c -8.556,0 -15.516,6.96 -15.516,15.516 v 38.007 L 97.106,118.563 Z m 131.922,41.634 c 0,9.125 -7.423,16.548 -16.548,16.548 -9.125,0 -16.548,-7.423 -16.548,-16.548 V 63.097 h 33.097 z m -132.783,127.742 12.022,0.001 c 12.978,0 23.535,-10.557 23.535,-23.533 v -2.557 c 22.514,6.5 50.818,10.056 80.677,10.056 29.859,0 58.163,-3.557 80.677,-10.056 v 2.557 c 0,6.286 2.449,12.196 6.895,16.641 4.446,4.444 10.355,6.892 16.642,6.892 l 12.021,-0.001 c 6.915,0 12.541,5.625 12.541,12.54 0,6.915 -5.625,12.541 -12.541,12.541 h -4.531 c 10e-4,-0.172 0.007,-0.344 0.007,-0.516 0,-4.142 -3.358,-7.5 -7.5,-7.5 -4.142,0 -7.5,3.358 -7.5,7.5 0,53.326 -43.384,96.709 -96.709,96.709 -53.325,0 -96.709,-43.384 -96.709,-96.709 0,-4.142 -3.358,-7.5 -7.5,-7.5 -4.142,0 -7.5,3.358 -7.5,7.5 0,0.173 0.006,0.344 0.007,0.516 h -4.531 c -6.915,0 -12.541,-5.625 -12.541,-12.541 -0.002,-6.914 5.624,-12.54 12.538,-12.54 z m -10.712,88.958 c 6.488,-15.175 12.645,-29.616 13.943,-48.878 h 2.377 c 4.856,34.789 25.787,64.501 55.03,81.35 v 19.228 c -4.144,-0.137 -8.332,1.357 -11.488,4.512 l -18.38,18.38 c -0.906,0.906 -1.526,2.007 -1.873,3.183 l -57.445,20.275 v -18.155 c 10e-4,-38.179 9.068,-59.386 17.836,-79.895 z m 82.197,139.49 c -0.06,0.049 -0.201,0.162 -0.448,0.106 -0.25,-0.059 -0.323,-0.223 -0.354,-0.293 l -25.664,-57.745 14.737,-14.738 c 0.201,-0.201 0.528,-0.202 0.73,0 l 44.637,44.638 z m 60.238,-4.859 -2.917,8.753 c -1.163,3.489 -4.416,5.834 -8.094,5.834 h -8.954 c -3.678,0 -6.931,-2.345 -8.094,-5.834 L 240.513,438.993 256,426.086 Z M 256,405.716 215.403,365.119 v -21.08 c 12.589,4.928 26.282,7.638 40.597,7.638 14.315,0 28.007,-2.71 40.597,-7.638 v 21.08 z" /></g></g></svg>