<?xml version="1.0" encoding="UTF-8" standalone="no"?>
<!-- Generator: Adobe Illustrator 19.0.0, SVG Export Plug-In . SVG Version: 6.00 Build 0)  -->

<svg
   xmlns:osb="http://www.openswatchbook.org/uri/2009/osb"
   xmlns:dc="http://purl.org/dc/elements/1.1/"
   xmlns:cc="http://creativecommons.org/ns#"
   xmlns:rdf="http://www.w3.org/1999/02/22-rdf-syntax-ns#"
   xmlns:svg="http://www.w3.org/2000/svg"
   xmlns="http://www.w3.org/2000/svg"
   xmlns:xlink="http://www.w3.org/1999/xlink"
   xmlns:sodipodi="http://sodipodi.sourceforge.net/DTD/sodipodi-0.dtd"
   xmlns:inkscape="http://www.inkscape.org/namespaces/inkscape"
   version="1.1"
   id="Capa_1"
   x="0px"
   y="0px"
   viewBox="0 0 511.999 511.999"
   style="enable-background:new 0 0 511.999 511.999;"
   xml:space="preserve"
   sodipodi:docname="32.svg"
   inkscape:version="0.92.4 (5da689c313, 2019-01-14)"><metadata
   id="metadata95"><rdf:RDF><cc:Work
       rdf:about=""><dc:format>image/svg+xml</dc:format><dc:type
         rdf:resource="http://purl.org/dc/dcmitype/StillImage" /><dc:title /></cc:Work></rdf:RDF></metadata><defs
   id="defs93"><linearGradient
     id="linearGradient2457"
     osb:paint="solid"><stop
       style="stop-color:#000000;stop-opacity:1;"
       offset="0"
       id="stop2455" /></linearGradient><linearGradient
     inkscape:collect="always"
     xlink:href="#linearGradient2457"
     id="linearGradient2459-6-2"
     x1="1442.3572"
     y1="-339.5119"
     x2="1514.9286"
     y2="-339.5119"
     gradientUnits="userSpaceOnUse"
     gradientTransform="matrix(6.4669274,0,0,9.6773016,-9356.1743,3517.6929)" /></defs><sodipodi:namedview
   pagecolor="#ffffff"
   bordercolor="#666666"
   borderopacity="1"
   objecttolerance="10"
   gridtolerance="10"
   guidetolerance="10"
   inkscape:pageopacity="0"
   inkscape:pageshadow="2"
   inkscape:window-width="1920"
   inkscape:window-height="986"
   id="namedview91"
   showgrid="false"
   inkscape:zoom="1.3037307"
   inkscape:cx="82.482903"
   inkscape:cy="256.72862"
   inkscape:window-x="-11"
   inkscape:window-y="-11"
   inkscape:window-maximized="1"
   inkscape:current-layer="g1046" />























<g
   id="g60">
</g>
<g
   id="g62">
</g>
<g
   id="g64">
</g>
<g
   id="g66">
</g>
<g
   id="g68">
</g>
<g
   id="g70">
</g>
<g
   id="g72">
</g>
<g
   id="g74">
</g>
<g
   id="g76">
</g>
<g
   id="g78">
</g>
<g
   id="g80">
</g>
<g
   id="g82">
</g>
<g
   id="g84">
</g>
<g
   id="g86">
</g>
<g
   id="g88">
</g>
<g
   id="g1046"
   transform="matrix(0.55886315,0,0,0.55886315,157.54779,132.77619)"><rect
   y="-104.38158"
   x="-28.555799"
   height="673.03345"
   width="469.31418"
   id="rect2447-0-9"
   style="display:inline;fill:none;fill-opacity:1;stroke:url(#linearGradient2459-6-2);stroke-width:25.31489563;stroke-miterlimit:4;stroke-dasharray:none;stroke-opacity:1" /><text
   id="text2485-9"
   y="522.54254"
   x="78.396889"
   style="font-style:normal;font-weight:normal;font-size:76.99105835px;line-height:1.25;font-family:sans-serif;letter-spacing:0px;word-spacing:0px;display:inline;fill:#000000;fill-opacity:1;stroke:none;stroke-width:1.9247762"
   xml:space="preserve"><tspan
     style="stroke-width:1.9247762"
     y="522.54254"
     x="78.396889"
     id="tspan2483-7"
     sodipodi:role="line">PAULA</tspan></text>






<g
   transform="matrix(0.94784012,0,0,0.94784012,-36.545781,-44.667313)"
   id="g901"><path
     inkscape:connector-curvature="0"
     id="path2"
     d="M 408.283,396.981 325.49,367.76 c -12.82,-4.525 -21.393,-16.642 -21.393,-30.237 V 296.08 h -96.194 v 41.443 c 0,13.595 -8.573,25.712 -21.393,30.237 l -82.792,29.221 c -19.229,6.787 -32.089,24.962 -32.089,45.354 V 504.5 h 368.742 v -62.165 c 0,-20.392 -12.859,-38.567 -32.088,-45.354 z"
     style="fill:#e3aa75" /><path
     inkscape:connector-curvature="0"
     id="path4"
     d="m 408.283,396.981 -80.16,-28.292 c -0.252,39.629 -32.433,71.682 -72.122,71.682 -39.689,0 -71.87,-32.053 -72.122,-71.682 l -80.16,28.292 C 84.489,403.768 71.63,421.943 71.63,442.335 V 504.5 h 368.742 v -62.165 c -0.001,-20.392 -12.86,-38.567 -32.089,-45.354 z"
     style="fill:#9bdc9b" /><path
     inkscape:connector-curvature="0"
     id="path6-5"
     d="m 160.251,377.028 c 4.451,48.995 45.595,87.391 95.749,87.391 50.154,0 91.298,-38.397 95.749,-87.391 l -23.628,-8.339 c -0.252,39.629 -32.433,71.682 -72.122,71.682 -39.689,0 -71.869,-32.053 -72.122,-71.682 z"
     style="fill:#b4e6a0" /><path
     inkscape:connector-curvature="0"
     id="path8"
     d="m 207.903,325.904 c 14.8,6.545 31.063,10.257 48.097,10.257 17.034,0 33.296,-3.712 48.097,-10.257 V 296.08 h -96.194 z"
     style="fill:#d29b6e" /><path
     inkscape:connector-curvature="0"
     id="path10"
     d="m 368.227,207.903 -20.489,95.618 c -2.366,11.041 -3.559,22.301 -3.559,33.592 v 5.971 c 0,6.068 0.319,12.133 0.954,18.168 L 360.21,504.5 H 304.097 V 207.903 Z"
     style="fill:#64505a" /><path
     inkscape:connector-curvature="0"
     id="path12"
     d="m 344.178,337.113 v 5.971 c 0,3.039 0.08,6.076 0.24,9.11 h -40.32 v -32.065 h 40.988 c -0.602,5.638 -0.908,11.307 -0.908,16.984 z"
     style="fill:#9bdc9b" /><path
     inkscape:connector-curvature="0"
     id="path14-6"
     d="m 143.774,207.903 20.489,95.618 c 2.366,11.041 3.559,22.301 3.559,33.592 v 5.971 c 0,6.068 -0.319,12.133 -0.954,18.168 L 151.791,504.5 h 56.113 V 207.903 Z"
     style="fill:#64505a" /><path
     inkscape:connector-curvature="0"
     id="path16-8"
     d="m 380.087,199.887 c 7.759,-17.128 12.187,-36.086 12.187,-56.113 C 392.274,68.512 331.263,7.5 256,7.5 c -75.263,0 -136.274,61.012 -136.274,136.274 0,20.027 4.428,38.985 12.187,56.113 z"
     style="fill:#5a4650" /><path
     inkscape:connector-curvature="0"
     id="path18-7"
     d="M 372.234,175.839 H 360.21 v -8.016 c 0,-57.554 -46.656,-104.21 -104.21,-104.21 -57.554,0 -104.21,46.656 -104.21,104.21 v 8.016 h -12.024 c -11.068,0 -20.04,8.972 -20.04,20.04 0,11.068 8.972,20.04 20.04,20.04 h 12.429 c 4.106,53.795 48.958,96.194 103.805,96.194 54.847,0 99.699,-42.398 103.805,-96.194 h 12.429 c 11.068,0 20.04,-8.973 20.04,-20.04 0,-11.068 -8.972,-20.04 -20.04,-20.04 z"
     style="fill:#f5b97d" /><path
     inkscape:connector-curvature="0"
     id="path20"
     d="m 183.855,207.903 v -40.081 c 0,-10.301 2.06,-19.184 4.869,-26.509 5.346,-13.939 22.292,-18.757 35.069,-11.036 40.325,24.368 87.162,36.07 136,37.545 C 355.446,112.526 308.037,61.081 251.035,63.728 194.912,66.333 151.79,110.362 151.79,169.659 v 6.179 h -10.88 c -10.483,0 -20.035,7.542 -21.08,17.973 -1.201,11.996 8.186,22.108 19.936,22.108 h 12.429 c 4.106,53.795 48.958,96.194 103.805,96.194 5.484,0 10.83,-0.534 16.083,-1.351 -49.946,-7.708 -88.228,-50.754 -88.228,-102.859 z"
     style="fill:#e3aa75" /><path
     inkscape:connector-curvature="0"
     id="path22"
     d="m 219.928,227.915 c 0,17.709 16.15,32.065 36.073,32.065 19.923,0 36.073,-14.356 36.073,-32.065 z"
     style="fill:#ffffff" /><path
     inkscape:connector-curvature="0"
     id="path24-3"
     d="m 256,7.5 c -35.284,0 -67.329,13.524 -91.531,35.525 46.879,61.229 120.686,100.75 203.757,100.75 8.094,0 16.088,-0.421 23.99,-1.154 C 391.589,67.895 330.873,7.5 256,7.5 Z"
     style="fill:#64505a" /><path
     inkscape:connector-curvature="0"
     id="path26"
     d="m 167.823,337.113 v 5.971 c 0,3.039 -0.08,6.076 -0.24,9.11 h 40.32 v -32.065 h -40.988 c 0.602,5.638 0.908,11.307 0.908,16.984 z"
     style="fill:#9bdc9b" /><path
     inkscape:connector-curvature="0"
     id="path28"
     d="m 215.404,191.871 v -8.016 c 0,-4.142 -3.358,-7.5 -7.5,-7.5 -4.142,0 -7.5,3.358 -7.5,7.5 v 8.016 c 0,4.142 3.358,7.5 7.5,7.5 4.142,0 7.5,-3.358 7.5,-7.5 z" /><path
     inkscape:connector-curvature="0"
     id="path30"
     d="m 304.097,176.355 c -4.143,0 -7.5,3.358 -7.5,7.5 v 8.016 c 0,4.142 3.357,7.5 7.5,7.5 4.143,0 7.5,-3.358 7.5,-7.5 v -8.016 c 0,-4.142 -3.357,-7.5 -7.5,-7.5 z" /><path
     inkscape:connector-curvature="0"
     id="path32-7"
     d="m 216.76,165.255 c 4.116,-0.464 7.076,-4.177 6.612,-8.293 -0.464,-4.116 -4.172,-7.076 -8.293,-6.612 l -16.032,1.809 c -4.116,0.464 -7.076,4.177 -6.612,8.293 0.432,3.831 3.677,6.66 7.443,6.66 0.281,0 0.564,-0.016 0.85,-0.048 z" /><path
     inkscape:connector-curvature="0"
     id="path34-8"
     d="m 312.954,152.158 -16.032,-1.809 c -4.115,-0.467 -7.829,2.495 -8.294,6.612 -0.464,4.116 2.496,7.829 6.612,8.293 l 16.032,1.809 c 0.286,0.032 0.569,0.048 0.851,0.048 3.765,0 7.011,-2.83 7.443,-6.66 0.465,-4.116 -2.494,-7.828 -6.612,-8.293 z" /><path
     inkscape:connector-curvature="0"
     id="path36"
     d="m 410.779,389.909 -57.215,-20.193 -0.974,-9.248 c -0.605,-5.753 -0.912,-11.603 -0.912,-17.384 0,-14.574 1.921,-29.098 5.709,-43.169 l 20.77,-77.143 c 12.348,-2.718 21.618,-13.74 21.618,-26.892 0,-5.715 -1.751,-11.028 -4.743,-15.433 3.135,-11.917 4.743,-24.235 4.743,-36.671 C 399.775,64.497 335.279,0 256,0 176.721,0 112.226,64.497 112.226,143.774 c 0,12.433 1.608,24.753 4.743,36.671 -2.992,4.405 -4.743,9.719 -4.743,15.434 0,13.153 9.27,24.175 21.618,26.892 l 20.769,77.143 c 3.789,14.071 5.71,28.595 5.71,43.169 0,5.783 -0.307,11.631 -0.913,17.383 l -0.974,9.248 -57.214,20.194 c -22.187,7.83 -37.093,28.899 -37.093,52.427 V 504.5 c 0,4.142 3.358,7.5 7.5,7.5 4.142,0 7.5,-3.358 7.5,-7.5 v -62.165 c 0,-17.18 10.885,-32.564 27.085,-38.282 l 50.483,-17.818 -12.366,117.48 c -0.434,4.12 2.555,7.811 6.674,8.244 0.267,0.028 0.532,0.042 0.794,0.042 3.789,0 7.044,-2.863 7.45,-6.715 l 15.079,-143.248 c 0.082,-0.778 0.144,-1.562 0.215,-2.344 h 25.86 V 504.5 c 0,4.142 3.358,7.5 7.5,7.5 4.142,0 7.5,-3.358 7.5,-7.5 v -67.838 c 12.228,7.287 26.214,11.209 40.597,11.209 14.383,0 28.369,-3.922 40.597,-11.209 V 504.5 c 0,4.142 3.357,7.5 7.5,7.5 4.143,0 7.5,-3.358 7.5,-7.5 V 400.291 c 0,-4.142 -3.357,-7.5 -7.5,-7.5 -4.143,0 -7.5,3.358 -7.5,7.5 v 18.136 c -11.514,9.334 -25.804,14.444 -40.597,14.444 -14.793,0 -29.083,-5.11 -40.597,-14.444 V 311.975 c 12.589,4.928 26.282,7.638 40.597,7.638 14.315,0 28.007,-2.71 40.597,-7.638 v 56.254 c 0,4.142 3.357,7.5 7.5,7.5 4.143,0 7.5,-3.358 7.5,-7.5 v -8.535 h 25.86 c 0.072,0.781 0.133,1.565 0.215,2.343 l 15.079,143.248 c 0.405,3.853 3.66,6.715 7.45,6.715 0.262,0 0.527,-0.014 0.794,-0.042 4.119,-0.434 7.107,-4.125 6.674,-8.244 l -12.367,-117.479 50.484,17.818 c 16.2,5.718 27.085,21.102 27.085,38.282 V 504.5 c 0,4.142 3.357,7.5 7.5,7.5 4.143,0 7.5,-3.358 7.5,-7.5 v -62.165 c 0,-23.527 -14.906,-44.596 -37.092,-52.426 z M 175.302,344.693 c 0.005,-0.536 0.021,-1.075 0.021,-1.61 0,-5.163 -0.245,-10.318 -0.685,-15.454 h 25.765 v 17.064 z m 25.102,-32.064 h -27.673 c -0.953,-5.587 -2.158,-11.133 -3.633,-16.614 l -7.781,-28.901 c 9.74,15.52 23.183,28.492 39.087,37.656 z M 159.291,207.903 c 0,-4.142 -3.358,-7.5 -7.5,-7.5 -4.142,0 -7.5,3.358 -7.5,7.5 0,0.173 0.006,0.344 0.007,0.516 h -4.531 c -6.915,0 -12.541,-5.625 -12.541,-12.541 0,-6.915 5.625,-12.54 12.539,-12.54 l 6.011,0.001 c 7.902,0 7.924,0.001 9.606,-0.917 2.508,-1.368 3.923,-3.96 3.909,-6.63 v -7.97 c 0,-23.88 7.482,-44.707 22.239,-61.899 2.698,-3.143 2.336,-7.878 -0.807,-10.576 -3.144,-2.697 -7.878,-2.337 -10.576,0.807 -17.157,19.99 -25.856,44.103 -25.856,71.669 v 0.517 c -2.434,0 -4.523,0 -4.524,0 -3.464,0 -6.778,0.649 -9.835,1.822 -1.797,-8.639 -2.706,-17.48 -2.706,-26.386 C 127.226,72.768 184.994,15 256,15 c 71.007,0 128.774,57.768 128.774,128.774 0,8.908 -0.913,17.747 -2.71,26.385 -3.056,-1.172 -6.369,-1.82 -9.832,-1.82 0,0 -2.089,0 -4.522,0 V 150.6 c 0.173,0 0.342,0.005 0.516,0.005 4.143,0 7.5,-3.358 7.5,-7.5 0,-4.142 -3.357,-7.5 -7.5,-7.5 -62.787,0 -108.183,-20.323 -135.208,-37.372 -29.375,-18.531 -44.076,-37.338 -44.221,-37.526 -2.523,-3.278 -7.225,-3.895 -10.508,-1.376 -3.287,2.521 -3.907,7.229 -1.386,10.516 0.642,0.837 16.093,20.739 47.487,40.678 26.506,16.834 69.584,36.631 128.32,39.667 v 25.646 h 0.007 c 0.003,2.545 1.293,5.026 3.634,6.431 1.784,1.071 1.795,1.064 9.873,1.07 l 6.01,-0.001 c 6.915,0 12.54,5.625 12.54,12.54 0,6.915 -5.625,12.541 -12.54,12.541 h -4.531 c 0.001,-0.172 0.007,-0.344 0.007,-0.516 0,-4.142 -3.357,-7.5 -7.5,-7.5 -4.143,0 -7.5,3.358 -7.5,7.5 0,53.326 -43.384,96.709 -96.71,96.709 -53.325,10e-4 -96.709,-43.383 -96.709,-96.709 z m 191.393,59.212 -7.781,28.9 c -1.475,5.481 -2.679,11.027 -3.633,16.614 h -27.673 v -7.859 c 15.904,-9.164 29.346,-22.136 39.087,-37.655 z m -39.087,77.579 v -17.065 h 25.766 c -0.44,5.137 -0.685,10.292 -0.685,15.455 0,0.535 0.016,1.074 0.021,1.61 z" /><path
     inkscape:connector-curvature="0"
     id="path38-5"
     d="m 292.073,220.415 h -72.145 c -4.142,0 -7.5,3.358 -7.5,7.5 0,21.816 19.547,39.564 43.573,39.564 24.025,0 43.572,-17.749 43.572,-39.564 0,-4.142 -3.358,-7.5 -7.5,-7.5 z M 256,252.479 c -12.714,0 -23.516,-7.176 -27.211,-17.064 h 54.422 c -3.695,9.889 -14.497,17.064 -27.211,17.064 z" /></g></g></svg>