<?xml version="1.0" encoding="UTF-8" standalone="no"?>
<!-- Generator: Adobe Illustrator 19.0.0, SVG Export Plug-In . SVG Version: 6.00 Build 0)  -->

<svg
   xmlns:osb="http://www.openswatchbook.org/uri/2009/osb"
   xmlns:dc="http://purl.org/dc/elements/1.1/"
   xmlns:cc="http://creativecommons.org/ns#"
   xmlns:rdf="http://www.w3.org/1999/02/22-rdf-syntax-ns#"
   xmlns:svg="http://www.w3.org/2000/svg"
   xmlns="http://www.w3.org/2000/svg"
   xmlns:xlink="http://www.w3.org/1999/xlink"
   xmlns:sodipodi="http://sodipodi.sourceforge.net/DTD/sodipodi-0.dtd"
   xmlns:inkscape="http://www.inkscape.org/namespaces/inkscape"
   version="1.1"
   id="Capa_1"
   x="0px"
   y="0px"
   viewBox="0 0 511.999 511.999"
   style="enable-background:new 0 0 511.999 511.999;"
   xml:space="preserve"
   sodipodi:docname="35.svg"
   inkscape:version="0.92.4 (5da689c313, 2019-01-14)"><metadata
   id="metadata95"><rdf:RDF><cc:Work
       rdf:about=""><dc:format>image/svg+xml</dc:format><dc:type
         rdf:resource="http://purl.org/dc/dcmitype/StillImage" /><dc:title /></cc:Work></rdf:RDF></metadata><defs
   id="defs93"><linearGradient
     id="linearGradient2457"
     osb:paint="solid"><stop
       style="stop-color:#000000;stop-opacity:1;"
       offset="0"
       id="stop2455" /></linearGradient><linearGradient
     inkscape:collect="always"
     xlink:href="#linearGradient2457"
     id="linearGradient2459-6-2"
     x1="1442.3572"
     y1="-339.5119"
     x2="1514.9286"
     y2="-339.5119"
     gradientUnits="userSpaceOnUse"
     gradientTransform="matrix(6.4669274,0,0,9.6773016,-9356.1743,3517.6929)" /></defs><sodipodi:namedview
   pagecolor="#ffffff"
   bordercolor="#666666"
   borderopacity="1"
   objecttolerance="10"
   gridtolerance="10"
   guidetolerance="10"
   inkscape:pageopacity="0"
   inkscape:pageshadow="2"
   inkscape:window-width="1920"
   inkscape:window-height="986"
   id="namedview91"
   showgrid="false"
   inkscape:zoom="1.3037307"
   inkscape:cx="178.74512"
   inkscape:cy="256.72862"
   inkscape:window-x="-11"
   inkscape:window-y="-11"
   inkscape:window-maximized="1"
   inkscape:current-layer="g1046" />























<g
   id="g60">
</g>
<g
   id="g62">
</g>
<g
   id="g64">
</g>
<g
   id="g66">
</g>
<g
   id="g68">
</g>
<g
   id="g70">
</g>
<g
   id="g72">
</g>
<g
   id="g74">
</g>
<g
   id="g76">
</g>
<g
   id="g78">
</g>
<g
   id="g80">
</g>
<g
   id="g82">
</g>
<g
   id="g84">
</g>
<g
   id="g86">
</g>
<g
   id="g88">
</g>
<g
   id="g1046"
   transform="matrix(0.55886315,0,0,0.55886315,157.54779,132.77619)"><rect
   y="-104.38158"
   x="-28.555799"
   height="673.03345"
   width="469.31418"
   id="rect2447-0-9"
   style="display:inline;fill:none;fill-opacity:1;stroke:url(#linearGradient2459-6-2);stroke-width:25.31489563;stroke-miterlimit:4;stroke-dasharray:none;stroke-opacity:1" /><text
   id="text2485-9"
   y="522.54254"
   x="96.911575"
   style="font-style:normal;font-weight:normal;font-size:76.99105835px;line-height:1.25;font-family:sans-serif;letter-spacing:0px;word-spacing:0px;display:inline;fill:#000000;fill-opacity:1;stroke:none;stroke-width:1.9247762"
   xml:space="preserve"><tspan
     style="stroke-width:1.9247762"
     y="522.54254"
     x="96.911575"
     id="tspan2483-7"
     sodipodi:role="line">OLGA</tspan></text>







<g
   transform="matrix(0.95857017,0,0,0.95857017,-39.292674,-51.113523)"
   id="g901"><rect
     id="rect2"
     height="208.42"
     width="208.42"
     style="fill:#c9c6ca"
     y="175.84"
     x="151.78999" /><path
     inkscape:connector-curvature="0"
     id="path4-1"
     d="M 408.282,388.965 325.49,359.744 c -12.82,-4.525 -21.393,-16.642 -21.393,-30.237 v -41.443 h -96.194 v 41.443 c 0,13.595 -8.573,25.712 -21.393,30.237 l -82.792,29.221 c -19.229,6.787 -32.089,24.962 -32.089,45.354 V 504.5 h 368.742 v -70.181 c 0,-20.392 -12.859,-38.567 -32.089,-45.354 z"
     style="fill:#a5cdff" /><path
     inkscape:connector-curvature="0"
     id="path6"
     d="m 256,496.484 c 66.354,0 120.4,-52.054 123.911,-117.532 l -54.422,-19.208 c -12.82,-4.525 -21.393,-16.642 -21.393,-30.237 v -41.443 h -96.194 v 41.443 c 0,13.595 -8.573,25.712 -21.393,30.237 l -54.422,19.208 C 135.6,444.43 189.646,496.484 256,496.484 Z"
     style="fill:#8cb4eb" /><path
     inkscape:connector-curvature="0"
     id="path8-3"
     d="m 256,472.435 c 55.34,0 100.202,-44.862 100.202,-100.202 0,-0.568 -0.075,-1.116 -0.084,-1.681 L 325.49,359.743 c -12.82,-4.525 -21.393,-16.642 -21.393,-30.237 v -41.443 h -96.194 v 41.443 c 0,13.595 -8.573,25.712 -21.393,30.237 l -30.627,10.809 c -0.009,0.565 -0.085,1.113 -0.085,1.681 0,55.341 44.862,100.202 100.202,100.202 z"
     style="fill:#e3aa75" /><path
     inkscape:connector-curvature="0"
     id="path10-6"
     d="m 304.097,326.052 v -37.988 h -96.194 v 37.988 c 14.744,6.465 30.994,10.109 48.097,10.109 17.103,0 33.353,-3.644 48.097,-10.109 z"
     style="fill:#d29b6e" /><path
     inkscape:connector-curvature="0"
     id="path12"
     d="m 256,312.113 v 0 c -57.554,0 -104.21,-46.656 -104.21,-104.21 v -104.21 h 208.42 v 104.21 c 0,57.554 -46.657,104.21 -104.21,104.21 z"
     style="fill:#f5b97d" /><path
     inkscape:connector-curvature="0"
     id="path14"
     d="m 256,146.206 c 23.271,32.459 61.223,53.681 104.21,53.681 V 103.693 H 151.79 v 104.21 c 0,57.553 46.656,104.21 104.21,104.21 5.466,0 10.793,-0.547 16.032,-1.359 -49.921,-7.729 -88.177,-50.764 -88.177,-102.851 v -0.315 c 0,-6.779 4.284,-12.784 10.673,-15.051 24.937,-8.846 46.32,-25.197 61.472,-46.331 z"
     style="fill:#e3aa75" /><path
     inkscape:connector-curvature="0"
     id="path16"
     d="M 151.79,371.998 V 191.067 c 0,-7.932 5.564,-15.042 13.399,-16.282 41.882,-6.626 71.734,-42.767 84.264,-60.82 1.596,-2.3 4.074,-3.45 6.553,-3.454 2.479,0.004 4.956,1.155 6.552,3.454 12.53,18.053 42.383,54.194 84.264,60.82 7.835,1.24 13.399,8.35 13.399,16.282 v 180.935 l 32.053,11.313 V 143.774 C 392.274,68.512 331.262,7.5 256,7.5 180.738,7.5 119.726,68.512 119.726,143.774 v 239.541 z"
     style="fill:#dbd9dc" /><path
     inkscape:connector-curvature="0"
     id="path18"
     d="m 356.117,370.553 -30.628,-10.809 c -4.119,-1.454 -7.735,-3.756 -10.833,-6.574 L 256,392.274 197.343,353.169 c -3.099,2.818 -6.715,5.121 -10.833,6.574 l -30.627,10.809 c -0.009,0.565 -0.085,1.113 -0.085,1.681 0,55.34 44.862,100.202 100.202,100.202 55.34,0 100.202,-44.862 100.202,-100.202 0,-0.567 -0.076,-1.115 -0.085,-1.68 z"
     style="fill:#edebed" /><path
     inkscape:connector-curvature="0"
     id="path20-6"
     d="m 325.489,359.744 c -4.118,-1.454 -7.734,-3.756 -10.832,-6.574 L 256,392.274 197.343,353.169 c -3.098,2.818 -6.715,5.121 -10.832,6.574 l -30.628,10.809 c -0.009,0.565 -0.084,1.113 -0.084,1.681 0,0.798 0.101,1.572 0.119,2.366 l 25.702,57.829 c 5.142,11.569 16.65,19.044 29.318,19.044 7.473,0 14.756,-2.64 20.51,-7.434 l 24.552,-20.46 24.553,20.461 c 5.752,4.794 13.036,7.434 20.51,7.434 12.667,0 24.175,-7.475 29.318,-19.043 l 25.701,-57.829 c 0.019,-0.795 0.119,-1.568 0.119,-2.367 0,-0.568 -0.075,-1.116 -0.084,-1.681 z"
     style="fill:#dbd9dc" /><g
     id="g26"><path
       inkscape:connector-curvature="0"
       id="path22-8"
       d="m 205.555,341.83 50.445,50.444 -39.948,33.29 c -4.087,3.406 -10.296,1.959 -12.457,-2.903 l -26.168,-58.878 c -0.957,-2.153 -0.489,-4.673 1.177,-6.339 l 15.615,-15.615 c 3.13,-3.13 8.206,-3.13 11.336,10e-4 z"
       style="fill:#ffffff" /><path
       inkscape:connector-curvature="0"
       id="path24-8"
       d="M 306.445,341.83 256,392.274 l 39.948,33.29 c 4.087,3.406 10.296,1.959 12.457,-2.903 l 26.168,-58.878 c 0.957,-2.153 0.489,-4.673 -1.177,-6.339 l -15.615,-15.615 c -3.13,-3.13 -8.206,-3.13 -11.336,10e-4 z"
       style="fill:#ffffff" /></g><path
     inkscape:connector-curvature="0"
     id="path28-9"
     d="m 207.903,177.052 c -4.143,0 -7.5,3.358 -7.5,7.5 v 8.016 c 0,4.142 3.357,7.5 7.5,7.5 4.143,0 7.5,-3.358 7.5,-7.5 v -8.016 c 0,-4.142 -3.357,-7.5 -7.5,-7.5 z" /><path
     inkscape:connector-curvature="0"
     id="path30-2"
     d="m 304.097,200.068 c 4.143,0 7.5,-3.358 7.5,-7.5 v -8.016 c 0,-4.142 -3.357,-7.5 -7.5,-7.5 -4.143,0 -7.5,3.358 -7.5,7.5 v 8.016 c 0,4.142 3.357,7.5 7.5,7.5 z" /><path
     inkscape:connector-curvature="0"
     id="path32"
     d="m 256,256.181 c 11.896,0 22.856,-3.804 29.315,-10.177 2.949,-2.909 2.981,-7.658 0.072,-10.606 -2.908,-2.95 -7.657,-2.981 -10.605,-0.072 -2.738,2.701 -9.301,5.855 -18.782,5.855 -9.481,0 -16.044,-3.154 -18.782,-5.855 -2.949,-2.909 -7.698,-2.876 -10.605,0.072 -2.909,2.949 -2.877,7.697 0.072,10.606 6.459,6.372 17.419,10.177 29.315,10.177 z" /><path
     inkscape:connector-curvature="0"
     id="path34"
     d="m 352.702,207.903 c 0,-0.124 -0.006,0.123 0,0 z" /><path
     inkscape:connector-curvature="0"
     id="path36-5"
     d="m 410.778,381.893 -11.004,-3.884 V 143.774 C 399.774,64.497 335.277,0 256,0 176.723,0 112.226,64.497 112.226,143.774 v 234.235 l -11.004,3.884 c -22.187,7.83 -37.093,28.899 -37.093,52.427 v 70.18 c 0,4.142 3.357,7.5 7.5,7.5 4.143,0 7.5,-3.358 7.5,-7.5 v -70.181 c 0,-4.992 0.925,-9.83 2.626,-14.326 L 119.68,452.5 c 5.451,4.673 8.578,11.471 8.578,18.651 V 504.5 c 0,4.142 3.357,7.5 7.5,7.5 4.143,0 7.5,-3.358 7.5,-7.5 v -33.349 c 0,-11.565 -5.036,-22.514 -13.816,-30.04 L 89.687,407.035 c 4.422,-4.876 10.048,-8.712 16.527,-10.999 l 41.885,-14.783 0.636,4.769 c 3.467,26.001 16.245,49.837 35.981,67.117 19.736,17.279 45.053,26.795 71.284,26.795 26.231,0 51.548,-9.516 71.284,-26.795 19.736,-17.28 32.515,-41.116 35.981,-67.117 l 0.636,-4.769 41.885,14.783 c 6.479,2.287 12.104,6.123 16.527,10.999 l -39.754,34.076 c -8.78,7.526 -13.816,18.475 -13.816,30.04 V 504.5 c 0,4.142 3.357,7.5 7.5,7.5 4.143,0 7.5,-3.358 7.5,-7.5 v -33.349 c 0,-7.18 3.127,-13.978 8.578,-18.651 l 37.924,-32.507 c 1.702,4.496 2.626,9.334 2.626,14.326 V 504.5 c 0,4.142 3.357,7.5 7.5,7.5 4.143,0 7.5,-3.358 7.5,-7.5 v -70.181 c 0,-23.527 -14.906,-44.596 -37.093,-52.426 z m -62.382,2.148 c -6.148,46.118 -45.87,80.895 -92.396,80.895 -46.526,0 -86.248,-34.777 -92.396,-80.896 l -1.052,-7.887 10.516,-3.712 23.673,53.267 c 1.994,4.485 5.879,7.696 10.66,8.809 1.188,0.277 2.383,0.413 3.566,0.413 3.58,0 7.053,-1.244 9.886,-3.604 L 256,402.037 l 35.146,29.288 c 2.833,2.361 6.306,3.605 9.886,3.605 1.184,0 2.379,-0.136 3.566,-0.413 4.781,-1.113 8.666,-4.324 10.66,-8.81 l 11.365,-25.573 c 1.683,-3.785 -0.022,-8.217 -3.808,-9.899 -3.786,-1.681 -8.218,0.022 -9.899,3.808 l -11.365,25.572 c -0.031,0.071 -0.104,0.235 -0.355,0.294 -0.247,0.057 -0.387,-0.057 -0.446,-0.106 l -33.64,-28.032 44.637,-44.637 c 0.2,-0.201 0.528,-0.202 0.73,0 l 14.738,14.738 -1.473,3.314 c -1.683,3.785 0.022,8.217 3.808,9.899 3.384,1.504 7.28,0.295 9.27,-2.682 l 10.627,3.751 z m -103.506,7.73 -33.64,28.032 c -0.06,0.049 -0.199,0.163 -0.446,0.106 -0.251,-0.059 -0.324,-0.223 -0.355,-0.293 l -25.664,-57.745 14.737,-14.737 c 0.202,-0.202 0.532,-0.199 0.73,0 z M 215.403,341.07 v -29.092 c 12.587,4.926 26.277,7.635 40.589,7.635 14.317,0 28.013,-2.711 40.604,-7.641 V 341.07 L 256,381.667 Z m 169.371,31.645 -41.437,-14.625 c -0.347,-1.176 -0.967,-2.278 -1.873,-3.184 l -18.381,-18.38 c -3.156,-3.156 -7.344,-4.649 -11.487,-4.512 v -27.249 c 17.043,-9.822 31.263,-24.013 41.124,-41.032 v 72.428 c 0,4.142 3.357,7.5 7.5,7.5 4.143,0 7.5,-3.358 7.5,-7.5 V 191.066 c 0,-11.726 -8.48,-21.91 -19.727,-23.689 -13.251,-2.097 -47.503,-11.915 -79.274,-57.688 -2.903,-4.183 -7.661,-6.68 -12.728,-6.679 -5.067,0 -9.824,2.499 -12.727,6.681 -5.039,7.262 -10.844,14.455 -16.787,20.801 -2.832,3.023 -2.677,7.77 0.347,10.601 3.024,2.832 7.771,2.675 10.601,-0.347 6.526,-6.969 12.638,-14.54 18.164,-22.504 0.084,-0.121 0.19,-0.232 0.403,-0.232 0.214,0 0.32,0.111 0.404,0.232 6.621,9.54 17.622,23.552 32.43,36.134 18.067,15.352 37.186,24.71 56.823,27.817 4.03,0.638 7.07,4.453 7.07,8.874 l -0.019,16.837 c 0,53.326 -43.384,96.709 -96.71,96.709 -53.121,0 -96.37,-43.051 -96.702,-96.095 v -17.454 c 0,-4.421 3.04,-8.236 7.07,-8.874 15.651,-2.477 31.077,-8.98 45.849,-19.33 3.393,-2.377 4.216,-7.054 1.839,-10.446 -2.376,-3.392 -7.054,-4.215 -10.446,-1.839 -12.888,9.03 -26.206,14.682 -39.585,16.799 -11.246,1.779 -19.727,11.964 -19.727,23.689 V 336.16 c 0,4.142 3.357,7.5 7.5,7.5 4.143,0 7.5,-3.358 7.5,-7.5 v -72.383 c 9.863,17.004 24.078,31.183 41.113,40.996 v 27.24 c -4.144,-0.137 -8.332,1.357 -11.488,4.512 l -18.38,18.38 c -0.906,0.906 -1.526,2.008 -1.873,3.184 l -41.437,14.625 V 143.774 C 127.226,72.768 184.993,15 256,15 c 71.007,0 128.774,57.768 128.774,128.774 z" /></g></g></svg>