<?xml version="1.0" encoding="UTF-8" standalone="no"?>
<!-- Generator: Adobe Illustrator 19.0.0, SVG Export Plug-In . SVG Version: 6.00 Build 0)  -->

<svg
   xmlns:osb="http://www.openswatchbook.org/uri/2009/osb"
   xmlns:dc="http://purl.org/dc/elements/1.1/"
   xmlns:cc="http://creativecommons.org/ns#"
   xmlns:rdf="http://www.w3.org/1999/02/22-rdf-syntax-ns#"
   xmlns:svg="http://www.w3.org/2000/svg"
   xmlns="http://www.w3.org/2000/svg"
   xmlns:xlink="http://www.w3.org/1999/xlink"
   xmlns:sodipodi="http://sodipodi.sourceforge.net/DTD/sodipodi-0.dtd"
   xmlns:inkscape="http://www.inkscape.org/namespaces/inkscape"
   version="1.1"
   id="Capa_1"
   x="0px"
   y="0px"
   viewBox="0 0 511.999 511.999"
   style="enable-background:new 0 0 511.999 511.999;"
   xml:space="preserve"
   sodipodi:docname="38.svg"
   inkscape:version="0.92.4 (5da689c313, 2019-01-14)"><metadata
   id="metadata95"><rdf:RDF><cc:Work
       rdf:about=""><dc:format>image/svg+xml</dc:format><dc:type
         rdf:resource="http://purl.org/dc/dcmitype/StillImage" /><dc:title /></cc:Work></rdf:RDF></metadata><defs
   id="defs93"><linearGradient
     id="linearGradient2457"
     osb:paint="solid"><stop
       style="stop-color:#000000;stop-opacity:1;"
       offset="0"
       id="stop2455" /></linearGradient><linearGradient
     inkscape:collect="always"
     xlink:href="#linearGradient2457"
     id="linearGradient2459-6-2"
     x1="1442.3572"
     y1="-339.5119"
     x2="1514.9286"
     y2="-339.5119"
     gradientUnits="userSpaceOnUse"
     gradientTransform="matrix(6.4669274,0,0,9.6773016,-9356.1743,3517.6929)" /></defs><sodipodi:namedview
   pagecolor="#ffffff"
   bordercolor="#666666"
   borderopacity="1"
   objecttolerance="10"
   gridtolerance="10"
   guidetolerance="10"
   inkscape:pageopacity="0"
   inkscape:pageshadow="2"
   inkscape:window-width="1920"
   inkscape:window-height="986"
   id="namedview91"
   showgrid="false"
   inkscape:zoom="1.3037307"
   inkscape:cx="178.74512"
   inkscape:cy="256.72862"
   inkscape:window-x="-11"
   inkscape:window-y="-11"
   inkscape:window-maximized="1"
   inkscape:current-layer="g1046" />























<g
   id="g60">
</g>
<g
   id="g62">
</g>
<g
   id="g64">
</g>
<g
   id="g66">
</g>
<g
   id="g68">
</g>
<g
   id="g70">
</g>
<g
   id="g72">
</g>
<g
   id="g74">
</g>
<g
   id="g76">
</g>
<g
   id="g78">
</g>
<g
   id="g80">
</g>
<g
   id="g82">
</g>
<g
   id="g84">
</g>
<g
   id="g86">
</g>
<g
   id="g88">
</g>
<g
   id="g1046"
   transform="matrix(0.55886315,0,0,0.55886315,157.54779,132.77619)"><rect
   y="-104.38158"
   x="-28.555799"
   height="673.03345"
   width="469.31418"
   id="rect2447-0-9"
   style="display:inline;fill:none;fill-opacity:1;stroke:url(#linearGradient2459-6-2);stroke-width:25.31489563;stroke-miterlimit:4;stroke-dasharray:none;stroke-opacity:1" /><text
   id="text2485-9"
   y="522.54254"
   x="-6.4887671"
   style="font-style:normal;font-weight:normal;font-size:76.99105835px;line-height:1.25;font-family:sans-serif;letter-spacing:0px;word-spacing:0px;display:inline;fill:#000000;fill-opacity:1;stroke:none;stroke-width:1.9247762"
   xml:space="preserve"><tspan
     style="stroke-width:1.9247762"
     y="522.54254"
     x="-6.4887671"
     id="tspan2483-7"
     sodipodi:role="line">SALVADOR</tspan></text>







<g
   transform="matrix(0.91244003,0,0,0.91244003,-27.483358,-26.28579)"
   id="g886"><path
     inkscape:connector-curvature="0"
     id="path2-2"
     d="m 413.861,362.798 -57.632,-16.951 h -200.46 l -57.632,16.951 c -20.469,6.02 -34.525,24.806 -34.525,46.142 v 94.641 H 448.386 V 408.94 c 0,-21.336 -14.056,-40.122 -34.525,-46.142 z"
     style="fill:#c9c6ca" /><path
     inkscape:connector-curvature="0"
     id="path4"
     d="m 215.919,437.448 h 80.161 c 50.819,0 94.275,-31.74 111.846,-76.396 l -78.551,-23.103 c -10.235,-3.01 -17.263,-12.403 -17.263,-23.071 V 255.081 H 199.886 v 59.797 c 0,10.668 -7.028,20.061 -17.263,23.071 l -78.551,23.103 c 17.572,44.656 61.028,76.396 111.847,76.396 z"
     style="fill:#b7b2b8" /><path
     inkscape:connector-curvature="0"
     id="path6-0"
     d="M 344.177,269.109 H 167.822 c -26.563,0 -48.097,21.534 -48.097,48.097 0,53.126 43.067,96.193 96.193,96.193 h 80.161 c 53.126,0 96.193,-43.068 96.193,-96.193 0.001,-26.563 -21.532,-48.097 -48.095,-48.097 z"
     style="fill:#9c969e" /><path
     inkscape:connector-curvature="0"
     id="path8"
     d="m 342.043,293.158 c 17.449,0 24.301,22.63 9.782,32.309 l -82.487,54.991 c -8.078,5.385 -18.601,5.385 -26.679,0 l -82.487,-54.991 c -14.518,-9.679 -7.666,-32.309 9.782,-32.309 z"
     style="fill:#867e88" /><path
     inkscape:connector-curvature="0"
     id="path10"
     d="m 180.419,338.964 62.241,41.494 c 8.078,5.385 18.601,5.385 26.68,0 l 62.241,-41.494 v 0 l -2.206,-0.649 c -10.234,-3.01 -17.263,-12.403 -17.263,-23.071 V 263.097 H 199.886 v 52.147 c 0,10.668 -7.028,20.061 -17.263,23.071 z"
     style="fill:#b67f5f" /><path
     inkscape:connector-curvature="0"
     id="path12-7"
     d="m 199.886,297.018 c 16.841,8.996 35.939,14.176 56.113,14.176 20.174,0 39.272,-5.18 56.113,-14.176 V 263.097 H 199.886 Z"
     style="fill:#a06e50" /><path
     inkscape:connector-curvature="0"
     id="path14-8"
     d="M 376.241,153.113 V 128.66 c 0,-62.533 -47.746,-113.879 -108.766,-119.662 -3.773,-0.383 -7.601,-0.58 -11.476,-0.58 -3.875,0 -7.703,0.197 -11.476,0.58 -61.019,5.783 -108.766,57.129 -108.766,119.662 v 24.453 c -9.147,1.857 -16.032,9.941 -16.032,19.636 0,11.068 8.972,20.04 20.04,20.04 h 12.429 c 4.106,53.795 48.958,96.193 103.805,96.193 54.847,0 99.699,-42.398 103.805,-96.193 h 12.429 c 11.068,0 20.04,-8.973 20.04,-20.04 0,-9.695 -6.885,-17.779 -16.032,-19.636 z"
     style="fill:#cd916e" /><path
     inkscape:connector-curvature="0"
     id="path16-1"
     d="M 191.87,184.773 V 77.197 c 0,-21.092 -27.762,-28.855 -38.717,-10.831 -11.038,18.162 -17.396,39.481 -17.396,62.293 v 24.453 c -10.245,2.08 -17.653,11.971 -15.727,23.189 1.669,9.724 10.702,16.487 20.568,16.487 h 11.596 c 4.106,53.795 48.958,96.193 103.805,96.193 6.895,0 13.631,-0.675 20.149,-1.954 -48.011,-9.305 -84.278,-51.523 -84.278,-102.254 z"
     style="fill:#b67f5f" /><path
     inkscape:connector-curvature="0"
     id="path18-0"
     d="m 274.558,208.822 h -37.113 c -12.254,0 -22.548,9.214 -23.901,21.393 l -3.787,34.086 c -1.113,10.014 4.135,19.659 13.147,24.165 l 22.344,11.172 c 6.77,3.385 14.739,3.385 21.51,0 l 22.344,-11.172 c 9.012,-4.506 14.259,-14.152 13.147,-24.165 l -3.787,-34.086 c -1.356,-12.18 -11.651,-21.393 -23.904,-21.393 z"
     style="fill:#dbd9dc" /><path
     inkscape:connector-curvature="0"
     id="path20"
     d="m 253.261,290.954 c -9.012,-5.554 -14.259,-17.442 -13.147,-29.785 l 3.787,-42.013 c 0.334,-3.709 1.223,-7.189 2.543,-10.335 h -9.001 c -12.254,0 -22.548,9.214 -23.901,21.393 l -3.787,34.086 c -1.113,10.014 4.135,19.66 13.147,24.165 l 22.344,11.172 c 6.77,3.385 14.739,3.385 21.51,0 l 0.328,-0.164 z"
     style="fill:#c9c6ca" /><path
     inkscape:connector-curvature="0"
     id="path22"
     d="m 256.002,247.468 c 9.143,0 17.459,-4.231 22.246,-11.318 2.318,-3.433 1.416,-8.095 -2.017,-10.413 -3.433,-2.317 -8.094,-1.416 -10.413,2.017 -1.965,2.908 -5.726,4.715 -9.816,4.715 -4.09,0 -7.853,-1.807 -9.817,-4.715 -2.319,-3.433 -6.981,-4.333 -10.413,-2.017 -3.433,2.319 -4.335,6.981 -2.017,10.413 4.788,7.086 13.105,11.318 22.247,11.318 z" /><path
     inkscape:connector-curvature="0"
     id="path24"
     d="m 199.887,127.226 h 24.048 c 4.142,0 7.5,-3.357 7.5,-7.5 0,-4.143 -3.358,-7.5 -7.5,-7.5 h -24.048 c -4.142,0 -7.5,3.357 -7.5,7.5 0,4.143 3.358,7.5 7.5,7.5 z" /><path
     inkscape:connector-curvature="0"
     id="path26"
     d="m 288.064,127.226 h 24.049 c 4.143,0 7.5,-3.357 7.5,-7.5 0,-4.143 -3.357,-7.5 -7.5,-7.5 h -24.049 c -4.143,0 -7.5,3.357 -7.5,7.5 0,4.143 3.357,7.5 7.5,7.5 z" /><path
     inkscape:connector-curvature="0"
     id="path28"
     d="m 415.977,356.22 -21.414,-6.298 c 3.376,-10.217 5.211,-21.13 5.211,-32.464 0,-30.656 -24.94,-55.597 -55.597,-55.597 h -8.27 c 16.449,-16.902 27.367,-38.776 30.713,-62.489 h 4.473 c 14.617,0 27.155,-10.861 28.543,-24.728 0.777,-7.771 -1.765,-15.531 -6.975,-21.288 -2.522,-2.787 -5.569,-4.993 -8.919,-6.534 v -19.08 C 383.741,57.305 326.437,0 255.999,0 185.562,0 128.257,57.305 128.257,127.742 v 19.416 c -8.629,4.115 -14.927,12.266 -15.888,21.858 -0.778,7.771 1.764,15.53 6.974,21.288 5.213,5.762 12.658,9.066 20.425,9.066 h 5.598 c 2.219,15.929 7.847,31.189 16.598,44.806 4.106,6.389 8.831,12.303 14.077,17.684 h -8.219 c -30.656,0 -55.597,24.94 -55.597,55.597 0,11.334 1.834,22.247 5.211,32.464 l -21.414,6.298 c -23.498,6.911 -39.91,28.845 -39.91,53.338 V 504.5 c 0,4.143 3.358,7.5 7.5,7.5 4.142,0 7.5,-3.357 7.5,-7.5 v -94.942 c 0,-17.885 11.984,-33.9 29.142,-38.947 l 22.952,-6.751 c 12.427,24.728 34.456,43.828 61.165,52.378 V 504.5 c 0,4.143 3.358,7.5 7.5,7.5 4.142,0 7.5,-3.357 7.5,-7.5 v -84.676 c 5.39,0.868 10.916,1.326 16.548,1.326 H 248.5 v 83.35 c 0,4.143 3.358,7.5 7.5,7.5 4.142,0 7.5,-3.357 7.5,-7.5 v -83.35 h 32.581 c 5.632,0 11.159,-0.458 16.55,-1.326 V 504.5 c 0,4.143 3.357,7.5 7.5,7.5 4.143,0 7.5,-3.357 7.5,-7.5 v -88.263 c 26.708,-8.55 48.736,-27.65 61.163,-52.377 l 22.952,6.751 c 17.158,5.047 29.142,21.063 29.142,38.947 V 504.5 c 0,4.143 3.357,7.5 7.5,7.5 4.143,0 7.5,-3.357 7.5,-7.5 V 409.558 C 455.886,385.064 439.475,363.131 415.977,356.22 Z M 143.258,127.742 C 143.258,65.576 193.834,15 256,15 c 62.166,0 112.742,50.576 112.742,112.742 v 16.574 c -0.171,-0.012 -0.342,-0.026 -0.516,-0.026 h -32.581 v -0.516 c 0,-4.143 -3.357,-7.5 -7.5,-7.5 h -56.113 c -4.143,0 -7.5,3.357 -7.5,7.5 v 2.123 c -2.647,-1.034 -5.523,-1.608 -8.532,-1.608 -3.009,0 -5.885,0.574 -8.532,1.608 v -2.123 c 0,-4.143 -3.358,-7.5 -7.5,-7.5 h -56.113 c -4.142,0 -7.5,3.357 -7.5,7.5 v 0.516 h -32.581 c -0.174,0 -0.345,0.014 -0.516,0.026 z m 156.83,39.565 c 4.143,0 7.5,-3.357 7.5,-7.5 v -8.532 h 13.057 v 16.548 c 0,4.705 -3.827,8.532 -8.532,8.532 h -24.049 c -4.705,0 -8.532,-3.827 -8.532,-8.532 v -16.548 h 13.057 v 8.532 c -10e-4,4.142 3.357,7.5 7.499,7.5 z m -88.177,0 c 4.142,0 7.5,-3.357 7.5,-7.5 v -8.532 h 13.057 v 16.548 c 0,4.705 -3.828,8.532 -8.532,8.532 h -24.048 c -4.705,0 -8.532,-3.827 -8.532,-8.532 v -16.548 h 13.056 v 8.532 c -0.001,4.142 3.357,7.5 7.499,7.5 z m -37.328,68.759 c -10.003,-15.563 -15.29,-33.618 -15.29,-52.212 0,-4.143 -3.358,-7.5 -7.5,-7.5 -4.142,0 -7.5,3.357 -7.5,7.5 v 0.517 h -4.524 c -3.537,0 -6.927,-1.506 -9.302,-4.131 -2.407,-2.659 -3.533,-6.115 -3.171,-9.729 0.63,-6.293 6.612,-11.222 13.618,-11.222 0.49,0 35.441,0 35.441,0 v 8.532 c 0,12.976 10.557,23.532 23.532,23.532 h 24.048 c 12.976,0 23.532,-10.557 23.532,-23.532 0,-4.705 3.828,-8.532 8.532,-8.532 4.704,0 8.532,3.827 8.532,8.532 0,12.976 10.557,23.532 23.532,23.532 h 24.049 c 12.976,0 23.532,-10.557 23.532,-23.532 v -8.532 c 0,0 35.895,0 36.591,0 3.537,0 6.928,1.505 9.303,4.13 2.406,2.659 3.533,6.115 3.171,9.729 -0.63,6.293 -6.611,11.222 -13.617,11.222 h -3.384 v -0.439 c 0,-4.141 -3.356,-7.498 -7.497,-7.5 -0.001,0 -0.002,0 -0.003,0 -4.14,0 -7.497,3.354 -7.5,7.494 -0.024,32.451 -16.457,62.51 -42.89,80.273 -0.032,-0.548 -0.057,-1.095 -0.118,-1.645 l -3.787,-34.086 c -1.778,-15.999 -15.258,-28.064 -31.355,-28.064 h -37.112 c -16.098,0 -29.578,12.065 -31.355,28.064 l -3.788,34.086 c -0.062,0.555 -0.087,1.108 -0.119,1.661 -10.979,-7.361 -20.383,-16.917 -27.601,-28.148 z m 145.03,64.842 h 22.431 c 5.546,0 8.647,3.719 9.701,7.198 1.054,3.48 0.535,8.295 -4.079,11.371 l -17.277,11.518 c -6.397,-2.39 -10.775,-8.601 -10.775,-15.501 z m -33.867,-20.068 -22.345,11.171 c -4.636,2.318 -10.167,2.316 -14.801,0 L 226.256,280.84 c -6.173,-3.087 -9.809,-9.77 -9.046,-16.63 l 3.788,-34.086 c 0.933,-8.393 8.003,-14.721 16.447,-14.721 h 37.112 c 8.443,0 15.515,6.329 16.447,14.721 l 3.787,34.087 c 0.764,6.859 -2.872,13.542 -9.045,16.629 z M 248.5,406.15 h -32.581 c -5.654,0 -11.185,-0.538 -16.548,-1.555 v -6.978 c 0,-4.143 -3.358,-7.5 -7.5,-7.5 -4.142,0 -7.5,3.357 -7.5,7.5 v 2.729 c -33.375,-12.745 -57.146,-45.092 -57.146,-82.89 0,-22.385 18.211,-40.597 40.597,-40.597 h 24.564 v 9.048 h -22.432 c -11.331,0 -20.773,7.007 -24.057,17.852 -3.284,10.845 0.687,21.913 10.114,28.198 l 92.487,61.659 V 406.15 Z M 192.386,300.908 v 14.587 c 0,6.9 -4.378,13.111 -10.776,15.501 l -17.278,-11.519 c -4.614,-3.076 -5.132,-7.891 -4.078,-11.371 1.054,-3.479 4.155,-7.198 9.7,-7.198 z m 135.244,99.438 v -2.728 c 0,-4.143 -3.357,-7.5 -7.5,-7.5 -4.143,0 -7.5,3.357 -7.5,7.5 v 6.977 c -5.364,1.017 -10.895,1.555 -16.55,1.555 h -32.581 v -12.534 l 28.725,-19.15 c 3.446,-2.298 4.378,-6.954 2.08,-10.4 -2.297,-3.446 -6.954,-4.378 -10.4,-2.08 l -27.905,18.603 -60.6,-40.4 c 7.37,-5.878 11.988,-14.919 11.988,-24.693 V 284.45 c 0.077,0.037 0.628,0.326 1.126,0.586 2.87,3.812 6.606,7.006 11.037,9.221 l 22.343,11.171 c 4.418,2.209 9.263,3.313 14.11,3.313 4.845,0 9.691,-1.104 14.107,-3.313 l 22.345,-11.171 c 4.468,-2.234 8.233,-5.459 11.112,-9.312 0.35,-0.165 0.699,-0.33 1.046,-0.498 v 31.049 c 0,9.774 4.617,18.815 11.987,24.693 l -4.638,3.092 c -3.446,2.298 -4.378,6.954 -2.08,10.4 1.445,2.168 3.823,3.341 6.247,3.341 1.43,0 2.875,-0.408 4.153,-1.261 l 35.703,-23.803 c 9.428,-6.285 13.398,-17.354 10.115,-28.198 -3.284,-10.845 -12.727,-17.852 -24.058,-17.852 h -22.431 v -9.048 h 24.564 c 22.385,0 40.597,18.212 40.597,40.597 0.002,37.798 -23.768,70.143 -57.142,82.889 z" /></g></g></svg>