<?xml version="1.0" encoding="UTF-8" standalone="no"?>
<!-- Generator: Adobe Illustrator 19.0.0, SVG Export Plug-In . SVG Version: 6.00 Build 0)  -->

<svg
   xmlns:osb="http://www.openswatchbook.org/uri/2009/osb"
   xmlns:dc="http://purl.org/dc/elements/1.1/"
   xmlns:cc="http://creativecommons.org/ns#"
   xmlns:rdf="http://www.w3.org/1999/02/22-rdf-syntax-ns#"
   xmlns:svg="http://www.w3.org/2000/svg"
   xmlns="http://www.w3.org/2000/svg"
   xmlns:xlink="http://www.w3.org/1999/xlink"
   xmlns:sodipodi="http://sodipodi.sourceforge.net/DTD/sodipodi-0.dtd"
   xmlns:inkscape="http://www.inkscape.org/namespaces/inkscape"
   version="1.1"
   id="Capa_1"
   x="0px"
   y="0px"
   viewBox="0 0 511.999 511.999"
   style="enable-background:new 0 0 511.999 511.999;"
   xml:space="preserve"
   sodipodi:docname="41.svg"
   inkscape:version="0.92.4 (5da689c313, 2019-01-14)"><metadata
   id="metadata95"><rdf:RDF><cc:Work
       rdf:about=""><dc:format>image/svg+xml</dc:format><dc:type
         rdf:resource="http://purl.org/dc/dcmitype/StillImage" /><dc:title /></cc:Work></rdf:RDF></metadata><defs
   id="defs93"><linearGradient
     id="linearGradient2457"
     osb:paint="solid"><stop
       style="stop-color:#000000;stop-opacity:1;"
       offset="0"
       id="stop2455" /></linearGradient><linearGradient
     inkscape:collect="always"
     xlink:href="#linearGradient2457"
     id="linearGradient2459-6-2"
     x1="1442.3572"
     y1="-339.5119"
     x2="1514.9286"
     y2="-339.5119"
     gradientUnits="userSpaceOnUse"
     gradientTransform="matrix(6.4669274,0,0,9.6773016,-9356.1743,3517.6929)" /></defs><sodipodi:namedview
   pagecolor="#ffffff"
   bordercolor="#666666"
   borderopacity="1"
   objecttolerance="10"
   gridtolerance="10"
   guidetolerance="10"
   inkscape:pageopacity="0"
   inkscape:pageshadow="2"
   inkscape:window-width="1920"
   inkscape:window-height="986"
   id="namedview91"
   showgrid="false"
   inkscape:zoom="1.3037307"
   inkscape:cx="44.514948"
   inkscape:cy="256.72862"
   inkscape:window-x="-11"
   inkscape:window-y="-11"
   inkscape:window-maximized="1"
   inkscape:current-layer="g1046" />























<g
   id="g60">
</g>
<g
   id="g62">
</g>
<g
   id="g64">
</g>
<g
   id="g66">
</g>
<g
   id="g68">
</g>
<g
   id="g70">
</g>
<g
   id="g72">
</g>
<g
   id="g74">
</g>
<g
   id="g76">
</g>
<g
   id="g78">
</g>
<g
   id="g80">
</g>
<g
   id="g82">
</g>
<g
   id="g84">
</g>
<g
   id="g86">
</g>
<g
   id="g88">
</g>
<g
   id="g1046"
   transform="matrix(0.55886315,0,0,0.55886315,157.54779,132.77619)"><rect
   y="-104.38158"
   x="-28.555799"
   height="673.03345"
   width="469.31418"
   id="rect2447-0-9"
   style="display:inline;fill:none;fill-opacity:1;stroke:url(#linearGradient2459-6-2);stroke-width:25.31489563;stroke-miterlimit:4;stroke-dasharray:none;stroke-opacity:1" /><text
   id="text2485-9"
   y="522.54254"
   x="29.46921"
   style="font-style:normal;font-weight:normal;font-size:76.99105835px;line-height:1.25;font-family:sans-serif;letter-spacing:0px;word-spacing:0px;display:inline;fill:#000000;fill-opacity:1;stroke:none;stroke-width:1.9247762"
   xml:space="preserve"><tspan
     style="stroke-width:1.9247762"
     y="522.54254"
     x="29.46921"
     id="tspan2483-7"
     sodipodi:role="line">CLAUDIA</tspan></text>








<g
   transform="matrix(0.94875803,0,0,0.94875803,-36.780766,-44.937997)"
   id="g910"><path
     inkscape:connector-curvature="0"
     id="path2"
     d="m 410.898,225.37 c 3.716,-13.902 21.457,-26.442 21.457,-41.515 0,-15.072 -17.741,-27.612 -21.457,-41.513 -3.844,-14.382 5.137,-34.09 -2.148,-46.682 C 401.36,82.887 379.733,80.858 369.368,70.492 359.001,60.125 356.972,38.498 344.2,31.107 331.607,23.821 311.898,32.802 297.515,28.957 283.613,25.241 271.073,7.5 256,7.5 c -15.072,0 -27.612,17.741 -41.513,21.457 -14.382,3.844 -34.09,-5.138 -46.682,2.148 -12.773,7.39 -14.802,29.017 -25.168,39.382 -10.367,10.366 -31.994,12.395 -39.385,25.168 -7.286,12.593 1.695,32.301 -2.15,46.684 -3.716,13.902 -21.457,26.442 -21.457,41.515 0,15.072 17.741,27.612 21.457,41.512 3.844,14.382 -5.137,34.091 2.148,46.683 7.39,12.772 29.017,14.802 39.382,25.167 10.367,10.367 12.396,31.995 25.168,39.385 10.76,6.226 26.717,0.575 40.106,1.197 h 96.19 c 13.388,-0.62 29.34,5.03 40.099,-1.195 12.773,-7.39 14.802,-29.016 25.168,-39.382 10.367,-10.367 31.994,-12.396 39.385,-25.169 7.286,-12.591 -1.695,-32.3 2.15,-46.682 z"
     style="fill:#5a4650" /><path
     inkscape:connector-curvature="0"
     id="path4-2"
     d="m 432.355,183.855 c 0,-15.072 -17.741,-27.612 -21.457,-41.513 -3.844,-14.382 5.137,-34.09 -2.148,-46.682 C 401.36,82.887 379.733,80.858 369.368,70.492 359.001,60.125 356.972,38.498 344.2,31.107 331.607,23.821 311.898,32.802 297.515,28.957 283.613,25.241 271.073,7.5 256,7.5 c -15.072,0 -27.612,17.741 -41.513,21.457 -8.89,2.376 -19.811,-0.138 -29.833,-0.692 -0.476,6.384 -0.799,12.81 -0.799,19.316 0,106.894 65.406,188.259 158.367,226.79 18.301,7.585 39.425,16.981 56.509,6.951 4.178,-2.453 7.757,-5.362 10.017,-9.267 7.286,-12.593 -1.695,-32.301 2.15,-46.684 3.716,-13.903 21.457,-26.443 21.457,-41.516 z"
     style="fill:#6e5a64" /><path
     inkscape:connector-curvature="0"
     id="path6"
     d="m 408.281,412.978 -82.792,-29.221 c -12.82,-4.525 -21.393,-16.642 -21.393,-30.237 v -25.375 h -96.194 v 25.375 c 0,13.595 -8.573,25.712 -21.393,30.236 l -82.793,29.221 c -19.229,6.787 -32.089,24.962 -32.089,45.354 V 504.5 h 368.742 v -46.167 c 0.002,-20.392 -12.858,-38.568 -32.088,-45.355 z"
     style="fill:#dbd9dc" /><path
     inkscape:connector-curvature="0"
     id="path8-5"
     d="m 383.528,404.242 -58.039,-20.485 c -3.214,-1.135 -6.161,-2.749 -8.774,-4.741 L 256,407.47 195.284,379.016 c -2.613,1.993 -5.559,3.607 -8.774,4.741 l -58.039,20.484 c 3.949,42.316 28.963,79.937 65.72,100.259 h 123.616 c 36.759,-20.322 61.773,-57.943 65.721,-100.258 z"
     style="fill:#c9c6ca" /><path
     inkscape:connector-curvature="0"
     id="path10-8"
     d="m 304.097,353.52 v -25.375 h -96.194 v 25.375 c 0,13.595 -8.573,25.712 -21.393,30.237 L 256,416.323 325.489,383.757 C 312.67,379.232 304.097,367.115 304.097,353.52 Z"
     style="fill:#b67f5f" /><path
     inkscape:connector-curvature="0"
     id="path12-3"
     d="M 325.489,383.757 256,416.323 186.511,383.757 151.976,395.946 c 1.95,55.839 47.71,100.538 104.024,100.538 56.314,0 102.074,-44.7 104.024,-100.538 z"
     style="fill:#ffe17d" /><path
     inkscape:connector-curvature="0"
     id="path14"
     d="m 256,368.226 c 17.034,0 33.296,-3.712 48.097,-10.257 v -29.824 h -96.194 v 29.824 c 14.801,6.545 31.063,10.257 48.097,10.257 z"
     style="fill:#a06e50" /><path
     inkscape:connector-curvature="0"
     id="path16"
     d="M 372.234,207.903 H 360.21 v -40.081 c 0,-22.136 -46.656,-40.081 -104.21,-40.081 -57.554,0 -104.21,17.945 -104.21,40.081 v 40.081 h -12.024 c -11.068,0 -20.04,8.972 -20.04,20.04 0,11.068 8.972,20.04 20.04,20.04 h 12.429 c 4.106,53.795 48.958,96.194 103.805,96.194 54.847,0 99.699,-42.398 103.805,-96.194 h 12.429 c 11.068,0 20.04,-8.973 20.04,-20.04 0,-11.068 -8.972,-20.04 -20.04,-20.04 z"
     style="fill:#cd916e" /><path
     inkscape:connector-curvature="0"
     id="path18"
     d="m 183.855,239.968 v -21.056 c 0,-7.608 5.312,-14.121 12.758,-15.68 37.184,-7.789 99.468,-27.393 139.548,-67.473 l -10.922,2.168 C 306.821,131.613 282.614,127.743 256,127.743 c -28.027,0 -53.416,4.278 -72.145,11.2 -19.731,7.293 -32.065,17.524 -32.065,28.88 v 40.081 h -12.024 c -11.068,0 -20.04,8.972 -20.04,20.04 0,11.068 8.972,20.04 20.04,20.04 h 12.429 c 4.106,53.795 48.958,96.194 103.805,96.194 5.484,0 10.83,-0.534 16.083,-1.351 -49.946,-7.708 -88.228,-50.755 -88.228,-102.859 z"
     style="fill:#b67f5f" /><path
     inkscape:connector-curvature="0"
     id="path20"
     d="m 143.774,183.855 c 0,0 104.236,-7.817 168.339,-56.113 H 143.774 Z"
     style="fill:#5a4650" /><g
     id="g26"><path
       inkscape:connector-curvature="0"
       id="path22-7"
       d="m 256,95.677 c -57.554,0 -104.21,17.945 -104.21,40.081 v 32.065 c 0,-22.136 46.656,-40.081 104.21,-40.081 57.554,0 104.21,17.945 104.21,40.081 V 135.758 C 360.21,113.622 313.554,95.677 256,95.677 Z"
       style="fill:#ffd164" /><path
       inkscape:connector-curvature="0"
       id="path24-6"
       d="m 356.796,397.044 c 0.289,-0.649 0.469,-1.326 0.706,-1.989 L 325.49,383.757 256,416.323 186.511,383.757 154.499,395.055 c 0.238,0.663 0.417,1.339 0.706,1.989 l 26.414,59.433 c 5.142,11.569 16.65,19.045 29.318,19.045 7.473,0 14.756,-2.64 20.509,-7.432 L 256,447.626 l 24.553,20.461 c 5.752,4.793 13.036,7.434 20.51,7.434 12.668,0 24.176,-7.475 29.318,-19.043 z"
       style="fill:#ffd164" /></g><g
     id="g36"><path
       inkscape:connector-curvature="0"
       id="path28-2"
       d="m 205.555,365.878 50.445,50.445 -39.948,33.29 c -4.087,3.406 -10.296,1.959 -12.457,-2.902 L 177.18,387.278 c -0.808,-1.819 -0.413,-3.947 0.994,-5.354 l 16.044,-16.044 c 3.131,-3.133 8.207,-3.133 11.337,-0.002 z"
       style="fill:#ffe17d" /><path
       inkscape:connector-curvature="0"
       id="path30"
       d="m 317.781,365.878 c -3.13,-3.13 -8.206,-3.13 -11.336,0 L 256,416.323 l 39.948,33.29 c 4.087,3.406 10.296,1.959 12.457,-2.902 l 26.415,-59.433 c 0.808,-1.819 0.413,-3.947 -0.994,-5.354 z"
       style="fill:#ffe17d" /><path
       inkscape:connector-curvature="0"
       id="path32"
       d="m 151.79,272.032 c 0,8.854 -7.178,16.032 -16.032,16.032 -8.854,0 -16.032,-7.178 -16.032,-16.032 0,-16.032 16.032,-24.048 16.032,-24.048 0,0 16.032,8.016 16.032,24.048 z"
       style="fill:#ffe17d" /><path
       inkscape:connector-curvature="0"
       id="path34"
       d="m 392.274,272.032 c 0,8.854 -7.178,16.032 -16.032,16.032 -8.854,0 -16.032,-7.178 -16.032,-16.032 0,-16.032 16.032,-24.048 16.032,-24.048 0,0 16.032,8.016 16.032,24.048 z"
       style="fill:#ffe17d" /></g><path
     inkscape:connector-curvature="0"
     id="path38"
     d="m 410.778,405.94 -67.441,-23.802 c -0.347,-1.176 -0.967,-2.278 -1.873,-3.184 l -18.379,-18.379 c -2.931,-2.932 -6.827,-4.546 -10.972,-4.546 -0.173,0 -0.344,0.02 -0.516,0.025 v -10.557 c 2.003,0.163 4.072,0.385 6.198,0.615 4.351,0.473 8.763,0.952 13.099,0.952 5.952,0 11.759,-0.903 17.058,-3.969 9.296,-5.379 13.836,-15.735 17.841,-24.873 2.739,-6.248 5.325,-12.149 8.874,-15.697 3.549,-3.549 9.45,-6.136 15.698,-8.874 9.139,-4.006 19.496,-8.546 24.875,-17.843 5.299,-9.158 4.14,-19.833 3.018,-30.157 -0.746,-6.865 -1.45,-13.35 -0.114,-18.346 1.247,-4.663 4.992,-9.75 8.958,-15.136 5.978,-8.118 12.754,-17.32 12.754,-28.316 0,-10.996 -6.776,-20.197 -12.754,-28.315 -3.965,-5.385 -7.711,-10.472 -8.958,-15.134 -1.335,-4.996 -0.631,-11.479 0.115,-18.345 1.122,-10.323 2.282,-20.998 -3.017,-30.156 -5.378,-9.296 -15.735,-13.836 -24.873,-17.841 -6.248,-2.739 -12.149,-5.326 -15.698,-8.874 -3.549,-3.549 -6.136,-9.451 -8.874,-15.699 -4.005,-9.138 -8.545,-19.495 -17.842,-24.874 -9.157,-5.299 -19.833,-4.14 -30.157,-3.019 -6.866,0.744 -13.35,1.449 -18.347,0.114 -4.663,-1.247 -9.749,-4.992 -15.134,-8.958 C 276.198,6.776 266.997,0 256,0 c -10.996,0 -20.197,6.776 -28.316,12.754 -5.385,3.966 -10.471,7.711 -15.133,8.957 -4.997,1.335 -11.48,0.63 -18.345,-0.115 -10.324,-1.12 -20.998,-2.282 -30.157,3.018 -9.296,5.379 -13.835,15.735 -17.841,24.873 -2.739,6.248 -5.325,12.149 -8.874,15.697 -3.549,3.549 -9.451,6.136 -15.699,8.875 -9.138,4.005 -19.495,8.544 -24.874,17.841 -5.299,9.158 -4.14,19.834 -3.018,30.157 0.746,6.865 1.45,13.351 0.114,18.347 -1.247,4.662 -4.992,9.749 -8.958,15.135 -5.979,8.119 -12.754,17.32 -12.754,28.316 0,10.996 6.776,20.198 12.754,28.316 3.965,5.385 7.711,10.471 8.957,15.133 1.335,4.996 0.631,11.48 -0.115,18.346 -1.122,10.323 -2.282,20.998 3.017,30.156 5.378,9.296 15.735,13.836 24.873,17.841 6.248,2.739 12.149,5.326 15.698,8.875 3.548,3.548 6.135,9.45 8.874,15.698 4.005,9.138 8.545,19.495 17.842,24.875 9.158,5.298 19.834,4.14 30.158,3.018 2.127,-0.231 4.196,-0.452 6.201,-0.615 v 10.557 c -0.173,-0.006 -0.343,-0.025 -0.516,-0.025 -4.145,0 -8.042,1.614 -10.972,4.545 l -18.38,18.38 c -0.906,0.906 -1.526,2.008 -1.873,3.184 l -67.441,23.802 C 79.035,413.772 64.129,434.84 64.129,458.369 V 504.5 c 0,4.143 3.358,7.5 7.5,7.5 4.142,0 7.5,-3.357 7.5,-7.5 v -46.132 c 0,-4.992 0.925,-9.831 2.626,-14.327 l 37.925,32.508 c 5.451,4.672 8.578,11.47 8.578,18.65 v 9.301 c 0,4.143 3.358,7.5 7.5,7.5 4.142,0 7.5,-3.357 7.5,-7.5 v -9.301 c 0,-11.565 -5.036,-22.515 -13.816,-30.039 L 89.687,431.084 c 4.423,-4.876 10.048,-8.712 16.528,-10.999 l 38.953,-13.748 c 6.934,55.377 54.127,97.646 110.833,97.646 56.679,0 103.895,-42.28 110.831,-97.647 l 38.954,13.748 c 6.479,2.287 12.105,6.123 16.528,10.999 l -39.755,34.076 c -8.781,7.524 -13.817,18.474 -13.817,30.039 v 9.301 c 0,4.143 3.358,7.5 7.5,7.5 4.142,0 7.5,-3.357 7.5,-7.5 v -9.301 c 0,-7.181 3.126,-13.979 8.578,-18.65 l 37.925,-32.508 c 1.702,4.496 2.626,9.334 2.626,14.327 V 504.5 c 0,4.143 3.358,7.5 7.5,7.5 4.142,0 7.5,-3.357 7.5,-7.5 v -46.132 c 0,-23.528 -14.907,-44.597 -37.093,-52.428 z M 256,405.715 215.403,365.119 V 344.04 c 12.589,4.928 26.282,7.638 40.597,7.638 14.315,0 28.007,-2.71 40.597,-7.638 v 21.079 z M 135.762,256.921 c 3.515,2.723 8.528,7.875 8.528,15.111 0,4.705 -3.828,8.532 -8.532,8.532 -4.705,0 -8.533,-3.827 -8.533,-8.532 0.001,-7.228 5.022,-12.386 8.537,-15.111 z m 23.529,-16.953 c 0,-4.143 -3.358,-7.5 -7.5,-7.5 -4.142,0 -7.5,3.357 -7.5,7.5 0,0.172 0.006,0.344 0.007,0.516 h -4.531 c -6.915,0 -12.541,-5.625 -12.541,-12.54 0,-6.915 5.625,-12.54 12.541,-12.54 h 28.573 v 8.532 c 0,21.815 17.749,39.564 39.564,39.564 21.815,0 39.564,-17.749 39.564,-39.564 v -0.517 h 17.064 v 0.517 c 0,21.815 17.749,39.564 39.564,39.564 21.815,0 39.564,-17.749 39.564,-39.564 v -8.532 h 28.573 c 6.915,0 12.541,5.625 12.541,12.54 0,6.915 -5.625,12.54 -12.541,12.54 h -4.531 c 10e-4,-0.172 0.007,-0.343 0.007,-0.516 0,-4.143 -3.358,-7.5 -7.5,-7.5 -4.142,0 -7.5,3.357 -7.5,7.5 0,53.326 -43.384,96.71 -96.709,96.71 -53.325,0 -96.709,-43.384 -96.709,-96.71 z m 0,-72.146 c 0,-13.604 36.792,-32.58 96.709,-32.58 9.892,0 19.529,0.535 28.724,1.576 -44.824,26.98 -104.114,36.169 -125.433,38.716 z m 0,22.844 c 22.959,-2.525 96.913,-13.252 147.083,-50.263 4.016,0.895 7.902,1.896 11.619,3.014 3.962,1.193 8.149,-1.054 9.343,-5.021 1.194,-3.967 -1.055,-8.149 -5.021,-9.343 -19.159,-5.765 -42.09,-8.812 -66.314,-8.812 -37.231,0 -76.071,7.883 -96.709,22.852 v -7.336 c 0,-13.604 36.792,-32.58 96.709,-32.58 59.917,0 96.709,18.976 96.709,32.58 v 7.373 c -0.002,-0.001 -0.005,-0.004 -0.008,-0.006 -3.343,-2.44 -8.037,-1.713 -10.48,1.63 -2.444,3.345 -1.714,8.037 1.63,10.481 4.041,2.953 8.858,7.534 8.858,12.586 v 32.581 h -80.677 c -4.142,0 -7.5,3.357 -7.5,7.5 v 0.516 h -17.064 v -0.516 c 0,-4.143 -3.358,-7.5 -7.5,-7.5 h -80.677 z m 120.241,24.737 h 17.063 v 9.228 c 0,4.143 3.358,7.5 7.5,7.5 4.142,0 7.5,-3.357 7.5,-7.5 v -9.228 h 17.066 v 8.532 c 0,13.545 -11.02,24.564 -24.564,24.564 -13.544,0 -24.564,-11.02 -24.564,-24.564 v -8.532 z m -96.193,0 h 17.063 v 9.228 c 0,4.143 3.358,7.5 7.5,7.5 4.142,0 7.5,-3.357 7.5,-7.5 v -9.228 h 17.066 v 8.532 c 0,13.545 -11.02,24.564 -24.564,24.564 -13.544,0 -24.564,-11.02 -24.564,-24.564 v -8.532 z m 192.903,65.161 c -4.705,0 -8.532,-3.827 -8.532,-8.532 0,-7.225 5.015,-12.38 8.53,-15.106 3.526,2.733 8.535,7.887 8.535,15.106 -10e-4,4.705 -3.828,8.532 -8.533,8.532 z m -24.188,31.638 c -3.379,7.71 -6.572,14.993 -11.615,17.91 -4.74,2.745 -12.207,2.043 -20.179,1.18 16.089,-11.355 29.057,-26.848 37.343,-44.919 1.742,2.259 3.882,4.194 6.317,5.697 -5.458,5.532 -8.718,12.951 -11.866,20.132 z M 109.742,268.294 c -2.839,-4.907 -1.989,-12.736 -1.088,-21.024 0.862,-7.933 1.753,-16.136 -0.306,-23.839 -1.979,-7.4 -6.752,-13.885 -11.37,-20.154 -5.057,-6.867 -9.833,-13.353 -9.833,-19.422 0,-6.069 4.776,-12.556 9.833,-19.422 4.617,-6.271 9.392,-12.755 11.37,-20.156 2.059,-7.703 1.168,-15.906 0.307,-23.839 -0.9,-8.289 -1.75,-16.118 1.089,-21.026 2.918,-5.043 10.201,-8.235 17.913,-11.614 7.245,-3.176 14.737,-6.46 20.284,-12.006 5.547,-5.546 8.83,-13.038 12.006,-20.283 3.38,-7.711 6.572,-14.994 11.615,-17.911 4.908,-2.84 12.737,-1.988 21.024,-1.089 7.932,0.862 16.135,1.755 23.839,-0.306 7.4,-1.978 13.884,-6.752 20.154,-11.369 C 243.445,19.776 249.931,15 256,15 c 6.069,0 12.556,4.776 19.423,9.833 6.271,4.617 12.754,9.392 20.155,11.369 7.704,2.059 15.906,1.168 23.84,0.308 8.287,-0.9 16.116,-1.752 21.026,1.09 5.043,2.918 8.236,10.201 11.616,17.912 3.175,7.245 6.459,14.737 12.005,20.283 5.546,5.547 13.038,8.831 20.283,12.006 7.71,3.38 14.994,6.572 17.911,11.615 2.839,4.908 1.989,12.736 1.088,21.024 -0.862,7.933 -1.753,16.135 0.306,23.838 1.979,7.401 6.753,13.885 11.37,20.155 5.057,6.866 9.833,13.353 9.833,19.421 0,6.069 -4.776,12.556 -9.833,19.423 -4.618,6.271 -9.393,12.755 -11.371,20.156 -2.059,7.703 -1.168,15.906 -0.307,23.839 0.9,8.288 1.75,16.117 -1.089,21.025 -0.636,1.1 -1.491,2.108 -2.502,3.053 -0.213,-9.934 -4.993,-17.33 -9.856,-22.299 6.032,-5.056 9.876,-12.64 9.876,-21.108 0,-15.186 -12.354,-27.54 -27.541,-27.54 h -4.524 v -64.646 c 0,-30.904 -57.556,-47.58 -111.709,-47.58 -54.153,0 -111.709,16.676 -111.709,47.58 v 64.646 h -4.524 c -15.186,0 -27.541,12.354 -27.541,27.54 0,8.468 3.844,16.052 9.876,21.108 -4.863,4.969 -9.642,12.365 -9.856,22.298 -1.012,-0.946 -1.867,-1.954 -2.504,-3.055 z m 61.815,61.817 c -5.043,-2.919 -8.235,-10.202 -11.615,-17.913 -3.147,-7.181 -6.407,-14.596 -11.863,-20.127 2.436,-1.503 4.576,-3.439 6.318,-5.698 8.286,18.07 21.253,33.563 37.342,44.918 -7.974,0.863 -15.442,1.561 -20.182,-1.18 z m 27.965,41.07 c 0.038,-0.037 0.151,-0.151 0.365,-0.151 0.213,0 0.327,0.114 0.364,0.151 0,0 0,0 0,0.001 l 44.638,44.637 -33.639,28.032 c -0.059,0.05 -0.193,0.167 -0.447,0.106 -0.25,-0.059 -0.323,-0.223 -0.354,-0.293 l -25.664,-57.745 z m -39.818,30.026 13.365,-4.717 23.674,53.266 c 1.994,4.485 5.878,7.696 10.659,8.811 1.188,0.276 2.383,0.412 3.568,0.412 3.579,0 7.053,-1.244 9.885,-3.604 l 27.646,-23.039 v 56.358 c -46.784,-3.588 -84.504,-40.456 -88.797,-87.487 z M 263.5,488.693 v -56.358 l 27.646,23.039 c 2.833,2.361 6.306,3.604 9.886,3.604 1.184,0 2.379,-0.136 3.567,-0.412 4.78,-1.114 8.665,-4.325 10.659,-8.811 l 11.366,-25.573 c 1.682,-3.785 -0.022,-8.217 -3.808,-9.899 -3.782,-1.683 -8.217,0.022 -9.899,3.808 l -11.366,25.573 c -0.031,0.07 -0.104,0.234 -0.354,0.293 -0.254,0.061 -0.389,-0.057 -0.448,-0.106 l -33.639,-28.032 44.638,-44.638 c 0.038,-0.037 0.151,-0.151 0.364,-0.151 0.214,0 0.327,0.114 0.365,0.152 l 14.738,14.737 -1.473,3.313 c -1.682,3.785 0.022,8.218 3.808,9.899 3.385,1.507 7.28,0.296 9.27,-2.681 l 13.475,4.756 c -4.293,47.023 -42.032,83.897 -88.795,87.487 z" /><path
     inkscape:connector-curvature="0"
     id="path40"
     d="m 256,303.581 c 11.897,0 22.856,-3.805 29.316,-10.178 2.948,-2.909 2.98,-7.657 0.071,-10.606 -2.909,-2.949 -7.658,-2.98 -10.606,-0.071 -2.738,2.701 -9.299,5.855 -18.781,5.855 -9.482,0 -16.043,-3.154 -18.781,-5.855 -2.95,-2.911 -7.698,-2.878 -10.606,0.071 -2.909,2.949 -2.877,7.697 0.071,10.606 6.46,6.373 17.419,10.178 29.316,10.178 z" /><path
     inkscape:connector-curvature="0"
     id="path42"
     d="m 296.081,191.354 h 16.032 c 4.142,0 7.5,-3.357 7.5,-7.5 0,-4.143 -3.358,-7.5 -7.5,-7.5 h -16.032 c -4.142,0 -7.5,3.357 -7.5,7.5 0,4.143 3.357,7.5 7.5,7.5 z" /></g></g></svg>