<?xml version="1.0" encoding="UTF-8" standalone="no"?>
<!-- Generator: Adobe Illustrator 19.0.0, SVG Export Plug-In . SVG Version: 6.00 Build 0)  -->

<svg
   xmlns:osb="http://www.openswatchbook.org/uri/2009/osb"
   xmlns:dc="http://purl.org/dc/elements/1.1/"
   xmlns:cc="http://creativecommons.org/ns#"
   xmlns:rdf="http://www.w3.org/1999/02/22-rdf-syntax-ns#"
   xmlns:svg="http://www.w3.org/2000/svg"
   xmlns="http://www.w3.org/2000/svg"
   xmlns:xlink="http://www.w3.org/1999/xlink"
   xmlns:sodipodi="http://sodipodi.sourceforge.net/DTD/sodipodi-0.dtd"
   xmlns:inkscape="http://www.inkscape.org/namespaces/inkscape"
   version="1.1"
   id="Capa_1"
   x="0px"
   y="0px"
   viewBox="0 0 511.999 511.999"
   style="enable-background:new 0 0 511.999 511.999;"
   xml:space="preserve"
   sodipodi:docname="46.svg"
   inkscape:version="0.92.4 (5da689c313, 2019-01-14)"><metadata
   id="metadata95"><rdf:RDF><cc:Work
       rdf:about=""><dc:format>image/svg+xml</dc:format><dc:type
         rdf:resource="http://purl.org/dc/dcmitype/StillImage" /><dc:title /></cc:Work></rdf:RDF></metadata><defs
   id="defs93"><linearGradient
     id="linearGradient2457"
     osb:paint="solid"><stop
       style="stop-color:#000000;stop-opacity:1;"
       offset="0"
       id="stop2455" /></linearGradient><linearGradient
     inkscape:collect="always"
     xlink:href="#linearGradient2457"
     id="linearGradient2459-6-2"
     x1="1442.3572"
     y1="-339.5119"
     x2="1514.9286"
     y2="-339.5119"
     gradientUnits="userSpaceOnUse"
     gradientTransform="matrix(6.4669274,0,0,9.6773016,-9356.1743,3517.6929)" /></defs><sodipodi:namedview
   pagecolor="#ffffff"
   bordercolor="#666666"
   borderopacity="1"
   objecttolerance="10"
   gridtolerance="10"
   guidetolerance="10"
   inkscape:pageopacity="0"
   inkscape:pageshadow="2"
   inkscape:window-width="1920"
   inkscape:window-height="986"
   id="namedview91"
   showgrid="false"
   inkscape:zoom="1.3037307"
   inkscape:cx="55.636868"
   inkscape:cy="256.72862"
   inkscape:window-x="-11"
   inkscape:window-y="-11"
   inkscape:window-maximized="1"
   inkscape:current-layer="g1046" />























<g
   id="g60">
</g>
<g
   id="g62">
</g>
<g
   id="g64">
</g>
<g
   id="g66">
</g>
<g
   id="g68">
</g>
<g
   id="g70">
</g>
<g
   id="g72">
</g>
<g
   id="g74">
</g>
<g
   id="g76">
</g>
<g
   id="g78">
</g>
<g
   id="g80">
</g>
<g
   id="g82">
</g>
<g
   id="g84">
</g>
<g
   id="g86">
</g>
<g
   id="g88">
</g>
<g
   id="g1046"
   transform="matrix(0.55886315,0,0,0.55886315,157.54779,132.77619)"><rect
   y="-104.38158"
   x="-28.555799"
   height="673.03345"
   width="469.31418"
   id="rect2447-0-9"
   style="display:inline;fill:none;fill-opacity:1;stroke:url(#linearGradient2459-6-2);stroke-width:25.31489563;stroke-miterlimit:4;stroke-dasharray:none;stroke-opacity:1" /><text
   id="text2485-9"
   y="522.54254"
   x="80.690079"
   style="font-style:normal;font-weight:normal;font-size:76.99105835px;line-height:1.25;font-family:sans-serif;letter-spacing:0px;word-spacing:0px;display:inline;fill:#000000;fill-opacity:1;stroke:none;stroke-width:1.9247762"
   xml:space="preserve"><tspan
     style="stroke-width:1.9247762"
     y="522.54254"
     x="80.690079"
     id="tspan2483-7"
     sodipodi:role="line">BELÉN</tspan></text>








<g
   transform="matrix(0.95327867,0,0,0.95327867,-37.937573,-49.836581)"
   id="g910"><path
     inkscape:connector-curvature="0"
     id="path2"
     d="M 360.21,239.967 H 151.791 c 0,61.724 -32.065,96.995 -16.032,176.355 H 376.243 C 392.274,336.963 360.21,301.692 360.21,239.967 Z"
     style="fill:#b67f5f" /><path
     inkscape:connector-curvature="0"
     id="path4"
     d="M 256,239.967 H 151.79 c 0,61.724 -32.065,96.995 -16.032,176.355 H 256 Z"
     style="fill:#a06e50" /><path
     inkscape:connector-curvature="0"
     id="path6"
     d="m 408.283,421.029 -82.792,-29.221 c -12.82,-4.525 -21.393,-16.642 -21.393,-30.237 v -49.459 h -96.194 v 49.459 c 0,13.595 -8.573,25.712 -21.393,30.236 l -82.793,29.221 C 84.489,427.815 71.629,445.99 71.629,466.382 V 504.5 H 440.37 v -38.116 c 10e-4,-20.392 -12.858,-38.568 -32.087,-45.355 z"
     style="fill:#f7d291" /><path
     inkscape:connector-curvature="0"
     id="path8"
     d="m 408.283,421.029 -80.651,-28.466 c -4.125,35.926 -34.6,63.839 -71.631,63.839 -37.031,0 -67.506,-27.913 -71.631,-63.839 l -80.651,28.465 C 84.489,427.815 71.63,445.99 71.63,466.382 V 504.5 h 368.742 v -38.116 c -0.001,-20.392 -12.86,-38.568 -32.089,-45.355 z"
     style="fill:#edebed" /><path
     inkscape:connector-curvature="0"
     id="path10"
     d="m 207.904,358.306 c 14.753,6.391 31.02,9.92 48.097,9.92 17.077,0 33.344,-3.529 48.097,-9.92 v -38.177 h -96.194 z"
     style="fill:#f0c382" /><path
     inkscape:connector-curvature="0"
     id="path12"
     d="m 256,344.177 v 0 c -57.554,0 -104.21,-46.656 -104.21,-104.21 V 127.742 h 208.42 v 112.226 c 0,57.553 -46.657,104.209 -104.21,104.209 z"
     style="fill:#ffe1a0" /><path
     inkscape:connector-curvature="0"
     id="path14"
     d="m 151.79,127.742 v 112.226 c 0,57.553 46.656,104.21 104.21,104.21 5.466,0 10.793,-0.547 16.032,-1.359 -49.921,-7.729 -88.177,-50.764 -88.177,-102.851 v -27.417 c 0,-2.464 0.284,-4.874 0.824,-7.196 1.93,-8.296 9.742,-13.344 18.198,-14.377 1.136,-0.139 2.277,-0.364 3.414,-0.68 22.334,-6.169 41.764,-13.026 58.172,-20.51 1.057,12.306 11.382,21.966 23.962,21.966 1.174,0 29.058,-0.102 58.54,-9.01 5.184,-1.567 9.378,-4.775 12.353,-8.83 l 0.892,-1.983 v -44.188 z"
     style="fill:#f7d291" /><g
     id="g20"><polygon
       id="polygon16"
       points="304.097,359.952 304.089,360.21 304.097,360.212 "
       style="fill:#ffd164" /><polygon
       id="polygon18"
       points="207.911,360.21 207.904,359.952 207.904,360.212 "
       style="fill:#ffd164" /></g><path
     inkscape:connector-curvature="0"
     id="path22"
     d="m 250.189,39.702 c -64.674,3.045 -114.43,58.756 -114.43,123.501 v 36.684 h 16.032 v -7.279 c 0,-7.292 4.883,-13.669 11.941,-15.498 31.404,-8.138 81.984,-23.036 112.7,-41.325 5.308,-3.161 11.992,0.744 11.992,6.922 v 16.63 c 0,4.634 3.875,8.32 8.498,8.006 9.59,-0.652 26.079,-2.482 43.081,-7.619 9.257,-2.797 20.208,8.099 20.208,19.673 v 20.49 h 16.032 V 159.806 C 376.242,91.471 319.238,36.45 250.189,39.702 Z"
     style="fill:#a06e50" /><path
     inkscape:connector-curvature="0"
     id="path24"
     d="m 250.189,39.702 c -17.903,0.843 -34.592,5.837 -49.469,13.826 2.794,23.881 13.031,63.005 47.961,95.95 10.149,-4.29 19.651,-8.87 27.752,-13.694 5.308,-3.161 11.992,0.745 11.992,6.923 v 16.63 c 0,4.633 3.875,8.32 8.498,8.006 9.59,-0.652 26.079,-2.482 43.081,-7.619 9.257,-2.797 20.208,8.099 20.208,19.673 v 20.49 h 16.032 V 159.806 C 376.242,91.471 319.238,36.45 250.189,39.702 Z"
     style="fill:#b67f5f" /><g
     id="g30"><path
       inkscape:connector-curvature="0"
       id="path26"
       d="m 127.743,247.984 h 24.048 v -64.129 h -24.048 c -8.854,0 -16.032,7.178 -16.032,16.032 v 32.065 c 0,8.854 7.178,16.032 16.032,16.032 z"
       style="fill:#6e5a64" /><path
       inkscape:connector-curvature="0"
       id="path28"
       d="M 384.258,247.984 H 360.21 v -64.129 h 24.048 c 8.854,0 16.032,7.178 16.032,16.032 v 32.065 c 0,8.854 -7.178,16.032 -16.032,16.032 z"
       style="fill:#6e5a64" /></g><path
     inkscape:connector-curvature="0"
     id="path32"
     d="m 161.312,400.702 c 7.815,45.275 47.181,79.749 94.689,79.749 47.509,0 86.874,-34.474 94.689,-79.75 l -23.058,-8.138 c -4.125,35.926 -34.599,63.839 -71.63,63.839 -37.031,0 -67.506,-27.913 -71.63,-63.839 z"
     style="fill:#dbd9dc" /><path
     inkscape:connector-curvature="0"
     id="path34"
     d="m 275.141,274.71 c -2.738,2.7 -9.3,5.854 -18.782,5.854 -9.482,0 -16.043,-3.153 -18.78,-5.854 -2.946,-2.907 -7.695,-2.879 -10.606,0.071 -2.909,2.948 -2.877,7.697 0.071,10.606 6.458,6.372 17.418,10.177 29.315,10.177 11.897,0 22.856,-3.805 29.315,-10.177 2.949,-2.908 2.981,-7.657 0.072,-10.605 -2.907,-2.951 -7.657,-2.981 -10.605,-0.072 z" /><path
     inkscape:connector-curvature="0"
     id="path36"
     d="m 208.262,216.316 c -4.143,0 -7.5,3.357 -7.5,7.5 v 8.017 c 0,4.143 3.357,7.5 7.5,7.5 4.143,0 7.5,-3.357 7.5,-7.5 v -8.017 c 0,-4.142 -3.357,-7.5 -7.5,-7.5 z" /><path
     inkscape:connector-curvature="0"
     id="path38"
     d="m 304.455,216.316 c -4.143,0 -7.5,3.357 -7.5,7.5 v 8.017 c 0,4.143 3.357,7.5 7.5,7.5 4.143,0 7.5,-3.357 7.5,-7.5 v -8.017 c 0,-4.142 -3.357,-7.5 -7.5,-7.5 z" /><path
     inkscape:connector-curvature="0"
     id="path40-2"
     d="m 216.279,192.269 h -16.032 c -4.143,0 -7.5,3.357 -7.5,7.5 0,4.143 3.357,7.5 7.5,7.5 h 16.032 c 4.143,0 7.5,-3.357 7.5,-7.5 0,-4.143 -3.357,-7.5 -7.5,-7.5 z" /><path
     inkscape:connector-curvature="0"
     id="path42"
     d="M 312.472,192.269 H 296.44 c -4.143,0 -7.5,3.357 -7.5,7.5 0,4.143 3.357,7.5 7.5,7.5 h 16.032 c 4.143,0 7.5,-3.357 7.5,-7.5 0,-4.143 -3.357,-7.5 -7.5,-7.5 z" /><path
     inkscape:connector-curvature="0"
     id="path44-7"
     d="m 410.779,413.957 -26.133,-9.223 c 8.367,-42.541 0.509,-71.46 -7.11,-99.455 -4.445,-16.331 -8.669,-31.868 -9.622,-49.795 h 16.345 c 12.976,0 23.532,-10.557 23.532,-23.532 V 151.79 C 407.79,68.093 339.697,0 256,0 172.303,0 104.21,68.093 104.21,151.79 V 256 c 0,17.396 14.152,31.549 31.548,31.549 h 3.338 c -1.416,5.907 -3.008,11.765 -4.631,17.729 -7.619,27.995 -15.478,56.915 -7.11,99.455 l -26.133,9.223 c -22.187,7.83 -37.093,28.899 -37.093,52.427 V 504.5 c 0,4.143 3.357,7.5 7.5,7.5 4.143,0 7.5,-3.357 7.5,-7.5 v -38.116 c 0,-7.302 1.972,-14.276 5.477,-20.325 l 35.432,30.371 c 5.451,4.673 8.578,11.471 8.578,18.65 v 9.301 c 0,4.143 3.357,7.5 7.5,7.5 4.143,0 7.5,-3.357 7.5,-7.5 v -9.301 c 0,-11.564 -5.036,-22.514 -13.816,-30.039 L 94.385,434.684 c 3.486,-2.792 7.462,-5.041 11.829,-6.583 l 72.278,-25.51 c 8.362,35.468 40.34,61.311 77.508,61.311 12.693,0 25.323,-3.062 36.526,-8.854 3.68,-1.902 5.12,-6.427 3.218,-10.106 -1.903,-3.68 -6.432,-5.12 -10.106,-3.218 -9.213,4.763 -19.185,7.178 -29.638,7.178 -30.793,0 -57.192,-21.848 -63.302,-51.547 13.726,-6.47 22.705,-20.383 22.705,-35.784 V 343.75 c 11.233,4.552 23.215,7.218 35.564,7.799 1.824,0.086 3.643,0.129 5.455,0.129 13.957,0 27.516,-2.543 40.174,-7.426 v 17.319 c 0,15.405 8.984,29.323 22.718,35.79 -1.895,9.171 -5.8,17.899 -11.414,25.444 -2.473,3.323 -1.782,8.021 1.541,10.494 1.345,1 2.914,1.482 4.471,1.482 2.29,0 4.551,-1.045 6.023,-3.023 6.468,-8.693 11.094,-18.664 13.579,-29.166 l 72.271,25.507 c 4.522,1.596 8.629,3.947 12.202,6.878 l -35.071,30.061 c -8.78,7.525 -13.816,18.475 -13.816,30.039 v 9.301 c 0,4.143 3.357,7.5 7.5,7.5 4.143,0 7.5,-3.357 7.5,-7.5 v -9.301 c 0,-7.18 3.127,-13.978 8.578,-18.65 l 34.951,-29.959 c 3.357,5.953 5.241,12.776 5.241,19.913 V 504.5 c 0,4.143 3.357,7.5 7.5,7.5 4.143,0 7.5,-3.357 7.5,-7.5 v -38.116 c 10e-4,-23.528 -14.905,-44.597 -37.091,-52.427 z M 392.79,231.951 c 0,4.705 -3.827,8.532 -8.532,8.532 h -16.196 c 10e-4,-0.172 0.006,-0.343 0.006,-0.516 v -48.613 h 16.189 c 4.705,0 8.532,3.827 8.532,8.532 z M 119.211,151.79 C 119.211,76.363 180.574,15 256,15 c 75.426,0 136.79,61.363 136.79,136.79 v 26.172 c -2.647,-1.034 -5.523,-1.608 -8.532,-1.608 h -0.516 V 159.806 C 383.742,89.368 326.437,32.064 256,32.064 c -70.437,0 -127.742,57.305 -127.742,127.743 v 16.548 h -0.516 c -3.009,0 -5.885,0.574 -8.532,1.608 V 151.79 Z m 0,48.097 c 0,-4.705 3.827,-8.532 8.532,-8.532 h 16.548 v 49.129 h -16.548 c -4.705,0 -8.532,-3.827 -8.532,-8.532 -0.001,0 -0.001,-32.065 0,-32.065 z m 16.547,72.662 c -9.125,0 -16.548,-7.424 -16.548,-16.549 v -2.124 c 2.647,1.034 5.523,1.608 8.532,1.608 h 16.345 c -0.314,5.911 -0.99,11.56 -1.907,17.065 z m 64.646,89.023 c 0,10.396 -6.586,19.704 -16.389,23.164 l -42.357,14.949 c -7.022,-37.885 -0.066,-63.474 7.281,-90.468 1.925,-7.073 3.873,-14.239 5.554,-21.669 h 1.656 c 4.891,10.159 11.273,19.636 19.037,28.11 7.509,8.196 16.003,15.112 25.218,20.624 z m 51.27,-25.005 c -24.929,-1.175 -48.165,-12.198 -65.427,-31.04 -5.073,-5.538 -9.454,-11.576 -13.134,-17.979 h 26.46 c 4.107,0 7.688,-3.165 7.811,-7.27 0.127,-4.247 -3.278,-7.73 -7.497,-7.73 h -33.824 c -4.197,-11.248 -6.414,-23.252 -6.414,-35.525 v -52.616 c 3.177,-0.649 6.349,-1.311 9.502,-2 4.006,-0.876 6.806,-4.752 6.042,-8.78 -0.791,-4.168 -4.854,-6.829 -8.976,-5.933 -7.595,1.666 -15.285,3.213 -22.958,4.629 v -11.275 c 0,-62.212 49.872,-113.623 112.083,-113.98 62.467,-0.359 113.401,50.355 113.401,112.74 v 16.548 h -0.674 v -0.748 c 0,-7.61 -3.419,-14.924 -9.534,-19.454 -6.012,-4.453 -13.555,-5.768 -20.702,-3.608 -16.558,5.005 -32.79,6.74 -41.909,7.342 v -32.045 c 0,-2.336 -0.974,-4.618 -2.805,-6.071 -2.871,-2.277 -6.813,-2.145 -9.497,0.091 -16.838,14.031 -46.483,27.181 -85.732,38.026 -3.992,1.104 -6.334,5.234 -5.231,9.228 1.104,3.992 5.23,6.332 9.228,5.231 33.723,-9.319 60.219,-20.071 79.038,-32.055 v 25.412 c 0,4.143 3.357,7.5 7.5,7.5 1.073,0 26.594,-0.095 53.749,-8.301 2.563,-0.776 5.278,-0.299 7.443,1.309 0.015,0.011 0.03,0.023 0.045,0.034 1.981,1.492 3.049,3.907 3.049,6.387 v 73.35 c 0,0.1 0.004,0.197 0.004,0.297 -1.975,23.513 -12.309,45.167 -29.611,61.672 -19.31,18.422 -44.669,27.874 -71.43,26.614 z m 118.668,63.119 -42.357,-14.949 c -9.803,-3.46 -16.389,-12.769 -16.389,-23.164 v -24.447 c 7.82,-4.469 15.158,-9.924 21.861,-16.319 10.175,-9.707 18.259,-20.96 24.051,-33.25 1.68,7.427 3.628,14.591 5.552,21.662 7.348,26.993 14.305,52.582 7.282,90.467 z" /></g></g></svg>