<?xml version="1.0" encoding="UTF-8" standalone="no"?>
<!-- Generator: Adobe Illustrator 19.0.0, SVG Export Plug-In . SVG Version: 6.00 Build 0)  -->

<svg
   xmlns:osb="http://www.openswatchbook.org/uri/2009/osb"
   xmlns:dc="http://purl.org/dc/elements/1.1/"
   xmlns:cc="http://creativecommons.org/ns#"
   xmlns:rdf="http://www.w3.org/1999/02/22-rdf-syntax-ns#"
   xmlns:svg="http://www.w3.org/2000/svg"
   xmlns="http://www.w3.org/2000/svg"
   xmlns:xlink="http://www.w3.org/1999/xlink"
   xmlns:sodipodi="http://sodipodi.sourceforge.net/DTD/sodipodi-0.dtd"
   xmlns:inkscape="http://www.inkscape.org/namespaces/inkscape"
   version="1.1"
   id="Capa_1"
   x="0px"
   y="0px"
   viewBox="0 0 511.999 511.999"
   style="enable-background:new 0 0 511.999 511.999;"
   xml:space="preserve"
   sodipodi:docname="5.svg"
   inkscape:version="0.92.4 (5da689c313, 2019-01-14)"><metadata
   id="metadata95"><rdf:RDF><cc:Work
       rdf:about=""><dc:format>image/svg+xml</dc:format><dc:type
         rdf:resource="http://purl.org/dc/dcmitype/StillImage" /><dc:title /></cc:Work></rdf:RDF></metadata><defs
   id="defs93"><linearGradient
     id="linearGradient2457"
     osb:paint="solid"><stop
       style="stop-color:#000000;stop-opacity:1;"
       offset="0"
       id="stop2455" /></linearGradient><linearGradient
     inkscape:collect="always"
     xlink:href="#linearGradient2457"
     id="linearGradient2459-6-2"
     x1="1442.3572"
     y1="-339.5119"
     x2="1514.9286"
     y2="-339.5119"
     gradientUnits="userSpaceOnUse"
     gradientTransform="matrix(6.4669274,0,0,9.6773016,-9356.1743,3517.6929)" /></defs><sodipodi:namedview
   pagecolor="#ffffff"
   bordercolor="#666666"
   borderopacity="1"
   objecttolerance="10"
   gridtolerance="10"
   guidetolerance="10"
   inkscape:pageopacity="0"
   inkscape:pageshadow="2"
   inkscape:window-width="1920"
   inkscape:window-height="986"
   id="namedview91"
   showgrid="false"
   inkscape:zoom="1.3037307"
   inkscape:cx="61.389588"
   inkscape:cy="256.72861"
   inkscape:window-x="-11"
   inkscape:window-y="-11"
   inkscape:window-maximized="1"
   inkscape:current-layer="g1046" />























<g
   id="g60">
</g>
<g
   id="g62">
</g>
<g
   id="g64">
</g>
<g
   id="g66">
</g>
<g
   id="g68">
</g>
<g
   id="g70">
</g>
<g
   id="g72">
</g>
<g
   id="g74">
</g>
<g
   id="g76">
</g>
<g
   id="g78">
</g>
<g
   id="g80">
</g>
<g
   id="g82">
</g>
<g
   id="g84">
</g>
<g
   id="g86">
</g>
<g
   id="g88">
</g>
<g
   id="g1046"
   transform="matrix(0.55886315,0,0,0.55886315,157.54779,132.77619)"><rect
   y="-104.38158"
   x="-28.555799"
   height="673.03345"
   width="469.31418"
   id="rect2447-0-9"
   style="display:inline;fill:none;fill-opacity:1;stroke:url(#linearGradient2459-6-2);stroke-width:25.31489563;stroke-miterlimit:4;stroke-dasharray:none;stroke-opacity:1" /><text
   id="text2485-9"
   y="522.54254"
   x="103.65957"
   style="font-style:normal;font-weight:normal;font-size:76.99105835px;line-height:1.25;font-family:sans-serif;letter-spacing:0px;word-spacing:0px;display:inline;fill:#000000;fill-opacity:1;stroke:none;stroke-width:1.9247762"
   xml:space="preserve"><tspan
     style="stroke-width:1.9247762"
     y="522.54254"
     x="103.65957"
     id="tspan2483-7"
     sodipodi:role="line">AMIR</tspan></text>

</g><g
   transform="matrix(0.50934749,0,0,0.50934749,142.33699,118.59417)"
   id="g919"><path
     inkscape:connector-curvature="0"
     id="path2"
     d="M 413.861,390.135 312.113,360.209 H 199.887 L 98.139,390.135 c -20.469,6.02 -34.525,24.806 -34.525,46.142 v 68.222 h 384.773 v -68.222 c 0,-21.336 -14.057,-40.122 -34.526,-46.142 z"
     style="fill:#edebed" /><path
     inkscape:connector-curvature="0"
     id="path4"
     d="m 256,432.354 c 44.478,0 83.711,-22.777 106.726,-57.259 L 312.113,360.209 H 199.887 l -50.613,14.886 c 23.015,34.482 62.248,57.259 106.726,57.259 z"
     style="fill:#dbd9dc" /><g
     id="g10"><polygon
       id="polygon6"
       points="127.742,504.499 183.855,504.499 183.855,364.924 127.742,381.428 "
       style="fill:#ff8250" /><polygon
       id="polygon8"
       points="384.258,504.499 328.145,504.499 328.145,364.924 384.258,381.428 "
       style="fill:#ff8250" /></g><path
     inkscape:connector-curvature="0"
     id="path12"
     d="m 328.145,409.998 v -45.074 l 34.581,10.171 c -9.172,13.742 -20.952,25.58 -34.581,34.903 z"
     style="fill:#dc7346" /><rect
     id="rect14"
     height="48.099998"
     width="208.42"
     style="fill:#edebed"
     y="111.71"
     x="151.78999" /><path
     inkscape:connector-curvature="0"
     id="path16"
     d="M 372.234,199.887 H 360.21 V 159.806 H 151.791 v 40.081 h -12.024 c -11.068,0 -20.04,8.972 -20.04,20.04 0,11.068 8.972,20.04 20.04,20.04 h 12.024 v 24.048 H 360.21 v -24.048 h 12.024 c 11.068,0 20.04,-8.973 20.04,-20.04 0,-11.068 -8.972,-20.04 -20.04,-20.04 z"
     style="fill:#cd916e" /><path
     inkscape:connector-curvature="0"
     id="path18-0"
     d="M 360.209,159.806 H 151.791 v 40.081 h -10.777 c -10.483,0 -20.035,7.542 -21.08,17.973 -1.201,11.996 8.186,22.108 19.936,22.108 h 11.92 v 24.048 h 32.064 v -32.064 c 0,-26.563 21.534,-48.097 48.097,-48.097 h 128.258 z"
     style="fill:#b67f5f" /><path
     inkscape:connector-curvature="0"
     id="path20"
     d="M 360.085,199.887 C 342.706,191.375 253.355,140.846 175.839,27.713 198.746,14.959 226.259,7.5 255.875,7.5 c 79.689,0 144.29,53.834 144.29,120.242 0,27.075 -10.739,53.39 -28.86,73.489 0,0 -6.599,0.919 -11.22,-1.344 z"
     style="fill:#ff9664" /><path
     inkscape:connector-curvature="0"
     id="path22"
     d="M 151.791,199.887 C 169.17,191.375 258.521,140.846 336.037,27.713 313.129,14.959 285.617,7.5 256,7.5 c -79.689,0 -144.29,53.834 -144.29,120.242 0,27.075 10.739,53.39 28.86,73.489 0,0 6.6,0.919 11.221,-1.344 z"
     style="fill:#ff8250" /><g
     id="g28"><path
       inkscape:connector-curvature="0"
       id="path24"
       d="m 127.742,432.354 v 0 72.145 h -24.048 v -48.097 c 0,-13.281 10.767,-24.048 24.048,-24.048 z"
       style="fill:#dbd9dc" /><path
       inkscape:connector-curvature="0"
       id="path26"
       d="m 384.258,432.354 v 0 72.145 h 24.048 v -48.097 c 0,-13.281 -10.767,-24.048 -24.048,-24.048 z"
       style="fill:#dbd9dc" /></g><path
     inkscape:connector-curvature="0"
     id="path30-4"
     d="m 183.855,409.998 v -45.074 l -34.581,10.171 c 9.172,13.742 20.952,25.58 34.581,34.903 z"
     style="fill:#dc7346" /><path
     inkscape:connector-curvature="0"
     id="path32-9"
     d="m 256,408.305 v 0 c -57.553,0 -104.21,-46.656 -104.21,-104.209 v -56.113 h 208.419 v 56.113 c 0,57.553 -46.656,104.209 -104.209,104.209 z"
     style="fill:#64505a" /><path
     inkscape:connector-curvature="0"
     id="path34"
     d="m 183.855,304.096 v -56.113 h -32.064 v 56.113 c 0,57.553 46.656,104.209 104.209,104.209 5.467,0 10.793,-0.547 16.032,-1.359 -49.921,-7.729 -88.177,-50.763 -88.177,-102.85 z"
     style="fill:#5a4650" /><path
     inkscape:connector-curvature="0"
     id="path36"
     d="m 207.903,200.403 c -4.142,0 -7.5,3.358 -7.5,7.5 v 8.016 c 0,4.142 3.358,7.5 7.5,7.5 4.142,0 7.5,-3.358 7.5,-7.5 v -8.016 c 0,-4.142 -3.358,-7.5 -7.5,-7.5 z" /><path
     inkscape:connector-curvature="0"
     id="path38"
     d="m 304.097,200.403 c -4.143,0 -7.5,3.358 -7.5,7.5 v 8.016 c 0,4.142 3.357,7.5 7.5,7.5 4.143,0 7.5,-3.358 7.5,-7.5 v -8.016 c 0,-4.142 -3.358,-7.5 -7.5,-7.5 z" /><path
     inkscape:connector-curvature="0"
     id="path40"
     d="m 274.78,274.709 c -2.737,2.701 -9.299,5.855 -18.78,5.855 -9.482,0 -16.043,-3.154 -18.781,-5.855 -2.949,-2.91 -7.698,-2.876 -10.606,0.071 -2.909,2.949 -2.877,7.698 0.071,10.606 6.459,6.373 17.418,10.177 29.316,10.177 11.898,0 22.856,-3.805 29.315,-10.177 2.948,-2.909 2.98,-7.658 0.071,-10.606 -2.909,-2.948 -7.658,-2.98 -10.606,-0.071 z" /><path
     inkscape:connector-curvature="0"
     id="path42"
     d="m 415.978,382.939 -65.521,-19.271 c 10.92,-17.254 17.252,-37.687 17.252,-59.573 v -56.629 h 4.629 c 7.768,0 15.212,-3.305 20.426,-9.067 5.21,-5.758 7.751,-13.518 6.973,-21.288 -0.931,-9.3 -6.882,-17.242 -15.108,-21.468 15.189,-20.295 23.162,-43.551 23.162,-67.902 C 407.79,57.305 339.697,0 256,0 172.303,0 104.21,57.305 104.21,127.742 c 0,24.368 7.983,47.637 23.191,67.941 -8.187,4.236 -14.104,12.158 -15.033,21.429 -0.779,7.771 1.763,15.53 6.973,21.289 5.214,5.762 12.659,9.067 20.426,9.067 h 4.524 v 56.629 c 0,21.886 6.332,42.319 17.252,59.573 l -65.52,19.271 c -23.498,6.912 -39.909,28.845 -39.909,53.337 V 504.5 c 0,4.142 3.358,7.5 7.5,7.5 4.142,0 7.5,-3.358 7.5,-7.5 v -68.222 c 0,-17.885 11.983,-33.9 29.142,-38.947 l 19.987,-5.877 v 113.045 c 0,4.142 3.358,7.5 7.5,7.5 4.142,0 7.5,-3.358 7.5,-7.5 V 387.043 l 35.781,-10.521 c 1.709,2.002 3.487,3.943 5.331,5.819 v 25.964 c 0,4.142 3.358,7.5 7.5,7.5 4.142,0 7.5,-3.358 7.5,-7.5 v -13.152 c 18.258,13 40.575,20.652 64.645,20.652 24.07,0 46.387,-7.653 64.645,-20.652 V 504.5 c 0,4.142 3.357,7.5 7.5,7.5 4.143,0 7.5,-3.358 7.5,-7.5 V 382.342 c 1.833,-1.865 3.601,-3.793 5.3,-5.782 l 35.813,10.506 V 504.5 c 0,4.142 3.357,7.5 7.5,7.5 4.143,0 7.5,-3.358 7.5,-7.5 V 391.466 l 19.987,5.864 c 17.158,5.047 29.142,21.062 29.142,38.947 v 68.222 c 0,4.142 3.357,7.5 7.5,7.5 4.143,0 7.5,-3.358 7.5,-7.5 v -68.222 c 0,-24.493 -16.411,-46.426 -39.909,-53.338 z M 392.79,127.742 c 0,23.092 -8.368,45.135 -24.222,64.004 -12.233,-5.787 -53.71,-27.11 -101.516,-70.358 23.581,-22.692 48.054,-50.448 70.834,-83.9 33.312,20.582 54.904,53.378 54.904,90.254 z m -136.725,3.922 c 8.247,7.496 16.327,14.372 24.124,20.643 h -48.265 c 7.808,-6.277 15.891,-13.144 24.141,-20.643 z M 256,15 c 25.006,0 48.463,5.563 68.655,15.261 C 251.635,136.849 161.526,183.246 143.462,191.781 127.589,172.904 119.211,150.85 119.211,127.742 119.21,65.576 180.574,15 256,15 Z m -96.709,289.096 v -48.613 h 152.822 c 4.143,0 7.5,-3.358 7.5,-7.5 0,-4.142 -3.357,-7.5 -7.5,-7.5 H 159.291 v -8.532 c 0,-4.142 -3.358,-7.5 -7.5,-7.5 -4.142,0 -7.5,3.358 -7.5,7.5 v 0.516 h -4.524 c -3.537,0 -6.928,-1.506 -9.303,-4.131 -2.407,-2.66 -3.533,-6.115 -3.171,-9.729 0.63,-6.292 6.612,-11.221 13.618,-11.22 3.067,0 6.016,-0.657 8.767,-1.952 8.293,-3.907 32.083,-15.913 62.639,-38.128 h 87.479 c 30.334,22.065 53.994,34.059 62.632,38.129 2.75,1.294 5.699,1.951 8.766,1.951 7.006,0 12.987,4.928 13.617,11.221 0.362,3.614 -0.764,7.069 -3.17,9.729 -2.375,2.625 -5.766,4.131 -9.303,4.131 h -4.629 v -0.516 c 0,-4.142 -3.357,-7.5 -7.5,-7.5 -4.143,0 -7.5,3.358 -7.5,7.5 v 8.532 h -8.529 c -4.143,0 -7.5,3.358 -7.5,7.5 0,4.142 3.357,7.5 7.5,7.5 h 8.529 v 48.613 c 0,53.326 -43.384,96.709 -96.709,96.709 -53.326,0 -96.709,-43.384 -96.709,-96.71 z" /><path
     inkscape:connector-curvature="0"
     id="path44"
     d="m 183.855,432.87 c -4.142,0 -7.5,3.358 -7.5,7.5 v 64.128 c 0,4.142 3.358,7.5 7.5,7.5 4.142,0 7.5,-3.358 7.5,-7.5 V 440.37 c 0,-4.142 -3.358,-7.5 -7.5,-7.5 z" /><path
     inkscape:connector-curvature="0"
     id="path46"
     d="M 256.08,440.886 H 256 c -4.142,0 -7.46,3.358 -7.46,7.5 0,4.142 3.398,7.5 7.54,7.5 4.143,0 7.5,-3.358 7.5,-7.5 0,-4.142 -3.357,-7.5 -7.5,-7.5 z" /><path
     inkscape:connector-curvature="0"
     id="path48"
     d="M 256.08,488.982 H 256 c -4.142,0 -7.46,3.358 -7.46,7.5 0,4.142 3.398,7.5 7.54,7.5 4.143,0 7.5,-3.358 7.5,-7.5 0,-4.142 -3.357,-7.5 -7.5,-7.5 z" /></g></svg>