<?xml version="1.0" encoding="UTF-8" standalone="no"?>
<!-- Generator: Adobe Illustrator 19.0.0, SVG Export Plug-In . SVG Version: 6.00 Build 0)  -->

<svg
   xmlns:osb="http://www.openswatchbook.org/uri/2009/osb"
   xmlns:dc="http://purl.org/dc/elements/1.1/"
   xmlns:cc="http://creativecommons.org/ns#"
   xmlns:rdf="http://www.w3.org/1999/02/22-rdf-syntax-ns#"
   xmlns:svg="http://www.w3.org/2000/svg"
   xmlns="http://www.w3.org/2000/svg"
   xmlns:xlink="http://www.w3.org/1999/xlink"
   xmlns:sodipodi="http://sodipodi.sourceforge.net/DTD/sodipodi-0.dtd"
   xmlns:inkscape="http://www.inkscape.org/namespaces/inkscape"
   version="1.1"
   id="Capa_1"
   x="0px"
   y="0px"
   viewBox="0 0 511.999 511.999"
   style="enable-background:new 0 0 511.999 511.999;"
   xml:space="preserve"
   sodipodi:docname="51.svg"
   inkscape:version="0.92.4 (5da689c313, 2019-01-14)"><metadata
   id="metadata95"><rdf:RDF><cc:Work
       rdf:about=""><dc:format>image/svg+xml</dc:format><dc:type
         rdf:resource="http://purl.org/dc/dcmitype/StillImage" /><dc:title></dc:title></cc:Work></rdf:RDF></metadata><defs
   id="defs93"><linearGradient
     id="linearGradient2457"
     osb:paint="solid"><stop
       style="stop-color:#000000;stop-opacity:1;"
       offset="0"
       id="stop2455" /></linearGradient><linearGradient
     inkscape:collect="always"
     xlink:href="#linearGradient2457"
     id="linearGradient2459-6-2"
     x1="1442.3572"
     y1="-339.5119"
     x2="1514.9286"
     y2="-339.5119"
     gradientUnits="userSpaceOnUse"
     gradientTransform="matrix(6.4669274,0,0,9.6773016,-9356.1743,3517.6929)" /><pattern
     y="0"
     x="0"
     height="6"
     width="6"
     patternUnits="userSpaceOnUse"
     id="EMFhbasepattern" /></defs><sodipodi:namedview
   pagecolor="#ffffff"
   bordercolor="#666666"
   borderopacity="1"
   objecttolerance="10"
   gridtolerance="10"
   guidetolerance="10"
   inkscape:pageopacity="0"
   inkscape:pageshadow="2"
   inkscape:window-width="1920"
   inkscape:window-height="986"
   id="namedview91"
   showgrid="false"
   inkscape:zoom="1.3037307"
   inkscape:cx="243.94263"
   inkscape:cy="256.72862"
   inkscape:window-x="-11"
   inkscape:window-y="-11"
   inkscape:window-maximized="1"
   inkscape:current-layer="g1046" />























<g
   id="g60">
</g>
<g
   id="g62">
</g>
<g
   id="g64">
</g>
<g
   id="g66">
</g>
<g
   id="g68">
</g>
<g
   id="g70">
</g>
<g
   id="g72">
</g>
<g
   id="g74">
</g>
<g
   id="g76">
</g>
<g
   id="g78">
</g>
<g
   id="g80">
</g>
<g
   id="g82">
</g>
<g
   id="g84">
</g>
<g
   id="g86">
</g>
<g
   id="g88">
</g>
<g
   id="g1046"
   transform="matrix(0.55886315,0,0,0.55886315,157.54779,132.77619)"><rect
   y="-104.38158"
   x="-28.555799"
   height="673.03345"
   width="469.31418"
   id="rect2447-0-9"
   style="display:inline;fill:none;fill-opacity:1;stroke:url(#linearGradient2459-6-2);stroke-width:25.31489563;stroke-miterlimit:4;stroke-dasharray:none;stroke-opacity:1" /><text
   id="text2485-9"
   y="522.54254"
   x="108.71587"
   style="font-style:normal;font-weight:normal;font-size:76.99105835px;line-height:1.25;font-family:sans-serif;letter-spacing:0px;word-spacing:0px;display:inline;fill:#000000;fill-opacity:1;stroke:none;stroke-width:1.9247762"
   xml:space="preserve"><tspan
     style="stroke-width:1.9247762"
     y="522.54254"
     x="108.71587"
     id="tspan2483-7"
     sodipodi:role="line">ERIK</tspan></text>









<g
   transform="matrix(0.9118488,0,0,0.9118488,-27.332459,-27.465278)"
   id="g913"><path
     inkscape:connector-curvature="0"
     id="path2-0"
     d="m 413.863,358.071 -84.486,-24.849 c -10.235,-3.01 -17.263,-12.403 -17.263,-23.071 V 272.032 H 199.888 v 38.119 c 0,10.668 -7.028,20.061 -17.263,23.071 l -84.486,24.849 c -20.469,6.02 -34.525,24.806 -34.525,46.142 V 504.5 H 448.388 V 404.213 c 0,-21.336 -14.056,-40.122 -34.525,-46.142 z"
     style="fill:#b67f5f" /><path
     inkscape:connector-curvature="0"
     id="path4-7"
     d="m 432.356,296.081 h -2.671 c -8.671,0 -17.109,2.812 -24.047,8.015 l -10.691,8.018 c -6.939,5.203 -15.378,8.016 -24.051,8.016 h -13.681 c -3.037,0 -5.767,1.673 -7.142,4.381 -7.591,14.949 -35.547,57.385 -83.868,79.548 -6.465,2.965 -13.943,2.965 -20.408,0 -48.32,-22.163 -76.276,-64.597 -83.867,-79.547 -1.375,-2.708 -4.105,-4.381 -7.143,-4.381 h -13.684 c -8.672,0 -17.111,-2.813 -24.049,-8.016 l -10.688,-8.016 c -6.938,-5.203 -15.377,-8.016 -24.049,-8.016 h -2.671 c -26.563,0 -48.097,21.534 -48.097,48.097 v 56.113 c 0,17.709 14.356,32.065 32.065,32.065 h 64.129 256.516 64.129 c 17.709,0 32.065,-14.356 32.065,-32.065 V 344.18 c 0,-26.566 -21.534,-48.099 -48.097,-48.099 z"
     style="fill:#edebed" /><path
     inkscape:connector-curvature="0"
     id="path6-2"
     d="m 370.896,320.129 h -13.682 c -3.037,0 -5.766,1.672 -7.142,4.38 -7.591,14.95 -35.547,57.385 -83.868,79.548 -6.465,2.965 -13.943,2.965 -20.407,0 -48.32,-22.163 -76.276,-64.597 -83.867,-79.547 -1.375,-2.709 -4.105,-4.382 -7.143,-4.381 h -13.684 c -4.588,0 -9.092,-0.837 -13.361,-2.348 V 504.5 H 384.258 V 317.78 c -4.269,1.512 -8.773,2.349 -13.362,2.349 z"
     style="fill:#a5cdff" /><path
     inkscape:connector-curvature="0"
     id="path8"
     d="m 199.888,297.937 c 16.841,8.996 35.939,14.176 56.113,14.176 20.174,0 39.272,-5.18 56.113,-14.176 V 272.032 H 199.888 Z"
     style="fill:#a06e50" /><path
     inkscape:connector-curvature="0"
     id="path10"
     d="M 256.001,7.5 C 189.593,7.5 135.759,61.334 135.759,127.742 H 376.243 C 376.243,61.334 322.409,7.5 256.001,7.5 Z"
     style="fill:#a5cdff" /><path
     inkscape:connector-curvature="0"
     id="path12"
     d="m 256.001,7.5 c -11.122,0 -21.842,1.631 -32.065,4.457 v 115.785 h 64.13 V 11.957 C 277.843,9.13 267.123,7.5 256.001,7.5 Z"
     style="fill:#edebed" /><path
     inkscape:connector-curvature="0"
     id="path14"
     d="m 209.372,84.9 c 4.982,-31.578 22.314,-59.019 46.834,-77.39 -0.003,-0.008 0,-10e-4 -0.003,-0.01 C 189.702,7.391 135.76,61.266 135.76,127.742 h 240.484 c 0,-8.237 -0.837,-16.277 -2.415,-24.048 H 225.221 c -9.952,0 -17.4,-8.965 -15.849,-18.794 z"
     style="fill:#8cb4eb" /><g
     id="g24"><path
       inkscape:connector-curvature="0"
       id="path16"
       d="m 256.001,440.371 c -35.417,0 -64.129,28.712 -64.129,64.129 H 320.13 c 0,-35.417 -28.712,-64.129 -64.129,-64.129 z"
       style="fill:#dbd9dc" /><path
       inkscape:connector-curvature="0"
       id="path18"
       d="m 223.936,44.037 c 8.21,-14.244 19.166,-26.71 32.27,-36.527 -0.003,-0.008 -0.001,-10e-4 -0.003,-0.009 -11.193,-0.019 -21.982,1.61 -32.266,4.453 v 32.083 z"
       style="fill:#dbd9dc" /><path
       inkscape:connector-curvature="0"
       id="path20"
       d="m 288.066,103.694 h -62.845 c -0.444,0 -0.851,-0.11 -1.284,-0.144 v 24.193 h 64.13 v -24.049 z"
       style="fill:#dbd9dc" /><path
       inkscape:connector-curvature="0"
       id="path22-4"
       d="m 103.695,432.355 h 24.048 v -40.081 0 0 c -13.282,0 -24.048,10.767 -24.048,24.048 z"
       style="fill:#dbd9dc" /></g><path
     inkscape:connector-curvature="0"
     id="path26-7"
     d="m 63.614,432.355 v 16.032 h 24.048 c 8.854,0 16.032,7.178 16.032,16.032 V 504.5 h 24.048 v -72.145 z"
     style="fill:#a06e50" /><path
     inkscape:connector-curvature="0"
     id="path28"
     d="m 408.307,432.355 h -24.048 v -40.081 0 0 c 13.282,0 24.048,10.767 24.048,24.048 z"
     style="fill:#dbd9dc" /><path
     inkscape:connector-curvature="0"
     id="path30"
     d="m 448.388,432.355 v 16.032 H 424.34 c -8.854,0 -16.032,7.178 -16.032,16.032 V 504.5 H 384.26 v -72.145 z"
     style="fill:#a06e50" /><path
     inkscape:connector-curvature="0"
     id="path32-2"
     d="m 256.001,464.419 c -22.136,0 -40.081,17.945 -40.081,40.081 h 80.161 c 10e-4,-22.136 -17.944,-40.081 -40.08,-40.081 z"
     style="fill:#edebed" /><path
     inkscape:connector-curvature="0"
     id="path34-6"
     d="m 256.001,288.065 v 0 c -57.554,0 -104.21,-46.656 -104.21,-104.21 v -56.113 h 208.42 v 56.113 c 0,57.553 -46.657,104.21 -104.21,104.21 z"
     style="fill:#cd916e" /><path
     inkscape:connector-curvature="0"
     id="path36-4"
     d="m 336.162,135.758 v -8.016 H 151.791 v 56.113 c 0,57.553 46.656,104.21 104.21,104.21 5.466,0 10.793,-0.547 16.032,-1.359 -49.921,-7.729 -88.177,-50.764 -88.177,-102.851 v 0 c 0,-17.709 14.356,-32.064 32.064,-32.064 h 104.21 c 8.854,-0.001 16.032,-7.179 16.032,-16.033 z"
     style="fill:#b67f5f" /><path
     inkscape:connector-curvature="0"
     id="path38-7"
     d="m 211.912,175.322 c 4.143,0 7.5,-3.357 7.5,-7.5 v -8.016 c 0,-4.143 -3.357,-7.5 -7.5,-7.5 -4.143,0 -7.5,3.357 -7.5,7.5 v 8.016 c 0,4.143 3.358,7.5 7.5,7.5 z" /><path
     inkscape:connector-curvature="0"
     id="path40-1"
     d="m 300.09,175.322 c 4.143,0 7.5,-3.357 7.5,-7.5 v -8.016 c 0,-4.143 -3.357,-7.5 -7.5,-7.5 -4.143,0 -7.5,3.357 -7.5,7.5 v 8.016 c 0,4.143 3.357,7.5 7.5,7.5 z" /><path
     inkscape:connector-curvature="0"
     id="path42-5"
     d="m 272.033,216.436 h -32.064 c -4.143,0 -7.5,3.357 -7.5,7.5 0,4.143 3.357,7.5 7.5,7.5 h 32.064 c 4.143,0 7.5,-3.357 7.5,-7.5 0,-4.143 -3.357,-7.5 -7.5,-7.5 z" /><path
     inkscape:connector-curvature="0"
     id="path44"
     d="m 432.355,288.581 h -2.672 c -10.228,0 -20.366,3.38 -28.548,9.516 l -10.688,8.017 c -5.603,4.201 -12.545,6.516 -19.549,6.516 h -13.684 c -5.878,0 -11.169,3.234 -13.807,8.44 -0.241,0.475 -1.61,3.13 -4.14,7.245 l -7.775,-2.287 c -6.994,-2.058 -11.879,-8.586 -11.879,-15.876 v -34.453 c 8.21,-5.69 15.636,-12.472 22.1,-20.215 h 12.931 c 11.55,0 21.313,-8.27 23.213,-19.663 l 4.893,-29.356 c 9.819,-2.831 17.024,-11.892 17.024,-22.61 v -40.08 c 0,-10.412 -6.8,-19.26 -16.189,-22.353 C 380.28,53.909 324.319,0 256.001,0 187.683,0 131.722,53.909 128.416,121.422 c -9.39,3.093 -16.189,11.941 -16.189,22.353 v 40.08 c 0,10.718 7.205,19.779 17.025,22.61 l 4.893,29.356 c 1.899,11.394 11.662,19.663 23.212,19.663 h 12.935 c 6.459,7.736 13.88,14.528 22.096,20.221 v 34.447 c 0,7.29 -4.885,13.818 -11.879,15.876 l -7.775,2.287 c -2.529,-4.114 -3.898,-6.769 -4.139,-7.244 -2.639,-5.207 -7.93,-8.441 -13.808,-8.441 h -13.684 c -7.004,0 -13.946,-2.314 -19.549,-6.516 l -10.688,-8.017 c -8.182,-6.136 -18.32,-9.516 -28.548,-9.516 h -2.672 c -30.656,0 -55.597,24.94 -55.597,55.597 v 56.112 c 0,19.251 13.824,35.327 32.064,38.842 V 504.5 c 0,4.143 3.357,7.5 7.5,7.5 4.143,0 7.5,-3.357 7.5,-7.5 v -64.646 h 49.129 V 504.5 c 0,4.143 3.357,7.5 7.5,7.5 4.143,0 7.5,-3.357 7.5,-7.5 v -88.178 c 0,-4.143 -3.357,-7.5 -7.5,-7.5 -4.143,0 -7.5,3.357 -7.5,7.5 v 8.532 H 63.614 c -13.545,0 -24.564,-11.02 -24.564,-24.564 v -56.112 c 0,-22.385 18.212,-40.597 40.597,-40.597 h 2.672 c 7.003,0 13.945,2.313 19.548,6.516 l 10.688,8.017 c 2.408,1.806 4.989,3.366 7.688,4.679 v 61.466 c 0,4.143 3.357,7.5 7.5,7.5 4.143,0 7.5,-3.357 7.5,-7.5 v -57 c 1.941,0.244 3.899,0.371 5.86,0.371 h 13.684 c 0.074,0 0.323,0.016 0.428,0.222 1.294,2.555 32.461,62.844 98.152,87.479 1.699,0.637 3.568,0.637 5.268,0 65.691,-24.635 96.858,-84.924 98.153,-87.479 0.104,-0.205 0.353,-0.221 0.427,-0.221 h 13.684 c 1.961,0 3.919,-0.127 5.86,-0.371 V 504.5 c 0,4.143 3.357,7.5 7.5,7.5 4.143,0 7.5,-3.357 7.5,-7.5 v -64.646 h 49.129 V 504.5 c 0,4.143 3.357,7.5 7.5,7.5 4.143,0 7.5,-3.357 7.5,-7.5 v -65.368 c 18.24,-3.516 32.064,-19.591 32.064,-38.842 v -56.112 c 0,-30.657 -24.94,-55.597 -55.597,-55.597 z m -212.646,-21.604 -2.09,-11.493 h 76.764 l -2.09,11.493 c -1.432,7.873 -8.279,13.588 -16.281,13.588 h -40.021 c -8.003,-10e-4 -14.85,-5.715 -16.282,-13.588 z m -42.226,-26.494 c -7.118,-9.869 -12.34,-21.079 -15.318,-33.097 h 31.463 l 6.018,33.097 z m 31.391,-33.096 h 94.253 l -6.018,33.097 h -82.218 z m 140.943,0 c -2.836,11.361 -7.722,22.142 -14.551,31.889 -0.286,0.409 -0.588,0.804 -0.88,1.208 h -22.031 l 6.018,-33.097 z m -42.017,58.152 1.828,-10.056 h 11.379 c -4.104,3.733 -8.525,7.087 -13.207,10.056 z m 46.846,-25.056 h -2.334 c 6.085,-10.316 10.411,-21.466 12.901,-33.097 h 2.177 l -4.328,25.967 c -0.689,4.131 -4.229,7.13 -8.416,7.13 z m 30.129,-56.629 c 0,4.705 -3.827,8.532 -8.532,8.532 h -8.854 c 0.213,-2.827 0.321,-5.672 0.321,-8.532 v -48.612 h 8.532 c 4.705,0 8.532,3.827 8.532,8.532 z M 280.565,17.703 v 61.94 c 0,4.143 3.357,7.5 7.5,7.5 4.143,0 7.5,-3.357 7.5,-7.5 V 22.172 c 40.476,15.219 69.952,53.079 72.922,98.07 h -72.922 v -8.534 c 0,-4.143 -3.357,-7.5 -7.5,-7.5 -4.143,0 -7.5,3.357 -7.5,7.5 v 8.534 H 231.436 V 17.703 C 239.347,15.938 247.566,15 256.001,15 c 8.435,0 16.654,0.938 24.564,2.703 z m -64.128,4.469 v 98.07 h -72.922 c 2.969,-44.991 32.446,-82.851 72.922,-98.07 z m -89.21,121.602 c 0,-4.705 3.827,-8.532 8.532,-8.532 h 8.532 v 0.517 c 0,4.143 3.357,7.5 7.5,7.5 4.143,0 7.5,-3.357 7.5,-7.5 v -0.517 h 193.42 v 48.612 c 0,2.864 -0.139,5.708 -0.385,8.532 H 159.674 c -0.244,-2.818 -0.383,-5.661 -0.383,-8.532 v -16.031 c 0,-4.143 -3.357,-7.5 -7.5,-7.5 -4.143,0 -7.5,3.357 -7.5,7.5 v 16.031 c 0,2.859 0.108,5.705 0.321,8.532 h -8.854 c -4.705,0 -8.532,-3.827 -8.532,-8.532 z m 21.713,89.58 -4.328,-25.967 h 2.178 c 2.491,11.629 6.822,22.781 12.906,33.097 h -2.339 c -4.188,-0.001 -7.728,-3 -8.417,-7.13 z m 53.434,22.129 1.836,10.097 c -4.756,-2.999 -9.193,-6.385 -13.294,-10.097 z m 53.627,144.786 c -36.342,-14.416 -60.813,-40.604 -74.418,-58.922 l 3.158,-0.929 c 13.334,-3.922 22.646,-16.368 22.646,-30.267 v -25.695 c 2.374,1.147 4.791,2.217 7.255,3.2 0.248,0.099 0.497,0.18 0.748,0.251 5.565,4.798 12.792,7.657 20.6,7.657 h 40.021 c 7.776,0 14.975,-2.835 20.531,-7.598 2.746,-1.07 5.436,-2.246 8.071,-3.519 v 25.703 c 0,13.898 9.313,26.345 22.646,30.267 l 3.158,0.929 c -13.603,18.319 -38.075,44.506 -74.416,58.923 z m 216.951,0.021 c 0,13.545 -11.02,24.564 -24.564,24.564 H 391.759 V 322.792 c 2.699,-1.313 5.281,-2.873 7.688,-4.679 l 10.688,-8.017 c 5.603,-4.202 12.545,-6.516 19.548,-6.516 h 2.672 c 22.385,0 40.597,18.212 40.597,40.597 z" /><path
     inkscape:connector-curvature="0"
     id="path46-3"
     d="m 256.001,432.871 c -39.496,0 -71.629,32.133 -71.629,71.629 0,4.143 3.357,7.5 7.5,7.5 4.143,0 7.5,-3.357 7.5,-7.5 0,-31.226 25.403,-56.629 56.629,-56.629 31.226,0 56.629,25.403 56.629,56.629 0,4.143 3.357,7.5 7.5,7.5 4.143,0 7.5,-3.357 7.5,-7.5 0,-39.496 -32.133,-71.629 -71.629,-71.629 z" /></g></g></svg>