<?xml version="1.0" encoding="UTF-8" standalone="no"?>
<!-- Generator: Adobe Illustrator 19.0.0, SVG Export Plug-In . SVG Version: 6.00 Build 0)  -->

<svg
   xmlns:osb="http://www.openswatchbook.org/uri/2009/osb"
   xmlns:dc="http://purl.org/dc/elements/1.1/"
   xmlns:cc="http://creativecommons.org/ns#"
   xmlns:rdf="http://www.w3.org/1999/02/22-rdf-syntax-ns#"
   xmlns:svg="http://www.w3.org/2000/svg"
   xmlns="http://www.w3.org/2000/svg"
   xmlns:xlink="http://www.w3.org/1999/xlink"
   xmlns:sodipodi="http://sodipodi.sourceforge.net/DTD/sodipodi-0.dtd"
   xmlns:inkscape="http://www.inkscape.org/namespaces/inkscape"
   version="1.1"
   id="Capa_1"
   x="0px"
   y="0px"
   viewBox="0 0 511.999 511.999"
   style="enable-background:new 0 0 511.999 511.999;"
   xml:space="preserve"
   sodipodi:docname="55.svg"
   inkscape:version="0.92.4 (5da689c313, 2019-01-14)"><metadata
   id="metadata95"><rdf:RDF><cc:Work
       rdf:about=""><dc:format>image/svg+xml</dc:format><dc:type
         rdf:resource="http://purl.org/dc/dcmitype/StillImage" /><dc:title /></cc:Work></rdf:RDF></metadata><defs
   id="defs93"><linearGradient
     id="linearGradient2457"
     osb:paint="solid"><stop
       style="stop-color:#000000;stop-opacity:1;"
       offset="0"
       id="stop2455" /></linearGradient><linearGradient
     inkscape:collect="always"
     xlink:href="#linearGradient2457"
     id="linearGradient2459-6-2"
     x1="1442.3572"
     y1="-339.5119"
     x2="1514.9286"
     y2="-339.5119"
     gradientUnits="userSpaceOnUse"
     gradientTransform="matrix(6.4669274,0,0,9.6773016,-9356.1743,3517.6929)" /><pattern
     y="0"
     x="0"
     height="6"
     width="6"
     patternUnits="userSpaceOnUse"
     id="EMFhbasepattern" /></defs><sodipodi:namedview
   pagecolor="#ffffff"
   bordercolor="#666666"
   borderopacity="1"
   objecttolerance="10"
   gridtolerance="10"
   guidetolerance="10"
   inkscape:pageopacity="0"
   inkscape:pageshadow="2"
   inkscape:window-width="1920"
   inkscape:window-height="986"
   id="namedview91"
   showgrid="false"
   inkscape:zoom="1.3037307"
   inkscape:cx="-93.550384"
   inkscape:cy="256.72862"
   inkscape:window-x="-11"
   inkscape:window-y="-11"
   inkscape:window-maximized="1"
   inkscape:current-layer="g1046" />























<g
   id="g60">
</g>
<g
   id="g62">
</g>
<g
   id="g64">
</g>
<g
   id="g66">
</g>
<g
   id="g68">
</g>
<g
   id="g70">
</g>
<g
   id="g72">
</g>
<g
   id="g74">
</g>
<g
   id="g76">
</g>
<g
   id="g78">
</g>
<g
   id="g80">
</g>
<g
   id="g82">
</g>
<g
   id="g84">
</g>
<g
   id="g86">
</g>
<g
   id="g88">
</g>
<g
   id="g1046"
   transform="matrix(0.55886315,0,0,0.55886315,157.54779,132.77619)"><g
   transform="matrix(0.86413317,0,0,0.86413317,-15.116802,-6.3221758)"
   id="g895"><path
     inkscape:connector-curvature="0"
     id="path2-5"
     d="m 427.725,362.942 -52.086,-9.41 c -4.822,-0.871 -9.264,-3.195 -12.729,-6.66 l -27.72,-27.719 c -4.51,-4.51 -7.044,-10.627 -7.044,-17.005 L 328.48,256 H 183.522 l 0.334,46.149 c 0,6.378 -2.534,12.495 -7.044,17.005 l -27.72,27.719 c -3.465,3.465 -7.906,5.789 -12.729,6.66 l -52.086,9.41 C 53.752,368.457 31.549,395.03 31.549,426.05 v 78.45 h 448.903 v -78.452 c 10e-4,-31.019 -22.202,-57.592 -52.727,-63.106 z"
     style="fill:#e3aa75" /><path
     inkscape:connector-curvature="0"
     id="path4-8"
     d="m 183.751,295.609 c 20.234,15.344 45.295,24.52 72.25,24.52 26.955,0 52.016,-9.176 72.25,-24.52 L 328.48,256 H 183.522 Z"
     style="fill:#d29b6e" /><path
     inkscape:connector-curvature="0"
     id="path6-3"
     d="M 344.178,7.5 H 167.823 c -17.709,0 -32.065,14.355 -32.065,32.065 V 175.839 H 376.242 V 39.565 C 376.242,21.855 361.886,7.5 344.178,7.5 Z"
     style="fill:#a06e50" /><path
     inkscape:connector-curvature="0"
     id="path8"
     d="m 372.235,159.806 h -12.024 c -8.854,0 -16.032,-7.179 -16.032,-16.032 v -24.048 c 0,-17.709 -14.355,-32.065 -32.065,-32.065 H 199.888 c -17.709,0 -32.065,14.355 -32.065,32.065 v 24.048 c 0,8.854 -7.179,16.032 -16.032,16.032 h -12.024 c -11.068,0 -20.04,8.972 -20.04,20.04 0,11.067 8.972,20.04 20.04,20.04 h 12.429 c 4.106,53.796 48.958,96.194 103.805,96.194 54.847,0 99.699,-42.398 103.805,-96.194 h 12.429 c 11.068,0 20.04,-8.973 20.04,-20.04 0,-11.067 -8.972,-20.04 -20.04,-20.04 z"
     style="fill:#f5b97d" /><path
     inkscape:connector-curvature="0"
     id="path10"
     d="M 344.178,7.5 H 207.904 v 16.032 c 0,22.136 17.945,40.081 40.081,40.081 H 376.243 V 39.565 C 376.242,21.856 361.887,7.5 344.178,7.5 Z"
     style="fill:#b67f5f" /><path
     inkscape:connector-curvature="0"
     id="path12"
     d="M 127.743,504.5 H 384.259 V 355.09 l -8.62,-1.558 c -4.823,-0.871 -9.264,-3.195 -12.729,-6.66 l -10.715,-10.715 v 32.068 c 0,53.126 -43.067,96.194 -96.194,96.194 -53.127,0 -96.194,-43.067 -96.194,-96.194 v -32.068 l -10.715,10.715 c -3.465,3.465 -7.906,5.789 -12.729,6.66 l -8.62,1.558 z"
     style="fill:#ffe17d" /><g
     id="g18"><path
       inkscape:connector-curvature="0"
       id="path14"
       d="m 127.743,440.371 v 0 64.129 h -24.048 v -40.081 c 0,-13.281 10.766,-24.048 24.048,-24.048 z"
       style="fill:#d29b6e" /><path
       inkscape:connector-curvature="0"
       id="path16"
       d="m 384.259,440.371 v 0 64.129 h 24.048 v -40.081 c 0,-13.281 -10.766,-24.048 -24.048,-24.048 z"
       style="fill:#d29b6e" /></g><path
     inkscape:connector-curvature="0"
     id="path20"
     d="m 183.856,191.871 v -48.097 c 0,-17.709 14.356,-32.065 32.065,-32.065 H 343.046 C 339.47,97.904 327.039,87.661 312.115,87.661 H 199.888 c -17.709,0 -32.065,14.356 -32.065,32.065 v 24.048 c 0,8.854 -7.178,16.032 -16.032,16.032 h -10.879 c -10.484,0 -20.039,7.543 -21.082,17.974 -1.199,11.994 8.188,22.107 19.937,22.107 h 12.429 c 4.106,53.796 48.958,96.194 103.805,96.194 5.484,0 10.83,-0.534 16.083,-1.35 -49.946,-7.71 -88.228,-50.755 -88.228,-102.86 z"
     style="fill:#e3aa75" /><path
     inkscape:connector-curvature="0"
     id="path22-0"
     d="m 207.904,160.322 c -4.143,0 -7.5,3.357 -7.5,7.5 v 8.017 c 0,4.143 3.357,7.5 7.5,7.5 4.143,0 7.5,-3.357 7.5,-7.5 v -8.017 c 0,-4.142 -3.357,-7.5 -7.5,-7.5 z" /><path
     inkscape:connector-curvature="0"
     id="path24-9"
     d="m 304.098,160.322 c -4.143,0 -7.5,3.357 -7.5,7.5 v 8.017 c 0,4.143 3.357,7.5 7.5,7.5 4.143,0 7.5,-3.357 7.5,-7.5 v -8.017 c 0,-4.142 -3.358,-7.5 -7.5,-7.5 z" /><path
     inkscape:connector-curvature="0"
     id="path26"
     d="m 256.001,239.451 c 11.897,0 22.856,-3.805 29.315,-10.177 2.949,-2.908 2.981,-7.657 0.072,-10.605 -2.908,-2.951 -7.658,-2.981 -10.605,-0.072 -2.738,2.7 -9.3,5.854 -18.782,5.854 -9.482,0 -16.044,-3.154 -18.782,-5.854 -2.948,-2.911 -7.698,-2.879 -10.605,0.072 -2.909,2.948 -2.877,7.697 0.072,10.605 6.459,6.372 17.418,10.177 29.315,10.177 z" /><path
     inkscape:connector-curvature="0"
     id="path28"
     d="m 429.059,355.562 -52.087,-9.411 c -3.335,-0.603 -6.363,-2.187 -8.759,-4.582 l -27.72,-27.719 c -3.125,-3.125 -4.847,-7.28 -4.847,-11.629 l 0.311,-32.436 c 16.218,-16.64 27.309,-38.299 30.675,-62.398 h 4.457 c 0.002,0 10e-4,0 0.003,0 14.616,0 27.153,-10.861 28.541,-24.727 0.778,-7.771 -1.764,-15.53 -6.974,-21.287 -2.522,-2.787 -5.568,-4.992 -8.918,-6.534 V 39.564 C 383.742,17.748 365.993,0 344.178,0 H 167.823 c -21.815,0 -39.564,17.748 -39.564,39.564 v 115.609 c -8.63,4.115 -14.929,12.266 -15.891,21.858 -0.778,7.771 1.763,15.53 6.973,21.288 5.214,5.763 12.659,9.067 20.427,9.067 h 5.598 c 3.364,24.109 14.457,45.773 30.679,62.414 l 0.311,32.348 c 0,4.421 -1.722,8.576 -4.848,11.701 l -27.72,27.719 c -2.395,2.396 -5.423,3.979 -8.759,4.582 l -52.085,9.411 c -34.126,6.165 -58.895,35.81 -58.895,70.487 V 504.5 c 0,4.143 3.357,7.5 7.5,7.5 4.143,0 7.5,-3.357 7.5,-7.5 v -78.451 c 0,-27.416 19.582,-50.852 46.562,-55.726 l 34.632,-6.258 V 504.5 c 0,4.143 3.357,7.5 7.5,7.5 4.143,0 7.5,-3.357 7.5,-7.5 V 361.355 l 2.453,-0.443 c 5.427,-0.98 10.423,-3.337 14.611,-6.843 v 14.157 c 0,57.176 46.516,103.693 103.693,103.693 v 0 0 h 10e-4 c 57.176,-10e-4 103.692,-46.518 103.692,-103.693 V 354.07 c 4.189,3.506 9.184,5.862 14.61,6.843 l 2.454,0.443 v 14.889 c 0,4.143 3.357,7.5 7.5,7.5 4.143,0 7.5,-3.357 7.5,-7.5 v -12.178 l 34.633,6.258 c 26.979,4.874 46.561,28.31 46.561,55.726 V 504.5 c 0,4.143 3.357,7.5 7.5,7.5 4.143,0 7.5,-3.357 7.5,-7.5 v -78.451 c 10e-4,-34.678 -24.767,-64.322 -58.892,-70.487 z M 151.791,184.371 c -4.143,0 -7.5,3.357 -7.5,7.5 v 0.516 h -4.523 c -3.537,0 -6.929,-1.506 -9.304,-4.131 -2.406,-2.66 -3.532,-6.115 -3.17,-9.729 0.63,-6.292 6.612,-11.221 13.618,-11.221 h 10.879 c 12.976,0 23.532,-10.557 23.532,-23.532 v -24.049 c 0,-13.545 11.02,-24.564 24.564,-24.564 4.143,0 7.5,-3.357 7.5,-7.5 0,-4.143 -3.357,-7.5 -7.5,-7.5 -21.816,0 -39.564,17.749 -39.564,39.564 v 24.049 c 0,4.705 -3.827,8.532 -8.532,8.532 h -8.532 V 39.564 C 143.259,26.019 154.279,15 167.823,15 h 176.354 c 13.545,0 24.564,11.02 24.564,24.564 v 112.742 h -8.531 c -4.705,0 -8.532,-3.827 -8.532,-8.532 v -24.049 c 0,-21.815 -17.748,-39.564 -39.564,-39.564 h -80.161 c -4.143,0 -7.5,3.357 -7.5,7.5 0,4.143 3.357,7.5 7.5,7.5 h 80.161 c 13.545,0 24.564,11.02 24.564,24.564 v 24.049 c 0,12.976 10.557,23.532 23.532,23.532 h 12.024 c 3.536,0 6.927,1.506 9.303,4.13 2.406,2.66 3.532,6.115 3.17,9.729 -0.63,6.292 -6.61,11.221 -13.616,11.221 h -0.001 -3.384 v -0.438 c 0,-4.141 -3.356,-7.498 -7.497,-7.5 -10e-4,0 -0.002,0 -0.003,0 -4.14,0 -7.497,3.354 -7.5,7.494 -0.039,53.287 -43.421,96.639 -96.706,96.639 -53.326,0 -96.71,-43.384 -96.71,-96.71 0.001,-4.142 -3.356,-7.5 -7.499,-7.5 z m 111.71,272.228 v -8.212 c 0,-4.143 -3.357,-7.5 -7.5,-7.5 -4.143,0 -7.5,3.357 -7.5,7.5 v 8.212 c -45.408,-3.821 -81.193,-41.994 -81.193,-88.373 v -28.962 l 14.807,-14.806 c 5.959,-5.958 9.241,-13.881 9.241,-22.381 l -0.185,-19.287 c 18.293,13.082 40.677,20.792 64.831,20.792 24.151,0 46.536,-7.716 64.831,-20.804 l -0.186,19.371 c 0,8.428 3.282,16.351 9.24,22.309 l 14.808,14.807 v 28.961 c -10e-4,46.378 -35.786,84.552 -81.194,88.373 z" /><path
     inkscape:connector-curvature="0"
     id="path30"
     d="m 198.358,151.117 16.032,3.34 c 0.516,0.107 1.03,0.159 1.537,0.159 3.478,0 6.598,-2.434 7.335,-5.973 0.845,-4.055 -1.758,-8.027 -5.813,-8.872 l -16.032,-3.34 c -4.053,-0.843 -8.027,1.759 -8.872,5.813 -0.845,4.054 1.758,8.028 5.813,8.873 z" /><path
     inkscape:connector-curvature="0"
     id="path32"
     d="m 296.074,154.616 c 0.507,0 1.021,-0.052 1.537,-0.159 l 16.032,-3.34 c 4.056,-0.845 6.658,-4.817 5.813,-8.872 -0.845,-4.055 -4.815,-6.657 -8.872,-5.813 l -16.032,3.34 c -4.056,0.845 -6.658,4.817 -5.813,8.872 0.738,3.539 3.858,5.972 7.335,5.972 z" /><path
     inkscape:connector-curvature="0"
     id="path34-0"
     d="m 384.259,400.809 c -4.143,0 -7.5,3.357 -7.5,7.5 v 96.189 c 0,4.143 3.357,7.5 7.5,7.5 4.143,0 7.5,-3.357 7.5,-7.5 v -96.189 c 0,-4.143 -3.358,-7.5 -7.5,-7.5 z" /></g><rect
   y="-104.38158"
   x="-28.555799"
   height="673.03345"
   width="469.31418"
   id="rect2447-0-9"
   style="display:inline;fill:none;fill-opacity:1;stroke:url(#linearGradient2459-6-2);stroke-width:25.31489563;stroke-miterlimit:4;stroke-dasharray:none;stroke-opacity:1" /><text
   id="text2485-9"
   y="522.54254"
   x="72.73909"
   style="font-style:normal;font-weight:normal;font-size:76.99105835px;line-height:1.25;font-family:sans-serif;letter-spacing:0px;word-spacing:0px;display:inline;fill:#000000;fill-opacity:1;stroke:none;stroke-width:1.9247762"
   xml:space="preserve"><tspan
     style="stroke-width:1.9247762"
     y="522.54254"
     x="72.73909"
     id="tspan2483-7"
     sodipodi:role="line">ARNAU</tspan></text>









</g></svg>