<?xml version="1.0" encoding="UTF-8" standalone="no"?>
<!-- Generator: Adobe Illustrator 19.0.0, SVG Export Plug-In . SVG Version: 6.00 Build 0)  -->

<svg
   xmlns:osb="http://www.openswatchbook.org/uri/2009/osb"
   xmlns:dc="http://purl.org/dc/elements/1.1/"
   xmlns:cc="http://creativecommons.org/ns#"
   xmlns:rdf="http://www.w3.org/1999/02/22-rdf-syntax-ns#"
   xmlns:svg="http://www.w3.org/2000/svg"
   xmlns="http://www.w3.org/2000/svg"
   xmlns:xlink="http://www.w3.org/1999/xlink"
   xmlns:sodipodi="http://sodipodi.sourceforge.net/DTD/sodipodi-0.dtd"
   xmlns:inkscape="http://www.inkscape.org/namespaces/inkscape"
   version="1.1"
   id="Capa_1"
   x="0px"
   y="0px"
   viewBox="0 0 511.999 511.999"
   style="enable-background:new 0 0 511.999 511.999;"
   xml:space="preserve"
   sodipodi:docname="57.svg"
   inkscape:version="0.92.4 (5da689c313, 2019-01-14)"><metadata
   id="metadata95"><rdf:RDF><cc:Work
       rdf:about=""><dc:format>image/svg+xml</dc:format><dc:type
         rdf:resource="http://purl.org/dc/dcmitype/StillImage" /><dc:title></dc:title></cc:Work></rdf:RDF></metadata><defs
   id="defs93"><linearGradient
     id="linearGradient2457"
     osb:paint="solid"><stop
       style="stop-color:#000000;stop-opacity:1;"
       offset="0"
       id="stop2455" /></linearGradient><linearGradient
     inkscape:collect="always"
     xlink:href="#linearGradient2457"
     id="linearGradient2459-6-2"
     x1="1442.3572"
     y1="-339.5119"
     x2="1514.9286"
     y2="-339.5119"
     gradientUnits="userSpaceOnUse"
     gradientTransform="matrix(6.4669274,0,0,9.6773016,-9356.1743,3517.6929)" /><pattern
     y="0"
     x="0"
     height="6"
     width="6"
     patternUnits="userSpaceOnUse"
     id="EMFhbasepattern" /></defs><sodipodi:namedview
   pagecolor="#ffffff"
   bordercolor="#666666"
   borderopacity="1"
   objecttolerance="10"
   gridtolerance="10"
   guidetolerance="10"
   inkscape:pageopacity="0"
   inkscape:pageshadow="2"
   inkscape:window-width="1920"
   inkscape:window-height="986"
   id="namedview91"
   showgrid="false"
   inkscape:zoom="1.3037307"
   inkscape:cx="55.636868"
   inkscape:cy="256.72862"
   inkscape:window-x="-11"
   inkscape:window-y="-11"
   inkscape:window-maximized="1"
   inkscape:current-layer="g1046" />























<g
   id="g60">
</g>
<g
   id="g62">
</g>
<g
   id="g64">
</g>
<g
   id="g66">
</g>
<g
   id="g68">
</g>
<g
   id="g70">
</g>
<g
   id="g72">
</g>
<g
   id="g74">
</g>
<g
   id="g76">
</g>
<g
   id="g78">
</g>
<g
   id="g80">
</g>
<g
   id="g82">
</g>
<g
   id="g84">
</g>
<g
   id="g86">
</g>
<g
   id="g88">
</g>
<g
   id="g1046"
   transform="matrix(0.55886315,0,0,0.55886315,157.54779,132.77619)"><g
   transform="matrix(0.92886497,0,0,0.92886497,-31.688143,-35.536333)"
   id="g901"><path
     inkscape:connector-curvature="0"
     id="path2-7"
     d="M 408.461,396.981 325.669,367.76 H 186.69 l -82.792,29.221 c -19.23,6.787 -32.089,24.963 -32.089,45.355 V 504.5 H 440.55 v -62.164 c 0,-20.392 -12.859,-38.568 -32.089,-45.355 z"
     style="fill:#ff8087" /><path
     inkscape:connector-curvature="0"
     id="path4-8"
     d="m 221.604,480.325 32.631,-8.159 c 0.637,-0.159 1.291,-0.24 1.944,-0.24 0.653,0 1.306,0.08 1.94,0.24 l 32.633,8.158 c 4.467,1.117 9.052,1.682 13.632,1.682 22.719,0 43.064,-13.586 51.832,-34.613 8.247,-19.773 12.745,-41.908 13.266,-64.17 L 325.668,367.759 H 186.69 l -43.814,15.463 c 0.52,22.262 5.019,44.398 13.266,64.172 8.77,21.026 29.114,34.612 51.832,34.612 4.579,0.001 9.166,-0.565 13.63,-1.681 z"
     style="fill:#e6646e" /><path
     inkscape:connector-curvature="0"
     id="path6-6"
     d="m 345.36,369.613 c -0.383,-6.493 -4.635,-12.164 -10.776,-14.305 L 304.268,344.999 H 208.09 l -30.316,10.309 c -6.141,2.141 -10.393,7.813 -10.776,14.305 -1.71,29 4.617,52.407 11.339,68.525 6.127,14.692 21.993,22.716 37.436,18.856 l 32.629,-8.158 c 5.106,-1.277 10.448,-1.277 15.555,0 l 32.629,8.158 c 15.442,3.859 31.309,-4.165 37.436,-18.856 6.721,-16.117 13.049,-39.525 11.338,-68.525 z"
     style="fill:#ffe17d" /><path
     inkscape:connector-curvature="0"
     id="path8"
     d="m 256.179,416.323 v 0 c -26.563,0 -48.097,-21.534 -48.097,-48.097 v -64.129 h 96.194 v 64.129 c 0,26.563 -21.534,48.097 -48.097,48.097 z"
     style="fill:#b67f5f" /><path
     inkscape:connector-curvature="0"
     id="path10"
     d="m 208.082,341.937 c 14.8,6.544 31.063,10.257 48.097,10.257 17.034,0 33.296,-3.713 48.097,-10.257 v -37.84 h -96.194 z"
     style="fill:#a06e50" /><path
     inkscape:connector-curvature="0"
     id="path12"
     d="m 272.212,71.629 h -32.065 c -17.709,0 -32.064,-14.356 -32.064,-32.064 v 0 c 0,-17.709 14.356,-32.064 32.064,-32.064 h 32.065 c 17.709,0 32.064,14.356 32.064,32.064 v 0 c 0,17.708 -14.356,32.064 -32.064,32.064 z"
     style="fill:#6e5a64" /><path
     inkscape:connector-curvature="0"
     id="path14"
     d="m 304.276,247.984 h -96.194 c -53.126,0 -96.193,-43.067 -96.193,-96.193 v 0 c 0,-53.126 43.067,-96.193 96.193,-96.193 h 96.194 c 53.126,0 96.193,43.067 96.193,96.193 v 0 c 0.001,53.126 -43.067,96.193 -96.193,96.193 z"
     style="fill:#84737b" /><path
     inkscape:connector-curvature="0"
     id="path16"
     d="m 304.276,95.677 h -96.194 c -39.781,0 -72.145,32.364 -72.145,72.145 0,39.781 32.364,72.145 72.145,72.145 h 96.194 c 39.781,0 72.145,-32.364 72.145,-72.145 0,-39.781 -32.364,-72.145 -72.145,-72.145 z"
     style="fill:#6e5a64" /><path
     inkscape:connector-curvature="0"
     id="path18-4"
     d="m 371.92,191.871 h -8.667 c -6.009,0 -10.88,-4.871 -10.88,-10.88 v -13.168 c 0,-26.563 -21.534,-48.097 -48.097,-48.097 h -96.194 c -26.563,0 -48.097,21.534 -48.097,48.097 v 13.168 c 0,6.009 -4.871,10.88 -10.88,10.88 h -8 c -10.482,0 -20.035,7.542 -21.08,17.972 -1.202,11.996 8.186,22.109 19.936,22.109 h 12.413 c 4.106,53.796 48.957,96.194 103.805,96.194 54.848,0 99.699,-42.398 103.805,-96.194 h 13.08 c 11.75,0 21.138,-10.113 19.936,-22.109 -1.045,-10.43 -10.598,-17.972 -21.08,-17.972 z"
     style="fill:#cd916e" /><g
     id="g26"><path
       inkscape:connector-curvature="0"
       id="path20"
       d="m 304.276,119.726 h -96.194 c -26.563,0 -48.097,21.534 -48.097,48.097 v 13.167 c 0,6.092 -13.145,10.826 -19.237,10.882 -10.403,0.096 -19.841,7.607 -20.879,17.971 -1.202,11.995 8.186,22.109 19.937,22.109 h 12.568 c 4.106,53.796 48.957,96.194 103.805,96.194 5.483,0 10.83,-0.534 16.083,-1.35 -49.946,-7.709 -88.228,-50.754 -88.228,-102.859 v -40.081 c 0,-22.136 17.945,-40.081 40.081,-40.081 h 64.316 c 12.856,0 23.239,-10.236 23.779,-23.081 0.004,-0.086 0.007,-0.172 0.011,-0.257 -2.59,-0.432 -5.232,-0.711 -7.945,-0.711 z"
       style="fill:#b67f5f" /><path
       inkscape:connector-curvature="0"
       id="path22-5"
       d="m 208.082,199.887 c 13.45,0 24.925,8.299 29.687,20.04 1.508,-3.718 2.378,-7.766 2.378,-12.024 0,-17.709 -14.355,-32.065 -32.065,-32.065 -17.71,0 -32.065,14.355 -32.065,32.065 0,4.259 0.87,8.306 2.378,12.024 4.762,-11.741 16.238,-20.04 29.687,-20.04 z"
       style="fill:#b67f5f" /><path
       inkscape:connector-curvature="0"
       id="path24-9"
       d="m 304.276,199.887 c 13.45,0 24.925,8.299 29.687,20.04 1.508,-3.718 2.378,-7.766 2.378,-12.024 0,-17.709 -14.355,-32.065 -32.065,-32.065 -17.71,0 -32.065,14.355 -32.065,32.065 0,4.259 0.87,8.306 2.378,12.024 4.762,-11.741 16.237,-20.04 29.687,-20.04 z"
       style="fill:#b67f5f" /></g><path
     inkscape:connector-curvature="0"
     id="path28"
     d="m 410.957,390.85 -58.06,-20.492 c -0.021,-0.398 -0.026,-0.785 -0.049,-1.186 -0.565,-9.576 -6.765,-17.798 -15.85,-20.964 l -25.222,-8.576 v -18.829 c 29.243,-16.85 50.174,-46.562 55.03,-81.351 h 5.607 c 15.186,0 27.54,-12.354 27.54,-27.54 0,-4.709 -1.19,-9.145 -3.282,-13.026 7.398,-14.506 11.299,-30.702 11.299,-47.095 0,-55.004 -43.051,-100.135 -97.226,-103.486 0.673,-2.859 1.032,-5.775 1.032,-8.74 C 311.776,17.749 294.027,0 272.212,0 h -32.064 c -21.816,0 -39.565,17.749 -39.565,39.564 0,2.965 0.359,5.881 1.032,8.74 -54.175,3.351 -97.226,48.482 -97.226,103.486 0,16.384 3.899,32.601 11.296,47.101 -2.09,3.879 -3.28,8.313 -3.28,13.02 0,15.186 12.354,27.54 27.54,27.54 h 5.607 c 4.856,34.789 25.787,64.501 55.03,81.351 v 18.83 l -25.276,8.595 c -9.03,3.147 -15.229,11.369 -15.795,20.945 -0.021,0.357 -0.025,0.702 -0.044,1.058 l -58.424,20.62 C 78.856,398.68 63.95,419.749 63.95,443.277 V 504.5 c 0,4.143 3.357,7.5 7.5,7.5 4.143,0 7.5,-3.357 7.5,-7.5 v -61.224 c 0,-5.175 0.994,-10.185 2.817,-14.82 l 38.092,32.65 c 5.451,4.673 8.578,11.472 8.578,18.651 v 24.623 c 0,4.143 3.357,7.5 7.5,7.5 4.143,0 7.5,-3.357 7.5,-7.5 v -24.623 c 0,-11.564 -5.036,-22.514 -13.816,-30.04 L 89.848,415.626 c 4.37,-4.701 9.872,-8.404 16.187,-10.633 l 53.338,-18.825 c 1.006,23.438 6.804,42.297 12.043,54.856 7.613,18.254 27.033,28.027 46.177,23.245 l 38.587,-9.647 38.586,9.647 c 3.263,0.815 6.531,1.208 9.75,1.208 15.668,-10e-4 30.111,-9.31 36.427,-24.453 5.229,-12.537 11.015,-31.353 12.036,-54.732 l 52.986,18.701 c 6.392,2.256 11.951,6.021 16.346,10.804 l -39.574,33.92 c -8.78,7.526 -13.816,18.476 -13.816,30.04 v 24.623 c 0,4.143 3.357,7.5 7.5,7.5 4.143,0 7.5,-3.357 7.5,-7.5 v -24.623 c 0,-7.18 3.127,-13.979 8.578,-18.651 l 37.823,-32.419 c 1.766,4.57 2.728,9.499 2.728,14.589 V 504.5 c 0,4.143 3.357,7.5 7.5,7.5 4.143,0 7.5,-3.357 7.5,-7.5 v -61.224 c 0,-23.527 -14.906,-44.595 -37.093,-52.426 z M 240.147,15 h 32.064 c 13.545,0 24.564,11.02 24.564,24.564 0,2.904 -0.559,5.76 -1.639,8.532 H 217.22 c -1.08,-2.772 -1.639,-5.628 -1.639,-8.532 C 215.582,26.02 226.602,15 240.147,15 Z m -32.065,48.097 h 96.194 c 48.905,0 88.693,39.788 88.693,88.693 0,12.379 -2.595,24.623 -7.552,35.853 -3.876,-2.085 -8.304,-3.271 -13.005,-3.271 h -12.538 v -16.548 c 0,-30.656 -24.94,-55.597 -55.597,-55.597 -4.143,0 -7.5,3.357 -7.5,7.5 0,4.143 3.357,7.5 7.5,7.5 22.385,0 40.597,18.212 40.597,40.597 v 16.548 h -8.74 c -7.21,-9.78 -18.804,-16.139 -31.859,-16.139 -16.312,0 -30.346,9.923 -36.392,24.049 h -23.41 c -6.046,-14.125 -20.081,-24.049 -36.393,-24.049 -13.055,0 -24.649,6.359 -31.859,16.139 h -8.735 v -16.548 c 0,-22.385 18.212,-40.597 40.597,-40.597 h 64.129 c 4.143,0 7.5,-3.357 7.5,-7.5 0,-4.143 -3.357,-7.5 -7.5,-7.5 h -64.129 c -30.656,0 -55.597,24.94 -55.597,55.597 v 16.548 h -12.543 c -4.699,0 -9.125,1.185 -13,3.269 -4.955,-11.228 -7.557,-23.48 -7.557,-35.85 0.003,-48.906 39.791,-88.694 88.696,-88.694 z m 96.194,120.135 c 13.545,0 24.564,11.02 24.564,24.564 0,13.544 -11.02,24.564 -24.564,24.564 -13.544,0 -24.564,-11.02 -24.564,-24.564 0,-13.544 11.019,-24.564 24.564,-24.564 z m -96.194,0 c 13.546,0 24.565,11.02 24.565,24.564 0,13.544 -11.02,24.564 -24.565,24.564 -13.545,0 -24.564,-11.02 -24.564,-24.564 0,-13.544 11.019,-24.564 24.564,-24.564 z m -48.612,40.704 c 0,-4.143 -3.357,-7.5 -7.5,-7.5 -4.143,0 -7.5,3.357 -7.5,7.5 0,0.172 0.006,0.344 0.007,0.516 h -4.531 c -6.915,0 -12.54,-5.625 -12.54,-12.54 0,-6.915 5.625,-12.54 12.54,-12.54 h 29.484 c -0.592,2.717 -0.912,5.534 -0.912,8.426 0,21.816 17.748,39.564 39.564,39.564 21.816,0 39.565,-17.748 39.565,-39.564 0,-0.173 -0.011,-0.343 -0.013,-0.516 h 17.091 c -0.002,0.172 -0.013,0.343 -0.013,0.516 0,21.816 17.748,39.564 39.564,39.564 21.816,0 39.564,-17.748 39.564,-39.564 0,-2.892 -0.32,-5.709 -0.912,-8.426 h 29.484 c 6.915,0 12.54,5.625 12.54,12.54 0,6.915 -5.625,12.54 -12.54,12.54 h -4.531 c 0.001,-0.172 0.007,-0.343 0.007,-0.516 0,-4.143 -3.357,-7.5 -7.5,-7.5 -4.143,0 -7.5,3.357 -7.5,7.5 0,53.326 -43.384,96.71 -96.71,96.71 -53.324,0 -96.708,-43.384 -96.708,-96.71 z m 167.629,211.316 c -4.736,11.354 -16.805,17.442 -28.694,14.466 L 258,439.616 c -1.195,-0.299 -2.443,-0.299 -3.639,0 l -40.406,10.102 c -11.893,2.977 -23.959,-3.111 -28.694,-14.466 -5.843,-14.01 -12.455,-36.693 -10.774,-65.197 0.207,-3.509 2.467,-6.517 5.704,-7.646 l 20.393,-6.934 v 13.315 c 0,30.656 24.941,55.597 55.598,55.597 10.975,0 21.592,-3.195 30.703,-9.241 3.451,-2.29 4.394,-6.944 2.103,-10.396 -2.29,-3.451 -6.944,-4.395 -10.396,-2.103 -6.646,4.409 -14.395,6.739 -22.41,6.739 -22.386,0 -40.598,-18.212 -40.598,-40.597 v -40.783 c 12.59,4.928 26.283,7.638 40.598,7.638 14.314,0 28.007,-2.71 40.597,-7.638 v 40.782 c 0,4.654 -0.779,9.214 -2.315,13.553 -1.383,3.904 0.661,8.191 4.565,9.573 0.828,0.294 1.673,0.433 2.504,0.433 3.088,0 5.98,-1.922 7.069,-4.998 2.108,-5.951 3.177,-12.196 3.177,-18.561 v -13.315 l 20.339,6.916 c 3.291,1.147 5.551,4.155 5.758,7.664 1.678,28.506 -4.935,51.189 -10.777,65.199 z" /><path
     inkscape:connector-curvature="0"
     id="path30"
     d="m 285.496,270.063 c 2.948,-2.909 2.979,-7.658 0.069,-10.606 -2.909,-2.948 -7.657,-2.979 -10.606,-0.069 -2.736,2.7 -9.297,5.854 -18.779,5.854 -9.482,0 -16.044,-3.154 -18.781,-5.855 -2.946,-2.907 -7.695,-2.879 -10.606,0.071 -2.909,2.948 -2.877,7.697 0.071,10.606 6.459,6.373 17.419,10.178 29.316,10.178 11.898,0 22.857,-3.804 29.316,-10.179 z" /><path
     inkscape:connector-curvature="0"
     id="path32"
     d="m 208.082,215.994 c 4.143,0 7.5,-3.357 7.5,-7.5 v -8.017 c 0,-4.143 -3.357,-7.5 -7.5,-7.5 -4.143,0 -7.5,3.357 -7.5,7.5 v 8.017 c 0,4.143 3.357,7.5 7.5,7.5 z" /><path
     inkscape:connector-curvature="0"
     id="path34"
     d="m 304.276,215.994 c 4.143,0 7.5,-3.357 7.5,-7.5 v -8.017 c 0,-4.143 -3.357,-7.5 -7.5,-7.5 -4.143,0 -7.5,3.357 -7.5,7.5 v 8.017 c 0,4.143 3.358,7.5 7.5,7.5 z" /><path
     inkscape:connector-curvature="0"
     id="path36"
     d="m 256.26,480.968 h -0.08 c -4.143,0 -7.46,3.357 -7.46,7.5 0,4.143 3.397,7.5 7.54,7.5 4.143,0 7.5,-3.357 7.5,-7.5 0,-4.143 -3.358,-7.5 -7.5,-7.5 z" /></g><rect
   y="-104.38158"
   x="-28.555799"
   height="673.03345"
   width="469.31418"
   id="rect2447-0-9"
   style="display:inline;fill:none;fill-opacity:1;stroke:url(#linearGradient2459-6-2);stroke-width:25.31489563;stroke-miterlimit:4;stroke-dasharray:none;stroke-opacity:1" /><text
   id="text2485-9"
   y="522.54254"
   x="78.622444"
   style="font-style:normal;font-weight:normal;font-size:76.99105835px;line-height:1.25;font-family:sans-serif;letter-spacing:0px;word-spacing:0px;display:inline;fill:#000000;fill-opacity:1;stroke:none;stroke-width:1.9247762"
   xml:space="preserve"><tspan
     style="stroke-width:1.9247762"
     y="522.54254"
     x="78.622444"
     id="tspan2483-7"
     sodipodi:role="line">BERTA</tspan></text>








</g></svg>