<?xml version="1.0" encoding="UTF-8" standalone="no"?>
<!-- Generator: Adobe Illustrator 19.0.0, SVG Export Plug-In . SVG Version: 6.00 Build 0)  -->

<svg
   xmlns:osb="http://www.openswatchbook.org/uri/2009/osb"
   xmlns:dc="http://purl.org/dc/elements/1.1/"
   xmlns:cc="http://creativecommons.org/ns#"
   xmlns:rdf="http://www.w3.org/1999/02/22-rdf-syntax-ns#"
   xmlns:svg="http://www.w3.org/2000/svg"
   xmlns="http://www.w3.org/2000/svg"
   xmlns:xlink="http://www.w3.org/1999/xlink"
   xmlns:sodipodi="http://sodipodi.sourceforge.net/DTD/sodipodi-0.dtd"
   xmlns:inkscape="http://www.inkscape.org/namespaces/inkscape"
   version="1.1"
   id="Capa_1"
   x="0px"
   y="0px"
   viewBox="0 0 511.999 511.999"
   style="enable-background:new 0 0 511.999 511.999;"
   xml:space="preserve"
   sodipodi:docname="61.svg"
   inkscape:version="0.92.4 (5da689c313, 2019-01-14)"><metadata
   id="metadata95"><rdf:RDF><cc:Work
       rdf:about=""><dc:format>image/svg+xml</dc:format><dc:type
         rdf:resource="http://purl.org/dc/dcmitype/StillImage" /><dc:title></dc:title></cc:Work></rdf:RDF></metadata><defs
   id="defs93"><linearGradient
     id="linearGradient2457"
     osb:paint="solid"><stop
       style="stop-color:#000000;stop-opacity:1;"
       offset="0"
       id="stop2455" /></linearGradient><linearGradient
     inkscape:collect="always"
     xlink:href="#linearGradient2457"
     id="linearGradient2459-6-2"
     x1="1442.3572"
     y1="-339.5119"
     x2="1514.9286"
     y2="-339.5119"
     gradientUnits="userSpaceOnUse"
     gradientTransform="matrix(6.4669274,0,0,9.6773016,-9356.1743,3517.6929)" /><pattern
     y="0"
     x="0"
     height="6"
     width="6"
     patternUnits="userSpaceOnUse"
     id="EMFhbasepattern" /></defs><sodipodi:namedview
   pagecolor="#ffffff"
   bordercolor="#666666"
   borderopacity="1"
   objecttolerance="10"
   gridtolerance="10"
   guidetolerance="10"
   inkscape:pageopacity="0"
   inkscape:pageshadow="2"
   inkscape:window-width="1920"
   inkscape:window-height="986"
   id="namedview91"
   showgrid="false"
   inkscape:zoom="1.3037307"
   inkscape:cx="55.636868"
   inkscape:cy="256.72862"
   inkscape:window-x="-11"
   inkscape:window-y="-11"
   inkscape:window-maximized="1"
   inkscape:current-layer="g1046" />























<g
   id="g60">
</g>
<g
   id="g62">
</g>
<g
   id="g64">
</g>
<g
   id="g66">
</g>
<g
   id="g68">
</g>
<g
   id="g70">
</g>
<g
   id="g72">
</g>
<g
   id="g74">
</g>
<g
   id="g76">
</g>
<g
   id="g78">
</g>
<g
   id="g80">
</g>
<g
   id="g82">
</g>
<g
   id="g84">
</g>
<g
   id="g86">
</g>
<g
   id="g88">
</g>
<g
   id="g1046"
   transform="matrix(0.55886315,0,0,0.55886315,157.54779,132.77619)"><g
   transform="matrix(0.95938319,0,0,0.95938319,-39.502246,-63.073918)"
   id="g892"><path
     inkscape:connector-curvature="0"
     id="path2-8"
     d="M 430.425,357.353 387.872,117.988 C 376.507,54.064 320.93,7.498 256.003,7.5 191.075,7.5 135.498,54.068 124.134,117.994 l -42.553,239.36 c -1.164,6.547 1.834,13.133 7.536,16.554 l 46.644,26.383 h 240.484 l 46.644,-26.383 c 5.701,-3.422 8.7,-10.007 7.536,-16.555 z"
     style="fill:#6e5a64" /><path
     inkscape:connector-curvature="0"
     id="path4"
     d="M 408.285,396.981 325.493,367.76 C 312.673,363.235 304.1,351.118 304.1,337.523 V 296.08 h -96.194 v 41.443 c 0,13.595 -8.573,25.712 -21.393,30.236 L 103.72,396.98 c -19.229,6.787 -32.089,24.962 -32.089,45.354 V 504.5 h 368.742 v -62.165 c 0.001,-20.392 -12.858,-38.567 -32.088,-45.354 z"
     style="fill:#edebed" /><path
     inkscape:connector-curvature="0"
     id="path6"
     d="m 412.806,398.987 c -32.505,29.645 -90.561,49.4 -156.803,49.4 -66.242,0 -124.297,-19.756 -156.803,-49.4 -16.657,7.887 -27.568,24.627 -27.568,43.349 V 504.5 h 368.742 v -62.164 c 0,-18.722 -10.912,-35.462 -27.568,-43.349 z"
     style="fill:#6e5a64" /><path
     inkscape:connector-curvature="0"
     id="path8"
     d="m 207.906,326.051 c 14.744,6.465 30.994,10.11 48.097,10.11 17.103,0 33.353,-3.645 48.097,-10.11 v -29.97 h -96.194 z"
     style="fill:#dbd9dc" /><path
     inkscape:connector-curvature="0"
     id="path10"
     d="m 151.793,207.903 c 0,57.553 46.656,104.21 104.21,104.21 v 0 c 57.553,0 104.21,-46.656 104.21,-104.21 v -62.802 c 0,-6.218 -0.514,-12.425 -1.536,-18.559 v 0 C 350.312,76.351 306.887,39.564 256.003,39.564 v 0 c -50.883,0 -94.308,36.787 -102.674,86.978 v 0 c -1.022,6.133 -1.536,12.341 -1.536,18.559 z"
     style="fill:#f5b97d" /><path
     inkscape:connector-curvature="0"
     id="path12"
     d="M 358.677,126.542 C 350.062,74.855 304.266,37.383 251.434,39.663 c -47.065,2.031 -87.872,36.604 -97.338,82.753 -1.532,7.468 -2.302,15.069 -2.302,22.685 v 6.27 l 0.002,-0.002 -0.002,0.004 v 56.53 c 0,57.553 46.656,104.21 104.21,104.21 5.467,0 10.793,-0.548 16.032,-1.358 -49.921,-7.73 -88.177,-50.764 -88.177,-102.851 v -44.451 c 0,-15.68 11.362,-28.876 26.795,-31.648 14.526,-2.609 29.933,-4.062 45.351,-4.062 36.022,0 70.28,7.047 96.461,19.843 l 7.749,3.787 v -6.27 c -0.002,-6.22 -0.516,-12.427 -1.538,-18.561 z"
     style="fill:#e3aa75" /><path
     inkscape:connector-curvature="0"
     id="path14"
     d="m 256.003,39.565 c -50.219,0 -93.107,35.86 -102.262,85.047 27.047,-12.943 62.828,-20.918 102.262,-20.918 39.434,0 75.216,7.975 102.262,20.918 C 349.11,75.425 306.222,39.565 256.003,39.565 Z"
     style="fill:#edebed" /><path
     inkscape:connector-curvature="0"
     id="path16"
     d="m 256.003,39.565 c -50.219,0 -93.107,35.86 -102.262,85.047 10.529,-5.038 22.393,-9.3 35.276,-12.651 11.969,-37.478 44.188,-65.04 83.017,-71.077 -5.244,-0.815 -10.583,-1.319 -16.031,-1.319 z"
     style="fill:#dbd9dc" /><path
     inkscape:connector-curvature="0"
     id="path18-9"
     d="m 256.003,448.387 c -66.242,0 -124.297,-19.756 -156.803,-49.4 -7.338,3.475 -13.468,8.736 -18.135,15.061 35.151,36.565 100.449,58.388 174.938,58.388 74.488,0 139.785,-21.823 174.938,-58.387 -4.667,-6.325 -10.796,-11.587 -18.135,-15.062 -32.506,29.645 -90.561,49.4 -156.803,49.4 z"
     style="fill:#64505a" /><path
     inkscape:connector-curvature="0"
     id="path20"
     d="m 410.792,389.912 15.955,-9.573 c 8.313,-4.988 12.759,-14.753 11.062,-24.298 L 395.255,116.676 C 383.236,49.067 324.672,-0.002 256.003,0 187.333,0 128.769,49.071 116.75,116.681 l -42.553,239.36 c -1.697,9.545 2.748,19.31 11.062,24.298 l 15.955,9.573 c -22.181,7.834 -37.082,28.899 -37.082,52.424 V 504.5 c 0,4.143 3.357,7.5 7.5,7.5 4.143,0 7.5,-3.357 7.5,-7.5 v -62.164 c 0,-14.71 7.984,-28.098 20.447,-35.234 12.68,11.524 29.59,21.706 49.235,29.589 0.916,0.367 1.86,0.541 2.791,0.541 2.973,0 5.787,-1.78 6.963,-4.709 1.542,-3.844 -0.323,-8.211 -4.168,-9.754 -15.158,-6.082 -28.437,-13.57 -39.036,-21.944 l 73.646,-25.992 c 15.788,-5.572 26.396,-20.565 26.396,-37.309 v -25.548 c 12.589,4.928 26.282,7.638 40.597,7.638 14.315,0 28.007,-2.71 40.597,-7.638 v 25.548 c 0,16.743 10.608,31.736 26.396,37.309 l 73.675,26.003 c -31.358,24.909 -83.838,40.052 -140.668,40.052 -24.962,0 -49.012,-2.844 -71.482,-8.453 -4.021,-1.007 -8.09,1.44 -9.093,5.46 -1.004,4.019 1.441,8.09 5.46,9.093 11.876,2.965 24.159,5.195 36.76,6.682 l 15.111,52.893 c 0.941,3.294 3.944,5.441 7.208,5.441 0.683,0 1.376,-0.094 2.064,-0.29 3.982,-1.139 6.289,-5.289 5.15,-9.272 l -13.515,-47.301 c 7.36,0.493 14.809,0.749 22.336,0.749 7.526,0 14.982,-0.271 22.343,-0.774 l -13.522,47.326 c -1.139,3.983 1.168,8.134 5.15,9.272 0.688,0.196 1.382,0.29 2.064,0.29 3.264,0 6.267,-2.147 7.208,-5.441 l 15.126,-52.946 c 48.692,-5.806 91.648,-22.481 118.056,-46.511 12.462,7.137 20.444,20.524 20.444,35.233 V 504.5 c 0,4.143 3.357,7.5 7.5,7.5 4.143,0 7.5,-3.357 7.5,-7.5 v -62.164 c 0.003,-23.525 -14.898,-44.59 -37.079,-52.424 z M 159.293,207.903 V 145.1 c 0,-4.25 0.265,-8.521 0.78,-12.751 22.555,-13.274 58.163,-21.156 95.93,-21.156 10.576,0 21.067,0.608 31.183,1.808 4.109,0.481 7.843,-2.451 8.331,-6.565 0.487,-4.113 -2.452,-7.843 -6.565,-8.331 -10.698,-1.268 -21.784,-1.911 -32.948,-1.911 -34.917,0 -67.348,6.15 -91.705,17.137 12.847,-39.145 49.333,-66.266 91.705,-66.266 42.376,0 78.866,27.126 91.709,66.279 -7.679,-3.451 -16.233,-6.452 -25.597,-8.964 -4.002,-1.073 -8.114,1.3 -9.188,5.301 -1.074,4.001 1.3,8.114 5.301,9.188 13.003,3.488 24.596,8.131 33.704,13.483 0.515,4.23 0.78,8.501 0.78,12.75 v 62.803 c 0,53.326 -43.384,96.71 -96.71,96.71 -53.326,0 -96.71,-43.386 -96.71,-96.712 z M 311.6,337.523 V 304.77 c 33.508,-19.307 56.113,-55.497 56.113,-96.867 V 145.1 c 0,-6.611 -0.551,-13.271 -1.638,-19.792 -4.338,-26.023 -17.813,-49.746 -37.943,-66.8 -20.131,-17.053 -45.746,-26.444 -72.129,-26.444 -26.383,0 -51.998,9.392 -72.129,26.444 -20.131,17.054 -33.605,40.776 -37.942,66.8 -1.088,6.521 -1.639,13.181 -1.639,19.792 v 62.803 c 0,41.37 22.606,77.56 56.113,96.867 v 32.753 c 0,10.396 -6.586,19.704 -16.389,23.164 l -64.446,22.746 -26.596,-15.958 c -3.014,-1.808 -4.626,-5.349 -4.011,-8.81 l 42.553,-239.36 C 142.263,58.867 194.616,15 256.003,15 317.39,14.998 369.742,58.863 380.487,119.301 l 42.554,239.365 c 0.615,3.461 -0.997,7.002 -4.011,8.81 l -26.596,15.958 -64.446,-22.746 C 318.186,357.228 311.6,347.919 311.6,337.523 Z" /><path
     inkscape:connector-curvature="0"
     id="path22-8"
     d="m 274.784,242.645 c -2.737,2.701 -9.299,5.855 -18.781,5.855 -9.482,0 -16.044,-3.154 -18.781,-5.855 -2.946,-2.907 -7.695,-2.878 -10.606,0.071 -2.909,2.948 -2.877,7.697 0.071,10.606 6.459,6.373 17.419,10.178 29.316,10.178 11.897,0 22.857,-3.805 29.316,-10.178 2.948,-2.909 2.98,-7.658 0.071,-10.606 -2.909,-2.949 -7.659,-2.981 -10.606,-0.071 z" /><path
     inkscape:connector-curvature="0"
     id="path24-0"
     d="m 207.906,184.371 c -4.143,0 -7.5,3.357 -7.5,7.5 v 8.016 c 0,4.143 3.357,7.5 7.5,7.5 4.143,0 7.5,-3.357 7.5,-7.5 v -8.016 c 0,-4.142 -3.357,-7.5 -7.5,-7.5 z" /><path
     inkscape:connector-curvature="0"
     id="path26"
     d="m 304.1,184.371 c -4.143,0 -7.5,3.357 -7.5,7.5 v 8.016 c 0,4.143 3.357,7.5 7.5,7.5 4.143,0 7.5,-3.357 7.5,-7.5 v -8.016 c 0,-4.142 -3.358,-7.5 -7.5,-7.5 z" /><path
     inkscape:connector-curvature="0"
     id="path28-8"
     d="M 215.922,160.322 H 199.89 c -4.143,0 -7.5,3.357 -7.5,7.5 0,4.143 3.357,7.5 7.5,7.5 h 16.032 c 4.143,0 7.5,-3.357 7.5,-7.5 0,-4.143 -3.357,-7.5 -7.5,-7.5 z" /><path
     inkscape:connector-curvature="0"
     id="path30"
     d="m 312.116,160.322 h -16.032 c -4.143,0 -7.5,3.357 -7.5,7.5 0,4.143 3.357,7.5 7.5,7.5 h 16.032 c 4.143,0 7.5,-3.357 7.5,-7.5 0,-4.143 -3.357,-7.5 -7.5,-7.5 z" /></g><rect
   y="-104.38158"
   x="-28.555799"
   height="673.03345"
   width="469.31418"
   id="rect2447-0-9"
   style="display:inline;fill:none;fill-opacity:1;stroke:url(#linearGradient2459-6-2);stroke-width:25.31489563;stroke-miterlimit:4;stroke-dasharray:none;stroke-opacity:1" /><text
   id="text2485-9"
   y="522.54254"
   x="116.62926"
   style="font-style:normal;font-weight:normal;font-size:76.99105835px;line-height:1.25;font-family:sans-serif;letter-spacing:0px;word-spacing:0px;display:inline;fill:#000000;fill-opacity:1;stroke:none;stroke-width:1.9247762"
   xml:space="preserve"><tspan
     style="stroke-width:1.9247762"
     y="522.54254"
     x="116.62926"
     id="tspan2483-7"
     sodipodi:role="line">MAR</tspan></text>








</g></svg>