<?xml version="1.0" encoding="UTF-8" standalone="no"?>
<!-- Generator: Adobe Illustrator 19.0.0, SVG Export Plug-In . SVG Version: 6.00 Build 0)  -->

<svg
   xmlns:osb="http://www.openswatchbook.org/uri/2009/osb"
   xmlns:dc="http://purl.org/dc/elements/1.1/"
   xmlns:cc="http://creativecommons.org/ns#"
   xmlns:rdf="http://www.w3.org/1999/02/22-rdf-syntax-ns#"
   xmlns:svg="http://www.w3.org/2000/svg"
   xmlns="http://www.w3.org/2000/svg"
   xmlns:xlink="http://www.w3.org/1999/xlink"
   xmlns:sodipodi="http://sodipodi.sourceforge.net/DTD/sodipodi-0.dtd"
   xmlns:inkscape="http://www.inkscape.org/namespaces/inkscape"
   version="1.1"
   id="Capa_1"
   x="0px"
   y="0px"
   viewBox="0 0 511.999 511.999"
   style="enable-background:new 0 0 511.999 511.999;"
   xml:space="preserve"
   sodipodi:docname="63.svg"
   inkscape:version="0.92.4 (5da689c313, 2019-01-14)"><metadata
   id="metadata95"><rdf:RDF><cc:Work
       rdf:about=""><dc:format>image/svg+xml</dc:format><dc:type
         rdf:resource="http://purl.org/dc/dcmitype/StillImage" /><dc:title></dc:title></cc:Work></rdf:RDF></metadata><defs
   id="defs93"><linearGradient
     id="linearGradient2457"
     osb:paint="solid"><stop
       style="stop-color:#000000;stop-opacity:1;"
       offset="0"
       id="stop2455" /></linearGradient><linearGradient
     inkscape:collect="always"
     xlink:href="#linearGradient2457"
     id="linearGradient2459-6-2"
     x1="1442.3572"
     y1="-339.5119"
     x2="1514.9286"
     y2="-339.5119"
     gradientUnits="userSpaceOnUse"
     gradientTransform="matrix(6.4669274,0,0,9.6773016,-9356.1743,3517.6929)" /><pattern
     y="0"
     x="0"
     height="6"
     width="6"
     patternUnits="userSpaceOnUse"
     id="EMFhbasepattern" /></defs><sodipodi:namedview
   pagecolor="#ffffff"
   bordercolor="#666666"
   borderopacity="1"
   objecttolerance="10"
   gridtolerance="10"
   guidetolerance="10"
   inkscape:pageopacity="0"
   inkscape:pageshadow="2"
   inkscape:window-width="1920"
   inkscape:window-height="986"
   id="namedview91"
   showgrid="false"
   inkscape:zoom="1.3037307"
   inkscape:cx="55.636868"
   inkscape:cy="256.72862"
   inkscape:window-x="-11"
   inkscape:window-y="-11"
   inkscape:window-maximized="1"
   inkscape:current-layer="g1046" />























<g
   id="g60">
</g>
<g
   id="g62">
</g>
<g
   id="g64">
</g>
<g
   id="g66">
</g>
<g
   id="g68">
</g>
<g
   id="g70">
</g>
<g
   id="g72">
</g>
<g
   id="g74">
</g>
<g
   id="g76">
</g>
<g
   id="g78">
</g>
<g
   id="g80">
</g>
<g
   id="g82">
</g>
<g
   id="g84">
</g>
<g
   id="g86">
</g>
<g
   id="g88">
</g>
<g
   id="g1046"
   transform="matrix(0.55886315,0,0,0.55886315,157.54779,132.77619)"><g
   transform="matrix(0.96103252,0,0,0.96103252,-39.922555,-56.513854)"
   id="g901"><path
     inkscape:connector-curvature="0"
     id="path2-9"
     d="M 360.21,344.177 H 151.79 c -17.709,0 -32.065,14.356 -32.065,32.065 v 40.081 h 272.548 v -40.081 c 10e-4,-17.709 -14.355,-32.065 -32.063,-32.065 z"
     style="fill:#ff8087" /><path
     inkscape:connector-curvature="0"
     id="path4"
     d="m 280.048,71.629 h -48.097 c -17.709,0 -32.064,-14.356 -32.064,-32.064 v 0 c 0,-17.709 14.356,-32.064 32.064,-32.064 h 48.097 c 17.709,0 32.064,14.356 32.064,32.064 v 0 c 10e-4,17.708 -14.355,32.064 -32.064,32.064 z"
     style="fill:#ffe17d" /><path
     inkscape:connector-curvature="0"
     id="path6"
     d="m 408.283,404.997 -82.792,-29.221 c -12.82,-4.525 -21.393,-16.642 -21.393,-30.237 v -41.443 h -96.194 v 41.443 c 0,13.595 -8.573,25.712 -21.393,30.237 l -82.792,29.221 C 84.49,411.784 71.63,429.959 71.63,450.351 V 504.5 h 368.742 v -54.148 c -0.001,-20.393 -12.86,-38.568 -32.089,-45.355 z"
     style="fill:#e3aa75" /><path
     inkscape:connector-curvature="0"
     id="path8"
     d="M 408.283,404.997 333.92,378.751 c -8.378,35.317 -40.041,61.62 -77.919,61.62 -37.878,0 -69.541,-26.303 -77.919,-61.62 l -74.363,26.246 C 84.489,411.784 71.63,429.96 71.63,450.352 V 504.5 h 368.742 v -54.148 c -0.001,-20.392 -12.861,-38.568 -32.089,-45.355 z"
     style="fill:#9c969e" /><path
     inkscape:connector-curvature="0"
     id="path10"
     d="m 207.903,349.953 c 14.8,6.544 31.063,10.257 48.097,10.257 17.034,0 33.296,-3.713 48.097,-10.257 v -45.856 h -96.194 z"
     style="fill:#d29b6e" /><path
     inkscape:connector-curvature="0"
     id="path12"
     d="m 372.234,199.887 h -5.611 L 360.21,167.822 H 151.79 l -6.413,32.065 h -5.611 c -11.068,0 -20.04,8.972 -20.04,20.04 0,11.067 8.972,20.04 20.04,20.04 h 12.429 c 4.106,53.796 48.958,96.194 103.805,96.194 54.847,0 99.699,-42.398 103.805,-96.194 h 12.429 c 11.068,0 20.04,-8.973 20.04,-20.04 0,-11.068 -8.972,-20.04 -20.04,-20.04 z"
     style="fill:#f5b97d" /><path
     inkscape:connector-curvature="0"
     id="path14"
     d="m 151.79,151.79 -6.871,48.097 h -4.009 c -10.482,0 -20.035,7.542 -21.08,17.972 -1.202,11.996 8.186,22.109 19.936,22.109 h 12.429 c 4.106,53.796 48.958,96.194 103.805,96.194 5.484,0 10.83,-0.534 16.083,-1.35 -46.353,-7.155 -82.659,-44.744 -87.643,-91.764 -1.994,-18.814 13.057,-35.145 31.976,-35.145 l 87.681,0.001 c 13.282,0 24.048,-10.767 24.048,-24.048 V 151.79 Z"
     style="fill:#e3aa75" /><path
     inkscape:connector-curvature="0"
     id="path16"
     d="m 281.551,63.613 h -51.103 c -61.151,0 -110.723,46.656 -110.723,104.21 v 52.105 c 0,-11.096 9.581,-20.085 21.381,-20.04 2.321,0.009 4.17,-1.824 4.17,-4.008 v -4.008 c 0,-4.427 3.813,-8.016 8.517,-8.016 h 112.184 c 4.518,0 8.85,-1.689 12.045,-4.696 l 18.442,-17.358 c 4.681,-4.406 12.68,-2.321 14.285,3.724 l 3.256,12.257 c 0.948,3.569 4.355,6.072 8.263,6.072 h 35.936 c 4.704,0 8.517,3.589 8.517,8.016 v 4.022 c 0,2.177 1.843,4.005 4.156,3.995 11.806,-0.053 21.396,8.939 21.396,20.04 V 167.823 C 392.274,110.269 342.702,63.613 281.551,63.613 Z"
     style="fill:#ffd164" /><path
     inkscape:connector-curvature="0"
     id="path18-5"
     d="m 281.551,63.613 h -7.65 c -24.677,9.586 -44.887,27.269 -56.796,49.578 -11.413,21.377 5.015,46.615 30.434,46.615 h 52.551 c 1.6,-0.441 3.272,-0.437 4.829,0 h 86.924 C 387.481,106.011 339.826,63.613 281.551,63.613 Z"
     style="fill:#ffe17d" /><path
     inkscape:connector-curvature="0"
     id="path20"
     d="m 155.338,386.778 c 11.764,44.66 52.307,77.642 100.662,77.642 48.355,0 88.898,-32.981 100.662,-77.642 l -22.743,-8.027 c -8.378,35.317 -40.04,61.62 -77.918,61.62 -37.878,0 -69.54,-26.303 -77.919,-61.62 z"
     style="fill:#867e88" /><g
     id="g26"><path
       inkscape:connector-curvature="0"
       id="path22-9"
       d="m 174.932,371.796 -23.181,9.273 c -4.817,1.926 -7.976,6.592 -7.976,11.782 V 504.5 h 40.081 V 377.835 c -0.001,-4.602 -4.65,-7.75 -8.924,-6.039 z"
       style="fill:#ff8087" /><path
       inkscape:connector-curvature="0"
       id="path24-9"
       d="m 337.068,371.796 23.181,9.273 c 4.817,1.926 7.977,6.592 7.977,11.782 V 504.5 H 328.145 V 377.835 c 0,-4.602 4.649,-7.75 8.923,-6.039 z"
       style="fill:#ff8087" /></g><path
     inkscape:connector-curvature="0"
     id="path28-7"
     d="m 285.316,277.371 c 2.948,-2.909 2.98,-7.657 0.071,-10.606 -2.909,-2.949 -7.658,-2.98 -10.606,-0.071 -2.738,2.701 -9.299,5.855 -18.781,5.855 -9.482,0 -16.043,-3.154 -18.781,-5.855 -2.95,-2.911 -7.698,-2.878 -10.606,0.071 -2.909,2.949 -2.877,7.697 0.071,10.606 6.46,6.373 17.419,10.178 29.316,10.178 11.897,0 22.856,-3.805 29.316,-10.178 z" /><path
     inkscape:connector-curvature="0"
     id="path30"
     d="m 207.903,208.301 c -4.142,0 -7.5,3.357 -7.5,7.5 v 8.016 c 0,4.143 3.358,7.5 7.5,7.5 4.142,0 7.5,-3.357 7.5,-7.5 v -8.016 c 0,-4.143 -3.358,-7.5 -7.5,-7.5 z" /><path
     inkscape:connector-curvature="0"
     id="path32-0"
     d="m 304.097,231.316 c 4.142,0 7.5,-3.357 7.5,-7.5 V 215.8 c 0,-4.143 -3.358,-7.5 -7.5,-7.5 -4.142,0 -7.5,3.357 -7.5,7.5 v 8.016 c 0,4.143 3.358,7.5 7.5,7.5 z" /><path
     inkscape:connector-curvature="0"
     id="path34"
     d="m 411.143,398.158 -11.368,-4.024 v -17.892 c 0,-21.816 -17.749,-39.564 -39.565,-39.564 h -48.613 v -7.86 c 29.243,-16.85 50.174,-46.561 55.03,-81.35 h 5.607 c 15.186,0 27.541,-12.354 27.541,-27.54 v -44.089 c 0,-54.486 -36.588,-100.584 -86.484,-115.026 4.081,-6.311 6.322,-13.669 6.322,-21.249 C 319.613,17.749 301.865,0 280.048,0 h -48.097 c -21.816,0 -39.564,17.749 -39.564,39.564 0,7.58 2.242,14.938 6.322,21.249 -49.896,14.442 -86.484,60.54 -86.484,115.026 v 44.089 c 0,15.186 12.354,27.54 27.541,27.54 h 5.607 c 4.856,34.789 25.787,64.501 55.03,81.35 v 7.86 H 151.79 c -21.816,0 -39.565,17.748 -39.565,39.564 v 17.893 l -11.362,4.021 C 78.676,405.986 63.77,427.055 63.77,450.583 V 504.5 c 0,4.143 3.358,7.5 7.5,7.5 4.142,0 7.5,-3.357 7.5,-7.5 v -53.917 c 0,-17.18 10.885,-32.564 27.092,-38.284 l 30.412,-10.764 V 504.5 c 0,4.143 3.358,7.5 7.5,7.5 4.142,0 7.5,-3.357 7.5,-7.5 v -64.646 h 25.081 V 504.5 c 0,4.143 3.358,7.5 7.5,7.5 4.142,0 7.5,-3.357 7.5,-7.5 v -85.207 c 5.131,5.626 10.984,10.596 17.454,14.753 14.076,9.045 30.395,13.825 47.191,13.825 16.796,0 33.115,-4.78 47.191,-13.825 6.469,-4.157 12.323,-9.127 17.454,-14.753 v 29.094 c 0,4.143 3.358,7.5 7.5,7.5 4.142,0 7.5,-3.357 7.5,-7.5 v -8.532 h 25.081 V 504.5 c 0,4.143 3.358,7.5 7.5,7.5 4.142,0 7.5,-3.357 7.5,-7.5 V 401.535 l 30.418,10.766 c 16.201,5.718 27.085,21.103 27.085,38.282 V 504.5 c 0,4.143 3.358,7.5 7.5,7.5 4.142,0 7.5,-3.357 7.5,-7.5 v -53.917 c 0,-23.527 -14.906,-44.597 -37.086,-52.425 z m -26.369,-21.916 v 12.583 l -10.6,-3.752 c -2.037,-4.908 -5.97,-8.902 -11.14,-10.97 l -23.181,-9.271 c -4.32,-1.729 -9.201,-1.204 -13.055,1.405 -0.637,0.431 -1.214,0.925 -1.763,1.444 l -2.413,-0.854 c -6.453,-2.284 -10.823,-8.337 -11.009,-15.149 h 48.595 c 13.546,0 24.566,11.019 24.566,24.564 z M 207.387,39.564 C 207.387,26.019 218.407,15 231.951,15 h 48.097 c 13.545,0 24.564,11.02 24.564,24.564 0,6.756 -2.754,13.013 -7.766,17.733 -5.491,-0.774 -11.097,-1.184 -16.798,-1.184 h -48.097 c -5.701,0 -11.307,0.41 -16.798,1.184 -5.012,-4.719 -7.766,-10.976 -7.766,-17.733 z m -48.096,192.388 c 0,-4.143 -3.358,-7.5 -7.5,-7.5 -4.142,0 -7.5,3.357 -7.5,7.5 0,0.172 0.006,0.344 0.007,0.516 h -4.531 c -6.915,0 -12.541,-5.625 -12.541,-12.54 0,-6.915 5.625,-12.541 12.541,-12.541 h 4.008 c 8.556,0 15.516,-6.96 15.516,-15.516 v -0.517 h 8.529 c 4.142,0 7.5,-3.357 7.5,-7.5 0,-4.143 -3.358,-7.5 -7.5,-7.5 h -16.029 c -4.142,0 -7.5,3.357 -7.5,7.5 v 8.017 c 0,0.284 -0.231,0.516 -0.516,0.516 h -4.008 c -4.515,0 -8.776,1.099 -12.541,3.033 v -19.581 c 0,-57.746 46.98,-104.726 104.726,-104.726 h 48.097 c 57.746,0 104.726,46.979 104.726,104.726 v 19.582 c -3.765,-1.935 -8.027,-3.034 -12.544,-3.034 l -3.99,0.001 c -0.055,0 -0.221,0 -0.378,-0.157 -0.152,-0.151 -0.152,-0.308 -0.152,-0.358 v -8.018 c 0,-4.143 -3.358,-7.5 -7.5,-7.5 H 317.97 l -6.596,-26.384 c -0.655,-2.621 -2.67,-4.688 -5.274,-5.408 -2.604,-0.721 -5.395,0.016 -7.305,1.924 l -29.868,29.868 h -69.039 c -4.142,0 -7.5,3.357 -7.5,7.5 0,4.143 3.358,7.5 7.5,7.5 h 72.145 c 1.989,0 3.897,-0.79 5.303,-2.196 l 22.698,-22.698 4.804,19.214 c 0.834,3.339 3.834,5.681 7.276,5.681 h 40.597 v 0.518 c 0,4.147 1.619,8.047 4.559,10.979 2.934,2.926 6.83,4.537 10.969,4.537 0.001,0 0.002,0 0.003,0 l 3.993,-10e-4 c 6.915,0 12.541,5.626 12.541,12.541 0,6.915 -5.625,12.54 -12.541,12.54 h -4.531 c 10e-4,-0.172 0.007,-0.343 0.007,-0.516 0,-4.143 -3.358,-7.5 -7.5,-7.5 -4.142,0 -7.5,3.357 -7.5,7.5 0,53.325 -43.384,96.709 -96.709,96.709 -53.325,0 -96.711,-43.386 -96.711,-96.711 z m -32.065,144.29 c 0,-13.545 11.02,-24.564 24.565,-24.564 h 48.595 c -0.186,6.813 -4.556,12.866 -11.009,15.149 l -2.413,0.854 c -0.549,-0.519 -1.126,-1.013 -1.763,-1.444 -3.854,-2.609 -8.734,-3.136 -13.054,-1.406 l -23.182,9.272 c -5.17,2.068 -9.103,6.063 -11.14,10.97 l -10.6,3.752 z m 24.048,48.612 v -32.006 c 0,-2.134 1.28,-4.025 3.261,-4.817 l 21.819,-8.728 v 45.551 z M 256,432.871 c -27.524,0 -52.138,-15.163 -64.645,-39.678 v -11.154 l 3.026,-1.071 c 12.574,-4.45 21.022,-16.402 21.022,-29.74 v -15.204 c 12.589,4.928 26.282,7.638 40.597,7.638 14.315,0 28.007,-2.71 40.597,-7.638 v 15.204 c 0,13.338 8.448,25.29 21.022,29.74 l 3.026,1.071 v 11.154 C 308.138,417.708 283.524,432.871 256,432.871 Z m 79.645,-8.017 v -45.551 l 21.819,8.728 c 1.981,0.792 3.261,2.684 3.261,4.817 v 32.006 z" /><path
     inkscape:connector-curvature="0"
     id="path36-3"
     d="m 328.145,472.95 c -4.142,0 -7.5,3.357 -7.5,7.5 v 24.05 c 0,4.143 3.358,7.5 7.5,7.5 4.142,0 7.5,-3.357 7.5,-7.5 v -24.05 c 0,-4.142 -3.358,-7.5 -7.5,-7.5 z" /></g><rect
   y="-104.38158"
   x="-28.555799"
   height="673.03345"
   width="469.31418"
   id="rect2447-0-9"
   style="display:inline;fill:none;fill-opacity:1;stroke:url(#linearGradient2459-6-2);stroke-width:25.31489563;stroke-miterlimit:4;stroke-dasharray:none;stroke-opacity:1" /><text
   id="text2485-9"
   y="522.54254"
   x="125.21932"
   style="font-style:normal;font-weight:normal;font-size:76.99105835px;line-height:1.25;font-family:sans-serif;letter-spacing:0px;word-spacing:0px;display:inline;fill:#000000;fill-opacity:1;stroke:none;stroke-width:1.9247762"
   xml:space="preserve"><tspan
     style="stroke-width:1.9247762"
     y="522.54254"
     x="125.21932"
     id="tspan2483-7"
     sodipodi:role="line">ZOE</tspan></text>








</g></svg>