<?xml version="1.0" encoding="UTF-8" standalone="no"?>
<!-- Generator: Adobe Illustrator 19.0.0, SVG Export Plug-In . SVG Version: 6.00 Build 0)  -->

<svg
   xmlns:osb="http://www.openswatchbook.org/uri/2009/osb"
   xmlns:dc="http://purl.org/dc/elements/1.1/"
   xmlns:cc="http://creativecommons.org/ns#"
   xmlns:rdf="http://www.w3.org/1999/02/22-rdf-syntax-ns#"
   xmlns:svg="http://www.w3.org/2000/svg"
   xmlns="http://www.w3.org/2000/svg"
   xmlns:xlink="http://www.w3.org/1999/xlink"
   xmlns:sodipodi="http://sodipodi.sourceforge.net/DTD/sodipodi-0.dtd"
   xmlns:inkscape="http://www.inkscape.org/namespaces/inkscape"
   version="1.1"
   id="Capa_1"
   x="0px"
   y="0px"
   viewBox="0 0 511.999 511.999"
   style="enable-background:new 0 0 511.999 511.999;"
   xml:space="preserve"
   sodipodi:docname="68.svg"
   inkscape:version="0.92.4 (5da689c313, 2019-01-14)"><metadata
   id="metadata95"><rdf:RDF><cc:Work
       rdf:about=""><dc:format>image/svg+xml</dc:format><dc:type
         rdf:resource="http://purl.org/dc/dcmitype/StillImage" /><dc:title></dc:title></cc:Work></rdf:RDF></metadata><defs
   id="defs93"><linearGradient
     id="linearGradient2457"
     osb:paint="solid"><stop
       style="stop-color:#000000;stop-opacity:1;"
       offset="0"
       id="stop2455" /></linearGradient><linearGradient
     inkscape:collect="always"
     xlink:href="#linearGradient2457"
     id="linearGradient2459-6-2"
     x1="1442.3572"
     y1="-339.5119"
     x2="1514.9286"
     y2="-339.5119"
     gradientUnits="userSpaceOnUse"
     gradientTransform="matrix(6.4669274,0,0,9.6773016,-9356.1743,3517.6929)" /><pattern
     y="0"
     x="0"
     height="6"
     width="6"
     patternUnits="userSpaceOnUse"
     id="EMFhbasepattern" /></defs><sodipodi:namedview
   pagecolor="#ffffff"
   bordercolor="#666666"
   borderopacity="1"
   objecttolerance="10"
   gridtolerance="10"
   guidetolerance="10"
   inkscape:pageopacity="0"
   inkscape:pageshadow="2"
   inkscape:window-width="1920"
   inkscape:window-height="986"
   id="namedview91"
   showgrid="false"
   inkscape:zoom="1.3037307"
   inkscape:cx="55.636868"
   inkscape:cy="256.72862"
   inkscape:window-x="-11"
   inkscape:window-y="-11"
   inkscape:window-maximized="1"
   inkscape:current-layer="g1046" />























<g
   id="g60">
</g>
<g
   id="g62">
</g>
<g
   id="g64">
</g>
<g
   id="g66">
</g>
<g
   id="g68">
</g>
<g
   id="g70">
</g>
<g
   id="g72">
</g>
<g
   id="g74">
</g>
<g
   id="g76">
</g>
<g
   id="g78">
</g>
<g
   id="g80">
</g>
<g
   id="g82">
</g>
<g
   id="g84">
</g>
<g
   id="g86">
</g>
<g
   id="g88">
</g>
<g
   id="g1046"
   transform="matrix(0.55886315,0,0,0.55886315,157.54779,132.77619)"><g
   transform="matrix(0.95957931,0,0,0.95957931,-39.550534,-55.139902)"
   id="g883"><path
     inkscape:connector-curvature="0"
     id="path2"
     d="m 408.281,380.914 -82.792,-29.221 c -12.82,-4.525 -21.393,-16.642 -21.393,-30.237 v -41.408 h -96.194 v 41.408 c 0,13.595 -8.573,25.712 -21.393,30.236 l -82.793,29.221 C 84.487,387.7 71.627,405.875 71.627,426.267 V 504.5 H 440.37 v -78.231 c 10e-4,-20.393 -12.859,-38.568 -32.089,-45.355 z"
     style="fill:#e3aa75" /><path
     inkscape:connector-curvature="0"
     id="path4-1"
     d="m 408.281,380.913 -66.24,-23.379 -7.142,17.853 c -13.857,34.642 -44.775,56.967 -78.893,56.967 h -0.014 c -34.118,0 -65.036,-22.325 -78.893,-56.967 l -7.142,-17.853 -66.24,23.379 C 84.487,387.7 71.628,405.876 71.628,426.268 V 504.5 H 440.37 v -78.23 c 10e-4,-20.393 -12.859,-38.569 -32.089,-45.357 z"
     style="fill:#ffd164" /><path
     inkscape:connector-curvature="0"
     id="path6-4"
     d="m 256,320.129 c 17.034,0 33.296,-3.712 48.097,-10.257 v -29.824 h -96.194 v 29.824 c 14.801,6.545 31.063,10.257 48.097,10.257 z"
     style="fill:#d29b6e" /><path
     inkscape:connector-curvature="0"
     id="path8-0"
     d="M 372.234,167.823 H 360.21 V 79.645 H 151.79 v 112.226 c 0,57.553 46.656,104.21 104.21,104.21 52.087,0 95.121,-38.257 102.851,-88.177 h 13.382 c 11.068,0 20.04,-8.973 20.04,-20.04 10e-4,-11.069 -8.971,-20.041 -20.039,-20.041 z"
     style="fill:#f5b97d" /><g
     id="g14"><rect
       id="rect10"
       height="24.049999"
       width="72.139999"
       style="fill:#e3aa75"
       y="151.78999"
       x="272.03" /><path
       inkscape:connector-curvature="0"
       id="path12-3"
       d="M 334.697,79.645 H 151.79 v 112.226 c 0,57.553 46.656,104.21 104.21,104.21 5.448,0 10.752,-0.552 15.968,-1.368 -36.616,-5.693 -66.947,-30.383 -80.493,-63.702 -4.382,-10.776 0.182,-23.22 10.218,-29.103 32.13,-18.832 70.603,-45.64 105.911,-81.548 11.537,-11.733 20.632,-25.439 27.093,-40.715 z"
       style="fill:#e3aa75" /></g><path
     inkscape:connector-curvature="0"
     id="path16-3"
     d="m 312.113,23.532 h -24.048 v 64.129 c 38.411,84.503 88.177,84.185 88.177,84.185 V 87.661 c 0,-35.417 -28.712,-64.129 -64.129,-64.129 z"
     style="fill:#a06e50" /><path
     inkscape:connector-curvature="0"
     id="path18"
     d="M 307.91,24.732 C 302.574,17.824 295.253,12.436 286.335,9.663 281.817,8.258 277.013,7.5 272.032,7.5 H 256 c -66.003,0 -129.928,56.113 -129.928,128.258 0,32.472 -2.125,53.982 -3.916,66.342 -0.846,5.843 4.973,10.331 10.405,8.02 28.222,-12.009 97.937,-45.646 157.895,-106.622 9.521,-9.683 17.088,-21.155 22.318,-33.686 6.206,-14.868 4.986,-32.33 -4.864,-45.08 z"
     style="fill:#8c5f4b" /><path
     inkscape:connector-curvature="0"
     id="path20"
     d="m 410.779,373.876 -82.793,-29.221 c -9.803,-3.46 -16.389,-12.769 -16.389,-23.164 v -32.71 c 7.322,-4.208 14.205,-9.267 20.504,-15.131 16.898,-15.731 28.357,-36.026 33.12,-58.247 h 7.014 c 15.186,0 27.54,-12.354 27.54,-27.54 0,-11.079 -6.579,-20.645 -16.032,-25.012 v -75.19 c 0,-39.496 -32.133,-71.629 -71.629,-71.629 H 310.36 C 304.464,9.87 297.066,5.146 288.561,2.5 283.223,0.841 277.662,0 272.033,0 H 256 c -34.146,0 -68.73,14.266 -94.884,39.141 -27.435,26.093 -42.544,60.405 -42.544,96.617 0,54.063 -6.028,77.316 -6.085,77.528 -0.73,2.693 0.094,5.569 2.141,7.466 1.409,1.307 3.237,1.999 5.099,1.999 0.841,0 1.689,-0.142 2.508,-0.432 0.634,-0.225 9.563,-3.427 23.931,-10.003 4.414,23.836 16.497,45.64 34.628,62.156 6.051,5.512 12.631,10.291 19.61,14.3 v 32.718 c 0,10.396 -6.586,19.704 -16.389,23.164 l -82.793,29.221 c -22.187,7.831 -37.093,28.899 -37.093,52.428 V 504.5 c 0,4.143 3.357,7.5 7.5,7.5 4.143,0 7.5,-3.357 7.5,-7.5 v -78.196 c 0,-6.841 1.731,-13.394 4.83,-19.169 l 7.988,6.847 c 1.414,1.212 3.15,1.806 4.877,1.806 2.114,0 4.215,-0.889 5.698,-2.619 2.695,-3.145 2.331,-7.88 -0.813,-10.575 l -8.34,-7.148 c 3.721,-3.184 8.047,-5.731 12.844,-7.424 l 56.845,-20.063 7.188,16.173 c 15.045,33.851 48.702,55.724 85.76,55.724 37.044,0 70.701,-21.873 85.746,-55.724 l 7.188,-16.173 56.845,20.063 c 4.798,1.693 9.124,4.24 12.844,7.424 l -36.072,30.918 c -8.78,7.525 -13.816,18.475 -13.816,30.04 V 504.5 c 0,4.143 3.357,7.5 7.5,7.5 4.143,0 7.5,-3.357 7.5,-7.5 v -48.097 c 0,-7.181 3.127,-13.979 8.578,-18.651 l 35.72,-30.617 c 3.1,5.775 4.831,12.328 4.831,19.169 V 504.5 c 0,4.143 3.357,7.5 7.5,7.5 4.143,0 7.5,-3.357 7.5,-7.5 v -78.196 c 10e-4,-23.529 -14.905,-44.597 -37.091,-52.428 z m -281.2,-170.672 c 1.848,-12.736 3.993,-34.597 3.993,-67.446 0,-32.063 13.453,-62.515 37.882,-85.749 C 194.847,27.761 225.663,15 256,15 h 16.032 c 4.119,0 8.182,0.613 12.075,1.823 16.739,5.207 27.498,21.872 26.165,40.526 -0.296,4.132 2.814,7.721 6.945,8.016 4.147,0.31 7.721,-2.814 8.016,-6.945 0.679,-9.495 -0.967,-18.625 -4.493,-26.731 27.146,4.167 48.001,27.68 48.001,55.973 v 67.517 c -14.908,-6.665 -43.955,-22.936 -64.61,-55.15 2.317,-2.494 4.62,-5.023 6.898,-7.603 2.742,-3.105 2.447,-7.845 -0.658,-10.586 -3.106,-2.742 -7.846,-2.445 -10.586,0.658 -61.547,69.715 -140.212,107.875 -170.206,120.706 z m 135.028,-50.353 1.278,8.945 c -3.099,-1.117 -6.431,-1.723 -9.885,-1.723 -3.454,0 -6.786,0.606 -9.885,1.723 l 1.278,-8.945 c 0.074,-0.52 0.091,-1.041 0.056,-1.556 15.206,-11.664 30.858,-25.05 46.009,-40.199 9.187,13.651 19.645,24.563 29.918,33.195 h -11.263 -16.032 -24.049 c -2.174,0 -4.241,0.943 -5.666,2.586 -1.425,1.643 -2.066,3.821 -1.759,5.974 z m 31.474,6.439 h 16.032 23.417 l -3.844,26.906 c -1.165,8.152 -8.146,14.208 -16.382,14.208 h -7.447 c -11.042,0 -20.663,-7.505 -23.615,-17.902 -0.001,-0.005 -0.002,-0.01 -0.003,-0.016 -0.288,-1.281 -0.549,-2.563 -0.742,-3.861 -0.829,-5.592 -2.818,-19.334 -2.818,-19.334 z m -87.948,32.061 c 4.105,-0.123 7.27,-3.704 7.27,-7.811 V 174 c 4.971,-3.251 10.083,-6.713 15.3,-10.39 l -2.243,15.701 c -0.048,0.339 -0.798,3.56 -1.044,4.292 -3.3,9.82 -12.625,16.799 -23.273,16.799 h -7.447 c -5.396,0 -10.396,-2.694 -13.454,-6.935 1.054,-0.589 2.116,-1.185 3.188,-1.793 4.412,-2.502 9.091,-5.242 13.974,-8.211 v 0.389 c -0.001,4.221 3.482,7.626 7.729,7.499 z m -17.238,72.034 c -16.707,-15.22 -27.482,-35.617 -30.632,-57.799 3.099,-1.539 6.336,-3.183 9.713,-4.948 5.651,9.062 15.592,14.765 26.719,14.765 h 7.447 c 18.452,0 34.475,-12.996 38.556,-30.723 1.788,-5.65 7.136,-9.608 13.301,-9.608 6.165,0 11.513,3.958 13.301,9.608 4.082,17.728 20.105,30.723 38.556,30.723 h 7.447 c 15.598,0 29.024,-11.645 31.231,-27.087 l 3.657,-25.602 c 1.103,0.61 2.18,1.19 3.23,1.741 1.98,6.291 7.866,10.867 14.802,10.867 h 4.009 c 6.915,0 12.54,5.626 12.54,12.541 0,6.915 -5.625,12.54 -12.54,12.54 h -4.848 c 0.285,-4.109 -2.797,-7.685 -6.911,-7.998 -4.147,-0.315 -7.732,2.78 -8.047,6.91 -1.843,24.232 -12.691,46.732 -30.548,63.356 -17.947,16.708 -41.344,25.909 -65.88,25.909 -24.145,0.001 -47.268,-8.947 -65.103,-25.195 z m 137.151,114.654 c -12.64,28.439 -40.917,46.815 -72.053,46.815 -31.122,0 -59.399,-18.376 -72.039,-46.815 l -6.707,-15.089 11.759,-4.15 c 15.788,-5.572 26.396,-20.565 26.396,-37.309 v -25.529 c 12.814,4.997 26.555,7.619 40.597,7.619 14.059,0 27.793,-2.619 40.597,-7.611 v 25.521 c 0,16.743 10.608,31.736 26.396,37.309 l 11.759,4.15 z" /><path
     inkscape:connector-curvature="0"
     id="path22"
     d="m 285.316,237.29 c 2.948,-2.909 2.98,-7.658 0.071,-10.606 -2.91,-2.948 -7.658,-2.981 -10.606,-0.071 -2.737,2.701 -9.299,5.855 -18.781,5.855 -9.482,0 -16.044,-3.154 -18.781,-5.855 -2.946,-2.907 -7.695,-2.878 -10.606,0.071 -2.909,2.948 -2.877,7.697 0.071,10.606 6.459,6.373 17.419,10.178 29.316,10.178 11.897,0 22.857,-3.805 29.316,-10.178 z" /><path
     inkscape:connector-curvature="0"
     id="path24"
     d="m 304.097,191.354 c 4.143,0 7.5,-3.357 7.5,-7.5 v -8.016 c 0,-4.143 -3.357,-7.5 -7.5,-7.5 -4.143,0 -7.5,3.357 -7.5,7.5 v 8.016 c 0,4.143 3.357,7.5 7.5,7.5 z" /><path
     inkscape:connector-curvature="0"
     id="path26"
     d="m 129.441,426.363 -4.848,-4.155 c -3.145,-2.697 -7.88,-2.331 -10.575,0.813 -2.695,3.144 -2.332,7.88 0.813,10.575 l 4.848,4.155 c 5.451,4.673 8.578,11.471 8.578,18.651 V 504.5 c 0,4.143 3.357,7.5 7.5,7.5 4.143,0 7.5,-3.357 7.5,-7.5 v -48.097 c 0.001,-11.565 -5.035,-22.514 -13.816,-30.04 z" /></g><rect
   y="-104.38158"
   x="-28.555799"
   height="673.03345"
   width="469.31418"
   id="rect2447-0-9"
   style="display:inline;fill:none;fill-opacity:1;stroke:url(#linearGradient2459-6-2);stroke-width:25.31489563;stroke-miterlimit:4;stroke-dasharray:none;stroke-opacity:1" /><text
   id="text2485-9"
   y="522.54254"
   x="96.065735"
   style="font-style:normal;font-weight:normal;font-size:76.99105835px;line-height:1.25;font-family:sans-serif;letter-spacing:0px;word-spacing:0px;display:inline;fill:#000000;fill-opacity:1;stroke:none;stroke-width:1.9247762"
   xml:space="preserve"><tspan
     style="stroke-width:1.9247762"
     y="522.54254"
     x="96.065735"
     id="tspan2483-7"
     sodipodi:role="line">JULIA</tspan></text>








</g></svg>