<?xml version="1.0" encoding="UTF-8" standalone="no"?>
<!-- Generator: Adobe Illustrator 19.0.0, SVG Export Plug-In . SVG Version: 6.00 Build 0)  -->

<svg
   xmlns:osb="http://www.openswatchbook.org/uri/2009/osb"
   xmlns:dc="http://purl.org/dc/elements/1.1/"
   xmlns:cc="http://creativecommons.org/ns#"
   xmlns:rdf="http://www.w3.org/1999/02/22-rdf-syntax-ns#"
   xmlns:svg="http://www.w3.org/2000/svg"
   xmlns="http://www.w3.org/2000/svg"
   xmlns:xlink="http://www.w3.org/1999/xlink"
   xmlns:sodipodi="http://sodipodi.sourceforge.net/DTD/sodipodi-0.dtd"
   xmlns:inkscape="http://www.inkscape.org/namespaces/inkscape"
   version="1.1"
   id="Capa_1"
   x="0px"
   y="0px"
   viewBox="0 0 511.999 511.999"
   style="enable-background:new 0 0 511.999 511.999;"
   xml:space="preserve"
   sodipodi:docname="70.svg"
   inkscape:version="0.92.4 (5da689c313, 2019-01-14)"><metadata
   id="metadata95"><rdf:RDF><cc:Work
       rdf:about=""><dc:format>image/svg+xml</dc:format><dc:type
         rdf:resource="http://purl.org/dc/dcmitype/StillImage" /><dc:title></dc:title></cc:Work></rdf:RDF></metadata><defs
   id="defs93"><linearGradient
     id="linearGradient2457"
     osb:paint="solid"><stop
       style="stop-color:#000000;stop-opacity:1;"
       offset="0"
       id="stop2455" /></linearGradient><linearGradient
     inkscape:collect="always"
     xlink:href="#linearGradient2457"
     id="linearGradient2459-6-2"
     x1="1442.3572"
     y1="-339.5119"
     x2="1514.9286"
     y2="-339.5119"
     gradientUnits="userSpaceOnUse"
     gradientTransform="matrix(6.4669274,0,0,9.6773016,-9356.1743,3517.6929)" /><pattern
     y="0"
     x="0"
     height="6"
     width="6"
     patternUnits="userSpaceOnUse"
     id="EMFhbasepattern" /></defs><sodipodi:namedview
   pagecolor="#ffffff"
   bordercolor="#666666"
   borderopacity="1"
   objecttolerance="10"
   gridtolerance="10"
   guidetolerance="10"
   inkscape:pageopacity="0"
   inkscape:pageshadow="2"
   inkscape:window-width="1920"
   inkscape:window-height="986"
   id="namedview91"
   showgrid="false"
   inkscape:zoom="1.3037307"
   inkscape:cx="55.636868"
   inkscape:cy="256.72862"
   inkscape:window-x="-11"
   inkscape:window-y="-11"
   inkscape:window-maximized="1"
   inkscape:current-layer="g1046" />























<g
   id="g60">
</g>
<g
   id="g62">
</g>
<g
   id="g64">
</g>
<g
   id="g66">
</g>
<g
   id="g68">
</g>
<g
   id="g70">
</g>
<g
   id="g72">
</g>
<g
   id="g74">
</g>
<g
   id="g76">
</g>
<g
   id="g78">
</g>
<g
   id="g80">
</g>
<g
   id="g82">
</g>
<g
   id="g84">
</g>
<g
   id="g86">
</g>
<g
   id="g88">
</g>
<g
   id="g1046"
   transform="matrix(0.55886315,0,0,0.55886315,157.54779,132.77619)"><g
   transform="matrix(0.93652417,0,0,0.93652417,-33.649834,-44.019415)"
   id="g901"><path
     inkscape:connector-curvature="0"
     id="path2"
     d="m 291.502,283.611 h -71 c -76.246,0 -138.055,-61.81 -138.055,-138.055 v 0 C 82.446,69.31 144.256,7.5 220.502,7.5 h 71 c 76.246,0 138.055,61.81 138.055,138.055 v 0 c 0,76.247 -61.809,138.056 -138.055,138.056 z"
     style="fill:#5a4650" /><path
     inkscape:connector-curvature="0"
     id="path4-7"
     d="m 405.695,374.508 -77.482,-22.789 c -10.072,-2.962 -16.989,-12.206 -16.989,-22.705 V 291.5 H 200.78 v 37.514 c 0,10.499 -6.917,19.743 -16.989,22.705 l -77.482,22.789 c -23.502,6.912 -39.64,28.481 -39.64,52.978 V 504.5 h 378.667 v -77.014 c -0.001,-24.497 -16.14,-46.066 -39.641,-52.978 z"
     style="fill:#b67f5f" /><path
     inkscape:connector-curvature="0"
     id="path6-2"
     d="m 200.78,316.993 c 16.574,8.853 35.369,13.951 55.222,13.951 19.853,0 38.649,-5.098 55.222,-13.951 V 291.5 H 200.78 Z"
     style="fill:#a06e50" /><path
     inkscape:connector-curvature="0"
     id="path8"
     d="m 370.391,173.167 h -11.833 c -8.713,0 -15.778,-7.064 -15.778,-15.778 v -39.444 c 0,-8.714 -7.065,-15.778 -15.778,-15.778 h -142 c -8.713,0 -15.778,7.064 -15.778,15.778 v 39.444 c 0,8.714 -7.065,15.778 -15.778,15.778 h -11.833 c -10.892,0 -19.722,8.83 -19.722,19.722 0,10.892 8.83,19.722 19.722,19.722 h 12.232 c 4.041,52.941 48.181,94.667 102.157,94.667 53.976,0 98.116,-41.725 102.157,-94.667 h 12.232 c 10.892,0 19.722,-8.83 19.722,-19.722 0,-10.893 -8.83,-19.722 -19.722,-19.722 z"
     style="fill:#cd916e" /><path
     inkscape:connector-curvature="0"
     id="path10-9"
     d="m 185.002,102.167 c -8.713,0 -15.778,7.064 -15.778,15.778 v 39.444 c 0,8.714 -7.065,15.778 -15.778,15.778 h -11.833 c -10.892,0 -19.722,8.83 -19.722,19.722 0,10.892 8.83,19.722 19.722,19.722 h 12.232 c 4.041,52.941 48.181,94.667 102.157,94.667 5.397,0 10.658,-0.526 15.828,-1.329 C 222.677,298.363 185.002,256 185.002,204.723 V 157.39 c 0,-17.428 14.127,-31.556 31.556,-31.556 h 94.667 c 8.713,0 15.778,-7.064 15.778,-15.778 v -7.889 z"
     style="fill:#b67f5f" /><path
     inkscape:connector-curvature="0"
     id="path12-2"
     d="m 311.224,504.5 h 134.111 v -77.014 c 0,-24.497 -16.139,-46.066 -39.64,-52.978 l -77.482,-22.789 c -9.444,-2.778 -16.035,-11.096 -16.831,-20.774 h -0.158 z"
     style="fill:#6e5a64" /><path
     inkscape:connector-curvature="0"
     id="path14-4"
     d="m 358.557,504.5 13.57,-61.063 c 1.344,-6.05 -0.977,-12.326 -5.935,-16.045 l -15.938,-11.954 c -4.609,-3.457 -6.967,-9.15 -6.153,-14.854 l 5.608,-39.259 c 0.649,-4.542 -0.662,-9.155 -3.708,-12.586 -6.341,-7.143 -18.751,-18.419 -34.778,-19.726 V 504.5 Z"
     style="fill:#5a4650" /><path
     inkscape:connector-curvature="0"
     id="path16-0"
     d="M 200.78,504.5 H 66.668 v -77.014 c 0,-24.497 16.139,-46.066 39.64,-52.978 l 77.482,-22.789 c 9.444,-2.778 16.035,-11.096 16.831,-20.774 h 0.158 V 504.5 Z"
     style="fill:#6e5a64" /><path
     inkscape:connector-curvature="0"
     id="path18"
     d="m 153.446,504.5 -13.57,-61.063 c -1.344,-6.05 0.977,-12.326 5.935,-16.045 l 15.938,-11.954 c 4.609,-3.457 6.967,-9.15 6.153,-14.854 l -5.608,-39.259 c -0.649,-4.542 0.662,-9.155 3.708,-12.586 6.341,-7.143 18.751,-18.419 34.778,-19.726 V 504.5 Z"
     style="fill:#5a4650" /><path
     inkscape:connector-curvature="0"
     id="path20"
     d="m 256.002,409.833 c -20.979,0 -40.218,-7.445 -55.222,-19.837 V 504.5 H 311.224 V 389.996 c -15.004,12.392 -34.243,19.837 -55.222,19.837 z"
     style="fill:#dc4655" /><path
     inkscape:connector-curvature="0"
     id="path22"
     d="m 311.224,409.336 v -41.752 c -13.026,16.123 -32.927,26.472 -55.222,26.472 -22.295,0 -42.196,-10.349 -55.222,-26.472 v 41.752 c 15.961,10.252 34.885,16.275 55.222,16.275 20.337,0 39.261,-6.023 55.222,-16.275 z"
     style="fill:#ff8087" /><g
     id="g28"><path
       inkscape:connector-curvature="0"
       id="path24"
       d="m 207.654,216.936 17.903,-6.713 c 8.823,-3.308 14.667,-11.743 14.667,-21.165 v -15.891 h -40.507 c -12.484,0 -22.604,10.12 -22.604,22.604 v 0 c 0,15.782 15.763,26.707 30.541,21.165 z"
       style="fill:#e6646e" /><path
       inkscape:connector-curvature="0"
       id="path26"
       d="m 304.35,216.936 -17.903,-6.713 C 277.624,206.915 271.78,198.48 271.78,189.058 v -15.891 h 40.507 c 12.484,0 22.604,10.12 22.604,22.604 v 0 c 0,15.782 -15.764,26.707 -30.541,21.165 z"
       style="fill:#e6646e" /></g><path
     inkscape:connector-curvature="0"
     id="path30-4"
     d="m 274.401,238.828 c -2.678,2.643 -9.104,5.728 -18.399,5.728 -9.295,0 -15.722,-3.085 -18.399,-5.728 -2.947,-2.908 -7.695,-2.878 -10.606,0.071 -2.909,2.949 -2.877,7.697 0.071,10.606 6.378,6.293 17.195,10.05 28.935,10.05 11.74,0 22.557,-3.757 28.935,-10.05 2.948,-2.909 2.98,-7.658 0.071,-10.606 -2.912,-2.949 -7.66,-2.98 -10.608,-0.071 z" /><path
     inkscape:connector-curvature="0"
     id="path32-1"
     d="m 200.779,449.667 c -4.143,0 -7.5,3.358 -7.5,7.5 V 504.5 c 0,4.142 3.357,7.5 7.5,7.5 4.143,0 7.5,-3.358 7.5,-7.5 v -47.333 c 0,-4.143 -3.357,-7.5 -7.5,-7.5 z" /><path
     inkscape:connector-curvature="0"
     id="path34-4"
     d="M 312.286,165.667 H 199.718 c -16.6,0 -30.104,13.505 -30.104,30.104 0,9.871 4.844,19.121 12.957,24.743 5.106,3.539 11.104,5.36 17.151,5.36 3.562,0 7.141,-0.631 10.566,-1.916 l 17.902,-6.713 c 11.684,-4.382 19.534,-15.709 19.534,-28.188 v -8.391 h 16.555 v 8.391 c 0,12.478 7.851,23.806 19.534,28.188 l 17.902,6.713 c 3.426,1.285 7.004,1.916 10.566,1.916 6.048,0 12.045,-1.822 17.151,-5.36 8.113,-5.623 12.957,-14.872 12.957,-24.743 10e-4,-16.6 -13.503,-30.104 -30.103,-30.104 z m -79.562,23.391 c 0,6.26 -3.938,11.944 -9.802,14.143 l -17.902,6.713 c -4.704,1.765 -9.773,1.135 -13.906,-1.728 -4.132,-2.863 -6.501,-7.388 -6.501,-12.415 0,-8.329 6.775,-15.104 15.104,-15.104 h 1.451 v 7.5 c 0,4.142 3.357,7.5 7.5,7.5 4.143,0 7.5,-3.358 7.5,-7.5 v -7.5 h 16.556 z m 88.165,19.128 c -4.132,2.863 -9.202,3.493 -13.906,1.728 L 289.081,203.2 c -5.863,-2.199 -9.802,-7.882 -9.802,-14.143 v -8.391 h 16.556 v 7.5 c 0,4.142 3.357,7.5 7.5,7.5 4.143,0 7.5,-3.358 7.5,-7.5 v -7.5 h 1.451 c 8.329,0 15.104,6.776 15.104,15.104 0,5.027 -2.369,9.552 -6.501,12.416 z" /><path
     inkscape:connector-curvature="0"
     id="path36-1"
     d="m 407.811,367.313 -51.476,-15.14 c -0.952,-3.083 -2.544,-5.955 -4.726,-8.413 -5.927,-6.677 -17.51,-17.48 -32.886,-21.124 V 295.1 c 4.042,-2.814 7.888,-5.89 11.511,-9.207 C 393.167,268.562 437.056,210.966 437.056,145.555 437.057,65.296 371.761,0 291.502,0 h -71 C 140.242,0 74.946,65.296 74.946,145.556 c 0,65.341 43.91,123.01 106.814,140.339 3.625,3.319 7.474,6.397 11.519,9.212 v 27.53 c -15.376,3.644 -26.958,14.447 -32.886,21.125 -2.182,2.458 -3.773,5.33 -4.726,8.412 l -51.476,15.14 c -26.509,7.797 -45.023,32.541 -45.023,60.173 V 504.5 c 0,4.142 3.357,7.5 7.5,7.5 4.143,0 7.5,-3.358 7.5,-7.5 v -77.014 c 0,-21.024 14.087,-39.851 34.256,-45.783 l 47.221,-13.888 4.833,33.83 c 0.428,2.993 -0.81,5.979 -3.229,7.793 l -15.938,11.954 c -7.299,5.475 -10.736,14.767 -8.757,23.672 l 13.569,61.063 c 0.776,3.496 3.876,5.875 7.314,5.875 0.539,0 1.086,-0.058 1.634,-0.18 4.044,-0.898 6.593,-4.905 5.694,-8.948 l -13.569,-61.063 c -0.704,-3.167 0.519,-6.471 3.114,-8.417 l 15.938,-11.953 c 6.802,-5.101 10.28,-13.498 9.078,-21.915 l -5.608,-39.26 c -0.346,-2.417 0.344,-4.803 1.891,-6.545 4.188,-4.717 11.902,-12.052 21.669,-15.461 v 87.354 c 0,4.142 3.357,7.5 7.5,7.5 4.143,0 7.5,-3.358 7.5,-7.5 v -3.467 c 14.865,7.194 31.133,10.966 47.723,10.966 16.59,0 32.857,-3.772 47.723,-10.966 V 504.5 c 0,4.142 3.357,7.5 7.5,7.5 4.143,0 7.5,-3.358 7.5,-7.5 V 338.258 c 9.767,3.409 17.481,10.744 21.669,15.46 1.547,1.743 2.236,4.129 1.891,6.547 l -5.608,39.259 c -1.202,8.417 2.276,16.813 9.078,21.914 l 15.938,11.954 c 2.596,1.947 3.818,5.251 3.114,8.418 l -13.569,61.063 c -0.898,4.043 1.65,8.05 5.694,8.948 0.548,0.122 1.095,0.18 1.634,0.18 3.438,0 6.538,-2.379 7.314,-5.875 l 13.569,-61.063 c 1.979,-8.906 -1.458,-18.198 -8.757,-23.672 l -15.938,-11.954 c -2.419,-1.813 -3.656,-4.8 -3.229,-7.792 l 4.833,-33.831 47.221,13.888 c 20.169,5.932 34.256,24.759 34.256,45.783 V 504.5 c 0,4.142 3.357,7.5 7.5,7.5 4.143,0 7.5,-3.358 7.5,-7.5 v -77.014 c 10e-4,-27.632 -18.514,-52.377 -45.023,-60.173 z M 89.946,145.555 C 89.946,73.567 148.513,15 220.502,15 h 71 c 71.988,0 130.556,58.567 130.556,130.556 0,50.177 -28.791,95.224 -72.432,116.94 7.842,-12.661 13.194,-27.017 15.354,-42.385 h 4.285 c 14.446,0 26.836,-10.736 28.208,-24.441 0.769,-7.682 -1.744,-15.351 -6.894,-21.042 -5.154,-5.695 -12.513,-8.961 -20.189,-8.961 h -11.833 c -4.564,0 -8.278,-3.713 -8.278,-8.278 v -39.444 c 0,-12.835 -10.442,-23.278 -23.277,-23.278 h -7.888 c -4.143,0 -7.5,3.358 -7.5,7.5 0,4.142 3.357,7.5 7.5,7.5 h 7.888 c 4.564,0 8.277,3.713 8.277,8.278 v 39.444 c 0,12.835 10.442,23.278 23.278,23.278 h 11.833 c 3.447,0 6.752,1.467 9.066,4.026 2.346,2.592 3.443,5.96 3.091,9.483 -0.613,6.132 -6.448,10.936 -13.282,10.936 h -3.212 v -0.313 c 0,-4.141 -3.356,-7.499 -7.497,-7.5 -10e-4,0 -0.002,0 -0.003,0 -4.14,0 -7.497,3.354 -7.5,7.495 -0.038,52.375 -42.678,94.985 -95.052,94.985 -52.414,0 -95.056,-42.642 -95.056,-95.056 0,-4.142 -3.357,-7.5 -7.5,-7.5 -4.143,0 -7.5,3.358 -7.5,7.5 v 0.389 h -4.333 c -3.447,0 -6.752,-1.467 -9.067,-4.026 -2.346,-2.592 -3.443,-5.96 -3.09,-9.483 0.614,-6.132 6.449,-10.935 13.283,-10.935 h 10.707 c 12.836,0 23.278,-10.442 23.278,-23.278 v -39.444 c 0,-4.564 3.713,-8.278 8.277,-8.278 h 102.556 c 4.143,0 7.5,-3.358 7.5,-7.5 0,-4.142 -3.357,-7.5 -7.5,-7.5 H 185.002 c -12.835,0 -23.277,10.442 -23.277,23.278 v 39.444 c 0,4.564 -3.714,8.278 -8.278,8.278 H 142.74 c -14.445,0 -26.836,10.735 -28.209,24.44 -0.77,7.681 1.743,15.351 6.894,21.042 5.153,5.696 12.512,8.962 20.189,8.962 h 5.405 c 2.159,15.363 7.508,29.716 15.345,42.373 -43.62,-21.731 -72.418,-66.813 -72.418,-116.93 z m 166.056,169.223 c 17.087,0 33.277,-3.922 47.723,-10.905 v 60.998 c -12.09,13.804 -29.331,21.686 -47.723,21.686 -18.392,0 -35.633,-7.881 -47.723,-21.686 v -60.993 c 14.445,6.98 30.634,10.9 47.723,10.9 z m 0,103.333 c -16.785,0 -33.196,-4.468 -47.723,-12.941 v -19.804 c 13.561,10.427 30.222,16.19 47.723,16.19 17.501,0 34.162,-5.763 47.723,-16.19 v 19.804 c -14.527,8.473 -30.939,12.941 -47.723,12.941 z" /></g><rect
   y="-104.38158"
   x="-28.555799"
   height="673.03345"
   width="469.31418"
   id="rect2447-0-9"
   style="display:inline;fill:none;fill-opacity:1;stroke:url(#linearGradient2459-6-2);stroke-width:25.31489563;stroke-miterlimit:4;stroke-dasharray:none;stroke-opacity:1" /><text
   id="text2485-9"
   y="522.54254"
   x="91.930466"
   style="font-style:normal;font-weight:normal;font-size:76.99105835px;line-height:1.25;font-family:sans-serif;letter-spacing:0px;word-spacing:0px;display:inline;fill:#000000;fill-opacity:1;stroke:none;stroke-width:1.9247762"
   xml:space="preserve"><tspan
     style="stroke-width:1.9247762"
     y="522.54254"
     x="91.930466"
     id="tspan2483-7"
     sodipodi:role="line">ELVIS</tspan></text>








</g></svg>