<?xml version="1.0" encoding="UTF-8" standalone="no"?>
<!-- Generator: Adobe Illustrator 19.0.0, SVG Export Plug-In . SVG Version: 6.00 Build 0)  -->

<svg
   xmlns:osb="http://www.openswatchbook.org/uri/2009/osb"
   xmlns:dc="http://purl.org/dc/elements/1.1/"
   xmlns:cc="http://creativecommons.org/ns#"
   xmlns:rdf="http://www.w3.org/1999/02/22-rdf-syntax-ns#"
   xmlns:svg="http://www.w3.org/2000/svg"
   xmlns="http://www.w3.org/2000/svg"
   xmlns:xlink="http://www.w3.org/1999/xlink"
   xmlns:sodipodi="http://sodipodi.sourceforge.net/DTD/sodipodi-0.dtd"
   xmlns:inkscape="http://www.inkscape.org/namespaces/inkscape"
   version="1.1"
   id="Capa_1"
   x="0px"
   y="0px"
   viewBox="0 0 511.999 511.999"
   style="enable-background:new 0 0 511.999 511.999;"
   xml:space="preserve"
   sodipodi:docname="8.svg"
   inkscape:version="0.92.4 (5da689c313, 2019-01-14)"><metadata
   id="metadata95"><rdf:RDF><cc:Work
       rdf:about=""><dc:format>image/svg+xml</dc:format><dc:type
         rdf:resource="http://purl.org/dc/dcmitype/StillImage" /><dc:title /></cc:Work></rdf:RDF></metadata><defs
   id="defs93"><linearGradient
     id="linearGradient2457"
     osb:paint="solid"><stop
       style="stop-color:#000000;stop-opacity:1;"
       offset="0"
       id="stop2455" /></linearGradient><linearGradient
     inkscape:collect="always"
     xlink:href="#linearGradient2457"
     id="linearGradient2459-6-2"
     x1="1442.3572"
     y1="-339.5119"
     x2="1514.9286"
     y2="-339.5119"
     gradientUnits="userSpaceOnUse"
     gradientTransform="matrix(6.4669274,0,0,9.6773016,-9356.1743,3517.6929)" /></defs><sodipodi:namedview
   pagecolor="#ffffff"
   bordercolor="#666666"
   borderopacity="1"
   objecttolerance="10"
   gridtolerance="10"
   guidetolerance="10"
   inkscape:pageopacity="0"
   inkscape:pageshadow="2"
   inkscape:window-width="1920"
   inkscape:window-height="986"
   id="namedview91"
   showgrid="false"
   inkscape:zoom="1.3037307"
   inkscape:cx="-87.797664"
   inkscape:cy="256.72861"
   inkscape:window-x="-11"
   inkscape:window-y="-11"
   inkscape:window-maximized="1"
   inkscape:current-layer="g1046" />























<g
   id="g60">
</g>
<g
   id="g62">
</g>
<g
   id="g64">
</g>
<g
   id="g66">
</g>
<g
   id="g68">
</g>
<g
   id="g70">
</g>
<g
   id="g72">
</g>
<g
   id="g74">
</g>
<g
   id="g76">
</g>
<g
   id="g78">
</g>
<g
   id="g80">
</g>
<g
   id="g82">
</g>
<g
   id="g84">
</g>
<g
   id="g86">
</g>
<g
   id="g88">
</g>
<g
   id="g1046"
   transform="matrix(0.55886315,0,0,0.55886315,157.54779,132.77619)"><rect
   y="-104.38158"
   x="-28.555799"
   height="673.03345"
   width="469.31418"
   id="rect2447-0-9"
   style="display:inline;fill:none;fill-opacity:1;stroke:url(#linearGradient2459-6-2);stroke-width:25.31489563;stroke-miterlimit:4;stroke-dasharray:none;stroke-opacity:1" /><text
   id="text2485-9"
   y="522.54254"
   x="4.8080091"
   style="font-style:normal;font-weight:normal;font-size:76.99105835px;line-height:1.25;font-family:sans-serif;letter-spacing:0px;word-spacing:0px;display:inline;fill:#000000;fill-opacity:1;stroke:none;stroke-width:1.9247762"
   xml:space="preserve"><tspan
     style="stroke-width:1.9247762"
     y="522.54254"
     x="4.8080091"
     id="tspan2483-7"
     sodipodi:role="line">PENÉLOPE</tspan></text>


</g><g
   transform="matrix(0.52308949,0,0,0.52308949,138.8193,110.26771)"
   id="g910"><path
     inkscape:connector-curvature="0"
     id="path2"
     d="M 402.704,354.968 280.007,311.686 H 231.978 L 109.281,354.968 C 86.873,362.872 71.887,384.05 71.887,407.811 V 504.5 h 368.21 v -96.689 c 0.001,-23.761 -14.985,-44.938 -37.393,-52.843 z"
     style="fill:#ffe17d" /><path
     inkscape:connector-curvature="0"
     id="path4"
     d="M 390.019,350.493 280.008,311.686 h -48.029 l -110.011,38.807 c 10.866,64.28 66.654,113.286 134.026,113.286 67.372,0 123.159,-49.006 134.025,-113.286 z"
     style="fill:#ffd164" /><path
     inkscape:connector-curvature="0"
     id="path6-0"
     d="M 255.993,311.686 H 231.978 L 109.282,354.968 C 86.874,362.873 71.888,384.05 71.888,407.811 V 504.5 h 184.105 z"
     style="fill:#a5cdff" /><path
     inkscape:connector-curvature="0"
     id="path8-3"
     d="m 231.978,311.686 -110.011,38.807 c 10.866,64.28 66.654,113.286 134.026,113.286 V 311.686 Z"
     style="fill:#8cb4eb" /><path
     inkscape:connector-curvature="0"
     id="path10-9"
     d="m 255.993,439.765 c 58.517,0 106.44,-44.88 111.499,-102.081 0.32,-3.622 -2.023,-7.029 -5.475,-8.172 -53.837,-17.825 -106.024,-17.825 -106.024,-17.825 0,0 -52.187,0 -106.024,17.825 -3.451,1.143 -5.795,4.551 -5.475,8.172 5.06,57.201 52.982,102.081 111.499,102.081 z"
     style="fill:#cdf5a0" /><path
     inkscape:connector-curvature="0"
     id="path12"
     d="m 255.993,375.726 v 0 c -26.526,0 -48.03,-21.504 -48.03,-48.029 v -40.025 h 96.059 v 40.025 c 0.001,26.525 -21.503,48.029 -48.029,48.029 z"
     style="fill:#e3aa75" /><path
     inkscape:connector-curvature="0"
     id="path14-8"
     d="m 207.964,325.562 c 14.728,6.461 30.943,10.139 48.029,10.139 17.086,0 33.301,-3.678 48.029,-10.139 v -37.89 h -96.059 z"
     style="fill:#d29b6e" /><g
     id="g20"><path
       inkscape:connector-curvature="0"
       id="path16"
       d="m 159.663,186.3 c 0.062,-0.907 0.271,-1.77 0.271,-2.692 0,-10.452 -4.1,-19.885 -10.661,-27.014 13.034,-6.012 21.4,-20.427 17.845,-36.37 -2.596,-11.642 -11.999,-21.138 -23.626,-23.802 -20.975,-4.805 -39.592,10.999 -39.592,31.152 0,2.453 0.279,4.84 0.806,7.133 1.431,6.229 -1.886,12.332 -7.188,15.901 -10.625,7.153 -17.633,19.217 -17.633,33 0,11.249 4.662,21.383 12.143,28.641 3.634,3.526 4.784,8.754 4.194,13.783 -0.388,3.307 -0.439,6.718 -0.11,10.2 2.274,24.093 23.321,43.291 47.521,43.434 26.66,0.158 48.321,-21.405 48.321,-48.029 0,-21.005 -13.506,-38.815 -32.291,-45.337 z"
       style="fill:#e6646e" /><path
       inkscape:connector-curvature="0"
       id="path18-2"
       d="m 352.323,186.3 c -0.062,-0.907 -0.271,-1.77 -0.271,-2.692 0,-10.452 4.1,-19.885 10.661,-27.014 -13.034,-6.012 -21.4,-20.427 -17.845,-36.37 2.596,-11.642 11.999,-21.138 23.626,-23.802 20.975,-4.805 39.592,10.999 39.592,31.152 0,2.453 -0.279,4.84 -0.806,7.133 -1.431,6.229 1.886,12.332 7.188,15.901 10.625,7.153 17.633,19.217 17.633,33 0,11.249 -4.662,21.383 -12.143,28.641 -3.634,3.526 -4.784,8.754 -4.194,13.783 0.388,3.307 0.439,6.718 0.11,10.2 -2.274,24.093 -23.321,43.291 -47.521,43.434 -26.66,0.158 -48.321,-21.405 -48.321,-48.029 0,-21.005 13.507,-38.815 32.291,-45.337 z"
       style="fill:#e6646e" /></g><path
     inkscape:connector-curvature="0"
     id="path22"
     d="m 372.064,159.593 h -12.007 v -16.01 c 0,-57.473 -46.591,-104.064 -104.064,-104.064 -57.473,0 -104.064,46.591 -104.064,104.064 v 16.01 h -12.007 c -11.053,0 -20.012,8.96 -20.012,20.012 0,11.052 8.96,20.012 20.012,20.012 h 12.007 v 8.005 c 0,57.473 46.591,104.064 104.064,104.064 57.473,0 104.064,-46.591 104.064,-104.064 v -8.005 h 12.007 c 11.053,0 20.012,-8.96 20.012,-20.012 10e-4,-11.052 -8.959,-20.012 -20.012,-20.012 z"
     style="fill:#f5b97d" /><path
     inkscape:connector-curvature="0"
     id="path24"
     d="M 183.949,207.623 V 68.599 c -19.703,18.935 -32.02,45.499 -32.02,74.984 v 16.01 h -12.007 c -11.053,0 -20.012,8.96 -20.012,20.012 0,11.052 8.96,20.012 20.012,20.012 h 12.007 v 8.005 c 0,57.473 46.591,104.064 104.064,104.064 5.458,0 10.778,-0.547 16.01,-1.357 -49.851,-7.718 -88.054,-50.693 -88.054,-102.706 z"
     style="fill:#e3aa75" /><path
     inkscape:connector-curvature="0"
     id="path26"
     d="m 215.969,223.632 c 0,22.105 17.92,40.025 40.024,40.025 22.104,0 40.025,-17.92 40.024,-40.025 z"
     style="fill:#ffffff" /><circle
     id="circle28"
     r="24.02"
     cy="199.62"
     cx="255.991"
     style="fill:#ff8087" /><path
     inkscape:connector-curvature="0"
     id="path30-5"
     d="m 250.189,23.646 c -64.583,3.041 -114.27,58.673 -114.27,123.327 v 16.606 l 19.04,-2.371 c 7.414,-0.923 12.979,-7.224 12.979,-14.696 v -0.01 c 0,-48.483 37.93,-90.072 86.405,-90.959 49.386,-0.904 89.703,38.859 89.703,88.039 v 2.93 c 0,7.471 5.565,13.772 12.979,14.696 l 19.04,2.371 V 143.582 C 376.067,75.344 319.143,20.4 250.189,23.646 Z"
     style="fill:#e6646e" /><path
     inkscape:connector-curvature="0"
     id="path32"
     d="m 343.807,58.778 c -2.389,-24.292 -22.869,-43.273 -47.789,-43.273 -6.299,0 -12.298,1.246 -17.809,3.45 C 271.636,11.942 262.36,7.5 251.991,7.5 c -19.895,0 -36.022,16.128 -36.022,36.022 0,18.941 14.668,34.297 33.239,35.742 -0.715,2.658 -1.219,5.401 -1.219,8.285 0,17.684 14.335,32.02 32.02,32.02 5.017,0 9.704,-1.256 13.931,-3.313 7.022,11.54 19.602,19.322 34.099,19.322 22.105,0 40.025,-17.92 40.025,-40.025 -0.002,-16.5 -9.998,-30.652 -24.257,-36.775 z"
     style="fill:#ff8087" /><path
     inkscape:connector-curvature="0"
     id="path34"
     d="m 268.001,211.625 c -13.263,0 -24.015,-10.752 -24.015,-24.015 0,-3.519 0.799,-6.837 2.16,-9.848 -8.339,3.765 -14.167,12.112 -14.167,21.856 0,13.263 10.752,24.015 24.015,24.015 9.744,0 18.09,-5.828 21.855,-14.166 -3.012,1.359 -6.329,2.158 -9.848,2.158 z"
     style="fill:#e6646e" /><path
     inkscape:connector-curvature="0"
     id="path36"
     d="m 215.472,176.299 v -8.005 c 0,-4.142 -3.358,-7.5 -7.5,-7.5 -4.142,0 -7.5,3.358 -7.5,7.5 v 8.005 c 0,4.142 3.358,7.5 7.5,7.5 4.142,0 7.5,-3.358 7.5,-7.5 z" /><path
     inkscape:connector-curvature="0"
     id="path38"
     d="m 304.03,183.799 c 4.142,0 7.5,-3.358 7.5,-7.5 v -8.005 c 0,-4.142 -3.358,-7.5 -7.5,-7.5 -4.142,0 -7.5,3.358 -7.5,7.5 v 8.005 c 0,4.142 3.358,7.5 7.5,7.5 z" /><path
     inkscape:connector-curvature="0"
     id="path40"
     d="M 405.225,347.892 375.016,337.23 c 0.126,-6.622 -4.043,-12.635 -10.445,-14.852 -17.221,-5.964 -35.037,-10.504 -53.049,-13.546 v -4.473 c 11.317,-6.521 21.383,-14.976 29.757,-24.902 8.188,4.523 17.324,6.882 26.769,6.881 0.721,0 1.445,-0.014 2.169,-0.041 27.142,-1.031 50.469,-22.995 53.106,-50.005 0.389,-3.983 0.353,-8.001 -0.107,-11.942 -0.178,-1.522 -0.342,-5.307 1.981,-7.563 9.289,-9.021 14.404,-21.099 14.404,-34.008 0,-17.255 -9.456,-33.155 -24.677,-41.494 -0.97,-0.532 -1.433,-1.807 -1.076,-2.965 2.194,-7.12 2.304,-14.808 0.318,-22.234 -3.688,-13.794 -15.098,-24.727 -29.068,-27.853 -3.447,-0.771 -6.886,-1.087 -10.291,-0.979 C 372.297,73.082 363.482,60.718 350.688,53.785 346.057,27.403 323.264,8.004 296.017,8.004 c -5.42,0 -10.768,0.792 -15.957,2.361 C 272.202,3.648 262.403,0 251.991,0 c -16.7,0 -31.224,9.459 -38.519,23.297 -32.286,11.4 -57.784,34.842 -72.144,64.299 -4.747,-0.656 -9.587,-0.447 -14.441,0.639 -13.969,3.125 -25.378,14.058 -29.067,27.852 -1.985,7.426 -1.875,15.114 0.318,22.233 0.357,1.159 -0.105,2.434 -1.076,2.966 -15.221,8.339 -24.676,24.239 -24.676,41.494 0,12.909 5.115,24.987 14.405,34.009 2.322,2.255 2.159,6.039 1.98,7.563 -0.46,3.94 -0.497,7.958 -0.107,11.941 2.637,27.009 25.964,48.974 53.105,50.004 0.725,0.027 1.448,0.041 2.169,0.041 9.445,0 18.582,-2.358 26.769,-6.881 8.374,9.926 18.44,18.381 29.756,24.902 v 4.473 c -18.012,3.042 -35.828,7.582 -53.049,13.546 -6.404,2.217 -10.573,8.233 -10.445,14.857 l -30.193,10.656 c -25.354,8.948 -42.389,33.025 -42.389,59.912 V 504.5 c 0,4.142 3.358,7.5 7.5,7.5 4.142,0 7.5,-3.358 7.5,-7.5 v -96.696 c 0,-20.54 13.013,-38.932 32.381,-45.768 l 27.343,-9.651 c 5.078,24.202 17.561,46.296 35.981,63.284 20.247,18.673 46.073,29.651 73.4,31.354 v 56.78 c 0,4.142 3.358,7.5 7.5,7.5 4.142,0 7.5,-3.358 7.5,-7.5 v -56.78 c 27.327,-1.704 53.153,-12.681 73.4,-31.354 18.422,-16.99 30.904,-39.085 35.982,-63.29 l 27.358,9.656 c 19.368,6.835 32.381,25.228 32.381,45.768 V 504.5 c 0,4.142 3.358,7.5 7.5,7.5 4.142,0 7.5,-3.358 7.5,-7.5 v -96.696 c 10e-4,-26.887 -17.034,-50.964 -42.388,-59.912 z m -5.55,-227.93 c 1.274,4.766 1.22,9.457 -0.163,13.943 -2.449,7.954 1.001,16.59 8.205,20.536 10.414,5.706 16.883,16.564 16.883,28.339 0,8.82 -3.5,17.076 -9.854,23.248 -5.009,4.864 -7.353,12.178 -6.43,20.065 0.336,2.88 0.362,5.822 0.077,8.743 -1.924,19.7 -18.943,35.721 -38.747,36.473 -6.791,0.258 -13.404,-1.148 -19.388,-4.083 10.948,-17.254 17.297,-37.7 17.297,-59.603 v -0.505 h 4.507 c 15.17,0 27.512,-12.342 27.512,-27.512 0,-11.065 -6.569,-20.619 -16.01,-24.983 v -11.039 c 0,-14.18 -2.309,-28.068 -6.856,-41.341 1.691,0.043 3.397,0.246 5.114,0.63 8.584,1.92 15.591,8.628 17.853,17.089 z m -32.965,3.164 c 1.231,6.707 1.857,13.542 1.857,20.458 v 8.51 h -8.51 c -4.692,0 -8.51,-3.817 -8.51,-8.51 0,-2.204 -0.085,-4.417 -0.236,-6.618 6.092,-3.437 11.349,-8.176 15.399,-13.84 z M 251.991,15 c 7.888,0 15.255,3.226 20.746,9.083 2.112,2.253 5.388,2.982 8.256,1.835 4.836,-1.933 9.891,-2.914 15.025,-2.914 20.942,0 38.278,15.695 40.325,36.507 0.268,2.72 1.993,5.079 4.504,6.158 11.977,5.143 19.715,16.873 19.715,29.885 0,17.934 -14.59,32.524 -32.524,32.524 -11.35,0 -21.702,-5.877 -27.691,-15.721 -1.403,-2.306 -3.868,-3.603 -6.412,-3.603 -1.104,0 -2.223,0.244 -3.276,0.757 -3.488,1.696 -7.071,2.557 -10.65,2.557 -13.52,0 -24.52,-11 -24.52,-24.52 0,-1.884 0.306,-3.898 0.961,-6.338 0.579,-2.154 0.169,-4.454 -1.118,-6.276 -1.287,-1.822 -3.319,-2.976 -5.543,-3.149 C 235.03,70.637 223.469,58.222 223.469,43.521 223.469,27.795 236.264,15 251.991,15 Z M 142.338,271.309 c -19.803,-0.752 -36.822,-16.773 -38.746,-36.473 -0.285,-2.922 -0.259,-5.864 0.077,-8.742 0.923,-7.888 -1.42,-15.202 -6.429,-20.065 -6.355,-6.172 -9.855,-14.429 -9.855,-23.249 0,-11.774 6.469,-22.633 16.883,-28.339 7.204,-3.946 10.655,-12.583 8.205,-20.537 -1.382,-4.485 -1.437,-9.176 -0.162,-13.942 2.262,-8.461 9.269,-15.169 17.851,-17.089 1.719,-0.385 3.428,-0.588 5.121,-0.631 -4.456,13.052 -6.864,26.974 -6.864,41.341 v 11.039 c -9.44,4.364 -16.01,13.918 -16.01,24.983 0,15.17 12.342,27.512 27.512,27.512 h 4.507 v 0.505 c 0,21.903 6.349,42.349 17.297,59.603 -5.982,2.933 -12.592,4.336 -19.387,4.084 z m 17.091,-63.686 v -16.01 c 0,-4.142 -3.358,-7.5 -7.5,-7.5 -4.142,0 -7.5,3.358 -7.5,7.5 v 0.505 h -4.507 c -6.899,0 -12.512,-5.613 -12.512,-12.512 0,-6.899 5.613,-12.512 12.512,-12.512 h 12.007 c 12.963,0 23.51,-10.546 23.51,-23.51 0,-22.397 8.974,-43.204 25.267,-58.586 3.012,-2.843 3.149,-7.59 0.305,-10.602 -2.844,-3.012 -7.59,-3.149 -10.602,-0.305 -19.327,18.246 -29.97,42.925 -29.97,69.493 0,4.692 -3.817,8.51 -8.51,8.51 h -8.51 v -8.51 c 0,-44.275 25.693,-83.834 65.101,-102.109 -0.032,0.679 -0.052,1.361 -0.052,2.047 0,19.718 13.566,36.745 32.093,41.816 -0.049,0.742 -0.073,1.477 -0.073,2.211 0,21.791 17.729,39.52 39.52,39.52 3.776,0 7.519,-0.566 11.186,-1.688 8.976,11.183 22.345,17.698 36.844,17.698 2.899,0 5.734,-0.275 8.492,-0.775 0.007,0.427 0.018,0.854 0.018,1.28 0,12.963 10.546,23.51 23.51,23.51 h 12.007 c 6.899,0 12.512,5.613 12.512,12.512 0,6.899 -5.613,12.512 -12.512,12.512 h -4.507 v -0.505 c 0,-4.142 -3.358,-7.5 -7.5,-7.5 -4.142,0 -7.5,3.358 -7.5,7.5 v 16.01 c 0,53.246 -43.318,96.564 -96.564,96.564 -53.246,0 -96.565,-43.319 -96.565,-96.564 z m 167.295,197.021 c -19.313,17.812 -44.433,27.621 -70.731,27.621 -26.298,0 -51.417,-9.81 -70.731,-27.621 -19.194,-17.702 -31.021,-41.736 -33.302,-67.673 -0.007,-0.084 0.126,-0.336 0.364,-0.418 15.641,-5.417 31.798,-9.6 48.14,-12.496 v 3.382 c 0,30.619 24.91,55.529 55.529,55.529 9.762,0 19.366,-2.571 27.773,-7.435 3.585,-2.074 4.81,-6.662 2.736,-10.248 -2.074,-3.586 -6.664,-4.809 -10.248,-2.736 -6.127,3.545 -13.133,5.418 -20.261,5.418 -22.348,0 -40.529,-18.181 -40.529,-40.529 v -15.875 c 12.569,4.918 26.239,7.622 40.529,7.622 14.29,0 27.96,-2.704 40.529,-7.622 v 15.875 c 0,4.717 -0.801,9.335 -2.38,13.724 -1.402,3.897 0.62,8.194 4.518,9.597 0.839,0.302 1.696,0.445 2.539,0.445 3.074,0 5.957,-1.904 7.058,-4.962 2.167,-6.023 3.266,-12.35 3.266,-18.803 v -3.382 c 16.342,2.896 32.499,7.079 48.141,12.496 0.237,0.083 0.371,0.334 0.363,0.418 -2.282,25.937 -14.109,49.971 -33.303,67.673 z" /><path
     inkscape:connector-curvature="0"
     id="path42"
     d="m 303.518,223.632 c 0,-4.142 -3.358,-7.5 -7.5,-7.5 H 282.82 c 2.969,-4.806 4.688,-10.462 4.688,-16.515 0,-17.377 -14.137,-31.515 -31.515,-31.515 -17.378,0 -31.515,14.137 -31.515,31.515 0,6.052 1.719,11.709 4.688,16.515 h -13.198 c -4.142,0 -7.5,3.358 -7.5,7.5 0,26.205 21.319,47.525 47.524,47.525 26.205,0 47.526,-21.32 47.526,-47.525 z m -64.039,-24.014 c 0,-9.106 7.409,-16.515 16.515,-16.515 9.106,0 16.515,7.409 16.515,16.515 0,9.106 -7.409,16.515 -16.515,16.515 -9.106,0 -16.515,-7.409 -16.515,-16.515 z m -15.138,31.514 h 63.304 c -3.395,14.332 -16.298,25.025 -31.652,25.025 -15.354,0 -28.257,-10.693 -31.652,-25.025 z" /><path
     inkscape:connector-curvature="0"
     id="path44"
     d="m 219.323,142.286 c 3.705,-1.853 5.206,-6.357 3.354,-10.063 -1.852,-3.704 -6.355,-5.206 -10.063,-3.354 l -16.01,8.005 c -3.705,1.853 -5.206,6.357 -3.354,10.063 1.314,2.628 3.963,4.147 6.714,4.147 1.127,0 2.271,-0.255 3.349,-0.793 z" /></g></svg>